<svg width="250.713562" height="91.589539" viewBox="0 0 250.714 91.5895" fill="none" xmlns="http://www.w3.org/2000/svg" xmlns:xlink="http://www.w3.org/1999/xlink">
    <desc>
        Created with Pixso.
    </desc>
    <defs>
        <filter id="filter_5_3548_dd" x="0.000000" y="0.000000" width="250.713562" height="91.589539" filterUnits="userSpaceOnUse" color-interpolation-filters="sRGB">
            <feFlood flood-opacity="0" result="BackgroundImageFix"/>
            <feColorMatrix in="SourceAlpha" type="matrix" values="0 0 0 0 0 0 0 0 0 0 0 0 0 0 0 0 0 0 127 0" result="hardAlpha"/>
            <feOffset dx="0" dy="4"/>
            <feGaussianBlur stdDeviation="1.33333"/>
            <feComposite in2="hardAlpha" operator="out" k2="-1" k3="1"/>
            <feColorMatrix type="matrix" values="0 0 0 0 0 0 0 0 0 0 0 0 0 0 0 0 0 0 0.25 0"/>
            <feBlend mode="normal" in2="BackgroundImageFix" result="effect_dropShadow_1"/>
            <feBlend mode="normal" in="SourceGraphic" in2="effect_dropShadow_1" result="shape"/>
        </filter>
    </defs>
    <g filter="url(#filter_5_3548_dd)">
        <path id="Demo" d="M55.23 16.84Q53.78 13.95 51.71 11.88Q48.82 8.06 45.05 5.58Q44.85 5.45 44.64 5.32Q40.66 2.74 36.32 1.73Q34.93 1.38 33.51 1.2Q30.56 0.82 27.53 1.14Q25.76 1.33 24.06 1.77Q21.48 2.45 19.06 3.72Q15.21 3.57 12.16 5.06Q12.05 5.11 11.95 5.16Q8.82 6.73 7.22 8.01Q6.48 8.63 6.3 9.39Q6.25 9.63 6.25 9.89Q6.25 10.9 5.93 11.69L5.15 14.73Q4.84 16.02 5.15 17.47Q5.38 18.51 5.85 18.64Q6.03 18.69 6.25 18.6L10.11 17Q10.58 23.05 11.28 30.05Q12.03 37 13.04 43.95Q14.1 50.9 15.54 57.39Q16.99 63.87 19.06 68.99Q19.27 69.59 19.62 70.1Q20.01 70.69 20.58 71.18Q21.64 72.04 21.64 72.82Q21.48 73.64 20.89 74.62Q20.35 75.55 19.72 76.65Q19.69 76.71 19.66 76.78Q19.38 77.39 19.45 78.17Q19.53 79.07 19.37 79.69Q19.06 80.51 18.9 81.14Q18.75 81.76 19.06 82.58Q20.66 82.58 21.87 82.08Q23.08 81.61 24.33 80.83Q26.25 79.54 28.32 79.15Q30.42 78.76 32.65 77.15Q44.8 67.41 51.17 54.76Q55.47 46.21 57.14 36.33Q58.12 33.29 58.2 29.85Q58.23 28.42 58.11 27Q57.93 25.01 57.46 23.05Q56.67 19.69 55.23 16.84ZM47.5 14.16Q50.22 16.31 51.71 20.01Q52.65 27.23 51.28 33.87Q50.59 37.37 49.33 40.64Q48.19 43.59 46.6 46.37Q43.24 52.19 38.28 57.23Q33.32 62.27 27.22 66.26Q25.15 60.2 23.78 53.17Q22.42 46.1 21.52 39.15Q20.66 32.19 20.07 25.63Q19.53 19.07 19.06 13.8Q21.48 12.19 26.09 11.06Q30.74 9.93 35.78 10.28Q39.23 10.49 42.38 11.57Q43.84 12.06 45.23 12.74Q46.45 13.34 47.5 14.16ZM106.58 30.83Q105.64 29.46 104.51 28.33Q103.69 27.7 102.48 27.15Q101.3 26.57 100.52 26.26Q99.23 25.63 98.18 25.08Q97.16 24.5 95.87 24.34Q94.81 24.29 93.76 24.36Q91.63 24.51 89.55 25.16Q88.19 25.57 86.9 26.11Q85.2 26.83 83.61 27.78Q81.48 29.07 79.61 30.65Q79.04 31.13 78.49 31.65Q76.19 33.8 74.58 35.87Q73.72 36.97 72.95 38.13Q71.17 40.86 69.94 43.95Q68.43 47.69 67.79 51.57Q67.68 52.23 67.59 52.9Q67.4 54.54 67.4 56.18Q67.4 59.11 68.02 62.04Q68.21 62.92 68.46 63.78Q69.52 67.35 71.69 70.59Q72.36 71.37 73.61 72.19Q74.9 72.98 75.87 73.8Q77.79 75.4 79.15 76.22Q80.52 77 82.59 77.31Q83.18 77.37 83.76 77.39Q86.23 77.49 88.72 76.92Q91.85 76.18 94.9 74.85Q97.94 73.48 101.07 71.8Q104.19 70.08 107.24 68.52Q109.47 67.23 110.25 65.71Q110.42 65.39 110.63 65.09Q111.41 63.98 112.67 63.21Q113.89 62.47 114.79 61.45Q114.85 61.39 114.9 61.33Q115.87 60.2 116.65 59.38Q117.32 58.6 117.71 58.29Q118.1 57.94 118.1 57Q114.27 58.76 108.88 61.26Q103.53 63.72 98.02 65.71Q92.51 67.7 87.63 68.68Q82.75 69.62 80.01 68.52Q78.41 67.55 77.05 64.93Q75.72 62.27 75.37 60.01Q75.21 58.76 75.76 57.23Q76.34 55.71 77.32 54.89Q80.52 57.31 84.04 58.05Q85.85 58.41 87.65 58.41Q89.36 58.41 91.07 58.09Q92.74 57.83 94.32 57.31Q97.45 56.29 100.25 54.26Q102.26 52.83 103.93 51.06Q105.8 49.1 107.24 46.73Q109.62 42.58 109.55 39.62Q109.47 36.65 108.18 33.64Q107.55 32.19 106.58 30.83ZM126.92 37.31Q127.07 32.82 126.1 28.68Q125.78 28.52 125.7 28.52Q125.63 28.52 125.31 28.33Q125 28.17 124.65 27.94Q124.34 27.7 124.03 27.7Q123.71 27.7 123.4 28.68Q122.39 31.14 121.72 33.69Q120.99 36.44 120.67 39.3Q120.04 44.81 120.28 50.44Q120.3 51.04 120.33 51.64Q120.61 56.62 121.45 61.57Q122.42 67.08 123.4 72.19Q123.56 72.98 124.34 74.19Q124.95 75.08 125.79 75.49Q126.08 75.63 126.41 75.71Q126.81 75.81 127.19 75.76Q128.05 75.67 128.83 74.89Q130.74 73.95 132.19 73.09Q133.63 72.19 134.42 70.9Q134.82 70.33 135.05 69.68Q135.89 67.29 134.26 64.03Q135.24 60.01 137.23 56.02Q139.22 52.04 141.76 48.76Q144.34 45.48 147.31 43.01Q150.28 40.51 153.32 39.54Q154.92 45.63 156.25 53.17Q157.62 60.67 159.22 67.23Q160.04 70.44 160.51 72.04Q160.92 73.45 161.74 73.74Q161.84 73.78 161.95 73.8Q163.05 73.95 164.81 72.35Q166.6 70.75 168.36 68.01Q169.32 66.41 170.11 64.72Q170.9 63.05 171.53 61.3Q172.81 57.78 174.42 54.34Q176.02 50.9 178.63 47.78Q181.29 44.65 185.94 42.27Q186.92 46.41 187.54 50.44Q188.17 54.42 188.95 58.29Q189.77 62.12 190.9 65.63Q191.5 67.51 192.38 69.25Q193.14 70.77 194.1 72.19Q194.57 71.53 195.24 70.9Q195.7 70.44 196.1 69.97Q196.49 69.46 196.84 69.46Q198.09 68.17 198.48 67.7Q198.91 67.23 199.22 65.79Q199.69 64.19 199.22 60.36Q198.75 56.49 197.85 52.12Q196.99 47.7 195.86 43.48Q194.73 39.23 194.1 36.84Q194.02 36.59 193.92 36.36Q193.6 35.67 193.05 35.08Q192.57 34.52 191.96 34.27Q191.68 34.16 191.37 34.11Q190.86 33.98 190.44 34.11Q190.33 34.14 190.24 34.19Q189.77 34.42 189.14 34.42Q188.17 34.42 187.11 34.19Q186.42 34.03 185.77 34.12Q185.46 34.16 185.16 34.26Q182.11 35.24 179.38 37.31Q176.68 39.38 174.1 42.12Q171.56 44.81 169.06 47.78Q166.6 50.75 164.18 53.13Q164.18 44.03 163.71 39.07Q163.33 34.98 161.09 33.07Q160.61 32.66 160.04 32.35Q158.75 31.69 158.01 31.96Q157.31 32.19 156.49 32.51Q155.55 32.82 154.49 33.05Q153.48 33.29 152.5 34.11Q145.31 40.01 138.91 47.47Q135.98 50.85 133.63 54.6Q130.83 59.06 128.83 64.03Q127.83 62.09 127.25 60.04Q126.63 57.83 126.49 55.48Q126.37 53.19 126.37 50.9Q126.37 48.62 126.49 46.33Q126.76 41.76 126.92 37.31ZM227.38 34.11L230.11 31.37Q229.45 30.75 228.98 30.75L228.2 30.75Q227.06 30.56 226.03 30.82Q225.33 30.99 224.68 31.37Q220.03 35.05 217.06 39.77Q216.68 40.39 216.31 41.01Q213.86 45.2 212.26 49.89Q212.17 50.16 212.08 50.43Q210.38 55.52 209.53 60.9Q208.67 66.57 208.51 72.19L208.51 72.82Q208.51 73.64 208.67 74.11Q208.76 74.29 208.88 74.31Q208.96 74.33 209.06 74.26Q209.1 74.23 209.15 74.22Q209.36 74.17 209.64 74.42Q209.95 74.73 210.27 75.01Q210.34 75.06 210.43 75.09Q210.69 75.16 211.05 74.89Q211.7 76.13 212.63 77.1Q214.22 78.75 216.63 79.62Q220.5 80.98 223.7 80.51L223.72 80.51Q228.52 79.84 232.88 76.1Q237.3 72.35 240.97 66.73Q244.3 64.17 245.18 60.95Q245.23 60.77 245.27 60.59Q246.09 57.15 245.38 53.33Q244.68 49.46 243.31 45.55Q241.95 41.61 241.32 37.78Q240.97 35.05 239.68 34.11Q238.43 33.13 236.52 32.82Q233.94 32.82 231.28 33.4Q228.67 33.95 227.38 34.11ZM99.78 37.47Q99.82 37.62 99.86 37.78Q100.01 38.25 99.62 39.23Q99.23 40.2 98.72 41.18Q98.26 42.12 97.71 42.94Q97.16 43.72 96.97 44.03Q95.21 45.94 90.95 47.7Q86.73 49.46 83.06 49.46Q80.06 49.46 78.23 47.99Q77.73 47.59 77.32 47.08Q76.97 46.57 77.2 45.55Q77.47 44.5 77.79 44.03Q78.41 42.43 79.78 40.59Q81.15 38.76 82.67 37.15Q84.19 35.55 85.87 34.34Q87.55 33.13 88.84 32.66Q89.62 32.35 91.38 32.51Q93.14 32.66 94.9 33.4Q96.44 34.02 97.74 34.97Q97.92 35.1 98.1 35.24Q99.39 36.21 99.78 37.47ZM223.56 41.67Q223.73 42.12 224.68 42.27Q228.98 43.05 232.26 44.73Q233.81 45.53 234.81 46.76Q235.93 48.14 236.36 50.08Q236.99 52.82 236.56 55.94Q236.17 59.07 235.54 61.3Q234.8 63.22 233.86 65.04Q232.75 67.17 231.36 69.15Q230.46 70.45 229.36 71.54Q227.36 73.55 224.68 74.89Q221.79 76.33 220.03 75.87Q219.5 75.76 219.05 75.51Q218.16 75 217.61 73.87Q216.83 72.19 216.52 69.46Q216.17 66.26 216.09 61.96Q216.01 57.62 216.79 53.09Q216.97 52.09 217.2 51.1Q218.01 47.57 219.45 44.19Q220.85 40.93 223.09 38.43Q223.84 37.59 224.68 36.84Q224.68 37.78 224.25 38.76Q223.86 39.69 223.63 40.44Q223.39 41.14 223.55 41.65Q223.55 41.66 223.56 41.67Z" fill="#000000" fill-opacity="1.000000" fill-rule="evenodd"/>
        <path id="Demo" d="M51.71 11.88Q53.78 13.95 55.23 16.84Q56.67 19.69 57.46 23.05Q58.28 26.41 58.2 29.85Q58.12 33.29 57.14 36.33Q53 60.83 32.65 77.15Q30.42 78.76 28.32 79.15Q26.25 79.54 24.33 80.83Q23.08 81.61 21.87 82.08Q20.66 82.58 19.06 82.58Q18.75 81.76 18.9 81.14Q19.06 80.51 19.37 79.69Q19.53 79.07 19.45 78.17Q19.37 77.31 19.72 76.65Q20.35 75.55 20.89 74.62Q21.48 73.64 21.64 72.82Q21.64 72.04 20.58 71.18Q19.53 70.28 19.06 68.99Q16.99 63.87 15.54 57.39Q14.1 50.9 13.04 43.95Q12.03 37 11.28 30.05Q10.58 23.05 10.11 17L6.25 18.6Q5.46 18.91 5.15 17.47Q4.84 16.02 5.15 14.73L5.93 11.69Q6.25 10.9 6.25 9.89Q6.25 8.83 7.22 8.01Q8.82 6.73 11.95 5.16Q15.07 3.56 19.06 3.72Q23.08 1.61 27.53 1.14Q32.03 0.67 36.32 1.73Q40.66 2.74 44.64 5.32Q48.67 7.86 51.71 11.88ZM51.71 20.01Q49.64 14.89 45.23 12.74Q40.82 10.59 35.78 10.28Q30.74 9.93 26.09 11.06Q21.48 12.19 19.06 13.8Q19.53 19.07 20.07 25.63Q20.66 32.19 21.52 39.15Q22.42 46.1 23.78 53.17Q25.15 60.2 27.22 66.26Q33.32 62.27 38.28 57.23Q43.24 52.19 46.6 46.37Q49.96 40.51 51.28 33.87Q52.65 27.23 51.71 20.01ZM104.51 28.33Q105.64 29.46 106.58 30.83Q107.55 32.19 108.18 33.64Q109.47 36.65 109.55 39.62Q109.62 42.58 107.24 46.73Q104.51 51.22 100.25 54.26Q96.03 57.31 91.07 58.09Q87.55 58.76 84.04 58.05Q80.52 57.31 77.32 54.89Q76.34 55.71 75.76 57.23Q75.21 58.76 75.37 60.01Q75.72 62.27 77.05 64.93Q78.41 67.55 80.01 68.52Q82.75 69.62 87.63 68.68Q92.51 67.7 98.02 65.71Q103.53 63.72 108.88 61.26Q114.27 58.76 118.1 57Q118.1 57.94 117.71 58.29Q117.32 58.6 116.65 59.38Q115.87 60.2 114.9 61.33Q113.96 62.43 112.67 63.21Q111.07 64.19 110.25 65.71Q109.47 67.23 107.24 68.52Q104.19 70.08 101.07 71.8Q97.94 73.48 94.9 74.85Q91.85 76.18 88.72 76.92Q85.64 77.62 82.59 77.31Q80.52 77 79.15 76.22Q77.79 75.4 75.87 73.8Q74.9 72.98 73.61 72.19Q72.36 71.37 71.69 70.59Q69 66.57 68.02 62.04Q67.05 57.47 67.59 52.9Q68.18 48.33 69.94 43.95Q71.69 39.54 74.58 35.87Q76.19 33.8 78.49 31.65Q80.83 29.46 83.61 27.78Q86.42 26.1 89.55 25.16Q92.67 24.19 95.87 24.34Q97.16 24.5 98.18 25.08Q99.23 25.63 100.52 26.26Q101.3 26.57 102.48 27.15Q103.69 27.7 104.51 28.33ZM99.86 37.78Q99.55 36.33 98.1 35.24Q96.65 34.11 94.9 33.4Q93.14 32.66 91.38 32.51Q89.62 32.35 88.84 32.66Q87.55 33.13 85.87 34.34Q84.19 35.55 82.67 37.15Q81.15 38.76 79.78 40.59Q78.41 42.43 77.79 44.03Q77.47 44.5 77.2 45.55Q76.97 46.57 77.32 47.08Q79.23 49.46 83.06 49.46Q86.73 49.46 90.95 47.7Q95.21 45.94 96.97 44.03Q97.16 43.72 97.71 42.94Q98.26 42.12 98.72 41.18Q99.23 40.2 99.62 39.23Q100.01 38.25 99.86 37.78ZM126.1 28.68Q127.07 32.82 126.92 37.31Q126.76 41.76 126.49 46.33Q126.25 50.9 126.49 55.48Q126.76 60.01 128.83 64.03Q132.5 54.89 138.91 47.47Q145.31 40.01 152.5 34.11Q153.48 33.29 154.49 33.05Q155.55 32.82 156.49 32.51Q157.31 32.19 158.01 31.96Q158.75 31.69 160.04 32.35Q163.24 34.11 163.71 39.07Q164.18 44.03 164.18 53.13Q166.6 50.75 169.06 47.78Q171.56 44.81 174.1 42.12Q176.68 39.38 179.38 37.31Q182.11 35.24 185.16 34.26Q186.1 33.95 187.11 34.19Q188.17 34.42 189.14 34.42Q189.77 34.42 190.24 34.19Q190.74 33.95 191.37 34.11Q192.35 34.26 193.05 35.08Q193.79 35.87 194.1 36.84Q194.73 39.23 195.86 43.48Q196.99 47.7 197.85 52.12Q198.75 56.49 199.22 60.36Q199.69 64.19 199.22 65.79Q198.91 67.23 198.48 67.7Q198.09 68.17 196.84 69.46Q196.49 69.46 196.1 69.97Q195.7 70.44 195.24 70.9Q194.57 71.53 194.1 72.19Q192.03 69.15 190.9 65.63Q189.77 62.12 188.95 58.29Q188.17 54.42 187.54 50.44Q186.92 46.41 185.94 42.27Q181.29 44.65 178.63 47.78Q176.02 50.9 174.42 54.34Q172.81 57.78 171.53 61.3Q170.28 64.81 168.36 68.01Q166.6 70.75 164.81 72.35Q163.05 73.95 161.95 73.8Q160.98 73.64 160.51 72.04Q160.04 70.44 159.22 67.23Q157.62 60.67 156.25 53.17Q154.92 45.63 153.32 39.54Q150.28 40.51 147.31 43.01Q144.34 45.48 141.76 48.76Q139.22 52.04 137.23 56.02Q135.24 60.01 134.26 64.03Q136.33 68.17 134.42 70.9Q133.63 72.19 132.19 73.09Q130.74 73.95 128.83 74.89Q127.7 76.02 126.41 75.71Q125.16 75.4 124.34 74.19Q123.56 72.98 123.4 72.19Q122.42 67.08 121.45 61.57Q120.51 56.02 120.28 50.44Q120.04 44.81 120.67 39.3Q121.29 33.8 123.4 28.68Q123.71 27.7 124.03 27.7Q124.34 27.7 124.65 27.94Q125 28.17 125.31 28.33Q125.63 28.52 125.7 28.52Q125.78 28.52 126.1 28.68ZM230.11 31.37L227.38 34.11Q228.67 33.95 231.28 33.4Q233.94 32.82 236.52 32.82Q238.43 33.13 239.68 34.11Q240.97 35.05 241.32 37.78Q241.95 41.61 243.31 45.55Q244.68 49.46 245.38 53.33Q246.09 57.15 245.27 60.59Q244.49 64.03 240.97 66.73Q237.3 72.35 232.88 76.1Q228.51 79.85 223.7 80.51Q220.5 80.98 216.63 79.62Q212.81 78.25 211.05 74.89Q210.58 75.24 210.27 75.01Q209.95 74.73 209.64 74.42Q209.29 74.11 209.06 74.26Q208.82 74.42 208.67 74.11Q208.51 73.64 208.51 72.82L208.51 72.51L208.51 72.19Q208.67 66.57 209.53 60.9Q210.42 55.24 212.26 49.89Q214.1 44.5 217.06 39.77Q220.03 35.05 224.68 31.37Q226.28 30.44 228.2 30.75Q228.51 30.75 228.98 30.75Q229.45 30.75 230.11 31.37ZM224.68 42.27Q223.7 42.12 223.55 41.65Q223.39 41.14 223.63 40.44Q223.86 39.69 224.25 38.76Q224.68 37.78 224.68 36.84Q221.32 39.85 219.45 44.19Q217.61 48.52 216.79 53.09Q216.01 57.62 216.09 61.96Q216.17 66.26 216.52 69.46Q216.83 72.19 217.61 73.87Q218.43 75.55 220.03 75.87Q221.79 76.33 224.68 74.89Q228.82 72.82 231.36 69.15Q233.94 65.48 235.54 61.3Q236.17 59.07 236.56 55.94Q236.99 52.82 236.36 50.08Q235.54 46.41 232.26 44.73Q228.98 43.05 224.68 42.27Z" stroke="#000000" stroke-opacity="1.000000" stroke-width="1.000000"/>
    </g>
</svg>
