<svg width="867.000000" height="224.000000" viewBox="0 0 867 224" fill="none" xmlns="http://www.w3.org/2000/svg" xmlns:xlink="http://www.w3.org/1999/xlink">
    <desc>
        Created with Pixso.
    </desc>
    <defs>
        <filter id="filter_6_208_dd" x="195.796265" y="51.363464" width="469.906250" height="113.230286" filterUnits="userSpaceOnUse" color-interpolation-filters="sRGB">
            <feFlood flood-opacity="0" result="BackgroundImageFix"/>
            <feColorMatrix in="SourceAlpha" type="matrix" values="0 0 0 0 0 0 0 0 0 0 0 0 0 0 0 0 0 0 127 0" result="hardAlpha"/>
            <feOffset dx="0" dy="4"/>
            <feGaussianBlur stdDeviation="1.33333"/>
            <feComposite in2="hardAlpha" operator="out" k2="-1" k3="1"/>
            <feColorMatrix type="matrix" values="0 0 0 0 0 0 0 0 0 0 0 0 0 0 0 0 0 0 0.25 0"/>
            <feBlend mode="normal" in2="BackgroundImageFix" result="effect_dropShadow_1"/>
            <feBlend mode="normal" in="SourceGraphic" in2="effect_dropShadow_1" result="shape"/>
        </filter>
    </defs>
    <rect id="Rectangle 6" x="133.000000" rx="102.500000" width="605.000000" height="205.000000" fill="#367136" fill-opacity="1.000000"/>
    <rect id="Rectangle 5" x="151.000000" y="18.000000" rx="84.500000" width="568.000000" height="169.000000" fill="#CFE684" fill-opacity="1.000000"/>
    <g filter="url(#filter_6_208_dd)">
        <path id="Hand 1" d="M427.08 73.13Q425.16 64.22 425.16 53.99Q425.16 53.21 425.24 52.89Q425.26 52.81 425.24 52.74Q425.17 52.51 424.69 52.39Q424.43 52.32 424.25 52.41Q424 52.54 423.91 52.97Q423.87 53.17 423.77 53.34Q423.52 53.76 422.93 53.99Q422.15 54.3 421.49 55.35Q420.86 56.41 420.55 57.19Q420.2 58.48 419.73 59.77Q419.27 61 419.11 62.27L419.11 62.31Q418.44 67.11 418.68 71.68Q418.95 76.25 419.42 80.59Q419.89 84.89 420.43 89.14Q421.02 93.36 421.02 97.5L421.02 99.92Q418.95 99.61 415.08 98.4Q411.25 97.19 408.05 96.88Q406.76 96.72 405.79 97.11Q405.41 97.27 405.06 97.47Q404.54 97.77 404.07 98.17Q403.25 98.79 402.27 99.22Q401.74 99.44 401.32 99.78Q400.98 100.05 400.71 100.39Q398.33 103.25 396.51 106.42Q394.55 109.86 393.25 113.68Q390.79 121.02 392.54 130.16Q393.48 132.23 395.47 133.99Q397.5 135.75 399.89 137.19Q402.31 138.64 404.69 139.69Q407.11 140.71 408.87 141.21Q409.98 141.43 411.03 141.27Q411.5 141.2 411.96 141.06Q413.48 140.55 414.93 140.24Q415.96 139.99 416.99 139.99Q417.25 139.99 417.5 140Q417.76 140.02 418.01 140Q419.04 139.95 420.04 139.42Q423.75 137.66 426.76 135.59Q429.81 133.52 432.23 131.29Q432.5 131.01 432.67 130.67Q432.99 130.04 432.93 129.22Q432.86 127.93 433.33 126.96Q432.54 119.1 432.04 109.93Q431.57 100.71 430.28 91.29Q429.03 82 427.08 73.13ZM250.02 74.01Q250.01 74.08 249.99 74.14Q249.49 78.48 249.17 83.13Q248.86 87.74 248.71 92.39Q248.57 92.4 248.43 92.41Q243.92 92.74 239.49 94.07Q234.92 95.43 230.35 97.19Q225.82 98.95 221.17 100.71Q216.52 102.46 211.91 103.6Q211.56 96.41 211.32 90.16Q211.09 83.91 210.31 78.95Q211.4 76.72 211.01 75.12Q210.62 73.52 209.8 71.76Q209.02 70.32 208.28 68.79Q207.57 67.27 206.79 65.82Q206.28 65.04 205.66 64.73Q205.58 64.68 205.49 64.67Q204.91 64.54 204.06 65.67Q203.74 65.98 203.74 66.17Q203.74 66.33 203.43 66.64Q203.08 66.96 202.61 67.19Q202.47 67.26 202.38 67.37Q202.14 67.62 202.14 68.09Q201.17 77.19 200.85 86.8Q200.6 94.55 201.37 102.21Q201.55 104.04 201.79 105.86Q202.03 107.57 202.32 109.26Q203.68 116.92 206.36 124.34Q209.64 133.36 215.74 141.53Q215.74 140.55 215.23 138.56Q214.76 136.57 214.45 134.81Q214.14 132.54 214.21 130.94Q214.23 130.62 214.23 130.3Q214.23 129.02 213.98 127.74Q213.35 124.38 213.08 121.02Q212.85 117.66 212.53 114.46Q221.83 112.23 231.48 108.71Q241.17 105.2 248.86 102.97Q249.17 112.07 250.46 120.16Q251.75 128.25 254.45 133.67Q255.42 135.12 256.6 135.94Q257.81 136.72 259.41 138.01Q260.23 138.95 260.93 139.38Q261.67 139.77 261.83 140.24Q261.89 140.35 261.94 140.35Q262.04 140.35 262.14 140Q262.18 139.87 262.19 139.73Q262.23 139.28 261.99 138.79Q259.88 131.6 259.06 123.68Q258.28 115.75 257.96 107.58Q257.65 99.42 257.42 91.45Q257.18 83.44 256.52 76.25L256.05 71.45Q255.74 70.16 255.31 69.38Q255.11 68.97 254.82 68.88Q254.53 68.79 254.14 69.03Q253.67 69.34 253.39 69.61L252.22 70.78Q251.91 71.6 251.01 72.42Q250.21 73.15 250.02 74.01ZM658.9 104.65Q658.12 86.33 655.27 67.42Q654.92 68.09 654.84 68.56Q654.78 68.88 654.62 69.13Q654.54 69.24 654.45 69.34Q653.52 69.64 653.02 70.27Q652.92 70.38 652.85 70.51Q652.38 71.29 651.24 72.39Q651.15 73.51 650.55 74.22Q650.21 74.62 649.72 74.89Q649.3 75.11 648.99 75.44Q648.33 76.15 648.2 77.35Q647.73 86.96 647.57 96.96Q647.42 106.96 647.96 116.72Q648.55 126.49 650.03 135.43Q651.56 144.38 654.29 151.76Q654.3 151.77 654.32 151.78Q654.49 151.88 654.99 151.41Q655.58 150.94 656.13 150.12Q656.71 149.34 657.18 148.36Q657.65 147.42 657.96 146.64Q658.28 145.35 658.74 145.2Q659.25 145.04 659.72 144.22Q660.23 143.44 660.46 142.78Q660.7 142.15 660.7 140.86Q659.72 122.97 658.9 104.65ZM557.33 78.17Q557.64 75.59 557.49 73.99Q556.7 74.14 556.27 74.14Q555.88 74.14 555.1 74.46Q553.97 74.81 552.84 75.63Q551.74 76.41 550.92 76.88Q548.85 78.17 547.95 79.46Q547.09 80.71 546.31 82.97Q545.34 85.67 544.36 89.18Q543.42 92.7 542.52 96.72Q541.67 100.71 540.84 104.65Q540.06 108.56 539.4 111.92Q536.86 107.74 534.05 102.97Q533.56 102.13 533.04 101.3Q530.62 97.42 527.56 93.95Q526.46 92.67 525.27 91.48Q522.5 88.71 519.24 86.41Q518.8 86.09 518.35 85.8Q514.05 83.03 508.54 82.15Q508.63 81.69 508.56 81.25Q508.51 80.95 508.38 80.67Q508.07 79.92 507.56 79.1Q507.25 78.48 506.94 77.39Q506.74 76.68 506.29 76.41Q506.02 76.25 505.65 76.25Q504.87 76.25 504.2 76.49Q503.58 76.72 502.76 76.88Q502.29 77.03 502.06 77.27Q501.82 77.5 501.51 77.85Q501.16 78.17 500.77 78.48Q500.68 78.55 500.61 78.63Q500.38 78.93 500.38 79.42Q498.31 87.58 496.55 97.42Q494.79 107.27 494.52 117.5Q494.28 127.74 496.12 137.58Q497.59 145.3 501.05 151.99Q502.01 153.83 503.11 155.59Q503.89 154.65 503.89 152.7Q503.89 150.78 503.74 148.56Q504.2 147.74 504.59 145.9Q505.02 144.07 505.34 142.78Q505.65 141.68 505.81 141.21Q505.96 140.71 505.81 139.26Q503.74 129.03 504.28 117.27Q504.87 105.51 508.54 93.05Q512.52 93.99 516.43 97.5Q520.38 101.02 523.74 105.51Q527.09 110 529.87 114.73Q532.68 119.42 534.63 122.97Q536.2 125.67 537.09 128.4Q537.99 131.1 539.01 133.75Q540.06 136.41 541.39 138.99Q542.76 141.53 545.34 144.07Q545.65 144.38 546.01 144.63Q547.47 145.67 549.67 145.67Q549.98 145.67 550.27 145.72Q550.89 145.82 551.47 146.14Q551.78 146.31 552.09 146.33Q552.7 146.36 553.34 145.82Q554.44 145.04 555.42 144.07Q556.39 143.13 557.49 142Q557.49 135.9 555.81 131.14Q554.13 126.33 552.06 120.24Q552.52 112.54 554.13 104.5Q555.73 96.41 557.49 90.32Q557.33 88.87 556.86 86.72Q556.39 84.57 556.7 82.97Q557.02 80.71 557.33 78.17ZM315.51 105.86Q313.67 99.92 311.57 94.81Q310.94 93.67 310.12 92.39Q309.34 91.1 308.21 89.85Q307.21 88.73 306.03 87.87Q305.68 87.62 305.32 87.39Q303.75 86.33 302.15 85.51Q300.86 84.73 299.89 84.1Q299.38 83.75 298.82 83.58Q298.34 83.44 297.82 83.44Q297.03 83.44 296.45 83.52Q295.9 83.6 295.24 83.91Q291.1 84.89 286.76 86.96Q282.46 89.03 278.6 92.07Q277.87 92.65 277.19 93.26Q274.22 95.89 271.88 99.22Q271.22 100.15 270.67 101.14Q268.8 104.46 268.05 108.4Q267.82 108.97 268.01 109.21Q268.08 109.3 268.21 109.34Q268.67 109.48 269.04 109.34Q269.2 109.29 269.34 109.18Q269.65 109.03 270.04 108.87Q270.33 108.76 270.57 108.59Q270.68 108.5 270.78 108.4Q276.84 102.31 283.32 98.56Q284.54 97.85 285.82 97.28Q291.34 94.81 297.97 94.81Q300.04 95.59 302.27 97.85Q304.53 100.08 306.29 102.89Q307.43 104.69 308.2 106.64Q308.61 107.7 308.91 108.79Q309.73 111.66 309.14 114.2Q309.09 114.43 309.03 114.65L306.45 112.54Q305.35 111.6 303.99 110.67Q302.62 109.69 301.17 109.07Q299.87 108.47 298.5 108.22Q298.35 108.19 298.21 108.17Q297.34 108.03 296.5 108.13Q295.86 108.2 295.24 108.4Q288.89 110.54 284.76 114.81Q280.88 118.82 278.95 124.73Q277.5 128.87 277.07 132.97Q276.68 137.03 277.19 140.55Q277.5 142.31 277.82 142.54Q278.13 142.78 279.26 143.75Q280.86 145.04 282.19 146.06Q283.56 147.11 286.45 146.33Q289.18 145.67 291.72 144.14Q294.3 142.62 296.68 141.02Q299.1 139.42 301.41 137.93Q303.75 136.41 306.14 135.59Q306.76 136.57 307.46 136.88Q307.69 136.97 307.9 137.08Q308.41 137.33 308.87 137.66Q309.65 138.17 310.12 138.79Q310.63 139.42 311.25 139.61Q311.9 139.73 312.48 139.58Q313.48 139.34 314.3 138.32Q314.9 137.52 315.42 136.67Q317.49 133.22 318.05 128.87Q318.79 123.44 318.05 117.62Q317.35 111.76 315.51 105.86ZM587.56 98.48L590.3 95.75Q589.67 95.12 589.17 95.12L588.38 95.12Q587.24 94.93 586.21 95.19Q585.52 95.37 584.87 95.75Q580.22 99.42 577.25 104.14Q576.86 104.76 576.5 105.38Q574.04 109.57 572.45 114.26Q572.35 114.53 572.27 114.8Q570.57 119.9 569.71 125.28Q568.85 130.94 568.7 136.57Q568.7 137.85 569.17 142.15Q569.21 142.33 569.31 142.37Q569.55 142.46 570.1 141.68Q570.8 140.72 571.16 139.64Q571.22 139.45 571.27 139.26Q571.92 140.5 572.86 141.47Q574.45 143.13 576.86 143.99Q580.69 145.35 583.89 144.89L583.91 144.88Q588.7 144.22 593.07 140.47Q597.49 136.72 601.16 131.1Q604.55 128.53 605.41 125.28Q605.46 125.12 605.49 124.96Q606.31 121.53 605.57 117.7Q604.87 113.83 603.5 109.93Q602.13 105.98 601.51 102.15Q601.16 99.42 599.87 98.48Q598.62 97.5 596.7 97.19Q594.13 97.19 591.47 97.78Q588.85 98.32 587.56 98.48ZM346.2 114.42Q343.42 117.5 340.69 120.24Q340.53 116.57 339.95 112.5Q339.4 108.4 338.42 104.96Q337.49 101.53 336.12 99.3Q334.98 97.36 333.52 97.08Q333.28 97.03 333.03 97.03Q332.37 97.03 331.24 96.57Q330.41 96.18 329.66 96.29Q329.41 96.32 329.17 96.41Q328.23 96.72 327.33 97.19Q326.47 97.66 326.12 98.32L327.09 101.21Q328.38 105.51 329.63 110.39Q330.92 115.28 332.13 120.08Q333.34 124.89 334.36 129.22Q335.42 133.52 336.39 136.88Q336.86 138.48 336.94 138.79Q337.02 139.1 337.99 139.42Q339.24 139.92 339.56 140.59Q339.67 140.8 339.84 140.84Q340.17 140.94 340.69 140.39Q342.18 139.02 343.42 137.44Q344.33 136.29 345.1 135.04Q346.94 132.07 348.31 128.95Q349.67 125.82 350.77 122.74Q351.9 119.61 353.19 116.72Q355.1 112.7 357.49 110.16Q359.91 107.58 362.06 106.41Q364.2 105.2 365.88 105.35Q367.16 105.47 367.65 106.16Q367.8 106.37 367.88 106.64Q368.85 110.78 369.48 114.81Q370.14 118.79 370.92 122.66Q371.74 126.49 372.84 130Q373.44 131.88 374.31 133.62Q375.07 135.14 376.04 136.57Q377.33 136.06 377.56 135.67Q377.8 135.28 378.62 134.65Q379.4 134.14 380.18 133.21Q381 132.23 381.35 131.6L382.13 130.24Q382.45 129.69 382.6 128.87Q382.95 125.98 381.74 122.89Q380.53 119.77 379.59 116.72Q378.77 114.65 378.7 113.05Q378.62 111.45 377.99 109.69Q377.02 106.49 375.65 103.87Q374.38 101.41 372.38 99.99Q372.22 99.88 372.06 99.77Q371.59 99.37 371.04 99.21Q370.69 99.1 370.3 99.1L368.07 99.1Q367.31 99.4 366.61 99.28Q366.56 99.27 366.51 99.26Q366.45 99.25 366.39 99.24Q365.74 99.13 365.02 99.42Q361.51 100.86 358.31 103.21Q355.1 105.51 352.06 108.4Q351.04 109.37 350.05 110.35Q348.07 112.33 346.2 114.42ZM583.74 106.04Q583.91 106.49 584.87 106.64Q589.17 107.43 592.45 109.1Q593.99 109.9 594.99 111.13Q596.11 112.52 596.55 114.46Q597.17 117.19 596.78 120.32Q596.39 123.44 595.73 125.67Q594.99 127.59 594.04 129.41Q592.94 131.54 591.55 133.52Q590.65 134.82 589.55 135.92Q587.54 137.92 584.87 139.26Q581.98 140.71 580.22 140.24Q579.69 140.13 579.24 139.88Q578.34 139.37 577.8 138.25Q577.02 136.57 576.7 133.83Q576.39 130.63 576.27 126.33Q576.2 122 576.98 117.46Q577.16 116.46 577.39 115.47Q578.2 111.94 579.63 108.56Q581.04 105.31 583.28 102.8Q584.03 101.97 584.87 101.21Q584.87 102.15 584.44 103.13Q584.05 104.07 583.81 104.81Q583.58 105.51 583.74 106.02Q583.74 106.03 583.74 106.04ZM424.3 123.52Q424.38 126.8 424.22 128.56Q422.15 129.53 419.5 130.51Q418.4 130.9 417.28 131.18Q415.68 131.58 414.03 131.76Q411.45 132.05 408.91 131.87Q408.71 131.86 408.52 131.84Q407.73 131.77 406.96 131.6Q405.11 131.18 403.4 130.16Q399.26 125.98 398.29 121.45Q397.35 116.88 398.29 113.99Q399.38 111.55 401.19 109.9Q401.26 109.83 401.33 109.77Q403.22 108.12 405.4 107.14Q405.44 107.13 405.47 107.11Q407.74 106.14 410.04 105.75Q412.39 105.35 414.15 105.2Q416.89 106.35 418.77 108.32Q419.52 109.1 420.12 110Q422.31 113.21 423.25 116.72Q424.22 120.24 424.3 123.52ZM303.17 119.46Q305.16 121.21 306.14 123.28Q306.14 124.22 306.53 124.89Q306.92 125.51 307.15 126.02Q307.21 126.12 307.25 126.22Q307.39 126.62 307.27 127.11Q307.11 127.74 306.14 128.71Q301.99 130.78 296.21 133.52Q290.47 136.25 284.38 138.32Q284.31 138.17 284.24 138.03Q283.4 136.08 283.32 133.79Q283.29 132.62 283.37 131.47Q283.46 130.14 283.71 128.83Q284.22 126.33 285.16 123.87Q286.14 121.37 287.11 119.26Q290.12 116.88 293.09 116.41Q295.82 115.94 298.19 116.67Q298.39 116.73 298.6 116.8Q300.08 117.3 301.38 118.1Q302.32 118.7 303.17 119.46ZM623.38 136.41Q622.6 135.28 622.6 134.3Q622.6 133.71 622.31 133.4Q622.13 133.21 621.86 133.13Q621.16 132.89 620.38 132.54Q619.56 132.23 618.93 131.92Q618.31 131.6 617.17 131.6Q615.57 132.39 613.66 134.22Q611.74 136.06 610.3 138.95Q610.18 139.25 610.13 139.56Q610.04 140.1 610.14 140.67Q610.15 140.69 610.15 140.71Q610.29 141.55 609.99 142.46Q609.9 142.77 609.92 143.07Q609.99 143.87 610.84 144.61Q612.06 145.67 613.74 146.6Q615.42 147.58 617.17 148.64Q618.93 149.69 619.91 150.63Q619.91 148.56 620.38 147.11Q620.59 146.58 620.98 146.32Q621.16 146.2 621.39 146.14Q621.56 146.1 621.71 146.03Q622.24 145.8 622.6 145.2Q624.71 143.13 624.95 141.6Q625.15 140.27 624.79 139.11Q624.74 138.95 624.67 138.79Q624.42 138.1 624.07 137.46Q623.76 136.92 623.38 136.41Z" fill="#000000" fill-opacity="1.000000" fill-rule="evenodd"/>
        <path id="Hand 1" d="M249.99 74.14Q250.15 73.21 251.01 72.42Q251.91 71.6 252.22 70.78Q253.16 69.85 253.39 69.61Q253.67 69.34 254.14 69.03Q254.92 68.56 255.31 69.38Q255.74 70.16 256.05 71.45L256.52 76.25Q257.18 83.44 257.42 91.45Q257.65 99.42 257.96 107.58Q258.28 115.75 259.06 123.68Q259.88 131.6 261.99 138.79Q262.3 139.42 262.14 140Q261.99 140.55 261.83 140.24Q261.67 139.77 260.93 139.38Q260.23 138.95 259.41 138.01Q257.81 136.72 256.6 135.94Q255.42 135.12 254.45 133.67Q251.75 128.25 250.46 120.16Q249.17 112.07 248.86 102.97Q241.17 105.2 231.48 108.71Q221.83 112.23 212.53 114.46Q212.85 117.66 213.08 121.02Q213.35 124.38 213.98 127.74Q214.29 129.34 214.21 130.94Q214.14 132.54 214.45 134.81Q214.76 136.57 215.23 138.56Q215.74 140.55 215.74 141.53Q209.64 133.36 206.36 124.34Q203.08 115.28 201.79 105.86Q200.54 96.41 200.85 86.8Q201.17 77.19 202.14 68.09Q202.14 67.42 202.61 67.19Q203.08 66.96 203.43 66.64Q203.74 66.33 203.74 66.17Q203.74 65.98 204.06 65.67Q205.03 64.38 205.66 64.73Q206.28 65.04 206.79 65.82Q207.57 67.27 208.28 68.79Q209.02 70.32 209.8 71.76Q210.62 73.52 211.01 75.12Q211.4 76.72 210.31 78.95Q211.09 83.91 211.32 90.16Q211.56 96.41 211.91 103.6Q216.52 102.46 221.17 100.71Q225.82 98.95 230.35 97.19Q234.92 95.43 239.49 94.07Q244.06 92.7 248.71 92.39Q248.86 87.74 249.17 83.13Q249.49 78.48 249.99 74.14ZM311.57 94.81Q313.67 99.92 315.51 105.86Q317.35 111.76 318.05 117.62Q318.79 123.44 318.05 128.87Q317.35 134.3 314.3 138.32Q313.01 139.92 311.25 139.61Q310.63 139.42 310.12 138.79Q309.65 138.17 308.87 137.66Q308.21 137.19 307.46 136.88Q306.76 136.57 306.14 135.59Q303.75 136.41 301.41 137.93Q299.1 139.42 296.68 141.02Q294.3 142.62 291.72 144.14Q289.18 145.67 286.45 146.33Q283.56 147.11 282.19 146.06Q280.86 145.04 279.26 143.75Q278.13 142.78 277.82 142.54Q277.5 142.31 277.19 140.55Q276.68 137.03 277.07 132.97Q277.5 128.87 278.95 124.73Q282.93 112.54 295.24 108.4Q296.68 107.93 298.21 108.17Q299.73 108.4 301.17 109.07Q302.62 109.69 303.99 110.67Q305.35 111.6 306.45 112.54L309.03 114.65Q309.81 111.92 308.91 108.79Q308.05 105.67 306.29 102.89Q304.53 100.08 302.27 97.85Q300.04 95.59 297.97 94.81Q289.81 94.81 283.32 98.56Q276.84 102.31 270.78 108.4Q270.47 108.71 270.04 108.87Q269.65 109.03 269.34 109.18Q268.87 109.53 268.21 109.34Q267.74 109.18 268.05 108.4Q269.03 103.28 271.88 99.22Q274.77 95.12 278.6 92.07Q282.46 89.03 286.76 86.96Q291.1 84.89 295.24 83.91Q295.9 83.6 296.45 83.52Q297.03 83.44 297.82 83.44Q298.95 83.44 299.89 84.1Q300.86 84.73 302.15 85.51Q303.75 86.33 305.32 87.39Q306.92 88.4 308.21 89.85Q309.34 91.1 310.12 92.39Q310.94 93.67 311.57 94.81ZM306.14 123.28Q305.16 121.21 303.17 119.46Q301.17 117.66 298.6 116.8Q296.06 115.9 293.09 116.41Q290.12 116.88 287.11 119.26Q286.14 121.37 285.16 123.87Q284.22 126.33 283.71 128.83Q283.24 131.29 283.32 133.79Q283.4 136.25 284.38 138.32Q290.47 136.25 296.21 133.52Q301.99 130.78 306.14 128.71Q307.11 127.74 307.27 127.11Q307.42 126.49 307.15 126.02Q306.92 125.51 306.53 124.89Q306.14 124.22 306.14 123.28ZM340.69 120.24Q343.42 117.5 346.2 114.42Q349.01 111.29 352.06 108.4Q355.1 105.51 358.31 103.21Q361.51 100.86 365.02 99.42Q365.81 99.1 366.51 99.26Q367.25 99.42 368.07 99.1Q369.32 99.1 370.3 99.1Q371.27 99.1 372.06 99.77Q374.28 101.21 375.65 103.87Q377.02 106.49 377.99 109.69Q378.62 111.45 378.7 113.05Q378.77 114.65 379.59 116.72Q380.53 119.77 381.74 122.89Q382.95 125.98 382.6 128.87Q382.45 129.69 382.13 130.24Q381.82 130.78 381.35 131.6Q381 132.23 380.18 133.21Q379.4 134.14 378.62 134.65Q377.8 135.28 377.56 135.67Q377.33 136.06 376.04 136.57Q373.97 133.52 372.84 130Q371.74 126.49 370.92 122.66Q370.14 118.79 369.48 114.81Q368.85 110.78 367.88 106.64Q367.56 105.51 365.88 105.35Q364.2 105.2 362.06 106.41Q359.91 107.58 357.49 110.16Q355.1 112.7 353.19 116.72Q351.9 119.61 350.77 122.74Q349.67 125.82 348.31 128.95Q346.94 132.07 345.1 135.04Q343.27 138.01 340.69 140.39Q339.91 141.21 339.56 140.59Q339.24 139.92 337.99 139.42Q337.02 139.1 336.94 138.79Q336.86 138.48 336.39 136.88Q335.42 133.52 334.36 129.22Q333.34 124.89 332.13 120.08Q330.92 115.28 329.63 110.39Q328.38 105.51 327.09 101.21L326.12 98.32Q326.47 97.66 327.33 97.19Q328.23 96.72 329.17 96.41Q330.14 96.06 331.24 96.57Q332.37 97.03 333.03 97.03Q334.79 97.03 336.12 99.3Q337.49 101.53 338.42 104.96Q339.4 108.4 339.95 112.5Q340.53 116.57 340.69 120.24ZM425.16 53.99Q425.16 64.22 427.08 73.13Q429.03 82 430.28 91.29Q431.57 100.71 432.04 109.93Q432.54 119.1 433.33 126.96Q432.86 127.93 432.93 129.22Q433.01 130.47 432.23 131.29Q429.81 133.52 426.76 135.59Q423.75 137.66 420.04 139.42Q418.79 140.08 417.5 140Q416.22 139.92 414.93 140.24Q413.48 140.55 411.96 141.06Q410.47 141.53 408.87 141.21Q407.11 140.71 404.69 139.69Q402.31 138.64 399.89 137.19Q397.5 135.75 395.47 133.99Q393.48 132.23 392.54 130.16Q390.79 121.02 393.25 113.68Q395.75 106.33 400.71 100.39Q401.33 99.61 402.27 99.22Q403.25 98.79 404.07 98.17Q404.85 97.5 405.79 97.11Q406.76 96.72 408.05 96.88Q411.25 97.19 415.08 98.4Q418.95 99.61 421.02 99.92L421.02 97.5Q421.02 93.36 420.43 89.14Q419.89 84.89 419.42 80.59Q418.95 76.25 418.68 71.68Q418.44 67.11 419.11 62.31Q419.26 61.02 419.73 59.77Q420.2 58.48 420.55 57.19Q420.86 56.41 421.49 55.35Q422.15 54.3 422.93 53.99Q423.75 53.67 423.91 52.97Q424.07 52.23 424.69 52.39Q425.32 52.54 425.24 52.89Q425.16 53.21 425.16 53.99ZM424.22 128.56Q424.38 126.8 424.3 123.52Q424.22 120.24 423.25 116.72Q422.31 113.21 420.12 110Q417.97 106.8 414.15 105.2Q412.39 105.35 410.04 105.75Q407.74 106.14 405.47 107.11Q403.25 108.09 401.33 109.77Q399.42 111.45 398.29 113.99Q397.35 116.88 398.29 121.45Q399.26 125.98 403.4 130.16Q405.83 131.6 408.52 131.84Q411.25 132.07 414.03 131.76Q416.84 131.45 419.5 130.51Q422.15 129.53 424.22 128.56ZM557.49 73.99Q557.64 75.59 557.33 78.17Q557.02 80.71 556.7 82.97Q556.39 84.57 556.86 86.72Q557.33 88.87 557.49 90.32Q555.73 96.41 554.13 104.5Q552.52 112.54 552.06 120.24Q554.13 126.33 555.81 131.14Q557.49 135.9 557.49 142Q556.39 143.13 555.42 144.07Q554.44 145.04 553.34 145.82Q552.37 146.64 551.47 146.14Q550.61 145.67 549.67 145.67Q546.94 145.67 545.34 144.07Q542.76 141.53 541.39 138.99Q540.06 136.41 539.01 133.75Q537.99 131.1 537.09 128.4Q536.2 125.67 534.63 122.97Q532.68 119.42 529.87 114.73Q527.09 110 523.74 105.51Q520.38 101.02 516.43 97.5Q512.52 93.99 508.54 93.05Q504.87 105.51 504.28 117.27Q503.74 129.03 505.81 139.26Q505.96 140.71 505.81 141.21Q505.65 141.68 505.34 142.78Q505.02 144.07 504.59 145.9Q504.2 147.74 503.74 148.56Q503.89 150.78 503.89 152.7Q503.89 154.65 503.11 155.59Q497.99 147.42 496.12 137.58Q494.28 127.74 494.52 117.5Q494.79 107.27 496.55 97.42Q498.31 87.58 500.38 79.42Q500.38 78.79 500.77 78.48Q501.16 78.17 501.51 77.85Q501.82 77.5 502.06 77.27Q502.29 77.03 502.76 76.88Q503.58 76.72 504.2 76.49Q504.87 76.25 505.65 76.25Q506.63 76.25 506.94 77.39Q507.25 78.48 507.56 79.1Q508.07 79.92 508.38 80.67Q508.7 81.37 508.54 82.15Q514.63 83.13 519.24 86.41Q523.89 89.69 527.56 93.95Q531.27 98.17 534.05 102.97Q536.86 107.74 539.4 111.92Q540.06 108.56 540.84 104.65Q541.67 100.71 542.52 96.72Q543.42 92.7 544.36 89.18Q545.34 85.67 546.31 82.97Q547.09 80.71 547.95 79.46Q548.85 78.17 550.92 76.88Q551.74 76.41 552.84 75.63Q553.97 74.81 555.1 74.46Q555.88 74.14 556.27 74.14Q556.7 74.14 557.49 73.99ZM622.6 134.3Q622.6 135.28 623.38 136.41Q624.2 137.5 624.67 138.79Q625.18 140.08 624.95 141.6Q624.71 143.13 622.6 145.2Q622.13 145.98 621.39 146.14Q620.69 146.33 620.38 147.11Q619.91 148.56 619.91 150.63Q618.93 149.69 617.17 148.64Q615.42 147.58 613.74 146.6Q612.06 145.67 610.84 144.61Q609.67 143.6 609.99 142.46Q610.3 141.53 610.14 140.67Q609.99 139.77 610.3 138.95Q611.74 136.06 613.66 134.22Q615.57 132.39 617.17 131.6Q618.31 131.6 618.93 131.92Q619.56 132.23 620.38 132.54Q621.16 132.89 621.86 133.13Q622.6 133.36 622.6 134.3ZM590.3 95.75L587.56 98.48Q588.85 98.32 591.47 97.78Q594.13 97.19 596.7 97.19Q598.62 97.5 599.87 98.48Q601.16 99.42 601.51 102.15Q602.13 105.98 603.5 109.93Q604.87 113.83 605.57 117.7Q606.31 121.53 605.49 124.96Q604.71 128.4 601.16 131.1Q597.49 136.72 593.07 140.47Q588.7 144.22 583.89 144.89Q580.69 145.35 576.86 143.99Q573.03 142.62 571.27 139.26Q570.92 140.55 570.1 141.68Q569.32 142.78 569.17 142.15Q568.7 137.85 568.7 136.57Q568.85 130.94 569.71 125.28Q570.61 119.61 572.45 114.26Q574.28 108.87 577.25 104.14Q580.22 99.42 584.87 95.75Q586.47 94.81 588.38 95.12Q588.7 95.12 589.17 95.12Q589.67 95.12 590.3 95.75ZM584.87 106.64Q583.89 106.49 583.74 106.02Q583.58 105.51 583.81 104.81Q584.05 104.07 584.44 103.13Q584.87 102.15 584.87 101.21Q581.51 104.22 579.63 108.56Q577.8 112.89 576.98 117.46Q576.2 122 576.27 126.33Q576.39 130.63 576.7 133.83Q577.02 136.57 577.8 138.25Q578.62 139.92 580.22 140.24Q581.98 140.71 584.87 139.26Q589.01 137.19 591.55 133.52Q594.13 129.85 595.73 125.67Q596.39 123.44 596.78 120.32Q597.17 117.19 596.55 114.46Q595.73 110.78 592.45 109.1Q589.17 107.43 584.87 106.64ZM655.27 67.42Q658.12 86.33 658.9 104.65Q659.72 122.97 660.7 140.86Q660.7 142.15 660.46 142.78Q660.23 143.44 659.72 144.22Q659.25 145.04 658.74 145.2Q658.28 145.35 657.96 146.64Q657.65 147.42 657.18 148.36Q656.71 149.34 656.13 150.12Q655.58 150.94 654.99 151.41Q654.45 151.92 654.29 151.76Q651.56 144.38 650.03 135.43Q648.55 126.49 647.96 116.72Q647.42 106.96 647.57 96.96Q647.73 86.96 648.2 77.35Q648.39 75.59 649.72 74.89Q651.09 74.14 651.24 72.39Q652.38 71.29 652.85 70.51Q653.35 69.69 654.45 69.34Q654.76 69.03 654.84 68.56Q654.92 68.09 655.27 67.42Z" stroke="#000000" stroke-opacity="1.000000" stroke-width="1.000000"/>
    </g>
</svg>
