<svg width="209.000000" height="313.000000" viewBox="0 0 209 313" fill="none" xmlns="http://www.w3.org/2000/svg" xmlns:xlink="http://www.w3.org/1999/xlink">
    <desc>
        Created with Pixso.
    </desc>
    <defs>
        <filter id="filter_3_275_dd" x="0.000000" y="0.000000" width="209.000000" height="313.000000" filterUnits="userSpaceOnUse" color-interpolation-filters="sRGB">
            <feFlood flood-opacity="0" result="BackgroundImageFix"/>
            <feColorMatrix in="SourceAlpha" type="matrix" values="0 0 0 0 0 0 0 0 0 0 0 0 0 0 0 0 0 0 127 0" result="hardAlpha"/>
            <feOffset dx="0" dy="4"/>
            <feGaussianBlur stdDeviation="1.33333"/>
            <feComposite in2="hardAlpha" operator="out" k2="-1" k3="1"/>
            <feColorMatrix type="matrix" values="0 0 0 0 0 0 0 0 0 0 0 0 0 0 0 0 0 0 0.25 0"/>
            <feBlend mode="normal" in2="BackgroundImageFix" result="effect_dropShadow_1"/>
            <feBlend mode="normal" in="SourceGraphic" in2="effect_dropShadow_1" result="shape"/>
        </filter>
        <filter id="filter_3_278_dd" x="4.000000" y="8.000000" width="195.000000" height="297.000000" filterUnits="userSpaceOnUse" color-interpolation-filters="sRGB">
            <feFlood flood-opacity="0" result="BackgroundImageFix"/>
            <feColorMatrix in="SourceAlpha" type="matrix" values="0 0 0 0 0 0 0 0 0 0 0 0 0 0 0 0 0 0 127 0" result="hardAlpha"/>
            <feOffset dx="0" dy="4"/>
            <feGaussianBlur stdDeviation="1.33333"/>
            <feComposite in2="hardAlpha" operator="out" k2="-1" k3="1"/>
            <feColorMatrix type="matrix" values="0 0 0 0 0 0 0 0 0 0 0 0 0 0 0 0 0 0 0.25 0"/>
            <feBlend mode="normal" in2="BackgroundImageFix" result="effect_dropShadow_1"/>
            <feBlend mode="normal" in="SourceGraphic" in2="effect_dropShadow_1" result="shape"/>
        </filter>
        <filter id="filter_3_286_dd" x="38.000000" y="56.999992" width="128.299438" height="179.729156" filterUnits="userSpaceOnUse" color-interpolation-filters="sRGB">
            <feFlood flood-opacity="0" result="BackgroundImageFix"/>
            <feBlend mode="normal" in="SourceGraphic" in2="BackgroundImageFix" result="shape"/>
            <feColorMatrix in="SourceAlpha" type="matrix" values="0 0 0 0 0 0 0 0 0 0 0 0 0 0 0 0 0 0 127 0" result="hardAlpha"/>
            <feOffset dx="0" dy="4"/>
            <feGaussianBlur stdDeviation="1.33333"/>
            <feComposite in2="hardAlpha" operator="arithmetic" k2="-1" k3="1"/>
            <feColorMatrix type="matrix" values="0 0 0 0 0 0 0 0 0 0 0 0 0 0 0 0 0 0 0.25 0"/>
            <feBlend mode="normal" in2="shape" result="effect_innerShadow_1"/>
        </filter>
        <filter id="filter_3_287_dd" x="38.000000" y="56.999992" width="128.299438" height="179.729156" filterUnits="userSpaceOnUse" color-interpolation-filters="sRGB">
            <feFlood flood-opacity="0" result="BackgroundImageFix"/>
            <feBlend mode="normal" in="SourceGraphic" in2="BackgroundImageFix" result="shape"/>
            <feColorMatrix in="SourceAlpha" type="matrix" values="0 0 0 0 0 0 0 0 0 0 0 0 0 0 0 0 0 0 127 0" result="hardAlpha"/>
            <feOffset dx="0" dy="4"/>
            <feGaussianBlur stdDeviation="1.33333"/>
            <feComposite in2="hardAlpha" operator="arithmetic" k2="-1" k3="1"/>
            <feColorMatrix type="matrix" values="0 0 0 0 0 0 0 0 0 0 0 0 0 0 0 0 0 0 0.25 0"/>
            <feBlend mode="normal" in2="shape" result="effect_innerShadow_1"/>
        </filter>
        <clipPath id="clip3_285">
            <rect id="Nan 1" rx="0.000000" width="164.000000" height="219.000000" transform="translate(19.500000 37.500000)" fill="white" fill-opacity="0"/>
        </clipPath>
    </defs>
    <g filter="url(#filter_3_275_dd)">
        <rect id="Rectangle 1" x="8.000000" y="0.000002" rx="20.000000" width="197.000000" height="297.000000" fill="#985B26" fill-opacity="1.000000"/>
        <rect id="Rectangle 1" x="8.500000" y="0.500002" rx="20.000000" width="196.000000" height="296.000000" stroke="#000000" stroke-opacity="1.000000" stroke-width="1.000000"/>
        <g filter="url(#filter_3_278_dd)">
            <rect id="Rectangle 2" x="8.000000" y="8.000002" rx="20.000000" width="187.000000" height="289.000000" fill="#FFF0DB" fill-opacity="1.000000"/>
            <rect id="Rectangle 2" x="8.500000" y="8.500002" rx="20.000000" width="186.000000" height="288.000000" stroke="#000000" stroke-opacity="1.000000" stroke-width="1.000000"/>
        </g>
        <rect id="Nan 1" rx="0.000000" width="164.000000" height="219.000000" transform="translate(19.500000 37.500000)" fill="#FFFFFF" fill-opacity="0"/>
        <g clip-path="url(#clip3_285)">
            <g filter="url(#filter_3_286_dd)">
                <g filter="url(#filter_3_287_dd)">
                    <path id="Flattened" d="M99.28 138.05C111.92 132.67 121.92 127.66 133.88 120.87C138.07 118.63 141.99 123.23 141.13 126.2C141.03 126.55 140.74 127.22 140.36 128.09C138.66 132 135.21 139.9 139.8 140.27C135.62 143.63 125.59 152.43 117.79 165.66C121.93 165.26 123.78 166.01 126.33 167.06L126.54 167.15C132.38 169.57 134.48 178.31 126.71 177.88C119.92 177.43 113.79 177.63 107.67 178.59C107.83 181.78 107.88 185.03 107.84 188.33C110.68 187.49 113.12 186.61 114.96 185.64C115.58 185.28 116.07 184.75 116.57 184.2C117.82 182.84 119.12 181.43 122.68 182.53C126.37 184.21 126.49 195 122.41 195.7C116.92 196.51 112.13 197.28 107.5 198.09C107.04 206.51 106.2 214.95 105.39 222.85L96.75 217.94C97.44 212.18 97.56 206.1 97.4 199.99C93.93 200.68 90.33 201.44 86.39 202.3C81.31 203.48 79.73 195.57 84.77 194.19C88.59 193.15 92.47 192.21 96.18 191.32L96.99 191.13C96.77 187.79 96.51 184.48 96.25 181.25C92.13 182.51 87.87 184.11 83.27 186.1C75.43 189.1 76.84 176.94 82.16 175.4C84.74 174.57 87.15 173.8 89.4 173.09C82.98 150.06 75.11 141.12 57.62 131.43C50.86 128.15 53.04 122.21 62.19 125.79C82.23 133.5 90.34 146.21 96.98 170.75C99.23 170.07 101.28 169.47 103.14 168.94C106.95 161.77 113.17 153.33 118 146.77C122.28 140.95 125.47 136.62 124.9 136C123.67 134.62 117.84 136.67 112.06 138.7C107 140.48 101.96 142.25 100.08 141.69L99.28 138.05Z" fill="#454D9A" fill-opacity="1.000000" fill-rule="nonzero"/>
                    <path id="Flattened" d="" fill="#603B1A" fill-opacity="1.000000" fill-rule="evenodd"/>
                    <path id="Flattened" d="M94.21 74.45C97.28 69.85 109.01 56.75 112.26 57C115.16 57.11 123.21 77.32 125.25 86.82C125.85 89.44 123 90.33 119.89 91.3C117.96 91.9 115.92 92.54 114.56 93.64C113.23 94.75 111.91 99.86 110.53 106.83C114.59 105.56 117.43 104.14 117.55 102.69C117.99 98.99 122.82 95.93 125.19 95.9C128.18 95.84 133.2 104.98 132.95 111.28C132.93 114.04 121.35 116.46 108.52 117.85C108.31 119.06 108.09 120.29 107.88 121.54L107.87 121.59C106.53 129.3 105.12 137.44 103.59 144.42C119.29 141.39 136 139.42 151.14 139.18C155.64 138.89 166.39 165.81 166.29 170.46C166 183.7 143.89 215.47 130.17 234.6C127.32 237.86 120.85 237.06 116.52 234.28L93.07 218.23C90.7 216.17 91.59 211.83 95.56 214.29C100.81 217.62 111.54 221.85 117.49 222.65C122.95 223.4 141.23 178.84 142.32 171.32C142.97 167.91 138.63 151.37 130.82 150.84C93.1 152.29 73.28 160.93 62.44 166.04C70.73 186.3 79.94 211.37 80.39 215.07C80.58 219.85 76.24 224.08 65.14 217.74C61.54 215.25 43.51 173.5 38.69 151.5C38.65 151.26 38.6 151 38.55 150.74L38.55 150.74C37.93 147.51 37.05 142.88 40.84 141.72C45.56 140.5 53.32 145.45 56.43 151.91C57.2 153.63 58.01 155.48 58.84 157.43C68.47 153.18 81.38 149.23 95.53 146.09C96.91 137.82 97.98 128.05 98.7 118.7C92.92 119.07 87.42 119.2 83.15 119.02C69.46 117.08 74.34 112.09 83.67 111.64C87.17 111.44 93.24 110.65 99.29 109.51C99.99 96.1 99.82 85.1 98.58 83.09C97.98 82.19 97.09 81.37 96.22 80.57C94.19 78.7 92.25 76.91 94.21 74.45Z" fill="#454D9A" fill-opacity="1.000000" fill-rule="nonzero"/>
                    <path id="Flattened" d="" fill="#603B1A" fill-opacity="1.000000" fill-rule="evenodd"/>
                </g>
            </g>
        </g>
    </g>
</svg>
