<svg width="209.000000" height="313.000000" viewBox="0 0 209 313" fill="none" xmlns="http://www.w3.org/2000/svg" xmlns:xlink="http://www.w3.org/1999/xlink">
    <desc>
        Created with Pixso.
    </desc>
    <defs>
        <filter id="filter_4_536_dd" x="0.000000" y="0.000000" width="209.000000" height="313.000000" filterUnits="userSpaceOnUse" color-interpolation-filters="sRGB">
            <feFlood flood-opacity="0" result="BackgroundImageFix"/>
            <feColorMatrix in="SourceAlpha" type="matrix" values="0 0 0 0 0 0 0 0 0 0 0 0 0 0 0 0 0 0 127 0" result="hardAlpha"/>
            <feOffset dx="0" dy="4"/>
            <feGaussianBlur stdDeviation="1.33333"/>
            <feComposite in2="hardAlpha" operator="out" k2="-1" k3="1"/>
            <feColorMatrix type="matrix" values="0 0 0 0 0 0 0 0 0 0 0 0 0 0 0 0 0 0 0.25 0"/>
            <feBlend mode="normal" in2="BackgroundImageFix" result="effect_dropShadow_1"/>
            <feBlend mode="normal" in="SourceGraphic" in2="effect_dropShadow_1" result="shape"/>
        </filter>
        <filter id="filter_4_539_dd" x="4.000000" y="8.000000" width="195.000000" height="297.000000" filterUnits="userSpaceOnUse" color-interpolation-filters="sRGB">
            <feFlood flood-opacity="0" result="BackgroundImageFix"/>
            <feColorMatrix in="SourceAlpha" type="matrix" values="0 0 0 0 0 0 0 0 0 0 0 0 0 0 0 0 0 0 127 0" result="hardAlpha"/>
            <feOffset dx="0" dy="4"/>
            <feGaussianBlur stdDeviation="1.33333"/>
            <feComposite in2="hardAlpha" operator="out" k2="-1" k3="1"/>
            <feColorMatrix type="matrix" values="0 0 0 0 0 0 0 0 0 0 0 0 0 0 0 0 0 0 0.25 0"/>
            <feBlend mode="normal" in2="BackgroundImageFix" result="effect_dropShadow_1"/>
            <feBlend mode="normal" in="SourceGraphic" in2="effect_dropShadow_1" result="shape"/>
        </filter>
        <filter id="filter_4_540_dd" x="30.000000" y="85.000000" width="144.000000" height="144.000000" filterUnits="userSpaceOnUse" color-interpolation-filters="sRGB">
            <feFlood flood-opacity="0" result="BackgroundImageFix"/>
            <feColorMatrix in="SourceAlpha" type="matrix" values="0 0 0 0 0 0 0 0 0 0 0 0 0 0 0 0 0 0 127 0" result="hardAlpha"/>
            <feOffset dx="0" dy="4"/>
            <feGaussianBlur stdDeviation="1.33333"/>
            <feComposite in2="hardAlpha" operator="out" k2="-1" k3="1"/>
            <feColorMatrix type="matrix" values="0 0 0 0 0 0 0 0 0 0 0 0 0 0 0 0 0 0 0.25 0"/>
            <feBlend mode="normal" in2="BackgroundImageFix" result="effect_dropShadow_1"/>
            <feBlend mode="normal" in="SourceGraphic" in2="effect_dropShadow_1" result="shape"/>
        </filter>
    </defs>
    <g filter="url(#filter_4_536_dd)">
        <rect id="Rectangle 1" x="8.000000" rx="20.000000" width="197.000000" height="297.000000" fill="#985B26" fill-opacity="1.000000"/>
        <rect id="Rectangle 1" x="8.500000" y="0.500000" rx="20.000000" width="196.000000" height="296.000000" stroke="#454D9A" stroke-opacity="1.000000" stroke-width="1.000000"/>
        <g filter="url(#filter_4_539_dd)">
            <rect id="Rectangle 2" x="8.000000" y="8.000000" rx="20.000000" width="187.000000" height="289.000000" fill="#FFF0DB" fill-opacity="1.000000"/>
            <rect id="Rectangle 2" x="8.500000" y="8.500000" rx="20.000000" width="186.000000" height="288.000000" stroke="#454D9A" stroke-opacity="1.000000" stroke-width="1.000000"/>
        </g>
        <g filter="url(#filter_4_540_dd)">
            <path id="Vector" d="M102 218.44C138.14 218.44 167.44 189.14 167.44 153C167.44 116.85 138.14 87.55 102 87.55C65.85 87.55 36.55 116.85 36.55 153C36.55 189.14 65.85 218.44 102 218.44Z" fill="#FFFFFF" fill-opacity="1.000000" fill-rule="nonzero"/>
            <path id="Vector" d="M102 90.11C67.26 90.11 39.1 118.27 39.1 153C39.1 187.72 67.26 215.88 102 215.88C136.73 215.88 164.89 187.72 164.89 153C164.89 118.27 136.73 90.11 102 90.11ZM34 153C34 115.44 64.44 85 102 85C139.55 85 170 115.44 170 153C170 190.55 139.55 221 102 221C64.44 221 34 190.55 34 153Z" fill="#454D9A" fill-opacity="1.000000" fill-rule="evenodd"/>
            <path id="Vector" d="M102 212.3C134.75 212.3 161.31 185.75 161.31 153C161.31 120.24 134.75 93.69 102 93.69C69.24 93.69 42.68 120.24 42.68 153C42.68 185.75 69.24 212.3 102 212.3Z" fill="#603B1A" fill-opacity="1.000000" fill-rule="nonzero"/>
            <path id="Vector" d="M102 96.24C70.65 96.24 45.24 121.66 45.24 153C45.24 184.34 70.65 209.75 102 209.75C133.34 209.75 158.75 184.34 158.75 153C158.75 121.66 133.34 96.24 102 96.24ZM40.13 153C40.13 118.83 67.83 91.13 102 91.13C136.16 91.13 163.86 118.83 163.86 153C163.86 187.16 136.16 214.86 102 214.86C67.83 214.86 40.13 187.16 40.13 153Z" fill="#603B1A" fill-opacity="1.000000" fill-rule="evenodd"/>
            <path id="Vector" d="M101.31 103.25C100.64 107.23 100.44 113.37 101.27 121.73C101.4 122.99 100.48 124.1 99.23 124.23C97.97 124.35 96.86 123.44 96.73 122.19C95.87 113.58 96.06 107 96.81 102.5C97.18 100.27 97.72 98.42 98.42 97.06C99.02 95.89 100.2 94.23 102.21 94.23C104.22 94.23 105.4 95.9 106 97.07C106.69 98.43 107.21 100.28 107.57 102.51C108.3 107.02 108.43 113.6 107.52 122.2C107.39 123.45 106.27 124.36 105.01 124.23C103.76 124.09 102.85 122.97 102.99 121.72C103.87 113.36 103.71 107.22 103.07 103.24C102.82 101.69 102.51 100.54 102.2 99.75C101.89 100.54 101.57 101.69 101.31 103.25Z" fill="#FFFFFF" fill-opacity="1.000000" fill-rule="evenodd"/>
            <path id="Vector" d="M118.17 106.3C116.18 109.81 113.89 115.52 111.82 123.66C111.5 124.88 110.26 125.62 109.04 125.3C107.82 124.99 107.09 123.75 107.4 122.53C109.53 114.15 111.95 108.03 114.2 104.06C115.32 102.09 116.45 100.53 117.57 99.5C118.53 98.61 120.22 97.45 122.1 98.14C123.99 98.83 124.53 100.8 124.69 102.1C124.88 103.61 124.74 105.53 124.31 107.75C123.45 112.23 121.33 118.46 117.53 126.23C116.98 127.37 115.61 127.84 114.48 127.28C113.35 126.73 112.88 125.36 113.43 124.23C117.13 116.68 119.07 110.85 119.83 106.89C120.13 105.35 120.23 104.17 120.21 103.32C119.64 103.95 118.95 104.93 118.17 106.3Z" fill="#FFFFFF" fill-opacity="1.000000" fill-rule="evenodd"/>
            <path id="Vector" d="M133.12 114.63C130.06 117.25 125.95 121.83 121.22 128.76C120.51 129.81 119.09 130.07 118.05 129.36C117.01 128.65 116.74 127.23 117.45 126.19C122.32 119.05 126.69 114.13 130.16 111.16C131.88 109.69 133.48 108.62 134.89 108.03C136.1 107.52 138.07 107.01 139.61 108.3C141.15 109.6 140.98 111.63 140.69 112.91C140.35 114.4 139.56 116.15 138.4 118.09C136.06 122.01 131.94 127.14 125.71 133.14C124.8 134.01 123.35 133.99 122.48 133.08C121.61 132.17 121.63 130.73 122.54 129.86C128.59 124.02 132.41 119.21 134.48 115.75C135.29 114.4 135.79 113.33 136.06 112.52C135.31 112.93 134.32 113.6 133.12 114.63Z" fill="#FFFFFF" fill-opacity="1.000000" fill-rule="evenodd"/>
            <path id="Vector" d="M144.33 127.57C140.55 128.98 135.13 131.88 128.3 136.78C127.28 137.52 125.86 137.28 125.12 136.26C124.39 135.23 124.62 133.81 125.64 133.07C132.66 128.03 138.45 124.9 142.73 123.3C144.85 122.5 146.72 122.04 148.24 121.97C149.55 121.91 151.58 122.1 152.59 123.84C153.59 125.59 152.74 127.45 152.03 128.54C151.2 129.82 149.85 131.2 148.1 132.63C144.56 135.51 138.93 138.92 131.03 142.43C129.88 142.94 128.53 142.42 128.02 141.27C127.5 140.12 128.02 138.77 129.17 138.26C136.86 134.85 142.09 131.63 145.22 129.09C146.44 128.1 147.27 127.26 147.81 126.59C146.96 126.72 145.81 127.02 144.33 127.57Z" fill="#FFFFFF" fill-opacity="1.000000" fill-rule="evenodd"/>
            <path id="Vector" d="M150.43 143.56C146.39 143.6 140.31 144.46 132.22 146.74C131.01 147.08 129.75 146.37 129.41 145.16C129.07 143.94 129.78 142.68 130.99 142.34C139.31 140 145.82 139.04 150.39 139C152.65 138.98 154.57 139.18 156.02 139.64C157.27 140.03 159.11 140.9 159.46 142.88C159.81 144.87 158.37 146.32 157.33 147.11C156.11 148.03 154.38 148.86 152.24 149.6C147.93 151.1 141.48 152.38 132.85 152.97C131.59 153.06 130.5 152.11 130.42 150.85C130.33 149.6 131.28 148.51 132.53 148.42C140.92 147.84 146.94 146.61 150.75 145.29C152.23 144.78 153.3 144.27 154.03 143.83C153.19 143.66 152.01 143.55 150.43 143.56Z" fill="#FFFFFF" fill-opacity="1.000000" fill-rule="evenodd"/>
            <path id="Vector" d="M150.69 160.67C146.89 159.33 140.87 158.06 132.5 157.43C131.24 157.34 130.3 156.24 130.4 154.98C130.49 153.73 131.59 152.78 132.84 152.88C141.46 153.53 147.91 154.85 152.21 156.37C154.35 157.13 156.08 157.97 157.29 158.9C158.33 159.69 159.76 161.15 159.42 163.13C159.07 165.11 157.21 165.99 155.96 166.37C154.51 166.81 152.59 167.01 150.33 166.97C145.77 166.9 139.27 165.9 130.95 163.51C129.74 163.16 129.04 161.89 129.39 160.68C129.74 159.47 131 158.77 132.21 159.12C140.29 161.44 146.37 162.35 150.4 162.41C151.97 162.43 153.15 162.33 153.98 162.16C153.26 161.72 152.18 161.2 150.69 160.67Z" fill="#FFFFFF" fill-opacity="1.000000" fill-rule="evenodd"/>
            <path id="Vector" d="M145.09 176.85C141.97 174.28 136.75 171.03 129.1 167.58C127.95 167.06 127.44 165.71 127.96 164.56C128.48 163.41 129.83 162.9 130.98 163.42C138.86 166.98 144.46 170.42 147.99 173.32C149.74 174.76 151.07 176.15 151.9 177.44C152.6 178.54 153.45 180.39 152.45 182.13C151.44 183.88 149.4 184.07 148.1 184C146.57 183.92 144.71 183.45 142.59 182.64C138.33 181.02 132.57 177.85 125.57 172.76C124.55 172.01 124.33 170.59 125.07 169.57C125.81 168.55 127.24 168.33 128.25 169.07C135.05 174.01 140.46 176.94 144.22 178.38C145.69 178.94 146.83 179.24 147.67 179.37C147.14 178.7 146.31 177.85 145.09 176.85Z" fill="#FFFFFF" fill-opacity="1.000000" fill-rule="evenodd"/>
            <path id="Vector" d="M134.29 190.12C132.24 186.65 128.45 181.81 122.44 175.95C121.54 175.07 121.52 173.62 122.4 172.72C123.28 171.82 124.72 171.8 125.62 172.68C131.81 178.72 135.9 183.87 138.22 187.81C139.37 189.76 140.15 191.52 140.49 193.01C140.77 194.29 140.93 196.32 139.39 197.61C137.85 198.91 135.88 198.39 134.67 197.88C133.27 197.28 131.68 196.2 129.97 194.72C126.51 191.73 122.18 186.78 117.35 179.61C116.65 178.56 116.92 177.14 117.97 176.44C119.01 175.74 120.43 176.01 121.13 177.06C125.83 184.03 129.9 188.63 132.95 191.27C134.14 192.29 135.11 192.97 135.86 193.38C135.59 192.57 135.09 191.49 134.29 190.12Z" fill="#FFFFFF" fill-opacity="1.000000" fill-rule="evenodd"/>
            <path id="Vector" d="M119.6 198.91C118.87 194.94 116.96 189.1 113.31 181.53C112.77 180.4 113.25 179.03 114.38 178.49C115.51 177.94 116.88 178.42 117.42 179.55C121.17 187.35 123.25 193.59 124.09 198.08C124.5 200.31 124.63 202.23 124.44 203.74C124.27 205.04 123.72 207.01 121.84 207.69C119.95 208.38 118.27 207.22 117.31 206.32C116.19 205.28 115.07 203.72 113.97 201.75C111.75 197.76 109.37 191.63 107.28 183.23C106.98 182.01 107.72 180.77 108.94 180.47C110.17 180.16 111.4 180.91 111.71 182.13C113.73 190.29 115.99 196.01 117.95 199.52C118.72 200.9 119.4 201.87 119.96 202.51C119.98 201.66 119.89 200.46 119.6 198.91Z" fill="#FFFFFF" fill-opacity="1.000000" fill-rule="evenodd"/>
            <path id="Vector" d="M102.79 202.14C103.46 198.16 103.66 192.02 102.83 183.66C102.7 182.41 103.62 181.29 104.87 181.17C106.13 181.04 107.24 181.96 107.37 183.21C108.23 191.81 108.04 198.39 107.29 202.89C106.92 205.13 106.38 206.98 105.68 208.34C105.08 209.5 103.9 211.16 101.89 211.16C99.88 211.16 98.7 209.49 98.1 208.33C97.41 206.97 96.89 205.12 96.53 202.88C95.8 198.38 95.67 191.8 96.58 183.2C96.71 181.94 97.83 181.03 99.09 181.17C100.34 181.3 101.25 182.42 101.11 183.68C100.23 192.03 100.39 198.18 101.03 202.16C101.28 203.71 101.59 204.86 101.9 205.65C102.21 204.85 102.53 203.7 102.79 202.14Z" fill="#FFFFFF" fill-opacity="1.000000" fill-rule="evenodd"/>
            <path id="Vector" d="M85.89 199.43C87.88 195.92 90.17 190.22 92.25 182.08C92.56 180.86 93.8 180.12 95.02 180.43C96.24 180.74 96.98 181.98 96.67 183.2C94.53 191.58 92.11 197.7 89.86 201.68C88.75 203.65 87.61 205.2 86.49 206.24C85.53 207.13 83.85 208.28 81.96 207.6C80.07 206.91 79.53 204.94 79.37 203.64C79.19 202.12 79.33 200.21 79.75 197.98C80.61 193.5 82.73 187.27 86.53 179.5C87.09 178.37 88.45 177.9 89.58 178.45C90.72 179.01 91.18 180.37 90.63 181.5C86.94 189.06 84.99 194.89 84.23 198.84C83.94 200.38 83.84 201.57 83.85 202.42C84.42 201.78 85.12 200.81 85.89 199.43Z" fill="#FFFFFF" fill-opacity="1.000000" fill-rule="evenodd"/>
            <path id="Vector" d="M70.94 191.1C74.01 188.48 78.11 183.91 82.85 176.97C83.56 175.93 84.98 175.66 86.02 176.37C87.06 177.08 87.33 178.5 86.61 179.54C81.74 186.68 77.38 191.6 73.9 194.57C72.18 196.04 70.58 197.12 69.18 197.71C67.97 198.21 65.99 198.72 64.45 197.43C62.91 196.14 63.08 194.1 63.37 192.82C63.72 191.34 64.51 189.58 65.67 187.64C68.01 183.73 72.13 178.6 78.36 172.59C79.26 171.72 80.71 171.75 81.58 172.65C82.46 173.56 82.43 175 81.52 175.88C75.47 181.71 71.65 186.53 69.58 189.98C68.78 191.33 68.28 192.41 68 193.21C68.75 192.81 69.74 192.13 70.94 191.1Z" fill="#FFFFFF" fill-opacity="1.000000" fill-rule="evenodd"/>
            <path id="Vector" d="M59.74 178.16C63.51 176.75 68.94 173.85 75.76 168.95C76.78 168.22 78.21 168.45 78.94 169.48C79.68 170.5 79.44 171.93 78.42 172.66C71.4 177.71 65.61 180.84 61.34 182.44C59.22 183.23 57.35 183.69 55.82 183.76C54.51 183.83 52.48 183.63 51.48 181.89C50.47 180.15 51.33 178.29 52.04 177.19C52.87 175.91 54.21 174.54 55.97 173.11C59.5 170.23 65.13 166.82 73.04 163.31C74.19 162.8 75.54 163.32 76.05 164.47C76.56 165.62 76.04 166.97 74.89 167.48C67.21 170.89 61.97 174.1 58.85 176.65C57.63 177.64 56.79 178.48 56.26 179.14C57.1 179.02 58.26 178.72 59.74 178.16Z" fill="#FFFFFF" fill-opacity="1.000000" fill-rule="evenodd"/>
            <path id="Vector" d="M53.64 162.17C57.67 162.14 63.76 161.27 71.84 159C73.05 158.66 74.31 159.37 74.65 160.58C74.99 161.79 74.29 163.05 73.08 163.39C64.75 165.73 58.24 166.7 53.68 166.74C51.41 166.76 49.5 166.55 48.04 166.1C46.79 165.71 44.95 164.83 44.6 162.85C44.25 160.87 45.69 159.41 46.73 158.63C47.95 157.71 49.68 156.87 51.82 156.13C56.13 154.64 62.58 153.36 71.22 152.76C72.47 152.67 73.56 153.62 73.65 154.88C73.73 156.14 72.79 157.23 71.53 157.31C63.14 157.89 57.12 159.12 53.32 160.44C51.83 160.96 50.76 161.46 50.03 161.9C50.87 162.07 52.06 162.19 53.64 162.17Z" fill="#FFFFFF" fill-opacity="1.000000" fill-rule="evenodd"/>
            <path id="Vector" d="M53.37 145.06C57.17 146.4 63.19 147.67 71.57 148.3C72.82 148.4 73.76 149.49 73.67 150.75C73.57 152.01 72.48 152.95 71.22 152.85C62.6 152.21 56.15 150.89 51.85 149.36C49.71 148.61 47.99 147.76 46.77 146.84C45.73 146.04 44.3 144.59 44.65 142.61C45 140.62 46.85 139.75 48.1 139.37C49.56 138.92 51.47 138.73 53.73 138.76C58.29 138.83 64.8 139.84 73.11 142.23C74.32 142.58 75.02 143.84 74.67 145.05C74.32 146.26 73.06 146.96 71.85 146.61C63.77 144.29 57.69 143.39 53.66 143.33C52.09 143.3 50.91 143.41 50.08 143.57C50.81 144.02 51.88 144.53 53.37 145.06Z" fill="#FFFFFF" fill-opacity="1.000000" fill-rule="evenodd"/>
            <path id="Vector" d="M58.98 128.89C62.09 131.45 67.31 134.7 74.96 138.16C76.11 138.68 76.62 140.03 76.1 141.18C75.58 142.33 74.23 142.84 73.08 142.32C65.2 138.76 59.6 135.31 56.08 132.41C54.33 130.97 52.99 129.58 52.17 128.3C51.46 127.2 50.61 125.34 51.62 123.6C52.63 121.85 54.66 121.67 55.97 121.74C57.49 121.82 59.36 122.29 61.47 123.09C65.73 124.72 71.5 127.89 78.49 132.98C79.51 133.72 79.74 135.15 78.99 136.17C78.25 137.18 76.83 137.41 75.81 136.67C69.01 131.72 63.61 128.79 59.84 127.36C58.38 126.8 57.23 126.49 56.39 126.36C56.92 127.03 57.76 127.88 58.98 128.89Z" fill="#FFFFFF" fill-opacity="1.000000" fill-rule="evenodd"/>
            <path id="Vector" d="M69.77 115.61C71.82 119.08 75.61 123.92 81.63 129.79C82.53 130.67 82.54 132.11 81.67 133.01C80.79 133.92 79.34 133.93 78.44 133.05C72.25 127.01 68.16 121.86 65.84 117.93C64.69 115.97 63.91 114.21 63.58 112.73C63.29 111.45 63.13 109.41 64.67 108.12C66.21 106.83 68.19 107.35 69.39 107.86C70.8 108.46 72.39 109.54 74.1 111.02C77.55 114 81.88 118.95 86.71 126.13C87.42 127.17 87.14 128.59 86.1 129.29C85.05 130 83.63 129.72 82.93 128.67C78.24 121.7 74.16 117.1 71.11 114.47C69.93 113.44 68.95 112.76 68.21 112.35C68.48 113.16 68.97 114.25 69.77 115.61Z" fill="#FFFFFF" fill-opacity="1.000000" fill-rule="evenodd"/>
            <path id="Vector" d="M84.46 106.83C85.2 110.79 87.11 116.63 90.75 124.2C91.3 125.34 90.82 126.7 89.68 127.25C88.55 127.79 87.19 127.32 86.64 126.18C82.89 118.39 80.81 112.15 79.98 107.66C79.56 105.43 79.43 103.51 79.63 101.99C79.79 100.69 80.34 98.73 82.23 98.04C84.12 97.35 85.8 98.52 86.75 99.41C87.87 100.45 88.99 102.01 90.1 103.99C92.32 107.97 94.7 114.11 96.78 122.5C97.09 123.73 96.34 124.96 95.12 125.27C93.9 125.57 92.66 124.82 92.36 123.6C90.33 115.44 88.07 109.73 86.11 106.21C85.35 104.84 84.66 103.86 84.1 103.23C84.08 104.08 84.17 105.27 84.46 106.83Z" fill="#FFFFFF" fill-opacity="1.000000" fill-rule="evenodd"/>
            <path id="Vector" d="M102 187.55C121.08 187.55 136.55 172.08 136.55 153C136.55 133.91 121.08 118.44 102 118.44C82.91 118.44 67.44 133.91 67.44 153C67.44 172.08 82.91 187.55 102 187.55Z" fill="#FFFFFF" fill-opacity="1.000000" fill-rule="nonzero"/>
            <path id="Vector" d="M102 121.05C84.35 121.05 70.05 135.36 70.05 153C70.05 170.63 84.35 184.94 102 184.94C119.64 184.94 133.94 170.63 133.94 153C133.94 135.36 119.64 121.05 102 121.05ZM64.84 153C64.84 132.47 81.47 115.83 102 115.83C122.52 115.83 139.16 132.47 139.16 153C139.16 173.52 122.52 190.16 102 190.16C81.47 190.16 64.84 173.52 64.84 153Z" fill="#454D9A" fill-opacity="1.000000" fill-rule="evenodd"/>
            <path id="Vector" d="M102 182.57C118.33 182.57 131.57 169.33 131.57 153C131.57 136.66 118.33 123.42 102 123.42C85.66 123.42 72.42 136.66 72.42 153C72.42 169.33 85.66 182.57 102 182.57Z" fill="#E9411B" fill-opacity="1.000000" fill-rule="nonzero"/>
            <path id="Vector" d="M101.98 125.81L102.29 125.83C104.11 125.93 105.91 126.2 107.53 126.82C109.18 127.45 110.99 128.58 112.16 130.6C113.35 132.65 113.38 134.75 113.09 136.32C112.82 137.82 112.22 139.13 111.7 140.11C110.84 141.69 109.62 143.37 108.73 144.59C108.57 144.81 108.42 145.02 108.28 145.2C107.77 145.92 107.4 146.45 107.14 146.89C106.97 147.17 106.92 147.29 106.92 147.29C106.92 147.29 106.95 147.22 106.98 147.08L101.83 145.82L96.86 147.4C96.88 147.46 96.89 147.49 96.89 147.49C96.89 147.49 96.82 147.34 96.59 146.97C96.3 146.49 95.91 145.93 95.4 145.19C95.32 145.09 95.25 144.98 95.17 144.87C94.26 143.58 92.98 141.75 92.1 139.95C91.33 138.38 89.64 134.42 91.9 130.57C94.15 126.75 98.56 125.99 101.67 125.83L101.98 125.81Z" fill="#FFFFFF" fill-opacity="1.000000" fill-rule="evenodd"/>
            <path id="Vector" d="M101.92 133.98C102.77 133.98 103.45 134.67 103.45 135.51L103.45 146.01C103.45 146.85 102.77 147.54 101.92 147.54C101.08 147.54 100.4 146.85 100.4 146.01L100.4 135.51C100.4 134.67 101.08 133.98 101.92 133.98Z" fill="#E9411B" fill-opacity="1.000000" fill-rule="evenodd"/>
            <path id="Vector" d="M101.92 136.79C103.01 136.79 103.89 135.91 103.89 134.82C103.89 133.73 103.01 132.85 101.92 132.85C100.83 132.85 99.95 133.73 99.95 134.82C99.95 135.91 100.83 136.79 101.92 136.79Z" fill="#E9411B" fill-opacity="1.000000" fill-rule="nonzero"/>
            <path id="Vector" d="M106.91 139.41C107.43 139.63 107.68 140.22 107.47 140.74L104.78 147.33C104.57 147.85 103.98 148.1 103.46 147.89C102.94 147.68 102.69 147.08 102.9 146.56L105.58 139.97C105.8 139.45 106.39 139.2 106.91 139.41Z" fill="#E9411B" fill-opacity="1.000000" fill-rule="evenodd"/>
            <path id="Vector" d="M96.91 139.41C96.39 139.63 96.14 140.22 96.35 140.74L99.04 147.33C99.25 147.85 99.84 148.1 100.36 147.89C100.89 147.68 101.14 147.08 100.92 146.56L98.24 139.97C98.02 139.45 97.43 139.2 96.91 139.41Z" fill="#E9411B" fill-opacity="1.000000" fill-rule="evenodd"/>
            <path id="Vector" d="M102 159.55C105.62 159.55 108.55 156.62 108.55 153C108.55 149.37 105.62 146.44 102 146.44C98.37 146.44 95.44 149.37 95.44 153C95.44 156.62 98.37 159.55 102 159.55Z" fill="#FFFFFF" fill-opacity="1.000000" fill-rule="nonzero"/>
            <path id="Vector" d="M102 148.14C99.31 148.14 97.13 150.31 97.13 153C97.13 155.68 99.31 157.85 102 157.85C104.68 157.85 106.86 155.68 106.86 153C106.86 150.31 104.68 148.14 102 148.14ZM93.74 153C93.74 148.43 97.44 144.74 102 144.74C106.55 144.74 110.25 148.43 110.25 153C110.25 157.56 106.55 161.25 102 161.25C97.44 161.25 93.74 157.56 93.74 153Z" fill="#E9411B" fill-opacity="1.000000" fill-rule="evenodd"/>
            <path id="Vector" d="M102 156.49C103.92 156.49 105.49 154.92 105.49 153C105.49 151.07 103.92 149.5 102 149.5C100.07 149.5 98.5 151.07 98.5 153C98.5 154.92 100.07 156.49 102 156.49Z" fill="#E9411B" fill-opacity="1.000000" fill-rule="nonzero"/>
            <path id="Vector" d="M76.13 144.6L76.25 144.31C76.91 142.61 77.72 140.98 78.81 139.63C79.92 138.26 81.56 136.88 83.84 136.39C86.16 135.89 88.16 136.52 89.56 137.27C90.9 137.99 91.96 138.97 92.73 139.77C93.97 141.07 95.19 142.75 96.07 143.98C96.23 144.2 96.38 144.4 96.52 144.59C97.04 145.3 97.43 145.81 97.77 146.19C97.98 146.44 98.08 146.53 98.08 146.53C98.08 146.53 98.02 146.48 97.9 146.41L95.11 150.93L95.07 156.14C95.14 156.14 95.17 156.14 95.17 156.14C95.17 156.14 95 156.16 94.58 156.26C94.04 156.39 93.38 156.59 92.52 156.85C92.4 156.89 92.27 156.93 92.14 156.97C90.63 157.43 88.5 158.09 86.51 158.37C84.78 158.61 80.5 159 77.54 155.66C74.61 152.34 75.24 147.91 76.05 144.9L76.13 144.6Z" fill="#FFFFFF" fill-opacity="1.000000" fill-rule="evenodd"/>
            <path id="Vector" d="M83.89 147.18C84.15 146.38 85.01 145.94 85.81 146.2L95.79 149.44C96.6 149.7 97.04 150.56 96.77 151.37C96.51 152.17 95.65 152.61 94.85 152.35L84.87 149.1C84.06 148.84 83.63 147.98 83.89 147.18Z" fill="#E9411B" fill-opacity="1.000000" fill-rule="evenodd"/>
            <path id="Vector" d="M86.55 148.04C86.89 147.01 86.32 145.9 85.29 145.56C84.25 145.22 83.14 145.79 82.8 146.83C82.47 147.86 83.03 148.97 84.07 149.31C85.1 149.65 86.22 149.08 86.55 148.04Z" fill="#E9411B" fill-opacity="1.000000" fill-rule="nonzero"/>
            <path id="Vector" d="M90.59 144.11C90.96 143.68 91.6 143.63 92.03 143.99L97.46 148.58C97.89 148.94 97.95 149.59 97.58 150.02C97.22 150.45 96.58 150.5 96.15 150.14L90.71 145.55C90.28 145.19 90.23 144.54 90.59 144.11Z" fill="#E9411B" fill-opacity="1.000000" fill-rule="evenodd"/>
            <path id="Vector" d="M87.5 153.62C87.54 154.19 88.03 154.61 88.59 154.57L95.69 154.05C96.25 154 96.67 153.52 96.63 152.96C96.59 152.39 96.1 151.97 95.54 152.01L88.44 152.53C87.88 152.57 87.46 153.06 87.5 153.62Z" fill="#E9411B" fill-opacity="1.000000" fill-rule="evenodd"/>
            <path id="Vector" d="M86.01 174.99L85.77 174.79C84.35 173.64 83.06 172.36 82.11 170.91C81.15 169.43 80.34 167.44 80.59 165.12C80.83 162.77 82.04 161.05 83.2 159.95C84.3 158.9 85.55 158.19 86.55 157.71C88.17 156.93 90.15 156.29 91.59 155.83C91.84 155.75 92.09 155.67 92.3 155.6C93.14 155.32 93.75 155.1 94.22 154.9C94.52 154.78 94.64 154.71 94.64 154.71C94.64 154.71 94.57 154.75 94.46 154.84L97.9 158.89L102.84 160.53C102.86 160.47 102.87 160.44 102.87 160.44C102.88 160.44 102.84 160.61 102.81 161.04C102.76 161.6 102.75 162.28 102.73 163.18C102.73 163.31 102.72 163.44 102.72 163.58C102.7 165.15 102.66 167.39 102.31 169.36C102.01 171.08 101.06 175.28 96.96 177.06C92.89 178.83 88.88 176.86 86.27 175.16L86.01 174.99Z" fill="#FFFFFF" fill-opacity="1.000000" fill-rule="evenodd"/>
            <path id="Vector" d="M90.86 168.41C90.18 167.91 90.03 166.96 90.52 166.27L96.69 157.78C97.19 157.1 98.14 156.95 98.83 157.44C99.51 157.94 99.66 158.9 99.16 159.58L92.99 168.07C92.5 168.75 91.54 168.9 90.86 168.41Z" fill="#E9411B" fill-opacity="1.000000" fill-rule="evenodd"/>
            <path id="Vector" d="M92.51 166.14C91.63 165.5 90.4 165.7 89.76 166.58C89.12 167.46 89.31 168.69 90.19 169.33C91.07 169.97 92.3 169.77 92.94 168.89C93.58 168.01 93.39 166.78 92.51 166.14Z" fill="#E9411B" fill-opacity="1.000000" fill-rule="nonzero"/>
            <path id="Vector" d="M90.02 161.08C89.72 160.61 89.87 159.98 90.35 159.68L96.39 155.93C96.87 155.63 97.5 155.78 97.79 156.26C98.09 156.73 97.94 157.36 97.47 157.66L91.42 161.41C90.94 161.71 90.31 161.56 90.02 161.08Z" fill="#E9411B" fill-opacity="1.000000" fill-rule="evenodd"/>
            <path id="Vector" d="M98.11 166.96C98.65 167.1 99.2 166.76 99.34 166.22L101.04 159.31C101.18 158.76 100.84 158.21 100.3 158.07C99.75 157.94 99.2 158.27 99.06 158.82L97.36 165.73C97.23 166.28 97.56 166.83 98.11 166.96Z" fill="#E9411B" fill-opacity="1.000000" fill-rule="evenodd"/>
            <path id="Vector" d="M117.97 174.98L117.71 175.15C116.17 176.14 114.55 176.98 112.89 177.43C111.18 177.89 109.04 178.04 106.91 177.09C104.74 176.13 103.49 174.45 102.8 173.01C102.14 171.64 101.85 170.23 101.7 169.13C101.46 167.35 101.46 165.27 101.47 163.76C101.47 163.49 101.47 163.23 101.47 163C101.46 162.13 101.45 161.47 101.4 160.97C101.37 160.64 101.34 160.51 101.34 160.51C101.34 160.51 101.36 160.59 101.42 160.72L106.33 158.7L109.42 154.51C109.37 154.47 109.34 154.45 109.34 154.45C109.34 154.45 109.49 154.53 109.89 154.7C110.41 154.91 111.05 155.14 111.9 155.43C112.02 155.48 112.15 155.52 112.28 155.56C113.77 156.07 115.88 156.8 117.65 157.74C119.2 158.56 122.89 160.76 123.32 165.21C123.75 169.62 120.63 172.83 118.21 174.79L117.97 174.98Z" fill="#FFFFFF" fill-opacity="1.000000" fill-rule="evenodd"/>
            <path id="Vector" d="M113.21 168.34C112.52 168.83 111.57 168.68 111.07 168L104.9 159.51C104.41 158.82 104.56 157.87 105.24 157.37C105.92 156.88 106.88 157.03 107.38 157.71L113.55 166.2C114.04 166.88 113.89 167.84 113.21 168.34Z" fill="#E9411B" fill-opacity="1.000000" fill-rule="evenodd"/>
            <path id="Vector" d="M111.56 166.07C110.68 166.71 110.48 167.94 111.12 168.82C111.76 169.7 113 169.9 113.88 169.26C114.76 168.62 114.95 167.38 114.31 166.5C113.67 165.62 112.44 165.43 111.56 166.07Z" fill="#E9411B" fill-opacity="1.000000" fill-rule="nonzero"/>
            <path id="Vector" d="M105.98 166.88C105.44 167.01 104.88 166.68 104.75 166.13L103.05 159.22C102.91 158.67 103.25 158.12 103.79 157.99C104.34 157.85 104.89 158.19 105.03 158.73L106.73 165.64C106.86 166.19 106.53 166.74 105.98 166.88Z" fill="#E9411B" fill-opacity="1.000000" fill-rule="evenodd"/>
            <path id="Vector" d="M114.07 161C114.37 160.52 114.22 159.89 113.74 159.59L107.7 155.84C107.22 155.54 106.59 155.69 106.29 156.17C106 156.65 106.14 157.28 106.62 157.57L112.67 161.33C113.15 161.62 113.77 161.48 114.07 161Z" fill="#E9411B" fill-opacity="1.000000" fill-rule="evenodd"/>
            <path id="Vector" d="M127.83 144.59L127.91 144.89C128.38 146.66 128.68 148.46 128.59 150.18C128.5 151.95 127.98 154.03 126.42 155.77C124.85 157.53 122.86 158.2 121.28 158.41C119.77 158.62 118.34 158.45 117.25 158.25C115.48 157.93 113.5 157.28 112.07 156.81C111.81 156.73 111.57 156.65 111.35 156.58C110.51 156.31 109.89 156.13 109.39 156.01C109.08 155.94 108.94 155.93 108.94 155.93C108.94 155.93 109.02 155.93 109.16 155.92L108.76 150.63L105.72 146.38C105.67 146.42 105.64 146.44 105.64 146.44C105.64 146.44 105.77 146.32 106.05 146C106.41 145.57 106.83 145.03 107.37 144.31C107.45 144.21 107.53 144.1 107.61 143.99C108.56 142.73 109.9 140.95 111.34 139.55C112.6 138.34 115.83 135.51 120.19 136.47C124.52 137.43 126.61 141.39 127.72 144.3L127.83 144.59Z" fill="#FFFFFF" fill-opacity="1.000000" fill-rule="evenodd"/>
            <path id="Vector" d="M120.04 147.06C120.3 147.87 119.87 148.73 119.06 148.99L109.08 152.23C108.28 152.49 107.42 152.05 107.16 151.25C106.9 150.45 107.33 149.58 108.14 149.32L118.12 146.08C118.92 145.82 119.78 146.26 120.04 147.06Z" fill="#E9411B" fill-opacity="1.000000" fill-rule="evenodd"/>
            <path id="Vector" d="M117.38 147.93C117.71 148.96 118.83 149.53 119.86 149.19C120.9 148.86 121.46 147.75 121.13 146.71C120.79 145.67 119.68 145.11 118.64 145.44C117.61 145.78 117.04 146.89 117.38 147.93Z" fill="#E9411B" fill-opacity="1.000000" fill-rule="nonzero"/>
            <path id="Vector" d="M116.42 153.48C116.38 154.05 115.89 154.47 115.33 154.42L108.24 153.91C107.67 153.87 107.25 153.38 107.29 152.82C107.33 152.25 107.82 151.83 108.38 151.87L115.48 152.39C116.04 152.43 116.46 152.92 116.42 153.48Z" fill="#E9411B" fill-opacity="1.000000" fill-rule="evenodd"/>
            <path id="Vector" d="M113.33 143.97C112.97 143.54 112.32 143.49 111.9 143.85L106.46 148.44C106.03 148.8 105.98 149.45 106.34 149.88C106.7 150.31 107.34 150.36 107.77 150L113.21 145.41C113.64 145.05 113.69 144.4 113.33 143.97Z" fill="#E9411B" fill-opacity="1.000000" fill-rule="evenodd"/>
        </g>
    </g>
</svg>
