<svg width="209.000000" height="313.000000" viewBox="0 0 209 313" fill="none" xmlns="http://www.w3.org/2000/svg" xmlns:xlink="http://www.w3.org/1999/xlink">
    <desc>
        Created with Pixso.
    </desc>
    <defs>
        <filter id="filter_4_636_dd" x="0.000000" y="0.000000" width="209.000000" height="313.000000" filterUnits="userSpaceOnUse" color-interpolation-filters="sRGB">
            <feFlood flood-opacity="0" result="BackgroundImageFix"/>
            <feColorMatrix in="SourceAlpha" type="matrix" values="0 0 0 0 0 0 0 0 0 0 0 0 0 0 0 0 0 0 127 0" result="hardAlpha"/>
            <feOffset dx="0" dy="4"/>
            <feGaussianBlur stdDeviation="1.33333"/>
            <feComposite in2="hardAlpha" operator="out" k2="-1" k3="1"/>
            <feColorMatrix type="matrix" values="0 0 0 0 0 0 0 0 0 0 0 0 0 0 0 0 0 0 0.25 0"/>
            <feBlend mode="normal" in2="BackgroundImageFix" result="effect_dropShadow_1"/>
            <feBlend mode="normal" in="SourceGraphic" in2="effect_dropShadow_1" result="shape"/>
        </filter>
        <filter id="filter_4_639_dd" x="4.000000" y="8.000000" width="195.000000" height="297.000000" filterUnits="userSpaceOnUse" color-interpolation-filters="sRGB">
            <feFlood flood-opacity="0" result="BackgroundImageFix"/>
            <feColorMatrix in="SourceAlpha" type="matrix" values="0 0 0 0 0 0 0 0 0 0 0 0 0 0 0 0 0 0 127 0" result="hardAlpha"/>
            <feOffset dx="0" dy="4"/>
            <feGaussianBlur stdDeviation="1.33333"/>
            <feComposite in2="hardAlpha" operator="out" k2="-1" k3="1"/>
            <feColorMatrix type="matrix" values="0 0 0 0 0 0 0 0 0 0 0 0 0 0 0 0 0 0 0.25 0"/>
            <feBlend mode="normal" in2="BackgroundImageFix" result="effect_dropShadow_1"/>
            <feBlend mode="normal" in="SourceGraphic" in2="effect_dropShadow_1" result="shape"/>
        </filter>
        <filter id="filter_4_602_dd" x="51.533447" y="58.005005" width="99.937988" height="204.880005" filterUnits="userSpaceOnUse" color-interpolation-filters="sRGB">
            <feFlood flood-opacity="0" result="BackgroundImageFix"/>
            <feColorMatrix in="SourceAlpha" type="matrix" values="0 0 0 0 0 0 0 0 0 0 0 0 0 0 0 0 0 0 127 0" result="hardAlpha"/>
            <feOffset dx="0" dy="4"/>
            <feGaussianBlur stdDeviation="1.33333"/>
            <feComposite in2="hardAlpha" operator="out" k2="-1" k3="1"/>
            <feColorMatrix type="matrix" values="0 0 0 0 0 0 0 0 0 0 0 0 0 0 0 0 0 0 0.25 0"/>
            <feBlend mode="normal" in2="BackgroundImageFix" result="effect_dropShadow_1"/>
            <feBlend mode="normal" in="SourceGraphic" in2="effect_dropShadow_1" result="shape"/>
        </filter>
    </defs>
    <g filter="url(#filter_4_636_dd)">
        <rect id="Rectangle 1" x="8.000000" rx="20.000000" width="197.000000" height="297.000000" fill="#985B26" fill-opacity="1.000000"/>
        <rect id="Rectangle 1" x="8.500000" y="0.500000" rx="20.000000" width="196.000000" height="296.000000" stroke="#000000" stroke-opacity="1.000000" stroke-width="1.000000"/>
        <g filter="url(#filter_4_639_dd)">
            <rect id="Rectangle 2" x="8.000000" y="8.000000" rx="20.000000" width="187.000000" height="289.000000" fill="#FFF0DB" fill-opacity="1.000000"/>
            <rect id="Rectangle 2" x="8.500000" y="8.500000" rx="20.000000" width="186.000000" height="288.000000" stroke="#000000" stroke-opacity="1.000000" stroke-width="1.000000"/>
        </g>
        <g filter="url(#filter_4_602_dd)">
            <path id="path15137" d="M101.5 146.67C125 146.67 144.06 127.59 144.06 104.04C144.06 80.5 125 61.41 101.5 61.41C77.99 61.41 58.93 80.5 58.93 104.04C58.93 127.59 77.99 146.67 101.5 146.67Z" fill="#FFFFFF" fill-opacity="1.000000" fill-rule="nonzero"/>
            <path id="path15137 (Stroke)" d="M101.5 64.82C79.87 64.82 62.34 82.38 62.34 104.04C62.34 125.7 79.87 143.26 101.5 143.26C123.12 143.26 140.65 125.7 140.65 104.04C140.65 82.38 123.12 64.82 101.5 64.82ZM55.53 104.04C55.53 78.61 76.11 58 101.5 58C126.89 58 147.47 78.61 147.47 104.04C147.47 129.47 126.89 150.09 101.5 150.09C76.11 150.09 55.53 129.47 55.53 104.04Z" fill="#603B1A" fill-opacity="1.000000" fill-rule="evenodd"/>
            <path id="path15137-2" d="M101.5 138.99C120.69 138.99 136.24 123.41 136.24 104.19C136.24 84.97 120.69 69.39 101.5 69.39C82.31 69.39 66.75 84.97 66.75 104.19C66.75 123.41 82.31 138.99 101.5 138.99Z" fill="#454D9A" fill-opacity="1.000000" fill-rule="nonzero"/>
            <path id="circle15184 (Stroke)" d="M83.02 102C82.15 101.4 80.96 101.05 79.7 101.11C78.45 101.17 77.34 101.63 76.59 102.28C75.85 102.92 75.55 103.66 75.55 104.32C75.55 104.98 75.85 105.73 76.59 106.37C77.34 107.02 78.45 107.47 79.7 107.53C80.96 107.59 82.15 107.25 83.02 106.65C84.09 105.91 85.56 106.18 86.3 107.26C87.04 108.33 86.77 109.8 85.69 110.54C83.91 111.77 81.68 112.36 79.48 112.25C77.27 112.15 75.13 111.35 73.5 109.93C71.85 108.51 70.83 106.51 70.83 104.32C70.83 102.14 71.85 100.14 73.5 98.71C75.13 97.29 77.27 96.5 79.48 96.39C81.68 96.29 83.91 96.87 85.69 98.1C86.77 98.84 87.04 100.31 86.3 101.39C85.56 102.46 84.09 102.74 83.02 102Z" fill="#FFFFFF" fill-opacity="1.000000" fill-rule="evenodd"/>
            <path id="circle15184 (Stroke)" d="M90.19 119.18C89.24 119.64 88.35 120.5 87.77 121.62C87.2 122.74 87.04 123.92 87.23 124.9C87.41 125.86 87.9 126.49 88.47 126.82C89.04 127.15 89.84 127.26 90.76 126.94C91.7 126.62 92.65 125.89 93.33 124.83C94.01 123.77 94.3 122.57 94.22 121.51C94.12 120.21 95.09 119.07 96.38 118.97C97.68 118.87 98.82 119.84 98.92 121.14C99.09 123.31 98.49 125.52 97.3 127.38C96.1 129.24 94.34 130.71 92.3 131.41C90.24 132.12 88.01 132.01 86.12 130.92C84.22 129.82 83.01 127.94 82.59 125.8C82.18 123.67 82.57 121.42 83.58 119.45C84.59 117.49 86.21 115.85 88.16 114.92C89.34 114.36 90.75 114.86 91.31 116.04C91.87 117.21 91.37 118.62 90.19 119.18Z" fill="#FFFFFF" fill-opacity="1.000000" fill-rule="evenodd"/>
            <path id="circle15184 (Stroke)" d="M108.22 121.33C108.13 122.39 108.43 123.59 109.11 124.65C109.79 125.71 110.73 126.44 111.67 126.76C112.6 127.08 113.39 126.97 113.96 126.64C114.53 126.31 115.02 125.68 115.21 124.72C115.4 123.74 115.24 122.56 114.66 121.44C114.09 120.32 113.2 119.46 112.24 119C111.07 118.44 110.57 117.03 111.13 115.85C111.69 114.68 113.1 114.18 114.27 114.74C116.23 115.67 117.85 117.3 118.86 119.27C119.87 121.23 120.25 123.49 119.84 125.62C119.43 127.76 118.21 129.64 116.32 130.74C114.43 131.83 112.19 131.94 110.13 131.23C108.09 130.53 106.33 129.06 105.14 127.2C103.95 125.34 103.34 123.13 103.51 120.96C103.62 119.66 104.75 118.69 106.05 118.79C107.35 118.89 108.32 120.03 108.22 121.33Z" fill="#FFFFFF" fill-opacity="1.000000" fill-rule="evenodd"/>
            <path id="circle15184 (Stroke)" d="M119.08 106.77C119.95 107.37 121.14 107.71 122.4 107.65C123.65 107.59 124.76 107.14 125.51 106.49C126.25 105.85 126.55 105.1 126.55 104.44C126.55 103.78 126.25 103.04 125.51 102.4C124.76 101.75 123.65 101.29 122.4 101.23C121.14 101.17 119.95 101.52 119.08 102.12C118.01 102.86 116.54 102.58 115.8 101.51C115.06 100.43 115.34 98.96 116.41 98.22C118.2 96.99 120.42 96.41 122.62 96.51C124.83 96.62 126.97 97.41 128.6 98.83C130.25 100.26 131.27 102.26 131.27 104.44C131.27 106.63 130.25 108.63 128.6 110.06C126.97 111.47 124.83 112.27 122.62 112.37C120.42 112.48 118.2 111.89 116.41 110.66C115.34 109.92 115.06 108.45 115.8 107.38C116.54 106.3 118.01 106.03 119.08 106.77Z" fill="#FFFFFF" fill-opacity="1.000000" fill-rule="evenodd"/>
            <path id="circle15184 (Stroke)" d="M111.93 90.06C112.88 89.61 113.77 88.75 114.35 87.63C114.92 86.51 115.09 85.33 114.9 84.35C114.71 83.39 114.22 82.75 113.65 82.42C113.08 82.09 112.28 81.99 111.36 82.3C110.42 82.63 109.48 83.36 108.8 84.42C108.12 85.48 107.82 86.68 107.9 87.74C108.01 89.04 107.04 90.17 105.74 90.28C104.44 90.38 103.3 89.41 103.2 88.11C103.03 85.94 103.63 83.72 104.83 81.87C106.02 80.01 107.78 78.54 109.82 77.84C111.88 77.13 114.11 77.24 116.01 78.33C117.9 79.43 119.11 81.31 119.53 83.45C119.94 85.57 119.55 87.83 118.54 89.8C117.53 91.76 115.92 93.4 113.96 94.33C112.78 94.89 111.38 94.39 110.81 93.21C110.25 92.03 110.75 90.62 111.93 90.06Z" fill="#FFFFFF" fill-opacity="1.000000" fill-rule="evenodd"/>
            <path id="circle15184 (Stroke)" d="M93.91 87.92C93.99 86.86 93.69 85.66 93.01 84.6C92.33 83.54 91.39 82.81 90.45 82.48C89.53 82.17 88.73 82.27 88.16 82.6C87.59 82.93 87.1 83.57 86.91 84.53C86.72 85.51 86.88 86.69 87.46 87.81C88.04 88.93 88.93 89.79 89.88 90.24C91.06 90.81 91.55 92.22 90.99 93.39C90.43 94.57 89.02 95.07 87.85 94.51C85.89 93.58 84.28 91.94 83.27 89.98C82.26 88.01 81.87 85.75 82.28 83.63C82.7 81.49 83.91 79.61 85.8 78.51C87.69 77.42 89.93 77.31 91.99 78.02C94.03 78.72 95.79 80.19 96.98 82.04C98.18 83.9 98.78 86.12 98.61 88.29C98.51 89.59 97.37 90.56 96.07 90.46C94.77 90.36 93.8 89.22 93.91 87.92Z" fill="#FFFFFF" fill-opacity="1.000000" fill-rule="evenodd"/>
            <path id="path15154-5 (Stroke)" d="M101.44 99.37C98.81 99.37 96.67 101.51 96.67 104.15C96.67 106.78 98.81 108.92 101.44 108.92C104.07 108.92 106.21 106.78 106.21 104.15C106.21 101.51 104.07 99.37 101.44 99.37ZM91.81 104.15C91.81 98.82 96.12 94.5 101.44 94.5C106.76 94.5 111.07 98.82 111.07 104.15C111.07 109.47 106.76 113.79 101.44 113.79C96.12 113.79 91.81 109.47 91.81 104.15Z" fill="#FFFFFF" fill-opacity="1.000000" fill-rule="evenodd"/>
            <path id="circle7559" d="M101.5 251.47C125 251.47 144.06 232.38 144.06 208.84C144.06 185.29 125 166.21 101.5 166.21C77.99 166.21 58.93 185.29 58.93 208.84C58.93 232.38 77.99 251.47 101.5 251.47Z" fill="#FFFFFF" fill-opacity="1.000000" fill-rule="nonzero"/>
            <path id="circle7559 (Stroke)" d="M101.5 169.62C79.87 169.62 62.34 187.18 62.34 208.84C62.34 230.5 79.87 248.06 101.5 248.06C123.12 248.06 140.65 230.5 140.65 208.84C140.65 187.18 123.12 169.62 101.5 169.62ZM55.53 208.84C55.53 183.41 76.11 162.79 101.5 162.79C126.89 162.79 147.47 183.41 147.47 208.84C147.47 234.27 126.89 254.88 101.5 254.88C76.11 254.88 55.53 234.27 55.53 208.84Z" fill="#603B1A" fill-opacity="1.000000" fill-rule="evenodd"/>
            <path id="circle7561" d="M101.5 243.79C120.69 243.79 136.24 228.21 136.24 208.98C136.24 189.76 120.69 174.18 101.5 174.18C82.31 174.18 66.75 189.76 66.75 208.98C66.75 228.21 82.31 243.79 101.5 243.79Z" fill="#454D9A" fill-opacity="1.000000" fill-rule="nonzero"/>
            <path id="path7565 (Stroke)" d="M83.02 206.79C82.15 206.19 80.96 205.85 79.7 205.91C78.45 205.97 77.34 206.42 76.59 207.07C75.85 207.71 75.55 208.46 75.55 209.12C75.55 209.78 75.85 210.52 76.59 211.16C77.34 211.81 78.45 212.27 79.7 212.33C80.96 212.39 82.15 212.04 83.02 211.44C84.09 210.7 85.56 210.98 86.3 212.05C87.04 213.13 86.77 214.6 85.69 215.34C83.91 216.57 81.68 217.15 79.48 217.05C77.27 216.94 75.13 216.15 73.5 214.73C71.85 213.3 70.83 211.3 70.83 209.12C70.83 206.93 71.85 204.93 73.5 203.5C75.13 202.09 77.27 201.29 79.48 201.19C81.68 201.08 83.91 201.67 85.69 202.9C86.77 203.63 87.04 205.11 86.3 206.18C85.56 207.26 84.09 207.53 83.02 206.79Z" fill="#FFFFFF" fill-opacity="1.000000" fill-rule="evenodd"/>
            <path id="circle15184 (Stroke)" d="M90.19 223.98C89.24 224.43 88.35 225.29 87.77 226.41C87.2 227.53 87.04 228.72 87.23 229.69C87.41 230.65 87.9 231.29 88.47 231.62C89.04 231.95 89.84 232.06 90.76 231.74C91.7 231.41 92.65 230.68 93.33 229.62C94.01 228.56 94.3 227.36 94.22 226.31C94.12 225.01 95.09 223.87 96.38 223.77C97.68 223.66 98.82 224.63 98.92 225.94C99.09 228.1 98.49 230.32 97.3 232.18C96.1 234.04 94.34 235.5 92.3 236.21C90.24 236.91 88.01 236.8 86.12 235.71C84.22 234.61 83.01 232.73 82.59 230.59C82.18 228.47 82.57 226.21 83.58 224.24C84.59 222.28 86.21 220.65 88.16 219.71C89.34 219.15 90.75 219.65 91.31 220.83C91.87 222.01 91.37 223.42 90.19 223.98Z" fill="#FFFFFF" fill-opacity="1.000000" fill-rule="evenodd"/>
            <path id="circle15184 (Stroke)" d="M108.22 226.13C108.13 227.18 108.43 228.38 109.11 229.44C109.79 230.5 110.73 231.23 111.67 231.56C112.6 231.88 113.39 231.77 113.96 231.44C114.53 231.11 115.02 230.47 115.21 229.51C115.4 228.54 115.24 227.35 114.66 226.23C114.09 225.11 113.2 224.25 112.24 223.8C111.07 223.24 110.57 221.83 111.13 220.65C111.69 219.47 113.1 218.97 114.27 219.53C116.23 220.46 117.85 222.1 118.86 224.06C119.87 226.03 120.25 228.29 119.84 230.41C119.43 232.55 118.21 234.43 116.32 235.53C114.43 236.62 112.19 236.74 110.13 236.03C108.09 235.32 106.33 233.86 105.14 232C103.95 230.14 103.34 227.92 103.51 225.75C103.62 224.45 104.75 223.48 106.05 223.58C107.35 223.69 108.32 224.82 108.22 226.13Z" fill="#FFFFFF" fill-opacity="1.000000" fill-rule="evenodd"/>
            <path id="circle15184 (Stroke)" d="M119.08 211.56C119.95 212.16 121.14 212.51 122.4 212.45C123.65 212.39 124.76 211.93 125.51 211.28C126.25 210.64 126.55 209.9 126.55 209.24C126.55 208.58 126.25 207.83 125.51 207.19C124.76 206.54 123.65 206.09 122.4 206.03C121.14 205.97 119.95 206.31 119.08 206.91C118.01 207.65 116.54 207.38 115.8 206.3C115.06 205.23 115.34 203.76 116.41 203.02C118.2 201.79 120.42 201.2 122.62 201.31C124.83 201.41 126.97 202.21 128.6 203.63C130.25 205.05 131.27 207.05 131.27 209.24C131.27 211.42 130.25 213.42 128.6 214.85C126.97 216.27 124.83 217.06 122.62 217.17C120.42 217.27 118.2 216.69 116.41 215.46C115.34 214.72 115.06 213.25 115.8 212.17C116.54 211.1 118.01 210.82 119.08 211.56Z" fill="#FFFFFF" fill-opacity="1.000000" fill-rule="evenodd"/>
            <path id="circle15184 (Stroke)" d="M111.93 194.86C112.88 194.4 113.77 193.55 114.35 192.43C114.92 191.31 115.09 190.12 114.9 189.14C114.71 188.18 114.22 187.55 113.65 187.22C113.08 186.89 112.28 186.78 111.36 187.1C110.42 187.42 109.48 188.16 108.8 189.22C108.12 190.28 107.82 191.48 107.9 192.53C108.01 193.83 107.04 194.97 105.74 195.07C104.44 195.17 103.3 194.2 103.2 192.9C103.03 190.74 103.63 188.52 104.83 186.66C106.02 184.8 107.78 183.33 109.82 182.63C111.88 181.92 114.11 182.03 116.01 183.13C117.9 184.22 119.11 186.11 119.53 188.25C119.94 190.37 119.55 192.63 118.54 194.59C117.53 196.56 115.92 198.19 113.96 199.12C112.78 199.68 111.38 199.18 110.81 198.01C110.25 196.83 110.75 195.42 111.93 194.86Z" fill="#FFFFFF" fill-opacity="1.000000" fill-rule="evenodd"/>
            <path id="circle15184 (Stroke)" d="M93.91 192.71C93.99 191.66 93.69 190.46 93.01 189.4C92.33 188.34 91.39 187.6 90.45 187.28C89.53 186.96 88.73 187.07 88.16 187.4C87.59 187.73 87.1 188.36 86.91 189.32C86.72 190.3 86.88 191.49 87.46 192.61C88.04 193.73 88.93 194.58 89.88 195.04C91.06 195.6 91.55 197.01 90.99 198.19C90.43 199.37 89.02 199.87 87.85 199.31C85.89 198.37 84.28 196.74 83.27 194.77C82.26 192.81 81.87 190.55 82.28 188.43C82.7 186.29 83.91 184.4 85.8 183.31C87.69 182.21 89.93 182.1 91.99 182.81C94.03 183.51 95.79 184.98 96.98 186.84C98.18 188.7 98.78 190.92 98.61 193.08C98.51 194.38 97.37 195.35 96.07 195.25C94.77 195.15 93.8 194.01 93.91 192.71Z" fill="#FFFFFF" fill-opacity="1.000000" fill-rule="evenodd"/>
            <path id="circle7577 (Stroke)" d="M101.44 204.17C98.81 204.17 96.67 206.3 96.67 208.94C96.67 211.58 98.81 213.71 101.44 213.71C104.07 213.71 106.21 211.58 106.21 208.94C106.21 206.3 104.07 204.17 101.44 204.17ZM91.81 208.94C91.81 203.61 96.12 199.3 101.44 199.3C106.76 199.3 111.07 203.61 111.07 208.94C111.07 214.27 106.76 218.58 101.44 218.58C96.12 218.58 91.81 214.27 91.81 208.94Z" fill="#FFFFFF" fill-opacity="1.000000" fill-rule="evenodd"/>
        </g>
    </g>
</svg>
