<svg width="201.000000" height="305.000000" viewBox="0 0 201 305" fill="none" xmlns="http://www.w3.org/2000/svg" xmlns:xlink="http://www.w3.org/1999/xlink">
    <desc>
        Created with Pixso.
    </desc>
    <defs>
        <filter id="filter_4_746_dd" x="0.000000" y="0.000000" width="201.000000" height="305.000000" filterUnits="userSpaceOnUse" color-interpolation-filters="sRGB">
            <feFlood flood-opacity="0" result="BackgroundImageFix"/>
            <feBlend mode="normal" in="SourceGraphic" in2="BackgroundImageFix" result="shape"/>
            <feColorMatrix in="SourceAlpha" type="matrix" values="0 0 0 0 0 0 0 0 0 0 0 0 0 0 0 0 0 0 127 0" result="hardAlpha"/>
            <feOffset dx="0" dy="4"/>
            <feGaussianBlur stdDeviation="1.33333"/>
            <feComposite in2="hardAlpha" operator="arithmetic" k2="-1" k3="1"/>
            <feColorMatrix type="matrix" values="0 0 0 0 0 0 0 0 0 0 0 0 0 0 0 0 0 0 0.25 0"/>
            <feBlend mode="normal" in2="shape" result="effect_innerShadow_1"/>
        </filter>
        <filter id="filter_4_749_dd" x="0.000000" y="8.000000" width="195.000000" height="297.000000" filterUnits="userSpaceOnUse" color-interpolation-filters="sRGB">
            <feFlood flood-opacity="0" result="BackgroundImageFix"/>
            <feColorMatrix in="SourceAlpha" type="matrix" values="0 0 0 0 0 0 0 0 0 0 0 0 0 0 0 0 0 0 127 0" result="hardAlpha"/>
            <feOffset dx="0" dy="4"/>
            <feGaussianBlur stdDeviation="1.33333"/>
            <feComposite in2="hardAlpha" operator="out" k2="-1" k3="1"/>
            <feColorMatrix type="matrix" values="0 0 0 0 0 0 0 0 0 0 0 0 0 0 0 0 0 0 0.25 0"/>
            <feBlend mode="normal" in2="BackgroundImageFix" result="effect_dropShadow_1"/>
            <feBlend mode="normal" in="SourceGraphic" in2="effect_dropShadow_1" result="shape"/>
        </filter>
        <filter id="filter_4_822_dd" x="24.780029" y="65.155029" width="147.113403" height="185.792480" filterUnits="userSpaceOnUse" color-interpolation-filters="sRGB">
            <feFlood flood-opacity="0" result="BackgroundImageFix"/>
            <feColorMatrix in="SourceAlpha" type="matrix" values="0 0 0 0 0 0 0 0 0 0 0 0 0 0 0 0 0 0 127 0" result="hardAlpha"/>
            <feOffset dx="0" dy="4"/>
            <feGaussianBlur stdDeviation="1.33333"/>
            <feComposite in2="hardAlpha" operator="out" k2="-1" k3="1"/>
            <feColorMatrix type="matrix" values="0 0 0 0 0 0 0 0 0 0 0 0 0 0 0 0 0 0 0.25 0"/>
            <feBlend mode="normal" in2="BackgroundImageFix" result="effect_dropShadow_1"/>
            <feBlend mode="normal" in="SourceGraphic" in2="effect_dropShadow_1" result="shape"/>
        </filter>
    </defs>
    <g filter="url(#filter_4_746_dd)">
        <rect id="Rectangle 1" x="4.000000" rx="20.000000" width="197.000000" height="297.000000" fill="#985B26" fill-opacity="1.000000"/>
        <rect id="Rectangle 1" x="4.500000" y="0.500000" rx="20.000000" width="196.000000" height="296.000000" stroke="#454D9A" stroke-opacity="1.000000" stroke-width="1.000000"/>
        <g filter="url(#filter_4_749_dd)">
            <rect id="Rectangle 2" x="4.000000" y="8.000000" rx="20.000000" width="187.000000" height="289.000000" fill="#FFF0DB" fill-opacity="1.000000"/>
            <rect id="Rectangle 2" x="4.500000" y="8.500000" rx="20.000000" width="186.000000" height="288.000000" stroke="#454D9A" stroke-opacity="1.000000" stroke-width="1.000000"/>
        </g>
        <g filter="url(#filter_4_822_dd)">
            <path id="circle7842" d="M60.39 128.33C77.85 128.33 92.01 114.18 92.01 96.74C92.01 79.29 77.85 65.15 60.39 65.15C42.93 65.15 28.78 79.29 28.78 96.74C28.78 114.18 42.93 128.33 60.39 128.33Z" fill="#603B1A" fill-opacity="1.000000" fill-rule="nonzero"/>
            <path id="circle7844" d="M60.39 121.11C73.86 121.11 84.78 110.4 84.78 97.19C84.78 83.98 73.86 73.27 60.39 73.27C46.92 73.27 36 83.98 36 97.19C36 110.4 46.92 121.11 60.39 121.11Z" fill="#FFFFFF" fill-opacity="1.000000" fill-rule="nonzero"/>
            <path id="circle7846" d="M60.39 117.5C71.87 117.5 81.17 108.2 81.17 96.74C81.17 85.27 71.87 75.98 60.39 75.98C48.92 75.98 39.62 85.27 39.62 96.74C39.62 108.2 48.92 117.5 60.39 117.5Z" fill="#454D9A" fill-opacity="1.000000" fill-rule="nonzero"/>
            <path id="path7848 (Stroke)" d="M59.74 109.82C60.59 109.86 61.43 109.82 62.26 109.7C63.23 109.56 63.9 108.67 63.76 107.72C63.62 106.76 62.72 106.09 61.75 106.23C61.15 106.32 60.53 106.35 59.91 106.32C59.29 106.29 58.68 106.2 58.09 106.05C57.14 105.82 56.18 106.39 55.95 107.33C55.71 108.27 56.29 109.22 57.24 109.46C58.05 109.66 58.89 109.78 59.74 109.82ZM64.59 107.42C65.09 108.26 66.17 108.54 67.01 108.05C67.73 107.62 68.42 107.13 69.05 106.57C69.69 106.01 70.27 105.39 70.77 104.73C71.36 103.96 71.21 102.86 70.44 102.27C69.66 101.69 68.55 101.84 67.96 102.61C67.59 103.09 67.17 103.54 66.71 103.95C66.24 104.36 65.74 104.72 65.22 105.02C64.37 105.52 64.09 106.59 64.59 107.42ZM55.15 106.96C55.72 106.18 55.55 105.08 54.76 104.51C54.27 104.15 53.81 103.75 53.39 103.29C52.97 102.84 52.59 102.35 52.27 101.84C51.76 101.01 50.67 100.75 49.84 101.26C49.01 101.77 48.75 102.85 49.26 103.67C49.7 104.38 50.21 105.05 50.79 105.67C51.37 106.29 52 106.85 52.68 107.34C53.46 107.91 54.57 107.74 55.15 106.96ZM70.83 101.49C71.77 101.74 72.74 101.18 72.99 100.25C73.21 99.45 73.35 98.62 73.41 97.78C73.42 97.61 73.41 97.44 73.37 97.29C73.42 97.13 73.44 96.97 73.44 96.8C73.43 95.96 73.34 95.12 73.18 94.31C72.98 93.36 72.05 92.75 71.09 92.94C70.13 93.14 69.52 94.06 69.71 95.01C69.83 95.6 69.9 96.21 69.9 96.83C69.9 96.95 69.92 97.07 69.94 97.18C69.91 97.3 69.89 97.42 69.88 97.54C69.84 98.15 69.74 98.75 69.58 99.34C69.32 100.28 69.88 101.24 70.83 101.49ZM49.53 100.44C50.5 100.28 51.15 99.38 50.99 98.43C50.89 97.83 50.85 97.22 50.87 96.6C50.89 95.99 50.97 95.38 51.1 94.79C51.32 93.85 50.73 92.91 49.77 92.69C48.82 92.47 47.87 93.06 47.66 94.01C47.47 94.82 47.36 95.65 47.33 96.5C47.31 97.34 47.36 98.18 47.5 99C47.66 99.95 48.57 100.6 49.53 100.44ZM70.75 92.13C71.56 91.6 71.78 90.51 71.24 89.7C70.77 89.01 70.24 88.36 69.64 87.76C69.04 87.16 68.38 86.63 67.69 86.16C66.88 85.62 65.78 85.83 65.23 86.64C64.69 87.44 64.9 88.53 65.71 89.07C66.22 89.41 66.69 89.8 67.13 90.24C67.57 90.67 67.96 91.15 68.3 91.65C68.84 92.46 69.94 92.67 70.75 92.13ZM50.13 91.89C50.93 92.45 52.03 92.26 52.6 91.46C52.95 90.97 53.35 90.5 53.8 90.08C54.24 89.65 54.73 89.27 55.25 88.95C56.07 88.42 56.31 87.34 55.78 86.53C55.25 85.71 54.16 85.47 53.34 86C52.63 86.44 51.96 86.96 51.35 87.55C50.74 88.13 50.18 88.77 49.7 89.45C49.14 90.24 49.33 91.33 50.13 91.89ZM64.42 86.3C64.62 85.35 64.01 84.42 63.05 84.22C62.23 84.05 61.39 83.96 60.54 83.95C59.69 83.94 58.84 84.01 58.02 84.16C57.06 84.34 56.42 85.25 56.6 86.2C56.78 87.16 57.7 87.79 58.66 87.61C59.26 87.5 59.88 87.45 60.5 87.46C61.12 87.46 61.73 87.53 62.33 87.65C63.28 87.85 64.22 87.24 64.42 86.3Z" fill="#FFFFFF" fill-opacity="1.000000" fill-rule="evenodd"/>
            <path id="circle7850" d="M60.39 101.25C62.89 101.25 64.91 99.43 64.91 97.19C64.91 94.95 62.89 93.13 60.39 93.13C57.9 93.13 55.88 94.95 55.88 97.19C55.88 99.43 57.9 101.25 60.39 101.25Z" fill="#FFFFFF" fill-opacity="1.000000" fill-rule="nonzero"/>
            <path id="circle7852" d="M60.39 98.54C61.39 98.54 62.2 97.73 62.2 96.74C62.2 95.74 61.39 94.93 60.39 94.93C59.39 94.93 58.59 95.74 58.59 96.74C58.59 97.73 59.39 98.54 60.39 98.54Z" fill="#454D9A" fill-opacity="1.000000" fill-rule="nonzero"/>
            <path id="circle7856" d="M135.82 128.33C153.53 128.33 167.89 114.18 167.89 96.74C167.89 79.29 153.53 65.15 135.82 65.15C118.11 65.15 103.75 79.29 103.75 96.74C103.75 114.18 118.11 128.33 135.82 128.33Z" fill="#603B1A" fill-opacity="1.000000" fill-rule="nonzero"/>
            <path id="circle7858" d="M135.82 121.11C149.04 121.11 159.76 110.4 159.76 97.19C159.76 83.98 149.04 73.27 135.82 73.27C122.6 73.27 111.88 83.98 111.88 97.19C111.88 110.4 122.6 121.11 135.82 121.11Z" fill="#FFFFFF" fill-opacity="1.000000" fill-rule="nonzero"/>
            <path id="circle7860" d="M136.27 117.5C147.75 117.5 157.05 108.2 157.05 96.74C157.05 85.27 147.75 75.98 136.27 75.98C124.8 75.98 115.5 85.27 115.5 96.74C115.5 108.2 124.8 117.5 136.27 117.5Z" fill="#454D9A" fill-opacity="1.000000" fill-rule="nonzero"/>
            <path id="path7862 (Stroke)" d="M135.23 109.82C136.08 109.86 136.92 109.82 137.75 109.7C138.72 109.56 139.39 108.67 139.25 107.72C139.11 106.76 138.21 106.09 137.25 106.23C136.64 106.32 136.02 106.35 135.4 106.32C134.78 106.29 134.17 106.2 133.58 106.05C132.63 105.82 131.67 106.39 131.44 107.33C131.2 108.27 131.78 109.22 132.73 109.46C133.54 109.66 134.38 109.78 135.23 109.82ZM140.08 107.42C140.58 108.26 141.66 108.54 142.5 108.05C143.23 107.62 143.91 107.13 144.55 106.57C145.18 106.01 145.76 105.39 146.27 104.73C146.86 103.96 146.71 102.86 145.93 102.27C145.15 101.69 144.04 101.84 143.45 102.61C143.08 103.09 142.66 103.54 142.2 103.95C141.73 104.36 141.23 104.72 140.71 105.02C139.87 105.52 139.59 106.59 140.08 107.42ZM130.64 106.96C131.22 106.18 131.04 105.08 130.25 104.51C129.76 104.15 129.3 103.75 128.88 103.29C128.46 102.84 128.09 102.35 127.77 101.84C127.25 101.01 126.17 100.75 125.33 101.26C124.5 101.77 124.24 102.85 124.75 103.67C125.19 104.38 125.7 105.05 126.28 105.67C126.86 106.29 127.49 106.85 128.17 107.34C128.96 107.91 130.06 107.74 130.64 106.96ZM146.32 101.49C147.26 101.74 148.23 101.18 148.48 100.25C148.7 99.45 148.84 98.62 148.9 97.78C148.91 97.61 148.9 97.44 148.86 97.29C148.91 97.13 148.93 96.97 148.93 96.8C148.92 95.96 148.84 95.12 148.67 94.31C148.47 93.36 147.54 92.75 146.58 92.94C145.63 93.14 145.01 94.06 145.2 95.01C145.32 95.6 145.39 96.21 145.39 96.83C145.39 96.95 145.41 97.07 145.43 97.18C145.4 97.3 145.38 97.42 145.37 97.54C145.33 98.15 145.23 98.75 145.07 99.34C144.82 100.28 145.37 101.24 146.32 101.49ZM125.03 100.44C125.99 100.28 126.64 99.38 126.48 98.43C126.38 97.83 126.34 97.22 126.36 96.6C126.38 95.99 126.46 95.38 126.6 94.79C126.81 93.85 126.22 92.91 125.27 92.69C124.31 92.47 123.37 93.06 123.15 94.01C122.96 94.82 122.85 95.65 122.83 96.5C122.8 97.34 122.86 98.18 122.99 99C123.15 99.95 124.06 100.6 125.03 100.44ZM146.24 92.13C147.06 91.6 147.27 90.51 146.73 89.7C146.27 89.01 145.73 88.36 145.13 87.76C144.53 87.16 143.88 86.63 143.18 86.16C142.37 85.62 141.27 85.83 140.73 86.64C140.18 87.44 140.39 88.53 141.2 89.07C141.71 89.41 142.19 89.8 142.62 90.24C143.06 90.67 143.45 91.15 143.79 91.65C144.33 92.46 145.43 92.67 146.24 92.13ZM125.62 91.89C126.42 92.45 127.53 92.26 128.09 91.46C128.44 90.97 128.84 90.5 129.29 90.08C129.74 89.65 130.22 89.27 130.74 88.95C131.56 88.42 131.8 87.34 131.27 86.53C130.74 85.71 129.65 85.47 128.83 86C128.12 86.44 127.46 86.96 126.84 87.55C126.23 88.13 125.68 88.77 125.19 89.45C124.63 90.24 124.83 91.33 125.62 91.89ZM139.91 86.3C140.11 85.35 139.5 84.42 138.54 84.22C137.72 84.05 136.88 83.96 136.03 83.95C135.18 83.94 134.34 84.01 133.51 84.16C132.55 84.34 131.92 85.25 132.09 86.2C132.27 87.16 133.19 87.79 134.15 87.61C134.75 87.5 135.37 87.45 135.99 87.46C136.61 87.46 137.22 87.53 137.82 87.65C138.78 87.85 139.71 87.24 139.91 86.3Z" fill="#FFFFFF" fill-opacity="1.000000" fill-rule="evenodd"/>
            <path id="circle7864" d="M135.82 101.25C138.07 101.25 139.89 99.43 139.89 97.19C139.89 94.95 138.07 93.13 135.82 93.13C133.58 93.13 131.75 94.95 131.75 97.19C131.75 99.43 133.58 101.25 135.82 101.25Z" fill="#FFFFFF" fill-opacity="1.000000" fill-rule="nonzero"/>
            <path id="circle7866" d="M135.82 98.54C137.07 98.54 138.08 97.73 138.08 96.74C138.08 95.74 137.07 94.93 135.82 94.93C134.57 94.93 133.56 95.74 133.56 96.74C133.56 97.73 134.57 98.54 135.82 98.54Z" fill="#454D9A" fill-opacity="1.000000" fill-rule="nonzero"/>
            <path id="circle7870" d="M60.39 242.94C77.85 242.94 92.01 228.8 92.01 211.36C92.01 193.91 77.85 179.77 60.39 179.77C42.93 179.77 28.78 193.91 28.78 211.36C28.78 228.8 42.93 242.94 60.39 242.94Z" fill="#603B1A" fill-opacity="1.000000" fill-rule="nonzero"/>
            <path id="circle7872" d="M60.39 234.82C73.86 234.82 84.78 224.11 84.78 210.9C84.78 197.7 73.86 186.99 60.39 186.99C46.92 186.99 36 197.7 36 210.9C36 224.11 46.92 234.82 60.39 234.82Z" fill="#FFFFFF" fill-opacity="1.000000" fill-rule="nonzero"/>
            <path id="circle7874" d="M60.39 232.11C71.87 232.11 81.17 222.82 81.17 211.36C81.17 199.89 71.87 190.6 60.39 190.6C48.92 190.6 39.62 199.89 39.62 211.36C39.62 222.82 48.92 232.11 60.39 232.11Z" fill="#454D9A" fill-opacity="1.000000" fill-rule="nonzero"/>
            <path id="path7876 (Stroke)" d="M59.74 224.05C60.59 224.09 61.43 224.05 62.26 223.93C63.23 223.79 63.9 222.9 63.76 221.94C63.62 220.98 62.72 220.32 61.75 220.46C61.15 220.55 60.53 220.58 59.91 220.55C59.29 220.51 58.68 220.42 58.09 220.28C57.14 220.04 56.18 220.62 55.95 221.56C55.71 222.5 56.29 223.45 57.24 223.68C58.05 223.88 58.89 224.01 59.74 224.05ZM64.59 221.65C65.09 222.48 66.17 222.76 67.01 222.27C67.73 221.85 68.42 221.35 69.05 220.79C69.69 220.23 70.27 219.62 70.77 218.96C71.36 218.18 71.21 217.09 70.44 216.5C69.66 215.91 68.55 216.06 67.96 216.83C67.59 217.32 67.17 217.76 66.71 218.17C66.24 218.58 65.74 218.94 65.22 219.25C64.37 219.74 64.09 220.82 64.59 221.65ZM55.15 221.19C55.72 220.4 55.55 219.31 54.76 218.74C54.27 218.38 53.81 217.97 53.39 217.52C52.97 217.07 52.59 216.58 52.27 216.06C51.76 215.24 50.67 214.98 49.84 215.49C49.01 215.99 48.75 217.07 49.26 217.9C49.7 218.61 50.21 219.28 50.79 219.9C51.37 220.52 52 221.08 52.68 221.57C53.46 222.14 54.57 221.97 55.15 221.19ZM70.83 215.71C71.77 215.96 72.74 215.41 72.99 214.48C73.21 213.67 73.35 212.84 73.41 212C73.42 211.83 73.41 211.67 73.37 211.51C73.42 211.36 73.44 211.2 73.44 211.03C73.43 210.19 73.34 209.35 73.18 208.54C72.98 207.59 72.05 206.97 71.09 207.17C70.13 207.36 69.52 208.29 69.71 209.24C69.83 209.83 69.9 210.44 69.9 211.05C69.9 211.18 69.92 211.29 69.94 211.41C69.91 211.52 69.89 211.64 69.88 211.76C69.84 212.38 69.74 212.98 69.58 213.57C69.32 214.5 69.88 215.46 70.83 215.71ZM49.53 214.67C50.5 214.51 51.15 213.61 50.99 212.65C50.89 212.05 50.85 211.44 50.87 210.83C50.89 210.21 50.97 209.61 51.1 209.02C51.32 208.07 50.73 207.13 49.77 206.92C48.82 206.7 47.87 207.29 47.66 208.23C47.47 209.05 47.36 209.88 47.33 210.72C47.31 211.56 47.36 212.4 47.5 213.22C47.66 214.18 48.57 214.82 49.53 214.67ZM70.75 206.36C71.56 205.82 71.78 204.73 71.24 203.93C70.77 203.24 70.24 202.59 69.64 201.99C69.04 201.39 68.38 200.86 67.69 200.39C66.88 199.85 65.78 200.06 65.23 200.86C64.69 201.67 64.9 202.75 65.71 203.3C66.22 203.64 66.69 204.03 67.13 204.46C67.57 204.9 67.96 205.37 68.3 205.88C68.84 206.68 69.94 206.9 70.75 206.36ZM50.13 206.12C50.93 206.67 52.03 206.48 52.6 205.69C52.95 205.19 53.35 204.73 53.8 204.3C54.24 203.88 54.73 203.5 55.25 203.17C56.07 202.65 56.31 201.57 55.78 200.75C55.25 199.94 54.16 199.7 53.34 200.22C52.63 200.67 51.96 201.19 51.35 201.77C50.74 202.36 50.18 202.99 49.7 203.67C49.14 204.47 49.33 205.56 50.13 206.12ZM64.42 200.52C64.62 199.57 64.01 198.65 63.05 198.45C62.23 198.28 61.39 198.19 60.54 198.18C59.69 198.17 58.84 198.24 58.02 198.39C57.06 198.56 56.42 199.48 56.6 200.43C56.78 201.38 57.7 202.01 58.66 201.84C59.26 201.73 59.88 201.67 60.5 201.68C61.12 201.69 61.73 201.76 62.33 201.88C63.28 202.08 64.22 201.47 64.42 200.52Z" fill="#FFFFFF" fill-opacity="1.000000" fill-rule="evenodd"/>
            <path id="circle7879" d="M60.39 214.97C62.89 214.97 64.91 213.15 64.91 210.9C64.91 208.66 62.89 206.84 60.39 206.84C57.9 206.84 55.88 208.66 55.88 210.9C55.88 213.15 57.9 214.97 60.39 214.97Z" fill="#FFFFFF" fill-opacity="1.000000" fill-rule="nonzero"/>
            <path id="circle7881" d="M60.39 213.16C61.39 213.16 62.2 212.35 62.2 211.36C62.2 210.36 61.39 209.55 60.39 209.55C59.39 209.55 58.59 210.36 58.59 211.36C58.59 212.35 59.39 213.16 60.39 213.16Z" fill="#454D9A" fill-opacity="1.000000" fill-rule="nonzero"/>
            <path id="circle7885" d="M135.82 242.94C153.53 242.94 167.89 228.8 167.89 211.36C167.89 193.91 153.53 179.77 135.82 179.77C118.11 179.77 103.75 193.91 103.75 211.36C103.75 228.8 118.11 242.94 135.82 242.94Z" fill="#603B1A" fill-opacity="1.000000" fill-rule="nonzero"/>
            <path id="circle7887" d="M135.82 234.82C149.04 234.82 159.76 224.11 159.76 210.9C159.76 197.7 149.04 186.99 135.82 186.99C122.6 186.99 111.88 197.7 111.88 210.9C111.88 224.11 122.6 234.82 135.82 234.82Z" fill="#FFFFFF" fill-opacity="1.000000" fill-rule="nonzero"/>
            <path id="circle7889" d="M136.27 232.11C147.75 232.11 157.05 222.82 157.05 211.36C157.05 199.89 147.75 190.6 136.27 190.6C124.8 190.6 115.5 199.89 115.5 211.36C115.5 222.82 124.8 232.11 136.27 232.11Z" fill="#454D9A" fill-opacity="1.000000" fill-rule="nonzero"/>
            <path id="path7891 (Stroke)" d="M135.23 224.05C136.08 224.09 136.92 224.05 137.75 223.93C138.72 223.79 139.39 222.9 139.25 221.94C139.11 220.98 138.21 220.32 137.25 220.46C136.64 220.55 136.02 220.58 135.4 220.55C134.78 220.51 134.17 220.42 133.58 220.28C132.63 220.04 131.67 220.62 131.44 221.56C131.2 222.5 131.78 223.45 132.73 223.68C133.54 223.88 134.38 224.01 135.23 224.05ZM140.08 221.65C140.58 222.48 141.66 222.76 142.5 222.27C143.23 221.85 143.91 221.35 144.55 220.79C145.18 220.23 145.76 219.62 146.27 218.96C146.86 218.18 146.71 217.09 145.93 216.5C145.15 215.91 144.04 216.06 143.45 216.83C143.08 217.32 142.66 217.76 142.2 218.17C141.73 218.58 141.23 218.94 140.71 219.25C139.87 219.74 139.59 220.82 140.08 221.65ZM130.64 221.19C131.22 220.4 131.04 219.31 130.25 218.74C129.76 218.38 129.3 217.97 128.88 217.52C128.46 217.07 128.09 216.58 127.77 216.06C127.25 215.24 126.17 214.98 125.33 215.49C124.5 215.99 124.24 217.07 124.75 217.9C125.19 218.61 125.7 219.28 126.28 219.9C126.86 220.52 127.49 221.08 128.17 221.57C128.96 222.14 130.06 221.97 130.64 221.19ZM146.32 215.71C147.26 215.96 148.23 215.41 148.48 214.48C148.7 213.67 148.84 212.84 148.9 212C148.91 211.83 148.9 211.67 148.86 211.51C148.91 211.36 148.93 211.2 148.93 211.03C148.92 210.19 148.84 209.35 148.67 208.54C148.47 207.59 147.54 206.97 146.58 207.17C145.63 207.36 145.01 208.29 145.2 209.24C145.32 209.83 145.39 210.44 145.39 211.05C145.39 211.18 145.41 211.29 145.43 211.41C145.4 211.52 145.38 211.64 145.37 211.76C145.33 212.38 145.23 212.98 145.07 213.57C144.82 214.5 145.37 215.46 146.32 215.71ZM125.03 214.67C125.99 214.51 126.64 213.61 126.48 212.65C126.38 212.05 126.34 211.44 126.36 210.83C126.38 210.21 126.46 209.61 126.6 209.02C126.81 208.07 126.22 207.13 125.27 206.92C124.31 206.7 123.37 207.29 123.15 208.23C122.96 209.05 122.85 209.88 122.83 210.72C122.8 211.56 122.86 212.4 122.99 213.22C123.15 214.18 124.06 214.82 125.03 214.67ZM146.24 206.36C147.06 205.82 147.27 204.73 146.73 203.93C146.27 203.24 145.73 202.59 145.13 201.99C144.53 201.39 143.88 200.86 143.18 200.39C142.37 199.85 141.27 200.06 140.73 200.86C140.18 201.67 140.39 202.75 141.2 203.3C141.71 203.64 142.19 204.03 142.62 204.46C143.06 204.9 143.45 205.37 143.79 205.88C144.33 206.68 145.43 206.9 146.24 206.36ZM125.62 206.12C126.42 206.67 127.53 206.48 128.09 205.69C128.44 205.19 128.84 204.73 129.29 204.3C129.74 203.88 130.22 203.5 130.74 203.17C131.56 202.65 131.8 201.57 131.27 200.75C130.74 199.94 129.65 199.7 128.83 200.22C128.12 200.67 127.46 201.19 126.84 201.77C126.23 202.36 125.68 202.99 125.19 203.67C124.63 204.47 124.83 205.56 125.62 206.12ZM139.91 200.52C140.11 199.57 139.5 198.65 138.54 198.45C137.72 198.28 136.88 198.19 136.03 198.18C135.18 198.17 134.34 198.24 133.51 198.39C132.55 198.56 131.92 199.48 132.09 200.43C132.27 201.38 133.19 202.01 134.15 201.84C134.75 201.73 135.37 201.67 135.99 201.68C136.61 201.69 137.22 201.76 137.82 201.88C138.78 202.08 139.71 201.47 139.91 200.52Z" fill="#FFFFFF" fill-opacity="1.000000" fill-rule="evenodd"/>
            <path id="circle7893" d="M135.82 214.97C138.07 214.97 139.89 213.15 139.89 210.9C139.89 208.66 138.07 206.84 135.82 206.84C133.58 206.84 131.75 208.66 131.75 210.9C131.75 213.15 133.58 214.97 135.82 214.97Z" fill="#FFFFFF" fill-opacity="1.000000" fill-rule="nonzero"/>
            <path id="circle7895" d="M135.82 213.16C137.07 213.16 138.08 212.35 138.08 211.36C138.08 210.36 137.07 209.55 135.82 209.55C134.57 209.55 133.56 210.36 133.56 211.36C133.56 212.35 134.57 213.16 135.82 213.16Z" fill="#454D9A" fill-opacity="1.000000" fill-rule="nonzero"/>
        </g>
    </g>
</svg>
