<svg width="209.000000" height="313.000000" viewBox="0 0 209 313" fill="none" xmlns="http://www.w3.org/2000/svg" xmlns:xlink="http://www.w3.org/1999/xlink">
    <desc>
        Created with Pixso.
    </desc>
    <defs>
        <filter id="filter_4_792_dd" x="0.000000" y="0.000000" width="209.000000" height="313.000000" filterUnits="userSpaceOnUse" color-interpolation-filters="sRGB">
            <feFlood flood-opacity="0" result="BackgroundImageFix"/>
            <feColorMatrix in="SourceAlpha" type="matrix" values="0 0 0 0 0 0 0 0 0 0 0 0 0 0 0 0 0 0 127 0" result="hardAlpha"/>
            <feOffset dx="0" dy="4"/>
            <feGaussianBlur stdDeviation="1.33333"/>
            <feComposite in2="hardAlpha" operator="out" k2="-1" k3="1"/>
            <feColorMatrix type="matrix" values="0 0 0 0 0 0 0 0 0 0 0 0 0 0 0 0 0 0 0.25 0"/>
            <feBlend mode="normal" in2="BackgroundImageFix" result="effect_dropShadow_1"/>
            <feBlend mode="normal" in="SourceGraphic" in2="effect_dropShadow_1" result="shape"/>
        </filter>
        <filter id="filter_4_795_dd" x="4.000000" y="8.000000" width="195.000000" height="297.000000" filterUnits="userSpaceOnUse" color-interpolation-filters="sRGB">
            <feFlood flood-opacity="0" result="BackgroundImageFix"/>
            <feColorMatrix in="SourceAlpha" type="matrix" values="0 0 0 0 0 0 0 0 0 0 0 0 0 0 0 0 0 0 127 0" result="hardAlpha"/>
            <feOffset dx="0" dy="4"/>
            <feGaussianBlur stdDeviation="1.33333"/>
            <feComposite in2="hardAlpha" operator="out" k2="-1" k3="1"/>
            <feColorMatrix type="matrix" values="0 0 0 0 0 0 0 0 0 0 0 0 0 0 0 0 0 0 0.25 0"/>
            <feBlend mode="normal" in2="BackgroundImageFix" result="effect_dropShadow_1"/>
            <feBlend mode="normal" in="SourceGraphic" in2="effect_dropShadow_1" result="shape"/>
        </filter>
        <filter id="filter_4_949_dd" x="37.000000" y="52.999939" width="131.000122" height="215.726746" filterUnits="userSpaceOnUse" color-interpolation-filters="sRGB">
            <feFlood flood-opacity="0" result="BackgroundImageFix"/>
            <feColorMatrix in="SourceAlpha" type="matrix" values="0 0 0 0 0 0 0 0 0 0 0 0 0 0 0 0 0 0 127 0" result="hardAlpha"/>
            <feOffset dx="0" dy="4"/>
            <feGaussianBlur stdDeviation="1.33333"/>
            <feComposite in2="hardAlpha" operator="out" k2="-1" k3="1"/>
            <feColorMatrix type="matrix" values="0 0 0 0 0 0 0 0 0 0 0 0 0 0 0 0 0 0 0.25 0"/>
            <feBlend mode="normal" in2="BackgroundImageFix" result="effect_dropShadow_1"/>
            <feBlend mode="normal" in="SourceGraphic" in2="effect_dropShadow_1" result="shape"/>
        </filter>
    </defs>
    <g filter="url(#filter_4_792_dd)">
        <rect id="Rectangle 1" x="8.000000" rx="20.000000" width="197.000000" height="297.000000" fill="#985B26" fill-opacity="1.000000"/>
        <rect id="Rectangle 1" x="8.500000" y="0.500000" rx="20.000000" width="196.000000" height="296.000000" stroke="#000000" stroke-opacity="1.000000" stroke-width="1.000000"/>
        <g filter="url(#filter_4_795_dd)">
            <rect id="Rectangle 2" x="8.000000" y="8.000000" rx="20.000000" width="187.000000" height="289.000000" fill="#FFF0DB" fill-opacity="1.000000"/>
            <rect id="Rectangle 2" x="8.500000" y="8.500000" rx="20.000000" width="186.000000" height="288.000000" stroke="#000000" stroke-opacity="1.000000" stroke-width="1.000000"/>
        </g>
        <g filter="url(#filter_4_949_dd)">
            <path id="circle8511" d="M74.95 120.9C93.7 120.9 108.9 105.7 108.9 86.95C108.9 68.2 93.7 53 74.95 53C56.2 53 41 68.2 41 86.95C41 105.7 56.2 120.9 74.95 120.9Z" fill="#603B1A" fill-opacity="1.000000" fill-rule="nonzero"/>
            <path id="circle8100" d="M75.01 260.72C93.76 260.72 108.97 245.52 108.97 226.77C108.97 208.02 93.76 192.82 75.01 192.82C56.26 192.82 41.06 208.02 41.06 226.77C41.06 245.52 56.26 260.72 75.01 260.72Z" fill="#603B1A" fill-opacity="1.000000" fill-rule="nonzero"/>
            <path id="circle8114" d="M129.97 260.72C148.72 260.72 163.92 245.52 163.92 226.77C163.92 208.02 148.72 192.82 129.97 192.82C111.22 192.82 96.02 208.02 96.02 226.77C96.02 245.52 111.22 260.72 129.97 260.72Z" fill="#603B1A" fill-opacity="1.000000" fill-rule="nonzero"/>
            <path id="circle8070" d="M129.97 212.21C148.72 212.21 163.92 197.01 163.92 178.26C163.92 159.5 148.72 144.3 129.97 144.3C111.22 144.3 96.02 159.5 96.02 178.26C96.02 197.01 111.22 212.21 129.97 212.21Z" fill="#603B1A" fill-opacity="1.000000" fill-rule="nonzero"/>
            <path id="circle7981" d="M75.01 212.21C93.76 212.21 108.97 197.01 108.97 178.26C108.97 159.5 93.76 144.3 75.01 144.3C56.26 144.3 41.06 159.5 41.06 178.26C41.06 197.01 56.26 212.21 75.01 212.21Z" fill="#603B1A" fill-opacity="1.000000" fill-rule="nonzero"/>
            <path id="circle7983" d="M75.01 203.86C89.15 203.86 100.62 192.4 100.62 178.26C100.62 164.11 89.15 152.65 75.01 152.65C60.87 152.65 49.4 164.11 49.4 178.26C49.4 192.4 60.87 203.86 75.01 203.86Z" fill="#FFFFFF" fill-opacity="1.000000" fill-rule="nonzero"/>
            <path id="circle7985" d="M75.01 200.31C87.19 200.31 97.06 190.43 97.06 178.26C97.06 166.08 87.19 156.2 75.01 156.2C62.83 156.2 52.96 166.08 52.96 178.26C52.96 190.43 62.83 200.31 75.01 200.31Z" fill="#E9411B" fill-opacity="1.000000" fill-rule="nonzero"/>
            <path id="path7988 (Stroke)" d="M74.33 192.08C75.23 192.13 76.13 192.08 77.01 191.96C78.03 191.81 78.74 190.86 78.59 189.83C78.44 188.81 77.49 188.1 76.47 188.25C75.82 188.34 75.17 188.37 74.51 188.34C73.86 188.31 73.21 188.21 72.58 188.05C71.57 187.8 70.56 188.42 70.31 189.42C70.06 190.43 70.67 191.44 71.67 191.69C72.54 191.91 73.43 192.04 74.33 192.08ZM79.47 189.52C80 190.41 81.15 190.71 82.04 190.18C82.81 189.73 83.53 189.2 84.21 188.61C84.88 188.01 85.49 187.35 86.03 186.64C86.66 185.81 86.5 184.64 85.67 184.01C84.85 183.38 83.67 183.54 83.05 184.37C82.65 184.88 82.21 185.36 81.72 185.8C81.23 186.24 80.7 186.62 80.14 186.95C79.25 187.48 78.95 188.63 79.47 189.52ZM69.46 189.02C70.07 188.19 69.89 187.02 69.05 186.4C68.53 186.02 68.04 185.59 67.59 185.1C67.15 184.62 66.75 184.1 66.41 183.54C65.87 182.66 64.72 182.39 63.83 182.93C62.95 183.47 62.68 184.63 63.22 185.51C63.68 186.27 64.23 186.98 64.84 187.65C65.45 188.31 66.12 188.91 66.84 189.43C67.67 190.04 68.85 189.86 69.46 189.02ZM86.09 183.17C87.09 183.44 88.12 182.85 88.38 181.85C88.62 180.99 88.76 180.1 88.83 179.2C88.84 179.02 88.82 178.85 88.79 178.68C88.83 178.51 88.86 178.34 88.86 178.16C88.85 177.26 88.76 176.36 88.58 175.49C88.37 174.48 87.38 173.82 86.37 174.03C85.35 174.24 84.7 175.23 84.9 176.24C85.03 176.88 85.1 177.53 85.11 178.19C85.11 178.32 85.12 178.44 85.15 178.57C85.12 178.69 85.09 178.81 85.08 178.94C85.04 179.6 84.93 180.25 84.76 180.87C84.49 181.87 85.09 182.9 86.09 183.17ZM63.51 182.05C64.53 181.88 65.22 180.92 65.05 179.9C64.95 179.26 64.9 178.6 64.92 177.95C64.94 177.29 65.03 176.64 65.17 176.01C65.4 175 64.77 173.99 63.76 173.76C62.75 173.53 61.75 174.16 61.51 175.17C61.32 176.04 61.2 176.93 61.17 177.83C61.15 178.73 61.21 179.63 61.35 180.51C61.52 181.53 62.48 182.22 63.51 182.05ZM86.01 173.17C86.87 172.59 87.1 171.43 86.53 170.56C86.03 169.82 85.46 169.13 84.83 168.49C84.19 167.85 83.5 167.28 82.76 166.78C81.9 166.2 80.74 166.43 80.16 167.29C79.58 168.14 79.8 169.31 80.66 169.89C81.2 170.25 81.7 170.67 82.17 171.13C82.63 171.6 83.05 172.11 83.41 172.65C83.98 173.51 85.15 173.74 86.01 173.17ZM64.14 172.91C64.99 173.5 66.16 173.3 66.75 172.45C67.13 171.92 67.55 171.42 68.03 170.97C68.5 170.51 69.02 170.11 69.56 169.76C70.44 169.2 70.69 168.04 70.13 167.17C69.57 166.29 68.41 166.04 67.54 166.6C66.79 167.08 66.08 167.63 65.43 168.26C64.78 168.88 64.2 169.56 63.69 170.29C63.09 171.14 63.29 172.31 64.14 172.91ZM79.3 166.92C79.51 165.91 78.86 164.91 77.84 164.7C76.97 164.52 76.08 164.42 75.18 164.41C74.27 164.4 73.38 164.48 72.51 164.64C71.49 164.83 70.81 165.8 71 166.82C71.19 167.84 72.17 168.51 73.18 168.33C73.82 168.21 74.47 168.15 75.13 168.16C75.79 168.17 76.44 168.24 77.08 168.37C78.09 168.58 79.08 167.93 79.3 166.92Z" fill="#FFFFFF" fill-opacity="1.000000" fill-rule="evenodd"/>
            <path id="circle7990" d="M75.01 182.72C77.48 182.72 79.47 180.72 79.47 178.26C79.47 175.79 77.48 173.79 75.01 173.79C72.55 173.79 70.55 175.79 70.55 178.26C70.55 180.72 72.55 182.72 75.01 182.72Z" fill="#FFFFFF" fill-opacity="1.000000" fill-rule="nonzero"/>
            <path id="circle7992" d="M75.01 180.29C76.14 180.29 77.05 179.38 77.05 178.26C77.05 177.13 76.14 176.22 75.01 176.22C73.89 176.22 72.97 177.13 72.97 178.26C72.97 179.38 73.89 180.29 75.01 180.29Z" fill="#E9411B" fill-opacity="1.000000" fill-rule="nonzero"/>
            <path id="circle8072" d="M129.97 203.86C144.11 203.86 155.58 192.4 155.58 178.26C155.58 164.11 144.11 152.65 129.97 152.65C115.83 152.65 104.36 164.11 104.36 178.26C104.36 192.4 115.83 203.86 129.97 203.86Z" fill="#FFFFFF" fill-opacity="1.000000" fill-rule="nonzero"/>
            <path id="circle8074" d="M129.97 200.31C142.15 200.31 152.02 190.43 152.02 178.26C152.02 166.08 142.15 156.2 129.97 156.2C117.79 156.2 107.92 166.08 107.92 178.26C107.92 190.43 117.79 200.31 129.97 200.31Z" fill="#E9411B" fill-opacity="1.000000" fill-rule="nonzero"/>
            <path id="path8076 (Stroke)" d="M129.29 192.08C130.19 192.13 131.08 192.08 131.97 191.96C132.99 191.81 133.7 190.86 133.55 189.83C133.4 188.81 132.45 188.1 131.42 188.25C130.78 188.34 130.13 188.37 129.47 188.34C128.81 188.31 128.17 188.21 127.54 188.05C126.53 187.8 125.52 188.42 125.27 189.42C125.02 190.43 125.63 191.44 126.63 191.69C127.5 191.91 128.39 192.04 129.29 192.08ZM134.43 189.52C134.96 190.41 136.11 190.71 137 190.18C137.77 189.73 138.49 189.2 139.17 188.61C139.84 188.01 140.45 187.35 140.99 186.64C141.62 185.81 141.46 184.64 140.63 184.01C139.81 183.38 138.63 183.54 138.01 184.37C137.61 184.88 137.17 185.36 136.68 185.8C136.19 186.24 135.66 186.62 135.1 186.95C134.2 187.48 133.91 188.63 134.43 189.52ZM124.42 189.02C125.03 188.19 124.85 187.02 124.01 186.4C123.49 186.02 123 185.59 122.55 185.1C122.11 184.62 121.71 184.1 121.37 183.54C120.83 182.66 119.67 182.39 118.79 182.93C117.91 183.47 117.64 184.63 118.18 185.51C118.64 186.27 119.18 186.98 119.8 187.65C120.41 188.31 121.08 188.91 121.8 189.43C122.63 190.04 123.81 189.86 124.42 189.02ZM141.05 183.17C142.05 183.44 143.08 182.85 143.34 181.85C143.57 180.99 143.72 180.1 143.78 179.2C143.8 179.02 143.78 178.85 143.75 178.68C143.79 178.51 143.82 178.34 143.82 178.16C143.81 177.26 143.72 176.36 143.54 175.49C143.33 174.48 142.34 173.82 141.33 174.03C140.31 174.24 139.66 175.23 139.86 176.24C139.99 176.88 140.06 177.53 140.07 178.19C140.07 178.32 140.08 178.44 140.11 178.57C140.07 178.69 140.05 178.81 140.04 178.94C140 179.6 139.89 180.25 139.72 180.87C139.45 181.87 140.05 182.9 141.05 183.17ZM118.47 182.05C119.49 181.88 120.18 180.92 120.01 179.9C119.91 179.26 119.86 178.6 119.88 177.95C119.9 177.29 119.99 176.64 120.13 176.01C120.36 175 119.73 173.99 118.72 173.76C117.71 173.53 116.71 174.16 116.47 175.17C116.28 176.04 116.16 176.93 116.13 177.83C116.11 178.73 116.17 179.63 116.31 180.51C116.48 181.53 117.44 182.22 118.47 182.05ZM140.97 173.17C141.83 172.59 142.06 171.43 141.49 170.56C140.99 169.82 140.42 169.13 139.79 168.49C139.15 167.85 138.46 167.28 137.72 166.78C136.86 166.2 135.7 166.43 135.12 167.29C134.54 168.14 134.76 169.31 135.62 169.89C136.16 170.25 136.66 170.67 137.13 171.13C137.59 171.6 138.01 172.11 138.37 172.65C138.94 173.51 140.11 173.74 140.97 173.17ZM119.1 172.91C119.95 173.5 121.12 173.3 121.71 172.45C122.09 171.92 122.51 171.42 122.99 170.97C123.46 170.51 123.98 170.11 124.52 169.76C125.4 169.2 125.65 168.04 125.09 167.17C124.53 166.29 123.37 166.04 122.5 166.6C121.75 167.08 121.04 167.63 120.39 168.26C119.74 168.88 119.16 169.56 118.64 170.29C118.05 171.14 118.25 172.31 119.1 172.91ZM134.25 166.92C134.47 165.91 133.82 164.91 132.8 164.7C131.93 164.52 131.04 164.42 130.14 164.41C129.23 164.4 128.34 164.48 127.46 164.64C126.45 164.83 125.77 165.8 125.96 166.82C126.15 167.84 127.13 168.51 128.14 168.33C128.78 168.21 129.43 168.15 130.09 168.16C130.75 168.17 131.4 168.24 132.04 168.37C133.05 168.58 134.04 167.93 134.25 166.92Z" fill="#FFFFFF" fill-opacity="1.000000" fill-rule="evenodd"/>
            <path id="circle8078" d="M129.97 182.72C132.44 182.72 134.43 180.72 134.43 178.26C134.43 175.79 132.44 173.79 129.97 173.79C127.51 173.79 125.51 175.79 125.51 178.26C125.51 180.72 127.51 182.72 129.97 182.72Z" fill="#FFFFFF" fill-opacity="1.000000" fill-rule="nonzero"/>
            <path id="circle8080" d="M129.97 180.29C131.1 180.29 132.01 179.38 132.01 178.26C132.01 177.13 131.1 176.22 129.97 176.22C128.85 176.22 127.93 177.13 127.93 178.26C127.93 179.38 128.85 180.29 129.97 180.29Z" fill="#E9411B" fill-opacity="1.000000" fill-rule="nonzero"/>
            <path id="circle8102" d="M75.01 252.38C89.15 252.38 100.62 240.91 100.62 226.77C100.62 212.63 89.15 201.16 75.01 201.16C60.87 201.16 49.4 212.63 49.4 226.77C49.4 240.91 60.87 252.38 75.01 252.38Z" fill="#FFFFFF" fill-opacity="1.000000" fill-rule="nonzero"/>
            <path id="circle8104" d="M75.01 248.82C87.19 248.82 97.06 238.95 97.06 226.77C97.06 214.59 87.19 204.72 75.01 204.72C62.83 204.72 52.96 214.59 52.96 226.77C52.96 238.95 62.83 248.82 75.01 248.82Z" fill="#E9411B" fill-opacity="1.000000" fill-rule="nonzero"/>
            <path id="path8106 (Stroke)" d="M74.33 240.6C75.23 240.64 76.13 240.6 77.01 240.47C78.03 240.32 78.74 239.37 78.59 238.34C78.44 237.32 77.49 236.61 76.47 236.76C75.82 236.85 75.17 236.88 74.51 236.85C73.86 236.82 73.21 236.72 72.58 236.57C71.57 236.32 70.56 236.93 70.31 237.93C70.06 238.94 70.67 239.96 71.67 240.21C72.54 240.42 73.43 240.55 74.33 240.6ZM79.47 238.03C80 238.93 81.15 239.22 82.04 238.7C82.81 238.25 83.53 237.72 84.21 237.12C84.88 236.52 85.49 235.86 86.03 235.15C86.66 234.33 86.5 233.15 85.67 232.52C84.85 231.9 83.67 232.06 83.05 232.88C82.65 233.4 82.21 233.88 81.72 234.32C81.23 234.75 80.7 235.14 80.14 235.47C79.25 235.99 78.95 237.14 79.47 238.03ZM69.46 237.54C70.07 236.7 69.89 235.53 69.05 234.92C68.53 234.53 68.04 234.1 67.59 233.62C67.15 233.13 66.75 232.61 66.41 232.06C65.87 231.17 64.72 230.9 63.83 231.44C62.95 231.98 62.68 233.14 63.22 234.02C63.68 234.78 64.23 235.5 64.84 236.16C65.45 236.82 66.12 237.42 66.84 237.94C67.67 238.56 68.85 238.37 69.46 237.54ZM86.09 231.68C87.09 231.95 88.12 231.36 88.38 230.36C88.62 229.5 88.76 228.61 88.83 227.71C88.84 227.53 88.82 227.36 88.79 227.19C88.83 227.03 88.86 226.85 88.86 226.67C88.85 225.77 88.76 224.88 88.58 224.01C88.37 222.99 87.38 222.34 86.37 222.54C85.35 222.75 84.7 223.74 84.9 224.75C85.03 225.39 85.1 226.04 85.11 226.7C85.11 226.83 85.12 226.96 85.15 227.08C85.12 227.2 85.09 227.33 85.08 227.46C85.04 228.11 84.93 228.76 84.76 229.39C84.49 230.39 85.09 231.42 86.09 231.68ZM63.51 230.57C64.53 230.4 65.22 229.43 65.05 228.41C64.95 227.77 64.9 227.12 64.92 226.46C64.94 225.8 65.03 225.15 65.17 224.52C65.4 223.51 64.77 222.5 63.76 222.27C62.75 222.04 61.75 222.67 61.51 223.68C61.32 224.55 61.2 225.44 61.17 226.34C61.15 227.25 61.21 228.14 61.35 229.02C61.52 230.04 62.48 230.73 63.51 230.57ZM86.01 221.68C86.87 221.1 87.1 219.94 86.53 219.08C86.03 218.34 85.46 217.64 84.83 217C84.19 216.36 83.5 215.79 82.76 215.29C81.9 214.71 80.74 214.94 80.16 215.8C79.58 216.66 79.8 217.82 80.66 218.4C81.2 218.77 81.7 219.18 82.17 219.65C82.63 220.11 83.05 220.62 83.41 221.16C83.98 222.02 85.15 222.25 86.01 221.68ZM64.14 221.42C64.99 222.01 66.16 221.81 66.75 220.96C67.13 220.43 67.55 219.94 68.03 219.48C68.5 219.02 69.02 218.62 69.56 218.27C70.44 217.71 70.69 216.55 70.13 215.68C69.57 214.81 68.41 214.55 67.54 215.11C66.79 215.59 66.08 216.15 65.43 216.77C64.78 217.4 64.2 218.08 63.69 218.81C63.09 219.65 63.29 220.82 64.14 221.42ZM79.3 215.43C79.51 214.42 78.86 213.43 77.84 213.22C76.97 213.03 76.08 212.94 75.18 212.92C74.27 212.91 73.38 212.99 72.51 213.15C71.49 213.34 70.81 214.32 71 215.34C71.19 216.35 72.17 217.03 73.18 216.84C73.82 216.72 74.47 216.67 75.13 216.67C75.79 216.68 76.44 216.75 77.08 216.89C78.09 217.1 79.08 216.45 79.3 215.43Z" fill="#FFFFFF" fill-opacity="1.000000" fill-rule="evenodd"/>
            <path id="circle8108" d="M75.01 231.23C77.48 231.23 79.47 229.23 79.47 226.77C79.47 224.3 77.48 222.31 75.01 222.31C72.55 222.31 70.55 224.3 70.55 226.77C70.55 229.23 72.55 231.23 75.01 231.23Z" fill="#FFFFFF" fill-opacity="1.000000" fill-rule="nonzero"/>
            <path id="circle8110" d="M75.01 228.81C76.14 228.81 77.05 227.89 77.05 226.77C77.05 225.64 76.14 224.73 75.01 224.73C73.89 224.73 72.97 225.64 72.97 226.77C72.97 227.89 73.89 228.81 75.01 228.81Z" fill="#E9411B" fill-opacity="1.000000" fill-rule="nonzero"/>
            <path id="circle8116" d="M129.97 252.38C144.11 252.38 155.58 240.91 155.58 226.77C155.58 212.63 144.11 201.16 129.97 201.16C115.83 201.16 104.36 212.63 104.36 226.77C104.36 240.91 115.83 252.38 129.97 252.38Z" fill="#FFFFFF" fill-opacity="1.000000" fill-rule="nonzero"/>
            <path id="circle8118" d="M129.97 248.82C142.15 248.82 152.02 238.95 152.02 226.77C152.02 214.59 142.15 204.72 129.97 204.72C117.79 204.72 107.92 214.59 107.92 226.77C107.92 238.95 117.79 248.82 129.97 248.82Z" fill="#E9411B" fill-opacity="1.000000" fill-rule="nonzero"/>
            <path id="path8120 (Stroke)" d="M129.29 240.6C130.19 240.64 131.08 240.6 131.97 240.47C132.99 240.32 133.7 239.37 133.55 238.34C133.4 237.32 132.45 236.61 131.42 236.76C130.78 236.85 130.13 236.88 129.47 236.85C128.81 236.82 128.17 236.72 127.54 236.57C126.53 236.32 125.52 236.93 125.27 237.93C125.02 238.94 125.63 239.96 126.63 240.21C127.5 240.42 128.39 240.55 129.29 240.6ZM134.43 238.03C134.96 238.93 136.11 239.22 137 238.7C137.77 238.25 138.49 237.72 139.17 237.12C139.84 236.52 140.45 235.86 140.99 235.15C141.62 234.33 141.46 233.15 140.63 232.52C139.81 231.9 138.63 232.06 138.01 232.88C137.61 233.4 137.17 233.88 136.68 234.32C136.19 234.75 135.66 235.14 135.1 235.47C134.2 235.99 133.91 237.14 134.43 238.03ZM124.42 237.54C125.03 236.7 124.85 235.53 124.01 234.92C123.49 234.53 123 234.1 122.55 233.62C122.11 233.13 121.71 232.61 121.37 232.06C120.83 231.17 119.67 230.9 118.79 231.44C117.91 231.98 117.64 233.14 118.18 234.02C118.64 234.78 119.18 235.5 119.8 236.16C120.41 236.82 121.08 237.42 121.8 237.94C122.63 238.56 123.81 238.37 124.42 237.54ZM141.05 231.68C142.05 231.95 143.08 231.36 143.34 230.36C143.57 229.5 143.72 228.61 143.78 227.71C143.8 227.53 143.78 227.36 143.75 227.19C143.79 227.03 143.82 226.85 143.82 226.67C143.81 225.77 143.72 224.88 143.54 224.01C143.33 222.99 142.34 222.34 141.33 222.54C140.31 222.75 139.66 223.74 139.86 224.75C139.99 225.39 140.06 226.04 140.07 226.7C140.07 226.83 140.08 226.96 140.11 227.08C140.07 227.2 140.05 227.33 140.04 227.46C140 228.11 139.89 228.76 139.72 229.39C139.45 230.39 140.05 231.42 141.05 231.68ZM118.47 230.57C119.49 230.4 120.18 229.43 120.01 228.41C119.91 227.77 119.86 227.12 119.88 226.46C119.9 225.8 119.99 225.15 120.13 224.52C120.36 223.51 119.73 222.5 118.72 222.27C117.71 222.04 116.71 222.67 116.47 223.68C116.28 224.55 116.16 225.44 116.13 226.34L118.01 226.4L116.13 226.34C116.11 227.25 116.17 228.14 116.31 229.02C116.48 230.04 117.44 230.73 118.47 230.57ZM140.97 221.68C141.83 221.1 142.06 219.94 141.49 219.08C140.99 218.34 140.42 217.64 139.79 217C139.15 216.36 138.46 215.79 137.72 215.29C136.86 214.71 135.7 214.94 135.12 215.8C134.54 216.66 134.76 217.82 135.62 218.4C136.16 218.77 136.66 219.18 137.13 219.65C137.59 220.11 138.01 220.62 138.37 221.16C138.94 222.02 140.11 222.25 140.97 221.68ZM119.1 221.42C119.95 222.01 121.12 221.81 121.71 220.96C122.09 220.43 122.51 219.94 122.99 219.48C123.46 219.02 123.98 218.62 124.52 218.27C125.4 217.71 125.65 216.55 125.09 215.68C124.53 214.81 123.37 214.55 122.5 215.11C121.75 215.59 121.04 216.15 120.39 216.77C119.74 217.4 119.16 218.08 118.64 218.81C118.05 219.65 118.25 220.82 119.1 221.42ZM134.25 215.43C134.47 214.42 133.82 213.43 132.8 213.22C131.93 213.03 131.04 212.94 130.14 212.92C129.23 212.91 128.34 212.99 127.46 213.15C126.45 213.34 125.77 214.32 125.96 215.34C126.15 216.35 127.13 217.03 128.14 216.84C128.78 216.72 129.43 216.67 130.09 216.67C130.75 216.68 131.4 216.75 132.04 216.89C133.05 217.1 134.04 216.45 134.25 215.43Z" fill="#FFFFFF" fill-opacity="1.000000" fill-rule="evenodd"/>
            <path id="circle8122" d="M129.97 231.23C132.44 231.23 134.43 229.23 134.43 226.77C134.43 224.3 132.44 222.31 129.97 222.31C127.51 222.31 125.51 224.3 125.51 226.77C125.51 229.23 127.51 231.23 129.97 231.23Z" fill="#FFFFFF" fill-opacity="1.000000" fill-rule="nonzero"/>
            <path id="circle8124" d="M129.97 228.81C131.1 228.81 132.01 227.89 132.01 226.77C132.01 225.64 131.1 224.73 129.97 224.73C128.85 224.73 127.93 225.64 127.93 226.77C127.93 227.89 128.85 228.81 129.97 228.81Z" fill="#E9411B" fill-opacity="1.000000" fill-rule="nonzero"/>
            <path id="circle8497" d="M130.04 120.9C148.79 120.9 164 105.7 164 86.95C164 68.2 148.79 52.99 130.04 52.99C111.29 52.99 96.09 68.2 96.09 86.95C96.09 105.7 111.29 120.9 130.04 120.9Z" fill="#603B1A" fill-opacity="1.000000" fill-rule="nonzero"/>
            <path id="circle8499" d="M130.04 112.56C144.18 112.56 155.65 101.09 155.65 86.95C155.65 72.81 144.18 61.34 130.04 61.34C115.9 61.34 104.43 72.81 104.43 86.95C104.43 101.09 115.9 112.56 130.04 112.56Z" fill="#FFFFFF" fill-opacity="1.000000" fill-rule="nonzero"/>
            <path id="circle8501" d="M130.04 109C142.22 109 152.09 99.13 152.09 86.95C152.09 74.77 142.22 64.9 130.04 64.9C117.86 64.9 107.99 74.77 107.99 86.95C107.99 99.13 117.86 109 130.04 109Z" fill="#454D9A" fill-opacity="1.000000" fill-rule="nonzero"/>
            <path id="path8503 (Stroke)" d="M129.36 100.78C130.26 100.82 131.16 100.78 132.04 100.65C133.06 100.5 133.77 99.55 133.62 98.52C133.47 97.5 132.52 96.79 131.5 96.94C130.85 97.03 130.2 97.06 129.54 97.03C128.89 97 128.24 96.9 127.61 96.75C126.6 96.5 125.59 97.11 125.34 98.11C125.09 99.12 125.7 100.14 126.7 100.39C127.57 100.6 128.46 100.73 129.36 100.78ZM134.5 98.21C135.03 99.11 136.18 99.4 137.07 98.88C137.84 98.43 138.57 97.9 139.24 97.3C139.91 96.7 140.52 96.04 141.06 95.33C141.69 94.51 141.53 93.33 140.71 92.7C139.88 92.08 138.71 92.24 138.08 93.06C137.69 93.58 137.24 94.06 136.75 94.49C136.26 94.93 135.73 95.32 135.17 95.65C134.28 96.17 133.98 97.32 134.5 98.21ZM124.49 97.72C125.1 96.88 124.92 95.71 124.08 95.1C123.56 94.71 123.07 94.28 122.62 93.79C122.18 93.31 121.78 92.79 121.44 92.24C120.9 91.35 119.75 91.08 118.86 91.62C117.98 92.16 117.71 93.32 118.25 94.2C118.71 94.96 119.26 95.67 119.87 96.34C120.48 97 121.15 97.6 121.87 98.12C122.7 98.73 123.88 98.55 124.49 97.72ZM141.12 91.86C142.12 92.13 143.15 91.54 143.42 90.54C143.64 89.68 143.79 88.79 143.86 87.89C143.87 87.71 143.86 87.54 143.82 87.37C143.87 87.21 143.89 87.03 143.89 86.85C143.88 85.95 143.79 85.06 143.61 84.19C143.4 83.17 142.41 82.52 141.4 82.72C140.38 82.93 139.73 83.92 139.94 84.93C140.07 85.57 140.13 86.22 140.14 86.88C140.14 87.01 140.15 87.14 140.18 87.26C140.15 87.38 140.12 87.51 140.12 87.64C140.07 88.29 139.96 88.94 139.79 89.57C139.52 90.57 140.12 91.59 141.12 91.86ZM118.54 90.74C119.56 90.58 120.25 89.61 120.08 88.59C119.98 87.95 119.93 87.3 119.95 86.64C119.97 85.98 120.06 85.33 120.2 84.7C120.43 83.69 119.8 82.68 118.79 82.45C117.78 82.22 116.78 82.85 116.55 83.86C116.35 84.73 116.23 85.62 116.2 86.52C116.18 87.43 116.24 88.32 116.38 89.2C116.55 90.22 117.51 90.91 118.54 90.74ZM141.04 81.86C141.9 81.28 142.13 80.12 141.56 79.26C141.06 78.52 140.49 77.82 139.86 77.18C139.22 76.54 138.53 75.97 137.79 75.47C136.93 74.89 135.77 75.12 135.19 75.98C134.61 76.84 134.83 78 135.69 78.58C136.23 78.94 136.74 79.36 137.2 79.83C137.66 80.29 138.08 80.8 138.44 81.34C139.01 82.2 140.18 82.43 141.04 81.86ZM119.17 81.6C120.02 82.19 121.19 81.99 121.78 81.14C122.16 80.61 122.58 80.11 123.06 79.66C123.53 79.2 124.05 78.8 124.59 78.45C125.47 77.89 125.72 76.73 125.16 75.86C124.6 74.99 123.44 74.73 122.57 75.29C121.82 75.77 121.12 76.33 120.46 76.95C119.81 77.58 119.23 78.26 118.72 78.99C118.12 79.83 118.32 81 119.17 81.6ZM134.33 75.61C134.54 74.6 133.89 73.61 132.87 73.4C132 73.21 131.11 73.11 130.21 73.1C129.31 73.09 128.41 73.17 127.54 73.33C126.52 73.52 125.84 74.5 126.03 75.51C126.22 76.53 127.2 77.21 128.21 77.02C128.85 76.9 129.5 76.85 130.16 76.85C130.82 76.86 131.47 76.93 132.11 77.07C133.12 77.28 134.11 76.63 134.33 75.61Z" fill="#FFFFFF" fill-opacity="1.000000" fill-rule="evenodd"/>
            <path id="circle8505" d="M130.04 91.41C132.51 91.41 134.5 89.41 134.5 86.95C134.5 84.48 132.51 82.49 130.04 82.49C127.58 82.49 125.58 84.48 125.58 86.95C125.58 89.41 127.58 91.41 130.04 91.41Z" fill="#FFFFFF" fill-opacity="1.000000" fill-rule="nonzero"/>
            <path id="circle8507" d="M130.04 88.99C131.17 88.99 132.08 88.07 132.08 86.95C132.08 85.82 131.17 84.91 130.04 84.91C128.92 84.91 128 85.82 128 86.95C128 88.07 128.92 88.99 130.04 88.99Z" fill="#454D9A" fill-opacity="1.000000" fill-rule="nonzero"/>
            <path id="circle8513" d="M74.95 112.56C89.09 112.56 100.56 101.09 100.56 86.95C100.56 72.81 89.09 61.34 74.95 61.34C60.81 61.34 49.34 72.81 49.34 86.95C49.34 101.09 60.81 112.56 74.95 112.56Z" fill="#FFFFFF" fill-opacity="1.000000" fill-rule="nonzero"/>
            <path id="circle8515" d="M74.95 109C87.13 109 97 99.13 97 86.95C97 74.77 87.13 64.9 74.95 64.9C62.77 64.9 52.9 74.77 52.9 86.95C52.9 99.13 62.77 109 74.95 109Z" fill="#454D9A" fill-opacity="1.000000" fill-rule="nonzero"/>
            <path id="path8517 (Stroke)" d="M74.26 100.78C75.17 100.82 76.06 100.78 76.94 100.65C77.97 100.5 78.68 99.55 78.53 98.52C78.38 97.5 77.43 96.79 76.4 96.94C75.76 97.03 75.11 97.06 74.45 97.03C73.79 97 73.14 96.9 72.51 96.75C71.51 96.5 70.49 97.11 70.24 98.11C69.99 99.12 70.61 100.14 71.61 100.39C72.47 100.6 73.36 100.73 74.26 100.78ZM79.41 98.21C79.94 99.11 81.09 99.4 81.98 98.88C82.74 98.43 83.47 97.9 84.15 97.3C84.82 96.7 85.43 96.04 85.97 95.33C86.6 94.51 86.44 93.33 85.61 92.7C84.79 92.08 83.61 92.24 82.98 93.06C82.59 93.58 82.15 94.06 81.66 94.49C81.16 94.93 80.63 95.32 80.07 95.65C79.18 96.17 78.89 97.32 79.41 98.21ZM69.4 97.72C70.01 96.88 69.83 95.71 68.99 95.1C68.47 94.71 67.98 94.28 67.53 93.79C67.08 93.31 66.69 92.79 66.35 92.24C65.81 91.35 64.65 91.08 63.77 91.62C62.89 92.16 62.61 93.32 63.15 94.2C63.62 94.96 64.16 95.67 64.77 96.34C65.39 97 66.06 97.6 66.78 98.12C67.61 98.73 68.78 98.55 69.4 97.72ZM86.02 91.86C87.02 92.13 88.05 91.54 88.32 90.54C88.55 89.68 88.7 88.79 88.76 87.89C88.77 87.71 88.76 87.54 88.73 87.37C88.77 87.21 88.8 87.03 88.79 86.85C88.79 85.95 88.69 85.06 88.52 84.19C88.31 83.17 87.32 82.52 86.3 82.72C85.29 82.93 84.64 83.92 84.84 84.93C84.97 85.57 85.04 86.22 85.04 86.88C85.05 87.01 85.06 87.14 85.09 87.26C85.05 87.38 85.03 87.51 85.02 87.64C84.98 88.29 84.87 88.94 84.7 89.57C84.43 90.57 85.02 91.59 86.02 91.86ZM63.44 90.74C64.46 90.58 65.16 89.61 64.99 88.59C64.88 87.95 64.84 87.3 64.86 86.64C64.88 85.98 64.96 85.33 65.11 84.7C65.34 83.69 64.71 82.68 63.7 82.45C62.69 82.22 61.68 82.85 61.45 83.86C61.25 84.73 61.14 85.62 61.11 86.52C61.08 87.42 61.14 88.32 61.29 89.2C61.46 90.22 62.42 90.91 63.44 90.74ZM85.94 81.86C86.81 81.28 87.04 80.12 86.46 79.26C85.97 78.52 85.4 77.82 84.76 77.18C84.13 76.54 83.43 75.97 82.7 75.47C81.84 74.89 80.67 75.12 80.09 75.98C79.51 76.84 79.74 78 80.6 78.58C81.14 78.94 81.64 79.36 82.11 79.83C82.57 80.29 82.98 80.8 83.34 81.34C83.92 82.2 85.08 82.43 85.94 81.86ZM64.08 81.6C64.92 82.19 66.09 81.99 66.69 81.14C67.06 80.61 67.49 80.11 67.96 79.66C68.44 79.2 68.95 78.8 69.5 78.45C70.37 77.89 70.63 76.73 70.07 75.86C69.51 74.99 68.35 74.73 67.48 75.29C66.73 75.77 66.02 76.33 65.37 76.95C64.72 77.58 64.13 78.26 63.62 78.99C63.03 79.83 63.23 81 64.08 81.6ZM79.23 75.61C79.44 74.6 78.79 73.61 77.78 73.39C76.91 73.21 76.02 73.11 75.11 73.1C74.21 73.09 73.32 73.17 72.44 73.33C71.42 73.52 70.75 74.5 70.94 75.51C71.12 76.53 72.1 77.21 73.12 77.02C73.76 76.9 74.41 76.85 75.07 76.85C75.73 76.86 76.38 76.93 77.01 77.07C78.03 77.28 79.02 76.63 79.23 75.61Z" fill="#FFFFFF" fill-opacity="1.000000" fill-rule="evenodd"/>
            <path id="circle8519" d="M74.95 91.41C77.41 91.41 79.41 89.41 79.41 86.95C79.41 84.48 77.41 82.49 74.95 82.49C72.48 82.49 70.49 84.48 70.49 86.95C70.49 89.41 72.48 91.41 74.95 91.41Z" fill="#FFFFFF" fill-opacity="1.000000" fill-rule="nonzero"/>
            <path id="circle8521" d="M74.95 88.99C76.07 88.99 76.99 88.07 76.99 86.95C76.99 85.82 76.07 84.91 74.95 84.91C73.82 84.91 72.91 85.82 72.91 86.95C72.91 88.07 73.82 88.99 74.95 88.99Z" fill="#454D9A" fill-opacity="1.000000" fill-rule="nonzero"/>
        </g>
    </g>
</svg>
