<svg width="201.000000" height="305.000000" viewBox="0 0 201 305" fill="none" xmlns="http://www.w3.org/2000/svg" xmlns:xlink="http://www.w3.org/1999/xlink">
    <desc>
        Created with Pixso.
    </desc>
    <defs>
        <filter id="filter_4_1026_dd" x="0.000000" y="8.000000" width="195.000000" height="297.000000" filterUnits="userSpaceOnUse" color-interpolation-filters="sRGB">
            <feFlood flood-opacity="0" result="BackgroundImageFix"/>
            <feColorMatrix in="SourceAlpha" type="matrix" values="0 0 0 0 0 0 0 0 0 0 0 0 0 0 0 0 0 0 127 0" result="hardAlpha"/>
            <feOffset dx="0" dy="4"/>
            <feGaussianBlur stdDeviation="1.33333"/>
            <feComposite in2="hardAlpha" operator="out" k2="-1" k3="1"/>
            <feColorMatrix type="matrix" values="0 0 0 0 0 0 0 0 0 0 0 0 0 0 0 0 0 0 0.25 0"/>
            <feBlend mode="normal" in2="BackgroundImageFix" result="effect_dropShadow_1"/>
            <feBlend mode="normal" in="SourceGraphic" in2="effect_dropShadow_1" result="shape"/>
        </filter>
        <filter id="filter_4_1145_dd" x="15.625732" y="49.554565" width="163.739868" height="222.772827" filterUnits="userSpaceOnUse" color-interpolation-filters="sRGB">
            <feFlood flood-opacity="0" result="BackgroundImageFix"/>
            <feColorMatrix in="SourceAlpha" type="matrix" values="0 0 0 0 0 0 0 0 0 0 0 0 0 0 0 0 0 0 127 0" result="hardAlpha"/>
            <feOffset dx="0" dy="4"/>
            <feGaussianBlur stdDeviation="1.33333"/>
            <feComposite in2="hardAlpha" operator="out" k2="-1" k3="1"/>
            <feColorMatrix type="matrix" values="0 0 0 0 0 0 0 0 0 0 0 0 0 0 0 0 0 0 0.25 0"/>
            <feBlend mode="normal" in2="BackgroundImageFix" result="effect_dropShadow_1"/>
            <feBlend mode="normal" in="SourceGraphic" in2="effect_dropShadow_1" result="shape"/>
        </filter>
    </defs>
    <rect id="Rectangle 1" x="4.000000" rx="20.000000" width="197.000000" height="297.000000" fill="#985B26" fill-opacity="1.000000"/>
    <rect id="Rectangle 1" x="4.500000" y="0.500000" rx="20.000000" width="196.000000" height="296.000000" stroke="#454D9A" stroke-opacity="1.000000" stroke-width="1.000000"/>
    <g filter="url(#filter_4_1026_dd)">
        <rect id="Rectangle 2" x="4.000000" y="8.000000" rx="20.000000" width="187.000000" height="289.000000" fill="#FFF0DB" fill-opacity="1.000000"/>
        <rect id="Rectangle 2" x="4.500000" y="8.500000" rx="20.000000" width="186.000000" height="288.000000" stroke="#454D9A" stroke-opacity="1.000000" stroke-width="1.000000"/>
    </g>
    <g filter="url(#filter_4_1145_dd)">
        <path id="circle8248" d="M70.64 264.32C88.98 264.32 103.84 249.41 103.84 231.01C103.84 212.62 88.98 197.7 70.64 197.7C52.3 197.7 37.43 212.62 37.43 231.01C37.43 249.41 52.3 264.32 70.64 264.32Z" fill="#603B1A" fill-opacity="1.000000" fill-rule="nonzero"/>
        <path id="circle8250" d="M124.39 264.32C142.73 264.32 157.6 249.41 157.6 231.01C157.6 212.62 142.73 197.7 124.39 197.7C106.05 197.7 91.18 212.62 91.18 231.01C91.18 249.41 106.05 264.32 124.39 264.32Z" fill="#603B1A" fill-opacity="1.000000" fill-rule="nonzero"/>
        <path id="circle8252" d="M124.39 216.73C142.73 216.73 157.6 201.82 157.6 183.42C157.6 165.02 142.73 150.11 124.39 150.11C106.05 150.11 91.18 165.02 91.18 183.42C91.18 201.82 106.05 216.73 124.39 216.73Z" fill="#603B1A" fill-opacity="1.000000" fill-rule="nonzero"/>
        <path id="circle8254" d="M142.15 171.73C160.49 171.73 175.36 156.82 175.36 138.42C175.36 120.03 160.49 105.12 142.15 105.12C123.81 105.12 108.95 120.03 108.95 138.42C108.95 156.82 123.81 171.73 142.15 171.73Z" fill="#603B1A" fill-opacity="1.000000" fill-rule="nonzero"/>
        <path id="circle8258" d="M97.51 143.96C115.85 143.96 130.72 129.05 130.72 110.65C130.72 92.26 115.85 77.34 97.51 77.34C79.17 77.34 64.3 92.26 64.3 110.65C64.3 129.05 79.17 143.96 97.51 143.96Z" fill="#603B1A" fill-opacity="1.000000" fill-rule="nonzero"/>
        <path id="circle8260" d="M97.51 135.78C111.34 135.78 122.55 124.53 122.55 110.65C122.55 96.78 111.34 85.53 97.51 85.53C83.68 85.53 72.46 96.78 72.46 110.65C72.46 124.53 83.68 135.78 97.51 135.78Z" fill="#FFFFFF" fill-opacity="1.000000" fill-rule="nonzero"/>
        <path id="circle8262" d="M97.51 132.29C109.42 132.29 119.08 122.6 119.08 110.65C119.08 98.71 109.42 89.02 97.51 89.02C85.6 89.02 75.94 98.71 75.94 110.65C75.94 122.6 85.6 132.29 97.51 132.29Z" fill="#454D9A" fill-opacity="1.000000" fill-rule="nonzero"/>
        <path id="path8264 (Stroke)" d="M96.84 124.22C97.72 124.26 98.6 124.22 99.46 124.1C100.46 123.95 101.16 123.02 101.01 122.01C100.86 121.01 99.93 120.31 98.93 120.45C98.3 120.55 97.66 120.58 97.02 120.55C96.38 120.51 95.74 120.42 95.13 120.27C94.15 120.02 93.15 120.62 92.91 121.61C92.66 122.59 93.26 123.59 94.24 123.84C95.09 124.05 95.96 124.18 96.84 124.22ZM101.87 121.71C102.39 122.58 103.51 122.87 104.38 122.36C105.13 121.91 105.85 121.4 106.51 120.81C107.16 120.22 107.76 119.57 108.29 118.88C108.9 118.07 108.74 116.92 107.94 116.3C107.13 115.68 105.98 115.84 105.37 116.65C104.98 117.16 104.55 117.63 104.07 118.06C103.59 118.49 103.07 118.86 102.52 119.19C101.65 119.7 101.36 120.83 101.87 121.71ZM92.08 121.22C92.68 120.4 92.5 119.25 91.68 118.65C91.17 118.27 90.69 117.85 90.25 117.37C89.82 116.9 89.43 116.38 89.1 115.84C88.57 114.98 87.44 114.71 86.58 115.24C85.71 115.77 85.44 116.9 85.97 117.77C86.43 118.51 86.96 119.22 87.56 119.87C88.16 120.52 88.81 121.1 89.52 121.62C90.33 122.22 91.48 122.04 92.08 121.22ZM108.34 115.48C109.32 115.74 110.33 115.16 110.59 114.18C110.81 113.33 110.96 112.46 111.02 111.58C111.03 111.41 111.02 111.23 110.98 111.07C111.03 110.91 111.05 110.74 111.05 110.56C111.05 109.68 110.95 108.8 110.78 107.94C110.58 106.95 109.61 106.31 108.62 106.51C107.62 106.71 106.98 107.68 107.19 108.68C107.31 109.3 107.38 109.94 107.38 110.59C107.38 110.71 107.4 110.84 107.42 110.96C107.39 111.08 107.37 111.2 107.36 111.33C107.32 111.97 107.21 112.61 107.05 113.22C106.78 114.2 107.36 115.21 108.34 115.48ZM86.26 114.38C87.26 114.21 87.93 113.27 87.77 112.26C87.66 111.64 87.62 111 87.64 110.35C87.66 109.7 87.74 109.07 87.88 108.45C88.11 107.46 87.49 106.47 86.51 106.24C85.52 106.02 84.53 106.64 84.31 107.63C84.11 108.48 84 109.35 83.97 110.24C83.95 111.12 84.01 112 84.15 112.86C84.31 113.86 85.26 114.54 86.26 114.38ZM108.26 105.66C109.11 105.1 109.33 103.95 108.77 103.11C108.29 102.38 107.73 101.7 107.11 101.07C106.49 100.45 105.81 99.89 105.09 99.4C104.25 98.83 103.11 99.05 102.54 99.89C101.98 100.73 102.2 101.88 103.04 102.45C103.56 102.8 104.06 103.21 104.51 103.67C104.96 104.13 105.37 104.62 105.72 105.15C106.28 106 107.42 106.23 108.26 105.66ZM86.88 105.41C87.71 105.99 88.85 105.79 89.43 104.96C89.8 104.44 90.21 103.95 90.68 103.5C91.14 103.06 91.65 102.66 92.18 102.32C93.03 101.77 93.28 100.63 92.73 99.77C92.19 98.92 91.05 98.67 90.2 99.22C89.47 99.69 88.78 100.23 88.14 100.85C87.5 101.46 86.93 102.13 86.43 102.84C85.85 103.67 86.05 104.82 86.88 105.41ZM101.7 99.53C101.91 98.54 101.27 97.57 100.28 97.36C99.43 97.18 98.55 97.08 97.67 97.07C96.79 97.06 95.91 97.14 95.06 97.3C94.06 97.48 93.4 98.44 93.59 99.44C93.77 100.44 94.73 101.1 95.72 100.91C96.35 100.8 96.98 100.74 97.63 100.75C98.27 100.76 98.91 100.83 99.53 100.96C100.52 101.17 101.49 100.53 101.7 99.53Z" fill="#FFFFFF" fill-opacity="1.000000" fill-rule="evenodd"/>
        <path id="circle8266" d="M97.51 115.03C99.92 115.03 101.87 113.07 101.87 110.65C101.87 108.24 99.92 106.28 97.51 106.28C95.1 106.28 93.15 108.24 93.15 110.65C93.15 113.07 95.1 115.03 97.51 115.03Z" fill="#FFFFFF" fill-opacity="1.000000" fill-rule="nonzero"/>
        <path id="circle8268" d="M97.51 112.65C98.61 112.65 99.5 111.76 99.5 110.65C99.5 109.55 98.61 108.66 97.51 108.66C96.41 108.66 95.52 109.55 95.52 110.65C95.52 111.76 96.41 112.65 97.51 112.65Z" fill="#454D9A" fill-opacity="1.000000" fill-rule="nonzero"/>
        <path id="circle8270" d="M97.51 143.96C115.85 143.96 130.72 129.05 130.72 110.65C130.72 92.26 115.85 77.34 97.51 77.34C79.17 77.34 64.3 92.26 64.3 110.65C64.3 129.05 79.17 143.96 97.51 143.96Z" fill="#603B1A" fill-opacity="1.000000" fill-rule="nonzero"/>
        <path id="circle8272" d="M70.64 216.73C88.98 216.73 103.84 201.82 103.84 183.42C103.84 165.02 88.98 150.11 70.64 150.11C52.3 150.11 37.43 165.02 37.43 183.42C37.43 201.82 52.3 216.73 70.64 216.73Z" fill="#603B1A" fill-opacity="1.000000" fill-rule="nonzero"/>
        <path id="circle8274" d="M70.64 208.54C84.47 208.54 95.68 197.29 95.68 183.42C95.68 169.55 84.47 158.3 70.64 158.3C56.81 158.3 45.59 169.55 45.59 183.42C45.59 197.29 56.81 208.54 70.64 208.54Z" fill="#FFFFFF" fill-opacity="1.000000" fill-rule="nonzero"/>
        <path id="circle8276" d="M70.64 205.05C82.55 205.05 92.2 195.37 92.2 183.42C92.2 171.47 82.55 161.79 70.64 161.79C58.73 161.79 49.07 171.47 49.07 183.42C49.07 195.37 58.73 205.05 70.64 205.05Z" fill="#E9411B" fill-opacity="1.000000" fill-rule="nonzero"/>
        <path id="path8278 (Stroke)" d="M69.97 196.99C70.85 197.03 71.73 196.99 72.59 196.86C73.59 196.72 74.28 195.78 74.14 194.78C73.99 193.77 73.06 193.07 72.06 193.22C71.43 193.31 70.79 193.34 70.15 193.31C69.51 193.28 68.87 193.19 68.26 193.03C67.27 192.79 66.28 193.39 66.04 194.37C65.79 195.36 66.39 196.36 67.37 196.6C68.22 196.81 69.09 196.94 69.97 196.99ZM75 194.47C75.52 195.35 76.64 195.64 77.51 195.12C78.26 194.68 78.97 194.16 79.63 193.57C80.29 192.99 80.89 192.34 81.42 191.64C82.03 190.84 81.87 189.68 81.07 189.07C80.26 188.45 79.11 188.61 78.5 189.42C78.11 189.92 77.68 190.39 77.2 190.82C76.72 191.25 76.2 191.63 75.65 191.95C74.78 192.47 74.49 193.6 75 194.47ZM65.21 193.98C65.8 193.16 65.63 192.01 64.81 191.41C64.3 191.04 63.82 190.61 63.38 190.14C62.95 189.66 62.56 189.15 62.23 188.61C61.7 187.74 60.57 187.47 59.7 188C58.84 188.54 58.57 189.67 59.1 190.53C59.56 191.28 60.09 191.98 60.69 192.63C61.29 193.28 61.94 193.87 62.64 194.38C63.46 194.98 64.61 194.8 65.21 193.98ZM81.47 188.24C82.45 188.51 83.45 187.92 83.72 186.94C83.94 186.1 84.09 185.23 84.15 184.35C84.16 184.17 84.15 184 84.11 183.84C84.16 183.67 84.18 183.5 84.18 183.33C84.17 182.44 84.08 181.57 83.91 180.71C83.71 179.71 82.74 179.07 81.74 179.27C80.75 179.48 80.11 180.45 80.31 181.44C80.44 182.07 80.51 182.71 80.51 183.35C80.51 183.48 80.53 183.6 80.55 183.73C80.52 183.84 80.5 183.97 80.49 184.1C80.44 184.74 80.34 185.37 80.17 185.99C79.91 186.97 80.49 187.98 81.47 188.24ZM59.38 187.14C60.38 186.98 61.06 186.03 60.9 185.03C60.79 184.4 60.75 183.76 60.77 183.12L58.94 183.06L60.77 183.12C60.79 182.47 60.87 181.83 61.01 181.21C61.24 180.22 60.62 179.24 59.63 179.01C58.65 178.78 57.66 179.4 57.44 180.39C57.24 181.24 57.13 182.12 57.1 183C57.08 183.89 57.14 184.77 57.28 185.63C57.44 186.63 58.38 187.31 59.38 187.14ZM81.39 178.43C82.23 177.86 82.46 176.72 81.9 175.88C81.42 175.15 80.86 174.47 80.24 173.84C79.61 173.21 78.94 172.65 78.22 172.16C77.38 171.59 76.24 171.82 75.67 172.66C75.1 173.5 75.32 174.64 76.16 175.21C76.69 175.57 77.18 175.98 77.64 176.43C78.09 176.89 78.5 177.39 78.85 177.92C79.41 178.76 80.55 178.99 81.39 178.43ZM60.01 178.17C60.83 178.76 61.98 178.56 62.56 177.72C62.93 177.2 63.34 176.72 63.81 176.27C64.27 175.82 64.78 175.43 65.31 175.08C66.16 174.53 66.41 173.4 65.86 172.54C65.32 171.69 64.18 171.44 63.33 171.99C62.6 172.46 61.91 173 61.27 173.61C60.63 174.23 60.06 174.89 59.56 175.61C58.98 176.44 59.18 177.59 60.01 178.17ZM74.83 172.3C75.03 171.31 74.4 170.33 73.41 170.12C72.55 169.95 71.68 169.85 70.8 169.84C69.92 169.83 69.04 169.9 68.19 170.06C67.19 170.25 66.53 171.2 66.71 172.2C66.9 173.2 67.85 173.86 68.85 173.68C69.47 173.56 70.11 173.51 70.76 173.52C71.4 173.52 72.04 173.6 72.66 173.73C73.65 173.93 74.62 173.3 74.83 172.3Z" fill="#FFFFFF" fill-opacity="1.000000" fill-rule="evenodd"/>
        <path id="circle8280" d="M70.64 187.8C73.05 187.8 75 185.84 75 183.42C75 181 73.05 179.04 70.64 179.04C68.23 179.04 66.27 181 66.27 183.42C66.27 185.84 68.23 187.8 70.64 187.8Z" fill="#FFFFFF" fill-opacity="1.000000" fill-rule="nonzero"/>
        <path id="circle8282" d="M70.64 185.42C71.74 185.42 72.63 184.52 72.63 183.42C72.63 182.32 71.74 181.42 70.64 181.42C69.54 181.42 68.64 182.32 68.64 183.42C68.64 184.52 69.54 185.42 70.64 185.42Z" fill="#E9411B" fill-opacity="1.000000" fill-rule="nonzero"/>
        <path id="circle8284" d="M52.83 116.17C71.17 116.17 86.04 101.26 86.04 82.86C86.04 64.46 71.17 49.55 52.83 49.55C34.49 49.55 19.62 64.46 19.62 82.86C19.62 101.26 34.49 116.17 52.83 116.17Z" fill="#603B1A" fill-opacity="1.000000" fill-rule="nonzero"/>
        <path id="circle8286" d="M52.83 107.98C66.66 107.98 77.87 96.73 77.87 82.86C77.87 68.98 66.66 57.74 52.83 57.74C39 57.74 27.78 68.98 27.78 82.86C27.78 96.73 39 107.98 52.83 107.98Z" fill="#FFFFFF" fill-opacity="1.000000" fill-rule="nonzero"/>
        <path id="circle8288" d="M52.83 104.49C64.74 104.49 74.39 94.81 74.39 82.86C74.39 70.91 64.74 61.23 52.83 61.23C40.92 61.23 31.26 70.91 31.26 82.86C31.26 94.81 40.92 104.49 52.83 104.49Z" fill="#454D9A" fill-opacity="1.000000" fill-rule="nonzero"/>
        <path id="path8290 (Stroke)" d="M52.16 96.42C53.04 96.47 53.92 96.43 54.78 96.3C55.78 96.15 56.48 95.22 56.33 94.22C56.18 93.21 55.25 92.51 54.25 92.66C53.62 92.75 52.98 92.78 52.34 92.75C51.7 92.72 51.06 92.62 50.45 92.47C49.47 92.23 48.47 92.83 48.23 93.81C47.98 94.8 48.58 95.8 49.56 96.04C50.41 96.25 51.28 96.38 52.16 96.42ZM57.19 93.91C57.71 94.79 58.83 95.08 59.7 94.56C60.45 94.12 61.16 93.6 61.82 93.01C62.48 92.42 63.08 91.78 63.61 91.08C64.22 90.27 64.06 89.12 63.26 88.5C62.45 87.89 61.3 88.05 60.69 88.86C60.3 89.36 59.87 89.83 59.39 90.26C58.91 90.69 58.39 91.07 57.84 91.39C56.97 91.91 56.68 93.03 57.19 93.91ZM47.4 93.42C48 92.6 47.82 91.45 47 90.85C46.49 90.48 46.01 90.05 45.57 89.58C45.14 89.1 44.75 88.59 44.42 88.05C43.89 87.18 42.76 86.91 41.9 87.44C41.03 87.97 40.76 89.11 41.29 89.97C41.75 90.72 42.28 91.42 42.88 92.07C43.48 92.72 44.13 93.31 44.83 93.82C45.65 94.42 46.8 94.24 47.4 93.42ZM63.66 87.68C64.64 87.94 65.64 87.36 65.91 86.38C66.13 85.54 66.28 84.67 66.34 83.79C66.35 83.61 66.34 83.44 66.3 83.27C66.35 83.11 66.37 82.94 66.37 82.77C66.36 81.88 66.27 81 66.1 80.15C65.9 79.15 64.93 78.51 63.94 78.71C62.94 78.92 62.3 79.89 62.5 80.88C62.63 81.51 62.7 82.14 62.7 82.79C62.7 82.92 62.72 83.04 62.74 83.16C62.71 83.28 62.69 83.41 62.68 83.53C62.64 84.18 62.53 84.81 62.36 85.43C62.1 86.41 62.68 87.42 63.66 87.68ZM41.58 86.58C42.57 86.42 43.25 85.47 43.09 84.47C42.98 83.84 42.94 83.2 42.96 82.55C42.98 81.91 43.06 81.27 43.2 80.65C43.43 79.66 42.81 78.68 41.82 78.45C40.84 78.22 39.85 78.84 39.63 79.83C39.43 80.68 39.32 81.56 39.29 82.44C39.27 83.33 39.33 84.21 39.47 85.07C39.63 86.07 40.58 86.75 41.58 86.58ZM63.58 77.87C64.43 77.3 64.65 76.16 64.09 75.31C63.61 74.59 63.05 73.91 62.43 73.28C61.81 72.65 61.13 72.09 60.41 71.6C59.57 71.03 58.43 71.25 57.86 72.1C57.29 72.94 57.51 74.08 58.35 74.65C58.88 75.01 59.37 75.42 59.83 75.87C60.28 76.33 60.69 76.83 61.04 77.36C61.6 78.2 62.74 78.43 63.58 77.87ZM42.2 77.61C43.02 78.19 44.17 77.99 44.75 77.16C45.12 76.64 45.53 76.15 46 75.71C46.46 75.26 46.97 74.86 47.5 74.52C48.35 73.97 48.6 72.83 48.05 71.98C47.51 71.12 46.37 70.88 45.52 71.42C44.79 71.89 44.1 72.44 43.46 73.05C42.82 73.66 42.25 74.33 41.75 75.05C41.17 75.88 41.37 77.03 42.2 77.61ZM57.02 71.74C57.22 70.74 56.59 69.77 55.6 69.56C54.75 69.38 53.87 69.29 52.99 69.28C52.11 69.27 51.23 69.34 50.38 69.5C49.38 69.68 48.72 70.64 48.91 71.64C49.09 72.64 50.04 73.3 51.04 73.12C51.66 73 52.3 72.95 52.95 72.96C53.59 72.96 54.23 73.03 54.85 73.16C55.84 73.37 56.81 72.73 57.02 71.74Z" fill="#FFFFFF" fill-opacity="1.000000" fill-rule="evenodd"/>
        <path id="circle8292" d="M52.83 87.24C55.24 87.24 57.19 85.28 57.19 82.86C57.19 80.44 55.24 78.48 52.83 78.48C50.42 78.48 48.46 80.44 48.46 82.86C48.46 85.28 50.42 87.24 52.83 87.24Z" fill="#FFFFFF" fill-opacity="1.000000" fill-rule="nonzero"/>
        <path id="circle8294" d="M52.83 84.86C53.93 84.86 54.82 83.96 54.82 82.86C54.82 81.75 53.93 80.86 52.83 80.86C51.73 80.86 50.84 81.75 50.84 82.86C50.84 83.96 51.73 84.86 52.83 84.86Z" fill="#454D9A" fill-opacity="1.000000" fill-rule="nonzero"/>
        <path id="circle8296" d="M97.51 135.78C111.34 135.78 122.55 124.53 122.55 110.65C122.55 96.78 111.34 85.53 97.51 85.53C83.68 85.53 72.46 96.78 72.46 110.65C72.46 124.53 83.68 135.78 97.51 135.78Z" fill="#FFFFFF" fill-opacity="1.000000" fill-rule="nonzero"/>
        <path id="circle8298" d="M97.51 132.29C109.42 132.29 119.08 122.6 119.08 110.65C119.08 98.71 109.42 89.02 97.51 89.02C85.6 89.02 75.94 98.71 75.94 110.65C75.94 122.6 85.6 132.29 97.51 132.29Z" fill="#454D9A" fill-opacity="1.000000" fill-rule="nonzero"/>
        <path id="path8300 (Stroke)" d="M96.84 124.22C97.72 124.26 98.6 124.22 99.46 124.1C100.46 123.95 101.16 123.02 101.01 122.01C100.86 121.01 99.93 120.31 98.93 120.45C98.3 120.55 97.66 120.58 97.02 120.55C96.38 120.51 95.74 120.42 95.13 120.27C94.15 120.02 93.15 120.62 92.91 121.61C92.66 122.59 93.26 123.59 94.24 123.84C95.09 124.05 95.96 124.18 96.84 124.22ZM101.87 121.71C102.39 122.58 103.51 122.87 104.38 122.36C105.13 121.91 105.85 121.4 106.51 120.81C107.16 120.22 107.76 119.57 108.29 118.88C108.9 118.07 108.74 116.92 107.94 116.3C107.13 115.69 105.98 115.84 105.37 116.65C104.98 117.16 104.55 117.63 104.07 118.06C103.59 118.49 103.07 118.86 102.52 119.19C101.65 119.7 101.36 120.83 101.87 121.71ZM92.08 121.22C92.68 120.4 92.5 119.25 91.68 118.65C91.17 118.27 90.69 117.85 90.25 117.37C89.82 116.9 89.43 116.38 89.1 115.84C88.57 114.98 87.44 114.71 86.58 115.24C85.71 115.77 85.44 116.9 85.97 117.77C86.43 118.51 86.96 119.22 87.56 119.87C88.16 120.52 88.81 121.1 89.52 121.62C90.33 122.22 91.48 122.04 92.08 121.22ZM108.34 115.48C109.32 115.74 110.33 115.16 110.59 114.18C110.81 113.33 110.96 112.46 111.02 111.58C111.03 111.41 111.02 111.23 110.98 111.07C111.03 110.91 111.05 110.74 111.05 110.56C111.05 109.68 110.95 108.8 110.78 107.94C110.58 106.95 109.61 106.31 108.62 106.51C107.62 106.71 106.98 107.68 107.19 108.68C107.31 109.3 107.38 109.94 107.38 110.59C107.38 110.71 107.4 110.84 107.42 110.96C107.39 111.08 107.37 111.2 107.36 111.33C107.32 111.97 107.21 112.61 107.05 113.22C106.78 114.2 107.36 115.21 108.34 115.48ZM86.26 114.38C87.26 114.21 87.93 113.27 87.77 112.26C87.66 111.64 87.62 111 87.64 110.35C87.66 109.7 87.74 109.07 87.88 108.45C88.11 107.46 87.49 106.47 86.51 106.24C85.52 106.02 84.53 106.64 84.31 107.63C84.11 108.48 84 109.35 83.97 110.24L85.81 110.29L83.97 110.24C83.95 111.12 84.01 112 84.15 112.86C84.31 113.86 85.26 114.54 86.26 114.38ZM108.26 105.66C109.11 105.1 109.33 103.95 108.77 103.11C108.29 102.38 107.73 101.7 107.11 101.07C106.49 100.45 105.81 99.89 105.09 99.4C104.25 98.83 103.11 99.05 102.54 99.89C101.98 100.73 102.2 101.88 103.04 102.45C103.56 102.8 104.06 103.21 104.51 103.67C104.96 104.13 105.37 104.62 105.72 105.15C106.28 106 107.42 106.23 108.26 105.66ZM86.88 105.41C87.71 105.99 88.85 105.79 89.43 104.96C89.8 104.44 90.21 103.95 90.68 103.5C91.14 103.06 91.65 102.66 92.18 102.32C93.03 101.77 93.28 100.63 92.73 99.77C92.19 98.92 91.05 98.67 90.2 99.22C89.47 99.69 88.78 100.23 88.14 100.85C87.5 101.46 86.93 102.13 86.43 102.84C85.85 103.67 86.05 104.82 86.88 105.41ZM101.7 99.53C101.91 98.54 101.27 97.57 100.28 97.36C99.43 97.18 98.55 97.08 97.67 97.07C96.79 97.06 95.91 97.14 95.06 97.3C94.06 97.48 93.4 98.44 93.59 99.44C93.77 100.44 94.73 101.1 95.72 100.91C96.35 100.8 96.98 100.74 97.63 100.75C98.27 100.76 98.91 100.83 99.53 100.96C100.52 101.17 101.49 100.53 101.7 99.53Z" fill="#FFFFFF" fill-opacity="1.000000" fill-rule="evenodd"/>
        <path id="circle8302" d="M97.51 115.03C99.92 115.03 101.87 113.07 101.87 110.65C101.87 108.24 99.92 106.28 97.51 106.28C95.1 106.28 93.15 108.24 93.15 110.65C93.15 113.07 95.1 115.03 97.51 115.03Z" fill="#FFFFFF" fill-opacity="1.000000" fill-rule="nonzero"/>
        <path id="circle8304" d="M97.51 112.65C98.61 112.65 99.5 111.76 99.5 110.65C99.5 109.55 98.61 108.66 97.51 108.66C96.41 108.66 95.52 109.55 95.52 110.65C95.52 111.76 96.41 112.65 97.51 112.65Z" fill="#454D9A" fill-opacity="1.000000" fill-rule="nonzero"/>
        <path id="circle8306" d="M142.15 163.55C155.99 163.55 167.2 152.3 167.2 138.42C167.2 124.55 155.99 113.3 142.15 113.3C128.32 113.3 117.11 124.55 117.11 138.42C117.11 152.3 128.32 163.55 142.15 163.55Z" fill="#FFFFFF" fill-opacity="1.000000" fill-rule="nonzero"/>
        <path id="circle8308" d="M142.15 160.06C154.06 160.06 163.72 150.37 163.72 138.42C163.72 126.48 154.06 116.79 142.15 116.79C130.24 116.79 120.59 126.48 120.59 138.42C120.59 150.37 130.24 160.06 142.15 160.06Z" fill="#454D9A" fill-opacity="1.000000" fill-rule="nonzero"/>
        <path id="path8310 (Stroke)" d="M141.48 151.99C142.37 152.03 143.24 151.99 144.1 151.87C145.11 151.72 145.8 150.79 145.66 149.78C145.51 148.78 144.58 148.08 143.58 148.23C142.95 148.32 142.31 148.35 141.67 148.32C141.02 148.28 140.39 148.19 139.77 148.04C138.79 147.79 137.8 148.39 137.55 149.38C137.31 150.36 137.91 151.36 138.89 151.61C139.73 151.82 140.6 151.95 141.48 151.99ZM146.52 149.48C147.03 150.35 148.16 150.64 149.03 150.13C149.78 149.68 150.49 149.17 151.15 148.58C151.81 147.99 152.41 147.34 152.93 146.65C153.55 145.84 153.39 144.69 152.58 144.07C151.78 143.46 150.63 143.61 150.01 144.42C149.63 144.93 149.19 145.4 148.71 145.83C148.23 146.26 147.71 146.63 147.17 146.96C146.29 147.47 146 148.6 146.52 149.48ZM136.72 148.99C137.32 148.17 137.14 147.02 136.33 146.42C135.81 146.04 135.34 145.62 134.9 145.14C134.46 144.67 134.08 144.15 133.74 143.61C133.21 142.75 132.08 142.48 131.22 143.01C130.36 143.54 130.09 144.67 130.62 145.54C131.08 146.28 131.6 146.99 132.2 147.64C132.8 148.29 133.46 148.87 134.16 149.39C134.98 149.99 136.13 149.81 136.72 148.99ZM152.99 143.25C153.96 143.51 154.97 142.93 155.23 141.95C155.46 141.1 155.6 140.24 155.66 139.35C155.68 139.18 155.66 139 155.63 138.84C155.67 138.68 155.7 138.51 155.7 138.33C155.69 137.45 155.6 136.57 155.42 135.71C155.22 134.72 154.25 134.08 153.26 134.28C152.27 134.48 151.63 135.45 151.83 136.45C151.96 137.07 152.02 137.71 152.03 138.36C152.03 138.49 152.04 138.61 152.07 138.73C152.03 138.85 152.01 138.97 152 139.1C151.96 139.75 151.86 140.38 151.69 140.99C151.43 141.97 152.01 142.98 152.99 143.25ZM130.9 142.15C131.9 141.98 132.58 141.04 132.41 140.03C132.31 139.41 132.27 138.77 132.28 138.12C132.31 137.48 132.39 136.84 132.53 136.22C132.75 135.23 132.14 134.24 131.15 134.02C130.16 133.79 129.18 134.41 128.95 135.4C128.76 136.25 128.65 137.12 128.62 138.01C128.59 138.89 128.65 139.77 128.79 140.63C128.96 141.64 129.9 142.31 130.9 142.15ZM152.91 133.43C153.75 132.87 153.98 131.73 153.42 130.88C152.93 130.15 152.38 129.47 151.75 128.84C151.13 128.22 150.45 127.66 149.73 127.17C148.89 126.6 147.75 126.82 147.19 127.66C146.62 128.5 146.84 129.65 147.68 130.22C148.21 130.57 148.7 130.98 149.15 131.44C149.61 131.9 150.01 132.39 150.37 132.92C150.93 133.77 152.07 134 152.91 133.43ZM131.52 133.18C132.35 133.76 133.49 133.56 134.08 132.73C134.44 132.21 134.86 131.72 135.32 131.27C135.79 130.83 136.29 130.43 136.83 130.09C137.68 129.54 137.93 128.4 137.38 127.55C136.83 126.69 135.7 126.44 134.85 126.99C134.11 127.46 133.42 128 132.78 128.62C132.15 129.23 131.58 129.9 131.08 130.61C130.49 131.44 130.69 132.59 131.52 133.18ZM146.34 127.31C146.55 126.31 145.91 125.34 144.92 125.13C144.07 124.95 143.2 124.85 142.32 124.84C141.43 124.83 140.56 124.91 139.7 125.07C138.71 125.25 138.05 126.21 138.23 127.21C138.41 128.21 139.37 128.87 140.37 128.68C140.99 128.57 141.63 128.51 142.27 128.52C142.92 128.53 143.55 128.6 144.17 128.73C145.16 128.94 146.14 128.3 146.34 127.31Z" fill="#FFFFFF" fill-opacity="1.000000" fill-rule="evenodd"/>
        <path id="circle8312" d="M142.15 142.8C144.56 142.8 146.52 140.84 146.52 138.42C146.52 136.01 144.56 134.05 142.15 134.05C139.74 134.05 137.79 136.01 137.79 138.42C137.79 140.84 139.74 142.8 142.15 142.8Z" fill="#FFFFFF" fill-opacity="1.000000" fill-rule="nonzero"/>
        <path id="circle8314" d="M142.15 140.42C143.25 140.42 144.15 139.53 144.15 138.42C144.15 137.32 143.25 136.43 142.15 136.43C141.05 136.43 140.16 137.32 140.16 138.42C140.16 139.53 141.05 140.42 142.15 140.42Z" fill="#454D9A" fill-opacity="1.000000" fill-rule="nonzero"/>
        <path id="circle8316" d="M124.39 208.54C138.22 208.54 149.43 197.29 149.43 183.42C149.43 169.55 138.22 158.3 124.39 158.3C110.56 158.3 99.34 169.55 99.34 183.42C99.34 197.29 110.56 208.54 124.39 208.54Z" fill="#FFFFFF" fill-opacity="1.000000" fill-rule="nonzero"/>
        <path id="circle8318" d="M124.39 205.05C136.3 205.05 145.96 195.37 145.96 183.42C145.96 171.47 136.3 161.79 124.39 161.79C112.48 161.79 102.82 171.47 102.82 183.42C102.82 195.37 112.48 205.05 124.39 205.05Z" fill="#E9411B" fill-opacity="1.000000" fill-rule="nonzero"/>
        <path id="path8320 (Stroke)" d="M123.72 196.99C124.6 197.03 125.48 196.99 126.34 196.86C127.34 196.72 128.04 195.78 127.89 194.78C127.74 193.77 126.81 193.07 125.81 193.22C125.18 193.31 124.54 193.34 123.9 193.31C123.26 193.28 122.63 193.19 122.01 193.03C121.03 192.79 120.03 193.39 119.79 194.37C119.54 195.36 120.14 196.36 121.13 196.6C121.97 196.81 122.84 196.94 123.72 196.99ZM128.75 194.47C129.27 195.35 130.39 195.64 131.26 195.12C132.01 194.68 132.73 194.16 133.39 193.57C134.04 192.99 134.64 192.34 135.17 191.64C135.78 190.84 135.62 189.68 134.82 189.07C134.01 188.45 132.86 188.61 132.25 189.42C131.86 189.92 131.43 190.39 130.95 190.82C130.47 191.25 129.95 191.63 129.4 191.95C128.53 192.47 128.24 193.6 128.75 194.47ZM118.96 193.98C119.56 193.16 119.38 192.01 118.56 191.41C118.05 191.04 117.57 190.61 117.13 190.14C116.7 189.66 116.31 189.15 115.98 188.61C115.45 187.74 114.32 187.47 113.46 188C112.59 188.54 112.32 189.67 112.85 190.53C113.31 191.28 113.84 191.98 114.44 192.63C115.04 193.28 115.69 193.87 116.4 194.38C117.21 194.98 118.36 194.8 118.96 193.98ZM135.22 188.24C136.2 188.51 137.21 187.92 137.47 186.94C137.69 186.1 137.84 185.23 137.9 184.35C137.91 184.17 137.9 184 137.86 183.84C137.91 183.67 137.93 183.5 137.93 183.33C137.92 182.44 137.83 181.57 137.66 180.71C137.46 179.71 136.49 179.07 135.5 179.27C134.5 179.48 133.86 180.45 134.07 181.44C134.19 182.07 134.26 182.71 134.26 183.35C134.26 183.48 134.28 183.6 134.3 183.73C134.27 183.84 134.25 183.97 134.24 184.1C134.2 184.74 134.09 185.37 133.93 185.99C133.66 186.97 134.24 187.98 135.22 188.24ZM113.14 187.14C114.14 186.98 114.81 186.03 114.65 185.03C114.54 184.4 114.5 183.76 114.52 183.12C114.54 182.47 114.62 181.83 114.76 181.21C114.99 180.22 114.37 179.24 113.39 179.01C112.4 178.78 111.41 179.4 111.19 180.39C111 181.24 110.88 182.12 110.86 183C110.83 183.89 110.89 184.77 111.03 185.63C111.19 186.63 112.14 187.31 113.14 187.14ZM135.14 178.43C135.99 177.86 136.21 176.72 135.65 175.88C135.17 175.15 134.61 174.47 133.99 173.84C133.37 173.21 132.69 172.65 131.97 172.16C131.13 171.59 129.99 171.82 129.42 172.66C128.86 173.5 129.08 174.64 129.92 175.21C130.44 175.57 130.94 175.98 131.39 176.43C131.84 176.89 132.25 177.39 132.6 177.92C133.16 178.76 134.3 178.99 135.14 178.43ZM113.76 178.17C114.59 178.76 115.73 178.56 116.31 177.72C116.68 177.2 117.09 176.72 117.56 176.27C118.02 175.82 118.53 175.43 119.06 175.08C119.91 174.53 120.16 173.4 119.62 172.54C119.07 171.69 117.93 171.44 117.08 171.99C116.35 172.46 115.66 173 115.02 173.61C114.38 174.23 113.81 174.89 113.31 175.61C112.73 176.44 112.93 177.59 113.76 178.17ZM128.58 172.3C128.79 171.31 128.15 170.33 127.16 170.12C126.31 169.95 125.43 169.85 124.55 169.84C123.67 169.83 122.79 169.9 121.94 170.06C120.94 170.25 120.28 171.2 120.47 172.2C120.65 173.2 121.61 173.86 122.6 173.68C123.23 173.56 123.86 173.51 124.51 173.52C125.15 173.52 125.79 173.6 126.41 173.73C127.4 173.93 128.37 173.3 128.58 172.3Z" fill="#FFFFFF" fill-opacity="1.000000" fill-rule="evenodd"/>
        <path id="circle8322" d="M124.39 187.8C126.8 187.8 128.75 185.84 128.75 183.42C128.75 181 126.8 179.04 124.39 179.04C121.98 179.04 120.03 181 120.03 183.42C120.03 185.84 121.98 187.8 124.39 187.8Z" fill="#FFFFFF" fill-opacity="1.000000" fill-rule="nonzero"/>
        <path id="circle8324" d="M124.39 185.42C125.49 185.42 126.38 184.52 126.38 183.42C126.38 182.32 125.49 181.42 124.39 181.42C123.29 181.42 122.4 182.32 122.4 183.42C122.4 184.52 123.29 185.42 124.39 185.42Z" fill="#E9411B" fill-opacity="1.000000" fill-rule="nonzero"/>
        <path id="circle8326" d="M70.64 256.14C84.47 256.14 95.68 244.89 95.68 231.01C95.68 217.14 84.47 205.89 70.64 205.89C56.81 205.89 45.59 217.14 45.59 231.01C45.59 244.89 56.81 256.14 70.64 256.14Z" fill="#FFFFFF" fill-opacity="1.000000" fill-rule="nonzero"/>
        <path id="circle8328" d="M70.64 252.65C82.55 252.65 92.2 242.96 92.2 231.01C92.2 219.07 82.55 209.38 70.64 209.38C58.73 209.38 49.07 219.07 49.07 231.01C49.07 242.96 58.73 252.65 70.64 252.65Z" fill="#E9411B" fill-opacity="1.000000" fill-rule="nonzero"/>
        <path id="path8330 (Stroke)" d="M69.97 244.58C70.85 244.62 71.73 244.58 72.59 244.46C73.59 244.31 74.28 243.38 74.14 242.37C73.99 241.36 73.06 240.67 72.06 240.81C71.43 240.91 70.79 240.94 70.15 240.91C69.51 240.87 68.87 240.78 68.26 240.63C67.27 240.38 66.28 240.98 66.04 241.97C65.79 242.95 66.39 243.95 67.37 244.2C68.22 244.41 69.09 244.54 69.97 244.58ZM75 242.07C75.52 242.94 76.64 243.23 77.51 242.72C78.26 242.27 78.97 241.76 79.63 241.17C80.29 240.58 80.89 239.93 81.42 239.24C82.03 238.43 81.87 237.27 81.07 236.66C80.26 236.04 79.11 236.2 78.5 237.01C78.11 237.52 77.68 237.99 77.2 238.42C76.72 238.85 76.2 239.22 75.65 239.55C74.78 240.06 74.49 241.19 75 242.07ZM65.21 241.58C65.8 240.76 65.63 239.61 64.81 239.01C64.3 238.63 63.82 238.2 63.38 237.73C62.95 237.26 62.56 236.74 62.23 236.2C61.7 235.34 60.57 235.07 59.7 235.6C58.84 236.13 58.57 237.26 59.1 238.13C59.56 238.87 60.09 239.57 60.69 240.23C61.29 240.88 61.94 241.46 62.64 241.98C63.46 242.58 64.61 242.4 65.21 241.58ZM81.47 235.84C82.45 236.1 83.45 235.52 83.72 234.54C83.94 233.69 84.09 232.82 84.15 231.94C84.16 231.76 84.15 231.59 84.11 231.43C84.16 231.27 84.18 231.1 84.18 230.92C84.17 230.03 84.08 229.16 83.91 228.3C83.71 227.31 82.74 226.67 81.74 226.87C80.75 227.07 80.11 228.04 80.31 229.04C80.44 229.66 80.51 230.3 80.51 230.95C80.51 231.07 80.53 231.2 80.55 231.32C80.52 231.44 80.5 231.56 80.49 231.69C80.44 232.33 80.34 232.97 80.17 233.58C79.91 234.56 80.49 235.57 81.47 235.84ZM59.38 234.74C60.38 234.57 61.06 233.63 60.9 232.62C60.79 232 60.75 231.35 60.77 230.71C60.79 230.06 60.87 229.43 61.01 228.81C61.24 227.82 60.62 226.83 59.63 226.6C58.65 226.38 57.66 227 57.44 227.99C57.24 228.84 57.13 229.71 57.1 230.6C57.08 231.48 57.14 232.36 57.28 233.22C57.44 234.22 58.38 234.9 59.38 234.74ZM81.39 226.02C82.23 225.46 82.46 224.31 81.9 223.47C81.42 222.74 80.86 222.06 80.24 221.43C79.61 220.81 78.94 220.25 78.22 219.76C77.38 219.19 76.24 219.41 75.67 220.25C75.1 221.09 75.32 222.24 76.16 222.81C76.69 223.16 77.18 223.57 77.64 224.03C78.09 224.49 78.5 224.98 78.85 225.51C79.41 226.36 80.55 226.58 81.39 226.02ZM60.01 225.77C60.83 226.35 61.98 226.15 62.56 225.32C62.93 224.8 63.34 224.31 63.81 223.86C64.27 223.42 64.77 223.02 65.31 222.68C66.16 222.13 66.41 220.99 65.86 220.13C65.32 219.28 64.18 219.03 63.33 219.58C62.6 220.05 61.91 220.59 61.27 221.21C60.63 221.82 60.06 222.49 59.56 223.2C58.98 224.03 59.18 225.18 60.01 225.77ZM74.83 219.89C75.03 218.9 74.4 217.93 73.41 217.72C72.55 217.54 71.68 217.44 70.8 217.43C69.92 217.42 69.04 217.5 68.19 217.66C67.19 217.84 66.53 218.8 66.71 219.8C66.9 220.8 67.85 221.46 68.85 221.27C69.47 221.16 70.11 221.1 70.76 221.11C71.4 221.12 72.04 221.19 72.66 221.32C73.65 221.53 74.62 220.89 74.83 219.89Z" fill="#FFFFFF" fill-opacity="1.000000" fill-rule="evenodd"/>
        <path id="circle8332" d="M70.64 235.39C73.05 235.39 75 233.43 75 231.01C75 228.6 73.05 226.64 70.64 226.64C68.23 226.64 66.27 228.6 66.27 231.01C66.27 233.43 68.23 235.39 70.64 235.39Z" fill="#FFFFFF" fill-opacity="1.000000" fill-rule="nonzero"/>
        <path id="circle8334" d="M70.64 233.01C71.74 233.01 72.63 232.12 72.63 231.01C72.63 229.91 71.74 229.02 70.64 229.02C69.54 229.02 68.64 229.91 68.64 231.01C68.64 232.12 69.54 233.01 70.64 233.01Z" fill="#E9411B" fill-opacity="1.000000" fill-rule="nonzero"/>
        <path id="circle8336" d="M124.39 256.14C138.22 256.14 149.43 244.89 149.43 231.01C149.43 217.14 138.22 205.89 124.39 205.89C110.56 205.89 99.34 217.14 99.34 231.01C99.34 244.89 110.56 256.14 124.39 256.14Z" fill="#FFFFFF" fill-opacity="1.000000" fill-rule="nonzero"/>
        <path id="circle8338" d="M124.39 252.65C136.3 252.65 145.96 242.96 145.96 231.01C145.96 219.07 136.3 209.38 124.39 209.38C112.48 209.38 102.82 219.07 102.82 231.01C102.82 242.96 112.48 252.65 124.39 252.65Z" fill="#E9411B" fill-opacity="1.000000" fill-rule="nonzero"/>
        <path id="path8340 (Stroke)" d="M123.72 244.58C124.6 244.62 125.48 244.58 126.34 244.46C127.34 244.31 128.04 243.38 127.89 242.37C127.74 241.36 126.81 240.67 125.81 240.81C125.18 240.91 124.54 240.94 123.9 240.91C123.26 240.87 122.63 240.78 122.01 240.63C121.03 240.38 120.03 240.98 119.79 241.97C119.54 242.95 120.14 243.95 121.13 244.2C121.97 244.41 122.84 244.54 123.72 244.58ZM128.75 242.07C129.27 242.94 130.39 243.23 131.26 242.72C132.01 242.27 132.73 241.76 133.39 241.17C134.04 240.58 134.64 239.93 135.17 239.24C135.78 238.43 135.62 237.27 134.82 236.66C134.01 236.04 132.86 236.2 132.25 237.01C131.86 237.52 131.43 237.99 130.95 238.42C130.47 238.85 129.95 239.22 129.4 239.55C128.53 240.06 128.24 241.19 128.75 242.07ZM118.96 241.58C119.56 240.76 119.38 239.61 118.56 239.01C118.05 238.63 117.57 238.2 117.13 237.73C116.7 237.26 116.31 236.74 115.98 236.2C115.45 235.34 114.32 235.07 113.46 235.6C112.59 236.13 112.32 237.26 112.85 238.13C113.31 238.87 113.84 239.57 114.44 240.23C115.04 240.88 115.69 241.46 116.4 241.98C117.21 242.58 118.36 242.4 118.96 241.58ZM135.22 235.84C136.2 236.1 137.21 235.52 137.47 234.54C137.69 233.69 137.84 232.82 137.9 231.94C137.91 231.76 137.9 231.59 137.86 231.43C137.91 231.27 137.93 231.1 137.93 230.92C137.92 230.03 137.83 229.16 137.66 228.3C137.46 227.31 136.49 226.67 135.5 226.87C134.5 227.07 133.86 228.04 134.07 229.04C134.19 229.66 134.26 230.3 134.26 230.95C134.26 231.07 134.28 231.2 134.3 231.32C134.27 231.44 134.25 231.56 134.24 231.69C134.2 232.33 134.09 232.97 133.93 233.58C133.66 234.56 134.24 235.57 135.22 235.84ZM113.14 234.74C114.14 234.57 114.81 233.63 114.65 232.62C114.54 232 114.5 231.35 114.52 230.71C114.54 230.06 114.62 229.43 114.76 228.81C114.99 227.82 114.37 226.83 113.39 226.6C112.4 226.38 111.41 227 111.19 227.99C111 228.84 110.88 229.71 110.86 230.6C110.83 231.48 110.89 232.36 111.03 233.22C111.19 234.22 112.14 234.9 113.14 234.74ZM135.14 226.02C135.99 225.46 136.21 224.31 135.65 223.47C135.17 222.74 134.61 222.06 133.99 221.43C133.37 220.81 132.69 220.25 131.97 219.76C131.13 219.19 129.99 219.41 129.42 220.25C128.86 221.09 129.08 222.24 129.92 222.81C130.44 223.16 130.94 223.57 131.39 224.03C131.84 224.49 132.25 224.98 132.6 225.51C133.16 226.36 134.3 226.58 135.14 226.02ZM113.76 225.77C114.59 226.35 115.73 226.15 116.31 225.32C116.68 224.8 117.09 224.31 117.56 223.86C118.02 223.42 118.53 223.02 119.06 222.68C119.91 222.13 120.16 220.99 119.62 220.13C119.07 219.28 117.93 219.03 117.08 219.58C116.35 220.05 115.66 220.59 115.02 221.21C114.38 221.82 113.81 222.49 113.31 223.2C112.73 224.03 112.93 225.18 113.76 225.77ZM128.58 219.89C128.79 218.9 128.15 217.93 127.16 217.72C126.31 217.54 125.43 217.44 124.55 217.43C123.67 217.42 122.79 217.5 121.94 217.66C120.94 217.84 120.28 218.8 120.47 219.8C120.65 220.8 121.61 221.46 122.6 221.27C123.23 221.16 123.86 221.1 124.51 221.11C125.15 221.12 125.79 221.19 126.41 221.32C127.4 221.53 128.37 220.89 128.58 219.89Z" fill="#FFFFFF" fill-opacity="1.000000" fill-rule="evenodd"/>
        <path id="circle8342" d="M124.39 235.39C126.8 235.39 128.75 233.43 128.75 231.01C128.75 228.6 126.8 226.64 124.39 226.64C121.98 226.64 120.03 228.6 120.03 231.01C120.03 233.43 121.98 235.39 124.39 235.39Z" fill="#FFFFFF" fill-opacity="1.000000" fill-rule="nonzero"/>
        <path id="circle8344" d="M124.39 233.01C125.49 233.01 126.38 232.12 126.38 231.01C126.38 229.91 125.49 229.02 124.39 229.02C123.29 229.02 122.4 229.91 122.4 231.01C122.4 232.12 123.29 233.01 124.39 233.01Z" fill="#E9411B" fill-opacity="1.000000" fill-rule="nonzero"/>
    </g>
</svg>
