<svg width="209.000000" height="313.000000" viewBox="0 0 209 313" fill="none" xmlns="http://www.w3.org/2000/svg" xmlns:xlink="http://www.w3.org/1999/xlink">
    <desc>
        Created with Pixso.
    </desc>
    <defs>
        <filter id="filter_4_1099_dd" x="0.000000" y="0.000000" width="209.000000" height="313.000000" filterUnits="userSpaceOnUse" color-interpolation-filters="sRGB">
            <feFlood flood-opacity="0" result="BackgroundImageFix"/>
            <feColorMatrix in="SourceAlpha" type="matrix" values="0 0 0 0 0 0 0 0 0 0 0 0 0 0 0 0 0 0 127 0" result="hardAlpha"/>
            <feOffset dx="0" dy="4"/>
            <feGaussianBlur stdDeviation="1.33333"/>
            <feComposite in2="hardAlpha" operator="out" k2="-1" k3="1"/>
            <feColorMatrix type="matrix" values="0 0 0 0 0 0 0 0 0 0 0 0 0 0 0 0 0 0 0.25 0"/>
            <feBlend mode="normal" in2="BackgroundImageFix" result="effect_dropShadow_1"/>
            <feBlend mode="normal" in="SourceGraphic" in2="effect_dropShadow_1" result="shape"/>
        </filter>
        <filter id="filter_4_1102_dd" x="4.000000" y="8.000000" width="195.000000" height="297.000000" filterUnits="userSpaceOnUse" color-interpolation-filters="sRGB">
            <feFlood flood-opacity="0" result="BackgroundImageFix"/>
            <feColorMatrix in="SourceAlpha" type="matrix" values="0 0 0 0 0 0 0 0 0 0 0 0 0 0 0 0 0 0 127 0" result="hardAlpha"/>
            <feOffset dx="0" dy="4"/>
            <feGaussianBlur stdDeviation="1.33333"/>
            <feComposite in2="hardAlpha" operator="out" k2="-1" k3="1"/>
            <feColorMatrix type="matrix" values="0 0 0 0 0 0 0 0 0 0 0 0 0 0 0 0 0 0 0.25 0"/>
            <feBlend mode="normal" in2="BackgroundImageFix" result="effect_dropShadow_1"/>
            <feBlend mode="normal" in="SourceGraphic" in2="effect_dropShadow_1" result="shape"/>
        </filter>
        <filter id="filter_4_1345_dd" x="24.803467" y="60.913208" width="152.613403" height="200.174194" filterUnits="userSpaceOnUse" color-interpolation-filters="sRGB">
            <feFlood flood-opacity="0" result="BackgroundImageFix"/>
            <feColorMatrix in="SourceAlpha" type="matrix" values="0 0 0 0 0 0 0 0 0 0 0 0 0 0 0 0 0 0 127 0" result="hardAlpha"/>
            <feOffset dx="0" dy="4"/>
            <feGaussianBlur stdDeviation="1.33333"/>
            <feComposite in2="hardAlpha" operator="out" k2="-1" k3="1"/>
            <feColorMatrix type="matrix" values="0 0 0 0 0 0 0 0 0 0 0 0 0 0 0 0 0 0 0.25 0"/>
            <feBlend mode="normal" in2="BackgroundImageFix" result="effect_dropShadow_1"/>
            <feBlend mode="normal" in="SourceGraphic" in2="effect_dropShadow_1" result="shape"/>
        </filter>
    </defs>
    <g filter="url(#filter_4_1099_dd)">
        <rect id="Rectangle 1" x="8.000000" rx="20.000000" width="197.000000" height="297.000000" fill="#985B26" fill-opacity="1.000000"/>
        <rect id="Rectangle 1" x="8.500000" y="0.500000" rx="20.000000" width="196.000000" height="296.000000" stroke="#000000" stroke-opacity="1.000000" stroke-width="1.000000"/>
        <g filter="url(#filter_4_1102_dd)">
            <rect id="Rectangle 2" x="8.000000" y="8.000000" rx="20.000000" width="187.000000" height="289.000000" fill="#FFF0DB" fill-opacity="1.000000"/>
            <rect id="Rectangle 2" x="8.500000" y="8.500000" rx="20.000000" width="186.000000" height="288.000000" stroke="#000000" stroke-opacity="1.000000" stroke-width="1.000000"/>
        </g>
        <g filter="url(#filter_4_1345_dd)">
            <path id="circle7275" d="M143.54 120.19C159.97 120.19 173.29 106.92 173.29 90.55C173.29 74.18 159.97 60.91 143.54 60.91C127.11 60.91 113.8 74.18 113.8 90.55C113.8 106.92 127.11 120.19 143.54 120.19Z" fill="#603B1A" fill-opacity="1.000000" fill-rule="nonzero"/>
            <path id="circle7261" d="M58.54 120.19C74.97 120.19 88.29 106.92 88.29 90.55C88.29 74.18 74.97 60.91 58.54 60.91C42.12 60.91 28.8 74.18 28.8 90.55C28.8 106.92 42.12 120.19 58.54 120.19Z" fill="#603B1A" fill-opacity="1.000000" fill-rule="nonzero"/>
            <path id="circle7247" d="M101.04 120.19C117.47 120.19 130.79 106.92 130.79 90.55C130.79 74.18 117.47 60.91 101.04 60.91C84.61 60.91 71.3 74.18 71.3 90.55C71.3 106.92 84.61 120.19 101.04 120.19Z" fill="#603B1A" fill-opacity="1.000000" fill-rule="nonzero"/>
            <path id="circle7249" d="M101.04 112.91C113.43 112.91 123.47 102.9 123.47 90.55C123.47 78.2 113.43 68.19 101.04 68.19C88.65 68.19 78.61 78.2 78.61 90.55C78.61 102.9 88.65 112.91 101.04 112.91Z" fill="#FFFFFF" fill-opacity="1.000000" fill-rule="nonzero"/>
            <path id="circle7251" d="M101.04 109.8C111.71 109.8 120.36 101.18 120.36 90.55C120.36 79.92 111.71 71.3 101.04 71.3C90.37 71.3 81.72 79.92 81.72 90.55C81.72 101.18 90.37 109.8 101.04 109.8Z" fill="#454D9A" fill-opacity="1.000000" fill-rule="nonzero"/>
            <path id="path7253 (Stroke)" d="M100.44 102.62C101.23 102.66 102.02 102.62 102.79 102.51C103.69 102.38 104.31 101.55 104.18 100.66C104.05 99.76 103.21 99.14 102.32 99.27C101.75 99.35 101.18 99.38 100.61 99.35C100.03 99.32 99.46 99.24 98.91 99.1C98.03 98.89 97.14 99.42 96.92 100.3C96.7 101.18 97.24 102.06 98.12 102.28C98.87 102.47 99.65 102.58 100.44 102.62ZM104.95 100.39C105.41 101.16 106.42 101.42 107.2 100.96C107.87 100.57 108.51 100.11 109.1 99.59C109.69 99.06 110.22 98.49 110.7 97.87C111.25 97.15 111.11 96.12 110.38 95.57C109.66 95.03 108.63 95.17 108.08 95.89C107.74 96.34 107.35 96.76 106.92 97.14C106.49 97.52 106.02 97.86 105.53 98.14C104.75 98.6 104.49 99.61 104.95 100.39ZM96.18 99.95C96.71 99.22 96.55 98.2 95.82 97.66C95.36 97.33 94.93 96.95 94.54 96.53C94.15 96.11 93.81 95.65 93.51 95.17C93.03 94.4 92.02 94.16 91.25 94.63C90.48 95.1 90.24 96.11 90.71 96.88C91.12 97.54 91.59 98.17 92.13 98.75C92.67 99.33 93.25 99.85 93.88 100.31C94.61 100.84 95.64 100.68 96.18 99.95ZM110.75 94.84C111.62 95.08 112.52 94.56 112.76 93.68C112.96 92.93 113.09 92.16 113.14 91.38C113.15 91.22 113.14 91.07 113.11 90.92C113.15 90.78 113.17 90.62 113.17 90.47C113.17 89.68 113.08 88.9 112.93 88.14C112.75 87.25 111.88 86.68 110.99 86.86C110.1 87.04 109.53 87.91 109.71 88.79C109.82 89.35 109.88 89.91 109.89 90.49C109.89 90.6 109.9 90.71 109.92 90.82C109.89 90.93 109.87 91.04 109.87 91.15C109.83 91.73 109.73 92.29 109.58 92.84C109.35 93.71 109.87 94.61 110.75 94.84ZM90.96 93.86C91.86 93.72 92.46 92.88 92.32 91.98C92.22 91.42 92.19 90.85 92.2 90.28C92.22 89.71 92.29 89.14 92.42 88.59C92.62 87.71 92.07 86.83 91.19 86.63C90.3 86.42 89.42 86.98 89.22 87.86C89.04 88.61 88.94 89.39 88.92 90.18C88.89 90.97 88.95 91.75 89.07 92.52C89.22 93.41 90.07 94.01 90.96 93.86ZM110.68 86.11C111.43 85.6 111.63 84.59 111.13 83.84C110.7 83.19 110.2 82.58 109.64 82.02C109.08 81.47 108.48 80.97 107.83 80.53C107.08 80.03 106.06 80.22 105.55 80.97C105.04 81.72 105.24 82.74 105.99 83.25C106.46 83.56 106.91 83.93 107.31 84.33C107.72 84.74 108.08 85.18 108.4 85.65C108.9 86.41 109.92 86.61 110.68 86.11ZM91.52 85.88C92.26 86.4 93.29 86.22 93.81 85.48C94.13 85.02 94.51 84.58 94.92 84.19C95.34 83.79 95.79 83.44 96.27 83.13C97.03 82.64 97.26 81.63 96.77 80.87C96.28 80.11 95.26 79.89 94.5 80.37C93.84 80.79 93.22 81.28 92.65 81.82C92.08 82.37 91.57 82.96 91.12 83.6C90.6 84.34 90.78 85.36 91.52 85.88ZM104.8 80.66C104.98 79.77 104.41 78.9 103.52 78.72C102.76 78.56 101.98 78.47 101.19 78.46C100.4 78.45 99.61 78.52 98.85 78.66C97.95 78.83 97.36 79.68 97.53 80.57C97.69 81.46 98.55 82.05 99.44 81.88C100 81.78 100.57 81.73 101.15 81.74C101.72 81.74 102.3 81.81 102.85 81.92C103.74 82.11 104.61 81.54 104.8 80.66Z" fill="#FFFFFF" fill-opacity="1.000000" fill-rule="evenodd"/>
            <path id="circle7255" d="M101.04 94.45C103.2 94.45 104.95 92.7 104.95 90.55C104.95 88.4 103.2 86.65 101.04 86.65C98.88 86.65 97.13 88.4 97.13 90.55C97.13 92.7 98.88 94.45 101.04 94.45Z" fill="#FFFFFF" fill-opacity="1.000000" fill-rule="nonzero"/>
            <path id="circle7257" d="M101.04 92.33C102.03 92.33 102.83 91.53 102.83 90.55C102.83 89.57 102.03 88.77 101.04 88.77C100.06 88.77 99.26 89.57 99.26 90.55C99.26 91.53 100.06 92.33 101.04 92.33Z" fill="#454D9A" fill-opacity="1.000000" fill-rule="nonzero"/>
            <path id="circle7263" d="M58.54 112.91C70.93 112.91 80.98 102.9 80.98 90.55C80.98 78.2 70.93 68.19 58.54 68.19C46.15 68.19 36.11 78.2 36.11 90.55C36.11 102.9 46.15 112.91 58.54 112.91Z" fill="#FFFFFF" fill-opacity="1.000000" fill-rule="nonzero"/>
            <path id="circle7265" d="M58.54 109.8C69.21 109.8 77.86 101.18 77.86 90.55C77.86 79.92 69.21 71.3 58.54 71.3C47.87 71.3 39.23 79.92 39.23 90.55C39.23 101.18 47.87 109.8 58.54 109.8Z" fill="#454D9A" fill-opacity="1.000000" fill-rule="nonzero"/>
            <path id="path7267 (Stroke)" d="M57.94 102.62C58.73 102.66 59.52 102.62 60.29 102.51C61.19 102.38 61.81 101.55 61.68 100.66C61.55 99.76 60.71 99.14 59.82 99.27C59.25 99.35 58.68 99.38 58.11 99.35C57.53 99.32 56.96 99.24 56.41 99.1C55.53 98.89 54.64 99.42 54.42 100.3C54.2 101.18 54.74 102.06 55.62 102.28C56.38 102.47 57.15 102.58 57.94 102.62ZM62.45 100.39C62.91 101.16 63.92 101.42 64.7 100.96C65.37 100.57 66.01 100.11 66.6 99.59C67.19 99.06 67.72 98.49 68.2 97.87C68.75 97.15 68.61 96.12 67.88 95.57C67.16 95.03 66.13 95.17 65.58 95.89C65.24 96.34 64.85 96.76 64.42 97.14C63.99 97.52 63.52 97.86 63.03 98.14C62.25 98.6 61.99 99.61 62.45 100.39ZM53.68 99.95C54.21 99.22 54.05 98.2 53.32 97.66C52.86 97.33 52.43 96.95 52.04 96.53C51.65 96.11 51.31 95.65 51.01 95.17C50.53 94.4 49.52 94.16 48.75 94.63C47.98 95.1 47.74 96.11 48.21 96.88C48.62 97.54 49.09 98.17 49.63 98.75C50.17 99.33 50.75 99.85 51.38 100.31C52.11 100.84 53.14 100.68 53.68 99.95ZM68.25 94.84C69.12 95.08 70.02 94.56 70.26 93.68C70.46 92.93 70.59 92.16 70.64 91.38C70.65 91.22 70.64 91.07 70.61 90.92C70.65 90.78 70.67 90.62 70.67 90.47C70.67 89.68 70.58 88.9 70.43 88.14C70.25 87.25 69.38 86.68 68.49 86.86C67.6 87.04 67.03 87.91 67.21 88.79C67.32 89.35 67.38 89.91 67.39 90.49C67.39 90.6 67.4 90.71 67.42 90.82C67.39 90.93 67.37 91.04 67.37 91.15C67.33 91.73 67.23 92.29 67.08 92.84C66.85 93.71 67.37 94.61 68.25 94.84ZM48.46 93.86C49.36 93.72 49.96 92.88 49.82 91.98C49.72 91.42 49.69 90.85 49.7 90.28C49.72 89.71 49.79 89.14 49.92 88.59C50.12 87.71 49.57 86.83 48.69 86.63C47.8 86.42 46.92 86.98 46.72 87.86C46.55 88.61 46.44 89.39 46.42 90.18C46.4 90.97 46.45 91.75 46.58 92.52C46.72 93.41 47.57 94.01 48.46 93.86ZM68.18 86.11C68.93 85.6 69.13 84.59 68.63 83.84C68.2 83.19 67.7 82.58 67.14 82.02C66.58 81.47 65.98 80.97 65.33 80.53C64.58 80.03 63.56 80.22 63.05 80.97C62.54 81.72 62.74 82.74 63.49 83.25C63.96 83.56 64.41 83.93 64.81 84.33C65.22 84.74 65.58 85.18 65.9 85.65C66.4 86.41 67.42 86.61 68.18 86.11ZM49.02 85.88C49.76 86.4 50.79 86.22 51.31 85.48C51.63 85.02 52.01 84.58 52.42 84.19C52.84 83.79 53.29 83.44 53.77 83.13C54.53 82.64 54.76 81.63 54.27 80.87C53.78 80.11 52.76 79.89 52 80.37C51.34 80.79 50.72 81.28 50.15 81.82C49.58 82.37 49.07 82.96 48.62 83.6C48.1 84.34 48.28 85.36 49.02 85.88ZM62.3 80.66C62.48 79.77 61.91 78.9 61.02 78.72C60.26 78.56 59.48 78.47 58.69 78.46C57.9 78.45 57.11 78.52 56.35 78.66C55.45 78.83 54.86 79.68 55.03 80.57C55.19 81.46 56.05 82.05 56.94 81.88C57.5 81.78 58.07 81.73 58.65 81.74C59.23 81.74 59.8 81.81 60.35 81.92C61.24 82.11 62.11 81.54 62.3 80.66Z" fill="#FFFFFF" fill-opacity="1.000000" fill-rule="evenodd"/>
            <path id="circle7269" d="M58.54 94.45C60.7 94.45 62.45 92.7 62.45 90.55C62.45 88.4 60.7 86.65 58.54 86.65C56.38 86.65 54.63 88.4 54.63 90.55C54.63 92.7 56.38 94.45 58.54 94.45Z" fill="#FFFFFF" fill-opacity="1.000000" fill-rule="nonzero"/>
            <path id="circle7271" d="M58.54 92.33C59.53 92.33 60.33 91.53 60.33 90.55C60.33 89.57 59.53 88.77 58.54 88.77C57.56 88.77 56.76 89.57 56.76 90.55C56.76 91.53 57.56 92.33 58.54 92.33Z" fill="#454D9A" fill-opacity="1.000000" fill-rule="nonzero"/>
            <path id="circle7277" d="M143.54 112.91C155.93 112.91 165.97 102.9 165.97 90.55C165.97 78.2 155.93 68.19 143.54 68.19C131.15 68.19 121.11 78.2 121.11 90.55C121.11 102.9 131.15 112.91 143.54 112.91Z" fill="#FFFFFF" fill-opacity="1.000000" fill-rule="nonzero"/>
            <path id="circle7279" d="M143.54 109.8C154.21 109.8 162.86 101.18 162.86 90.55C162.86 79.92 154.21 71.3 143.54 71.3C132.87 71.3 124.22 79.92 124.22 90.55C124.22 101.18 132.87 109.8 143.54 109.8Z" fill="#454D9A" fill-opacity="1.000000" fill-rule="nonzero"/>
            <path id="path7281 (Stroke)" d="M142.94 102.62C143.73 102.66 144.52 102.62 145.29 102.51C146.19 102.38 146.81 101.55 146.68 100.66C146.55 99.76 145.71 99.14 144.82 99.27C144.25 99.35 143.68 99.38 143.1 99.35C142.53 99.32 141.96 99.24 141.41 99.1C140.53 98.89 139.64 99.42 139.42 100.3C139.2 101.18 139.74 102.06 140.62 102.28C141.37 102.47 142.15 102.58 142.94 102.62ZM147.45 100.39C147.91 101.16 148.92 101.42 149.7 100.96C150.37 100.57 151.01 100.11 151.6 99.59C152.19 99.06 152.72 98.49 153.2 97.87C153.75 97.15 153.61 96.12 152.88 95.57C152.16 95.03 151.13 95.17 150.58 95.89C150.24 96.34 149.85 96.76 149.42 97.14C148.99 97.52 148.52 97.86 148.03 98.14C147.25 98.6 146.99 99.61 147.45 100.39ZM138.68 99.95C139.21 99.22 139.05 98.2 138.32 97.66C137.86 97.33 137.43 96.95 137.04 96.53C136.65 96.11 136.31 95.65 136.01 95.17C135.53 94.4 134.52 94.16 133.75 94.63C132.98 95.1 132.74 96.11 133.21 96.88C133.62 97.54 134.09 98.17 134.63 98.75C135.17 99.33 135.75 99.85 136.38 100.31C137.11 100.84 138.14 100.68 138.68 99.95ZM153.24 94.84C154.12 95.08 155.02 94.56 155.26 93.68C155.46 92.93 155.59 92.16 155.64 91.38C155.65 91.22 155.64 91.07 155.61 90.92C155.65 90.78 155.67 90.62 155.67 90.47C155.67 89.68 155.58 88.9 155.43 88.14C155.25 87.25 154.38 86.68 153.49 86.86C152.6 87.04 152.03 87.91 152.21 88.79C152.32 89.35 152.38 89.91 152.39 90.49C152.39 90.6 152.4 90.71 152.42 90.82C152.39 90.93 152.37 91.04 152.37 91.15C152.33 91.73 152.23 92.29 152.08 92.84C151.85 93.71 152.37 94.61 153.24 94.84ZM133.46 93.86C134.36 93.72 134.96 92.88 134.82 91.98C134.72 91.42 134.69 90.85 134.7 90.28C134.72 89.71 134.79 89.14 134.92 88.59C135.12 87.71 134.57 86.83 133.69 86.63C132.8 86.42 131.92 86.98 131.72 87.86C131.54 88.61 131.44 89.39 131.42 90.18C131.39 90.97 131.45 91.75 131.57 92.52C131.72 93.41 132.57 94.01 133.46 93.86ZM153.17 86.11C153.93 85.6 154.13 84.59 153.63 83.84C153.2 83.19 152.7 82.58 152.14 82.02C151.58 81.47 150.98 80.97 150.33 80.53C149.58 80.03 148.56 80.22 148.05 80.97C147.54 81.72 147.74 82.74 148.49 83.25C148.96 83.56 149.41 83.93 149.81 84.33C150.22 84.74 150.58 85.18 150.9 85.65C151.4 86.41 152.42 86.61 153.17 86.11ZM134.02 85.88C134.76 86.4 135.78 86.22 136.31 85.48C136.63 85.02 137.01 84.58 137.42 84.19C137.84 83.79 138.29 83.44 138.77 83.13C139.53 82.64 139.75 81.63 139.27 80.87C138.78 80.11 137.76 79.89 137 80.37C136.34 80.79 135.72 81.28 135.15 81.82C134.58 82.37 134.07 82.96 133.62 83.6C133.1 84.34 133.28 85.36 134.02 85.88ZM147.29 80.66C147.48 79.77 146.91 78.9 146.02 78.72C145.26 78.56 144.48 78.47 143.69 78.46C142.9 78.45 142.11 78.52 141.35 78.66C140.45 78.83 139.86 79.68 140.03 80.57C140.19 81.46 141.05 82.05 141.94 81.88C142.5 81.78 143.07 81.73 143.65 81.74C144.22 81.74 144.79 81.81 145.35 81.92C146.24 82.11 147.11 81.54 147.29 80.66Z" fill="#FFFFFF" fill-opacity="1.000000" fill-rule="evenodd"/>
            <path id="circle7283" d="M143.54 94.45C145.7 94.45 147.45 92.7 147.45 90.55C147.45 88.4 145.7 86.65 143.54 86.65C141.38 86.65 139.63 88.4 139.63 90.55C139.63 92.7 141.38 94.45 143.54 94.45Z" fill="#FFFFFF" fill-opacity="1.000000" fill-rule="nonzero"/>
            <path id="circle7285" d="M143.54 92.33C144.53 92.33 145.33 91.53 145.33 90.55C145.33 89.57 144.53 88.77 143.54 88.77C142.56 88.77 141.76 89.57 141.76 90.55C141.76 91.53 142.56 92.33 143.54 92.33Z" fill="#454D9A" fill-opacity="1.000000" fill-rule="nonzero"/>
            <path id="circle7327" d="M143.54 253.08C159.97 253.08 173.29 239.81 173.29 223.44C173.29 207.07 159.97 193.8 143.54 193.8C127.11 193.8 113.8 207.07 113.8 223.44C113.8 239.81 127.11 253.08 143.54 253.08Z" fill="#603B1A" fill-opacity="1.000000" fill-rule="nonzero"/>
            <path id="circle7329" d="M58.54 253.08C74.97 253.08 88.29 239.81 88.29 223.44C88.29 207.07 74.97 193.8 58.54 193.8C42.12 193.8 28.8 207.07 28.8 223.44C28.8 239.81 42.12 253.08 58.54 253.08Z" fill="#603B1A" fill-opacity="1.000000" fill-rule="nonzero"/>
            <path id="circle7331" d="M101.04 253.08C117.47 253.08 130.79 239.81 130.79 223.44C130.79 207.07 117.47 193.8 101.04 193.8C84.61 193.8 71.3 207.07 71.3 223.44C71.3 239.81 84.61 253.08 101.04 253.08Z" fill="#603B1A" fill-opacity="1.000000" fill-rule="nonzero"/>
            <path id="circle7333" d="M101.04 245.8C113.43 245.8 123.47 235.79 123.47 223.44C123.47 211.09 113.43 201.08 101.04 201.08C88.65 201.08 78.61 211.09 78.61 223.44C78.61 235.79 88.65 245.8 101.04 245.8Z" fill="#FFFFFF" fill-opacity="1.000000" fill-rule="nonzero"/>
            <path id="circle7335" d="M101.04 242.69C111.71 242.69 120.36 234.07 120.36 223.44C120.36 212.81 111.71 204.19 101.04 204.19C90.37 204.19 81.72 212.81 81.72 223.44C81.72 234.07 90.37 242.69 101.04 242.69Z" fill="#454D9A" fill-opacity="1.000000" fill-rule="nonzero"/>
            <path id="path7337 (Stroke)" d="M100.44 235.51C101.23 235.55 102.02 235.51 102.79 235.4C103.69 235.27 104.31 234.44 104.18 233.55C104.05 232.65 103.21 232.03 102.32 232.16C101.75 232.24 101.18 232.27 100.61 232.24C100.03 232.22 99.46 232.13 98.91 231.99C98.03 231.78 97.14 232.31 96.92 233.19C96.7 234.07 97.24 234.95 98.12 235.17C98.87 235.36 99.65 235.47 100.44 235.51ZM104.95 233.28C105.41 234.05 106.42 234.31 107.2 233.85C107.87 233.46 108.51 233 109.1 232.48C109.69 231.95 110.22 231.38 110.7 230.76C111.25 230.04 111.11 229.01 110.38 228.46C109.66 227.92 108.63 228.06 108.08 228.78C107.74 229.23 107.35 229.65 106.92 230.03C106.49 230.41 106.02 230.75 105.53 231.03C104.75 231.49 104.49 232.5 104.95 233.28ZM96.18 232.84C96.71 232.11 96.55 231.09 95.82 230.55C95.36 230.22 94.93 229.84 94.54 229.42C94.15 229 93.81 228.54 93.51 228.06C93.03 227.29 92.02 227.05 91.25 227.52C90.48 227.99 90.24 229 90.71 229.77C91.12 230.43 91.59 231.06 92.13 231.64C92.67 232.22 93.25 232.74 93.88 233.2C94.61 233.73 95.64 233.57 96.18 232.84ZM110.75 227.73C111.62 227.97 112.52 227.45 112.76 226.58C112.96 225.82 113.09 225.05 113.14 224.27C113.15 224.11 113.14 223.96 113.11 223.81C113.15 223.67 113.17 223.51 113.17 223.36C113.17 222.57 113.08 221.79 112.93 221.03C112.75 220.14 111.88 219.57 110.99 219.75C110.1 219.93 109.53 220.8 109.71 221.68C109.82 222.24 109.88 222.81 109.89 223.38C109.89 223.49 109.9 223.61 109.92 223.71C109.89 223.82 109.87 223.93 109.87 224.04C109.83 224.62 109.73 225.18 109.58 225.73C109.35 226.6 109.87 227.5 110.75 227.73ZM90.96 226.75C91.86 226.61 92.46 225.77 92.32 224.87C92.22 224.31 92.19 223.74 92.2 223.17C92.22 222.6 92.29 222.03 92.42 221.48C92.62 220.6 92.07 219.72 91.19 219.52C90.3 219.31 89.42 219.87 89.22 220.75C89.04 221.5 88.94 222.28 88.92 223.07C88.89 223.86 88.95 224.64 89.07 225.41C89.22 226.3 90.07 226.9 90.96 226.75ZM110.68 219C111.43 218.5 111.63 217.48 111.13 216.73C110.7 216.08 110.2 215.47 109.64 214.91C109.08 214.36 108.48 213.86 107.83 213.42C107.08 212.92 106.06 213.11 105.55 213.86C105.04 214.61 105.24 215.63 105.99 216.14C106.46 216.45 106.91 216.82 107.31 217.22C107.72 217.63 108.08 218.07 108.4 218.55C108.9 219.3 109.92 219.5 110.68 219ZM91.52 218.77C92.26 219.29 93.29 219.11 93.81 218.37C94.13 217.91 94.51 217.47 94.92 217.08C95.34 216.68 95.79 216.33 96.27 216.02C97.03 215.53 97.26 214.52 96.77 213.76C96.28 213 95.26 212.78 94.5 213.26C93.84 213.68 93.22 214.17 92.65 214.71C92.08 215.26 91.57 215.85 91.12 216.49C90.6 217.23 90.78 218.25 91.52 218.77ZM104.8 213.55C104.98 212.66 104.41 211.79 103.52 211.61C102.76 211.45 101.98 211.36 101.19 211.35C100.4 211.34 99.61 211.41 98.85 211.55C97.95 211.72 97.36 212.57 97.53 213.46C97.69 214.35 98.55 214.94 99.44 214.77C100 214.67 100.57 214.62 101.15 214.63C101.72 214.63 102.3 214.7 102.85 214.81C103.74 215 104.61 214.43 104.8 213.55Z" fill="#FFFFFF" fill-opacity="1.000000" fill-rule="evenodd"/>
            <path id="circle7339" d="M101.04 227.34C103.2 227.34 104.95 225.59 104.95 223.44C104.95 221.29 103.2 219.55 101.04 219.55C98.88 219.55 97.13 221.29 97.13 223.44C97.13 225.59 98.88 227.34 101.04 227.34Z" fill="#FFFFFF" fill-opacity="1.000000" fill-rule="nonzero"/>
            <path id="circle7341" d="M101.04 225.22C102.03 225.22 102.83 224.42 102.83 223.44C102.83 222.46 102.03 221.66 101.04 221.66C100.06 221.66 99.26 222.46 99.26 223.44C99.26 224.42 100.06 225.22 101.04 225.22Z" fill="#454D9A" fill-opacity="1.000000" fill-rule="nonzero"/>
            <path id="circle7343" d="M58.54 245.8C70.93 245.8 80.98 235.79 80.98 223.44C80.98 211.09 70.93 201.08 58.54 201.08C46.15 201.08 36.11 211.09 36.11 223.44C36.11 235.79 46.15 245.8 58.54 245.8Z" fill="#FFFFFF" fill-opacity="1.000000" fill-rule="nonzero"/>
            <path id="circle7345" d="M58.54 242.69C69.21 242.69 77.86 234.07 77.86 223.44C77.86 212.81 69.21 204.19 58.54 204.19C47.87 204.19 39.23 212.81 39.23 223.44C39.23 234.07 47.87 242.69 58.54 242.69Z" fill="#454D9A" fill-opacity="1.000000" fill-rule="nonzero"/>
            <path id="path7347 (Stroke)" d="M57.94 235.51C58.73 235.55 59.52 235.51 60.29 235.4C61.19 235.27 61.81 234.44 61.68 233.55C61.55 232.65 60.71 232.03 59.82 232.16C59.25 232.24 58.68 232.27 58.11 232.24C57.53 232.22 56.96 232.13 56.41 231.99C55.53 231.78 54.64 232.31 54.42 233.19C54.2 234.07 54.74 234.95 55.62 235.17C56.38 235.36 57.15 235.47 57.94 235.51ZM62.45 233.28C62.91 234.05 63.92 234.31 64.7 233.85C65.37 233.46 66.01 233 66.6 232.48C67.19 231.95 67.72 231.38 68.2 230.76C68.75 230.04 68.61 229.01 67.88 228.46C67.16 227.92 66.13 228.06 65.58 228.78C65.24 229.23 64.85 229.65 64.42 230.03C63.99 230.41 63.52 230.75 63.03 231.03C62.25 231.49 61.99 232.5 62.45 233.28ZM53.68 232.84C54.21 232.11 54.05 231.09 53.32 230.55C52.86 230.22 52.43 229.84 52.04 229.42C51.65 229 51.31 228.54 51.01 228.06C50.53 227.29 49.52 227.05 48.75 227.52C47.98 227.99 47.74 229 48.21 229.77C48.62 230.43 49.09 231.06 49.63 231.64C50.17 232.22 50.75 232.74 51.38 233.2C52.11 233.73 53.14 233.57 53.68 232.84ZM68.25 227.73C69.12 227.97 70.02 227.45 70.26 226.58C70.46 225.82 70.59 225.05 70.64 224.27C70.65 224.11 70.64 223.96 70.61 223.81C70.65 223.67 70.67 223.51 70.67 223.36C70.67 222.57 70.58 221.79 70.43 221.03C70.25 220.14 69.38 219.57 68.49 219.75C67.6 219.93 67.03 220.8 67.21 221.68C67.32 222.24 67.38 222.81 67.39 223.38C67.39 223.49 67.4 223.61 67.42 223.71C67.39 223.82 67.37 223.93 67.37 224.04C67.33 224.62 67.23 225.18 67.08 225.73C66.85 226.6 67.37 227.5 68.25 227.73ZM48.46 226.75C49.36 226.61 49.96 225.77 49.82 224.87C49.72 224.31 49.69 223.74 49.7 223.17C49.72 222.6 49.79 222.03 49.92 221.48C50.12 220.6 49.57 219.72 48.69 219.52C47.8 219.31 46.92 219.87 46.72 220.75C46.55 221.5 46.44 222.28 46.42 223.07C46.4 223.86 46.45 224.64 46.58 225.41C46.72 226.3 47.57 226.9 48.46 226.75ZM68.18 219C68.93 218.5 69.13 217.48 68.63 216.73C68.2 216.08 67.7 215.47 67.14 214.91C66.58 214.36 65.98 213.86 65.33 213.42C64.58 212.92 63.56 213.11 63.05 213.86C62.54 214.61 62.74 215.63 63.49 216.14C63.96 216.45 64.41 216.82 64.81 217.22C65.22 217.63 65.58 218.07 65.9 218.55C66.4 219.3 67.42 219.5 68.18 219ZM49.02 218.77C49.76 219.29 50.79 219.11 51.31 218.37C51.63 217.91 52.01 217.47 52.42 217.08C52.84 216.68 53.29 216.33 53.77 216.02C54.53 215.53 54.76 214.52 54.27 213.76C53.78 213 52.76 212.78 52 213.26C51.34 213.68 50.72 214.17 50.15 214.71C49.58 215.26 49.07 215.85 48.62 216.49C48.1 217.23 48.28 218.25 49.02 218.77ZM62.3 213.55C62.48 212.66 61.91 211.79 61.02 211.61C60.26 211.45 59.48 211.36 58.69 211.35C57.9 211.34 57.11 211.41 56.35 211.55C55.45 211.72 54.86 212.57 55.03 213.46C55.19 214.35 56.05 214.94 56.94 214.77C57.5 214.67 58.07 214.62 58.65 214.63C59.23 214.63 59.8 214.7 60.35 214.81C61.24 215 62.11 214.43 62.3 213.55Z" fill="#FFFFFF" fill-opacity="1.000000" fill-rule="evenodd"/>
            <path id="circle7349" d="M58.54 227.34C60.7 227.34 62.45 225.59 62.45 223.44C62.45 221.29 60.7 219.55 58.54 219.55C56.38 219.55 54.63 221.29 54.63 223.44C54.63 225.59 56.38 227.34 58.54 227.34Z" fill="#FFFFFF" fill-opacity="1.000000" fill-rule="nonzero"/>
            <path id="circle7351" d="M58.54 225.22C59.53 225.22 60.33 224.42 60.33 223.44C60.33 222.46 59.53 221.66 58.54 221.66C57.56 221.66 56.76 222.46 56.76 223.44C56.76 224.42 57.56 225.22 58.54 225.22Z" fill="#454D9A" fill-opacity="1.000000" fill-rule="nonzero"/>
            <path id="circle7353" d="M143.54 245.8C155.93 245.8 165.97 235.79 165.97 223.44C165.97 211.09 155.93 201.08 143.54 201.08C131.15 201.08 121.11 211.09 121.11 223.44C121.11 235.79 131.15 245.8 143.54 245.8Z" fill="#FFFFFF" fill-opacity="1.000000" fill-rule="nonzero"/>
            <path id="circle7355" d="M143.54 242.69C154.21 242.69 162.86 234.07 162.86 223.44C162.86 212.81 154.21 204.19 143.54 204.19C132.87 204.19 124.22 212.81 124.22 223.44C124.22 234.07 132.87 242.69 143.54 242.69Z" fill="#454D9A" fill-opacity="1.000000" fill-rule="nonzero"/>
            <path id="path7357 (Stroke)" d="M142.94 235.51C143.73 235.55 144.52 235.51 145.29 235.4C146.19 235.27 146.81 234.44 146.68 233.55C146.55 232.65 145.71 232.03 144.82 232.16C144.25 232.24 143.68 232.27 143.1 232.24C142.53 232.22 141.96 232.13 141.41 231.99C140.53 231.78 139.64 232.31 139.42 233.19C139.2 234.07 139.74 234.95 140.62 235.17C141.37 235.36 142.15 235.47 142.94 235.51ZM147.45 233.28C147.91 234.05 148.92 234.31 149.7 233.85C150.37 233.46 151.01 233 151.6 232.48C152.19 231.95 152.72 231.38 153.2 230.76C153.75 230.04 153.61 229.01 152.88 228.46C152.16 227.92 151.13 228.06 150.58 228.78C150.24 229.23 149.85 229.65 149.42 230.03C148.99 230.41 148.52 230.75 148.03 231.03C147.25 231.49 146.99 232.5 147.45 233.28ZM138.68 232.84C139.21 232.11 139.05 231.09 138.32 230.55C137.86 230.22 137.43 229.84 137.04 229.42C136.65 229 136.31 228.54 136.01 228.06C135.53 227.29 134.52 227.05 133.75 227.52C132.98 227.99 132.74 229 133.21 229.77C133.62 230.43 134.09 231.06 134.63 231.64C135.17 232.22 135.75 232.74 136.38 233.2C137.11 233.73 138.14 233.57 138.68 232.84ZM153.24 227.73C154.12 227.97 155.02 227.45 155.26 226.58C155.46 225.82 155.59 225.05 155.64 224.27C155.65 224.11 155.64 223.96 155.61 223.81C155.65 223.67 155.67 223.51 155.67 223.36C155.67 222.57 155.58 221.79 155.43 221.03C155.25 220.14 154.38 219.57 153.49 219.75C152.6 219.93 152.03 220.8 152.21 221.68C152.32 222.24 152.38 222.81 152.39 223.38C152.39 223.49 152.4 223.61 152.42 223.71C152.39 223.82 152.37 223.93 152.37 224.04C152.33 224.62 152.23 225.18 152.08 225.73C151.85 226.6 152.37 227.5 153.24 227.73ZM133.46 226.75C134.36 226.61 134.96 225.77 134.82 224.87C134.72 224.31 134.69 223.74 134.7 223.17C134.72 222.6 134.79 222.03 134.92 221.48C135.12 220.6 134.57 219.72 133.69 219.52C132.8 219.31 131.92 219.87 131.72 220.75C131.54 221.5 131.44 222.28 131.42 223.07C131.39 223.86 131.45 224.64 131.57 225.41C131.72 226.3 132.57 226.9 133.46 226.75ZM153.17 219C153.93 218.5 154.13 217.48 153.63 216.73C153.2 216.08 152.7 215.47 152.14 214.91C151.58 214.36 150.98 213.86 150.33 213.42C149.58 212.92 148.56 213.11 148.05 213.86C147.54 214.61 147.74 215.63 148.49 216.14C148.96 216.45 149.41 216.82 149.81 217.22C150.22 217.63 150.58 218.07 150.9 218.55C151.4 219.3 152.42 219.5 153.17 219ZM134.02 218.77C134.76 219.29 135.78 219.11 136.31 218.37C136.63 217.91 137.01 217.47 137.42 217.08C137.84 216.68 138.29 216.33 138.77 216.02C139.53 215.53 139.75 214.52 139.27 213.76C138.78 213 137.76 212.78 137 213.26C136.34 213.68 135.72 214.17 135.15 214.71C134.58 215.26 134.07 215.85 133.62 216.49C133.1 217.23 133.28 218.25 134.02 218.77ZM147.29 213.55C147.48 212.66 146.91 211.79 146.02 211.61C145.26 211.45 144.48 211.36 143.69 211.35C142.9 211.34 142.11 211.41 141.35 211.55C140.45 211.72 139.86 212.57 140.03 213.46C140.19 214.35 141.05 214.94 141.94 214.77C142.5 214.67 143.07 214.62 143.65 214.63C144.22 214.63 144.79 214.7 145.35 214.81C146.24 215 147.11 214.43 147.29 213.55Z" fill="#FFFFFF" fill-opacity="1.000000" fill-rule="evenodd"/>
            <path id="circle7359" d="M143.54 227.34C145.7 227.34 147.45 225.59 147.45 223.44C147.45 221.29 145.7 219.55 143.54 219.55C141.38 219.55 139.63 221.29 139.63 223.44C139.63 225.59 141.38 227.34 143.54 227.34Z" fill="#FFFFFF" fill-opacity="1.000000" fill-rule="nonzero"/>
            <path id="circle7361" d="M143.54 225.22C144.53 225.22 145.33 224.42 145.33 223.44C145.33 222.46 144.53 221.66 143.54 221.66C142.56 221.66 141.76 222.46 141.76 223.44C141.76 224.42 142.56 225.22 143.54 225.22Z" fill="#454D9A" fill-opacity="1.000000" fill-rule="nonzero"/>
            <path id="circle7379" d="M58.67 186.84C75.1 186.84 88.41 173.57 88.41 157.2C88.41 140.82 75.1 127.55 58.67 127.55C42.24 127.55 28.93 140.82 28.93 157.2C28.93 173.57 42.24 186.84 58.67 186.84Z" fill="#603B1A" fill-opacity="1.000000" fill-rule="nonzero"/>
            <path id="circle7393" d="M143.67 186.84C160.1 186.84 173.41 173.57 173.41 157.2C173.41 140.82 160.1 127.55 143.67 127.55C127.24 127.55 113.92 140.82 113.92 157.2C113.92 173.57 127.24 186.84 143.67 186.84Z" fill="#603B1A" fill-opacity="1.000000" fill-rule="nonzero"/>
            <path id="circle7365" d="M101 186.84C117.42 186.84 130.74 173.57 130.74 157.2C130.74 140.82 117.42 127.55 101 127.55C84.57 127.55 71.25 140.82 71.25 157.2C71.25 173.57 84.57 186.84 101 186.84Z" fill="#603B1A" fill-opacity="1.000000" fill-rule="nonzero"/>
            <path id="circle7367" d="M101 179.55C113.39 179.55 123.43 169.54 123.43 157.2C123.43 144.85 113.39 134.84 101 134.84C88.61 134.84 78.56 144.85 78.56 157.2C78.56 169.54 88.61 179.55 101 179.55Z" fill="#FFFFFF" fill-opacity="1.000000" fill-rule="nonzero"/>
            <path id="circle7369" d="M101 176.45C111.67 176.45 120.31 167.83 120.31 157.2C120.31 146.56 111.67 137.94 101 137.94C90.33 137.94 81.68 146.56 81.68 157.2C81.68 167.83 90.33 176.45 101 176.45Z" fill="#E9411B" fill-opacity="1.000000" fill-rule="nonzero"/>
            <path id="path7371 (Stroke)" d="M100.4 169.27C101.19 169.31 101.97 169.27 102.74 169.16C103.64 169.03 104.26 168.2 104.13 167.3C104 166.41 103.17 165.79 102.27 165.92C101.71 166 101.14 166.03 100.56 166C99.98 165.97 99.42 165.89 98.86 165.75C97.98 165.53 97.09 166.07 96.87 166.94C96.66 167.82 97.19 168.71 98.07 168.93C98.83 169.11 99.61 169.23 100.4 169.27ZM104.91 167.03C105.37 167.81 106.37 168.07 107.16 167.61C107.83 167.22 108.46 166.75 109.05 166.23C109.65 165.71 110.18 165.13 110.65 164.51C111.2 163.79 111.06 162.77 110.34 162.22C109.62 161.67 108.59 161.81 108.04 162.53C107.69 162.98 107.3 163.4 106.87 163.78C106.44 164.17 105.98 164.5 105.49 164.79C104.71 165.25 104.45 166.25 104.91 167.03ZM96.13 166.6C96.67 165.87 96.51 164.84 95.78 164.31C95.32 163.97 94.89 163.59 94.5 163.17C94.11 162.75 93.76 162.29 93.46 161.81C92.99 161.04 91.98 160.8 91.2 161.27C90.43 161.75 90.19 162.76 90.66 163.53C91.07 164.19 91.55 164.81 92.08 165.39C92.62 165.97 93.21 166.49 93.84 166.95C94.57 167.49 95.6 167.33 96.13 166.6ZM110.7 161.49C111.58 161.72 112.48 161.2 112.71 160.33C112.91 159.58 113.04 158.81 113.1 158.02C113.11 157.86 113.1 157.71 113.07 157.56C113.11 157.42 113.13 157.27 113.13 157.11C113.12 156.32 113.04 155.54 112.88 154.78C112.7 153.9 111.83 153.33 110.95 153.5C110.06 153.69 109.48 154.55 109.66 155.44C109.78 155.99 109.84 156.56 109.84 157.13C109.84 157.25 109.85 157.36 109.88 157.47C109.85 157.57 109.83 157.68 109.82 157.8C109.78 158.37 109.69 158.93 109.54 159.48C109.3 160.35 109.82 161.25 110.7 161.49ZM90.92 160.51C91.81 160.36 92.42 159.52 92.27 158.63C92.18 158.07 92.14 157.5 92.16 156.92C92.18 156.35 92.25 155.78 92.38 155.23C92.58 154.35 92.02 153.47 91.14 153.27C90.26 153.07 89.38 153.62 89.17 154.5C89 155.26 88.9 156.04 88.87 156.82C88.85 157.61 88.9 158.39 89.03 159.16C89.18 160.05 90.02 160.66 90.92 160.51ZM110.63 152.75C111.38 152.25 111.59 151.23 111.08 150.48C110.65 149.84 110.15 149.23 109.6 148.67C109.04 148.11 108.43 147.61 107.79 147.18C107.03 146.67 106.01 146.87 105.5 147.62C105 148.37 105.19 149.39 105.95 149.89C106.42 150.21 106.86 150.57 107.27 150.98C107.67 151.39 108.04 151.83 108.35 152.3C108.86 153.05 109.88 153.25 110.63 152.75ZM91.47 152.52C92.22 153.04 93.24 152.87 93.76 152.13C94.09 151.66 94.46 151.23 94.88 150.83C95.29 150.43 95.75 150.08 96.22 149.78C96.99 149.29 97.21 148.28 96.72 147.51C96.23 146.75 95.21 146.53 94.45 147.02C93.79 147.44 93.18 147.92 92.61 148.47C92.03 149.01 91.52 149.61 91.07 150.24C90.55 150.98 90.73 152 91.47 152.52ZM104.75 147.3C104.94 146.42 104.37 145.55 103.48 145.36C102.71 145.2 101.93 145.12 101.14 145.11C100.35 145.1 99.57 145.17 98.8 145.31C97.91 145.47 97.32 146.32 97.48 147.21C97.65 148.1 98.5 148.69 99.4 148.53C99.95 148.42 100.53 148.38 101.1 148.38C101.68 148.39 102.25 148.45 102.81 148.57C103.69 148.75 104.56 148.19 104.75 147.3Z" fill="#FFFFFF" fill-opacity="1.000000" fill-rule="evenodd"/>
            <path id="circle7373" d="M101 161.09C103.16 161.09 104.91 159.35 104.91 157.2C104.91 155.04 103.16 153.3 101 153.3C98.84 153.3 97.09 155.04 97.09 157.2C97.09 159.35 98.84 161.09 101 161.09Z" fill="#FFFFFF" fill-opacity="1.000000" fill-rule="nonzero"/>
            <path id="circle7375" d="M101 158.97C101.98 158.97 102.78 158.18 102.78 157.2C102.78 156.21 101.98 155.42 101 155.42C100.01 155.42 99.21 156.21 99.21 157.2C99.21 158.18 100.01 158.97 101 158.97Z" fill="#E9411B" fill-opacity="1.000000" fill-rule="nonzero"/>
            <path id="circle7381" d="M58.67 179.55C71.06 179.55 81.1 169.54 81.1 157.2C81.1 144.85 71.06 134.84 58.67 134.84C46.28 134.84 36.24 144.85 36.24 157.2C36.24 169.54 46.28 179.55 58.67 179.55Z" fill="#FFFFFF" fill-opacity="1.000000" fill-rule="nonzero"/>
            <path id="circle7383" d="M58.67 176.45C69.34 176.45 77.99 167.83 77.99 157.2C77.99 146.56 69.34 137.94 58.67 137.94C48 137.94 39.35 146.56 39.35 157.2C39.35 167.83 48 176.45 58.67 176.45Z" fill="#E9411B" fill-opacity="1.000000" fill-rule="nonzero"/>
            <path id="path7385 (Stroke)" d="M58.07 169.27C58.86 169.31 59.64 169.27 60.42 169.16C61.31 169.03 61.94 168.2 61.81 167.3C61.67 166.41 60.84 165.79 59.94 165.92C59.38 166 58.81 166.03 58.23 166C57.66 165.97 57.09 165.89 56.54 165.75C55.66 165.53 54.77 166.07 54.55 166.94C54.33 167.82 54.86 168.71 55.75 168.93C56.5 169.11 57.28 169.23 58.07 169.27ZM62.58 167.03C63.04 167.81 64.05 168.07 64.83 167.61C65.5 167.22 66.14 166.75 66.73 166.23C67.32 165.71 67.85 165.13 68.32 164.51C68.87 163.79 68.73 162.77 68.01 162.22C67.29 161.67 66.26 161.81 65.71 162.53C65.36 162.98 64.98 163.4 64.54 163.78C64.11 164.17 63.65 164.5 63.16 164.79C62.38 165.25 62.12 166.25 62.58 167.03ZM53.8 166.6C54.34 165.87 54.18 164.84 53.45 164.31C52.99 163.97 52.56 163.59 52.17 163.17C51.78 162.75 51.43 162.29 51.14 161.81C50.66 161.04 49.65 160.8 48.88 161.27C48.1 161.75 47.86 162.76 48.34 163.53C48.75 164.19 49.22 164.81 49.76 165.39C50.29 165.97 50.88 166.49 51.51 166.95C52.24 167.49 53.27 167.33 53.8 166.6ZM68.37 161.49C69.25 161.72 70.15 161.2 70.38 160.33C70.59 159.58 70.72 158.81 70.77 158.02C70.78 157.86 70.77 157.71 70.74 157.56C70.78 157.42 70.8 157.27 70.8 157.11C70.79 156.32 70.71 155.54 70.56 154.78C70.37 153.9 69.51 153.33 68.62 153.5C67.73 153.69 67.15 154.55 67.34 155.44C67.45 155.99 67.51 156.56 67.51 157.13C67.51 157.25 67.53 157.36 67.55 157.47C67.52 157.57 67.5 157.68 67.49 157.8C67.45 158.37 67.36 158.93 67.21 159.48C66.98 160.35 67.5 161.25 68.37 161.49ZM48.59 160.51C49.48 160.36 50.09 159.52 49.94 158.63C49.85 158.07 49.81 157.5 49.83 156.92C49.85 156.35 49.92 155.78 50.05 155.23C50.25 154.35 49.7 153.47 48.81 153.27C47.93 153.07 47.05 153.62 46.85 154.5C46.67 155.26 46.57 156.04 46.55 156.82C46.52 157.61 46.58 158.39 46.7 159.16C46.85 160.05 47.69 160.66 48.59 160.51ZM68.3 152.75C69.06 152.25 69.26 151.23 68.76 150.48C68.32 149.84 67.83 149.23 67.27 148.67C66.71 148.11 66.1 147.61 65.46 147.18C64.71 146.67 63.68 146.87 63.18 147.62C62.67 148.37 62.87 149.39 63.62 149.89C64.09 150.21 64.53 150.57 64.94 150.98C65.35 151.39 65.71 151.83 66.02 152.3C66.53 153.05 67.55 153.25 68.3 152.75ZM49.15 152.52C49.89 153.04 50.91 152.87 51.43 152.13C51.76 151.66 52.13 151.23 52.55 150.83C52.97 150.43 53.42 150.08 53.9 149.78C54.66 149.29 54.88 148.28 54.39 147.51C53.9 146.75 52.89 146.53 52.12 147.02C51.47 147.44 50.85 147.92 50.28 148.47C49.71 149.01 49.2 149.61 48.75 150.24C48.23 150.98 48.4 152 49.15 152.52ZM62.42 147.3C62.61 146.42 62.04 145.55 61.15 145.36C60.39 145.2 59.6 145.12 58.81 145.11C58.02 145.1 57.24 145.17 56.47 145.31C55.58 145.47 54.99 146.32 55.16 147.21C55.32 148.1 56.18 148.69 57.07 148.53C57.63 148.42 58.2 148.38 58.78 148.38C59.35 148.39 59.92 148.45 60.48 148.57C61.37 148.75 62.24 148.19 62.42 147.3Z" fill="#FFFFFF" fill-opacity="1.000000" fill-rule="evenodd"/>
            <path id="circle7387" d="M58.67 161.09C60.83 161.09 62.58 159.35 62.58 157.2C62.58 155.04 60.83 153.3 58.67 153.3C56.51 153.3 54.76 155.04 54.76 157.2C54.76 159.35 56.51 161.09 58.67 161.09Z" fill="#FFFFFF" fill-opacity="1.000000" fill-rule="nonzero"/>
            <path id="circle7389" d="M58.67 158.97C59.65 158.97 60.45 158.18 60.45 157.2C60.45 156.21 59.65 155.42 58.67 155.42C57.68 155.42 56.88 156.21 56.88 157.2C56.88 158.18 57.68 158.97 58.67 158.97Z" fill="#E9411B" fill-opacity="1.000000" fill-rule="nonzero"/>
            <path id="circle7395" d="M143.67 179.55C156.06 179.55 166.1 169.54 166.1 157.2C166.1 144.85 156.06 134.84 143.67 134.84C131.28 134.84 121.24 144.85 121.24 157.2C121.24 169.54 131.28 179.55 143.67 179.55Z" fill="#FFFFFF" fill-opacity="1.000000" fill-rule="nonzero"/>
            <path id="circle7397" d="M143.67 176.45C154.34 176.45 162.99 167.83 162.99 157.2C162.99 146.56 154.34 137.94 143.67 137.94C133 137.94 124.35 146.56 124.35 157.2C124.35 167.83 133 176.45 143.67 176.45Z" fill="#E9411B" fill-opacity="1.000000" fill-rule="nonzero"/>
            <path id="path7399 (Stroke)" d="M143.07 169.27C143.86 169.31 144.64 169.27 145.42 169.16C146.31 169.03 146.94 168.2 146.8 167.3C146.67 166.41 145.84 165.79 144.94 165.92C144.38 166 143.81 166.03 143.23 166C142.66 165.97 142.09 165.89 141.54 165.75C140.66 165.53 139.77 166.07 139.55 166.94C139.33 167.82 139.86 168.71 140.74 168.93C141.5 169.11 142.28 169.23 143.07 169.27ZM147.58 167.03C148.04 167.81 149.05 168.07 149.83 167.61C150.5 167.22 151.14 166.75 151.73 166.23C152.32 165.71 152.85 165.13 153.32 164.51C153.87 163.79 153.73 162.77 153.01 162.22C152.29 161.67 151.26 161.81 150.71 162.53C150.36 162.98 149.97 163.4 149.54 163.78C149.11 164.17 148.65 164.5 148.16 164.79C147.38 165.25 147.12 166.25 147.58 167.03ZM138.8 166.6C139.34 165.87 139.18 164.84 138.45 164.31C137.99 163.97 137.56 163.59 137.17 163.17C136.78 162.75 136.43 162.29 136.14 161.81C135.66 161.04 134.65 160.8 133.88 161.27C133.1 161.75 132.86 162.76 133.34 163.53C133.75 164.19 134.22 164.81 134.75 165.39C135.29 165.97 135.88 166.49 136.51 166.95C137.24 167.49 138.27 167.33 138.8 166.6ZM153.37 161.49C154.25 161.72 155.15 161.2 155.38 160.33C155.59 159.58 155.72 158.81 155.77 158.02C155.78 157.86 155.77 157.71 155.74 157.56C155.78 157.42 155.8 157.27 155.8 157.11C155.79 156.32 155.71 155.54 155.55 154.78C155.37 153.9 154.51 153.33 153.62 153.5C152.73 153.69 152.15 154.55 152.34 155.44C152.45 155.99 152.51 156.56 152.51 157.13C152.51 157.25 152.53 157.36 152.55 157.47C152.52 157.57 152.5 157.68 152.49 157.8C152.45 158.37 152.36 158.93 152.21 159.48C151.98 160.35 152.5 161.25 153.37 161.49ZM133.59 160.51C134.48 160.36 135.09 159.52 134.94 158.63C134.85 158.07 134.81 157.5 134.83 156.92C134.85 156.35 134.92 155.78 135.05 155.23C135.25 154.35 134.7 153.47 133.81 153.27C132.93 153.07 132.05 153.62 131.84 154.5C131.67 155.26 131.57 156.04 131.55 156.82C131.52 157.61 131.57 158.39 131.7 159.16C131.85 160.05 132.69 160.66 133.59 160.51ZM153.3 152.75C154.06 152.25 154.26 151.23 153.75 150.48C153.32 149.84 152.82 149.23 152.27 148.67C151.71 148.11 151.1 147.61 150.46 147.18C149.7 146.67 148.68 146.87 148.18 147.62C147.67 148.37 147.87 149.39 148.62 149.89C149.09 150.21 149.53 150.57 149.94 150.98C150.35 151.39 150.71 151.83 151.02 152.3C151.53 153.05 152.55 153.25 153.3 152.75ZM134.14 152.52C134.89 153.04 135.91 152.87 136.43 152.13C136.76 151.66 137.13 151.23 137.55 150.83C137.97 150.43 138.42 150.08 138.9 149.78C139.66 149.29 139.88 148.28 139.39 147.51C138.9 146.75 137.89 146.53 137.12 147.02C136.47 147.44 135.85 147.92 135.28 148.47C134.71 149.01 134.19 149.61 133.75 150.24C133.22 150.98 133.4 152 134.14 152.52ZM147.42 147.3C147.61 146.42 147.04 145.55 146.15 145.36C145.39 145.2 144.6 145.12 143.81 145.11C143.02 145.1 142.24 145.17 141.47 145.31C140.58 145.47 139.99 146.32 140.15 147.21C140.32 148.1 141.17 148.69 142.07 148.53C142.63 148.42 143.2 148.38 143.77 148.38C144.35 148.39 144.92 148.45 145.48 148.57C146.37 148.75 147.24 148.19 147.42 147.3Z" fill="#FFFFFF" fill-opacity="1.000000" fill-rule="evenodd"/>
            <path id="circle7401" d="M143.67 161.09C145.83 161.09 147.58 159.35 147.58 157.2C147.58 155.04 145.83 153.3 143.67 153.3C141.51 153.3 139.76 155.04 139.76 157.2C139.76 159.35 141.51 161.09 143.67 161.09Z" fill="#FFFFFF" fill-opacity="1.000000" fill-rule="nonzero"/>
            <path id="circle7403" d="M143.67 158.97C144.65 158.97 145.45 158.18 145.45 157.2C145.45 156.21 144.65 155.42 143.67 155.42C142.68 155.42 141.88 156.21 141.88 157.2C141.88 158.18 142.68 158.97 143.67 158.97Z" fill="#E9411B" fill-opacity="1.000000" fill-rule="nonzero"/>
        </g>
    </g>
</svg>
