<svg width="201.000000" height="305.000000" viewBox="0 0 201 305" fill="none" xmlns="http://www.w3.org/2000/svg" xmlns:xlink="http://www.w3.org/1999/xlink">
    <desc>
        Created with Pixso.
    </desc>
    <defs>
        <filter id="filter_4_1460_dd" x="0.000000" y="8.000000" width="195.000000" height="297.000000" filterUnits="userSpaceOnUse" color-interpolation-filters="sRGB">
            <feFlood flood-opacity="0" result="BackgroundImageFix"/>
            <feColorMatrix in="SourceAlpha" type="matrix" values="0 0 0 0 0 0 0 0 0 0 0 0 0 0 0 0 0 0 127 0" result="hardAlpha"/>
            <feOffset dx="0" dy="4"/>
            <feGaussianBlur stdDeviation="1.33333"/>
            <feComposite in2="hardAlpha" operator="out" k2="-1" k3="1"/>
            <feColorMatrix type="matrix" values="0 0 0 0 0 0 0 0 0 0 0 0 0 0 0 0 0 0 0.25 0"/>
            <feBlend mode="normal" in2="BackgroundImageFix" result="effect_dropShadow_1"/>
            <feBlend mode="normal" in="SourceGraphic" in2="effect_dropShadow_1" result="shape"/>
        </filter>
        <filter id="filter_4_1651_dd" x="19.000000" y="47.000000" width="157.663574" height="212.293701" filterUnits="userSpaceOnUse" color-interpolation-filters="sRGB">
            <feFlood flood-opacity="0" result="BackgroundImageFix"/>
            <feBlend mode="normal" in="SourceGraphic" in2="BackgroundImageFix" result="shape"/>
            <feColorMatrix in="SourceAlpha" type="matrix" values="0 0 0 0 0 0 0 0 0 0 0 0 0 0 0 0 0 0 127 0" result="hardAlpha"/>
            <feOffset dx="0" dy="4"/>
            <feGaussianBlur stdDeviation="1.33333"/>
            <feComposite in2="hardAlpha" operator="arithmetic" k2="-1" k3="1"/>
            <feColorMatrix type="matrix" values="0 0 0 0 0 0 0 0 0 0 0 0 0 0 0 0 0 0 0.25 0"/>
            <feBlend mode="normal" in2="shape" result="effect_innerShadow_1"/>
        </filter>
    </defs>
    <rect id="Rectangle 1" x="4.000000" rx="20.000000" width="197.000000" height="297.000000" fill="#985B26" fill-opacity="1.000000"/>
    <rect id="Rectangle 1" x="4.500000" y="0.500000" rx="20.000000" width="196.000000" height="296.000000" stroke="#454D9A" stroke-opacity="1.000000" stroke-width="1.000000"/>
    <g filter="url(#filter_4_1460_dd)">
        <rect id="Rectangle 2" x="4.000000" y="8.000000" rx="20.000000" width="187.000000" height="289.000000" fill="#FFF0DB" fill-opacity="1.000000"/>
        <rect id="Rectangle 2" x="4.500000" y="8.500000" rx="20.000000" width="186.000000" height="288.000000" stroke="#454D9A" stroke-opacity="1.000000" stroke-width="1.000000"/>
    </g>
    <g filter="url(#filter_4_1651_dd)">
        <path id="use8027" d="M113.05 209.75L114.76 225.55C110.18 226.38 106.62 225.37 103.36 225.06C106.11 228.54 110.05 230.21 114.81 231.64L115.57 242.91C108.63 243.25 107.51 243.31 102.15 243.74C107.21 244.6 109.07 245.26 112.63 246.16C107.23 248.49 105.63 249.22 98.35 252.91C106.2 250.72 109.04 250.52 115.18 248.82C112.96 251.55 110.42 252.82 108.82 257.14C114.92 254.23 119.38 250 122.33 247.52C125.29 246.35 127.29 245.2 131.51 243.37C129.34 242.53 125.78 242.42 122.08 242.36L120.97 230.6C127.06 227.99 130.75 223.61 133.66 221.68C128.99 223.79 125.93 224.02 120.73 224.66L119.03 208.58L113.05 209.75Z" fill="#E9411B" fill-opacity="1.000000" fill-rule="evenodd"/>
        <path id="path8025" d="M81.4 209.59L79.76 225.39C75.11 225.13 71.85 223.33 68.74 222.27C70.68 226.31 74.19 228.84 78.53 231.33L76.91 242.49C70.06 241.23 68.96 241.03 63.63 240.21C68.39 242.21 70.08 243.29 73.36 244.99C67.6 246.01 65.88 246.36 58 248.28C66.13 247.95 68.95 248.41 75.29 248.17C72.55 250.32 69.81 250.97 67.34 254.81C73.91 253.39 79.15 250.29 82.54 248.55C85.68 248.09 87.87 247.43 92.38 246.62C90.43 245.3 86.98 244.38 83.38 243.46L84.76 231.74C91.25 230.6 95.77 227.18 99.01 225.97C94.02 226.95 90.98 226.47 85.77 225.89L87.48 209.82L81.4 209.59Z" fill="#E9411B" fill-opacity="1.000000" fill-rule="evenodd"/>
        <path id="path8021" d="M59.33 169.83C52.43 166.3 50.58 163.81 48.39 161.26C43.88 156.11 39.53 153.22 34.29 149.62C38.79 153.73 42.73 157.09 46.6 164.25L34.11 161.75C43.23 165.13 50.15 169.54 54.81 174.38L59.33 169.83Z" fill="#573314" fill-opacity="1.000000" fill-rule="evenodd"/>
        <path id="path8017" d="M143.76 186.03C154.27 180.77 163.26 174.33 176.61 170.8C161.7 176.82 153.57 182.48 146.26 190.66C145.47 192.38 146.38 194.1 146.68 195.83L139.35 182.34C141.08 184.28 142.42 186.64 143.76 186.03Z" fill="#573314" fill-opacity="1.000000" fill-rule="evenodd"/>
        <path id="path8017 (Stroke)" d="M152.26 181.61C149.48 183.15 146.71 184.69 143.81 186.13L143.81 186.14L143.81 186.14C143.43 186.31 143.06 186.27 142.69 186.09C142.33 185.91 141.97 185.6 141.61 185.22C141.25 184.84 140.87 184.38 140.48 183.89C140.46 183.86 140.44 183.83 140.41 183.8C140.28 183.64 140.14 183.47 140.01 183.3L146.38 195.04C146.35 194.88 146.3 194.72 146.26 194.56C146.25 194.53 146.25 194.5 146.24 194.47C146.13 194.07 146.02 193.67 145.95 193.26C145.78 192.39 145.74 191.5 146.15 190.61L146.16 190.59L146.17 190.58C153.18 182.73 160.94 177.21 174.68 171.47C165.96 174.04 159.1 177.83 152.26 181.61ZM152.13 181.41C159.47 177.35 166.88 173.25 176.58 170.69L176.66 170.91C161.76 176.93 153.65 182.57 146.36 190.72C145.99 191.55 146.02 192.37 146.18 193.22C146.26 193.62 146.36 194.01 146.47 194.41C146.48 194.44 146.49 194.47 146.49 194.5C146.61 194.93 146.72 195.37 146.79 195.81L146.57 195.88L139.24 182.4L139.44 182.26C139.84 182.72 140.23 183.2 140.6 183.65C140.62 183.68 140.65 183.71 140.67 183.74C141.06 184.23 141.43 184.68 141.78 185.06C142.14 185.43 142.48 185.72 142.8 185.87C143.12 186.03 143.41 186.05 143.71 185.92C146.58 184.48 149.35 182.95 152.13 181.41Z" fill="#573314" fill-opacity="1.000000" fill-rule="evenodd"/>
        <path id="path8015" d="M132.98 169.12C136.03 173.95 152.73 158.6 161.45 152.57L145.28 166.69L161.03 156.85C151.8 164.56 140.94 169.67 137.34 177.87L132.98 169.12Z" fill="#573314" fill-opacity="1.000000" fill-rule="evenodd"/>
        <path id="path8015 (Stroke)" d="M133.34 169.66L137.34 177.67C139.17 173.63 142.76 170.34 147.02 167.11C148.64 165.89 150.35 164.68 152.1 163.44C154.7 161.6 157.38 159.69 159.97 157.61L145.32 166.76L145.22 166.62L160.12 153.62C158.27 154.97 156.17 156.61 153.96 158.33L153.8 158.45C150.96 160.66 147.96 162.99 145.14 164.99C142.32 166.98 139.66 168.64 137.52 169.5C136.45 169.93 135.5 170.16 134.72 170.13C134.18 170.11 133.71 169.96 133.34 169.66ZM153.86 158.19C156.64 156.03 159.26 153.99 161.4 152.5L161.5 152.64L146.13 166.06L160.98 156.78L161.08 156.91C158.19 159.33 155.13 161.5 152.19 163.58C150.44 164.82 148.73 166.03 147.12 167.25C142.81 170.51 139.21 173.83 137.42 177.9L137.35 178.07L132.91 169.16L133.05 169.08C133.42 169.66 133.98 169.93 134.73 169.96C135.48 169.99 136.4 169.77 137.46 169.35C139.58 168.5 142.22 166.85 145.04 164.85C147.86 162.86 150.86 160.53 153.7 158.32L153.86 158.19Z" fill="#573314" fill-opacity="1.000000" fill-rule="evenodd"/>
        <path id="path7953" d="M68.18 79.61C66.74 79.84 65.86 79.55 65.26 79.06C64.45 78.47 63.86 77.78 63.33 77.07C62.01 75.29 60.91 73.42 59.39 71.7C59.09 71.35 58.78 71.02 58.45 70.69C57.63 72.77 56.94 74.97 56.84 77.09C56.73 79.17 57.27 81.16 58.52 82.43C58.56 82.38 58.75 82.28 58.99 82.12C59.38 81.89 60.05 81.75 60.93 81.57C61.69 81.43 62.68 81.33 63.87 81.15C64.34 81.09 64.95 80.98 65.68 80.78C66.21 80.7 67.06 80.33 68.18 79.61ZM58.52 82.43C58.21 82.16 57.88 81.93 57.53 81.73C53.91 81.55 50.46 80.91 46.97 80.32C47.99 82.73 48.97 85.18 50.04 87.55C50.68 88.95 51.36 90.31 52.19 91.48C52.45 91.05 52.78 90.58 53.14 90.05C54.76 87.75 56.68 85.31 58.52 82.46C58.51 82.45 58.51 82.44 58.52 82.43ZM52.19 91.48C51.41 91.32 50.63 91.19 49.83 91.13C47.98 90.95 45.98 91.15 44.07 92.21C42.96 92.85 41.89 93.74 40.94 94.81C41.87 95.54 42.86 96.09 43.85 96.49C46.77 97.62 49.68 97.6 52.48 97.39C51.98 96.32 51.59 95.41 51.46 94.65C51.36 94.12 51.31 93.68 51.38 93.41C51.39 93.14 51.56 92.74 51.79 92.23C51.89 91.99 52.03 91.75 52.19 91.48ZM52.48 97.39L52.48 97.39C50.04 101.28 48.27 104.51 46.92 106.76C50.82 106.99 54.42 107.93 57.83 109.92C55.69 105.69 53.75 101.6 52.48 97.39ZM57.83 109.92C57.33 110.79 56.88 111.51 56.46 112.04C54.08 112.56 51.63 112.71 49.15 112.51C50.02 114.28 51.19 117.2 52.61 121.14C54.57 118.02 56.77 115.12 59.14 112.5C58.7 111.63 58.26 110.77 57.83 109.92ZM52.61 121.14C51.24 121.13 49.87 121.01 48.48 120.78C45.98 120.22 43.37 119.9 40.64 120C41.22 121.33 41.86 122.6 42.57 123.79C44.01 126.21 45.76 128.34 47.81 129.78C48.01 128.99 48.35 128.15 48.76 127.27C49.41 125.94 50.29 124.63 51.31 123.33C51.73 122.59 52.17 121.86 52.61 121.14ZM47.81 129.78C46.86 129.85 45.9 130.02 44.96 130.3C42.24 131.09 39.56 132.97 37.69 136.07C38.12 136.27 38.55 136.45 38.97 136.6C42.75 137.87 46.34 137.13 49.27 135.55C48.56 134.76 48 133.98 47.81 133.25C47.56 132.56 47.52 131.65 47.63 130.72C47.66 130.42 47.72 130.1 47.81 129.78ZM49.27 135.55C49.08 135.95 48.92 136.37 48.76 136.8C47.63 140.2 47.51 144.12 47.93 148.09C49.48 147.12 50.92 146.02 52.27 144.86C54.01 143.37 55.6 141.78 57.07 140.11C56.22 139.8 55.39 139.46 54.58 139.09C52.57 138.13 50.8 137.14 49.56 135.87C49.46 135.76 49.36 135.65 49.27 135.55ZM57.07 140.11C57.6 144.23 58.66 148.41 60.01 152.55C60.93 151.44 61.82 150.32 62.67 149.18C64.28 147.01 65.85 144.82 67.37 142.62C66.22 142.43 65.07 142.23 63.92 142.02C61.54 141.49 59.23 140.89 57.07 140.11ZM67.37 142.62C68.68 146.6 70.11 150.58 71.67 154.53C74 151.09 76.22 147.6 78.31 144.07C74.66 143.72 71.02 143.22 67.37 142.62ZM78.31 144.07C79.49 147.01 80.75 149.94 82.1 152.86C82.53 153.79 82.98 154.73 83.43 155.66C85.5 152.05 87.45 148.39 89.29 144.7C87.05 144.66 84.82 144.57 82.59 144.42C81.17 144.33 79.74 144.21 78.31 144.07ZM89.29 144.7C91.13 148.46 93.1 152.18 95.18 155.87C96.26 153.64 97.31 151.4 98.33 149.15C99.02 147.62 99.71 146.08 100.38 144.54C99.65 144.57 98.92 144.6 98.19 144.62C95.21 144.72 92.24 144.76 89.29 144.7ZM100.38 144.54C102.45 148.17 104.6 151.79 106.77 155.39C108.42 151.57 110.04 147.74 111.68 143.91C107.88 144.14 104.11 144.38 100.38 144.54ZM111.68 143.91C112.59 145.42 113.5 146.94 114.41 148.45C115.66 150.54 116.91 152.63 118.16 154.72C119.8 150.9 121.43 147.1 123.06 143.3C120.09 143.43 117.13 143.58 114.17 143.76C113.34 143.81 112.51 143.86 111.68 143.91ZM123.06 143.3C125.23 146.94 127.39 150.59 129.53 154.25C130.88 151.17 132.23 148.1 133.59 145.03C133.88 144.33 134.15 143.62 134.42 142.92C134.11 142.95 133.8 142.98 133.5 143.01C130.01 143.06 126.53 143.16 123.06 143.3ZM134.42 142.92C136.45 146.44 138.74 149.88 141.45 153.12C142.88 149.06 143.92 144.97 144.4 140.91C141.29 141.96 137.92 142.54 134.42 142.92ZM144.4 140.91C144.54 141.06 144.68 141.22 144.82 141.37C147.38 144.19 150.29 146.85 153.87 148.78C154.06 146.17 153.99 143.61 153.54 141.2C153.22 139.53 152.71 137.94 152 136.53C151.67 136.89 151.31 137.24 150.92 137.58C149.3 138.98 147.1 139.95 144.65 140.82C144.57 140.85 144.49 140.88 144.4 140.91ZM152 136.53C154.42 137.7 157.22 138.24 160.19 137.64C161.37 137.39 162.57 136.97 163.74 136.38C161.78 133.68 159.25 131.88 156.64 130.96C155.66 130.6 154.67 130.36 153.67 130.21C153.73 130.55 153.78 130.88 153.79 131.21C153.87 132.39 153.74 133.56 153.34 134.46C153.1 135.16 152.62 135.86 152 136.53ZM153.67 130.21C156.03 128.69 158.08 126.32 159.73 123.57C160.3 122.62 160.83 121.62 161.31 120.58C157.79 120.33 154.42 120.76 151.27 121.64C150.71 121.79 150.17 121.96 149.63 122.15C149.77 122.33 149.92 122.51 150.06 122.7C151.12 124.1 152.03 125.56 152.68 127.08C153.13 128.16 153.49 129.21 153.67 130.21ZM149.63 122.15C151.04 118.8 151.98 115.08 152.32 111.12C152.39 110.78 152.46 110.47 152.54 110.19C149.4 112.52 145.92 113.18 142.67 112.33C142.52 112.15 142.35 111.94 142.17 111.71C142.09 112 142.01 112.28 141.92 112.57C143.44 114.45 144.97 116.64 146.53 118.98C147.64 119.92 148.68 120.98 149.63 122.15ZM142.17 111.71C145.08 108.65 148.65 107.27 152.9 107.17C152.37 106.53 151.76 105.76 151.07 104.87C149.36 102.49 147.42 100.34 145.28 98.71C145.04 99.7 144.7 100.73 144.29 101.79C143.83 105.12 143.08 108.41 142.17 111.71ZM145.28 98.71C146.72 98.48 148.16 98.09 149.58 97.52C151.83 96.6 154.04 95.17 155.92 93.06C155.07 92.56 154.2 92.13 153.31 91.79C150.27 90.63 147.17 90.59 144.46 91.44C144.92 92.19 145.27 93 145.44 93.81C145.67 94.74 145.69 95.85 145.57 97C145.52 97.56 145.42 98.13 145.28 98.71ZM144.46 91.44L144.47 91.44C146.76 88.29 147.7 83.93 147.81 79.38C146.15 80.05 144.6 80.89 143.15 81.81C141.22 83.12 139.24 84.02 137.1 84.39C138.14 85.35 139.13 86.31 140.06 87.31C141.97 88.61 143.61 89.92 144.46 91.44L144.46 91.44ZM137.1 84.39C137.08 81.4 137.16 79.35 137.62 78.35C138.48 77.64 139.38 76.99 140.32 76.41C138.84 75.75 136.68 74.08 133.79 71.79C133.59 74.65 133.14 77.56 132.6 80.51C134.17 81.82 135.68 83.09 137.1 84.39ZM133.79 71.79C135.87 70.3 138.16 69.1 140.61 68.1C141.92 67.48 143.23 66.74 144.49 65.82C141.15 63.3 137.44 61.61 133.87 61.89C133.76 61.9 133.65 61.91 133.54 61.93C133.55 61.95 133.56 61.98 133.57 62.01C134.1 63.29 134.06 65.14 133.89 67.21C133.94 68.73 133.9 70.25 133.79 71.79ZM133.54 61.93C134.91 60.82 136.09 59.31 136.86 57.45C137.63 55.58 137.97 53.37 137.81 51.04C137.8 50.84 137.78 50.64 137.76 50.44C133.51 51.89 130.67 55.02 128.75 58.38C130.07 58.69 131.22 59.09 131.96 59.73C132.33 60.01 132.65 60.34 132.9 60.69C133.15 61.03 133.36 61.46 133.54 61.93ZM128.75 58.38C128.72 58.24 128.69 58.09 128.66 57.95C127.87 54.13 125.96 50.41 123.51 47C123.14 47.74 122.8 48.49 122.48 49.25C121.15 52.42 120.22 55.65 119.61 58.89C120.85 58.58 122.1 58.35 123.33 58.22C125.21 58.04 127 58.02 128.6 58.35C128.65 58.36 128.7 58.37 128.75 58.38ZM119.61 58.89C118.44 57.34 117.14 55.86 115.74 54.44C114.24 52.92 112.62 51.47 110.89 50.13C110.39 53.42 110.17 56.67 110.27 59.85C110.17 60.8 109.98 61.73 109.71 62.63C110.27 62.47 110.84 62.31 111.4 62.15C113.25 61.11 115.2 60.26 117.23 59.58C118.02 59.32 118.82 59.09 119.61 58.89ZM109.71 62.63C106.25 60.44 104.31 58.77 103.77 58.06C103.72 57.67 103.69 57.28 103.66 56.89C102.72 57.78 100.55 58.84 97.75 60.44C99.53 61.75 101.29 63.3 103.1 64.94C105.15 64.08 107.38 63.32 109.71 62.63ZM97.75 60.44C97.19 56.36 97.28 52.12 97.24 47.55C97.2 47.58 97.15 47.61 97.11 47.64C94.28 49.15 91.85 51.32 90.6 53.96C90.2 54.83 89.91 55.74 89.76 56.66C89.95 56.65 90.13 56.66 90.31 56.68C90.89 56.72 91.59 57.01 92.35 57.41C94.21 58.08 95.99 59.15 97.75 60.44ZM89.76 56.66C89.39 55.26 88.69 53.91 87.7 52.75C86.07 50.83 83.74 49.47 81.13 48.56C81.05 51.84 81.79 54.89 82.79 57.65C83.18 58.72 83.61 59.76 84.08 60.77C84.35 60.43 84.63 60.1 84.91 59.78C86.37 58.29 87.65 57.04 88.81 56.82C89.12 56.73 89.44 56.67 89.76 56.66ZM84.08 60.77C80.37 59.7 76.31 59.39 72.22 59.39C72.75 60.43 73.31 61.45 73.88 62.45C75.39 65.02 76.89 67.61 78.17 70.42C78.99 69.1 79.73 67.79 80.41 66.53C81.59 64.41 82.77 62.44 84.08 60.77ZM78.17 70.42C76.52 70.38 74.88 70.28 73.27 70.07C70.87 69.76 68.5 69.19 66.84 67.69C66.84 67.69 66.84 67.71 66.84 67.71C67.64 69.23 67.7 71.13 67.65 73.05C67.58 75.33 67.57 77.61 68.06 79.69C68.59 79.31 69.3 78.94 70.13 78.5C70.98 78.08 72.02 77.47 73.18 76.56C74.66 75.31 75.77 74 76.6 72.79C77.16 72 77.68 71.21 78.17 70.42Z" fill="#367136" fill-opacity="1.000000" fill-rule="evenodd"/>
        <path id="path7923" d="M29.16 218.03C36.01 137.14 144.7 150.37 144.89 149.65L132.41 166.63C132.41 166.63 150.27 214.12 169.59 216.99C180.8 218.65 140 213.19 99.83 213.09C66.69 213 33.01 218.17 29.16 218.03Z" fill="#573314" fill-opacity="1.000000" fill-rule="evenodd"/>
        <path id="path7923 (Stroke)" d="M29.44 217.77C29.96 217.76 30.79 217.7 31.92 217.59C33.27 217.47 35.03 217.28 37.14 217.04C37.63 216.99 38.15 216.93 38.68 216.87C42.69 216.43 47.73 215.88 53.49 215.32C66.53 214.05 83.25 212.78 99.83 212.83C119.92 212.88 140.17 214.27 154 215.44C159.52 215.91 164.01 216.34 167.06 216.64C163.02 215.27 159.09 212.13 155.44 208.09C151.03 203.21 146.97 196.99 143.53 190.86C140.08 184.74 137.24 178.7 135.26 174.2C134.27 171.95 133.5 170.08 132.97 168.78C132.71 168.12 132.51 167.61 132.37 167.26C132.3 167.09 132.25 166.95 132.22 166.86C132.2 166.82 132.19 166.78 132.18 166.76L132.17 166.73L132.17 166.73L132.17 166.72C132.17 166.72 132.17 166.72 132.41 166.63L132.17 166.72L132.12 166.59L144.36 149.94C144.16 149.94 143.92 149.92 143.62 149.91C143.31 149.9 142.95 149.88 142.53 149.86C141.87 149.82 141.06 149.78 140.13 149.74C137.13 149.61 132.85 149.46 127.7 149.53C117.38 149.65 103.59 150.59 89.59 154.03C75.59 157.47 61.4 163.41 50.28 173.51C39.23 183.57 31.2 197.76 29.44 217.77ZM144.68 149.5C144.71 149.46 144.74 149.45 144.75 149.44C144.78 149.42 144.8 149.42 144.8 149.42C144.8 149.42 144.8 149.42 144.8 149.42C144.8 149.42 144.8 149.42 144.78 149.42C144.74 149.42 144.67 149.42 144.56 149.42C144.36 149.42 144.05 149.41 143.65 149.39C143.34 149.38 142.98 149.36 142.57 149.34C141.89 149.3 141.09 149.26 140.16 149.22C137.15 149.09 132.86 148.94 127.69 149C117.35 149.13 103.52 150.07 89.46 153.52C75.41 156.98 61.13 162.94 49.93 173.13C38.73 183.32 30.62 197.72 28.9 218.01L28.88 218.28L29.15 218.29C29.65 218.31 30.62 218.24 31.97 218.11C33.32 217.98 35.09 217.79 37.2 217.56C37.69 217.51 38.21 217.45 38.74 217.39C42.74 216.95 47.78 216.39 53.54 215.84C66.58 214.57 83.27 213.3 99.83 213.35C119.9 213.4 140.14 214.79 153.95 215.96C160.08 216.48 164.94 216.96 167.97 217.25C168.36 217.29 168.72 217.32 169.04 217.36C169.76 217.43 170.33 217.48 170.73 217.52C170.94 217.53 171.1 217.55 171.22 217.56C171.33 217.56 171.43 217.57 171.48 217.56C171.49 217.56 171.5 217.56 171.52 217.56L171.52 217.56C171.53 217.56 171.57 217.55 171.61 217.52C171.64 217.5 171.69 217.45 171.71 217.4C171.73 217.35 171.73 217.24 171.71 217.19C171.69 217.16 171.66 217.11 171.64 217.1C171.63 217.09 171.61 217.07 171.6 217.07C171.57 217.05 171.54 217.04 171.52 217.04L171.52 217.04C171.51 217.03 171.49 217.03 171.47 217.03C171.4 217.01 171.29 216.99 171.14 216.96C170.83 216.91 170.33 216.84 169.63 216.73C164.89 216.03 160.2 212.58 155.82 207.74C151.45 202.9 147.42 196.72 143.98 190.61C140.55 184.5 137.71 178.48 135.74 173.99C134.75 171.75 133.98 169.88 133.46 168.58C133.19 167.93 132.99 167.42 132.86 167.07C132.79 166.9 132.74 166.76 132.7 166.68C132.7 166.67 132.7 166.67 132.7 166.67L145.09 149.83C145.11 149.8 145.13 149.77 145.14 149.72L144.68 149.5Z" fill="#573314" fill-opacity="1.000000" fill-rule="evenodd"/>
        <path id="path7927" d="M58.62 183.02C59.46 184.04 59.7 185.26 59.26 186.41C58.83 187.56 57.78 188.54 56.32 189.13C54.87 189.73 53.14 189.9 51.51 189.6C49.88 189.3 48.48 188.56 47.63 187.53C46.78 186.51 46.53 185.29 46.96 184.14C47.38 182.99 48.43 182.01 49.88 181.41C51.33 180.8 53.05 180.63 54.69 180.92C56.32 181.21 57.72 181.95 58.58 182.97L58.62 183.02Z" fill="#FFFFFF" fill-opacity="1.000000" fill-rule="nonzero"/>
        <path id="path7931" d="M69.75 172.8C70.6 173.83 70.83 175.05 70.4 176.19C69.97 177.34 68.91 178.32 67.46 178.92C66 179.52 64.27 179.68 62.64 179.38C61.01 179.08 59.62 178.34 58.77 177.32C57.91 176.29 57.67 175.08 58.09 173.93C58.51 172.78 59.56 171.79 61.01 171.19C62.46 170.59 64.19 170.41 65.82 170.7C67.45 171 68.85 171.73 69.72 172.75L69.75 172.8Z" fill="#FFFFFF" fill-opacity="1.000000" fill-rule="nonzero"/>
        <path id="path7933" d="M76.93 183.8C77.77 184.83 78.01 186.05 77.58 187.2C77.14 188.34 76.09 189.32 74.63 189.92C73.18 190.52 71.45 190.69 69.82 190.39C68.19 190.09 66.79 189.34 65.94 188.32C65.09 187.3 64.85 186.08 65.27 184.93C65.69 183.78 66.74 182.8 68.19 182.19C69.64 181.59 71.37 181.41 73 181.71C74.63 182 76.03 182.74 76.89 183.76L76.93 183.8Z" fill="#FFFFFF" fill-opacity="1.000000" fill-rule="nonzero"/>
        <path id="path7935" d="M67.6 193.94C68.45 194.96 68.68 196.18 68.25 197.33C67.82 198.48 66.76 199.46 65.31 200.05C63.85 200.65 62.12 200.82 60.49 200.52C58.86 200.22 57.47 199.48 56.61 198.45C55.76 197.43 55.52 196.21 55.94 195.06C56.36 193.91 57.41 192.93 58.86 192.33C60.31 191.72 62.04 191.55 63.67 191.84C65.3 192.13 66.7 192.87 67.56 193.89L67.6 193.94Z" fill="#FFFFFF" fill-opacity="1.000000" fill-rule="nonzero"/>
        <path id="path7937" d="M49.99 193.78C50.83 194.8 51.07 196.02 50.64 197.17C50.21 198.32 49.15 199.3 47.69 199.89C46.24 200.49 44.51 200.66 42.88 200.36C41.25 200.06 39.85 199.32 39 198.29C38.15 197.27 37.91 196.05 38.33 194.9C38.75 193.75 39.8 192.77 41.25 192.17C42.7 191.56 44.43 191.39 46.06 191.68C47.69 191.97 49.09 192.71 49.95 193.73L49.99 193.78Z" fill="#FFFFFF" fill-opacity="1.000000" fill-rule="nonzero"/>
        <path id="path7939" d="M60.81 205.6C61.65 206.63 61.89 207.85 61.46 208.99C61.03 210.14 59.97 211.12 58.51 211.72C57.06 212.32 55.33 212.48 53.7 212.18C52.07 211.88 50.67 211.14 49.82 210.12C48.97 209.09 48.73 207.88 49.15 206.73C49.57 205.58 50.62 204.59 52.07 203.99C53.52 203.39 55.25 203.21 56.88 203.5C58.51 203.8 59.91 204.53 60.77 205.55L60.81 205.6Z" fill="#FFFFFF" fill-opacity="1.000000" fill-rule="nonzero"/>
        <path id="path7941" d="M45.65 205.13C46.5 206.16 46.73 207.38 46.3 208.52C45.87 209.67 44.81 210.65 43.36 211.25C41.9 211.85 40.17 212.01 38.54 211.71C36.91 211.41 35.52 210.67 34.67 209.65C33.81 208.63 33.57 207.41 33.99 206.26C34.41 205.11 35.46 204.13 36.91 203.52C38.36 202.92 40.09 202.74 41.72 203.04C43.35 203.33 44.75 204.07 45.61 205.09L45.65 205.13Z" fill="#FFFFFF" fill-opacity="1.000000" fill-rule="nonzero"/>
        <path id="path7989" d="M121.46 186.87C122.31 187.89 122.54 189.11 122.11 190.26C121.68 191.41 120.62 192.39 119.16 192.99C117.71 193.58 115.98 193.75 114.35 193.45C112.72 193.15 111.33 192.41 110.47 191.39C109.62 190.36 109.38 189.14 109.8 187.99C110.22 186.85 111.27 185.86 112.72 185.26C114.17 184.65 115.9 184.48 117.53 184.77C119.16 185.07 120.56 185.8 121.42 186.82L121.46 186.87Z" fill="#FFFFFF" fill-opacity="1.000000" fill-rule="nonzero"/>
        <path id="path7991" d="M127.63 196.38C128.47 197.4 128.7 198.62 128.27 199.77C127.84 200.92 126.79 201.9 125.33 202.49C123.88 203.09 122.15 203.26 120.52 202.96C118.89 202.66 117.49 201.92 116.64 200.89C115.79 199.87 115.54 198.65 115.97 197.5C116.39 196.35 117.44 195.37 118.89 194.77C120.33 194.16 122.06 193.99 123.7 194.28C125.33 194.57 126.73 195.31 127.59 196.33L127.63 196.38Z" fill="#FFFFFF" fill-opacity="1.000000" fill-rule="nonzero"/>
        <path id="path7993" d="M135.34 207.04C136.18 208.07 136.41 209.29 135.98 210.44C135.55 211.58 134.49 212.56 133.04 213.16C131.59 213.76 129.85 213.93 128.23 213.63C126.6 213.33 125.2 212.58 124.35 211.56C123.5 210.54 123.25 209.32 123.67 208.17C124.1 207.02 125.15 206.04 126.59 205.43C128.04 204.83 129.77 204.65 131.41 204.95C133.04 205.24 134.44 205.98 135.3 207L135.34 207.04Z" fill="#FFFFFF" fill-opacity="1.000000" fill-rule="nonzero"/>
        <path id="path7995" d="M137.7 186.44C138.54 187.47 138.77 188.69 138.34 189.83C137.91 190.98 136.86 191.96 135.4 192.56C133.95 193.16 132.22 193.32 130.59 193.02C128.96 192.72 127.56 191.98 126.71 190.96C125.86 189.94 125.61 188.72 126.04 187.57C126.46 186.42 127.51 185.43 128.96 184.83C130.4 184.23 132.13 184.05 133.77 184.34C135.4 184.64 136.8 185.38 137.66 186.39L137.7 186.44Z" fill="#FFFFFF" fill-opacity="1.000000" fill-rule="nonzero"/>
        <path id="path7997" d="M144.1 196.9C144.94 197.93 145.17 199.15 144.74 200.29C144.31 201.44 143.25 202.42 141.8 203.02C140.35 203.62 138.61 203.78 136.99 203.48C135.36 203.18 133.96 202.44 133.11 201.42C132.25 200.4 132.01 199.18 132.43 198.03C132.86 196.88 133.91 195.89 135.35 195.29C136.8 194.69 138.53 194.51 140.17 194.8C141.8 195.1 143.2 195.83 144.06 196.85L144.1 196.9Z" fill="#FFFFFF" fill-opacity="1.000000" fill-rule="nonzero"/>
        <path id="path7999" d="M151.3 206.41C152.14 207.43 152.37 208.65 151.94 209.8C151.51 210.95 150.45 211.93 149 212.53C147.55 213.12 145.81 213.29 144.19 212.99C142.56 212.69 141.16 211.95 140.31 210.92C139.46 209.9 139.21 208.68 139.63 207.53C140.06 206.39 141.11 205.4 142.56 204.8C144 204.19 145.73 204.02 147.37 204.31C149 204.6 150.4 205.34 151.26 206.36L151.3 206.41Z" fill="#FFFFFF" fill-opacity="1.000000" fill-rule="nonzero"/>
        <path id="path8001" d="M132.87 175.34C133.72 176.37 133.95 177.59 133.52 178.73C133.09 179.88 132.03 180.86 130.57 181.46C129.12 182.06 127.39 182.22 125.76 181.92C124.13 181.62 122.74 180.88 121.88 179.86C121.03 178.84 120.79 177.62 121.21 176.47C121.63 175.32 122.68 174.33 124.13 173.73C125.58 173.13 127.31 172.95 128.94 173.24C130.57 173.54 131.97 174.27 132.83 175.29L132.87 175.34Z" fill="#FFFFFF" fill-opacity="1.000000" fill-rule="nonzero"/>
        <path id="path8003" d="M117.63 174.85C118.47 175.88 118.7 177.1 118.27 178.25C117.84 179.39 116.78 180.37 115.33 180.97C113.88 181.57 112.14 181.74 110.51 181.44C108.89 181.14 107.49 180.39 106.64 179.37C105.79 178.35 105.54 177.13 105.96 175.98C106.39 174.83 107.44 173.85 108.88 173.24C110.33 172.64 112.06 172.46 113.7 172.76C115.33 173.05 116.73 173.79 117.59 174.81L117.63 174.85Z" fill="#FFFFFF" fill-opacity="1.000000" fill-rule="nonzero"/>
        <path id="path8005" d="M126.93 164.03C127.77 165.05 128.01 166.27 127.58 167.42C127.15 168.57 126.09 169.55 124.63 170.14C123.18 170.74 121.45 170.91 119.82 170.61C118.19 170.31 116.8 169.57 115.94 168.54C115.09 167.52 114.85 166.3 115.27 165.15C115.69 164.01 116.74 163.02 118.19 162.42C119.64 161.81 121.37 161.64 123 161.93C124.63 162.22 126.03 162.96 126.89 163.98L126.93 164.03Z" fill="#FFFFFF" fill-opacity="1.000000" fill-rule="nonzero"/>
        <path id="path8007" d="M118.6 153.21C119.45 154.24 119.68 155.46 119.25 156.6C118.82 157.75 117.76 158.73 116.31 159.33C114.85 159.93 113.12 160.09 111.49 159.79C109.86 159.49 108.47 158.75 107.61 157.73C106.76 156.71 106.52 155.49 106.94 154.34C107.36 153.19 108.41 152.2 109.86 151.6C111.31 151 113.04 150.82 114.67 151.11C116.3 151.41 117.7 152.14 118.56 153.16L118.6 153.21Z" fill="#FFFFFF" fill-opacity="1.000000" fill-rule="nonzero"/>
        <path id="path8009" d="M134.65 153.78C135.49 154.81 135.73 156.03 135.3 157.17C134.86 158.32 133.81 159.3 132.35 159.9C130.9 160.5 129.17 160.66 127.54 160.36C125.91 160.06 124.51 159.32 123.66 158.3C122.81 157.28 122.57 156.06 122.99 154.91C123.41 153.76 124.46 152.77 125.91 152.17C127.36 151.57 129.09 151.39 130.72 151.69C132.35 151.98 133.75 152.72 134.61 153.73L134.65 153.78Z" fill="#FFFFFF" fill-opacity="1.000000" fill-rule="nonzero"/>
        <path id="path7987" d="M75.94 155.71C70.06 155.32 62.66 154.35 59.17 153.51C53.16 152.08 49.19 149.97 46.63 146.86C44.69 144.51 44 142.5 44 139.19C43.98 133.56 46.99 126.62 52.23 120.19C52.81 119.48 53.56 118.25 53.9 117.45C54.24 116.64 55.06 114.91 55.71 113.58L56.9 111.18L53.76 107.34C50.43 103.27 49.18 101.51 47.61 98.7C47.08 97.73 46.33 96.45 45.95 95.85C45.11 94.51 45.34 93.29 45.34 92.05C45.35 89.54 47.26 86.59 51.55 82.99C53.48 81.38 53.81 80.49 59.5 80.21C61.93 80.09 64.25 79.88 64.65 79.74C66.47 79.12 68.86 77.19 70.31 75.16C71.17 73.96 71.68 72.99 73.74 68.6C76.84 62.01 79.91 56.87 82.48 53.99C85.87 50.18 88.28 49.23 91.11 50.57C94.26 52.06 96.98 54.21 100.45 57.94L102.2 59.83L103.82 59.17C104.7 58.81 106.49 58.18 107.8 57.76C109.1 57.35 111.35 56.52 112.8 55.92C121.53 52.3 130.56 52.57 134.34 56.57C135.27 57.55 136 59.21 136.17 60.72C136.39 62.6 135.95 70.27 135.46 73.31C134.68 78.1 134.57 77.47 136.45 79.07C137.34 79.84 139.09 81.51 140.34 82.79C141.59 84.08 143.12 85.56 143.74 86.1C145.29 87.44 146.87 89.53 147.54 91.13C148.7 93.92 148.74 96.42 147.7 100.17C147.35 101.41 146.85 103.55 146.57 104.93C146.3 106.32 145.73 108.69 145.31 110.2L144.55 112.95L145.9 114.69C146.64 115.64 147.74 117.13 148.33 117.99C148.93 118.85 149.97 120.06 150.65 120.67C155.42 124.92 158.27 130.85 157.64 135.21C157.34 137.33 156.63 138.87 155.03 140.91C151.67 145.18 145.49 148.96 137.2 151.81C135.36 152.44 135.09 152.47 129.91 152.66C122.17 152.95 120.19 153.09 105.43 154.5C101.02 154.92 96.03 155.37 94.32 155.49C89.96 155.81 79.4 155.94 75.94 155.71Z" fill="#367136" fill-opacity="1.000000" fill-rule="nonzero"/>
        <path id="path8081" d="M71.1 129.03C66.22 129.73 57.38 124.51 56.66 124.83C56.32 124.98 67.69 130.66 66.75 130.9C62.32 132.05 57.47 132.26 52.93 132.81L69.86 133.89L52.68 138.21C58.53 138.02 65.65 136.2 70.3 137.46C69.64 134.9 70.35 131.34 71.1 129.03Z" fill="#FFFFFF" fill-opacity="1.000000" fill-rule="evenodd"/>
        <path id="path8081 (Stroke)" d="M67.04 128C68.54 128.38 69.91 128.55 71.01 128.39C71.23 128.36 71.45 128.44 71.6 128.61C71.74 128.78 71.78 129.02 71.72 129.23C71.35 130.35 71 131.78 70.81 133.23C70.63 134.69 70.63 136.13 70.93 137.3C70.98 137.53 70.92 137.76 70.75 137.92C70.59 138.09 70.35 138.15 70.13 138.09C67.94 137.49 65.1 137.62 62.01 137.94C61.09 138.03 60.14 138.14 59.19 138.26C56.99 138.52 54.76 138.79 52.7 138.85C52.37 138.86 52.09 138.62 52.04 138.3C52 137.97 52.2 137.66 52.52 137.58L65.69 134.27L52.89 133.45C52.56 133.43 52.3 133.16 52.29 132.83C52.28 132.49 52.52 132.21 52.86 132.17C54.14 132.01 55.44 131.88 56.73 131.75C59.67 131.46 62.6 131.17 65.4 130.56C65.33 130.52 65.26 130.47 65.18 130.42C64.27 129.86 62.96 129.13 61.62 128.4C61.09 128.11 60.56 127.82 60.04 127.54C59.26 127.11 58.52 126.71 57.91 126.37C57.41 126.09 56.99 125.85 56.7 125.67C56.56 125.59 56.43 125.5 56.33 125.43C56.3 125.4 56.21 125.34 56.15 125.25L56.15 125.25C56.12 125.21 56.02 125.08 56.01 124.88C56 124.75 56.03 124.61 56.12 124.47C56.21 124.34 56.32 124.27 56.4 124.24C56.54 124.17 56.68 124.17 56.76 124.17C56.85 124.17 56.94 124.18 57.01 124.2C57.16 124.22 57.33 124.28 57.5 124.33C57.84 124.45 58.28 124.64 58.79 124.85C59.08 124.98 59.39 125.12 59.72 125.26C60.56 125.63 61.52 126.05 62.56 126.47C64 127.06 65.56 127.62 67.04 128ZM69.4 134.67L61.26 136.72C61.46 136.69 61.67 136.67 61.88 136.65C64.56 136.37 67.22 136.22 69.48 136.62C69.4 135.99 69.38 135.33 69.4 134.67ZM69.51 133.22C69.52 133.17 69.53 133.12 69.53 133.07C69.68 131.9 69.93 130.75 70.21 129.74C69.11 129.75 67.92 129.55 66.73 129.25C66.07 129.08 65.4 128.88 64.74 128.66C65.15 128.9 65.53 129.12 65.86 129.32C66.32 129.61 66.72 129.87 66.98 130.08C67.09 130.17 67.25 130.31 67.35 130.48C67.39 130.55 67.51 130.79 67.41 131.07C67.3 131.39 67.02 131.5 66.91 131.53C64.86 132.06 62.72 132.39 60.56 132.65L69.51 133.22ZM57.12 124.4C57.12 124.4 57.12 124.4 57.12 124.41C57.12 124.4 57.12 124.4 57.12 124.4Z" fill="#FFFFFF" fill-opacity="1.000000" fill-rule="evenodd"/>
        <path id="path8019" d="M85.6 146.66L58.74 136.32L71.06 146.37L56.47 143.81L77.78 158.18L85.6 146.66Z" fill="#E9411B" fill-opacity="1.000000" fill-rule="evenodd"/>
        <path id="path7899" d="M94.3 76.18C95.18 76.9 95.85 77.89 96.2 79.02C96.56 80.14 96.59 81.36 96.3 82.51C96 83.66 95.39 84.68 94.55 85.46C93.7 86.23 92.66 86.72 91.55 86.86C90.44 87 89.32 86.78 88.33 86.23C87.35 85.68 86.53 84.83 86 83.79C85.47 82.74 85.24 81.55 85.34 80.36C85.45 79.18 85.88 78.05 86.59 77.13L94.3 76.18Z" fill="#367136" fill-opacity="1.000000" fill-rule="nonzero"/>
        <path id="path7899 (Stroke)" d="M88.36 78.69C87.94 79.25 87.68 79.92 87.62 80.63C87.55 81.33 87.69 82.04 88 82.65C88.31 83.26 88.79 83.76 89.36 84.07C89.94 84.39 90.6 84.52 91.25 84.44C91.91 84.36 92.53 84.07 93.04 83.61C93.55 83.14 93.92 82.52 94.09 81.83C94.27 81.15 94.25 80.42 94.04 79.76C93.83 79.1 93.44 78.52 92.92 78.1C91.92 77.28 91.71 75.75 92.47 74.69C93.23 73.63 94.66 73.43 95.67 74.25C96.92 75.28 97.86 76.68 98.37 78.27C98.87 79.86 98.91 81.57 98.5 83.18C98.09 84.79 97.23 86.23 96.05 87.31C94.87 88.4 93.41 89.08 91.85 89.27C90.29 89.47 88.71 89.16 87.3 88.38C85.9 87.61 84.75 86.4 83.99 84.92C83.24 83.44 82.92 81.76 83.07 80.1C83.22 78.43 83.82 76.86 84.81 75.58C85.61 74.54 87.05 74.41 88.03 75.27C89.01 76.13 89.16 77.66 88.36 78.69Z" fill="#FFFFFF" fill-opacity="1.000000" fill-rule="evenodd"/>
        <path id="path7901" d="M116.29 77.83C116.99 78.76 117.41 79.89 117.51 81.08C117.6 82.26 117.36 83.45 116.82 84.49C116.27 85.53 115.45 86.37 114.46 86.91C113.46 87.45 112.34 87.65 111.24 87.51C110.13 87.36 109.09 86.86 108.25 86.07C107.42 85.29 106.82 84.25 106.53 83.1C106.25 81.95 106.29 80.74 106.66 79.61C107.03 78.49 107.7 77.51 108.59 76.79L116.29 77.83Z" fill="#367136" fill-opacity="1.000000" fill-rule="nonzero"/>
        <path id="path7901 (Stroke)" d="M109.95 78.73C109.43 79.15 109.03 79.72 108.82 80.38C108.6 81.04 108.57 81.76 108.74 82.45C108.91 83.14 109.27 83.76 109.78 84.24C110.28 84.71 110.9 85 111.56 85.09C112.21 85.18 112.87 85.06 113.45 84.75C114.03 84.43 114.51 83.94 114.83 83.34C115.14 82.73 115.29 82.03 115.23 81.32C115.17 80.61 114.92 79.93 114.5 79.37C113.72 78.33 113.88 76.8 114.87 75.95C115.86 75.1 117.3 75.26 118.08 76.3C119.06 77.59 119.65 79.17 119.78 80.84C119.92 82.5 119.58 84.18 118.81 85.65C118.04 87.12 116.88 88.31 115.47 89.08C114.06 89.84 112.47 90.13 110.91 89.92C109.36 89.71 107.9 89.01 106.73 87.91C105.56 86.81 104.72 85.37 104.32 83.75C103.92 82.14 103.99 80.43 104.5 78.85C105.02 77.26 105.98 75.87 107.24 74.86C108.26 74.05 109.69 74.26 110.44 75.33C111.18 76.4 110.96 77.92 109.95 78.73Z" fill="#FFFFFF" fill-opacity="1.000000" fill-rule="evenodd"/>
        <path id="path7903" d="M105.05 95.03C105.84 95.86 106.38 96.94 106.59 98.1C106.81 99.27 106.7 100.48 106.27 101.58C105.84 102.68 105.11 103.61 104.18 104.26C103.24 104.92 102.15 105.26 101.04 105.24C99.92 105.23 98.84 104.85 97.92 104.17C97.01 103.5 96.3 102.54 95.9 101.43C95.5 100.32 95.41 99.11 95.66 97.95C95.91 96.78 96.47 95.73 97.29 94.91L105.05 95.03Z" fill="#367136" fill-opacity="1.000000" fill-rule="nonzero"/>
        <path id="path7903 (Stroke)" d="M98.85 96.69C98.37 97.17 98.03 97.8 97.89 98.48C97.74 99.17 97.79 99.89 98.03 100.55C98.27 101.2 98.68 101.77 99.23 102.17C99.77 102.58 100.41 102.8 101.07 102.81C101.73 102.81 102.38 102.61 102.93 102.23C103.48 101.84 103.91 101.29 104.16 100.64C104.42 99.99 104.49 99.27 104.36 98.58C104.23 97.89 103.91 97.26 103.44 96.76C102.55 95.81 102.54 94.27 103.43 93.31C104.31 92.36 105.76 92.35 106.65 93.29C107.77 94.47 108.52 95.98 108.83 97.62C109.14 99.27 108.98 100.97 108.37 102.52C107.76 104.07 106.74 105.38 105.42 106.3C104.11 107.22 102.57 107.7 101 107.68C99.43 107.65 97.91 107.13 96.62 106.18C95.33 105.22 94.34 103.88 93.77 102.31L95.9 101.43L93.77 102.31C93.21 100.75 93.09 99.04 93.44 97.41C93.79 95.77 94.58 94.29 95.73 93.14C96.65 92.22 98.09 92.27 98.95 93.25C99.81 94.23 99.77 95.77 98.85 96.69Z" fill="#FFFFFF" fill-opacity="1.000000" fill-rule="evenodd"/>
        <path id="path7905" d="M81.99 93.55C83.01 94.01 83.88 94.8 84.49 95.8C85.09 96.8 85.41 97.97 85.38 99.16C85.36 100.35 85.01 101.5 84.37 102.48C83.73 103.45 82.83 104.2 81.79 104.62C80.74 105.04 79.61 105.13 78.52 104.86C77.44 104.58 76.45 103.97 75.7 103.1C74.94 102.23 74.44 101.13 74.27 99.96C74.1 98.78 74.26 97.58 74.74 96.5L81.99 93.55Z" fill="#367136" fill-opacity="1.000000" fill-rule="nonzero"/>
        <path id="path7905 (Stroke)" d="M76.85 97.55C76.55 98.22 76.46 98.96 76.56 99.67C76.66 100.39 76.96 101.03 77.39 101.53C77.83 102.03 78.38 102.37 78.99 102.52C79.61 102.67 80.26 102.63 80.88 102.38C81.5 102.13 82.05 101.68 82.44 101.08C82.84 100.48 83.06 99.76 83.07 99.03C83.08 98.3 82.89 97.61 82.54 97.02C82.19 96.45 81.69 96 81.12 95.74C79.93 95.2 79.36 93.78 79.84 92.57C80.32 91.36 81.67 90.81 82.86 91.35C84.33 92.02 85.58 93.15 86.44 94.57C87.3 95.99 87.73 97.63 87.7 99.28C87.67 100.93 87.18 102.53 86.29 103.87C85.41 105.22 84.16 106.26 82.69 106.86C81.23 107.46 79.61 107.58 78.05 107.19C76.49 106.8 75.08 105.92 74 104.67C72.92 103.43 72.22 101.88 71.98 100.24C71.75 98.6 71.97 96.93 72.63 95.44C73.15 94.25 74.52 93.76 75.69 94.34C76.85 94.92 77.37 96.36 76.85 97.55Z" fill="#FFFFFF" fill-opacity="1.000000" fill-rule="evenodd"/>
        <path id="path7907" d="M127.31 96.21C127.84 97.25 128.06 98.45 127.95 99.63C127.84 100.82 127.4 101.94 126.69 102.85C125.98 103.77 125.03 104.44 123.96 104.77C122.89 105.1 121.75 105.09 120.69 104.72C119.63 104.36 118.69 103.67 118 102.73C117.31 101.8 116.9 100.66 116.82 99.47C116.74 98.29 116.99 97.1 117.54 96.07C118.1 95.04 118.93 94.2 119.93 93.68L127.31 96.21Z" fill="#367136" fill-opacity="1.000000" fill-rule="nonzero"/>
        <path id="path7907 (Stroke)" d="M120.91 95.82C120.34 96.12 119.87 96.6 119.55 97.2C119.22 97.8 119.07 98.5 119.12 99.23C119.17 99.95 119.42 100.65 119.84 101.22C120.27 101.8 120.84 102.22 121.47 102.43C122.09 102.65 122.75 102.65 123.36 102.46C123.97 102.27 124.51 101.89 124.92 101.37C125.33 100.84 125.59 100.18 125.66 99.47C125.73 98.76 125.59 98.03 125.27 97.38C124.68 96.22 125.12 94.75 126.25 94.1C127.38 93.45 128.78 93.87 129.36 95.03C130.09 96.48 130.4 98.14 130.25 99.79C130.09 101.45 129.48 103.04 128.46 104.34C127.45 105.65 126.08 106.6 124.55 107.08C123.02 107.56 121.4 107.53 119.91 107.02C118.42 106.51 117.11 105.54 116.16 104.24C115.2 102.94 114.63 101.37 114.52 99.72C114.4 98.07 114.75 96.4 115.54 94.94C116.32 93.47 117.51 92.28 118.94 91.53C120.09 90.93 121.47 91.4 122.01 92.58C122.55 93.77 122.06 95.22 120.91 95.82Z" fill="#FFFFFF" fill-opacity="1.000000" fill-rule="evenodd"/>
        <path id="path7909" d="M92.66 111.04C93.68 111.51 94.55 112.29 95.16 113.29C95.76 114.29 96.08 115.46 96.05 116.65C96.03 117.84 95.68 118.99 95.04 119.97C94.4 120.94 93.5 121.69 92.46 122.11C91.42 122.54 90.28 122.62 89.19 122.35C88.11 122.08 87.13 121.47 86.37 120.59C85.61 119.72 85.11 118.62 84.94 117.45C84.77 116.27 84.93 115.07 85.41 113.99L92.66 111.04Z" fill="#367136" fill-opacity="1.000000" fill-rule="nonzero"/>
        <path id="path7909 (Stroke)" d="M87.52 115.05C87.23 115.71 87.13 116.45 87.23 117.17C87.34 117.88 87.63 118.52 88.07 119.02C88.5 119.52 89.05 119.86 89.67 120.01C90.28 120.17 90.93 120.12 91.55 119.87C92.17 119.62 92.72 119.17 93.11 118.57C93.51 117.97 93.73 117.25 93.74 116.52C93.75 115.8 93.56 115.1 93.21 114.52C92.86 113.94 92.36 113.49 91.79 113.23C90.6 112.69 90.03 111.27 90.51 110.06C91 108.85 92.35 108.31 93.53 108.84C95 109.52 96.25 110.64 97.11 112.06C97.97 113.48 98.4 115.12 98.37 116.77C98.34 118.42 97.85 120.02 96.96 121.37C96.08 122.71 94.83 123.76 93.36 124.35L92.46 122.11L93.36 124.35C91.9 124.95 90.28 125.07 88.72 124.68C87.16 124.29 85.75 123.41 84.67 122.17C83.59 120.92 82.89 119.37 82.65 117.73C82.42 116.09 82.64 114.42 83.3 112.93C83.82 111.74 85.19 111.25 86.36 111.83C87.52 112.42 88.04 113.86 87.52 115.05Z" fill="#FFFFFF" fill-opacity="1.000000" fill-rule="evenodd"/>
        <path id="path7911" d="M115.65 113.46C116.18 114.51 116.4 115.7 116.29 116.88C116.18 118.07 115.74 119.19 115.03 120.11C114.32 121.02 113.36 121.69 112.29 122.02C111.22 122.36 110.09 122.34 109.03 121.98C107.96 121.61 107.03 120.92 106.34 119.98C105.65 119.05 105.24 117.91 105.16 116.73C105.07 115.54 105.33 114.35 105.88 113.32C106.43 112.29 107.26 111.46 108.26 110.93L115.65 113.46Z" fill="#367136" fill-opacity="1.000000" fill-rule="nonzero"/>
        <path id="path7911 (Stroke)" d="M109.25 113.08C108.68 113.37 108.21 113.85 107.88 114.45C107.56 115.05 107.41 115.76 107.46 116.48C107.51 117.2 107.76 117.9 108.18 118.48C108.61 119.05 109.17 119.47 109.8 119.68C110.43 119.9 111.09 119.9 111.7 119.71C112.31 119.53 112.85 119.15 113.26 118.62C113.67 118.09 113.93 117.44 114 116.72C114.06 116.01 113.93 115.28 113.6 114.63C113.02 113.47 113.46 112 114.59 111.35C115.72 110.71 117.11 111.12 117.7 112.28C118.43 113.74 118.74 115.39 118.59 117.05C118.43 118.7 117.81 120.29 116.8 121.59C115.78 122.9 114.42 123.85 112.89 124.33C111.36 124.81 109.74 124.78 108.25 124.27C106.75 123.76 105.45 122.79 104.5 121.49C103.54 120.2 102.97 118.63 102.86 116.97C102.74 115.32 103.09 113.66 103.88 112.19C104.66 110.73 105.85 109.54 107.28 108.78C108.43 108.18 109.81 108.65 110.35 109.83C110.89 111.02 110.4 112.47 109.25 113.08Z" fill="#FFFFFF" fill-opacity="1.000000" fill-rule="evenodd"/>
        <path id="path7913" d="M104.94 130.79C105.73 131.63 106.27 132.7 106.49 133.86C106.71 135.03 106.59 136.24 106.16 137.34C105.73 138.44 105 139.37 104.07 140.03C103.14 140.68 102.05 141.02 100.93 141C99.82 140.99 98.73 140.61 97.82 139.94C96.9 139.26 96.2 138.3 95.8 137.19C95.39 136.08 95.31 134.87 95.56 133.71C95.8 132.55 96.37 131.49 97.18 130.67L104.94 130.79Z" fill="#367136" fill-opacity="1.000000" fill-rule="nonzero"/>
        <path id="path7913 (Stroke)" d="M98.74 132.45C98.26 132.93 97.93 133.56 97.78 134.24C97.63 134.93 97.68 135.65 97.92 136.31C98.16 136.96 98.58 137.53 99.12 137.93C99.66 138.34 100.31 138.56 100.97 138.57C101.63 138.58 102.27 138.37 102.82 137.99C103.37 137.6 103.81 137.05 104.06 136.4C104.31 135.75 104.38 135.03 104.25 134.34C104.12 133.65 103.8 133.02 103.34 132.52C102.44 131.57 102.44 130.03 103.32 129.07C104.21 128.12 105.65 128.11 106.55 129.06C107.66 130.23 108.42 131.74 108.73 133.38C109.03 135.03 108.87 136.73 108.27 138.28C107.66 139.83 106.63 141.14 105.32 142.06C104.01 142.98 102.47 143.46 100.9 143.44C99.33 143.42 97.8 142.89 96.52 141.94C95.23 140.98 94.24 139.64 93.67 138.07C93.1 136.51 92.99 134.8 93.33 133.17C93.68 131.53 94.48 130.05 95.62 128.9C96.54 127.98 97.99 128.03 98.85 129.01C99.71 129.99 99.66 131.53 98.74 132.45Z" fill="#FFFFFF" fill-opacity="1.000000" fill-rule="evenodd"/>
        <path id="path7915" d="M136.06 115.49C136.21 116.66 136.03 117.87 135.54 118.93C135.05 120 134.28 120.89 133.31 121.49C132.34 122.08 131.23 122.35 130.12 122.26C129.01 122.18 127.95 121.74 127.07 121.01C126.2 120.27 125.55 119.27 125.2 118.14C124.86 117.01 124.85 115.79 125.16 114.65C125.47 113.5 126.09 112.48 126.94 111.72C127.8 110.96 128.85 110.49 129.96 110.37L136.06 115.49Z" fill="#367136" fill-opacity="1.000000" fill-rule="nonzero"/>
        <path id="path7915 (Stroke)" d="M130.17 112.72C129.57 112.78 128.98 113.04 128.49 113.48C128 113.92 127.62 114.52 127.42 115.23C127.23 115.94 127.24 116.71 127.46 117.42C127.67 118.14 128.08 118.75 128.6 119.18C129.12 119.62 129.73 119.86 130.34 119.91C130.95 119.96 131.56 119.81 132.1 119.48C132.65 119.14 133.11 118.63 133.41 117.97C133.71 117.32 133.82 116.57 133.73 115.83C133.56 114.54 134.47 113.34 135.75 113.15C137.04 112.96 138.22 113.85 138.39 115.14C138.6 116.76 138.36 118.41 137.68 119.89C137 121.38 135.9 122.64 134.51 123.5C133.12 124.35 131.52 124.74 129.91 124.62C128.3 124.5 126.78 123.86 125.55 122.83C124.32 121.8 123.42 120.41 122.95 118.86C122.48 117.3 122.46 115.64 122.89 114.06C123.31 112.48 124.18 111.05 125.4 109.97C126.62 108.88 128.13 108.19 129.74 108.02C131.03 107.88 132.18 108.81 132.3 110.11C132.42 111.41 131.47 112.57 130.17 112.72Z" fill="#FFFFFF" fill-opacity="1.000000" fill-rule="evenodd"/>
        <path id="path7917" d="M125.38 133.99C125.53 135.17 125.35 136.37 124.86 137.44C124.37 138.51 123.59 139.4 122.63 139.99C121.66 140.59 120.55 140.86 119.44 140.77C118.33 140.69 117.27 140.25 116.39 139.51C115.51 138.78 114.86 137.78 114.52 136.65C114.18 135.51 114.16 134.3 114.47 133.15C114.78 132.01 115.41 130.99 116.26 130.23C117.12 129.47 118.17 129 119.27 128.88L125.38 133.99Z" fill="#367136" fill-opacity="1.000000" fill-rule="nonzero"/>
        <path id="path7917 (Stroke)" d="M119.49 131.22C118.89 131.29 118.3 131.55 117.81 131.99C117.31 132.43 116.93 133.03 116.74 133.74C116.55 134.45 116.56 135.22 116.77 135.93C116.99 136.64 117.39 137.25 117.91 137.69C118.43 138.13 119.04 138.37 119.66 138.42C120.27 138.47 120.88 138.32 121.42 137.98L122.63 139.99L121.42 137.98C121.97 137.65 122.43 137.13 122.73 136.48C123.03 135.83 123.14 135.08 123.04 134.34C122.88 133.04 123.78 131.85 125.07 131.66C126.36 131.47 127.54 132.36 127.71 133.65C127.92 135.26 127.68 136.92 127 138.4C126.31 139.89 125.22 141.15 123.83 142C122.44 142.86 120.84 143.25 119.22 143.13C117.61 143 116.1 142.37 114.87 141.34C113.63 140.3 112.74 138.92 112.27 137.36C111.8 135.81 111.78 134.14 112.2 132.57C112.63 130.99 113.5 129.56 114.71 128.47C115.93 127.39 117.45 126.7 119.06 126.53C120.35 126.39 121.5 127.32 121.62 128.62C121.74 129.92 120.79 131.08 119.49 131.22Z" fill="#FFFFFF" fill-opacity="1.000000" fill-rule="evenodd"/>
        <path id="path7919" d="M69.5 110.92C70.61 110.9 71.7 111.24 72.64 111.89C73.57 112.54 74.3 113.47 74.74 114.57C75.17 115.66 75.29 116.87 75.07 118.04C74.86 119.21 74.32 120.28 73.53 121.12C72.74 121.96 71.74 122.53 70.64 122.76C69.55 122.98 68.42 122.85 67.39 122.38C66.37 121.92 65.5 121.13 64.89 120.13C64.29 119.13 63.98 117.96 64 116.77L69.5 110.92Z" fill="#367136" fill-opacity="1.000000" fill-rule="nonzero"/>
        <path id="path7919 (Stroke)" d="M66.36 116.82C66.34 117.57 66.54 118.3 66.91 118.91C67.28 119.52 67.79 119.98 68.37 120.24C68.95 120.5 69.57 120.57 70.17 120.45C70.77 120.32 71.35 120.01 71.82 119.51L73.53 121.12L71.82 119.51C72.29 119.01 72.62 118.35 72.76 117.61C72.89 116.88 72.82 116.12 72.55 115.43C72.28 114.75 71.83 114.2 71.29 113.82C70.76 113.45 70.15 113.27 69.54 113.28C68.24 113.3 67.16 112.26 67.14 110.96C67.12 109.66 68.15 108.59 69.45 108.56C71.07 108.53 72.65 109.03 73.98 109.95C75.31 110.88 76.33 112.19 76.93 113.7C77.53 115.21 77.68 116.87 77.39 118.47C77.1 120.07 76.36 121.56 75.25 122.74C74.14 123.92 72.7 124.74 71.12 125.07C69.53 125.39 67.89 125.2 66.41 124.53C64.94 123.86 63.72 122.74 62.88 121.35C62.04 119.96 61.61 118.35 61.64 116.73C61.67 115.43 62.74 114.39 64.04 114.41C65.35 114.44 66.38 115.51 66.36 116.82Z" fill="#FFFFFF" fill-opacity="1.000000" fill-rule="evenodd"/>
        <path id="path7919" d="M80.85 129.36C81.97 129.34 83.06 129.67 84 130.33C84.93 130.97 85.66 131.91 86.09 133C86.53 134.1 86.65 135.31 86.43 136.48C86.22 137.65 85.68 138.72 84.89 139.56C84.1 140.4 83.1 140.97 82 141.2C80.91 141.42 79.78 141.29 78.75 140.82C77.73 140.35 76.86 139.57 76.25 138.57C75.65 137.57 75.34 136.4 75.36 135.21L80.85 129.36Z" fill="#367136" fill-opacity="1.000000" fill-rule="nonzero"/>
        <path id="path7919 (Stroke)" d="M77.71 135.25C77.7 136.01 77.9 136.74 78.27 137.35C78.64 137.96 79.15 138.41 79.73 138.68C80.3 138.94 80.93 139.01 81.53 138.89C82.13 138.76 82.71 138.44 83.17 137.95L84.89 139.56L83.17 137.95C83.64 137.45 83.98 136.79 84.11 136.05C84.25 135.32 84.17 134.55 83.9 133.87C83.63 133.19 83.19 132.64 82.65 132.26C82.11 131.89 81.5 131.71 80.9 131.72C79.59 131.74 78.52 130.7 78.5 129.4C78.47 128.1 79.51 127.03 80.81 127C82.43 126.97 84.01 127.46 85.34 128.39C86.67 129.31 87.69 130.63 88.29 132.14C88.88 133.65 89.04 135.3 88.75 136.9C88.46 138.5 87.72 139.99 86.61 141.17C85.5 142.36 84.06 143.18 82.48 143.5C80.89 143.83 79.25 143.64 77.77 142.97C76.3 142.3 75.07 141.18 74.23 139.79C73.4 138.4 72.97 136.79 73 135.17C73.03 133.86 74.1 132.83 75.4 132.85C76.7 132.88 77.74 133.95 77.71 135.25Z" fill="#FFFFFF" fill-opacity="1.000000" fill-rule="evenodd"/>
        <path id="path8150" d="M82.93 163.77C83.77 164.8 84.01 166.02 83.58 167.16C83.15 168.31 82.09 169.29 80.63 169.89C79.18 170.49 77.45 170.65 75.82 170.35C74.19 170.05 72.8 169.31 71.94 168.29C71.09 167.26 70.85 166.04 71.27 164.9C71.69 163.75 72.74 162.76 74.19 162.16C75.64 161.55 77.37 161.38 79 161.67C80.63 161.97 82.03 162.7 82.89 163.72L82.93 163.77Z" fill="#FFFFFF" fill-opacity="1.000000" fill-rule="nonzero"/>
        <path id="path8146" d="M91.5 174.4C92.35 175.43 92.58 176.65 92.15 177.79C91.72 178.94 90.66 179.92 89.21 180.52C87.75 181.12 86.02 181.28 84.39 180.98C82.76 180.68 81.37 179.94 80.52 178.92C79.66 177.89 79.42 176.67 79.84 175.53C80.26 174.38 81.31 173.39 82.76 172.79C84.21 172.18 85.94 172.01 87.57 172.3C89.2 172.6 90.6 173.33 91.47 174.35L91.5 174.4Z" fill="#FFFFFF" fill-opacity="1.000000" fill-rule="nonzero"/>
        <path id="path7925" d="M137.87 213.47C124.55 214.11 112.06 214.32 99.05 210.96C91.43 210.2 76.55 215.72 60.85 215.89C50.55 216.75 50.51 212.27 54.2 205.93C59.66 196.65 82.93 183.75 100.9 172.87C94.36 172.68 79.63 167.98 77.92 160.47C76.7 155.38 78.12 149.29 83.45 147.68C89.03 145.98 90.32 145.5 98.64 148.16C101.43 148.25 104.44 151.71 106.92 153.4C110.45 157.71 114.71 161.06 115.64 168.79C115.5 172.21 115.27 175.64 113.34 179.06C109.27 183.47 99.89 190.14 94.59 192.54C99.63 190.82 109.07 185.2 113.8 182.68C121.04 194.49 129.43 204.03 137.87 213.47Z" fill="#FFFFFF" fill-opacity="1.000000" fill-rule="evenodd"/>
        <path id="path7925 (Stroke)" d="M84.04 149.2L83.93 149.23L83.92 149.24C81.83 149.87 80.48 151.36 79.76 153.33C79.02 155.34 78.95 157.8 79.5 160.09L79.51 160.11C79.83 161.53 80.8 162.95 82.38 164.33C83.94 165.69 86 166.91 88.27 167.94C92.82 170 97.93 171.16 100.95 171.25C101.67 171.27 102.29 171.76 102.47 172.46C102.65 173.16 102.36 173.89 101.74 174.26C99.19 175.81 96.53 177.39 93.85 179C87.04 183.06 80 187.26 73.75 191.36C69.4 194.22 65.48 197 62.31 199.63C59.13 202.27 56.82 204.67 55.6 206.75C54.71 208.27 54.1 209.6 53.8 210.71C53.5 211.83 53.56 212.52 53.75 212.93C53.91 213.28 54.3 213.71 55.39 214.03C56.52 214.35 58.23 214.48 60.71 214.27C60.75 214.27 60.79 214.26 60.83 214.26C68.51 214.18 76.03 212.79 82.67 211.49C83.09 211.4 83.52 211.32 83.94 211.23C86.76 210.68 89.43 210.15 91.83 209.78C94.57 209.37 97.09 209.14 99.21 209.35C99.29 209.36 99.37 209.37 99.45 209.39C111.12 212.4 122.37 212.5 134.39 212C127.02 203.71 119.7 195.12 113.23 184.84C112.36 185.32 111.39 185.85 110.37 186.43C108.74 187.33 106.95 188.33 105.08 189.34C101.52 191.27 97.78 193.17 95.11 194.08C94.3 194.36 93.4 193.94 93.08 193.14C92.76 192.33 93.13 191.42 93.92 191.06C96.43 189.93 100 187.73 103.48 185.23C106.88 182.79 110.08 180.16 112.02 178.1C113.64 175.14 113.88 172.16 114.01 168.86C113.29 163.15 110.68 160.18 107.75 156.85C107.11 156.13 106.46 155.39 105.81 154.6C105.18 154.16 104.54 153.64 103.93 153.13C103.8 153.02 103.67 152.91 103.54 152.8C102.99 152.34 102.45 151.89 101.91 151.47C100.49 150.38 99.41 149.81 98.59 149.78C98.44 149.77 98.29 149.75 98.15 149.7C94 148.37 91.8 147.91 90.02 147.91C88.27 147.91 86.82 148.35 84.04 149.2ZM98.94 146.55C94.89 145.26 92.32 144.66 90.02 144.66C87.78 144.66 85.89 145.24 83.36 146.01C83.24 146.05 83.11 146.09 82.98 146.13C79.75 147.11 77.72 149.46 76.71 152.21C75.71 154.91 75.67 158.04 76.34 160.84C76.87 163.17 78.38 165.15 80.25 166.78C82.13 168.41 84.48 169.79 86.93 170.9C89.94 172.26 93.2 173.27 96.09 173.87C94.82 174.63 93.54 175.4 92.25 176.17C85.41 180.25 78.28 184.5 71.97 188.64C67.58 191.53 63.54 194.39 60.24 197.13C56.97 199.85 54.31 202.54 52.8 205.1L52.8 205.11C51.84 206.75 51.08 208.36 50.67 209.85C50.27 211.33 50.16 212.89 50.81 214.29C51.48 215.75 52.8 216.66 54.5 217.15C56.15 217.62 58.29 217.73 60.92 217.51C68.92 217.42 76.68 215.97 83.29 214.67C83.72 214.59 84.15 214.5 84.57 214.42C87.41 213.86 90 213.35 92.32 212.99C94.94 212.6 97.09 212.42 98.77 212.57C112 215.96 124.66 215.73 137.95 215.09C138.57 215.06 139.13 214.68 139.37 214.1C139.61 213.52 139.5 212.86 139.08 212.39C130.64 202.95 122.34 193.5 115.18 181.83C114.85 181.29 114.26 181.01 113.66 181.06C113.97 180.75 114.26 180.45 114.54 180.16C114.62 180.07 114.69 179.97 114.76 179.86C116.9 176.06 117.12 172.29 117.26 168.86C117.26 168.77 117.26 168.69 117.25 168.6C116.42 161.72 113.05 157.92 110.03 154.51C109.39 153.79 108.76 153.08 108.18 152.37C108.08 152.25 107.96 152.14 107.83 152.05C107.29 151.68 106.69 151.2 106.01 150.63C105.89 150.53 105.77 150.43 105.64 150.32C105.09 149.86 104.49 149.36 103.89 148.9C102.54 147.86 100.81 146.7 98.94 146.55Z" fill="#573314" fill-opacity="1.000000" fill-rule="evenodd"/>
        <path id="path8013" d="M91.28 152.9C90.76 153.92 90.47 154.45 90.62 156.13C91.55 157.29 92.22 158.43 94.25 156.99C95.54 155.79 95.23 154.99 95.15 153.9C94.46 152.25 94.55 151.7 93.63 151.44C92.5 151.24 91.87 152.41 91.28 152.9Z" fill="#573314" fill-opacity="1.000000" fill-rule="evenodd"/>
        <path id="path8023" d="M50.35 144.51C37.9 143.66 31.14 140.28 19 138.47C28.21 138.78 32.41 139.71 41.79 139C31.76 135.45 32.26 134.53 22.91 130.43C34.96 134.7 37.49 133.95 52.02 136.06L50.35 144.51Z" fill="#367136" fill-opacity="1.000000" fill-rule="evenodd"/>
        <path id="path8057" d="M97.16 71.19C94.91 69.3 94.74 67.03 96.84 64.35L92.36 68.59L95.25 61.63L90.89 67.04L92.01 60.07L89.48 66.03L88.06 60.03L87.27 66.95L84.92 60.4C86.23 66.5 84.65 68.34 83.11 72.22C88.04 69.8 92.38 68.49 97.16 71.19Z" fill="#FFFFFF" fill-opacity="1.000000" fill-rule="evenodd"/>
        <path id="path8057 (Stroke)" d="M88.03 59.52C88.28 59.5 88.5 59.67 88.56 59.91L89.62 64.38L91.54 59.87C91.64 59.63 91.9 59.5 92.16 59.57C92.41 59.64 92.56 59.89 92.52 60.15L91.71 65.2L94.85 61.3C95.01 61.1 95.29 61.05 95.51 61.18C95.74 61.31 95.83 61.59 95.73 61.82L93.77 66.54L96.48 63.98C96.68 63.79 96.99 63.79 97.19 63.97C97.38 64.15 97.41 64.46 97.24 64.67C96.24 65.96 95.83 67.07 95.88 68.04C95.94 68.99 96.44 69.91 97.49 70.79C97.7 70.96 97.74 71.26 97.58 71.48C97.43 71.7 97.14 71.77 96.91 71.64C92.36 69.08 88.24 70.28 83.34 72.68C83.15 72.78 82.92 72.74 82.76 72.6C82.6 72.45 82.55 72.23 82.63 72.03C82.89 71.39 83.14 70.79 83.39 70.24C83.51 69.95 83.64 69.66 83.75 69.39C84.09 68.59 84.38 67.83 84.58 67.02C84.98 65.4 85.06 63.5 84.42 60.51C84.36 60.24 84.52 59.98 84.78 59.91C85.04 59.83 85.32 59.97 85.41 60.23L87.01 64.69L87.54 59.97C87.57 59.72 87.77 59.53 88.03 59.52ZM90.83 64.16L89.95 66.23C89.86 66.43 89.65 66.56 89.43 66.54C89.21 66.52 89.02 66.36 88.97 66.14L88.24 63.03L87.78 67.01C87.75 67.25 87.57 67.44 87.33 67.47C87.09 67.49 86.86 67.35 86.78 67.13L85.92 64.72C85.9 65.66 85.78 66.49 85.59 67.27C85.36 68.16 85.05 68.97 84.7 69.8C84.58 70.09 84.45 70.38 84.32 70.67C84.25 70.84 84.18 71.01 84.11 71.17C87.91 69.43 91.51 68.47 95.32 69.79C95.05 69.26 94.88 68.69 94.85 68.1C94.83 67.68 94.87 67.25 94.97 66.83L92.72 68.96C92.54 69.13 92.27 69.15 92.07 69.01C91.87 68.87 91.79 68.61 91.88 68.39L93.39 64.76L91.29 67.36C91.15 67.54 90.9 67.6 90.68 67.51C90.47 67.41 90.35 67.18 90.38 66.95L90.83 64.16Z" fill="#FFFFFF" fill-opacity="1.000000" fill-rule="evenodd"/>
        <path id="path8059" d="M127.74 74.65C127.19 72.75 125.91 71.18 123.87 69.96L127.09 64.04L121.91 68.45L123.45 61.48L119.86 67.91L119.01 61.04L117.2 67.55L114.36 62.04C114.1 64.55 114.71 67.49 110.35 67.94C115.55 68.68 124.83 72.14 127.74 74.65Z" fill="#FFFFFF" fill-opacity="1.000000" fill-rule="evenodd"/>
        <path id="path8059 (Stroke)" d="M119.06 60.47C119.33 60.49 119.55 60.7 119.59 60.97L120.22 66.09L122.94 61.2C123.08 60.95 123.38 60.84 123.65 60.94C123.92 61.04 124.07 61.32 124.01 61.6L122.84 66.9L126.72 63.6C126.93 63.42 127.24 63.42 127.46 63.6C127.67 63.77 127.73 64.08 127.6 64.32L124.63 69.76C126.51 71 127.74 72.58 128.29 74.5C128.36 74.74 128.26 75 128.05 75.14C127.83 75.28 127.55 75.26 127.36 75.09C125.99 73.9 123.03 72.44 119.7 71.17C116.39 69.91 112.81 68.87 110.27 68.51C109.98 68.47 109.77 68.22 109.78 67.93C109.78 67.64 110 67.4 110.29 67.37C111.32 67.26 112 67.01 112.46 66.71C112.91 66.4 113.18 66.02 113.35 65.56C113.54 65.09 113.62 64.54 113.66 63.92C113.68 63.69 113.69 63.43 113.7 63.17C113.72 62.77 113.74 62.36 113.78 61.98C113.81 61.73 114 61.52 114.25 61.47C114.5 61.42 114.75 61.55 114.87 61.77L117.04 65.98L118.46 60.89C118.53 60.62 118.78 60.45 119.06 60.47ZM118.79 63.98L117.76 67.7C117.69 67.93 117.5 68.1 117.26 68.12C117.03 68.14 116.8 68.02 116.69 67.81L114.8 64.15C114.75 64.76 114.66 65.39 114.43 65.97C114.18 66.62 113.77 67.21 113.1 67.66C113.01 67.72 112.92 67.78 112.83 67.83C115.09 68.35 117.68 69.17 120.11 70.09C122.44 70.98 124.67 71.99 126.33 72.98C125.69 72.02 124.78 71.18 123.57 70.46C123.3 70.3 123.21 69.96 123.36 69.69L125.1 66.49L122.28 68.89C122.09 69.05 121.82 69.07 121.61 68.94C121.4 68.82 121.29 68.57 121.35 68.33L122.04 65.19L120.37 68.19C120.25 68.41 120 68.52 119.75 68.48C119.51 68.43 119.32 68.23 119.29 67.98L118.79 63.98Z" fill="#FFFFFF" fill-opacity="1.000000" fill-rule="evenodd"/>
        <path id="path8061" d="M125.77 89.39C127.51 85.76 127.26 83.55 127.88 80.71L129.08 88.59L133.45 83.57L131.82 89.97L138.31 86.6L134.4 91.2L142.04 91.64L136.09 93.15L141.79 96.64C138.81 95.1 135.8 94.86 132.56 98.67C133.18 90.85 129.42 90.3 125.77 89.39Z" fill="#FFFFFF" fill-opacity="1.000000" fill-rule="evenodd"/>
        <path id="path8061 (Stroke)" d="M127.9 80.15C128.18 80.15 128.41 80.36 128.45 80.63L129.46 87.29L133.02 83.19C133.19 82.99 133.48 82.94 133.71 83.06C133.94 83.19 134.06 83.45 134 83.71L132.68 88.88L138.05 86.1C138.29 85.97 138.58 86.03 138.75 86.25C138.92 86.46 138.92 86.76 138.74 86.97L135.57 90.7L142.08 91.07C142.36 91.09 142.58 91.31 142.61 91.59C142.64 91.86 142.46 92.12 142.18 92.19L137.54 93.37L142.09 96.16C142.35 96.32 142.44 96.66 142.29 96.92C142.14 97.19 141.8 97.29 141.53 97.15C140.09 96.4 138.72 96.01 137.36 96.21C136 96.41 134.55 97.2 132.99 99.03C132.83 99.22 132.57 99.29 132.34 99.19C132.11 99.1 131.97 98.87 131.99 98.62C132.29 94.79 131.51 92.91 130.38 91.86C129.29 90.84 127.79 90.48 126.09 90.06C125.94 90.02 125.79 89.98 125.63 89.94C125.47 89.9 125.33 89.79 125.26 89.63C125.18 89.48 125.18 89.3 125.26 89.15C126.1 87.39 126.46 85.98 126.69 84.66C126.78 84.13 126.84 83.63 126.91 83.11C126.93 82.97 126.95 82.82 126.97 82.68C127.07 82.01 127.17 81.32 127.33 80.59C127.39 80.32 127.63 80.14 127.9 80.15ZM126.57 89C128.17 89.39 129.88 89.84 131.15 91.02C132.45 92.23 133.21 94.11 133.19 97.17C134.52 95.94 135.85 95.28 137.19 95.08C137.48 95.04 137.77 95.02 138.06 95.02L135.8 93.63C135.6 93.51 135.5 93.29 135.53 93.06C135.57 92.84 135.73 92.65 135.95 92.6L138.32 92L134.37 91.77C134.15 91.76 133.96 91.62 133.88 91.43C133.79 91.23 133.83 91 133.97 90.83L136 88.44L132.08 90.47C131.88 90.58 131.64 90.55 131.47 90.41C131.29 90.27 131.21 90.05 131.27 89.83L132.31 85.75L129.51 88.97C129.37 89.13 129.14 89.2 128.92 89.14C128.71 89.08 128.55 88.9 128.52 88.68L127.88 84.43C127.85 84.57 127.83 84.71 127.81 84.85C127.59 86.09 127.27 87.42 126.57 89Z" fill="#FFFFFF" fill-opacity="1.000000" fill-rule="evenodd"/>
        <path id="path8075" d="M143.65 100.28L129.63 105.41C132.61 107.04 134.44 107.88 135.07 110.94L143.65 108.25L134.81 108.79L142.39 105.01L134.05 106.09L143.65 100.28Z" fill="#FFFFFF" fill-opacity="1.000000" fill-rule="evenodd"/>
        <path id="path8075 (Stroke)" d="M144.24 100C144.38 100.3 144.27 100.66 143.99 100.84L137.01 105.05L142.31 104.37C142.62 104.33 142.92 104.52 143.01 104.82C143.1 105.12 142.96 105.44 142.68 105.58L137.94 107.95L143.61 107.6C143.94 107.58 144.23 107.81 144.29 108.13C144.35 108.45 144.16 108.76 143.85 108.86L135.26 111.56C135.08 111.62 134.89 111.59 134.74 111.5C134.58 111.41 134.47 111.25 134.43 111.07C134.15 109.67 133.6 108.82 132.81 108.12C132.06 107.47 131.09 106.94 129.81 106.24C129.65 106.16 129.49 106.07 129.32 105.98C129.1 105.86 128.97 105.62 128.99 105.36C129.01 105.11 129.17 104.89 129.41 104.8L143.43 99.68C143.74 99.56 144.09 99.7 144.24 100ZM134.6 108.17L138.67 106.14L134.14 106.73C133.83 106.77 133.55 106.59 133.45 106.3C133.34 106.01 133.46 105.69 133.72 105.53L137.61 103.18L131.2 105.53C132.14 106.05 132.97 106.55 133.66 107.15C134.01 107.46 134.32 107.8 134.6 108.17ZM135.28 109.4C135.37 109.63 135.45 109.87 135.53 110.12L138.42 109.21L135.28 109.4Z" fill="#FFFFFF" fill-opacity="1.000000" fill-rule="evenodd"/>
        <path id="path8077" d="M140.51 124.08C143.57 125.31 144.84 126.49 150.27 126.46L137.48 128.39L140.51 124.08Z" fill="#FFFFFF" fill-opacity="1.000000" fill-rule="evenodd"/>
        <path id="path8077 (Stroke)" d="M139.98 123.71C140.15 123.46 140.47 123.37 140.75 123.48C141.36 123.72 141.9 123.97 142.41 124.2C142.55 124.26 142.69 124.32 142.82 124.38C143.45 124.66 144.04 124.91 144.7 125.13C146 125.55 147.6 125.83 150.26 125.81C150.6 125.81 150.88 126.07 150.91 126.41C150.94 126.75 150.7 127.05 150.36 127.1L137.57 129.03C137.32 129.07 137.06 128.95 136.93 128.73C136.79 128.52 136.8 128.24 136.95 128.02L139.98 123.71ZM140.74 124.87L138.87 127.53L145.1 126.59C144.83 126.52 144.56 126.44 144.3 126.36C143.58 126.12 142.94 125.85 142.3 125.56C142.15 125.5 142.01 125.43 141.87 125.37C141.5 125.21 141.14 125.04 140.74 124.87Z" fill="#FFFFFF" fill-opacity="1.000000" fill-rule="evenodd"/>
        <path id="path8079" d="M131.05 135.72C136.2 135.81 141.66 134.1 146.78 133.25C142.3 135.88 137.38 136.2 132.66 137.56C136.47 138.86 140.17 140.25 144.74 141.67C139.94 141.22 135.38 139.93 131.68 141.95C134.49 143.47 137.14 145.02 142.15 146.15L123.94 145.37C127.54 144.74 131.92 138.17 131.05 135.72Z" fill="#FFFFFF" fill-opacity="1.000000" fill-rule="evenodd"/>
        <path id="path8079 (Stroke)" d="M147.39 133.03C147.5 133.32 147.38 133.65 147.11 133.8C144.79 135.17 142.37 135.92 139.96 136.51C139.03 136.74 138.11 136.94 137.2 137.13C136.42 137.3 135.65 137.47 134.89 137.65C135.45 137.85 136.01 138.04 136.58 138.24C139.17 139.15 141.85 140.1 144.93 141.06C145.25 141.16 145.44 141.48 145.37 141.8C145.31 142.13 145.01 142.35 144.68 142.32C143.65 142.22 142.63 142.08 141.63 141.95C141.46 141.93 141.28 141.9 141.11 141.88C139.95 141.73 138.84 141.59 137.76 141.53C136.08 141.43 134.54 141.52 133.14 142.01C135.55 143.31 138.05 144.57 142.29 145.52C142.62 145.59 142.83 145.9 142.79 146.24C142.75 146.57 142.46 146.81 142.12 146.8L123.91 146.02C123.58 146 123.32 145.75 123.29 145.42C123.27 145.09 123.5 144.8 123.83 144.74C124.57 144.61 125.42 144.15 126.28 143.44C127.14 142.74 127.96 141.83 128.65 140.86C129.34 139.88 129.89 138.86 130.21 137.96C130.54 137.03 130.59 136.34 130.44 135.94C130.37 135.74 130.41 135.52 130.53 135.35C130.65 135.17 130.85 135.07 131.06 135.08C133.57 135.12 136.17 134.73 138.8 134.21C139.78 134.01 140.77 133.8 141.76 133.59C143.42 133.23 145.07 132.88 146.68 132.61C146.99 132.56 147.29 132.73 147.39 133.03ZM131.81 136.37C131.82 137.01 131.67 137.71 131.42 138.39C131.05 139.43 130.44 140.55 129.7 141.6C128.95 142.65 128.06 143.66 127.1 144.44C126.93 144.58 126.76 144.71 126.59 144.84L137.03 145.29C135.02 144.5 133.45 143.65 131.89 142.8C131.72 142.71 131.55 142.61 131.37 142.52C131.16 142.4 131.03 142.19 131.03 141.95C131.03 141.71 131.16 141.5 131.37 141.38C133.38 140.29 135.58 140.11 137.84 140.24C138.06 140.25 138.28 140.27 138.5 140.28C137.69 140 136.9 139.73 136.12 139.45C134.88 139.02 133.67 138.59 132.45 138.17C132.18 138.08 132 137.83 132.01 137.55C132.02 137.26 132.21 137.02 132.48 136.94C133.96 136.51 135.49 136.18 137 135.85C137.02 135.85 137.04 135.84 137.07 135.84C135.31 136.13 133.55 136.34 131.81 136.37Z" fill="#FFFFFF" fill-opacity="1.000000" fill-rule="evenodd"/>
        <path id="path8083" d="M70.06 99.91C70.18 95.04 70.3 94.48 72.76 92.15C67.73 91.25 66.91 88.71 64.03 86.53L69.01 93.39L57.45 89.62L66.76 94.76L54.24 94.76L64.84 96.48C64.28 99.06 60.53 99.09 56.65 100.94C60.74 99.88 66.82 98.22 70.06 99.91Z" fill="#FFFFFF" fill-opacity="1.000000" fill-rule="evenodd"/>
        <path id="path8083 (Stroke)" d="M63.63 86.11C63.83 85.91 64.15 85.89 64.38 86.07C65.14 86.64 65.75 87.23 66.31 87.79C66.41 87.89 66.51 87.98 66.6 88.08C67.06 88.54 67.49 88.97 67.97 89.38C69.08 90.33 70.45 91.14 72.86 91.57C73.08 91.61 73.25 91.77 73.31 91.98C73.38 92.19 73.32 92.42 73.16 92.57C71.93 93.73 71.38 94.37 71.08 95.26C70.76 96.2 70.7 97.45 70.64 99.92C70.64 100.12 70.53 100.3 70.36 100.41C70.18 100.51 69.97 100.51 69.79 100.42C68.35 99.67 66.18 99.64 63.75 99.97C61.5 100.28 59.15 100.89 57.16 101.41C57.04 101.44 56.91 101.47 56.79 101.5C56.5 101.58 56.2 101.42 56.1 101.14C56 100.86 56.13 100.55 56.4 100.42C57.4 99.94 58.39 99.58 59.3 99.28C59.61 99.17 59.9 99.08 60.19 98.98C60.76 98.8 61.29 98.63 61.79 98.44C62.94 98.01 63.68 97.57 64.05 96.94L54.14 95.34C53.85 95.29 53.63 95.02 53.66 94.72C53.68 94.42 53.93 94.18 54.24 94.18L64.51 94.18L57.17 90.13C56.91 89.98 56.8 89.66 56.92 89.39C57.04 89.11 57.34 88.97 57.63 89.06L67.49 92.28L63.56 86.87C63.39 86.64 63.42 86.31 63.63 86.11ZM67.8 90.73L69.48 93.05C69.63 93.25 69.63 93.53 69.48 93.73C69.33 93.94 69.07 94.02 68.83 93.94L63.08 92.07L67.04 94.26C67.27 94.38 67.39 94.65 67.32 94.91C67.26 95.17 67.03 95.34 66.76 95.34L61.46 95.34L64.93 95.91C65.08 95.93 65.22 96.02 65.31 96.15C65.4 96.28 65.44 96.45 65.4 96.6C65.18 97.62 64.56 98.3 63.75 98.8C65.79 98.53 67.85 98.49 69.5 99.04C69.56 97.13 69.64 95.89 69.98 94.89C70.29 93.98 70.8 93.29 71.58 92.49C69.93 92.07 68.76 91.45 67.8 90.73Z" fill="#FFFFFF" fill-opacity="1.000000" fill-rule="evenodd"/>
        <path id="path8085" d="M75.47 75.64C76.41 79.96 76.72 83.73 79.68 87.25C77.87 86.4 77.48 87.68 74.24 88.16C75.82 83.87 74.55 79.78 75.47 75.64Z" fill="#FFFFFF" fill-opacity="1.000000" fill-rule="evenodd"/>
        <path id="path8085 (Stroke)" d="M75.48 75.08C75.74 75.08 75.96 75.26 76.02 75.52C76.18 76.24 76.31 76.94 76.45 77.62C77.13 81.09 77.72 84.06 80.11 86.9C80.28 87.1 80.28 87.39 80.12 87.59C79.96 87.8 79.68 87.87 79.45 87.76C79.05 87.57 78.77 87.52 78.53 87.53C78.29 87.53 78.04 87.6 77.69 87.73C77.58 87.77 77.45 87.82 77.32 87.87C76.65 88.14 75.74 88.5 74.32 88.71C74.12 88.74 73.93 88.66 73.8 88.51C73.68 88.35 73.65 88.15 73.71 87.96C74.47 85.92 74.55 83.91 74.55 81.84C74.54 81.58 74.54 81.31 74.54 81.04C74.53 79.24 74.51 77.38 74.93 75.51C74.99 75.26 75.22 75.08 75.48 75.08ZM75.06 87.44C75.84 87.26 76.41 87.03 76.9 86.84C77.04 86.78 77.17 86.73 77.3 86.68C77.63 86.56 77.98 86.45 78.35 86.42C76.82 84.17 76.17 81.81 75.66 79.34C75.65 79.9 75.65 80.46 75.65 81.02C75.66 81.29 75.66 81.57 75.66 81.84C75.66 83.64 75.61 85.51 75.06 87.44Z" fill="#FFFFFF" fill-opacity="1.000000" fill-rule="evenodd"/>
        <path id="path8152" d="M66.8 106.96C59.34 103.8 58.42 104.97 58.42 104.97L66.11 108.49L66.8 106.96Z" fill="#FFFFFF" fill-opacity="1.000000" fill-rule="evenodd"/>
        <path id="path8152 (Stroke)" d="M59.86 104.21C61.11 104.32 63.27 104.84 67.02 106.43C67.17 106.49 67.28 106.61 67.34 106.75C67.39 106.9 67.39 107.06 67.33 107.2L66.64 108.73C66.57 108.87 66.46 108.98 66.31 109.03C66.17 109.09 66.01 109.08 65.87 109.02L58.18 105.5C58.02 105.42 57.9 105.28 57.86 105.11C57.81 104.94 57.85 104.75 57.96 104.61L58.42 104.97C57.96 104.61 57.96 104.61 57.96 104.61L57.97 104.61L57.97 104.61L57.98 104.6C57.98 104.59 57.99 104.58 58 104.57C58.01 104.56 58.02 104.55 58.04 104.53C58.07 104.5 58.11 104.47 58.16 104.44C58.25 104.38 58.36 104.33 58.51 104.28C58.81 104.2 59.23 104.15 59.86 104.21ZM61.21 105.61L65.82 107.72L66.03 107.27C63.86 106.37 62.31 105.88 61.21 105.61Z" fill="#FFFFFF" fill-opacity="1.000000" fill-rule="evenodd"/>
        <path id="path8154" d="M32.44 197.33C27.37 198.56 23.33 202.04 20.52 204.41C23.58 203.37 27.26 202.11 30.5 201.78C32.22 201.73 32.16 201.72 31.96 202.78L35.92 192.31C35.05 193.28 33.81 196.66 32.44 197.33Z" fill="#573314" fill-opacity="1.000000" fill-rule="evenodd"/>
        <path id="path8154 (Stroke)" d="M35.15 193.38C35.41 192.92 35.65 192.52 35.87 192.27L35.97 192.33L32.02 202.8L31.9 202.77C31.91 202.74 31.92 202.7 31.92 202.67C31.97 202.45 32 202.29 32 202.17C32.01 202.03 31.98 201.96 31.92 201.92C31.85 201.86 31.71 201.84 31.48 201.83C31.26 201.82 30.96 201.83 30.56 201.84C30.54 201.84 30.52 201.84 30.5 201.84C27.28 202.17 23.63 203.42 20.57 204.46L20.54 204.47L20.48 204.37C20.56 204.3 20.63 204.24 20.71 204.17C23.51 201.81 27.48 198.48 32.42 197.27C32.75 197.11 33.07 196.78 33.39 196.36C33.71 195.94 34.02 195.43 34.32 194.9C34.46 194.64 34.61 194.38 34.75 194.12L34.77 194.07C34.9 193.83 35.03 193.6 35.15 193.38ZM33.49 196.43C33.16 196.86 32.82 197.21 32.47 197.38L32.46 197.38L32.45 197.38C27.55 198.58 23.6 201.89 20.8 204.25C23.8 203.23 27.35 202.04 30.49 201.72L30.5 201.72L30.5 201.72C30.52 201.72 30.54 201.72 30.56 201.72C30.96 201.71 31.26 201.7 31.48 201.71C31.72 201.72 31.88 201.74 31.99 201.82C32.1 201.9 32.13 202.02 32.12 202.18C32.12 202.18 32.12 202.19 32.12 202.2L35.72 192.67C35.57 192.89 35.42 193.15 35.25 193.44C35.13 193.66 35.01 193.89 34.88 194.13L34.85 194.18C34.71 194.43 34.57 194.7 34.42 194.96C34.12 195.49 33.81 196 33.49 196.43Z" fill="#573314" fill-opacity="1.000000" fill-rule="evenodd"/>
    </g>
</svg>
