<svg width="209.000000" height="313.000000" viewBox="0 0 209 313" fill="none" xmlns="http://www.w3.org/2000/svg" xmlns:xlink="http://www.w3.org/1999/xlink">
    <desc>
        Created with Pixso.
    </desc>
    <defs>
        <filter id="filter_4_1566_dd" x="0.000000" y="0.000000" width="209.000000" height="313.000000" filterUnits="userSpaceOnUse" color-interpolation-filters="sRGB">
            <feFlood flood-opacity="0" result="BackgroundImageFix"/>
            <feColorMatrix in="SourceAlpha" type="matrix" values="0 0 0 0 0 0 0 0 0 0 0 0 0 0 0 0 0 0 127 0" result="hardAlpha"/>
            <feOffset dx="0" dy="4"/>
            <feGaussianBlur stdDeviation="1.33333"/>
            <feComposite in2="hardAlpha" operator="out" k2="-1" k3="1"/>
            <feColorMatrix type="matrix" values="0 0 0 0 0 0 0 0 0 0 0 0 0 0 0 0 0 0 0.25 0"/>
            <feBlend mode="normal" in2="BackgroundImageFix" result="effect_dropShadow_1"/>
            <feBlend mode="normal" in="SourceGraphic" in2="effect_dropShadow_1" result="shape"/>
        </filter>
        <filter id="filter_4_1569_dd" x="4.000000" y="8.000000" width="195.000000" height="297.000000" filterUnits="userSpaceOnUse" color-interpolation-filters="sRGB">
            <feFlood flood-opacity="0" result="BackgroundImageFix"/>
            <feColorMatrix in="SourceAlpha" type="matrix" values="0 0 0 0 0 0 0 0 0 0 0 0 0 0 0 0 0 0 127 0" result="hardAlpha"/>
            <feOffset dx="0" dy="4"/>
            <feGaussianBlur stdDeviation="1.33333"/>
            <feComposite in2="hardAlpha" operator="out" k2="-1" k3="1"/>
            <feColorMatrix type="matrix" values="0 0 0 0 0 0 0 0 0 0 0 0 0 0 0 0 0 0 0.25 0"/>
            <feBlend mode="normal" in2="BackgroundImageFix" result="effect_dropShadow_1"/>
            <feBlend mode="normal" in="SourceGraphic" in2="effect_dropShadow_1" result="shape"/>
        </filter>
        <filter id="filter_4_1930_dd" x="27.000000" y="52.000000" width="150.630127" height="205.834290" filterUnits="userSpaceOnUse" color-interpolation-filters="sRGB">
            <feFlood flood-opacity="0" result="BackgroundImageFix"/>
            <feBlend mode="normal" in="SourceGraphic" in2="BackgroundImageFix" result="shape"/>
            <feColorMatrix in="SourceAlpha" type="matrix" values="0 0 0 0 0 0 0 0 0 0 0 0 0 0 0 0 0 0 127 0" result="hardAlpha"/>
            <feOffset dx="0" dy="4"/>
            <feGaussianBlur stdDeviation="1.33333"/>
            <feComposite in2="hardAlpha" operator="arithmetic" k2="-1" k3="1"/>
            <feColorMatrix type="matrix" values="0 0 0 0 0 0 0 0 0 0 0 0 0 0 0 0 0 0 0.25 0"/>
            <feBlend mode="normal" in2="shape" result="effect_innerShadow_1"/>
        </filter>
    </defs>
    <g filter="url(#filter_4_1566_dd)">
        <rect id="Rectangle 1" x="8.000000" rx="20.000000" width="197.000000" height="297.000000" fill="#985B26" fill-opacity="1.000000"/>
        <rect id="Rectangle 1" x="8.500000" y="0.500000" rx="20.000000" width="196.000000" height="296.000000" stroke="#000000" stroke-opacity="1.000000" stroke-width="1.000000"/>
        <g filter="url(#filter_4_1569_dd)">
            <rect id="Rectangle 2" x="8.000000" y="8.000000" rx="20.000000" width="187.000000" height="289.000000" fill="#FFF0DB" fill-opacity="1.000000"/>
            <rect id="Rectangle 2" x="8.500000" y="8.500000" rx="20.000000" width="186.000000" height="288.000000" stroke="#000000" stroke-opacity="1.000000" stroke-width="1.000000"/>
        </g>
        <g filter="url(#filter_4_1930_dd)">
            <path id="ellipse4339" d="M93.87 73.55C100.72 73.55 106.28 69.25 106.28 63.95C106.28 58.65 100.72 54.35 93.87 54.35C87.02 54.35 81.47 58.65 81.47 63.95C81.47 69.25 87.02 73.55 93.87 73.55Z" fill="#367136" fill-opacity="1.000000" fill-rule="nonzero"/>
            <path id="ellipse4341" d="M108.43 73.55C115.28 73.55 120.83 69.25 120.83 63.95C120.83 58.65 115.28 54.35 108.43 54.35C101.58 54.35 96.02 58.65 96.02 63.95C96.02 69.25 101.58 73.55 108.43 73.55Z" fill="#367136" fill-opacity="1.000000" fill-rule="nonzero"/>
            <path id="ellipse4343" d="M93.26 148.62C100.11 148.62 105.66 144.32 105.66 139.02C105.66 133.72 100.11 129.42 93.26 129.42C86.41 129.42 80.86 133.72 80.86 139.02C80.86 144.32 86.41 148.62 93.26 148.62Z" fill="#367136" fill-opacity="1.000000" fill-rule="nonzero"/>
            <path id="path4345 (Stroke)" d="M101.17 52C108.81 52 114.99 58.18 114.99 65.82L114.99 133.5C114.99 141.13 108.81 147.32 101.17 147.32C93.54 147.32 87.35 141.13 87.35 133.5L87.35 65.82C87.35 58.18 93.54 52 101.17 52Z" fill="#367136" fill-opacity="1.000000" fill-rule="evenodd"/>
            <path id="ellipse4347" d="M109.24 148.62C116.09 148.62 121.65 144.32 121.65 139.02C121.65 133.72 116.09 129.42 109.24 129.42C102.39 129.42 96.84 133.72 96.84 139.02C96.84 144.32 102.39 148.62 109.24 148.62Z" fill="#367136" fill-opacity="1.000000" fill-rule="nonzero"/>
            <path id="ellipse4349" d="M106.91 111.08C116.01 111.08 123.39 105.37 123.39 98.33C123.39 91.28 116.01 85.58 106.91 85.58C97.81 85.58 90.43 91.28 90.43 98.33C90.43 105.37 97.81 111.08 106.91 111.08Z" fill="#367136" fill-opacity="1.000000" fill-rule="nonzero"/>
            <path id="ellipse4351" d="M95.51 111.08C104.61 111.08 111.99 105.37 111.99 98.33C111.99 91.28 104.61 85.58 95.51 85.58C86.41 85.58 79.04 91.28 79.04 98.33C79.04 105.37 86.41 111.08 95.51 111.08Z" fill="#367136" fill-opacity="1.000000" fill-rule="nonzero"/>
            <path id="path4353 (Stroke)" d="M101.17 63.47C102.91 63.47 104.32 64.87 104.32 66.61L104.32 85.63C104.32 87.37 102.91 88.77 101.17 88.77C99.44 88.77 98.03 87.37 98.03 85.63L98.03 66.61C98.03 64.87 99.44 63.47 101.17 63.47Z" fill="#FFFFFF" fill-opacity="1.000000" fill-rule="evenodd"/>
            <path id="path4355 (Stroke)" d="M101.17 109.62C102.91 109.62 104.32 111.03 104.32 112.77L104.32 136.25C104.32 137.99 102.91 139.4 101.17 139.4C99.44 139.4 98.03 137.99 98.03 136.25L98.03 112.77C98.03 111.03 99.44 109.62 101.17 109.62Z" fill="#FFFFFF" fill-opacity="1.000000" fill-rule="evenodd"/>
            <path id="ellipse4357" d="M101.17 69.88C103.67 69.88 105.69 67.92 105.69 65.51C105.69 63.1 103.67 61.14 101.17 61.14C98.68 61.14 96.65 63.1 96.65 65.51C96.65 67.92 98.68 69.88 101.17 69.88Z" fill="#FFFFFF" fill-opacity="1.000000" fill-rule="nonzero"/>
            <path id="path4359 (Stroke)" d="M101.38 105.1C100.1 105.09 99.11 105.61 98.66 106.29C97.87 107.5 96.24 107.84 95.03 107.04C93.82 106.25 93.49 104.63 94.28 103.42C95.96 100.86 98.88 99.83 101.43 99.86C103.94 99.88 106.85 100.95 108.35 103.54C109.07 104.8 108.64 106.4 107.39 107.12C106.14 107.85 104.53 107.42 103.81 106.16C103.52 105.66 102.69 105.11 101.38 105.1Z" fill="#FFFFFF" fill-opacity="1.000000" fill-rule="evenodd"/>
            <path id="path4361 (Stroke)" d="M101.38 95.91C100.1 95.9 99.11 96.42 98.66 97.1C97.87 98.31 96.24 98.65 95.03 97.85C93.82 97.06 93.49 95.43 94.28 94.22C95.96 91.67 98.88 90.64 101.43 90.67C103.94 90.69 106.85 91.76 108.35 94.35C109.07 95.61 108.64 97.21 107.39 97.93C106.14 98.66 104.53 98.23 103.81 96.97C103.52 96.47 102.69 95.92 101.38 95.91Z" fill="#FFFFFF" fill-opacity="1.000000" fill-rule="evenodd"/>
            <path id="ellipse4273" d="M41.83 182.76C48.68 182.76 54.23 178.46 54.23 173.16C54.23 167.86 48.68 163.56 41.83 163.56C34.98 163.56 29.43 167.86 29.43 173.16C29.43 178.46 34.98 182.76 41.83 182.76Z" fill="#367136" fill-opacity="1.000000" fill-rule="nonzero"/>
            <path id="ellipse4275" d="M56.39 182.76C63.24 182.76 68.79 178.46 68.79 173.16C68.79 167.86 63.24 163.56 56.39 163.56C49.54 163.56 43.98 167.86 43.98 173.16C43.98 178.46 49.54 182.76 56.39 182.76Z" fill="#367136" fill-opacity="1.000000" fill-rule="nonzero"/>
            <path id="ellipse4277" d="M41.22 257.83C48.07 257.83 53.62 253.53 53.62 248.23C53.62 242.93 48.07 238.63 41.22 238.63C34.37 238.63 28.82 242.93 28.82 248.23C28.82 253.53 34.37 257.83 41.22 257.83Z" fill="#367136" fill-opacity="1.000000" fill-rule="nonzero"/>
            <path id="path4279 (Stroke)" d="M49.13 161.21C56.77 161.21 62.95 167.4 62.95 175.03L62.95 242.71C62.95 250.35 56.77 256.53 49.13 256.53C41.5 256.53 35.31 250.35 35.31 242.71L35.31 175.03C35.31 167.4 41.5 161.21 49.13 161.21Z" fill="#367136" fill-opacity="1.000000" fill-rule="evenodd"/>
            <path id="ellipse4281" d="M57.2 257.83C64.05 257.83 69.61 253.53 69.61 248.23C69.61 242.93 64.05 238.63 57.2 238.63C50.35 238.63 44.8 242.93 44.8 248.23C44.8 253.53 50.35 257.83 57.2 257.83Z" fill="#367136" fill-opacity="1.000000" fill-rule="nonzero"/>
            <path id="ellipse4283" d="M54.87 220.29C63.97 220.29 71.34 214.58 71.34 207.54C71.34 200.5 63.97 194.79 54.87 194.79C45.77 194.79 38.39 200.5 38.39 207.54C38.39 214.58 45.77 220.29 54.87 220.29Z" fill="#367136" fill-opacity="1.000000" fill-rule="nonzero"/>
            <path id="ellipse4285" d="M43.47 220.29C52.57 220.29 59.95 214.58 59.95 207.54C59.95 200.5 52.57 194.79 43.47 194.79C34.37 194.79 27 200.5 27 207.54C27 214.58 34.37 220.29 43.47 220.29Z" fill="#367136" fill-opacity="1.000000" fill-rule="nonzero"/>
            <path id="path4287 (Stroke)" d="M49.13 172.68C50.87 172.68 52.28 174.09 52.28 175.82L52.28 194.84C52.28 196.58 50.87 197.99 49.13 197.99C47.4 197.99 45.99 196.58 45.99 194.84L45.99 175.82C45.99 174.09 47.4 172.68 49.13 172.68Z" fill="#FFFFFF" fill-opacity="1.000000" fill-rule="evenodd"/>
            <path id="path4289 (Stroke)" d="M49.13 218.84C50.87 218.84 52.28 220.24 52.28 221.98L52.28 245.47C52.28 247.2 50.87 248.61 49.13 248.61C47.4 248.61 45.99 247.2 45.99 245.47L45.99 221.98C45.99 220.24 47.4 218.84 49.13 218.84Z" fill="#FFFFFF" fill-opacity="1.000000" fill-rule="evenodd"/>
            <path id="ellipse4291" d="M49.13 179.09C51.63 179.09 53.65 177.14 53.65 174.72C53.65 172.31 51.63 170.35 49.13 170.35C46.64 170.35 44.61 172.31 44.61 174.72C44.61 177.14 46.64 179.09 49.13 179.09Z" fill="#FFFFFF" fill-opacity="1.000000" fill-rule="nonzero"/>
            <path id="path4293 (Stroke)" d="M49.34 214.31C48.06 214.3 47.07 214.82 46.62 215.5C45.83 216.71 44.2 217.05 42.99 216.26C41.78 215.46 41.45 213.84 42.24 212.63C43.92 210.07 46.84 209.05 49.38 209.07C51.9 209.09 54.81 210.16 56.31 212.76C57.03 214.01 56.6 215.61 55.35 216.34C54.1 217.06 52.49 216.63 51.77 215.38C51.48 214.88 50.65 214.32 49.34 214.31Z" fill="#FFFFFF" fill-opacity="1.000000" fill-rule="evenodd"/>
            <path id="path4295 (Stroke)" d="M49.34 205.12C48.06 205.11 47.07 205.63 46.62 206.31C45.83 207.52 44.2 207.86 42.99 207.07C41.78 206.27 41.45 204.65 42.24 203.44C43.92 200.88 46.84 199.86 49.38 199.88C51.9 199.9 54.81 200.97 56.31 203.57C57.03 204.82 56.6 206.42 55.35 207.14C54.1 207.87 52.49 207.44 51.77 206.19C51.48 205.69 50.65 205.13 49.34 205.12Z" fill="#FFFFFF" fill-opacity="1.000000" fill-rule="evenodd"/>
            <path id="ellipse4299" d="M148.11 182.76C154.96 182.76 160.52 178.46 160.52 173.16C160.52 167.86 154.96 163.56 148.11 163.56C141.26 163.56 135.71 167.86 135.71 173.16C135.71 178.46 141.26 182.76 148.11 182.76Z" fill="#367136" fill-opacity="1.000000" fill-rule="nonzero"/>
            <path id="ellipse4301" d="M162.67 182.76C169.52 182.76 175.07 178.46 175.07 173.16C175.07 167.86 169.52 163.56 162.67 163.56C155.82 163.56 150.27 167.86 150.27 173.16C150.27 178.46 155.82 182.76 162.67 182.76Z" fill="#367136" fill-opacity="1.000000" fill-rule="nonzero"/>
            <path id="ellipse4303" d="M147.5 257.83C154.35 257.83 159.9 253.53 159.9 248.23C159.9 242.93 154.35 238.63 147.5 238.63C140.65 238.63 135.1 242.93 135.1 248.23C135.1 253.53 140.65 257.83 147.5 257.83Z" fill="#367136" fill-opacity="1.000000" fill-rule="nonzero"/>
            <path id="path4305 (Stroke)" d="M155.41 161.21C163.05 161.21 169.23 167.4 169.23 175.03L169.23 242.71C169.23 250.35 163.05 256.53 155.41 256.53C147.78 256.53 141.59 250.35 141.59 242.71L141.59 175.03C141.59 167.4 147.78 161.21 155.41 161.21Z" fill="#367136" fill-opacity="1.000000" fill-rule="evenodd"/>
            <path id="ellipse4307" d="M163.48 257.83C170.33 257.83 175.89 253.53 175.89 248.23C175.89 242.93 170.33 238.63 163.48 238.63C156.63 238.63 151.08 242.93 151.08 248.23C151.08 253.53 156.63 257.83 163.48 257.83Z" fill="#367136" fill-opacity="1.000000" fill-rule="nonzero"/>
            <path id="ellipse4309" d="M161.15 220.29C170.25 220.29 177.63 214.58 177.63 207.54C177.63 200.5 170.25 194.79 161.15 194.79C152.05 194.79 144.67 200.5 144.67 207.54C144.67 214.58 152.05 220.29 161.15 220.29Z" fill="#367136" fill-opacity="1.000000" fill-rule="nonzero"/>
            <path id="ellipse4311" d="M149.75 220.29C158.85 220.29 166.23 214.58 166.23 207.54C166.23 200.5 158.85 194.79 149.75 194.79C140.65 194.79 133.28 200.5 133.28 207.54C133.28 214.58 140.65 220.29 149.75 220.29Z" fill="#367136" fill-opacity="1.000000" fill-rule="nonzero"/>
            <path id="path4313 (Stroke)" d="M155.41 172.68C157.15 172.68 158.56 174.09 158.56 175.82L158.56 194.84C158.56 196.58 157.15 197.99 155.41 197.99C153.68 197.99 152.27 196.58 152.27 194.84L152.27 175.82C152.27 174.09 153.68 172.68 155.41 172.68Z" fill="#FFFFFF" fill-opacity="1.000000" fill-rule="evenodd"/>
            <path id="path4315 (Stroke)" d="M155.41 218.84C157.15 218.84 158.56 220.24 158.56 221.98L158.56 245.47C158.56 247.2 157.15 248.61 155.41 248.61C153.68 248.61 152.27 247.2 152.27 245.47L152.27 221.98C152.27 220.24 153.68 218.84 155.41 218.84Z" fill="#FFFFFF" fill-opacity="1.000000" fill-rule="evenodd"/>
            <path id="ellipse4317" d="M155.41 179.09C157.91 179.09 159.93 177.14 159.93 174.72C159.93 172.31 157.91 170.35 155.41 170.35C152.92 170.35 150.89 172.31 150.89 174.72C150.89 177.14 152.92 179.09 155.41 179.09Z" fill="#FFFFFF" fill-opacity="1.000000" fill-rule="nonzero"/>
            <path id="path4319 (Stroke)" d="M155.62 214.31C154.34 214.3 153.35 214.82 152.9 215.5C152.11 216.71 150.48 217.05 149.27 216.26C148.06 215.46 147.73 213.84 148.52 212.63C150.2 210.07 153.12 209.05 155.67 209.07C158.18 209.09 161.09 210.16 162.59 212.76C163.31 214.01 162.88 215.61 161.63 216.34C160.38 217.06 158.77 216.63 158.05 215.38C157.76 214.88 156.93 214.32 155.62 214.31Z" fill="#FFFFFF" fill-opacity="1.000000" fill-rule="evenodd"/>
            <path id="path4321 (Stroke)" d="M155.62 205.12C154.34 205.11 153.35 205.63 152.9 206.31C152.11 207.52 150.48 207.86 149.27 207.07C148.06 206.27 147.73 204.65 148.52 203.44C150.2 200.88 153.12 199.86 155.67 199.88C158.18 199.9 161.09 200.97 162.59 203.57C163.31 204.82 162.88 206.42 161.63 207.14C160.38 207.87 158.77 207.44 158.05 206.19C157.76 205.69 156.93 205.13 155.62 205.12Z" fill="#FFFFFF" fill-opacity="1.000000" fill-rule="evenodd"/>
        </g>
    </g>
</svg>
