<svg width="201.000000" height="305.000000" viewBox="0 0 201 305" fill="none" xmlns="http://www.w3.org/2000/svg" xmlns:xlink="http://www.w3.org/1999/xlink">
    <desc>
        Created with Pixso.
    </desc>
    <defs>
        <filter id="filter_4_2396_dd" x="0.000000" y="8.000000" width="195.000000" height="297.000000" filterUnits="userSpaceOnUse" color-interpolation-filters="sRGB">
            <feFlood flood-opacity="0" result="BackgroundImageFix"/>
            <feColorMatrix in="SourceAlpha" type="matrix" values="0 0 0 0 0 0 0 0 0 0 0 0 0 0 0 0 0 0 127 0" result="hardAlpha"/>
            <feOffset dx="0" dy="4"/>
            <feGaussianBlur stdDeviation="1.33333"/>
            <feComposite in2="hardAlpha" operator="out" k2="-1" k3="1"/>
            <feColorMatrix type="matrix" values="0 0 0 0 0 0 0 0 0 0 0 0 0 0 0 0 0 0 0.25 0"/>
            <feBlend mode="normal" in2="BackgroundImageFix" result="effect_dropShadow_1"/>
            <feBlend mode="normal" in="SourceGraphic" in2="effect_dropShadow_1" result="shape"/>
        </filter>
        <filter id="filter_4_2395_dd" x="0.000000" y="8.000000" width="195.000000" height="297.000000" filterUnits="userSpaceOnUse" color-interpolation-filters="sRGB">
            <feFlood flood-opacity="0" result="BackgroundImageFix"/>
            <feColorMatrix in="SourceAlpha" type="matrix" values="0 0 0 0 0 0 0 0 0 0 0 0 0 0 0 0 0 0 127 0" result="hardAlpha"/>
            <feOffset dx="0" dy="4"/>
            <feGaussianBlur stdDeviation="1.33333"/>
            <feComposite in2="hardAlpha" operator="out" k2="-1" k3="1"/>
            <feColorMatrix type="matrix" values="0 0 0 0 0 0 0 0 0 0 0 0 0 0 0 0 0 0 0.25 0"/>
            <feBlend mode="normal" in2="BackgroundImageFix" result="effect_dropShadow_1"/>
            <feBlend mode="normal" in="SourceGraphic" in2="effect_dropShadow_1" result="shape"/>
        </filter>
        <filter id="filter_4_2339_dd" x="30.000000" y="47.000000" width="133.000244" height="217.772217" filterUnits="userSpaceOnUse" color-interpolation-filters="sRGB">
            <feFlood flood-opacity="0" result="BackgroundImageFix"/>
            <feBlend mode="normal" in="SourceGraphic" in2="BackgroundImageFix" result="shape"/>
            <feColorMatrix in="SourceAlpha" type="matrix" values="0 0 0 0 0 0 0 0 0 0 0 0 0 0 0 0 0 0 127 0" result="hardAlpha"/>
            <feOffset dx="0" dy="4"/>
            <feGaussianBlur stdDeviation="1.33333"/>
            <feComposite in2="hardAlpha" operator="arithmetic" k2="-1" k3="1"/>
            <feColorMatrix type="matrix" values="0 0 0 0 0 0 0 0 0 0 0 0 0 0 0 0 0 0 0.25 0"/>
            <feBlend mode="normal" in2="shape" result="effect_innerShadow_1"/>
        </filter>
    </defs>
    <path id="Rectangle 1" d="M4 20C4 8.95 12.95 0 24 0L181 0C192.04 0 201 8.95 201 20L201 277C201 288.04 192.04 297 181 297L24 297C12.95 297 4 288.04 4 277L4 20Z" fill="#985B26" fill-opacity="1.000000" fill-rule="nonzero"/>
    <path id="Rectangle 1 (Stroke)" d="M181 1L24 1C13.5 1 5 9.5 5 20L5 277C5 287.49 13.5 296 24 296L181 296C191.49 296 200 287.49 200 277L200 20C200 9.5 191.49 1 181 1ZM24 0C12.95 0 4 8.95 4 20L4 277C4 288.04 12.95 297 24 297L181 297C192.04 297 201 288.04 201 277L201 20C201 8.95 192.04 0 181 0L24 0Z" fill="#454D9A" fill-opacity="1.000000" fill-rule="evenodd"/>
    <g filter="url(#filter_4_2396_dd)">
        <path id="Rectangle 2" d="M4 28C4 16.95 12.95 8 24 8L171 8C182.04 8 191 16.95 191 28L191 277C191 288.04 182.04 297 171 297L24 297C12.95 297 4 288.04 4 277L4 28Z" fill="#FFF0DB" fill-opacity="1.000000" fill-rule="nonzero"/>
    </g>
    <g filter="url(#filter_4_2395_dd)">
        <path id="Rectangle 2 (Stroke)" d="M171 9L24 9C13.5 9 5 17.5 5 28L5 277C5 287.49 13.5 296 24 296L171 296C181.49 296 190 287.49 190 277L190 28C190 17.5 181.49 9 171 9ZM24 8C12.95 8 4 16.95 4 28L4 277C4 288.04 12.95 297 24 297L171 297C182.04 297 191 288.04 191 277L191 28C191 16.95 182.04 8 171 8L24 8Z" fill="#454D9A" fill-opacity="1.000000" fill-rule="evenodd"/>
    </g>
    <g filter="url(#filter_4_2339_dd)">
        <path id="ellipse4277" d="M45.69 185.34C52.94 185.34 58.81 180.8 58.81 175.19C58.81 169.58 52.94 165.03 45.69 165.03C38.44 165.03 32.57 169.58 32.57 175.19C32.57 180.8 38.44 185.34 45.69 185.34Z" fill="#367136" fill-opacity="1.000000" fill-rule="nonzero"/>
        <path id="ellipse4280" d="M61.09 185.34C68.34 185.34 74.21 180.8 74.21 175.19C74.21 169.58 68.34 165.03 61.09 165.03C53.84 165.03 47.97 169.58 47.97 175.19C47.97 180.8 53.84 185.34 61.09 185.34Z" fill="#367136" fill-opacity="1.000000" fill-rule="nonzero"/>
        <path id="ellipse4282" d="M45.04 264.77C52.29 264.77 58.17 260.22 58.17 254.61C58.17 249.01 52.29 244.46 45.04 244.46C37.8 244.46 31.92 249.01 31.92 254.61C31.92 260.22 37.8 264.77 45.04 264.77Z" fill="#367136" fill-opacity="1.000000" fill-rule="nonzero"/>
        <path id="path4284 (Stroke)" d="M53.42 162.54C61.49 162.54 68.04 169.09 68.04 177.16L68.04 248.77C68.04 256.85 61.49 263.4 53.42 263.4C45.34 263.4 38.79 256.85 38.79 248.77L38.79 177.16C38.79 169.09 45.34 162.54 53.42 162.54Z" fill="#367136" fill-opacity="1.000000" fill-rule="evenodd"/>
        <path id="ellipse4286" d="M61.95 264.77C69.2 264.77 75.08 260.22 75.08 254.61C75.08 249.01 69.2 244.46 61.95 244.46C54.71 244.46 48.83 249.01 48.83 254.61C48.83 260.22 54.71 264.77 61.95 264.77Z" fill="#367136" fill-opacity="1.000000" fill-rule="nonzero"/>
        <path id="ellipse4288" d="M59.48 225.05C69.11 225.05 76.92 219.01 76.92 211.56C76.92 204.11 69.11 198.07 59.48 198.07C49.86 198.07 42.05 204.11 42.05 211.56C42.05 219.01 49.86 225.05 59.48 225.05Z" fill="#367136" fill-opacity="1.000000" fill-rule="nonzero"/>
        <path id="ellipse4290" d="M47.43 225.05C57.06 225.05 64.86 219.01 64.86 211.56C64.86 204.11 57.06 198.07 47.43 198.07C37.8 198.07 30 204.11 30 211.56C30 219.01 37.8 225.05 47.43 225.05Z" fill="#367136" fill-opacity="1.000000" fill-rule="nonzero"/>
        <path id="path4292 (Stroke)" d="M53.42 174.68C55.25 174.68 56.74 176.17 56.74 178.01L56.74 198.13C56.74 199.96 55.25 201.45 53.42 201.45C51.58 201.45 50.09 199.96 50.09 198.13L50.09 178.01C50.09 176.17 51.58 174.68 53.42 174.68Z" fill="#FFFFFF" fill-opacity="1.000000" fill-rule="evenodd"/>
        <path id="path4294 (Stroke)" d="M53.42 223.51C55.25 223.51 56.74 225 56.74 226.84L56.74 251.69C56.74 253.52 55.25 255.01 53.42 255.01C51.58 255.01 50.09 253.52 50.09 251.69L50.09 226.84C50.09 225 51.58 223.51 53.42 223.51Z" fill="#FFFFFF" fill-opacity="1.000000" fill-rule="evenodd"/>
        <path id="ellipse4296" d="M53.42 181.47C56.06 181.47 58.2 179.39 58.2 176.84C58.2 174.29 56.06 172.22 53.42 172.22C50.78 172.22 48.64 174.29 48.64 176.84C48.64 179.39 50.78 181.47 53.42 181.47Z" fill="#FFFFFF" fill-opacity="1.000000" fill-rule="nonzero"/>
        <path id="path4298 (Stroke)" d="M53.63 218.72C52.28 218.71 51.23 219.27 50.76 219.99C49.92 221.27 48.2 221.62 46.92 220.78C45.64 219.94 45.28 218.22 46.12 216.94C47.9 214.24 50.99 213.16 53.68 213.18C56.35 213.21 59.42 214.33 61.01 217.08C61.77 218.41 61.32 220.1 59.99 220.87C58.67 221.63 56.97 221.18 56.21 219.85C55.9 219.32 55.02 218.74 53.63 218.72Z" fill="#FFFFFF" fill-opacity="1.000000" fill-rule="evenodd"/>
        <path id="path4300 (Stroke)" d="M53.63 209C52.28 208.99 51.23 209.54 50.76 210.26C49.92 211.54 48.2 211.9 46.92 211.06C45.64 210.22 45.28 208.5 46.12 207.22C47.9 204.52 50.99 203.43 53.68 203.46C56.35 203.48 59.42 204.61 61.01 207.36C61.77 208.68 61.32 210.38 59.99 211.14C58.67 211.91 56.97 211.45 56.21 210.13C55.9 209.6 55.02 209.01 53.63 209Z" fill="#FFFFFF" fill-opacity="1.000000" fill-rule="evenodd"/>
        <path id="ellipse4304" d="M131.77 185.34C139.02 185.34 144.89 180.8 144.89 175.19C144.89 169.58 139.02 165.03 131.77 165.03C124.52 165.03 118.65 169.58 118.65 175.19C118.65 180.8 124.52 185.34 131.77 185.34Z" fill="#367136" fill-opacity="1.000000" fill-rule="nonzero"/>
        <path id="ellipse4306" d="M147.17 185.34C154.42 185.34 160.29 180.8 160.29 175.19C160.29 169.58 154.42 165.03 147.17 165.03C139.92 165.03 134.05 169.58 134.05 175.19C134.05 180.8 139.92 185.34 147.17 185.34Z" fill="#367136" fill-opacity="1.000000" fill-rule="nonzero"/>
        <path id="ellipse4308" d="M131.12 264.77C138.37 264.77 144.25 260.22 144.25 254.61C144.25 249.01 138.37 244.46 131.12 244.46C123.88 244.46 118 249.01 118 254.61C118 260.22 123.88 264.77 131.12 264.77Z" fill="#367136" fill-opacity="1.000000" fill-rule="nonzero"/>
        <path id="path4310 (Stroke)" d="M139.5 162.54C147.57 162.54 154.12 169.09 154.12 177.16L154.12 248.77C154.12 256.85 147.57 263.4 139.5 263.4C131.42 263.4 124.87 256.85 124.87 248.77L124.87 177.16C124.87 169.09 131.42 162.54 139.5 162.54Z" fill="#367136" fill-opacity="1.000000" fill-rule="evenodd"/>
        <path id="ellipse4312" d="M148.03 264.77C155.28 264.77 161.16 260.22 161.16 254.61C161.16 249.01 155.28 244.46 148.03 244.46C140.78 244.46 134.91 249.01 134.91 254.61C134.91 260.22 140.78 264.77 148.03 264.77Z" fill="#367136" fill-opacity="1.000000" fill-rule="nonzero"/>
        <path id="ellipse4314" d="M145.56 225.05C155.19 225.05 163 219.01 163 211.56C163 204.11 155.19 198.07 145.56 198.07C135.93 198.07 128.13 204.11 128.13 211.56C128.13 219.01 135.93 225.05 145.56 225.05Z" fill="#367136" fill-opacity="1.000000" fill-rule="nonzero"/>
        <path id="ellipse4316" d="M133.51 225.05C143.14 225.05 150.94 219.01 150.94 211.56C150.94 204.11 143.14 198.07 133.51 198.07C123.88 198.07 116.07 204.11 116.07 211.56C116.07 219.01 123.88 225.05 133.51 225.05Z" fill="#367136" fill-opacity="1.000000" fill-rule="nonzero"/>
        <path id="path4318 (Stroke)" d="M139.5 174.68C141.33 174.68 142.82 176.17 142.82 178.01L142.82 198.13C142.82 199.96 141.33 201.45 139.5 201.45C137.66 201.45 136.17 199.96 136.17 198.13L136.17 178.01C136.17 176.17 137.66 174.68 139.5 174.68Z" fill="#FFFFFF" fill-opacity="1.000000" fill-rule="evenodd"/>
        <path id="path4320 (Stroke)" d="M139.5 223.51C141.33 223.51 142.82 225 142.82 226.84L142.82 251.69C142.82 253.52 141.33 255.01 139.5 255.01C137.66 255.01 136.17 253.52 136.17 251.69L136.17 226.84C136.17 225 137.66 223.51 139.5 223.51Z" fill="#FFFFFF" fill-opacity="1.000000" fill-rule="evenodd"/>
        <path id="ellipse4322" d="M139.5 181.47C142.14 181.47 144.28 179.39 144.28 176.84C144.28 174.29 142.14 172.22 139.5 172.22C136.85 172.22 134.71 174.29 134.71 176.84C134.71 179.39 136.85 181.47 139.5 181.47Z" fill="#FFFFFF" fill-opacity="1.000000" fill-rule="nonzero"/>
        <path id="path4324 (Stroke)" d="M139.71 218.72C138.36 218.71 137.31 219.27 136.84 219.99C136 221.27 134.28 221.62 133 220.78C131.72 219.94 131.36 218.22 132.2 216.94C133.98 214.24 137.07 213.16 139.76 213.18C142.42 213.21 145.5 214.33 147.09 217.08C147.85 218.41 147.4 220.1 146.07 220.87C144.75 221.63 143.05 221.18 142.28 219.85C141.98 219.32 141.1 218.74 139.71 218.72Z" fill="#FFFFFF" fill-opacity="1.000000" fill-rule="evenodd"/>
        <path id="path4326 (Stroke)" d="M139.71 209C138.36 208.99 137.31 209.54 136.84 210.26C136 211.54 134.28 211.9 133 211.06C131.72 210.22 131.36 208.5 132.2 207.22C133.98 204.52 137.07 203.43 139.76 203.46C142.42 203.48 145.5 204.61 147.09 207.36C147.85 208.68 147.4 210.38 146.07 211.14C144.75 211.91 143.05 211.45 142.28 210.13C141.98 209.6 141.1 209.01 139.71 209Z" fill="#FFFFFF" fill-opacity="1.000000" fill-rule="evenodd"/>
        <path id="ellipse4339" d="M45.69 69.8C52.94 69.8 58.81 65.25 58.81 59.64C58.81 54.03 52.94 49.49 45.69 49.49C38.44 49.49 32.57 54.03 32.57 59.64C32.57 65.25 38.44 69.8 45.69 69.8Z" fill="#367136" fill-opacity="1.000000" fill-rule="nonzero"/>
        <path id="ellipse4341" d="M61.09 69.8C68.34 69.8 74.21 65.25 74.21 59.64C74.21 54.03 68.34 49.49 61.09 49.49C53.84 49.49 47.97 54.03 47.97 59.64C47.97 65.25 53.84 69.8 61.09 69.8Z" fill="#367136" fill-opacity="1.000000" fill-rule="nonzero"/>
        <path id="ellipse4343" d="M45.04 149.22C52.29 149.22 58.17 144.67 58.17 139.07C58.17 133.46 52.29 128.91 45.04 128.91C37.8 128.91 31.92 133.46 31.92 139.07C31.92 144.67 37.8 149.22 45.04 149.22Z" fill="#367136" fill-opacity="1.000000" fill-rule="nonzero"/>
        <path id="path4345 (Stroke)" d="M53.42 47C61.49 47 68.04 53.54 68.04 61.62L68.04 133.23C68.04 141.3 61.49 147.85 53.42 147.85C45.34 147.85 38.79 141.3 38.79 133.23L38.79 61.62C38.79 53.54 45.34 47 53.42 47Z" fill="#367136" fill-opacity="1.000000" fill-rule="evenodd"/>
        <path id="ellipse4347" d="M61.95 149.22C69.2 149.22 75.08 144.67 75.08 139.07C75.08 133.46 69.2 128.91 61.95 128.91C54.71 128.91 48.83 133.46 48.83 139.07C48.83 144.67 54.71 149.22 61.95 149.22Z" fill="#367136" fill-opacity="1.000000" fill-rule="nonzero"/>
        <path id="ellipse4349" d="M59.48 109.5C69.11 109.5 76.92 103.46 76.92 96.01C76.92 88.56 69.11 82.52 59.48 82.52C49.86 82.52 42.05 88.56 42.05 96.01C42.05 103.46 49.86 109.5 59.48 109.5Z" fill="#367136" fill-opacity="1.000000" fill-rule="nonzero"/>
        <path id="ellipse4351" d="M47.43 109.5C57.06 109.5 64.86 103.46 64.86 96.01C64.86 88.56 57.06 82.52 47.43 82.52C37.8 82.52 30 88.56 30 96.01C30 103.46 37.8 109.5 47.43 109.5Z" fill="#367136" fill-opacity="1.000000" fill-rule="nonzero"/>
        <path id="path4353 (Stroke)" d="M53.42 59.13C55.25 59.13 56.74 60.62 56.74 62.46L56.74 82.58C56.74 84.42 55.25 85.91 53.42 85.91C51.58 85.91 50.09 84.42 50.09 82.58L50.09 62.46C50.09 60.62 51.58 59.13 53.42 59.13Z" fill="#FFFFFF" fill-opacity="1.000000" fill-rule="evenodd"/>
        <path id="path4355 (Stroke)" d="M53.42 107.96C55.25 107.96 56.74 109.45 56.74 111.29L56.74 136.14C56.74 137.98 55.25 139.47 53.42 139.47C51.58 139.47 50.09 137.98 50.09 136.14L50.09 111.29C50.09 109.45 51.58 107.96 53.42 107.96Z" fill="#FFFFFF" fill-opacity="1.000000" fill-rule="evenodd"/>
        <path id="ellipse4357" d="M53.42 65.92C56.06 65.92 58.2 63.85 58.2 61.29C58.2 58.74 56.06 56.67 53.42 56.67C50.78 56.67 48.64 58.74 48.64 61.29C48.64 63.85 50.78 65.92 53.42 65.92Z" fill="#FFFFFF" fill-opacity="1.000000" fill-rule="nonzero"/>
        <path id="path4359 (Stroke)" d="M53.63 103.18C52.28 103.17 51.23 103.72 50.76 104.44C49.92 105.72 48.2 106.08 46.92 105.24C45.64 104.4 45.28 102.68 46.12 101.4C47.9 98.69 50.99 97.61 53.68 97.63C56.35 97.66 59.42 98.78 61.01 101.53C61.77 102.86 61.32 104.55 59.99 105.32C58.67 106.08 56.97 105.63 56.21 104.31C55.9 103.78 55.02 103.19 53.63 103.18Z" fill="#FFFFFF" fill-opacity="1.000000" fill-rule="evenodd"/>
        <path id="path4361 (Stroke)" d="M53.63 93.45C52.28 93.44 51.23 94 50.76 94.72C49.92 96 48.2 96.35 46.92 95.51C45.64 94.67 45.28 92.95 46.12 91.67C47.9 88.97 50.99 87.89 53.68 87.91C56.35 87.93 59.42 89.06 61.01 91.81C61.77 93.14 61.32 94.83 59.99 95.6C58.67 96.36 56.97 95.91 56.21 94.58C55.9 94.05 55.02 93.47 53.63 93.45Z" fill="#FFFFFF" fill-opacity="1.000000" fill-rule="evenodd"/>
        <path id="ellipse4250" d="M131.77 69.8C139.02 69.8 144.89 65.25 144.89 59.64C144.89 54.03 139.02 49.49 131.77 49.49C124.52 49.49 118.65 54.03 118.65 59.64C118.65 65.25 124.52 69.8 131.77 69.8Z" fill="#367136" fill-opacity="1.000000" fill-rule="nonzero"/>
        <path id="ellipse4253" d="M147.17 69.8C154.42 69.8 160.29 65.25 160.29 59.64C160.29 54.03 154.42 49.49 147.17 49.49C139.92 49.49 134.05 54.03 134.05 59.64C134.05 65.25 139.92 69.8 147.17 69.8Z" fill="#367136" fill-opacity="1.000000" fill-rule="nonzero"/>
        <path id="ellipse4255" d="M131.12 149.22C138.37 149.22 144.25 144.67 144.25 139.07C144.25 133.46 138.37 128.91 131.12 128.91C123.88 128.91 118 133.46 118 139.07C118 144.67 123.88 149.22 131.12 149.22Z" fill="#367136" fill-opacity="1.000000" fill-rule="nonzero"/>
        <path id="path4257 (Stroke)" d="M139.5 47C147.57 47 154.12 53.54 154.12 61.62L154.12 133.23C154.12 141.3 147.57 147.85 139.5 147.85C131.42 147.85 124.87 141.3 124.87 133.23L124.87 61.62C124.87 53.54 131.42 47 139.5 47Z" fill="#367136" fill-opacity="1.000000" fill-rule="evenodd"/>
        <path id="ellipse4259" d="M148.03 149.22C155.28 149.22 161.16 144.67 161.16 139.07C161.16 133.46 155.28 128.91 148.03 128.91C140.78 128.91 134.91 133.46 134.91 139.07C134.91 144.67 140.78 149.22 148.03 149.22Z" fill="#367136" fill-opacity="1.000000" fill-rule="nonzero"/>
        <path id="ellipse4261" d="M145.56 109.5C155.19 109.5 163 103.46 163 96.01C163 88.56 155.19 82.52 145.56 82.52C135.93 82.52 128.13 88.56 128.13 96.01C128.13 103.46 135.93 109.5 145.56 109.5Z" fill="#367136" fill-opacity="1.000000" fill-rule="nonzero"/>
        <path id="ellipse4263" d="M133.51 109.5C143.14 109.5 150.94 103.46 150.94 96.01C150.94 88.56 143.14 82.52 133.51 82.52C123.88 82.52 116.07 88.56 116.07 96.01C116.07 103.46 123.88 109.5 133.51 109.5Z" fill="#367136" fill-opacity="1.000000" fill-rule="nonzero"/>
        <path id="path4265 (Stroke)" d="M139.5 59.13C141.33 59.13 142.82 60.62 142.82 62.46L142.82 82.58C142.82 84.42 141.33 85.91 139.5 85.91C137.66 85.91 136.17 84.42 136.17 82.58L136.17 62.46C136.17 60.62 137.66 59.13 139.5 59.13Z" fill="#FFFFFF" fill-opacity="1.000000" fill-rule="evenodd"/>
        <path id="path4267 (Stroke)" d="M139.5 107.96C141.33 107.96 142.82 109.45 142.82 111.29L142.82 136.14C142.82 137.98 141.33 139.47 139.5 139.47C137.66 139.47 136.17 137.98 136.17 136.14L136.17 111.29C136.17 109.45 137.66 107.96 139.5 107.96Z" fill="#FFFFFF" fill-opacity="1.000000" fill-rule="evenodd"/>
        <path id="ellipse4269" d="M139.5 65.92C142.14 65.92 144.28 63.85 144.28 61.29C144.28 58.74 142.14 56.67 139.5 56.67C136.85 56.67 134.71 58.74 134.71 61.29C134.71 63.85 136.85 65.92 139.5 65.92Z" fill="#FFFFFF" fill-opacity="1.000000" fill-rule="nonzero"/>
        <path id="path4271 (Stroke)" d="M139.71 103.18C138.36 103.17 137.31 103.72 136.84 104.44C136 105.72 134.28 106.08 133 105.24C131.72 104.4 131.36 102.68 132.2 101.4C133.98 98.69 137.07 97.61 139.76 97.63C142.42 97.66 145.5 98.78 147.09 101.53C147.85 102.86 147.4 104.55 146.07 105.32C144.75 106.08 143.05 105.63 142.28 104.31C141.98 103.78 141.1 103.19 139.71 103.18Z" fill="#FFFFFF" fill-opacity="1.000000" fill-rule="evenodd"/>
        <path id="path4273 (Stroke)" d="M139.71 93.45C138.36 93.44 137.31 94 136.84 94.72C136 96 134.28 96.35 133 95.51C131.72 94.67 131.36 92.95 132.2 91.67C133.98 88.97 137.07 87.89 139.76 87.91C142.42 87.93 145.5 89.06 147.09 91.81C147.85 93.14 147.4 94.83 146.07 95.6C144.75 96.36 143.05 95.91 142.28 94.58C141.98 94.05 141.1 93.47 139.71 93.45Z" fill="#FFFFFF" fill-opacity="1.000000" fill-rule="evenodd"/>
    </g>
</svg>
