<svg width="209.000000" height="313.000000" viewBox="0 0 209 313" fill="none" xmlns="http://www.w3.org/2000/svg" xmlns:xlink="http://www.w3.org/1999/xlink">
    <desc>
        Created with Pixso.
    </desc>
    <defs>
        <filter id="filter_4_2293_dd" x="0.000000" y="0.000000" width="209.000000" height="313.000000" filterUnits="userSpaceOnUse" color-interpolation-filters="sRGB">
            <feFlood flood-opacity="0" result="BackgroundImageFix"/>
            <feColorMatrix in="SourceAlpha" type="matrix" values="0 0 0 0 0 0 0 0 0 0 0 0 0 0 0 0 0 0 127 0" result="hardAlpha"/>
            <feOffset dx="0" dy="4"/>
            <feGaussianBlur stdDeviation="1.33333"/>
            <feComposite in2="hardAlpha" operator="out" k2="-1" k3="1"/>
            <feColorMatrix type="matrix" values="0 0 0 0 0 0 0 0 0 0 0 0 0 0 0 0 0 0 0.25 0"/>
            <feBlend mode="normal" in2="BackgroundImageFix" result="effect_dropShadow_1"/>
            <feBlend mode="normal" in="SourceGraphic" in2="effect_dropShadow_1" result="shape"/>
        </filter>
        <filter id="filter_4_2296_dd" x="4.000000" y="8.000000" width="195.000000" height="297.000000" filterUnits="userSpaceOnUse" color-interpolation-filters="sRGB">
            <feFlood flood-opacity="0" result="BackgroundImageFix"/>
            <feColorMatrix in="SourceAlpha" type="matrix" values="0 0 0 0 0 0 0 0 0 0 0 0 0 0 0 0 0 0 127 0" result="hardAlpha"/>
            <feOffset dx="0" dy="4"/>
            <feGaussianBlur stdDeviation="1.33333"/>
            <feComposite in2="hardAlpha" operator="out" k2="-1" k3="1"/>
            <feColorMatrix type="matrix" values="0 0 0 0 0 0 0 0 0 0 0 0 0 0 0 0 0 0 0.25 0"/>
            <feBlend mode="normal" in2="BackgroundImageFix" result="effect_dropShadow_1"/>
            <feBlend mode="normal" in="SourceGraphic" in2="effect_dropShadow_1" result="shape"/>
        </filter>
        <filter id="filter_4_2655_dd" x="27.000000" y="56.000000" width="147.000244" height="200.873657" filterUnits="userSpaceOnUse" color-interpolation-filters="sRGB">
            <feFlood flood-opacity="0" result="BackgroundImageFix"/>
            <feBlend mode="normal" in="SourceGraphic" in2="BackgroundImageFix" result="shape"/>
            <feColorMatrix in="SourceAlpha" type="matrix" values="0 0 0 0 0 0 0 0 0 0 0 0 0 0 0 0 0 0 127 0" result="hardAlpha"/>
            <feOffset dx="0" dy="4"/>
            <feGaussianBlur stdDeviation="1.33333"/>
            <feComposite in2="hardAlpha" operator="arithmetic" k2="-1" k3="1"/>
            <feColorMatrix type="matrix" values="0 0 0 0 0 0 0 0 0 0 0 0 0 0 0 0 0 0 0.25 0"/>
            <feBlend mode="normal" in2="shape" result="effect_innerShadow_1"/>
        </filter>
    </defs>
    <g filter="url(#filter_4_2293_dd)">
        <rect id="Rectangle 1" x="8.000000" rx="20.000000" width="197.000000" height="297.000000" fill="#985B26" fill-opacity="1.000000"/>
        <rect id="Rectangle 1" x="8.500000" y="0.500000" rx="20.000000" width="196.000000" height="296.000000" stroke="#000000" stroke-opacity="1.000000" stroke-width="1.000000"/>
        <g filter="url(#filter_4_2296_dd)">
            <rect id="Rectangle 2" x="8.000000" y="8.000000" rx="20.000000" width="187.000000" height="289.000000" fill="#FFF0DB" fill-opacity="1.000000"/>
            <rect id="Rectangle 2" x="8.500000" y="8.500000" rx="20.000000" width="186.000000" height="288.000000" stroke="#000000" stroke-opacity="1.000000" stroke-width="1.000000"/>
        </g>
        <g filter="url(#filter_4_2655_dd)">
            <path id="ellipse4339" d="M92.26 77.03C98.94 77.03 104.36 72.83 104.36 67.66C104.36 62.49 98.94 58.29 92.26 58.29C85.57 58.29 80.15 62.49 80.15 67.66C80.15 72.83 85.57 77.03 92.26 77.03Z" fill="#367136" fill-opacity="1.000000" fill-rule="nonzero"/>
            <path id="ellipse4341" d="M106.47 77.03C113.15 77.03 118.57 72.83 118.57 67.66C118.57 62.49 113.15 58.29 106.47 58.29C99.78 58.29 94.36 62.49 94.36 67.66C94.36 72.83 99.78 77.03 106.47 77.03Z" fill="#367136" fill-opacity="1.000000" fill-rule="nonzero"/>
            <path id="ellipse4343" d="M91.66 150.29C98.35 150.29 103.77 146.09 103.77 140.92C103.77 135.75 98.35 131.56 91.66 131.56C84.98 131.56 79.56 135.75 79.56 140.92C79.56 146.09 84.98 150.29 91.66 150.29Z" fill="#367136" fill-opacity="1.000000" fill-rule="nonzero"/>
            <path id="path4345 (Stroke)" d="M99.39 56C106.84 56 112.87 62.03 112.87 69.48L112.87 135.53C112.87 142.98 106.84 149.02 99.39 149.02C91.94 149.02 85.9 142.98 85.9 135.53L85.9 69.48C85.9 62.03 91.94 56 99.39 56Z" fill="#367136" fill-opacity="1.000000" fill-rule="evenodd"/>
            <path id="ellipse4347" d="M107.26 150.29C113.95 150.29 119.37 146.09 119.37 140.92C119.37 135.75 113.95 131.56 107.26 131.56C100.58 131.56 95.16 135.75 95.16 140.92C95.16 146.09 100.58 150.29 107.26 150.29Z" fill="#367136" fill-opacity="1.000000" fill-rule="nonzero"/>
            <path id="ellipse4349" d="M104.98 113.65C113.86 113.65 121.06 108.08 121.06 101.21C121.06 94.34 113.86 88.77 104.98 88.77C96.1 88.77 88.9 94.34 88.9 101.21C88.9 108.08 96.1 113.65 104.98 113.65Z" fill="#367136" fill-opacity="1.000000" fill-rule="nonzero"/>
            <path id="ellipse4351" d="M93.86 113.65C102.74 113.65 109.94 108.08 109.94 101.21C109.94 94.34 102.74 88.77 93.86 88.77C84.98 88.77 77.78 94.34 77.78 101.21C77.78 108.08 84.98 113.65 93.86 113.65Z" fill="#367136" fill-opacity="1.000000" fill-rule="nonzero"/>
            <path id="path4353 (Stroke)" d="M99.39 67.19C101.08 67.19 102.45 68.56 102.45 70.26L102.45 88.82C102.45 90.51 101.08 91.89 99.39 91.89C97.69 91.89 96.32 90.51 96.32 88.82L96.32 70.26C96.32 68.56 97.69 67.19 99.39 67.19Z" fill="#FFFFFF" fill-opacity="1.000000" fill-rule="evenodd"/>
            <path id="path4355 (Stroke)" d="M99.39 112.23C101.08 112.23 102.45 113.61 102.45 115.3L102.45 138.22C102.45 139.92 101.08 141.29 99.39 141.29C97.69 141.29 96.32 139.92 96.32 138.22L96.32 115.3C96.32 113.61 97.69 112.23 99.39 112.23Z" fill="#FFFFFF" fill-opacity="1.000000" fill-rule="evenodd"/>
            <path id="ellipse4357" d="M99.39 73.45C101.82 73.45 103.8 71.54 103.8 69.18C103.8 66.83 101.82 64.92 99.39 64.92C96.95 64.92 94.98 66.83 94.98 69.18C94.98 71.54 96.95 73.45 99.39 73.45Z" fill="#FFFFFF" fill-opacity="1.000000" fill-rule="nonzero"/>
            <path id="path4359 (Stroke)" d="M99.59 107.82C98.34 107.81 97.37 108.32 96.93 108.98C96.16 110.16 94.57 110.49 93.39 109.72C92.21 108.94 91.88 107.36 92.66 106.18C94.3 103.68 97.15 102.68 99.63 102.7C102.09 102.73 104.92 103.77 106.39 106.3C107.09 107.52 106.68 109.09 105.45 109.79C104.23 110.5 102.67 110.08 101.96 108.86C101.68 108.37 100.86 107.83 99.59 107.82Z" fill="#FFFFFF" fill-opacity="1.000000" fill-rule="evenodd"/>
            <path id="path4361 (Stroke)" d="M99.59 98.85C98.34 98.84 97.37 99.35 96.93 100.01C96.16 101.19 94.57 101.52 93.39 100.75C92.21 99.97 91.88 98.39 92.66 97.21C94.3 94.71 97.15 93.71 99.63 93.74C102.09 93.76 104.92 94.8 106.39 97.33C107.09 98.55 106.68 100.12 105.45 100.83C104.23 101.53 102.67 101.11 101.96 99.89C101.68 99.4 100.86 98.86 99.59 98.85Z" fill="#FFFFFF" fill-opacity="1.000000" fill-rule="evenodd"/>
            <path id="ellipse4273" d="M41.47 183.61C48.16 183.61 53.58 179.41 53.58 174.24C53.58 169.07 48.16 164.87 41.47 164.87C34.79 164.87 29.37 169.07 29.37 174.24C29.37 179.41 34.79 183.61 41.47 183.61Z" fill="#367136" fill-opacity="1.000000" fill-rule="nonzero"/>
            <path id="ellipse4275" d="M55.68 183.61C62.36 183.61 67.78 179.41 67.78 174.24C67.78 169.07 62.36 164.87 55.68 164.87C48.99 164.87 43.57 169.07 43.57 174.24C43.57 179.41 48.99 183.61 55.68 183.61Z" fill="#367136" fill-opacity="1.000000" fill-rule="nonzero"/>
            <path id="ellipse4277" d="M40.88 256.87C47.56 256.87 52.98 252.68 52.98 247.5C52.98 242.33 47.56 238.14 40.88 238.14C34.19 238.14 28.77 242.33 28.77 247.5C28.77 252.68 34.19 256.87 40.88 256.87Z" fill="#367136" fill-opacity="1.000000" fill-rule="nonzero"/>
            <path id="path4279 (Stroke)" d="M48.6 162.58C56.05 162.58 62.09 168.62 62.09 176.06L62.09 242.12C62.09 249.56 56.05 255.6 48.6 255.6C41.15 255.6 35.11 249.56 35.11 242.12L35.11 176.06C35.11 168.62 41.15 162.58 48.6 162.58Z" fill="#367136" fill-opacity="1.000000" fill-rule="evenodd"/>
            <path id="ellipse4281" d="M56.47 256.87C63.16 256.87 68.58 252.68 68.58 247.5C68.58 242.33 63.16 238.14 56.47 238.14C49.79 238.14 44.37 242.33 44.37 247.5C44.37 252.68 49.79 256.87 56.47 256.87Z" fill="#367136" fill-opacity="1.000000" fill-rule="nonzero"/>
            <path id="ellipse4283" d="M54.2 220.23C63.08 220.23 70.28 214.66 70.28 207.79C70.28 200.92 63.08 195.35 54.2 195.35C45.31 195.35 38.11 200.92 38.11 207.79C38.11 214.66 45.31 220.23 54.2 220.23Z" fill="#367136" fill-opacity="1.000000" fill-rule="nonzero"/>
            <path id="ellipse4285" d="M43.08 220.23C51.96 220.23 59.16 214.66 59.16 207.79C59.16 200.92 51.96 195.35 43.08 195.35C34.19 195.35 27 200.92 27 207.79C27 214.66 34.19 220.23 43.08 220.23Z" fill="#367136" fill-opacity="1.000000" fill-rule="nonzero"/>
            <path id="path4287 (Stroke)" d="M48.6 173.77C50.29 173.77 51.67 175.14 51.67 176.84L51.67 195.4C51.67 197.09 50.29 198.47 48.6 198.47C46.9 198.47 45.53 197.09 45.53 195.4L45.53 176.84C45.53 175.14 46.9 173.77 48.6 173.77Z" fill="#FFFFFF" fill-opacity="1.000000" fill-rule="evenodd"/>
            <path id="path4289 (Stroke)" d="M48.6 218.81C50.29 218.81 51.67 220.19 51.67 221.88L51.67 244.8C51.67 246.5 50.29 247.87 48.6 247.87C46.9 247.87 45.53 246.5 45.53 244.8L45.53 221.88C45.53 220.19 46.9 218.81 48.6 218.81Z" fill="#FFFFFF" fill-opacity="1.000000" fill-rule="evenodd"/>
            <path id="ellipse4291" d="M48.6 180.03C51.03 180.03 53.01 178.12 53.01 175.76C53.01 173.41 51.03 171.5 48.6 171.5C46.16 171.5 44.19 173.41 44.19 175.76C44.19 178.12 46.16 180.03 48.6 180.03Z" fill="#FFFFFF" fill-opacity="1.000000" fill-rule="nonzero"/>
            <path id="path4293 (Stroke)" d="M48.8 214.4C47.55 214.39 46.58 214.9 46.15 215.56C45.37 216.74 43.79 217.07 42.61 216.3C41.43 215.52 41.1 213.94 41.87 212.76C43.51 210.26 46.36 209.26 48.84 209.29C51.3 209.31 54.14 210.35 55.6 212.88C56.31 214.1 55.89 215.67 54.67 216.37C53.44 217.08 51.88 216.66 51.17 215.44C50.89 214.95 50.08 214.41 48.8 214.4Z" fill="#FFFFFF" fill-opacity="1.000000" fill-rule="evenodd"/>
            <path id="path4295 (Stroke)" d="M48.8 205.43C47.55 205.42 46.58 205.93 46.15 206.59C45.37 207.78 43.79 208.1 42.61 207.33C41.43 206.55 41.1 204.97 41.87 203.79C43.51 201.29 46.36 200.29 48.84 200.32C51.3 200.34 54.14 201.38 55.6 203.91C56.31 205.14 55.89 206.7 54.67 207.41C53.44 208.11 51.88 207.69 51.17 206.47C50.89 205.98 50.08 205.44 48.8 205.43Z" fill="#FFFFFF" fill-opacity="1.000000" fill-rule="evenodd"/>
            <path id="ellipse4299" d="M145.19 183.61C151.88 183.61 157.3 179.41 157.3 174.24C157.3 169.07 151.88 164.87 145.19 164.87C138.51 164.87 133.09 169.07 133.09 174.24C133.09 179.41 138.51 183.61 145.19 183.61Z" fill="#367136" fill-opacity="1.000000" fill-rule="nonzero"/>
            <path id="ellipse4301" d="M159.4 183.61C166.08 183.61 171.5 179.41 171.5 174.24C171.5 169.07 166.08 164.87 159.4 164.87C152.71 164.87 147.29 169.07 147.29 174.24C147.29 179.41 152.71 183.61 159.4 183.61Z" fill="#367136" fill-opacity="1.000000" fill-rule="nonzero"/>
            <path id="ellipse4303" d="M144.6 256.87C151.28 256.87 156.7 252.68 156.7 247.5C156.7 242.33 151.28 238.14 144.6 238.14C137.91 238.14 132.49 242.33 132.49 247.5C132.49 252.68 137.91 256.87 144.6 256.87Z" fill="#367136" fill-opacity="1.000000" fill-rule="nonzero"/>
            <path id="path4305 (Stroke)" d="M152.32 162.58C159.77 162.58 165.81 168.62 165.81 176.06L165.81 242.12C165.81 249.56 159.77 255.6 152.32 255.6C144.87 255.6 138.83 249.56 138.83 242.12L138.83 176.06C138.83 168.62 144.87 162.58 152.32 162.58Z" fill="#367136" fill-opacity="1.000000" fill-rule="evenodd"/>
            <path id="ellipse4307" d="M160.19 256.87C166.88 256.87 172.3 252.68 172.3 247.5C172.3 242.33 166.88 238.14 160.19 238.14C153.51 238.14 148.09 242.33 148.09 247.5C148.09 252.68 153.51 256.87 160.19 256.87Z" fill="#367136" fill-opacity="1.000000" fill-rule="nonzero"/>
            <path id="ellipse4309" d="M157.92 220.23C166.8 220.23 174 214.66 174 207.79C174 200.92 166.8 195.35 157.92 195.35C149.03 195.35 141.83 200.92 141.83 207.79C141.83 214.66 149.03 220.23 157.92 220.23Z" fill="#367136" fill-opacity="1.000000" fill-rule="nonzero"/>
            <path id="ellipse4311" d="M146.8 220.23C155.68 220.23 162.88 214.66 162.88 207.79C162.88 200.92 155.68 195.35 146.8 195.35C137.91 195.35 130.72 200.92 130.72 207.79C130.72 214.66 137.91 220.23 146.8 220.23Z" fill="#367136" fill-opacity="1.000000" fill-rule="nonzero"/>
            <path id="path4313 (Stroke)" d="M152.32 173.77C154.01 173.77 155.39 175.14 155.39 176.84L155.39 195.4C155.39 197.09 154.01 198.47 152.32 198.47C150.62 198.47 149.25 197.09 149.25 195.4L149.25 176.84C149.25 175.14 150.62 173.77 152.32 173.77Z" fill="#FFFFFF" fill-opacity="1.000000" fill-rule="evenodd"/>
            <path id="path4315 (Stroke)" d="M152.32 218.81C154.01 218.81 155.39 220.19 155.39 221.88L155.39 244.8C155.39 246.5 154.01 247.87 152.32 247.87C150.62 247.87 149.25 246.5 149.25 244.8L149.25 221.88C149.25 220.19 150.62 218.81 152.32 218.81Z" fill="#FFFFFF" fill-opacity="1.000000" fill-rule="evenodd"/>
            <path id="ellipse4317" d="M152.32 180.03C154.75 180.03 156.73 178.12 156.73 175.76C156.73 173.41 154.75 171.5 152.32 171.5C149.88 171.5 147.91 173.41 147.91 175.76C147.91 178.12 149.88 180.03 152.32 180.03Z" fill="#FFFFFF" fill-opacity="1.000000" fill-rule="nonzero"/>
            <path id="path4319 (Stroke)" d="M152.52 214.4C151.27 214.39 150.3 214.9 149.87 215.56C149.09 216.74 147.51 217.07 146.33 216.3C145.15 215.52 144.82 213.94 145.59 212.76C147.23 210.26 150.08 209.26 152.57 209.29C155.02 209.31 157.86 210.35 159.32 212.88C160.03 214.1 159.61 215.67 158.39 216.37C157.16 217.08 155.6 216.66 154.89 215.44C154.61 214.95 153.8 214.41 152.52 214.4Z" fill="#FFFFFF" fill-opacity="1.000000" fill-rule="evenodd"/>
            <path id="path4321 (Stroke)" d="M152.52 205.43C151.27 205.42 150.3 205.93 149.87 206.59C149.09 207.78 147.51 208.1 146.33 207.33C145.15 206.55 144.82 204.97 145.59 203.79C147.23 201.29 150.08 200.29 152.57 200.32C155.02 200.34 157.86 201.38 159.32 203.91C160.03 205.14 159.61 206.7 158.39 207.41C157.16 208.11 155.6 207.69 154.89 206.47C154.61 205.98 153.8 205.44 152.52 205.43Z" fill="#FFFFFF" fill-opacity="1.000000" fill-rule="evenodd"/>
            <path id="ellipse4322" d="M41.47 77.03C48.16 77.03 53.58 72.83 53.58 67.66C53.58 62.49 48.16 58.29 41.47 58.29C34.79 58.29 29.37 62.49 29.37 67.66C29.37 72.83 34.79 77.03 41.47 77.03Z" fill="#367136" fill-opacity="1.000000" fill-rule="nonzero"/>
            <path id="ellipse4324" d="M55.68 77.03C62.36 77.03 67.78 72.83 67.78 67.66C67.78 62.49 62.36 58.29 55.68 58.29C48.99 58.29 43.57 62.49 43.57 67.66C43.57 72.83 48.99 77.03 55.68 77.03Z" fill="#367136" fill-opacity="1.000000" fill-rule="nonzero"/>
            <path id="ellipse4326" d="M40.88 150.29C47.56 150.29 52.98 146.09 52.98 140.92C52.98 135.75 47.56 131.56 40.88 131.56C34.19 131.56 28.77 135.75 28.77 140.92C28.77 146.09 34.19 150.29 40.88 150.29Z" fill="#367136" fill-opacity="1.000000" fill-rule="nonzero"/>
            <path id="path4328 (Stroke)" d="M48.6 56C56.05 56 62.09 62.03 62.09 69.48L62.09 135.53C62.09 142.98 56.05 149.02 48.6 149.02C41.15 149.02 35.11 142.98 35.11 135.53L35.11 69.48C35.11 62.03 41.15 56 48.6 56Z" fill="#367136" fill-opacity="1.000000" fill-rule="evenodd"/>
            <path id="ellipse4330" d="M56.47 150.29C63.16 150.29 68.58 146.09 68.58 140.92C68.58 135.75 63.16 131.56 56.47 131.56C49.79 131.56 44.37 135.75 44.37 140.92C44.37 146.09 49.79 150.29 56.47 150.29Z" fill="#367136" fill-opacity="1.000000" fill-rule="nonzero"/>
            <path id="ellipse4332" d="M54.2 113.65C63.08 113.65 70.28 108.08 70.28 101.21C70.28 94.34 63.08 88.77 54.2 88.77C45.31 88.77 38.11 94.34 38.11 101.21C38.11 108.08 45.31 113.65 54.2 113.65Z" fill="#367136" fill-opacity="1.000000" fill-rule="nonzero"/>
            <path id="ellipse4334" d="M43.08 113.65C51.96 113.65 59.16 108.08 59.16 101.21C59.16 94.34 51.96 88.77 43.08 88.77C34.19 88.77 27 94.34 27 101.21C27 108.08 34.19 113.65 43.08 113.65Z" fill="#367136" fill-opacity="1.000000" fill-rule="nonzero"/>
            <path id="path4336 (Stroke)" d="M48.6 67.19C50.29 67.19 51.67 68.56 51.67 70.26L51.67 88.82C51.67 90.51 50.29 91.89 48.6 91.89C46.9 91.89 45.53 90.51 45.53 88.82L45.53 70.26C45.53 68.56 46.9 67.19 48.6 67.19Z" fill="#FFFFFF" fill-opacity="1.000000" fill-rule="evenodd"/>
            <path id="path4338 (Stroke)" d="M48.6 112.23C50.29 112.23 51.67 113.61 51.67 115.3L51.67 138.22C51.67 139.92 50.29 141.29 48.6 141.29C46.9 141.29 45.53 139.92 45.53 138.22L45.53 115.3C45.53 113.61 46.9 112.23 48.6 112.23Z" fill="#FFFFFF" fill-opacity="1.000000" fill-rule="evenodd"/>
            <path id="ellipse4340" d="M48.6 73.45C51.03 73.45 53.01 71.54 53.01 69.18C53.01 66.83 51.03 64.92 48.6 64.92C46.16 64.92 44.19 66.83 44.19 69.18C44.19 71.54 46.16 73.45 48.6 73.45Z" fill="#FFFFFF" fill-opacity="1.000000" fill-rule="nonzero"/>
            <path id="path4342 (Stroke)" d="M48.8 107.82C47.55 107.81 46.58 108.32 46.15 108.98C45.37 110.16 43.79 110.49 42.61 109.72C41.43 108.94 41.1 107.36 41.87 106.18C43.51 103.68 46.36 102.68 48.84 102.7C51.3 102.73 54.14 103.77 55.6 106.3C56.31 107.52 55.89 109.09 54.67 109.79C53.44 110.5 51.88 110.08 51.17 108.86C50.89 108.37 50.08 107.83 48.8 107.82Z" fill="#FFFFFF" fill-opacity="1.000000" fill-rule="evenodd"/>
            <path id="path4344 (Stroke)" d="M48.8 98.85C47.55 98.84 46.58 99.35 46.15 100.01C45.37 101.19 43.79 101.52 42.61 100.75C41.43 99.97 41.1 98.39 41.87 97.21C43.51 94.71 46.36 93.71 48.84 93.74C51.3 93.76 54.14 94.8 55.6 97.33C56.31 98.55 55.89 100.12 54.67 100.83C53.44 101.53 51.88 101.11 51.17 99.89C50.89 99.4 50.08 98.86 48.8 98.85Z" fill="#FFFFFF" fill-opacity="1.000000" fill-rule="evenodd"/>
            <path id="ellipse4348" d="M145.19 77.03C151.88 77.03 157.3 72.83 157.3 67.66C157.3 62.49 151.88 58.29 145.19 58.29C138.51 58.29 133.09 62.49 133.09 67.66C133.09 72.83 138.51 77.03 145.19 77.03Z" fill="#367136" fill-opacity="1.000000" fill-rule="nonzero"/>
            <path id="ellipse4350" d="M159.4 77.03C166.08 77.03 171.5 72.83 171.5 67.66C171.5 62.49 166.08 58.29 159.4 58.29C152.71 58.29 147.29 62.49 147.29 67.66C147.29 72.83 152.71 77.03 159.4 77.03Z" fill="#367136" fill-opacity="1.000000" fill-rule="nonzero"/>
            <path id="ellipse4352" d="M144.6 150.29C151.28 150.29 156.7 146.09 156.7 140.92C156.7 135.75 151.28 131.56 144.6 131.56C137.91 131.56 132.49 135.75 132.49 140.92C132.49 146.09 137.91 150.29 144.6 150.29Z" fill="#367136" fill-opacity="1.000000" fill-rule="nonzero"/>
            <path id="path4354 (Stroke)" d="M152.32 56C159.77 56 165.81 62.03 165.81 69.48L165.81 135.53C165.81 142.98 159.77 149.02 152.32 149.02C144.87 149.02 138.83 142.98 138.83 135.53L138.83 69.48C138.83 62.03 144.87 56 152.32 56Z" fill="#367136" fill-opacity="1.000000" fill-rule="evenodd"/>
            <path id="ellipse4356" d="M160.19 150.29C166.88 150.29 172.3 146.09 172.3 140.92C172.3 135.75 166.88 131.56 160.19 131.56C153.51 131.56 148.09 135.75 148.09 140.92C148.09 146.09 153.51 150.29 160.19 150.29Z" fill="#367136" fill-opacity="1.000000" fill-rule="nonzero"/>
            <path id="ellipse4358" d="M157.92 113.65C166.8 113.65 174 108.08 174 101.21C174 94.34 166.8 88.77 157.92 88.77C149.03 88.77 141.83 94.34 141.83 101.21C141.83 108.08 149.03 113.65 157.92 113.65Z" fill="#367136" fill-opacity="1.000000" fill-rule="nonzero"/>
            <path id="ellipse4360" d="M146.8 113.65C155.68 113.65 162.88 108.08 162.88 101.21C162.88 94.34 155.68 88.77 146.8 88.77C137.91 88.77 130.72 94.34 130.72 101.21C130.72 108.08 137.91 113.65 146.8 113.65Z" fill="#367136" fill-opacity="1.000000" fill-rule="nonzero"/>
            <path id="path4362 (Stroke)" d="M152.32 67.19C154.01 67.19 155.39 68.56 155.39 70.26L155.39 88.82C155.39 90.51 154.01 91.89 152.32 91.89C150.62 91.89 149.25 90.51 149.25 88.82L149.25 70.26C149.25 68.56 150.62 67.19 152.32 67.19Z" fill="#FFFFFF" fill-opacity="1.000000" fill-rule="evenodd"/>
            <path id="path4364 (Stroke)" d="M152.32 112.23C154.01 112.23 155.39 113.61 155.39 115.3L155.39 138.22C155.39 139.92 154.01 141.29 152.32 141.29C150.62 141.29 149.25 139.92 149.25 138.22L149.25 115.3C149.25 113.61 150.62 112.23 152.32 112.23Z" fill="#FFFFFF" fill-opacity="1.000000" fill-rule="evenodd"/>
            <path id="ellipse4366" d="M152.32 73.45C154.75 73.45 156.73 71.54 156.73 69.18C156.73 66.83 154.75 64.92 152.32 64.92C149.88 64.92 147.91 66.83 147.91 69.18C147.91 71.54 149.88 73.45 152.32 73.45Z" fill="#FFFFFF" fill-opacity="1.000000" fill-rule="nonzero"/>
            <path id="path4368 (Stroke)" d="M152.52 107.82C151.27 107.81 150.3 108.32 149.87 108.98C149.09 110.16 147.51 110.49 146.33 109.72C145.15 108.94 144.82 107.36 145.59 106.18C147.23 103.68 150.08 102.68 152.57 102.7C155.02 102.73 157.86 103.77 159.32 106.3C160.03 107.52 159.61 109.09 158.39 109.79C157.16 110.5 155.6 110.08 154.89 108.86C154.61 108.37 153.8 107.83 152.52 107.82Z" fill="#FFFFFF" fill-opacity="1.000000" fill-rule="evenodd"/>
            <path id="path4370 (Stroke)" d="M152.52 98.85C151.27 98.84 150.3 99.35 149.87 100.01C149.09 101.19 147.51 101.52 146.33 100.75C145.15 99.97 144.82 98.39 145.59 97.21C147.23 94.71 150.08 93.71 152.57 93.74C155.02 93.76 157.86 94.8 159.32 97.33C160.03 98.55 159.61 100.12 158.39 100.83C157.16 101.53 155.6 101.11 154.89 99.89C154.61 99.4 153.8 98.86 152.52 98.85Z" fill="#FFFFFF" fill-opacity="1.000000" fill-rule="evenodd"/>
            <path id="ellipse4374" d="M92.26 183.61C98.94 183.61 104.36 179.41 104.36 174.24C104.36 169.07 98.94 164.87 92.26 164.87C85.57 164.87 80.15 169.07 80.15 174.24C80.15 179.41 85.57 183.61 92.26 183.61Z" fill="#367136" fill-opacity="1.000000" fill-rule="nonzero"/>
            <path id="ellipse4376" d="M106.47 183.61C113.15 183.61 118.57 179.41 118.57 174.24C118.57 169.07 113.15 164.87 106.47 164.87C99.78 164.87 94.36 169.07 94.36 174.24C94.36 179.41 99.78 183.61 106.47 183.61Z" fill="#367136" fill-opacity="1.000000" fill-rule="nonzero"/>
            <path id="ellipse4378" d="M91.66 256.87C98.35 256.87 103.77 252.68 103.77 247.5C103.77 242.33 98.35 238.14 91.66 238.14C84.98 238.14 79.56 242.33 79.56 247.5C79.56 252.68 84.98 256.87 91.66 256.87Z" fill="#367136" fill-opacity="1.000000" fill-rule="nonzero"/>
            <path id="path4380 (Stroke)" d="M99.39 162.58C106.84 162.58 112.87 168.62 112.87 176.06L112.87 242.12C112.87 249.56 106.84 255.6 99.39 255.6C91.94 255.6 85.9 249.56 85.9 242.12L85.9 176.06C85.9 168.62 91.94 162.58 99.39 162.58Z" fill="#367136" fill-opacity="1.000000" fill-rule="evenodd"/>
            <path id="ellipse4382" d="M107.26 256.87C113.95 256.87 119.37 252.68 119.37 247.5C119.37 242.33 113.95 238.14 107.26 238.14C100.58 238.14 95.16 242.33 95.16 247.5C95.16 252.68 100.58 256.87 107.26 256.87Z" fill="#367136" fill-opacity="1.000000" fill-rule="nonzero"/>
            <path id="ellipse4384" d="M104.98 220.23C113.86 220.23 121.06 214.66 121.06 207.79C121.06 200.92 113.86 195.35 104.98 195.35C96.1 195.35 88.9 200.92 88.9 207.79C88.9 214.66 96.1 220.23 104.98 220.23Z" fill="#367136" fill-opacity="1.000000" fill-rule="nonzero"/>
            <path id="ellipse4386" d="M93.86 220.23C102.74 220.23 109.94 214.66 109.94 207.79C109.94 200.92 102.74 195.35 93.86 195.35C84.98 195.35 77.78 200.92 77.78 207.79C77.78 214.66 84.98 220.23 93.86 220.23Z" fill="#367136" fill-opacity="1.000000" fill-rule="nonzero"/>
            <path id="path4388 (Stroke)" d="M99.39 173.77C101.08 173.77 102.45 175.14 102.45 176.84L102.45 195.4C102.45 197.09 101.08 198.47 99.39 198.47C97.69 198.47 96.32 197.09 96.32 195.4L96.32 176.84C96.32 175.14 97.69 173.77 99.39 173.77Z" fill="#FFFFFF" fill-opacity="1.000000" fill-rule="evenodd"/>
            <path id="path4390 (Stroke)" d="M99.39 218.81C101.08 218.81 102.45 220.19 102.45 221.88L102.45 244.8C102.45 246.5 101.08 247.87 99.39 247.87C97.69 247.87 96.32 246.5 96.32 244.8L96.32 221.88C96.32 220.19 97.69 218.81 99.39 218.81Z" fill="#FFFFFF" fill-opacity="1.000000" fill-rule="evenodd"/>
            <path id="ellipse4392" d="M99.39 180.03C101.82 180.03 103.8 178.12 103.8 175.76C103.8 173.41 101.82 171.5 99.39 171.5C96.95 171.5 94.98 173.41 94.98 175.76C94.98 178.12 96.95 180.03 99.39 180.03Z" fill="#FFFFFF" fill-opacity="1.000000" fill-rule="nonzero"/>
            <path id="path4394 (Stroke)" d="M99.59 214.4C98.34 214.39 97.37 214.9 96.93 215.56C96.16 216.74 94.57 217.07 93.39 216.3C92.21 215.52 91.88 213.94 92.66 212.76C94.3 210.26 97.15 209.26 99.63 209.29C102.09 209.31 104.92 210.35 106.39 212.88C107.09 214.1 106.68 215.67 105.45 216.37C104.23 217.08 102.67 216.66 101.96 215.44C101.68 214.95 100.86 214.41 99.59 214.4Z" fill="#FFFFFF" fill-opacity="1.000000" fill-rule="evenodd"/>
            <path id="path4396 (Stroke)" d="M99.59 205.43C98.34 205.42 97.37 205.93 96.93 206.59C96.16 207.78 94.57 208.1 93.39 207.33C92.21 206.55 91.88 204.97 92.66 203.79C94.3 201.29 97.15 200.29 99.63 200.32C102.09 200.34 104.92 201.38 106.39 203.91C107.09 205.14 106.68 206.7 105.45 207.41C104.23 208.11 102.67 207.69 101.96 206.47C101.68 205.98 100.86 205.44 99.59 205.43Z" fill="#FFFFFF" fill-opacity="1.000000" fill-rule="evenodd"/>
        </g>
    </g>
</svg>
