<svg width="201.000000" height="305.000000" viewBox="0 0 201 305" fill="none" xmlns="http://www.w3.org/2000/svg" xmlns:xlink="http://www.w3.org/1999/xlink">
    <desc>
        Created with Pixso.
    </desc>
    <defs>
        <filter id="filter_4_2869_dd" x="0.000000" y="8.000000" width="195.000000" height="297.000000" filterUnits="userSpaceOnUse" color-interpolation-filters="sRGB">
            <feFlood flood-opacity="0" result="BackgroundImageFix"/>
            <feColorMatrix in="SourceAlpha" type="matrix" values="0 0 0 0 0 0 0 0 0 0 0 0 0 0 0 0 0 0 127 0" result="hardAlpha"/>
            <feOffset dx="0" dy="4"/>
            <feGaussianBlur stdDeviation="1.33333"/>
            <feComposite in2="hardAlpha" operator="out" k2="-1" k3="1"/>
            <feColorMatrix type="matrix" values="0 0 0 0 0 0 0 0 0 0 0 0 0 0 0 0 0 0 0.25 0"/>
            <feBlend mode="normal" in2="BackgroundImageFix" result="effect_dropShadow_1"/>
            <feBlend mode="normal" in="SourceGraphic" in2="effect_dropShadow_1" result="shape"/>
        </filter>
        <filter id="filter_4_3170_dd" x="24.000000" y="58.000000" width="145.926514" height="196.619507" filterUnits="userSpaceOnUse" color-interpolation-filters="sRGB">
            <feFlood flood-opacity="0" result="BackgroundImageFix"/>
            <feBlend mode="normal" in="SourceGraphic" in2="BackgroundImageFix" result="shape"/>
            <feColorMatrix in="SourceAlpha" type="matrix" values="0 0 0 0 0 0 0 0 0 0 0 0 0 0 0 0 0 0 127 0" result="hardAlpha"/>
            <feOffset dx="0" dy="4"/>
            <feGaussianBlur stdDeviation="1.33333"/>
            <feComposite in2="hardAlpha" operator="arithmetic" k2="-1" k3="1"/>
            <feColorMatrix type="matrix" values="0 0 0 0 0 0 0 0 0 0 0 0 0 0 0 0 0 0 0.25 0"/>
            <feBlend mode="normal" in2="shape" result="effect_innerShadow_1"/>
        </filter>
    </defs>
    <rect id="Rectangle 1" x="4.000000" rx="20.000000" width="197.000000" height="297.000000" fill="#985B26" fill-opacity="1.000000"/>
    <rect id="Rectangle 1" x="4.500000" y="0.500000" rx="20.000000" width="196.000000" height="296.000000" stroke="#000000" stroke-opacity="1.000000" stroke-width="1.000000"/>
    <g filter="url(#filter_4_2869_dd)">
        <rect id="Rectangle 2" x="4.000000" y="8.000000" rx="20.000000" width="187.000000" height="289.000000" fill="#FFF0DB" fill-opacity="1.000000"/>
        <rect id="Rectangle 2" x="4.500000" y="8.500000" rx="20.000000" width="186.000000" height="288.000000" stroke="#000000" stroke-opacity="1.000000" stroke-width="1.000000"/>
    </g>
    <g filter="url(#filter_4_3170_dd)">
        <path id="ellipse4373" d="M141.61 78.67C148.18 78.67 153.51 74.55 153.51 69.46C153.51 64.38 148.18 60.25 141.61 60.25C135.04 60.25 129.71 64.38 129.71 69.46C129.71 74.55 135.04 78.67 141.61 78.67Z" fill="#367136" fill-opacity="1.000000" fill-rule="nonzero"/>
        <path id="ellipse4377" d="M141.02 150.68C147.6 150.68 152.92 146.56 152.92 141.47C152.92 136.39 147.6 132.27 141.02 132.27C134.45 132.27 129.13 136.39 129.13 141.47C129.13 146.56 134.45 150.68 141.02 150.68Z" fill="#367136" fill-opacity="1.000000" fill-rule="nonzero"/>
        <path id="ellipse4387" d="M143.19 114.67C151.92 114.67 158.99 109.19 158.99 102.44C158.99 95.68 151.92 90.21 143.19 90.21C134.46 90.21 127.38 95.68 127.38 102.44C127.38 109.19 134.46 114.67 143.19 114.67Z" fill="#367136" fill-opacity="1.000000" fill-rule="nonzero"/>
        <path id="ellipse4375" d="M155.57 78.67C162.14 78.67 167.47 74.55 167.47 69.46C167.47 64.38 162.14 60.25 155.57 60.25C149 60.25 143.68 64.38 143.68 69.46C143.68 74.55 149 78.67 155.57 78.67Z" fill="#367136" fill-opacity="1.000000" fill-rule="nonzero"/>
        <path id="path4379 (Stroke)" d="M148.62 58C155.94 58 161.87 63.93 161.87 71.25L161.87 136.18C161.87 143.5 155.94 149.44 148.62 149.44C141.29 149.44 135.36 143.5 135.36 136.18L135.36 71.25C135.36 63.93 141.29 58 148.62 58Z" fill="#367136" fill-opacity="1.000000" fill-rule="evenodd"/>
        <path id="ellipse4381" d="M148.62 75.15C151.01 75.15 152.95 73.27 152.95 70.96C152.95 68.64 151.01 66.77 148.62 66.77C146.22 66.77 144.28 68.64 144.28 70.96C144.28 73.27 146.22 75.15 148.62 75.15Z" fill="#FFFFFF" fill-opacity="1.000000" fill-rule="nonzero"/>
        <path id="path6969 (Stroke)" d="M98.79 101.72C98.79 106.55 94.88 110.47 90.05 110.47L58.3 110.51C53.47 110.51 49.56 106.6 49.55 101.77C49.55 96.94 53.46 93.03 58.28 93.02L90.04 92.99C94.87 92.99 98.78 96.9 98.79 101.72Z" fill="#367136" fill-opacity="1.000000" fill-rule="evenodd"/>
        <path id="path6941 (Stroke)" d="M45.35 110.78C46.95 104.55 53.31 100.8 59.54 102.41L84.69 108.89C90.92 110.5 94.67 116.86 93.06 123.09C91.45 129.33 85.1 133.07 78.86 131.47L53.72 124.98C47.49 123.37 43.74 117.02 45.35 110.78Z" fill="#367136" fill-opacity="1.000000" fill-rule="evenodd"/>
        <path id="path6937 (Stroke)" d="M115.78 86.71C119.76 91.52 119.09 98.65 114.27 102.63L61.77 146.03C56.95 150.01 49.82 149.33 45.85 144.52C41.87 139.71 42.54 132.58 47.36 128.6L99.86 85.2C104.68 81.22 111.8 81.89 115.78 86.71Z" fill="#367136" fill-opacity="1.000000" fill-rule="evenodd"/>
        <path id="ellipse4273" d="M38.23 78.67C44.8 78.67 50.12 74.55 50.12 69.46C50.12 64.38 44.8 60.25 38.23 60.25C31.65 60.25 26.33 64.38 26.33 69.46C26.33 74.55 31.65 78.67 38.23 78.67Z" fill="#367136" fill-opacity="1.000000" fill-rule="nonzero"/>
        <path id="ellipse4275" d="M52.19 78.67C58.76 78.67 64.09 74.55 64.09 69.46C64.09 64.38 58.76 60.25 52.19 60.25C45.62 60.25 40.29 64.38 40.29 69.46C40.29 74.55 45.62 78.67 52.19 78.67Z" fill="#367136" fill-opacity="1.000000" fill-rule="nonzero"/>
        <path id="ellipse4277" d="M37.64 150.68C44.21 150.68 49.54 146.56 49.54 141.47C49.54 136.39 44.21 132.27 37.64 132.27C31.07 132.27 25.74 136.39 25.74 141.47C25.74 146.56 31.07 150.68 37.64 150.68Z" fill="#367136" fill-opacity="1.000000" fill-rule="nonzero"/>
        <path id="path4279 (Stroke)" d="M45.23 58C52.55 58 58.49 63.93 58.49 71.25L58.49 136.18C58.49 143.5 52.55 149.44 45.23 149.44C37.91 149.44 31.97 143.5 31.97 136.18L31.97 71.25C31.97 63.93 37.91 58 45.23 58Z" fill="#367136" fill-opacity="1.000000" fill-rule="evenodd"/>
        <path id="ellipse4291" d="M45.23 75.15C47.62 75.15 49.57 73.27 49.57 70.96C49.57 68.64 47.62 66.77 45.23 66.77C42.84 66.77 40.9 68.64 40.9 70.96C40.9 73.27 42.84 75.15 45.23 75.15Z" fill="#FFFFFF" fill-opacity="1.000000" fill-rule="nonzero"/>
        <path id="ellipse4281" d="M52.97 150.68C59.54 150.68 64.87 146.56 64.87 141.47C64.87 136.39 59.54 132.27 52.97 132.27C46.4 132.27 41.07 136.39 41.07 141.47C41.07 146.56 46.4 150.68 52.97 150.68Z" fill="#367136" fill-opacity="1.000000" fill-rule="nonzero"/>
        <path id="ellipse4283" d="M50.73 114.67C59.46 114.67 66.54 109.19 66.54 102.44C66.54 95.68 59.46 90.21 50.73 90.21C42 90.21 34.92 95.68 34.92 102.44C34.92 109.19 42 114.67 50.73 114.67Z" fill="#367136" fill-opacity="1.000000" fill-rule="nonzero"/>
        <path id="ellipse4285" d="M39.8 114.67C48.53 114.67 55.61 109.19 55.61 102.44C55.61 95.68 48.53 90.21 39.8 90.21C31.07 90.21 24 95.68 24 102.44C24 109.19 31.07 114.67 39.8 114.67Z" fill="#367136" fill-opacity="1.000000" fill-rule="nonzero"/>
        <path id="path4287 (Stroke)" d="M45.23 69C46.9 69 48.25 70.35 48.25 72.01L48.25 90.26C48.25 91.92 46.9 93.27 45.23 93.27C43.56 93.27 42.21 91.92 42.21 90.26L42.21 72.01C42.21 70.35 43.56 69 45.23 69Z" fill="#FFFFFF" fill-opacity="1.000000" fill-rule="evenodd"/>
        <path id="path4289 (Stroke)" d="M45.23 113.27C46.9 113.27 48.25 114.62 48.25 116.29L48.25 138.82C48.25 140.49 46.9 141.84 45.23 141.84C43.56 141.84 42.21 140.49 42.21 138.82L42.21 116.29C42.21 114.62 43.56 113.27 45.23 113.27Z" fill="#FFFFFF" fill-opacity="1.000000" fill-rule="evenodd"/>
        <path id="path4293 (Stroke)" d="M45.43 108.93C44.2 108.92 43.25 109.43 42.82 110.08C42.06 111.24 40.5 111.56 39.34 110.8C38.18 110.04 37.86 108.48 38.62 107.32C40.23 104.87 43.03 103.89 45.47 103.91C47.89 103.93 50.67 104.95 52.11 107.44C52.81 108.64 52.39 110.18 51.19 110.88C49.99 111.57 48.45 111.16 47.76 109.96C47.48 109.48 46.68 108.95 45.43 108.93Z" fill="#FFFFFF" fill-opacity="1.000000" fill-rule="evenodd"/>
        <path id="path4295 (Stroke)" d="M45.43 100.12C44.2 100.11 43.25 100.61 42.82 101.26C42.06 102.42 40.5 102.75 39.34 101.98C38.18 101.22 37.86 99.66 38.62 98.5C40.23 96.05 43.03 95.07 45.47 95.09C47.89 95.11 50.67 96.14 52.11 98.63C52.81 99.83 52.39 101.37 51.19 102.06C49.99 102.75 48.45 102.34 47.76 101.14C47.48 100.66 46.68 100.13 45.43 100.12Z" fill="#FFFFFF" fill-opacity="1.000000" fill-rule="evenodd"/>
        <path id="path7498 (Stroke)" d="M94.71 101.72C94.71 96.9 98.63 92.99 103.46 92.99L135.21 93.02C140.04 93.03 143.95 96.94 143.95 101.77C143.94 106.6 140.02 110.51 135.2 110.51L103.44 110.47C98.61 110.47 94.7 106.55 94.71 101.72Z" fill="#367136" fill-opacity="1.000000" fill-rule="evenodd"/>
        <path id="ellipse4383" d="M156.36 150.68C162.93 150.68 168.25 146.56 168.25 141.47C168.25 136.39 162.93 132.27 156.36 132.27C149.78 132.27 144.46 136.39 144.46 141.47C144.46 146.56 149.78 150.68 156.36 150.68Z" fill="#367136" fill-opacity="1.000000" fill-rule="nonzero"/>
        <path id="path7502 (Stroke)" d="M77.71 86.71C81.69 81.89 88.82 81.22 93.64 85.2L146.14 128.6C150.95 132.58 151.63 139.71 147.65 144.52C143.67 149.33 136.54 150.01 131.73 146.03L79.23 102.63C74.41 98.65 73.73 91.52 77.71 86.71Z" fill="#367136" fill-opacity="1.000000" fill-rule="evenodd"/>
        <path id="ellipse4385" d="M154.12 114.67C162.85 114.67 169.92 109.19 169.92 102.44C169.92 95.68 162.85 90.21 154.12 90.21C145.39 90.21 138.31 95.68 138.31 102.44C138.31 109.19 145.39 114.67 154.12 114.67Z" fill="#367136" fill-opacity="1.000000" fill-rule="nonzero"/>
        <path id="rect6963" d="M109.56 83.91L83.75 83.91C83.21 83.91 82.77 84.54 82.77 85.3L82.77 119.74C82.77 120.51 83.21 121.13 83.75 121.13L109.56 121.13C110.1 121.13 110.54 120.51 110.54 119.74L110.54 85.3C110.54 84.54 110.1 83.91 109.56 83.91Z" fill="#367136" fill-opacity="1.000000" fill-rule="nonzero"/>
        <path id="path6975 (Stroke)" d="M77.2 109.84C78.36 108.65 80.27 108.63 81.46 109.8L84.97 113.23C86.16 114.4 86.18 116.31 85.02 117.5C83.85 118.69 81.94 118.71 80.75 117.54L77.24 114.11C76.05 112.94 76.03 111.03 77.2 109.84Z" fill="#FFFFFF" fill-opacity="1.000000" fill-rule="evenodd"/>
        <path id="path6979 (Stroke)" d="M96.66 90.68C98.33 90.69 99.67 92.04 99.67 93.71L99.64 102.61L91.78 108.85C90.47 109.89 88.58 109.67 87.54 108.37C86.5 107.06 86.72 105.16 88.03 104.13L93.62 99.69L93.64 93.69C93.64 92.02 95 90.68 96.66 90.68Z" fill="#FFFFFF" fill-opacity="1.000000" fill-rule="evenodd"/>
        <path id="path7500 (Stroke)" d="M148.15 110.78C149.76 117.02 146.01 123.37 139.78 124.98L114.63 131.47C108.4 133.07 102.05 129.33 100.44 123.09C98.83 116.86 102.58 110.5 108.81 108.89L133.95 102.41C140.19 100.8 146.54 104.55 148.15 110.78Z" fill="#367136" fill-opacity="1.000000" fill-rule="evenodd"/>
        <path id="path4389 (Stroke)" d="M148.62 69C150.28 69 151.63 70.35 151.63 72.01L151.63 90.26C151.63 91.92 150.28 93.27 148.62 93.27C146.95 93.27 145.6 91.92 145.6 90.26L145.6 72.01C145.6 70.35 146.95 69 148.62 69Z" fill="#FFFFFF" fill-opacity="1.000000" fill-rule="evenodd"/>
        <path id="path7532 (Stroke)" d="M118.25 118.6C119.31 117.32 121.21 117.13 122.49 118.18L139.07 131.79C140.36 132.84 140.55 134.74 139.49 136.03C138.43 137.32 136.53 137.51 135.25 136.45L118.67 122.85C117.38 121.79 117.19 119.89 118.25 118.6Z" fill="#FFFFFF" fill-opacity="1.000000" fill-rule="evenodd"/>
        <path id="path4391 (Stroke)" d="M148.62 113.27C150.28 113.27 151.63 114.62 151.63 116.29L151.63 138.82C151.63 140.49 150.28 141.84 148.62 141.84C146.95 141.84 145.6 140.49 145.6 138.82L145.6 116.29C145.6 114.62 146.95 113.27 148.62 113.27Z" fill="#FFFFFF" fill-opacity="1.000000" fill-rule="evenodd"/>
        <path id="path4393 (Stroke)" d="M148.81 108.93C147.58 108.92 146.63 109.43 146.21 110.08C145.44 111.24 143.89 111.56 142.73 110.8C141.57 110.04 141.24 108.48 142 107.32C143.61 104.87 146.41 103.89 148.86 103.91C151.27 103.93 154.06 104.95 155.5 107.44C156.19 108.64 155.78 110.18 154.58 110.88C153.38 111.57 151.84 111.16 151.14 109.96C150.87 109.48 150.07 108.95 148.81 108.93Z" fill="#FFFFFF" fill-opacity="1.000000" fill-rule="evenodd"/>
        <path id="path4395 (Stroke)" d="M148.81 100.12C147.58 100.11 146.63 100.61 146.21 101.26C145.44 102.42 143.89 102.75 142.73 101.98C141.57 101.22 141.24 99.66 142 98.5C143.61 96.05 146.41 95.07 148.86 95.09C151.27 95.11 154.06 96.14 155.5 98.63C156.19 99.83 155.78 101.37 154.58 102.06C153.38 102.75 151.84 102.34 151.14 101.14C150.87 100.66 150.07 100.13 148.81 100.12Z" fill="#FFFFFF" fill-opacity="1.000000" fill-rule="evenodd"/>
        <path id="path7534 (Stroke)" d="M116.22 109.76C117.41 110.92 117.43 112.83 116.26 114.02L112.83 117.53C111.66 118.72 109.75 118.74 108.56 117.58C107.37 116.41 107.35 114.51 108.52 113.31L111.95 109.81C113.12 108.61 115.03 108.59 116.22 109.76Z" fill="#FFFFFF" fill-opacity="1.000000" fill-rule="evenodd"/>
        <path id="path7536 (Stroke)" d="M120.92 103.41C121.97 102.11 123.86 101.9 125.16 102.94L131.95 108.38C133.25 109.42 133.46 111.32 132.42 112.62C131.38 113.92 129.48 114.13 128.18 113.09L121.39 107.65C120.09 106.61 119.88 104.71 120.92 103.41Z" fill="#FFFFFF" fill-opacity="1.000000" fill-rule="evenodd"/>
        <path id="path7538 (Stroke)" d="M96.83 90.68C98.5 90.68 99.85 92.02 99.86 93.69L99.88 99.69L105.47 104.13C106.78 105.16 106.99 107.06 105.96 108.37C104.92 109.67 103.03 109.89 101.72 108.85L93.86 102.61L93.83 93.71C93.82 92.04 95.17 90.69 96.83 90.68Z" fill="#FFFFFF" fill-opacity="1.000000" fill-rule="evenodd"/>
        <path id="path6971 (Stroke)" d="M75.25 118.6C76.3 119.89 76.12 121.79 74.83 122.85L58.25 136.45C56.96 137.51 55.06 137.32 54.01 136.03C52.95 134.74 53.14 132.84 54.43 131.79L71 118.18C72.29 117.13 74.19 117.32 75.25 118.6Z" fill="#FFFFFF" fill-opacity="1.000000" fill-rule="evenodd"/>
        <path id="path6977 (Stroke)" d="M72.57 103.41C73.61 104.71 73.4 106.61 72.1 107.65L65.32 113.09C64.02 114.13 62.12 113.92 61.08 112.62C60.04 111.32 60.25 109.42 61.54 108.38L68.33 102.94C69.63 101.9 71.53 102.11 72.57 103.41Z" fill="#FFFFFF" fill-opacity="1.000000" fill-rule="evenodd"/>
        <path id="ellipse4440" d="M141.61 233.94C148.18 233.94 153.51 238.06 153.51 243.15C153.51 248.23 148.18 252.36 141.61 252.36C135.04 252.36 129.71 248.23 129.71 243.15C129.71 238.06 135.04 233.94 141.61 233.94Z" fill="#367136" fill-opacity="1.000000" fill-rule="nonzero"/>
        <path id="ellipse4442" d="M141.02 161.93C147.6 161.93 152.92 166.05 152.92 171.14C152.92 176.22 147.6 180.34 141.02 180.34C134.45 180.34 129.13 176.22 129.13 171.14C129.13 166.05 134.45 161.93 141.02 161.93Z" fill="#367136" fill-opacity="1.000000" fill-rule="nonzero"/>
        <path id="ellipse4444" d="M143.19 197.94C151.92 197.94 158.99 203.42 158.99 210.17C158.99 216.93 151.92 222.4 143.19 222.4C134.46 222.4 127.38 216.93 127.38 210.17C127.38 203.42 134.46 197.94 143.19 197.94Z" fill="#367136" fill-opacity="1.000000" fill-rule="nonzero"/>
        <path id="ellipse4446" d="M155.57 233.94C162.14 233.94 167.47 238.06 167.47 243.15C167.47 248.23 162.14 252.36 155.57 252.36C149 252.36 143.68 248.23 143.68 243.15C143.68 238.06 149 233.94 155.57 233.94Z" fill="#367136" fill-opacity="1.000000" fill-rule="nonzero"/>
        <path id="path4448 (Stroke)" d="M148.62 254.62C155.94 254.62 161.87 248.68 161.87 241.36L161.87 176.43C161.87 169.11 155.94 163.17 148.62 163.17C141.29 163.17 135.36 169.11 135.36 176.43L135.36 241.36C135.36 248.68 141.29 254.62 148.62 254.62Z" fill="#367136" fill-opacity="1.000000" fill-rule="evenodd"/>
        <path id="ellipse4450" d="M148.62 237.46C151.01 237.46 152.95 239.34 152.95 241.65C152.95 243.97 151.01 245.84 148.62 245.84C146.22 245.84 144.28 243.97 144.28 241.65C144.28 239.34 146.22 237.46 148.62 237.46Z" fill="#FFFFFF" fill-opacity="1.000000" fill-rule="nonzero"/>
        <path id="path4452 (Stroke)" d="M98.79 210.89C98.79 206.06 94.88 202.14 90.05 202.14L58.3 202.11C53.47 202.1 49.56 206.01 49.55 210.84C49.55 215.67 53.46 219.58 58.28 219.59L90.04 219.62C94.87 219.62 98.78 215.71 98.79 210.89Z" fill="#367136" fill-opacity="1.000000" fill-rule="evenodd"/>
        <path id="path4454 (Stroke)" d="M45.35 201.83C46.95 208.06 53.31 211.81 59.54 210.2L84.69 203.72C90.92 202.11 94.67 195.75 93.06 189.52C91.45 183.28 85.1 179.54 78.86 181.14L53.72 187.63C47.49 189.24 43.74 195.6 45.35 201.83Z" fill="#367136" fill-opacity="1.000000" fill-rule="evenodd"/>
        <path id="path4456 (Stroke)" d="M115.78 225.9C119.76 221.09 119.09 213.96 114.27 209.98L61.77 166.58C56.95 162.6 49.82 163.28 45.85 168.09C41.87 172.9 42.54 180.03 47.36 184.01L99.86 227.41C104.68 231.39 111.8 230.72 115.78 225.9Z" fill="#367136" fill-opacity="1.000000" fill-rule="evenodd"/>
        <path id="ellipse4458" d="M38.23 233.94C44.8 233.94 50.12 238.06 50.12 243.15C50.12 248.23 44.8 252.36 38.23 252.36C31.65 252.36 26.33 248.23 26.33 243.15C26.33 238.06 31.65 233.94 38.23 233.94Z" fill="#367136" fill-opacity="1.000000" fill-rule="nonzero"/>
        <path id="ellipse4460" d="M52.19 233.94C58.76 233.94 64.09 238.06 64.09 243.15C64.09 248.23 58.76 252.36 52.19 252.36C45.62 252.36 40.29 248.23 40.29 243.15C40.29 238.06 45.62 233.94 52.19 233.94Z" fill="#367136" fill-opacity="1.000000" fill-rule="nonzero"/>
        <path id="ellipse4462" d="M37.64 161.93C44.21 161.93 49.54 166.05 49.54 171.14C49.54 176.22 44.21 180.34 37.64 180.34C31.07 180.34 25.74 176.22 25.74 171.14C25.74 166.05 31.07 161.93 37.64 161.93Z" fill="#367136" fill-opacity="1.000000" fill-rule="nonzero"/>
        <path id="path4464 (Stroke)" d="M45.23 254.62C52.55 254.62 58.49 248.68 58.49 241.36L58.49 176.43C58.49 169.11 52.55 163.17 45.23 163.17C37.91 163.17 31.97 169.11 31.97 176.43L31.97 241.36C31.97 248.68 37.91 254.62 45.23 254.62Z" fill="#367136" fill-opacity="1.000000" fill-rule="evenodd"/>
        <path id="ellipse4466" d="M45.23 237.46C47.62 237.46 49.57 239.34 49.57 241.65C49.57 243.97 47.62 245.84 45.23 245.84C42.84 245.84 40.9 243.97 40.9 241.65C40.9 239.34 42.84 237.46 45.23 237.46Z" fill="#FFFFFF" fill-opacity="1.000000" fill-rule="nonzero"/>
        <path id="ellipse4468" d="M52.97 161.93C59.54 161.93 64.87 166.05 64.87 171.14C64.87 176.22 59.54 180.34 52.97 180.34C46.4 180.34 41.07 176.22 41.07 171.14C41.07 166.05 46.4 161.93 52.97 161.93Z" fill="#367136" fill-opacity="1.000000" fill-rule="nonzero"/>
        <path id="ellipse4470" d="M50.73 197.94C59.46 197.94 66.54 203.42 66.54 210.17C66.54 216.93 59.46 222.4 50.73 222.4C42 222.4 34.92 216.93 34.92 210.17C34.92 203.42 42 197.94 50.73 197.94Z" fill="#367136" fill-opacity="1.000000" fill-rule="nonzero"/>
        <path id="ellipse4472" d="M39.8 197.94C48.53 197.94 55.61 203.42 55.61 210.17C55.61 216.93 48.53 222.4 39.8 222.4C31.07 222.4 24 216.93 24 210.17C24 203.42 31.07 197.94 39.8 197.94Z" fill="#367136" fill-opacity="1.000000" fill-rule="nonzero"/>
        <path id="path4474 (Stroke)" d="M45.23 243.61C46.9 243.61 48.25 242.26 48.25 240.6L48.25 222.35C48.25 220.69 46.9 219.34 45.23 219.34C43.56 219.34 42.21 220.69 42.21 222.35L42.21 240.6C42.21 242.26 43.56 243.61 45.23 243.61Z" fill="#FFFFFF" fill-opacity="1.000000" fill-rule="evenodd"/>
        <path id="path4476 (Stroke)" d="M45.23 199.34C46.9 199.34 48.25 197.99 48.25 196.32L48.25 173.79C48.25 172.13 46.9 170.78 45.23 170.78C43.56 170.78 42.21 172.13 42.21 173.79L42.21 196.32C42.21 197.99 43.56 199.34 45.23 199.34Z" fill="#FFFFFF" fill-opacity="1.000000" fill-rule="evenodd"/>
        <path id="path4478 (Stroke)" d="M45.43 203.68C44.2 203.69 43.25 203.19 42.82 202.53C42.06 201.37 40.5 201.05 39.34 201.81C38.18 202.57 37.86 204.13 38.62 205.29C40.23 207.74 43.03 208.72 45.47 208.7C47.89 208.68 50.67 207.66 52.11 205.17C52.81 203.97 52.39 202.43 51.19 201.73C49.99 201.04 48.45 201.45 47.76 202.65C47.48 203.13 46.68 203.67 45.43 203.68Z" fill="#FFFFFF" fill-opacity="1.000000" fill-rule="evenodd"/>
        <path id="path4480 (Stroke)" d="M45.43 212.49C44.2 212.5 43.25 212 42.82 211.35C42.06 210.19 40.5 209.86 39.34 210.63C38.18 211.39 37.86 212.95 38.62 214.11C40.23 216.56 43.03 217.54 45.47 217.52C47.89 217.5 50.67 216.47 52.11 213.98C52.81 212.78 52.39 211.24 51.19 210.55C49.99 209.86 48.45 210.27 47.76 211.47C47.48 211.95 46.68 212.48 45.43 212.49Z" fill="#FFFFFF" fill-opacity="1.000000" fill-rule="evenodd"/>
        <path id="path4482 (Stroke)" d="M94.71 210.89C94.71 215.71 98.63 219.62 103.46 219.62L135.21 219.59C140.04 219.58 143.95 215.67 143.95 210.84C143.94 206.01 140.02 202.1 135.2 202.11L103.44 202.14C98.61 202.14 94.7 206.06 94.71 210.89Z" fill="#367136" fill-opacity="1.000000" fill-rule="evenodd"/>
        <path id="ellipse4484" d="M156.36 161.93C162.93 161.93 168.25 166.05 168.25 171.14C168.25 176.22 162.93 180.34 156.36 180.34C149.78 180.34 144.46 176.22 144.46 171.14C144.46 166.05 149.78 161.93 156.36 161.93Z" fill="#367136" fill-opacity="1.000000" fill-rule="nonzero"/>
        <path id="path4486 (Stroke)" d="M77.71 225.9C81.69 230.72 88.82 231.39 93.64 227.41L146.14 184.01C150.95 180.03 151.63 172.9 147.65 168.09C143.67 163.28 136.54 162.6 131.73 166.58L79.23 209.98C74.41 213.96 73.73 221.09 77.71 225.9Z" fill="#367136" fill-opacity="1.000000" fill-rule="evenodd"/>
        <path id="ellipse4488" d="M154.12 197.94C162.85 197.94 169.92 203.42 169.92 210.17C169.92 216.93 162.85 222.4 154.12 222.4C145.39 222.4 138.31 216.93 138.31 210.17C138.31 203.42 145.39 197.94 154.12 197.94Z" fill="#367136" fill-opacity="1.000000" fill-rule="nonzero"/>
        <path id="rect4490" d="M109.56 228.7L83.75 228.7C83.21 228.7 82.77 228.07 82.77 227.31L82.77 192.87C82.77 192.11 83.21 191.48 83.75 191.48L109.56 191.48C110.1 191.48 110.54 192.11 110.54 192.87L110.54 227.31C110.54 228.07 110.1 228.7 109.56 228.7Z" fill="#367136" fill-opacity="1.000000" fill-rule="nonzero"/>
        <path id="path4492 (Stroke)" d="M77.2 202.77C78.36 203.96 80.27 203.98 81.46 202.81L84.97 199.38C86.16 198.21 86.18 196.31 85.02 195.11C83.85 193.92 81.94 193.9 80.75 195.07L77.24 198.5C76.05 199.67 76.03 201.58 77.2 202.77Z" fill="#FFFFFF" fill-opacity="1.000000" fill-rule="evenodd"/>
        <path id="path4494 (Stroke)" d="M96.66 221.93C98.33 221.92 99.67 220.57 99.67 218.9L99.64 210L91.78 203.76C90.47 202.72 88.58 202.94 87.54 204.25C86.5 205.55 86.72 207.45 88.03 208.48L93.62 212.92L93.64 218.92C93.64 220.59 95 221.93 96.66 221.93Z" fill="#FFFFFF" fill-opacity="1.000000" fill-rule="evenodd"/>
        <path id="path4496 (Stroke)" d="M148.15 201.83C149.76 195.6 146.01 189.24 139.78 187.63L114.63 181.14C108.4 179.54 102.05 183.28 100.44 189.52C98.83 195.75 102.58 202.11 108.81 203.72L133.95 210.2C140.19 211.81 146.54 208.06 148.15 201.83Z" fill="#367136" fill-opacity="1.000000" fill-rule="evenodd"/>
        <path id="path4498 (Stroke)" d="M148.62 243.61C150.28 243.61 151.63 242.26 151.63 240.6L151.63 222.35C151.63 220.69 150.28 219.34 148.62 219.34C146.95 219.34 145.6 220.69 145.6 222.35L145.6 240.6C145.6 242.26 146.95 243.61 148.62 243.61Z" fill="#FFFFFF" fill-opacity="1.000000" fill-rule="evenodd"/>
        <path id="path4500 (Stroke)" d="M118.25 194.01C119.31 195.29 121.21 195.48 122.49 194.43L139.07 180.82C140.36 179.77 140.55 177.87 139.49 176.58C138.43 175.29 136.53 175.1 135.25 176.16L118.67 189.76C117.38 190.82 117.19 192.72 118.25 194.01Z" fill="#FFFFFF" fill-opacity="1.000000" fill-rule="evenodd"/>
        <path id="path4502 (Stroke)" d="M148.62 199.34C150.28 199.34 151.63 197.99 151.63 196.32L151.63 173.79C151.63 172.13 150.28 170.78 148.62 170.78C146.95 170.78 145.6 172.13 145.6 173.79L145.6 196.32C145.6 197.99 146.95 199.34 148.62 199.34Z" fill="#FFFFFF" fill-opacity="1.000000" fill-rule="evenodd"/>
        <path id="path4504 (Stroke)" d="M148.81 203.68C147.58 203.69 146.63 203.19 146.21 202.53C145.44 201.37 143.89 201.05 142.73 201.81C141.57 202.57 141.24 204.13 142 205.29C143.61 207.74 146.41 208.72 148.86 208.7C151.27 208.68 154.06 207.66 155.5 205.17C156.19 203.97 155.78 202.43 154.58 201.73C153.38 201.04 151.84 201.45 151.14 202.65C150.87 203.13 150.07 203.67 148.81 203.68Z" fill="#FFFFFF" fill-opacity="1.000000" fill-rule="evenodd"/>
        <path id="path4506 (Stroke)" d="M148.81 212.49C147.58 212.5 146.63 212 146.21 211.35C145.44 210.19 143.89 209.86 142.73 210.63C141.57 211.39 141.24 212.95 142 214.11C143.61 216.56 146.41 217.54 148.86 217.52C151.27 217.5 154.06 216.47 155.5 213.98C156.19 212.78 155.78 211.24 154.58 210.55C153.38 209.86 151.84 210.27 151.14 211.47C150.87 211.95 150.07 212.48 148.81 212.49Z" fill="#FFFFFF" fill-opacity="1.000000" fill-rule="evenodd"/>
        <path id="path4508 (Stroke)" d="M116.22 202.85C117.41 201.69 117.43 199.78 116.26 198.59L112.83 195.08C111.66 193.89 109.75 193.87 108.56 195.03C107.37 196.2 107.35 198.11 108.52 199.3L111.95 202.81C113.12 204 115.03 204.02 116.22 202.85Z" fill="#FFFFFF" fill-opacity="1.000000" fill-rule="evenodd"/>
        <path id="path4510 (Stroke)" d="M120.92 209.2C121.97 210.5 123.86 210.71 125.16 209.67L131.95 204.23C133.25 203.19 133.46 201.29 132.42 199.99C131.38 198.69 129.48 198.48 128.18 199.52L121.39 204.96C120.09 206 119.88 207.9 120.92 209.2Z" fill="#FFFFFF" fill-opacity="1.000000" fill-rule="evenodd"/>
        <path id="path4512 (Stroke)" d="M96.83 221.93C98.5 221.93 99.85 220.59 99.86 218.92L99.88 212.92L105.47 208.48C106.78 207.45 106.99 205.55 105.96 204.25C104.92 202.94 103.03 202.72 101.72 203.76L93.86 210L93.83 218.9C93.82 220.57 95.17 221.92 96.83 221.93Z" fill="#FFFFFF" fill-opacity="1.000000" fill-rule="evenodd"/>
        <path id="path4514 (Stroke)" d="M75.25 194.01C76.3 192.72 76.12 190.82 74.83 189.76L58.25 176.16C56.96 175.1 55.06 175.29 54.01 176.58C52.95 177.87 53.14 179.77 54.43 180.82L71 194.43C72.29 195.48 74.19 195.29 75.25 194.01Z" fill="#FFFFFF" fill-opacity="1.000000" fill-rule="evenodd"/>
        <path id="path4516 (Stroke)" d="M72.57 209.2C73.61 207.9 73.4 206 72.1 204.96L65.32 199.52C64.02 198.48 62.12 198.69 61.08 199.99C60.04 201.29 60.25 203.19 61.54 204.23L68.33 209.67C69.63 210.71 71.53 210.5 72.57 209.2Z" fill="#FFFFFF" fill-opacity="1.000000" fill-rule="evenodd"/>
    </g>
</svg>
