<svg width="209.000000" height="313.000000" viewBox="0 0 209 313" fill="none" xmlns="http://www.w3.org/2000/svg" xmlns:xlink="http://www.w3.org/1999/xlink">
    <desc>
        Created with Pixso.
    </desc>
    <defs>
        <filter id="filter_4_2936_dd" x="0.000000" y="0.000000" width="209.000000" height="313.000000" filterUnits="userSpaceOnUse" color-interpolation-filters="sRGB">
            <feFlood flood-opacity="0" result="BackgroundImageFix"/>
            <feColorMatrix in="SourceAlpha" type="matrix" values="0 0 0 0 0 0 0 0 0 0 0 0 0 0 0 0 0 0 127 0" result="hardAlpha"/>
            <feOffset dx="0" dy="4"/>
            <feGaussianBlur stdDeviation="1.33333"/>
            <feComposite in2="hardAlpha" operator="out" k2="-1" k3="1"/>
            <feColorMatrix type="matrix" values="0 0 0 0 0 0 0 0 0 0 0 0 0 0 0 0 0 0 0.25 0"/>
            <feBlend mode="normal" in2="BackgroundImageFix" result="effect_dropShadow_1"/>
            <feBlend mode="normal" in="SourceGraphic" in2="effect_dropShadow_1" result="shape"/>
        </filter>
        <filter id="filter_4_2939_dd" x="4.000000" y="8.000000" width="195.000000" height="297.000000" filterUnits="userSpaceOnUse" color-interpolation-filters="sRGB">
            <feFlood flood-opacity="0" result="BackgroundImageFix"/>
            <feColorMatrix in="SourceAlpha" type="matrix" values="0 0 0 0 0 0 0 0 0 0 0 0 0 0 0 0 0 0 127 0" result="hardAlpha"/>
            <feOffset dx="0" dy="4"/>
            <feGaussianBlur stdDeviation="1.33333"/>
            <feComposite in2="hardAlpha" operator="out" k2="-1" k3="1"/>
            <feColorMatrix type="matrix" values="0 0 0 0 0 0 0 0 0 0 0 0 0 0 0 0 0 0 0.25 0"/>
            <feBlend mode="normal" in2="BackgroundImageFix" result="effect_dropShadow_1"/>
            <feBlend mode="normal" in="SourceGraphic" in2="effect_dropShadow_1" result="shape"/>
        </filter>
        <filter id="filter_4_3330_dd" x="31.000000" y="54.000000" width="142.979248" height="199.336914" filterUnits="userSpaceOnUse" color-interpolation-filters="sRGB">
            <feFlood flood-opacity="0" result="BackgroundImageFix"/>
            <feBlend mode="normal" in="SourceGraphic" in2="BackgroundImageFix" result="shape"/>
            <feColorMatrix in="SourceAlpha" type="matrix" values="0 0 0 0 0 0 0 0 0 0 0 0 0 0 0 0 0 0 127 0" result="hardAlpha"/>
            <feOffset dx="0" dy="4"/>
            <feGaussianBlur stdDeviation="1.33333"/>
            <feComposite in2="hardAlpha" operator="arithmetic" k2="-1" k3="1"/>
            <feColorMatrix type="matrix" values="0 0 0 0 0 0 0 0 0 0 0 0 0 0 0 0 0 0 0.25 0"/>
            <feBlend mode="normal" in2="shape" result="effect_innerShadow_1"/>
        </filter>
    </defs>
    <g filter="url(#filter_4_2936_dd)">
        <rect id="Rectangle 1" x="8.000000" rx="20.000000" width="197.000000" height="297.000000" fill="#985B26" fill-opacity="1.000000"/>
        <rect id="Rectangle 1" x="8.500000" y="0.500000" rx="20.000000" width="196.000000" height="296.000000" stroke="#000000" stroke-opacity="1.000000" stroke-width="1.000000"/>
        <g filter="url(#filter_4_2939_dd)">
            <rect id="Rectangle 2" x="8.000000" y="8.000000" rx="20.000000" width="187.000000" height="289.000000" fill="#FFF0DB" fill-opacity="1.000000"/>
            <rect id="Rectangle 2" x="8.500000" y="8.500000" rx="20.000000" width="186.000000" height="288.000000" stroke="#000000" stroke-opacity="1.000000" stroke-width="1.000000"/>
        </g>
        <g filter="url(#filter_4_3330_dd)">
            <path id="circle4349" d="M95.97 72.84C101.7 72.84 106.33 69.28 106.33 64.91C106.33 60.53 101.7 56.98 95.97 56.98C90.25 56.98 85.61 60.53 85.61 64.91C85.61 69.28 90.25 72.84 95.97 72.84Z" fill="#E9411B" fill-opacity="1.000000" fill-rule="nonzero"/>
            <path id="circle4351" d="M109.35 72.84C115.07 72.84 119.71 69.28 119.71 64.91C119.71 60.53 115.07 56.98 109.35 56.98C103.63 56.98 98.99 60.53 98.99 64.91C98.99 69.28 103.63 72.84 109.35 72.84Z" fill="#E9411B" fill-opacity="1.000000" fill-rule="nonzero"/>
            <path id="circle4353" d="M95.41 115.35C101.13 115.35 105.77 111.8 105.77 107.42C105.77 103.04 101.13 99.49 95.41 99.49C89.69 99.49 85.05 103.04 85.05 107.42C85.05 111.8 89.69 115.35 95.41 115.35Z" fill="#E9411B" fill-opacity="1.000000" fill-rule="nonzero"/>
            <path id="path4355 (Stroke)" d="M102.68 54C108.11 54 112.51 58.4 112.51 63.83L112.51 106.09C112.51 111.52 108.11 115.92 102.68 115.92C97.25 115.92 92.85 111.52 92.85 106.09L92.85 63.83C92.85 58.4 97.25 54 102.68 54Z" fill="#E9411B" fill-opacity="1.000000" fill-rule="evenodd"/>
            <path id="circle4357" d="M110.1 115.35C115.82 115.35 120.46 111.8 120.46 107.42C120.46 103.04 115.82 99.49 110.1 99.49C104.38 99.49 99.74 103.04 99.74 107.42C99.74 111.8 104.38 115.35 110.1 115.35Z" fill="#E9411B" fill-opacity="1.000000" fill-rule="nonzero"/>
            <path id="circle4359" d="M107.95 94.73C114.92 94.73 120.57 90.41 120.57 85.07C120.57 79.74 114.92 75.42 107.95 75.42C100.98 75.42 95.34 79.74 95.34 85.07C95.34 90.41 100.98 94.73 107.95 94.73Z" fill="#E9411B" fill-opacity="1.000000" fill-rule="nonzero"/>
            <path id="circle4361" d="M97.48 94.73C104.45 94.73 110.1 90.41 110.1 85.07C110.1 79.74 104.45 75.42 97.48 75.42C90.52 75.42 84.87 79.74 84.87 85.07C84.87 90.41 90.52 94.73 97.48 94.73Z" fill="#E9411B" fill-opacity="1.000000" fill-rule="nonzero"/>
            <path id="path4363 (Stroke)" d="M102.6 60.24C104.16 60.24 105.43 61.51 105.43 63.07L105.43 76.48C105.43 78.04 104.16 79.31 102.6 79.31C101.03 79.31 99.77 78.04 99.77 76.48L99.77 63.07C99.77 61.51 101.03 60.24 102.6 60.24Z" fill="#FFFFFF" fill-opacity="1.000000" fill-rule="evenodd"/>
            <path id="path4365 (Stroke)" d="M102.6 90.61C104.16 90.61 105.43 91.88 105.43 93.44L105.43 106.15C105.43 107.71 104.16 108.98 102.6 108.98C101.03 108.98 99.77 107.71 99.77 106.15L99.77 93.44C99.77 91.88 101.03 90.61 102.6 90.61Z" fill="#FFFFFF" fill-opacity="1.000000" fill-rule="evenodd"/>
            <path id="path4367 (Stroke)" d="M99.38 84.85C99.38 83.29 100.65 82.02 102.21 82.02L102.99 82.02C104.55 82.02 105.82 83.29 105.82 84.85C105.82 86.42 104.55 87.68 102.99 87.68L102.21 87.68C100.65 87.68 99.38 86.42 99.38 84.85Z" fill="#FFFFFF" fill-opacity="1.000000" fill-rule="evenodd"/>
            <path id="circle4305" d="M42.1 210.25C47.82 210.25 52.46 206.7 52.46 202.32C52.46 197.94 47.82 194.39 42.1 194.39C36.38 194.39 31.74 197.94 31.74 202.32C31.74 206.7 36.38 210.25 42.1 210.25Z" fill="#367136" fill-opacity="1.000000" fill-rule="nonzero"/>
            <path id="circle4307" d="M55.47 210.25C61.2 210.25 65.83 206.7 65.83 202.32C65.83 197.94 61.2 194.39 55.47 194.39C49.75 194.39 45.12 197.94 45.12 202.32C45.12 206.7 49.75 210.25 55.47 210.25Z" fill="#367136" fill-opacity="1.000000" fill-rule="nonzero"/>
            <path id="circle4309" d="M41.54 252.76C47.26 252.76 51.9 249.21 51.9 244.83C51.9 240.45 47.26 236.9 41.54 236.9C35.82 236.9 31.18 240.45 31.18 244.83C31.18 249.21 35.82 252.76 41.54 252.76Z" fill="#367136" fill-opacity="1.000000" fill-rule="nonzero"/>
            <path id="path4311 (Stroke)" d="M48.81 191.41C54.24 191.41 58.64 195.81 58.64 201.24L58.64 243.5C58.64 248.93 54.24 253.33 48.81 253.33C43.38 253.33 38.98 248.93 38.98 243.5L38.98 201.24C38.98 195.81 43.38 191.41 48.81 191.41Z" fill="#367136" fill-opacity="1.000000" fill-rule="evenodd"/>
            <path id="circle4313" d="M56.22 252.76C61.95 252.76 66.58 249.21 66.58 244.83C66.58 240.45 61.95 236.9 56.22 236.9C50.5 236.9 45.86 240.45 45.86 244.83C45.86 249.21 50.5 252.76 56.22 252.76Z" fill="#367136" fill-opacity="1.000000" fill-rule="nonzero"/>
            <path id="circle4315" d="M54.08 232.14C61.05 232.14 66.69 227.82 66.69 222.49C66.69 217.15 61.05 212.83 54.08 212.83C47.11 212.83 41.46 217.15 41.46 222.49C41.46 227.82 47.11 232.14 54.08 232.14Z" fill="#367136" fill-opacity="1.000000" fill-rule="nonzero"/>
            <path id="circle4317" d="M43.61 232.14C50.58 232.14 56.23 227.82 56.23 222.49C56.23 217.15 50.58 212.83 43.61 212.83C36.64 212.83 31 217.15 31 222.49C31 227.82 36.64 232.14 43.61 232.14Z" fill="#367136" fill-opacity="1.000000" fill-rule="nonzero"/>
            <path id="path4319 (Stroke)" d="M48.72 197.65C50.29 197.65 51.56 198.92 51.56 200.49L51.56 213.89C51.56 215.45 50.29 216.72 48.72 216.72C47.16 216.72 45.89 215.45 45.89 213.89L45.89 200.49C45.89 198.92 47.16 197.65 48.72 197.65Z" fill="#FFFFFF" fill-opacity="1.000000" fill-rule="evenodd"/>
            <path id="path4321 (Stroke)" d="M48.72 228.03C50.29 228.03 51.56 229.29 51.56 230.86L51.56 243.56C51.56 245.12 50.29 246.39 48.72 246.39C47.16 246.39 45.89 245.12 45.89 243.56L45.89 230.86C45.89 229.29 47.16 228.03 48.72 228.03Z" fill="#FFFFFF" fill-opacity="1.000000" fill-rule="evenodd"/>
            <path id="path4323 (Stroke)" d="M45.51 222.27C45.51 220.7 46.77 219.44 48.34 219.44L49.12 219.44C50.68 219.44 51.95 220.7 51.95 222.27C51.95 223.83 50.68 225.1 49.12 225.1L48.34 225.1C46.77 225.1 45.51 223.83 45.51 222.27Z" fill="#FFFFFF" fill-opacity="1.000000" fill-rule="evenodd"/>
            <path id="circle4327" d="M149.38 210.25C155.1 210.25 159.74 206.7 159.74 202.32C159.74 197.94 155.1 194.39 149.38 194.39C143.66 194.39 139.02 197.94 139.02 202.32C139.02 206.7 143.66 210.25 149.38 210.25Z" fill="#367136" fill-opacity="1.000000" fill-rule="nonzero"/>
            <path id="circle4329" d="M162.76 210.25C168.48 210.25 173.12 206.7 173.12 202.32C173.12 197.94 168.48 194.39 162.76 194.39C157.03 194.39 152.4 197.94 152.4 202.32C152.4 206.7 157.03 210.25 162.76 210.25Z" fill="#367136" fill-opacity="1.000000" fill-rule="nonzero"/>
            <path id="circle4331" d="M148.82 252.76C154.54 252.76 159.18 249.21 159.18 244.83C159.18 240.45 154.54 236.9 148.82 236.9C143.1 236.9 138.46 240.45 138.46 244.83C138.46 249.21 143.1 252.76 148.82 252.76Z" fill="#367136" fill-opacity="1.000000" fill-rule="nonzero"/>
            <path id="path4333 (Stroke)" d="M156.09 191.41C161.52 191.41 165.92 195.81 165.92 201.24L165.92 243.5C165.92 248.93 161.52 253.33 156.09 253.33C150.66 253.33 146.26 248.93 146.26 243.5L146.26 201.24C146.26 195.81 150.66 191.41 156.09 191.41Z" fill="#367136" fill-opacity="1.000000" fill-rule="evenodd"/>
            <path id="circle4335" d="M163.5 252.76C169.23 252.76 173.86 249.21 173.86 244.83C173.86 240.45 169.23 236.9 163.5 236.9C157.78 236.9 153.14 240.45 153.14 244.83C153.14 249.21 157.78 252.76 163.5 252.76Z" fill="#367136" fill-opacity="1.000000" fill-rule="nonzero"/>
            <path id="circle4337" d="M161.36 232.14C168.33 232.14 173.97 227.82 173.97 222.49C173.97 217.15 168.33 212.83 161.36 212.83C154.39 212.83 148.74 217.15 148.74 222.49C148.74 227.82 154.39 232.14 161.36 232.14Z" fill="#367136" fill-opacity="1.000000" fill-rule="nonzero"/>
            <path id="circle4339" d="M150.89 232.14C157.86 232.14 163.51 227.82 163.51 222.49C163.51 217.15 157.86 212.83 150.89 212.83C143.92 212.83 138.28 217.15 138.28 222.49C138.28 227.82 143.92 232.14 150.89 232.14Z" fill="#367136" fill-opacity="1.000000" fill-rule="nonzero"/>
            <path id="path4341 (Stroke)" d="M156.01 197.65C157.57 197.65 158.84 198.92 158.84 200.49L158.84 213.89C158.84 215.45 157.57 216.72 156.01 216.72C154.44 216.72 153.17 215.45 153.17 213.89L153.17 200.49C153.17 198.92 154.44 197.65 156.01 197.65Z" fill="#FFFFFF" fill-opacity="1.000000" fill-rule="evenodd"/>
            <path id="path4343 (Stroke)" d="M156.01 228.03C157.57 228.03 158.84 229.29 158.84 230.86L158.84 243.56C158.84 245.12 157.57 246.39 156.01 246.39C154.44 246.39 153.17 245.12 153.17 243.56L153.17 230.86C153.17 229.29 154.44 228.03 156.01 228.03Z" fill="#FFFFFF" fill-opacity="1.000000" fill-rule="evenodd"/>
            <path id="path4345 (Stroke)" d="M152.79 222.27C152.79 220.7 154.06 219.44 155.62 219.44L156.4 219.44C157.96 219.44 159.23 220.7 159.23 222.27C159.23 223.83 157.96 225.1 156.4 225.1L155.62 225.1C154.06 225.1 152.79 223.83 152.79 222.27Z" fill="#FFFFFF" fill-opacity="1.000000" fill-rule="evenodd"/>
            <path id="circle4239" d="M42.1 142.33C47.82 142.33 52.46 138.78 52.46 134.4C52.46 130.02 47.82 126.47 42.1 126.47C36.38 126.47 31.74 130.02 31.74 134.4C31.74 138.78 36.38 142.33 42.1 142.33Z" fill="#367136" fill-opacity="1.000000" fill-rule="nonzero"/>
            <path id="circle4241" d="M55.47 142.33C61.2 142.33 65.83 138.78 65.83 134.4C65.83 130.02 61.2 126.47 55.47 126.47C49.75 126.47 45.12 130.02 45.12 134.4C45.12 138.78 49.75 142.33 55.47 142.33Z" fill="#367136" fill-opacity="1.000000" fill-rule="nonzero"/>
            <path id="circle4243" d="M41.54 184.84C47.26 184.84 51.9 181.29 51.9 176.91C51.9 172.53 47.26 168.98 41.54 168.98C35.82 168.98 31.18 172.53 31.18 176.91C31.18 181.29 35.82 184.84 41.54 184.84Z" fill="#367136" fill-opacity="1.000000" fill-rule="nonzero"/>
            <path id="path4245 (Stroke)" d="M48.81 123.49C54.24 123.49 58.64 127.89 58.64 133.32L58.64 175.58C58.64 181.01 54.24 185.41 48.81 185.41C43.38 185.41 38.98 181.01 38.98 175.58L38.98 133.32C38.98 127.89 43.38 123.49 48.81 123.49Z" fill="#367136" fill-opacity="1.000000" fill-rule="evenodd"/>
            <path id="circle4247" d="M56.22 184.84C61.95 184.84 66.58 181.29 66.58 176.91C66.58 172.53 61.95 168.98 56.22 168.98C50.5 168.98 45.86 172.53 45.86 176.91C45.86 181.29 50.5 184.84 56.22 184.84Z" fill="#367136" fill-opacity="1.000000" fill-rule="nonzero"/>
            <path id="circle4249" d="M54.08 164.22C61.05 164.22 66.69 159.9 66.69 154.57C66.69 149.23 61.05 144.91 54.08 144.91C47.11 144.91 41.46 149.23 41.46 154.57C41.46 159.9 47.11 164.22 54.08 164.22Z" fill="#367136" fill-opacity="1.000000" fill-rule="nonzero"/>
            <path id="circle4251" d="M43.61 164.22C50.58 164.22 56.23 159.9 56.23 154.57C56.23 149.23 50.58 144.91 43.61 144.91C36.64 144.91 31 149.23 31 154.57C31 159.9 36.64 164.22 43.61 164.22Z" fill="#367136" fill-opacity="1.000000" fill-rule="nonzero"/>
            <path id="path4253 (Stroke)" d="M48.72 129.74C50.29 129.74 51.56 131 51.56 132.57L51.56 145.97C51.56 147.54 50.29 148.8 48.72 148.8C47.16 148.8 45.89 147.54 45.89 145.97L45.89 132.57C45.89 131 47.16 129.74 48.72 129.74Z" fill="#FFFFFF" fill-opacity="1.000000" fill-rule="evenodd"/>
            <path id="path4255 (Stroke)" d="M48.72 160.11C50.29 160.11 51.56 161.38 51.56 162.94L51.56 175.64C51.56 177.2 50.29 178.47 48.72 178.47C47.16 178.47 45.89 177.2 45.89 175.64L45.89 162.94C45.89 161.38 47.16 160.11 48.72 160.11Z" fill="#FFFFFF" fill-opacity="1.000000" fill-rule="evenodd"/>
            <path id="path4257 (Stroke)" d="M45.51 154.35C45.51 152.78 46.77 151.52 48.34 151.52L49.12 151.52C50.68 151.52 51.95 152.78 51.95 154.35C51.95 155.91 50.68 157.18 49.12 157.18L48.34 157.18C46.77 157.18 45.51 155.91 45.51 154.35Z" fill="#FFFFFF" fill-opacity="1.000000" fill-rule="evenodd"/>
            <path id="circle4261" d="M149.38 142.33C155.1 142.33 159.74 138.78 159.74 134.4C159.74 130.02 155.1 126.47 149.38 126.47C143.66 126.47 139.02 130.02 139.02 134.4C139.02 138.78 143.66 142.33 149.38 142.33Z" fill="#367136" fill-opacity="1.000000" fill-rule="nonzero"/>
            <path id="circle4263" d="M162.76 142.33C168.48 142.33 173.12 138.78 173.12 134.4C173.12 130.02 168.48 126.47 162.76 126.47C157.03 126.47 152.4 130.02 152.4 134.4C152.4 138.78 157.03 142.33 162.76 142.33Z" fill="#367136" fill-opacity="1.000000" fill-rule="nonzero"/>
            <path id="circle4265" d="M148.82 184.84C154.54 184.84 159.18 181.29 159.18 176.91C159.18 172.53 154.54 168.98 148.82 168.98C143.1 168.98 138.46 172.53 138.46 176.91C138.46 181.29 143.1 184.84 148.82 184.84Z" fill="#367136" fill-opacity="1.000000" fill-rule="nonzero"/>
            <path id="path4267 (Stroke)" d="M156.09 123.49C161.52 123.49 165.92 127.89 165.92 133.32L165.92 175.58C165.92 181.01 161.52 185.41 156.09 185.41C150.66 185.41 146.26 181.01 146.26 175.58L146.26 133.32C146.26 127.89 150.66 123.49 156.09 123.49Z" fill="#367136" fill-opacity="1.000000" fill-rule="evenodd"/>
            <path id="circle4269" d="M163.5 184.84C169.23 184.84 173.86 181.29 173.86 176.91C173.86 172.53 169.23 168.98 163.5 168.98C157.78 168.98 153.14 172.53 153.14 176.91C153.14 181.29 157.78 184.84 163.5 184.84Z" fill="#367136" fill-opacity="1.000000" fill-rule="nonzero"/>
            <path id="circle4271" d="M161.36 164.22C168.33 164.22 173.97 159.9 173.97 154.57C173.97 149.23 168.33 144.91 161.36 144.91C154.39 144.91 148.74 149.23 148.74 154.57C148.74 159.9 154.39 164.22 161.36 164.22Z" fill="#367136" fill-opacity="1.000000" fill-rule="nonzero"/>
            <path id="circle4273" d="M150.89 164.22C157.86 164.22 163.51 159.9 163.51 154.57C163.51 149.23 157.86 144.91 150.89 144.91C143.92 144.91 138.28 149.23 138.28 154.57C138.28 159.9 143.92 164.22 150.89 164.22Z" fill="#367136" fill-opacity="1.000000" fill-rule="nonzero"/>
            <path id="path4275 (Stroke)" d="M156.01 129.74C157.57 129.74 158.84 131 158.84 132.57L158.84 145.97C158.84 147.54 157.57 148.8 156.01 148.8C154.44 148.8 153.17 147.54 153.17 145.97L153.17 132.57C153.17 131 154.44 129.74 156.01 129.74Z" fill="#FFFFFF" fill-opacity="1.000000" fill-rule="evenodd"/>
            <path id="path4277 (Stroke)" d="M156.01 160.11C157.57 160.11 158.84 161.38 158.84 162.94L158.84 175.64C158.84 177.2 157.57 178.47 156.01 178.47C154.44 178.47 153.17 177.2 153.17 175.64L153.17 162.94C153.17 161.38 154.44 160.11 156.01 160.11Z" fill="#FFFFFF" fill-opacity="1.000000" fill-rule="evenodd"/>
            <path id="path4279 (Stroke)" d="M152.79 154.35C152.79 152.78 154.06 151.52 155.62 151.52L156.4 151.52C157.96 151.52 159.23 152.78 159.23 154.35C159.23 155.91 157.96 157.18 156.4 157.18L155.62 157.18C154.06 157.18 152.79 155.91 152.79 154.35Z" fill="#FFFFFF" fill-opacity="1.000000" fill-rule="evenodd"/>
            <path id="circle4577" d="M95.97 142.33C101.7 142.33 106.33 138.78 106.33 134.4C106.33 130.02 101.7 126.47 95.97 126.47C90.25 126.47 85.61 130.02 85.61 134.4C85.61 138.78 90.25 142.33 95.97 142.33Z" fill="#E9411B" fill-opacity="1.000000" fill-rule="nonzero"/>
            <path id="circle4579" d="M109.35 142.33C115.07 142.33 119.71 138.78 119.71 134.4C119.71 130.02 115.07 126.47 109.35 126.47C103.63 126.47 98.99 130.02 98.99 134.4C98.99 138.78 103.63 142.33 109.35 142.33Z" fill="#E9411B" fill-opacity="1.000000" fill-rule="nonzero"/>
            <path id="circle4581" d="M95.41 184.84C101.13 184.84 105.77 181.29 105.77 176.91C105.77 172.53 101.13 168.98 95.41 168.98C89.69 168.98 85.05 172.53 85.05 176.91C85.05 181.29 89.69 184.84 95.41 184.84Z" fill="#E9411B" fill-opacity="1.000000" fill-rule="nonzero"/>
            <path id="path4583 (Stroke)" d="M102.68 123.49C108.11 123.49 112.51 127.89 112.51 133.32L112.51 175.58C112.51 181.01 108.11 185.41 102.68 185.41C97.25 185.41 92.85 181.01 92.85 175.58L92.85 133.32C92.85 127.89 97.25 123.49 102.68 123.49Z" fill="#E9411B" fill-opacity="1.000000" fill-rule="evenodd"/>
            <path id="circle4585" d="M110.1 184.84C115.82 184.84 120.46 181.29 120.46 176.91C120.46 172.53 115.82 168.98 110.1 168.98C104.38 168.98 99.74 172.53 99.74 176.91C99.74 181.29 104.38 184.84 110.1 184.84Z" fill="#E9411B" fill-opacity="1.000000" fill-rule="nonzero"/>
            <path id="circle4587" d="M107.95 164.22C114.92 164.22 120.57 159.9 120.57 154.57C120.57 149.23 114.92 144.91 107.95 144.91C100.98 144.91 95.34 149.23 95.34 154.57C95.34 159.9 100.98 164.22 107.95 164.22Z" fill="#E9411B" fill-opacity="1.000000" fill-rule="nonzero"/>
            <path id="circle4589" d="M97.48 164.22C104.45 164.22 110.1 159.9 110.1 154.57C110.1 149.23 104.45 144.91 97.48 144.91C90.52 144.91 84.87 149.23 84.87 154.57C84.87 159.9 90.52 164.22 97.48 164.22Z" fill="#E9411B" fill-opacity="1.000000" fill-rule="nonzero"/>
            <path id="path4591 (Stroke)" d="M102.6 129.74C104.16 129.74 105.43 131 105.43 132.57L105.43 145.97C105.43 147.54 104.16 148.8 102.6 148.8C101.03 148.8 99.77 147.54 99.77 145.97L99.77 132.57C99.77 131 101.03 129.74 102.6 129.74Z" fill="#FFFFFF" fill-opacity="1.000000" fill-rule="evenodd"/>
            <path id="path4593 (Stroke)" d="M102.6 160.11C104.16 160.11 105.43 161.38 105.43 162.94L105.43 175.64C105.43 177.2 104.16 178.47 102.6 178.47C101.03 178.47 99.77 177.2 99.77 175.64L99.77 162.94C99.77 161.38 101.03 160.11 102.6 160.11Z" fill="#FFFFFF" fill-opacity="1.000000" fill-rule="evenodd"/>
            <path id="path4595 (Stroke)" d="M99.38 154.35C99.38 152.78 100.65 151.52 102.21 151.52L102.99 151.52C104.55 151.52 105.82 152.78 105.82 154.35C105.82 155.91 104.55 157.18 102.99 157.18L102.21 157.18C100.65 157.18 99.38 155.91 99.38 154.35Z" fill="#FFFFFF" fill-opacity="1.000000" fill-rule="evenodd"/>
            <path id="circle4599" d="M95.97 210.25C101.7 210.25 106.33 206.7 106.33 202.32C106.33 197.94 101.7 194.39 95.97 194.39C90.25 194.39 85.61 197.94 85.61 202.32C85.61 206.7 90.25 210.25 95.97 210.25Z" fill="#E9411B" fill-opacity="1.000000" fill-rule="nonzero"/>
            <path id="circle4601" d="M109.35 210.25C115.07 210.25 119.71 206.7 119.71 202.32C119.71 197.94 115.07 194.39 109.35 194.39C103.63 194.39 98.99 197.94 98.99 202.32C98.99 206.7 103.63 210.25 109.35 210.25Z" fill="#E9411B" fill-opacity="1.000000" fill-rule="nonzero"/>
            <path id="circle4603" d="M95.41 252.76C101.13 252.76 105.77 249.21 105.77 244.83C105.77 240.45 101.13 236.9 95.41 236.9C89.69 236.9 85.05 240.45 85.05 244.83C85.05 249.21 89.69 252.76 95.41 252.76Z" fill="#E9411B" fill-opacity="1.000000" fill-rule="nonzero"/>
            <path id="path4605 (Stroke)" d="M102.68 191.41C108.11 191.41 112.51 195.81 112.51 201.24L112.51 243.5C112.51 248.93 108.11 253.33 102.68 253.33C97.25 253.33 92.85 248.93 92.85 243.5L92.85 201.24C92.85 195.81 97.25 191.41 102.68 191.41Z" fill="#E9411B" fill-opacity="1.000000" fill-rule="evenodd"/>
            <path id="circle4607" d="M110.1 252.76C115.82 252.76 120.46 249.21 120.46 244.83C120.46 240.45 115.82 236.9 110.1 236.9C104.38 236.9 99.74 240.45 99.74 244.83C99.74 249.21 104.38 252.76 110.1 252.76Z" fill="#E9411B" fill-opacity="1.000000" fill-rule="nonzero"/>
            <path id="circle4609" d="M107.95 232.14C114.92 232.14 120.57 227.82 120.57 222.49C120.57 217.15 114.92 212.83 107.95 212.83C100.98 212.83 95.34 217.15 95.34 222.49C95.34 227.82 100.98 232.14 107.95 232.14Z" fill="#E9411B" fill-opacity="1.000000" fill-rule="nonzero"/>
            <path id="circle4611" d="M97.48 232.14C104.45 232.14 110.1 227.82 110.1 222.49C110.1 217.15 104.45 212.83 97.48 212.83C90.52 212.83 84.87 217.15 84.87 222.49C84.87 227.82 90.52 232.14 97.48 232.14Z" fill="#E9411B" fill-opacity="1.000000" fill-rule="nonzero"/>
            <path id="path4613 (Stroke)" d="M102.6 197.65C104.16 197.65 105.43 198.92 105.43 200.49L105.43 213.89C105.43 215.45 104.16 216.72 102.6 216.72C101.03 216.72 99.77 215.45 99.77 213.89L99.77 200.49C99.77 198.92 101.03 197.65 102.6 197.65Z" fill="#FFFFFF" fill-opacity="1.000000" fill-rule="evenodd"/>
            <path id="path4615 (Stroke)" d="M102.6 228.03C104.16 228.03 105.43 229.29 105.43 230.86L105.43 243.56C105.43 245.12 104.16 246.39 102.6 246.39C101.03 246.39 99.77 245.12 99.77 243.56L99.77 230.86C99.77 229.29 101.03 228.03 102.6 228.03Z" fill="#FFFFFF" fill-opacity="1.000000" fill-rule="evenodd"/>
            <path id="path4617 (Stroke)" d="M99.38 222.27C99.38 220.7 100.65 219.44 102.21 219.44L102.99 219.44C104.55 219.44 105.82 220.7 105.82 222.27C105.82 223.83 104.55 225.1 102.99 225.1L102.21 225.1C100.65 225.1 99.38 223.83 99.38 222.27Z" fill="#FFFFFF" fill-opacity="1.000000" fill-rule="evenodd"/>
            <path id="circle4651" d="M42.1 72.84C47.82 72.84 52.46 69.28 52.46 64.91C52.46 60.53 47.82 56.98 42.1 56.98C36.38 56.98 31.74 60.53 31.74 64.91C31.74 69.28 36.38 72.84 42.1 72.84Z" fill="#367136" fill-opacity="1.000000" fill-rule="nonzero"/>
            <path id="circle4653" d="M55.47 72.84C61.2 72.84 65.83 69.28 65.83 64.91C65.83 60.53 61.2 56.98 55.47 56.98C49.75 56.98 45.12 60.53 45.12 64.91C45.12 69.28 49.75 72.84 55.47 72.84Z" fill="#367136" fill-opacity="1.000000" fill-rule="nonzero"/>
            <path id="circle4655" d="M41.54 115.35C47.26 115.35 51.9 111.8 51.9 107.42C51.9 103.04 47.26 99.49 41.54 99.49C35.82 99.49 31.18 103.04 31.18 107.42C31.18 111.8 35.82 115.35 41.54 115.35Z" fill="#367136" fill-opacity="1.000000" fill-rule="nonzero"/>
            <path id="path4657 (Stroke)" d="M48.81 54C54.24 54 58.64 58.4 58.64 63.83L58.64 106.09C58.64 111.52 54.24 115.92 48.81 115.92C43.38 115.92 38.98 111.52 38.98 106.09L38.98 63.83C38.98 58.4 43.38 54 48.81 54Z" fill="#367136" fill-opacity="1.000000" fill-rule="evenodd"/>
            <path id="circle4659" d="M56.22 115.35C61.95 115.35 66.58 111.8 66.58 107.42C66.58 103.04 61.95 99.49 56.22 99.49C50.5 99.49 45.86 103.04 45.86 107.42C45.86 111.8 50.5 115.35 56.22 115.35Z" fill="#367136" fill-opacity="1.000000" fill-rule="nonzero"/>
            <path id="circle4661" d="M54.08 94.73C61.05 94.73 66.69 90.41 66.69 85.07C66.69 79.74 61.05 75.42 54.08 75.42C47.11 75.42 41.46 79.74 41.46 85.07C41.46 90.41 47.11 94.73 54.08 94.73Z" fill="#367136" fill-opacity="1.000000" fill-rule="nonzero"/>
            <path id="circle4663" d="M43.61 94.73C50.58 94.73 56.23 90.41 56.23 85.07C56.23 79.74 50.58 75.42 43.61 75.42C36.64 75.42 31 79.74 31 85.07C31 90.41 36.64 94.73 43.61 94.73Z" fill="#367136" fill-opacity="1.000000" fill-rule="nonzero"/>
            <path id="path4665 (Stroke)" d="M48.72 60.24C50.29 60.24 51.56 61.51 51.56 63.07L51.56 76.48C51.56 78.04 50.29 79.31 48.72 79.31C47.16 79.31 45.89 78.04 45.89 76.48L45.89 63.07C45.89 61.51 47.16 60.24 48.72 60.24Z" fill="#FFFFFF" fill-opacity="1.000000" fill-rule="evenodd"/>
            <path id="path4667 (Stroke)" d="M48.72 90.61C50.29 90.61 51.56 91.88 51.56 93.44L51.56 106.15C51.56 107.71 50.29 108.98 48.72 108.98C47.16 108.98 45.89 107.71 45.89 106.15L45.89 93.44C45.89 91.88 47.16 90.61 48.72 90.61Z" fill="#FFFFFF" fill-opacity="1.000000" fill-rule="evenodd"/>
            <path id="path4669 (Stroke)" d="M45.51 84.85C45.51 83.29 46.77 82.02 48.34 82.02L49.12 82.02C50.68 82.02 51.95 83.29 51.95 84.85C51.95 86.42 50.68 87.68 49.12 87.68L48.34 87.68C46.77 87.68 45.51 86.42 45.51 84.85Z" fill="#FFFFFF" fill-opacity="1.000000" fill-rule="evenodd"/>
            <path id="circle4673" d="M149.38 72.84C155.1 72.84 159.74 69.28 159.74 64.91C159.74 60.53 155.1 56.98 149.38 56.98C143.66 56.98 139.02 60.53 139.02 64.91C139.02 69.28 143.66 72.84 149.38 72.84Z" fill="#367136" fill-opacity="1.000000" fill-rule="nonzero"/>
            <path id="circle4675" d="M162.76 72.84C168.48 72.84 173.12 69.28 173.12 64.91C173.12 60.53 168.48 56.98 162.76 56.98C157.03 56.98 152.4 60.53 152.4 64.91C152.4 69.28 157.03 72.84 162.76 72.84Z" fill="#367136" fill-opacity="1.000000" fill-rule="nonzero"/>
            <path id="circle4677" d="M148.82 115.35C154.54 115.35 159.18 111.8 159.18 107.42C159.18 103.04 154.54 99.49 148.82 99.49C143.1 99.49 138.46 103.04 138.46 107.42C138.46 111.8 143.1 115.35 148.82 115.35Z" fill="#367136" fill-opacity="1.000000" fill-rule="nonzero"/>
            <path id="path4679 (Stroke)" d="M156.09 54C161.52 54 165.92 58.4 165.92 63.83L165.92 106.09C165.92 111.52 161.52 115.92 156.09 115.92C150.66 115.92 146.26 111.52 146.26 106.09L146.26 63.83C146.26 58.4 150.66 54 156.09 54Z" fill="#367136" fill-opacity="1.000000" fill-rule="evenodd"/>
            <path id="circle4681" d="M163.5 115.35C169.23 115.35 173.86 111.8 173.86 107.42C173.86 103.04 169.23 99.49 163.5 99.49C157.78 99.49 153.14 103.04 153.14 107.42C153.14 111.8 157.78 115.35 163.5 115.35Z" fill="#367136" fill-opacity="1.000000" fill-rule="nonzero"/>
            <path id="circle4683" d="M161.36 94.73C168.33 94.73 173.97 90.41 173.97 85.07C173.97 79.74 168.33 75.42 161.36 75.42C154.39 75.42 148.74 79.74 148.74 85.07C148.74 90.41 154.39 94.73 161.36 94.73Z" fill="#367136" fill-opacity="1.000000" fill-rule="nonzero"/>
            <path id="circle4685" d="M150.89 94.73C157.86 94.73 163.51 90.41 163.51 85.07C163.51 79.74 157.86 75.42 150.89 75.42C143.92 75.42 138.28 79.74 138.28 85.07C138.28 90.41 143.92 94.73 150.89 94.73Z" fill="#367136" fill-opacity="1.000000" fill-rule="nonzero"/>
            <path id="path4687 (Stroke)" d="M156.01 60.24C157.57 60.24 158.84 61.51 158.84 63.07L158.84 76.48C158.84 78.04 157.57 79.31 156.01 79.31C154.44 79.31 153.17 78.04 153.17 76.48L153.17 63.07C153.17 61.51 154.44 60.24 156.01 60.24Z" fill="#FFFFFF" fill-opacity="1.000000" fill-rule="evenodd"/>
            <path id="path4689 (Stroke)" d="M156.01 90.61C157.57 90.61 158.84 91.88 158.84 93.44L158.84 106.15C158.84 107.71 157.57 108.98 156.01 108.98C154.44 108.98 153.17 107.71 153.17 106.15L153.17 93.44C153.17 91.88 154.44 90.61 156.01 90.61Z" fill="#FFFFFF" fill-opacity="1.000000" fill-rule="evenodd"/>
            <path id="path4691 (Stroke)" d="M152.79 84.85C152.79 83.29 154.06 82.02 155.62 82.02L156.4 82.02C157.96 82.02 159.23 83.29 159.23 84.85C159.23 86.42 157.96 87.68 156.4 87.68L155.62 87.68C154.06 87.68 152.79 86.42 152.79 84.85Z" fill="#FFFFFF" fill-opacity="1.000000" fill-rule="evenodd"/>
        </g>
    </g>
</svg>
