<svg width="867.000000" height="224.000000" viewBox="0 0 867 224" fill="none" xmlns="http://www.w3.org/2000/svg" xmlns:xlink="http://www.w3.org/1999/xlink">
    <desc>
        Created with Pixso.
    </desc>
    <defs>
        <filter id="filter_6_215_dd" x="184.756256" y="51.363464" width="507.171844" height="113.230286" filterUnits="userSpaceOnUse" color-interpolation-filters="sRGB">
            <feFlood flood-opacity="0" result="BackgroundImageFix"/>
            <feColorMatrix in="SourceAlpha" type="matrix" values="0 0 0 0 0 0 0 0 0 0 0 0 0 0 0 0 0 0 127 0" result="hardAlpha"/>
            <feOffset dx="0" dy="4"/>
            <feGaussianBlur stdDeviation="1.33333"/>
            <feComposite in2="hardAlpha" operator="out" k2="-1" k3="1"/>
            <feColorMatrix type="matrix" values="0 0 0 0 0 0 0 0 0 0 0 0 0 0 0 0 0 0 0.25 0"/>
            <feBlend mode="normal" in2="BackgroundImageFix" result="effect_dropShadow_1"/>
            <feBlend mode="normal" in="SourceGraphic" in2="effect_dropShadow_1" result="shape"/>
        </filter>
    </defs>
    <rect id="Rectangle 6" x="133.000000" rx="102.500000" width="605.000000" height="205.000000" fill="#367136" fill-opacity="1.000000"/>
    <rect id="Rectangle 5" x="151.000000" y="18.000000" rx="84.500000" width="568.000000" height="169.000000" fill="#CFE684" fill-opacity="1.000000"/>
    <g filter="url(#filter_6_215_dd)">
        <path id="Hand 2" d="M416.04 73.13Q414.12 64.22 414.12 53.99Q414.12 53.21 414.2 52.89Q414.22 52.81 414.2 52.74Q414.13 52.51 413.65 52.39Q413.39 52.32 413.21 52.41Q412.96 52.54 412.87 52.97Q412.83 53.17 412.73 53.34Q412.48 53.76 411.89 53.99Q411.11 54.3 410.45 55.35Q409.82 56.41 409.51 57.19Q409.16 58.48 408.69 59.77Q408.23 61 408.07 62.27L408.07 62.31Q407.4 67.11 407.64 71.68Q407.91 76.25 408.38 80.59Q408.85 84.89 409.39 89.14Q409.98 93.36 409.98 97.5L409.98 99.92Q407.91 99.61 404.04 98.4Q400.21 97.19 397.01 96.88Q395.72 96.72 394.75 97.11Q394.37 97.27 394.02 97.47Q393.5 97.77 393.03 98.17Q392.21 98.79 391.23 99.22Q390.7 99.44 390.28 99.78Q389.94 100.05 389.67 100.39Q387.29 103.25 385.47 106.42Q383.51 109.86 382.21 113.68Q379.75 121.02 381.5 130.16Q382.44 132.23 384.43 133.99Q386.46 135.75 388.85 137.19Q391.27 138.64 393.65 139.69Q396.07 140.71 397.83 141.21Q398.94 141.43 399.99 141.27Q400.46 141.2 400.92 141.06Q402.44 140.55 403.89 140.24Q404.92 139.99 405.95 139.99Q406.21 139.99 406.46 140Q406.72 140.02 406.97 140Q408 139.95 409 139.42Q412.71 137.66 415.72 135.59Q418.77 133.52 421.19 131.29Q421.46 131.01 421.63 130.67Q421.95 130.04 421.89 129.22Q421.82 127.93 422.29 126.96Q421.5 119.1 421 109.93Q420.53 100.71 419.24 91.29Q417.99 82 416.04 73.13ZM238.98 74.01Q238.97 74.08 238.95 74.14Q238.45 78.48 238.13 83.13Q237.82 87.74 237.67 92.39Q237.53 92.4 237.39 92.41Q232.88 92.74 228.45 94.07Q223.88 95.43 219.31 97.19Q214.78 98.95 210.13 100.71Q205.48 102.46 200.87 103.6Q200.52 96.41 200.28 90.16Q200.05 83.91 199.27 78.95Q200.36 76.72 199.97 75.12Q199.58 73.52 198.76 71.76Q197.98 70.32 197.24 68.79Q196.53 67.27 195.75 65.82Q195.24 65.04 194.62 64.73Q194.54 64.68 194.45 64.67Q193.87 64.54 193.02 65.67Q192.7 65.98 192.7 66.17Q192.7 66.33 192.39 66.64Q192.04 66.96 191.57 67.19Q191.43 67.26 191.34 67.37Q191.1 67.62 191.1 68.09Q190.13 77.19 189.81 86.8Q189.56 94.55 190.33 102.21Q190.51 104.04 190.75 105.86Q190.99 107.57 191.28 109.26Q192.64 116.92 195.32 124.34Q198.6 133.36 204.7 141.53Q204.7 140.55 204.19 138.56Q203.72 136.57 203.41 134.81Q203.1 132.54 203.17 130.94Q203.19 130.62 203.19 130.3Q203.19 129.02 202.94 127.74Q202.31 124.38 202.04 121.02Q201.81 117.66 201.49 114.46Q210.79 112.23 220.44 108.71Q230.13 105.2 237.82 102.97Q238.13 112.07 239.42 120.16Q240.71 128.25 243.41 133.67Q244.38 135.12 245.56 135.94Q246.77 136.72 248.37 138.01Q249.19 138.95 249.89 139.38Q250.63 139.77 250.79 140.24Q250.85 140.35 250.9 140.35Q251 140.35 251.1 140Q251.14 139.87 251.15 139.73Q251.19 139.28 250.95 138.79Q248.84 131.6 248.02 123.68Q247.24 115.75 246.92 107.58Q246.61 99.42 246.38 91.45Q246.14 83.44 245.48 76.25L245.01 71.45Q244.7 70.16 244.27 69.38Q244.07 68.97 243.78 68.88Q243.49 68.79 243.1 69.03Q242.63 69.34 242.35 69.61L241.18 70.78Q240.87 71.6 239.97 72.42Q239.17 73.15 238.98 74.01ZM546.29 78.17Q546.6 75.59 546.45 73.99Q545.66 74.14 545.23 74.14Q544.84 74.14 544.06 74.46Q542.93 74.81 541.8 75.63Q540.7 76.41 539.88 76.88Q537.81 78.17 536.91 79.46Q536.05 80.71 535.27 82.97Q534.3 85.67 533.32 89.18Q532.38 92.7 531.48 96.72Q530.63 100.71 529.8 104.65Q529.02 108.56 528.36 111.92Q525.82 107.74 523.01 102.97Q522.52 102.13 522 101.3Q519.58 97.42 516.52 93.95Q515.42 92.67 514.23 91.48Q511.46 88.71 508.2 86.41Q507.76 86.09 507.31 85.8Q503.01 83.03 497.5 82.15Q497.59 81.69 497.52 81.25Q497.47 80.95 497.34 80.67Q497.03 79.92 496.52 79.1Q496.21 78.48 495.9 77.39Q495.7 76.68 495.25 76.41Q494.98 76.25 494.61 76.25Q493.83 76.25 493.16 76.49Q492.54 76.72 491.72 76.88Q491.25 77.03 491.02 77.27Q490.78 77.5 490.47 77.85Q490.12 78.17 489.73 78.48Q489.64 78.55 489.57 78.63Q489.34 78.93 489.34 79.42Q487.27 87.58 485.51 97.42Q483.75 107.27 483.48 117.5Q483.24 127.74 485.08 137.58Q486.55 145.3 490.01 151.99Q490.97 153.83 492.07 155.59Q492.85 154.65 492.85 152.7Q492.85 150.78 492.7 148.56Q493.16 147.74 493.55 145.9Q493.98 144.07 494.3 142.78Q494.61 141.68 494.77 141.21Q494.92 140.71 494.77 139.26Q492.7 129.03 493.24 117.27Q493.83 105.51 497.5 93.05Q501.48 93.99 505.39 97.5Q509.34 101.02 512.7 105.51Q516.05 110 518.83 114.73Q521.64 119.42 523.59 122.97Q525.16 125.67 526.05 128.4Q526.95 131.1 527.97 133.75Q529.02 136.41 530.35 138.99Q531.72 141.53 534.3 144.07Q534.61 144.38 534.96 144.63Q536.43 145.67 538.63 145.67Q538.94 145.67 539.23 145.72Q539.85 145.82 540.43 146.14Q540.74 146.31 541.05 146.33Q541.66 146.36 542.3 145.82Q543.4 145.04 544.38 144.07Q545.35 143.13 546.45 142Q546.45 135.9 544.77 131.14Q543.09 126.33 541.02 120.24Q541.48 112.54 543.09 104.5Q544.69 96.41 546.45 90.32Q546.29 88.87 545.82 86.72Q545.35 84.57 545.66 82.97Q545.98 80.71 546.29 78.17ZM656.61 93.99Q658.45 88.87 658.45 83.75Q658.45 81.69 657.47 81Q657.4 80.95 657.31 80.9Q656.22 80.24 654.62 79.92Q653.33 79.61 652.59 78.83Q652.49 78.71 652.37 78.62Q651.66 78.06 650.28 78.32Q646.3 79.1 640.75 80.47Q635.24 81.84 631.1 84.57Q630.99 84.67 630.88 84.76Q630.04 85.48 629.38 86.41Q628.68 87.42 627.9 88.4Q627.08 89.18 626.77 89.46Q626.45 89.69 626.14 90.94L625.83 92.7Q627.9 92.23 631.26 91.29Q634.62 90.32 638.45 89.38Q642.31 88.4 646.14 87.62Q649.97 86.8 653.02 86.49Q652.07 91.77 649.86 96.46Q649.8 96.59 649.74 96.72Q647.43 101.53 644.31 105.94Q641.18 110.32 637.74 114.57Q634.31 118.79 631.26 123.13Q630.95 123.6 630.05 125.2Q629.19 126.8 628.37 129.03Q628.06 130 627.82 131.14Q627.59 132.23 627.43 133.21Q627.18 134.34 627.64 134.87Q627.83 135.08 628.13 135.2Q629.19 135.59 630.28 135.9Q631.57 136.25 631.96 136.8Q632 136.85 632.04 136.89Q632.5 137.32 633.64 137.03Q640.71 135.43 646.84 134.07Q653.02 132.7 658.6 131.45Q664.23 130.16 669.35 128.64Q674.46 127.11 679.58 125.35Q681.81 123.13 682.94 122.5Q684.07 121.84 684.54 119.42Q684.85 118.48 685.79 117.7Q686.06 117.48 686.26 117.21Q686.81 116.49 686.92 115.43Q682.78 116.41 679.81 117.15Q676.85 117.85 674.03 118.48Q671.26 119.1 668.21 119.93Q665.17 120.71 661.18 121.84Q655.75 123.44 648.92 125.43Q642.12 127.43 633.99 130Q636.06 127.93 636.69 126.25Q636.95 125.59 637.43 125.19Q638.17 124.57 639.42 124.57Q642.47 119.42 645.83 114.3Q649.19 109.18 651.96 104.14Q654.78 99.1 656.61 93.99ZM304.47 105.86Q302.63 99.92 300.53 94.81Q299.9 93.67 299.08 92.39Q298.3 91.1 297.17 89.85Q296.17 88.73 294.99 87.87Q294.64 87.62 294.28 87.39Q292.71 86.33 291.11 85.51Q289.82 84.73 288.85 84.1Q288.34 83.75 287.78 83.58Q287.3 83.44 286.78 83.44Q285.99 83.44 285.41 83.52Q284.86 83.6 284.2 83.91Q280.06 84.89 275.72 86.96Q271.42 89.03 267.56 92.07Q266.83 92.65 266.15 93.26Q263.18 95.89 260.84 99.22Q260.18 100.15 259.63 101.14Q257.76 104.46 257.01 108.4Q256.78 108.97 256.97 109.21Q257.04 109.3 257.17 109.34Q257.63 109.48 258 109.34Q258.16 109.29 258.3 109.18Q258.61 109.03 259 108.87Q259.29 108.76 259.53 108.59Q259.64 108.5 259.74 108.4Q265.8 102.31 272.28 98.56Q273.5 97.85 274.78 97.28Q280.3 94.81 286.93 94.81Q289 95.59 291.23 97.85Q293.49 100.08 295.25 102.89Q296.39 104.69 297.16 106.64Q297.57 107.7 297.87 108.79Q298.69 111.66 298.1 114.2Q298.05 114.43 297.99 114.65L295.41 112.54Q294.31 111.6 292.95 110.67Q291.58 109.69 290.13 109.07Q288.83 108.47 287.46 108.22Q287.31 108.19 287.17 108.17Q286.3 108.03 285.46 108.13Q284.82 108.2 284.2 108.4Q277.85 110.54 273.72 114.81Q269.84 118.82 267.91 124.73Q266.46 128.87 266.03 132.97Q265.64 137.03 266.15 140.55Q266.46 142.31 266.78 142.54Q267.09 142.78 268.22 143.75Q269.82 145.04 271.15 146.06Q272.52 147.11 275.41 146.33Q278.14 145.67 280.68 144.14Q283.26 142.62 285.64 141.02Q288.06 139.42 290.37 137.93Q292.71 136.41 295.1 135.59Q295.72 136.57 296.42 136.88Q296.65 136.97 296.86 137.08Q297.37 137.33 297.83 137.66Q298.61 138.17 299.08 138.79Q299.59 139.42 300.21 139.61Q300.86 139.73 301.44 139.58Q302.44 139.34 303.26 138.32Q303.86 137.52 304.38 136.67Q306.45 133.22 307.01 128.87Q307.75 123.44 307.01 117.62Q306.31 111.76 304.47 105.86ZM576.52 98.48L579.26 95.75Q578.63 95.12 578.13 95.12L577.34 95.12Q576.2 94.93 575.17 95.19Q574.48 95.37 573.83 95.75Q569.18 99.42 566.21 104.14Q565.82 104.76 565.46 105.38Q563 109.57 561.41 114.26Q561.31 114.53 561.23 114.8Q559.53 119.9 558.67 125.28Q557.81 130.94 557.66 136.57Q557.66 137.85 558.13 142.15Q558.17 142.33 558.27 142.37Q558.51 142.46 559.06 141.68Q559.76 140.72 560.12 139.64Q560.18 139.45 560.23 139.26Q560.88 140.5 561.82 141.47Q563.41 143.13 565.82 143.99Q569.65 145.35 572.85 144.89L572.87 144.88Q577.66 144.22 582.03 140.47Q586.45 136.72 590.12 131.1Q593.51 128.53 594.37 125.28Q594.42 125.12 594.45 124.96Q595.27 121.53 594.53 117.7Q593.83 113.83 592.46 109.93Q591.09 105.98 590.47 102.15Q590.12 99.42 588.83 98.48Q587.58 97.5 585.66 97.19Q583.09 97.19 580.43 97.78Q577.81 98.32 576.52 98.48ZM335.16 114.42Q332.38 117.5 329.65 120.24Q329.49 116.57 328.91 112.5Q328.36 108.4 327.38 104.96Q326.45 101.53 325.08 99.3Q323.94 97.36 322.48 97.08Q322.24 97.03 321.99 97.03Q321.33 97.03 320.2 96.57Q319.37 96.18 318.62 96.29Q318.37 96.32 318.13 96.41Q317.19 96.72 316.29 97.19Q315.43 97.66 315.08 98.32L316.05 101.21Q317.34 105.51 318.59 110.39Q319.88 115.28 321.09 120.08Q322.3 124.89 323.32 129.22Q324.38 133.52 325.35 136.88Q325.82 138.48 325.9 138.79Q325.98 139.1 326.95 139.42Q328.2 139.92 328.52 140.59Q328.63 140.8 328.8 140.84Q329.13 140.94 329.65 140.39Q331.14 139.02 332.38 137.44Q333.29 136.29 334.06 135.04Q335.9 132.07 337.27 128.95Q338.63 125.82 339.73 122.74Q340.86 119.61 342.15 116.72Q344.06 112.7 346.45 110.16Q348.87 107.58 351.02 106.41Q353.16 105.2 354.84 105.35Q356.12 105.47 356.61 106.16Q356.76 106.37 356.84 106.64Q357.81 110.78 358.44 114.81Q359.1 118.79 359.88 122.66Q360.7 126.49 361.8 130Q362.4 131.88 363.27 133.62Q364.03 135.14 365 136.57Q366.29 136.06 366.52 135.67Q366.76 135.28 367.58 134.65Q368.36 134.14 369.14 133.21Q369.96 132.23 370.31 131.6L371.09 130.24Q371.41 129.69 371.56 128.87Q371.91 125.98 370.7 122.89Q369.49 119.77 368.55 116.72Q367.73 114.65 367.66 113.05Q367.58 111.45 366.95 109.69Q365.98 106.49 364.61 103.87Q363.34 101.41 361.34 99.99Q361.18 99.88 361.02 99.77Q360.55 99.37 360 99.21Q359.65 99.1 359.26 99.1L357.03 99.1Q356.27 99.4 355.57 99.28Q355.52 99.27 355.47 99.26Q355.41 99.25 355.35 99.24Q354.7 99.13 353.98 99.42Q350.47 100.86 347.27 103.21Q344.06 105.51 341.02 108.4Q340 109.37 339.01 110.35Q337.03 112.33 335.16 114.42ZM572.7 106.04Q572.87 106.49 573.83 106.64Q578.13 107.43 581.41 109.1Q582.95 109.9 583.95 111.13Q585.07 112.52 585.51 114.46Q586.13 117.19 585.74 120.32Q585.35 123.44 584.69 125.67Q583.95 127.59 583 129.41Q581.9 131.54 580.51 133.52Q579.61 134.82 578.51 135.92Q576.5 137.92 573.83 139.26Q570.94 140.71 569.18 140.24Q568.65 140.13 568.2 139.88Q567.31 139.37 566.76 138.25Q565.98 136.57 565.66 133.83Q565.35 130.63 565.23 126.33Q565.16 122 565.94 117.46Q566.12 116.46 566.34 115.47Q567.16 111.94 568.59 108.56Q570 105.31 572.24 102.8Q572.99 101.97 573.83 101.21Q573.83 102.15 573.4 103.13Q573.01 104.07 572.77 104.81Q572.54 105.51 572.7 106.02Q572.7 106.03 572.7 106.04ZM413.26 123.52Q413.34 126.8 413.18 128.56Q411.11 129.53 408.46 130.51Q407.36 130.9 406.24 131.18Q404.64 131.58 402.99 131.76Q400.41 132.05 397.87 131.87Q397.67 131.86 397.48 131.84Q396.69 131.77 395.92 131.6Q394.07 131.18 392.36 130.16Q388.22 125.98 387.25 121.45Q386.31 116.88 387.25 113.99Q388.34 111.55 390.15 109.9Q390.22 109.83 390.29 109.77Q392.18 108.12 394.36 107.14Q394.4 107.13 394.43 107.11Q396.7 106.14 399 105.75Q401.35 105.35 403.11 105.2Q405.85 106.35 407.73 108.32Q408.48 109.1 409.08 110Q411.27 113.21 412.21 116.72Q413.18 120.24 413.26 123.52ZM292.13 119.46Q294.12 121.21 295.1 123.28Q295.1 124.22 295.49 124.89Q295.88 125.51 296.11 126.02Q296.17 126.12 296.21 126.22Q296.35 126.62 296.23 127.11Q296.07 127.74 295.1 128.71Q290.95 130.78 285.17 133.52Q279.43 136.25 273.34 138.32Q273.27 138.17 273.2 138.03Q272.35 136.08 272.28 133.79Q272.25 132.62 272.33 131.47Q272.42 130.14 272.67 128.83Q273.18 126.33 274.12 123.87Q275.1 121.37 276.07 119.26Q279.08 116.88 282.05 116.41Q284.78 115.94 287.15 116.67Q287.35 116.73 287.56 116.8Q289.04 117.3 290.34 118.1Q291.28 118.7 292.13 119.46ZM612.34 136.41Q611.56 135.28 611.56 134.3Q611.56 133.71 611.27 133.4Q611.09 133.21 610.82 133.13Q610.12 132.89 609.34 132.54Q608.52 132.23 607.89 131.92Q607.27 131.6 606.13 131.6Q604.53 132.39 602.62 134.22Q600.7 136.06 599.26 138.95Q599.14 139.25 599.09 139.56Q599 140.1 599.1 140.67Q599.11 140.69 599.11 140.71Q599.25 141.55 598.95 142.46Q598.86 142.77 598.88 143.07Q598.95 143.87 599.8 144.61Q601.02 145.67 602.7 146.6Q604.38 147.58 606.13 148.64Q607.89 149.69 608.87 150.63Q608.87 148.56 609.34 147.11Q609.55 146.58 609.94 146.32Q610.12 146.2 610.35 146.14Q610.52 146.1 610.67 146.03Q611.2 145.8 611.56 145.2Q613.67 143.13 613.91 141.6Q614.11 140.27 613.75 139.11Q613.7 138.95 613.63 138.79Q613.38 138.1 613.03 137.46Q612.72 136.92 612.34 136.41Z" fill="#000000" fill-opacity="1.000000" fill-rule="evenodd"/>
        <path id="Hand 2" d="M238.95 74.14Q239.11 73.21 239.97 72.42Q240.87 71.6 241.18 70.78Q242.12 69.85 242.35 69.61Q242.63 69.34 243.1 69.03Q243.88 68.56 244.27 69.38Q244.7 70.16 245.01 71.45L245.48 76.25Q246.14 83.44 246.38 91.45Q246.61 99.42 246.92 107.58Q247.24 115.75 248.02 123.68Q248.84 131.6 250.95 138.79Q251.26 139.42 251.1 140Q250.95 140.55 250.79 140.24Q250.63 139.77 249.89 139.38Q249.19 138.95 248.37 138.01Q246.77 136.72 245.56 135.94Q244.38 135.12 243.41 133.67Q240.71 128.25 239.42 120.16Q238.13 112.07 237.82 102.97Q230.13 105.2 220.44 108.71Q210.79 112.23 201.49 114.46Q201.81 117.66 202.04 121.02Q202.31 124.38 202.94 127.74Q203.25 129.34 203.17 130.94Q203.1 132.54 203.41 134.81Q203.72 136.57 204.19 138.56Q204.7 140.55 204.7 141.53Q198.6 133.36 195.32 124.34Q192.04 115.28 190.75 105.86Q189.5 96.41 189.81 86.8Q190.13 77.19 191.1 68.09Q191.1 67.42 191.57 67.19Q192.04 66.96 192.39 66.64Q192.7 66.33 192.7 66.17Q192.7 65.98 193.02 65.67Q193.99 64.38 194.62 64.73Q195.24 65.04 195.75 65.82Q196.53 67.27 197.24 68.79Q197.98 70.32 198.76 71.76Q199.58 73.52 199.97 75.12Q200.36 76.72 199.27 78.95Q200.05 83.91 200.28 90.16Q200.52 96.41 200.87 103.6Q205.48 102.46 210.13 100.71Q214.78 98.95 219.31 97.19Q223.88 95.43 228.45 94.07Q233.02 92.7 237.67 92.39Q237.82 87.74 238.13 83.13Q238.45 78.48 238.95 74.14ZM300.53 94.81Q302.63 99.92 304.47 105.86Q306.31 111.76 307.01 117.62Q307.75 123.44 307.01 128.87Q306.31 134.3 303.26 138.32Q301.97 139.92 300.21 139.61Q299.59 139.42 299.08 138.79Q298.61 138.17 297.83 137.66Q297.17 137.19 296.42 136.88Q295.72 136.57 295.1 135.59Q292.71 136.41 290.37 137.93Q288.06 139.42 285.64 141.02Q283.26 142.62 280.68 144.14Q278.14 145.67 275.41 146.33Q272.52 147.11 271.15 146.06Q269.82 145.04 268.22 143.75Q267.09 142.78 266.78 142.54Q266.46 142.31 266.15 140.55Q265.64 137.03 266.03 132.97Q266.46 128.87 267.91 124.73Q271.89 112.54 284.2 108.4Q285.64 107.93 287.17 108.17Q288.69 108.4 290.13 109.07Q291.58 109.69 292.95 110.67Q294.31 111.6 295.41 112.54L297.99 114.65Q298.77 111.92 297.87 108.79Q297.01 105.67 295.25 102.89Q293.49 100.08 291.23 97.85Q289 95.59 286.93 94.81Q278.77 94.81 272.28 98.56Q265.8 102.31 259.74 108.4Q259.43 108.71 259 108.87Q258.61 109.03 258.3 109.18Q257.83 109.53 257.17 109.34Q256.7 109.18 257.01 108.4Q257.99 103.28 260.84 99.22Q263.73 95.12 267.56 92.07Q271.42 89.03 275.72 86.96Q280.06 84.89 284.2 83.91Q284.86 83.6 285.41 83.52Q285.99 83.44 286.78 83.44Q287.91 83.44 288.85 84.1Q289.82 84.73 291.11 85.51Q292.71 86.33 294.28 87.39Q295.88 88.4 297.17 89.85Q298.3 91.1 299.08 92.39Q299.9 93.67 300.53 94.81ZM295.1 123.28Q294.12 121.21 292.13 119.46Q290.13 117.66 287.56 116.8Q285.02 115.9 282.05 116.41Q279.08 116.88 276.07 119.26Q275.1 121.37 274.12 123.87Q273.18 126.33 272.67 128.83Q272.2 131.29 272.28 133.79Q272.36 136.25 273.34 138.32Q279.43 136.25 285.17 133.52Q290.95 130.78 295.1 128.71Q296.07 127.74 296.23 127.11Q296.38 126.49 296.11 126.02Q295.88 125.51 295.49 124.89Q295.1 124.22 295.1 123.28ZM329.65 120.24Q332.38 117.5 335.16 114.42Q337.97 111.29 341.02 108.4Q344.06 105.51 347.27 103.21Q350.47 100.86 353.98 99.42Q354.77 99.1 355.47 99.26Q356.21 99.42 357.03 99.1Q358.28 99.1 359.26 99.1Q360.23 99.1 361.02 99.77Q363.24 101.21 364.61 103.87Q365.98 106.49 366.95 109.69Q367.58 111.45 367.66 113.05Q367.73 114.65 368.55 116.72Q369.49 119.77 370.7 122.89Q371.91 125.98 371.56 128.87Q371.41 129.69 371.09 130.24Q370.78 130.78 370.31 131.6Q369.96 132.23 369.14 133.21Q368.36 134.14 367.58 134.65Q366.76 135.28 366.52 135.67Q366.29 136.06 365 136.57Q362.93 133.52 361.8 130Q360.7 126.49 359.88 122.66Q359.1 118.79 358.44 114.81Q357.81 110.78 356.84 106.64Q356.52 105.51 354.84 105.35Q353.16 105.2 351.02 106.41Q348.87 107.58 346.45 110.16Q344.06 112.7 342.15 116.72Q340.86 119.61 339.73 122.74Q338.63 125.82 337.27 128.95Q335.9 132.07 334.06 135.04Q332.23 138.01 329.65 140.39Q328.87 141.21 328.52 140.59Q328.2 139.92 326.95 139.42Q325.98 139.1 325.9 138.79Q325.82 138.48 325.35 136.88Q324.38 133.52 323.32 129.22Q322.3 124.89 321.09 120.08Q319.88 115.28 318.59 110.39Q317.34 105.51 316.05 101.21L315.08 98.32Q315.43 97.66 316.29 97.19Q317.19 96.72 318.13 96.41Q319.1 96.06 320.2 96.57Q321.33 97.03 321.99 97.03Q323.75 97.03 325.08 99.3Q326.45 101.53 327.38 104.96Q328.36 108.4 328.91 112.5Q329.49 116.57 329.65 120.24ZM414.12 53.99Q414.12 64.22 416.04 73.13Q417.99 82 419.24 91.29Q420.53 100.71 421 109.93Q421.5 119.1 422.29 126.96Q421.82 127.93 421.89 129.22Q421.97 130.47 421.19 131.29Q418.77 133.52 415.72 135.59Q412.71 137.66 409 139.42Q407.75 140.08 406.46 140Q405.18 139.92 403.89 140.24Q402.44 140.55 400.92 141.06Q399.43 141.53 397.83 141.21Q396.07 140.71 393.65 139.69Q391.27 138.64 388.85 137.19Q386.46 135.75 384.43 133.99Q382.44 132.23 381.5 130.16Q379.75 121.02 382.21 113.68Q384.71 106.33 389.67 100.39Q390.29 99.61 391.23 99.22Q392.21 98.79 393.03 98.17Q393.81 97.5 394.75 97.11Q395.72 96.72 397.01 96.88Q400.21 97.19 404.04 98.4Q407.91 99.61 409.98 99.92L409.98 97.5Q409.98 93.36 409.39 89.14Q408.85 84.89 408.38 80.59Q407.91 76.25 407.64 71.68Q407.4 67.11 408.07 62.31Q408.22 61.02 408.69 59.77Q409.16 58.48 409.51 57.19Q409.82 56.41 410.45 55.35Q411.11 54.3 411.89 53.99Q412.71 53.67 412.87 52.97Q413.03 52.23 413.65 52.39Q414.28 52.54 414.2 52.89Q414.12 53.21 414.12 53.99ZM413.18 128.56Q413.34 126.8 413.26 123.52Q413.18 120.24 412.21 116.72Q411.27 113.21 409.08 110Q406.93 106.8 403.11 105.2Q401.35 105.35 399 105.75Q396.7 106.14 394.43 107.11Q392.21 108.09 390.29 109.77Q388.38 111.45 387.25 113.99Q386.31 116.88 387.25 121.45Q388.22 125.98 392.36 130.16Q394.79 131.6 397.48 131.84Q400.21 132.07 402.99 131.76Q405.8 131.45 408.46 130.51Q411.11 129.53 413.18 128.56ZM546.45 73.99Q546.6 75.59 546.29 78.17Q545.98 80.71 545.66 82.97Q545.35 84.57 545.82 86.72Q546.29 88.87 546.45 90.32Q544.69 96.41 543.09 104.5Q541.48 112.54 541.02 120.24Q543.09 126.33 544.77 131.14Q546.45 135.9 546.45 142Q545.35 143.13 544.38 144.07Q543.4 145.04 542.3 145.82Q541.33 146.64 540.43 146.14Q539.57 145.67 538.63 145.67Q535.9 145.67 534.3 144.07Q531.72 141.53 530.35 138.99Q529.02 136.41 527.97 133.75Q526.95 131.1 526.05 128.4Q525.16 125.67 523.59 122.97Q521.64 119.42 518.83 114.73Q516.05 110 512.7 105.51Q509.34 101.02 505.39 97.5Q501.48 93.99 497.5 93.05Q493.83 105.51 493.24 117.27Q492.7 129.03 494.77 139.26Q494.92 140.71 494.77 141.21Q494.61 141.68 494.3 142.78Q493.98 144.07 493.55 145.9Q493.16 147.74 492.7 148.56Q492.85 150.78 492.85 152.7Q492.85 154.65 492.07 155.59Q486.95 147.42 485.08 137.58Q483.24 127.74 483.48 117.5Q483.75 107.27 485.51 97.42Q487.27 87.58 489.34 79.42Q489.34 78.79 489.73 78.48Q490.12 78.17 490.47 77.85Q490.78 77.5 491.02 77.27Q491.25 77.03 491.72 76.88Q492.54 76.72 493.16 76.49Q493.83 76.25 494.61 76.25Q495.59 76.25 495.9 77.39Q496.21 78.48 496.52 79.1Q497.03 79.92 497.34 80.67Q497.66 81.37 497.5 82.15Q503.59 83.13 508.2 86.41Q512.85 89.69 516.52 93.95Q520.23 98.17 523.01 102.97Q525.82 107.74 528.36 111.92Q529.02 108.56 529.8 104.65Q530.63 100.71 531.48 96.72Q532.38 92.7 533.32 89.18Q534.3 85.67 535.27 82.97Q536.05 80.71 536.91 79.46Q537.81 78.17 539.88 76.88Q540.7 76.41 541.8 75.63Q542.93 74.81 544.06 74.46Q544.84 74.14 545.23 74.14Q545.66 74.14 546.45 73.99ZM611.56 134.3Q611.56 135.28 612.34 136.41Q613.16 137.5 613.63 138.79Q614.14 140.08 613.91 141.6Q613.67 143.13 611.56 145.2Q611.09 145.98 610.35 146.14Q609.65 146.33 609.34 147.11Q608.87 148.56 608.87 150.63Q607.89 149.69 606.13 148.64Q604.38 147.58 602.7 146.6Q601.02 145.67 599.8 144.61Q598.63 143.6 598.95 142.46Q599.26 141.53 599.1 140.67Q598.95 139.77 599.26 138.95Q600.7 136.06 602.62 134.22Q604.53 132.39 606.13 131.6Q607.27 131.6 607.89 131.92Q608.52 132.23 609.34 132.54Q610.12 132.89 610.82 133.13Q611.56 133.36 611.56 134.3ZM579.26 95.75L576.52 98.48Q577.81 98.32 580.43 97.78Q583.09 97.19 585.66 97.19Q587.58 97.5 588.83 98.48Q590.12 99.42 590.47 102.15Q591.09 105.98 592.46 109.93Q593.83 113.83 594.53 117.7Q595.27 121.53 594.45 124.96Q593.67 128.4 590.12 131.1Q586.45 136.72 582.03 140.47Q577.66 144.22 572.85 144.89Q569.65 145.35 565.82 143.99Q561.99 142.62 560.23 139.26Q559.88 140.55 559.06 141.68Q558.28 142.78 558.13 142.15Q557.66 137.85 557.66 136.57Q557.81 130.94 558.67 125.28Q559.57 119.61 561.41 114.26Q563.24 108.87 566.21 104.14Q569.18 99.42 573.83 95.75Q575.43 94.81 577.34 95.12Q577.66 95.12 578.13 95.12Q578.63 95.12 579.26 95.75ZM573.83 106.64Q572.85 106.49 572.7 106.02Q572.54 105.51 572.77 104.81Q573.01 104.07 573.4 103.13Q573.83 102.15 573.83 101.21Q570.47 104.22 568.59 108.56Q566.76 112.89 565.94 117.46Q565.16 122 565.23 126.33Q565.35 130.63 565.66 133.83Q565.98 136.57 566.76 138.25Q567.58 139.92 569.18 140.24Q570.94 140.71 573.83 139.26Q577.97 137.19 580.51 133.52Q583.09 129.85 584.69 125.67Q585.35 123.44 585.74 120.32Q586.13 117.19 585.51 114.46Q584.69 110.78 581.41 109.1Q578.13 107.43 573.83 106.64ZM658.45 83.75Q658.45 88.87 656.61 93.99Q654.78 99.1 651.96 104.14Q649.19 109.18 645.83 114.3Q642.47 119.42 639.42 124.57Q637.35 124.57 636.69 126.25Q636.06 127.93 633.99 130Q642.12 127.43 648.92 125.43Q655.75 123.44 661.18 121.84Q665.17 120.71 668.21 119.93Q671.26 119.1 674.03 118.48Q676.85 117.85 679.81 117.15Q682.78 116.41 686.92 115.43Q686.77 116.88 685.79 117.7Q684.85 118.48 684.54 119.42Q684.07 121.84 682.94 122.5Q681.81 123.13 679.58 125.35Q674.46 127.11 669.35 128.64Q664.23 130.16 658.6 131.45Q653.02 132.7 646.84 134.07Q640.71 135.43 633.64 137.03Q632.39 137.35 631.96 136.8Q631.57 136.25 630.28 135.9Q629.19 135.59 628.13 135.2Q627.08 134.81 627.43 133.21Q627.59 132.23 627.82 131.14Q628.06 130 628.37 129.03Q629.19 126.8 630.05 125.2Q630.95 123.6 631.26 123.13Q634.31 118.79 637.74 114.57Q641.18 110.32 644.31 105.94Q647.43 101.53 649.74 96.72Q652.04 91.92 653.02 86.49Q649.97 86.8 646.14 87.62Q642.31 88.4 638.45 89.38Q634.62 90.32 631.26 91.29Q627.9 92.23 625.83 92.7L626.14 90.94Q626.45 89.69 626.77 89.46Q627.08 89.18 627.9 88.4Q628.68 87.42 629.38 86.41Q630.13 85.35 631.1 84.57Q635.24 81.84 640.75 80.47Q646.3 79.1 650.28 78.32Q651.88 78.01 652.59 78.83Q653.33 79.61 654.62 79.92Q656.22 80.24 657.31 80.9Q658.45 81.53 658.45 83.75Z" stroke="#000000" stroke-opacity="1.000000" stroke-width="1.000000"/>
    </g>
</svg>
