<svg width="209.000000" height="313.000000" viewBox="0 0 209 313" fill="none" xmlns="http://www.w3.org/2000/svg" xmlns:xlink="http://www.w3.org/1999/xlink">
    <desc>
        Created with Pixso.
    </desc>
    <defs>
        <filter id="filter_3_280_dd" x="0.000000" y="0.000000" width="209.000000" height="313.000000" filterUnits="userSpaceOnUse" color-interpolation-filters="sRGB">
            <feFlood flood-opacity="0" result="BackgroundImageFix"/>
            <feColorMatrix in="SourceAlpha" type="matrix" values="0 0 0 0 0 0 0 0 0 0 0 0 0 0 0 0 0 0 127 0" result="hardAlpha"/>
            <feOffset dx="0" dy="4"/>
            <feGaussianBlur stdDeviation="1.33333"/>
            <feComposite in2="hardAlpha" operator="out" k2="-1" k3="1"/>
            <feColorMatrix type="matrix" values="0 0 0 0 0 0 0 0 0 0 0 0 0 0 0 0 0 0 0.25 0"/>
            <feBlend mode="normal" in2="BackgroundImageFix" result="effect_dropShadow_1"/>
            <feBlend mode="normal" in="SourceGraphic" in2="effect_dropShadow_1" result="shape"/>
        </filter>
        <filter id="filter_3_283_dd" x="4.000000" y="8.000000" width="195.000000" height="297.000000" filterUnits="userSpaceOnUse" color-interpolation-filters="sRGB">
            <feFlood flood-opacity="0" result="BackgroundImageFix"/>
            <feColorMatrix in="SourceAlpha" type="matrix" values="0 0 0 0 0 0 0 0 0 0 0 0 0 0 0 0 0 0 127 0" result="hardAlpha"/>
            <feOffset dx="0" dy="4"/>
            <feGaussianBlur stdDeviation="1.33333"/>
            <feComposite in2="hardAlpha" operator="out" k2="-1" k3="1"/>
            <feColorMatrix type="matrix" values="0 0 0 0 0 0 0 0 0 0 0 0 0 0 0 0 0 0 0.25 0"/>
            <feBlend mode="normal" in2="BackgroundImageFix" result="effect_dropShadow_1"/>
            <feBlend mode="normal" in="SourceGraphic" in2="effect_dropShadow_1" result="shape"/>
        </filter>
        <filter id="filter_3_327_dd" x="33.000000" y="76.000000" width="145.660156" height="136.391342" filterUnits="userSpaceOnUse" color-interpolation-filters="sRGB">
            <feFlood flood-opacity="0" result="BackgroundImageFix"/>
            <feBlend mode="normal" in="SourceGraphic" in2="BackgroundImageFix" result="shape"/>
            <feColorMatrix in="SourceAlpha" type="matrix" values="0 0 0 0 0 0 0 0 0 0 0 0 0 0 0 0 0 0 127 0" result="hardAlpha"/>
            <feOffset dx="0" dy="4"/>
            <feGaussianBlur stdDeviation="1.33333"/>
            <feComposite in2="hardAlpha" operator="arithmetic" k2="-1" k3="1"/>
            <feColorMatrix type="matrix" values="0 0 0 0 0 0 0 0 0 0 0 0 0 0 0 0 0 0 0.25 0"/>
            <feBlend mode="normal" in2="shape" result="effect_innerShadow_1"/>
        </filter>
        <clipPath id="clip3_326">
            <rect id="Pei 1" rx="0.000000" width="154.000000" height="205.000000" transform="translate(24.500000 46.500000)" fill="white" fill-opacity="0"/>
        </clipPath>
    </defs>
    <g filter="url(#filter_3_280_dd)">
        <rect id="Rectangle 1" x="8.000000" y="0.000002" rx="20.000000" width="197.000000" height="297.000000" fill="#985B26" fill-opacity="1.000000"/>
        <rect id="Rectangle 1" x="8.500000" y="0.500002" rx="20.000000" width="196.000000" height="296.000000" stroke="#000000" stroke-opacity="1.000000" stroke-width="1.000000"/>
        <g filter="url(#filter_3_283_dd)">
            <rect id="Rectangle 2" x="8.000000" y="8.000002" rx="20.000000" width="187.000000" height="289.000000" fill="#FFF0DB" fill-opacity="1.000000"/>
            <rect id="Rectangle 2" x="8.500000" y="8.500002" rx="20.000000" width="186.000000" height="288.000000" stroke="#000000" stroke-opacity="1.000000" stroke-width="1.000000"/>
        </g>
        <rect id="Pei 1" rx="0.000000" width="154.000000" height="205.000000" transform="translate(24.500000 46.500000)" fill="#FFFFFF" fill-opacity="0"/>
        <g clip-path="url(#clip3_326)">
            <g filter="url(#filter_3_327_dd)">
                <path id="Flattened" d="M104.71 93.77C104.74 90.68 115.15 76 120.51 76C127.04 76.63 136.16 93.24 135.96 98.51C135.94 99.6 133.96 101.39 131.57 103.54C128.03 106.73 123.59 110.73 123.4 114.43C123.36 122.15 122.97 131.42 122.57 140.79C122.53 141.7 122.49 142.61 122.45 143.52C128.75 139.81 134.56 136.59 139.47 134.2C140.7 133.54 140.49 129.57 140.3 125.8C140.12 122.38 139.96 119.13 140.87 118.67C145.27 115.52 158.71 120.26 166.33 128.27C168.6 130.58 172.74 136.68 168.62 137.85C166.35 138.34 164.07 138.58 161.74 138.82C158.44 139.17 155.05 139.53 151.53 140.61C142.55 143.38 132.27 148.28 122.03 154.11C121.37 172.76 121.41 188.94 125.22 190.33C134.01 193.57 149.11 191.9 160.94 190.6C170.11 189.59 177.31 188.8 178.09 190.67C179.75 194.57 177.7 198.42 172.99 202.27C170.03 204.7 122.28 215.67 112.31 203.79C108.66 199.05 109.53 181.29 111.15 160.64C105.2 164.38 99.44 168.3 94.13 172.13C93.94 175.27 93.77 178.36 93.61 181.34C93.43 186.45 90.06 190.02 87.73 190.13C85.83 190.07 84.22 184.49 83.55 180.13C76.32 185.88 70.76 190.96 68.02 194.32C62.73 200.81 54.25 206.59 46.75 211.6C41.33 214.85 30.25 207.53 33.62 199.02L33.78 198.81C42.76 186.8 47.19 180.87 50.31 174.32C53.35 167.94 55.15 160.97 58.7 147.22L58.7 147.22C59 146.06 59.31 144.86 59.63 143.61C51.07 139.27 42.57 131.77 45.02 128.6C46.48 126.63 54.71 127.58 63.15 130.12C64.08 125.55 68.19 123.89 67.97 129.13C67.89 129.97 67.81 130.81 67.72 131.64C70.09 132.52 72.39 133.5 74.45 134.57C78.04 136.76 69.67 145.85 65.97 146.06C63.52 163.4 60.12 178.47 56.94 184.82C56.47 185.76 55.1 188.66 55.81 188.33C62.91 182.9 73.17 175.55 84.42 167.89C84.5 162.77 84.65 157.56 84.8 152.57C85.23 137.66 85.61 124.75 83.72 122.42C79.97 118.55 79.49 114.05 79.08 110.3C79.04 109.88 78.99 109.47 78.95 109.08C78.39 104.4 81.05 99.62 85.91 100.14C96.8 101.65 106.71 105.74 106.09 112.6C105.87 115.2 104.58 116.03 103.06 117.01C101.72 117.87 100.21 118.84 99.07 121.24C97.67 124.22 96.1 142.06 94.84 160.9C100.57 157.11 106.39 153.36 112.03 149.85L112.04 149.72C113.25 135.01 114.51 119.76 114.58 107.28C114.7 104 111.66 101.43 108.93 99.1C106.74 97.24 104.74 95.54 104.71 93.77Z" fill="#454D9A" fill-opacity="1.000000" fill-rule="nonzero"/>
                <path id="Flattened" d="" fill="#603B1A" fill-opacity="1.000000" fill-rule="evenodd"/>
            </g>
        </g>
    </g>
</svg>
