<svg width="201.000000" height="305.000000" viewBox="0 0 201 305" fill="none" xmlns="http://www.w3.org/2000/svg" xmlns:xlink="http://www.w3.org/1999/xlink">
    <desc>
        Created with Pixso.
    </desc>
    <defs>
        <filter id="filter_4_1633_dd" x="0.000000" y="8.000000" width="195.000000" height="297.000000" filterUnits="userSpaceOnUse" color-interpolation-filters="sRGB">
            <feFlood flood-opacity="0" result="BackgroundImageFix"/>
            <feColorMatrix in="SourceAlpha" type="matrix" values="0 0 0 0 0 0 0 0 0 0 0 0 0 0 0 0 0 0 127 0" result="hardAlpha"/>
            <feOffset dx="0" dy="4"/>
            <feGaussianBlur stdDeviation="1.33333"/>
            <feComposite in2="hardAlpha" operator="out" k2="-1" k3="1"/>
            <feColorMatrix type="matrix" values="0 0 0 0 0 0 0 0 0 0 0 0 0 0 0 0 0 0 0.25 0"/>
            <feBlend mode="normal" in2="BackgroundImageFix" result="effect_dropShadow_1"/>
            <feBlend mode="normal" in="SourceGraphic" in2="effect_dropShadow_1" result="shape"/>
        </filter>
        <filter id="filter_4_1636_dd" x="31.000000" y="80.000000" width="132.999878" height="145.211807" filterUnits="userSpaceOnUse" color-interpolation-filters="sRGB">
            <feFlood flood-opacity="0" result="BackgroundImageFix"/>
            <feBlend mode="normal" in="SourceGraphic" in2="BackgroundImageFix" result="shape"/>
            <feColorMatrix in="SourceAlpha" type="matrix" values="0 0 0 0 0 0 0 0 0 0 0 0 0 0 0 0 0 0 127 0" result="hardAlpha"/>
            <feOffset dx="0" dy="4"/>
            <feGaussianBlur stdDeviation="1.33333"/>
            <feComposite in2="hardAlpha" operator="arithmetic" k2="-1" k3="1"/>
            <feColorMatrix type="matrix" values="0 0 0 0 0 0 0 0 0 0 0 0 0 0 0 0 0 0 0.25 0"/>
            <feBlend mode="normal" in2="shape" result="effect_innerShadow_1"/>
        </filter>
    </defs>
    <rect id="Rectangle 1" x="4.000000" y="0.000002" rx="20.000000" width="197.000000" height="297.000000" fill="#985B26" fill-opacity="1.000000"/>
    <rect id="Rectangle 1" x="4.500000" y="0.500002" rx="20.000000" width="196.000000" height="296.000000" stroke="#454D9A" stroke-opacity="1.000000" stroke-width="1.000000"/>
    <g filter="url(#filter_4_1633_dd)">
        <rect id="Rectangle 2" x="4.000000" y="8.000002" rx="20.000000" width="187.000000" height="289.000000" fill="#FFF0DB" fill-opacity="1.000000"/>
        <rect id="Rectangle 2" x="4.500000" y="8.500002" rx="20.000000" width="186.000000" height="288.000000" stroke="#454D9A" stroke-opacity="1.000000" stroke-width="1.000000"/>
    </g>
    <g filter="url(#filter_4_1636_dd)">
        <path id="Flattened" d="M33.82 99.45C27.69 101.19 32.82 107.28 37.11 106.67C42.31 105.96 48 105.01 53.95 104.01C74.03 100.65 97.05 96.79 114.34 100.33C117.26 100.83 118.14 103.09 118.84 104.9C119.02 105.35 119.18 105.78 119.37 106.15C119.25 106.55 119.15 106.99 119.04 107.43C118.66 108.98 118.27 110.57 117.36 111.03C116.58 111.33 115.77 111.46 114.99 111.58C113.46 111.82 112.04 112.05 111.18 113.5C109.69 116.13 102.13 122.62 95.09 128.65C93.29 130.2 91.52 131.72 89.89 133.14C88.12 134.68 85.38 134.12 84.18 132.02L83.13 120.12C81.69 112.46 76.19 113.76 77.05 121.84L78.77 141.75C77.3 142.19 75.83 142.64 74.37 143.07L74.37 143.07L74.37 143.07L74.37 143.07C67.02 145.29 60.1 147.37 54.32 149C40.35 128.83 27.42 133.62 39.11 157.07C40.23 159.45 41.58 162.19 43.08 165.22L43.08 165.23C49.3 177.86 58.02 195.55 62.84 213.25C56.65 215.44 60.36 221.92 67.12 222.17C74.06 222.47 82.08 223.04 90.04 223.61C109.29 224.98 128.13 226.32 130.23 223.76C131.68 222.06 131.92 218.72 132.14 215.79C132.25 214.45 132.34 213.19 132.54 212.22C135.29 200.05 154.16 168.42 160.05 162.05C164.02 157.88 164.07 157.44 163.97 152.27C163.72 146.96 145.28 134.37 135.29 129.01C132.42 127.75 123.6 129.34 112.38 132.18L113.29 124.68C113.44 124.66 113.59 124.65 113.73 124.65C118.55 124.23 124.13 122.6 125.45 119.06C126.12 117.18 125.21 115.62 124.43 114.3C123.9 113.41 123.44 112.63 123.56 111.92C124.03 109.92 127.81 107.86 129.23 107.74C140.56 107.84 154.26 106.31 157.1 105.37C161.59 103.45 164.25 99.19 158.42 95.44C156.22 94.15 153.7 92.51 151.05 90.78C142.38 85.14 132.3 78.58 127.2 80.26C122.06 82.62 90 88.68 63.77 93.64L63.77 93.64C51.28 96 40.12 98.11 33.82 99.45ZM106.97 127.73C103.57 130.09 99.76 133.45 96.41 136.54C99.77 135.57 103.08 134.64 106.25 133.78L106.97 127.73ZM104.73 146.56C100.52 147.66 95.94 148.91 91.24 150.19L91.24 150.19C89.47 150.67 87.69 151.16 85.9 151.64L91.19 211.64C93.21 211.5 95.18 211.33 97.04 211.15L104.73 146.56ZM102.92 210.41C107.48 209.68 110.79 208.71 111.77 207.38C114.56 203.47 133.81 159.41 133.86 154.66C133.91 151.68 129.06 144.71 126.17 142.7C125.03 141.81 119.09 142.94 110.83 144.99L102.92 210.41ZM59.78 158.28C65.79 156.95 72.72 155.18 79.78 153.29L84.87 212C82.36 212.12 79.85 212.22 77.4 212.3C73.72 195.83 66.81 172.46 59.78 158.28Z" fill="#454D9A" fill-opacity="1.000000" fill-rule="evenodd"/>
        <path id="Flattened" d="M129.23 107.74C140.56 107.84 154.26 106.31 157.1 105.37C161.59 103.45 164.25 99.19 158.42 95.44C156.22 94.15 153.7 92.51 151.05 90.78C142.38 85.14 132.3 78.58 127.2 80.26C122.06 82.62 90 88.68 63.77 93.64L63.77 93.64C51.28 96 40.12 98.11 33.82 99.45C27.69 101.19 32.82 107.28 37.11 106.67C42.31 105.96 48 105.01 53.95 104.01C74.03 100.65 97.05 96.79 114.34 100.33C117.26 100.83 118.14 103.09 118.84 104.9C119.02 105.35 119.18 105.78 119.37 106.15C119.25 106.55 119.15 106.99 119.04 107.43C118.66 108.98 118.27 110.57 117.36 111.03C116.58 111.33 115.77 111.46 114.99 111.58C113.46 111.82 112.04 112.05 111.18 113.5C109.69 116.13 102.13 122.62 95.09 128.65C93.29 130.2 91.52 131.72 89.89 133.14C88.12 134.68 85.38 134.12 84.18 132.02L83.13 120.12C81.69 112.46 76.19 113.76 77.05 121.84L78.77 141.75C77.3 142.19 75.83 142.64 74.37 143.07L74.37 143.07L74.37 143.07L74.37 143.07C67.02 145.29 60.1 147.37 54.32 149C40.35 128.83 27.42 133.62 39.11 157.07C40.23 159.45 41.58 162.19 43.08 165.22L43.08 165.23C49.3 177.86 58.02 195.55 62.84 213.25C56.65 215.44 60.36 221.92 67.12 222.17C74.06 222.47 82.08 223.04 90.04 223.61C109.29 224.98 128.13 226.32 130.23 223.76C131.68 222.06 131.92 218.72 132.14 215.79C132.25 214.45 132.34 213.19 132.54 212.22C135.29 200.05 154.16 168.42 160.05 162.05C164.02 157.88 164.07 157.44 163.97 152.27C163.72 146.96 145.28 134.37 135.29 129.01C132.51 127.79 124.14 129.24 113.42 131.92C113.08 132 112.73 132.09 112.38 132.18L112.51 131.11L113.29 124.68C113.44 124.66 113.59 124.65 113.73 124.65C118.55 124.23 124.13 122.6 125.45 119.06C126.12 117.18 125.21 115.62 124.43 114.3C123.9 113.41 123.44 112.63 123.56 111.92C124.03 109.92 127.81 107.86 129.23 107.74ZM113.67 123.65Q122.78 122.85 124.44 118.9Q124.48 118.82 124.51 118.73Q125.02 117.28 123.56 114.81Q122.39 112.82 122.58 111.75L122.58 111.73L122.59 111.7Q123 109.94 125.49 108.29Q127.64 106.87 129.15 106.74L129.19 106.74L129.24 106.74Q137.09 106.81 146.25 105.95Q154.44 105.18 156.75 104.43Q160.05 103.01 160.66 100.83L160.67 100.82Q160.78 100.42 160.77 100.02Q160.72 98.12 157.89 96.29Q155.67 94.99 150.5 91.62Q132.24 79.74 127.56 81.2Q122.06 83.64 63.96 94.62L63.95 94.62Q40.38 99.08 34.06 100.42Q32.41 100.89 32.08 101.76Q32.05 101.82 32.04 101.87Q31.85 102.54 32.4 103.41Q33.38 104.95 34.74 105.47Q35.75 105.85 36.97 105.68Q42.16 104.97 53.79 103.03Q74.64 99.53 85.1 98.59Q102.92 96.98 114.53 99.35Q115.16 99.45 115.73 99.7Q118.31 100.78 119.77 104.53Q120.1 105.37 120.26 105.69L120.44 106.04L120.33 106.42Q120.22 106.81 120.01 107.67Q119.13 111.25 117.82 111.92L117.77 111.95L117.71 111.97Q116.84 112.3 115.15 112.57Q112.66 112.96 112.05 113.99Q110.47 116.78 95.74 129.41L90.55 133.89Q89.72 134.61 88.77 134.87Q87.77 135.15 86.63 134.92Q85.6 134.72 84.81 134.18Q83.91 133.57 83.31 132.52L83.2 132.33L82.13 120.25Q81.67 117.83 80.69 116.67Q80.1 115.97 79.58 116.03Q79.53 116.03 79.48 116.05Q79.3 116.09 79.13 116.18Q77.55 117.04 78.04 121.75L79.84 142.47L74.66 144.03L74.66 144.03L74.66 144.03L74.66 144.03L74.66 144.03Q60.38 148.33 54.59 149.97L53.91 150.16L53.5 149.57Q48.59 142.49 43.85 139.28Q39.79 136.55 37.51 137.59Q37.27 137.7 37.05 137.85Q35.35 139.09 35.59 143.02Q35.93 148.44 40.01 156.63L40.01 156.64L40.02 156.65Q41.13 159.02 43.97 164.78L43.97 164.78Q58.96 195.2 63.8 212.99L64.05 213.89L63.17 214.2Q61.36 214.84 60.86 215.95Q60.75 216.17 60.71 216.41Q60.58 217.14 61.01 217.98Q61.36 218.66 61.87 219.19Q63.61 221.04 67.16 221.17Q74.11 221.47 90.11 222.61Q127.69 225.29 129.45 223.12L129.46 223.11L129.47 223.11Q130.7 221.66 131.15 215.72Q131.35 213.05 131.56 212Q133.5 203.42 144.25 184.47Q154.22 166.89 159.33 161.37Q162.12 158.43 162.6 157.17Q163.04 156.04 162.97 152.31Q162.8 149.16 152.68 141.45Q143.85 134.74 134.85 129.92Q131.31 128.42 112.63 133.14L111.22 133.5L112.39 123.79L113.16 123.69Q113.42 123.66 113.67 123.65ZM107.17 134.57L107.97 127.85L108.23 125.64L106.4 126.91Q102.29 129.75 95.73 135.8L96.68 137.5L107.17 134.57ZM105.87 128.51C103.32 130.39 100.6 132.73 98.05 135.04C97.49 135.54 96.95 136.04 96.41 136.54C97.13 136.33 97.85 136.12 98.57 135.92C101.19 135.17 103.76 134.46 106.25 133.78L106.81 129.07L106.97 127.73C106.61 127.98 106.24 128.24 105.87 128.51ZM109.92 144.19L101.93 210.29L101.77 211.6L103.08 211.39Q110.97 210.14 112.59 207.96Q115.01 204.56 124.77 181.72Q134.83 158.17 134.86 154.68Q134.9 152.22 131.95 147.77Q129.17 143.57 126.74 141.88Q124.76 140.5 110.59 144.02L109.92 144.19ZM126.17 142.7C125.03 141.81 119.09 142.94 110.83 144.99L103.05 209.37L102.92 210.41C103.27 210.35 103.62 210.29 103.95 210.23C107.97 209.53 110.86 208.61 111.77 207.38C114.56 203.47 133.81 159.41 133.86 154.66C133.91 151.68 129.06 144.71 126.17 142.7ZM97.94 212.06L105.73 146.67L105.9 145.21L90.98 149.23L90.98 149.23L84.83 150.9L90.28 212.7L91.26 212.63Q94.44 212.41 97.15 212.14L97.94 212.06ZM103.69 146.83C99.77 147.87 95.56 149.01 91.24 150.19L91.24 150.19C89.47 150.67 87.69 151.16 85.9 151.64L91.19 211.64C93.21 211.5 95.18 211.33 97.04 211.15L104.61 147.63L104.73 146.56C104.39 146.65 104.04 146.74 103.69 146.83ZM58.32 157.58L58.89 158.72Q68.92 178.98 76.43 212.52L76.61 213.33L84.36 213.03L85.96 212.95L80.67 152.02L79.52 152.33Q67.1 155.64 59.57 157.3L58.32 157.58ZM60.24 159.2C67.1 173.45 73.8 196.18 77.4 212.3C79.52 212.23 81.7 212.15 83.87 212.05C84.2 212.04 84.54 212.02 84.87 212L84.78 211.01L79.86 154.3L79.78 153.29C79.45 153.38 79.12 153.47 78.8 153.55C72.46 155.24 66.27 156.82 60.79 158.05C60.45 158.13 60.12 158.2 59.78 158.28C59.93 158.58 60.09 158.89 60.24 159.2Z" fill="#603B1A" fill-opacity="1.000000" fill-rule="evenodd"/>
    </g>
</svg>
