<svg width="201.000000" height="305.000000" viewBox="0 0 201 305" fill="none" xmlns="http://www.w3.org/2000/svg" xmlns:xlink="http://www.w3.org/1999/xlink">
    <desc>
        Created with Pixso.
    </desc>
    <defs>
        <filter id="filter_1_79_dd" x="0.000000" y="8.000000" width="195.000000" height="297.000000" filterUnits="userSpaceOnUse" color-interpolation-filters="sRGB">
            <feFlood flood-opacity="0" result="BackgroundImageFix"/>
            <feColorMatrix in="SourceAlpha" type="matrix" values="0 0 0 0 0 0 0 0 0 0 0 0 0 0 0 0 0 0 127 0" result="hardAlpha"/>
            <feOffset dx="0" dy="4"/>
            <feGaussianBlur stdDeviation="1.33333"/>
            <feComposite in2="hardAlpha" operator="out" k2="-1" k3="1"/>
            <feColorMatrix type="matrix" values="0 0 0 0 0 0 0 0 0 0 0 0 0 0 0 0 0 0 0.25 0"/>
            <feBlend mode="normal" in2="BackgroundImageFix" result="effect_dropShadow_1"/>
            <feBlend mode="normal" in="SourceGraphic" in2="effect_dropShadow_1" result="shape"/>
        </filter>
        <filter id="filter_1_123_dd" x="14.000000" y="70.000000" width="166.878174" height="167.000000" filterUnits="userSpaceOnUse" color-interpolation-filters="sRGB">
            <feFlood flood-opacity="0" result="BackgroundImageFix"/>
            <feColorMatrix in="SourceAlpha" type="matrix" values="0 0 0 0 0 0 0 0 0 0 0 0 0 0 0 0 0 0 127 0" result="hardAlpha"/>
            <feOffset dx="0" dy="4"/>
            <feGaussianBlur stdDeviation="1.33333"/>
            <feComposite in2="hardAlpha" operator="out" k2="-1" k3="1"/>
            <feColorMatrix type="matrix" values="0 0 0 0 0 0 0 0 0 0 0 0 0 0 0 0 0 0 0.25 0"/>
            <feBlend mode="normal" in2="BackgroundImageFix" result="effect_dropShadow_1"/>
            <feBlend mode="normal" in="SourceGraphic" in2="effect_dropShadow_1" result="shape"/>
        </filter>
        <filter id="filter_1_93_dd" x="18.000000" y="70.000000" width="158.878174" height="159.000000" filterUnits="userSpaceOnUse" color-interpolation-filters="sRGB">
            <feFlood flood-opacity="0" result="BackgroundImageFix"/>
            <feBlend mode="normal" in="SourceGraphic" in2="BackgroundImageFix" result="shape"/>
            <feColorMatrix in="SourceAlpha" type="matrix" values="0 0 0 0 0 0 0 0 0 0 0 0 0 0 0 0 0 0 127 0" result="hardAlpha"/>
            <feOffset dx="0" dy="4"/>
            <feGaussianBlur stdDeviation="1.33333"/>
            <feComposite in2="hardAlpha" operator="arithmetic" k2="-1" k3="1"/>
            <feColorMatrix type="matrix" values="0 0 0 0 0 0 0 0 0 0 0 0 0 0 0 0 0 0 0.25 0"/>
            <feBlend mode="normal" in2="shape" result="effect_innerShadow_1"/>
        </filter>
    </defs>
    <rect id="Rectangle 1" x="4.000000" y="0.000002" rx="20.000000" width="197.000000" height="297.000000" fill="#985B26" fill-opacity="1.000000"/>
    <rect id="Rectangle 1" x="4.500000" y="0.500002" rx="20.000000" width="196.000000" height="296.000000" stroke="#000000" stroke-opacity="1.000000" stroke-width="1.000000"/>
    <g filter="url(#filter_1_79_dd)">
        <rect id="Rectangle 2" x="4.000000" y="8.000002" rx="20.000000" width="187.000000" height="289.000000" fill="#FFF0DB" fill-opacity="1.000000"/>
        <rect id="Rectangle 2" x="4.500000" y="8.500002" rx="20.000000" width="186.000000" height="288.000000" stroke="#000000" stroke-opacity="1.000000" stroke-width="1.000000"/>
    </g>
    <g filter="url(#filter_1_123_dd)">
        <g filter="url(#filter_1_93_dd)">
            <path id="path8195" d="M120.02 207.04C126.31 211.55 128.88 216.06 130.51 225.26C130.7 226.29 130.31 228.07 133.3 228.59C144.28 230.51 155.37 225.25 156.35 220.15C156.96 209.71 136.49 200.68 122.22 201.89C119.27 202.38 118.73 206.1 120.02 207.04Z" fill="#498649" fill-opacity="1.000000" fill-rule="evenodd"/>
            <path id="path8195" d="" fill="#603B1A" fill-opacity="1.000000" fill-rule="evenodd"/>
            <path id="Flattened" d="M98.52 123.64C100.13 118.54 103.28 120.66 104.5 122.08C108.48 126.54 110.69 131.04 110.09 135.07C105.76 146.14 102.84 153.15 100.69 158.33C100.1 159.73 99.58 161 99.09 162.17C104.08 161.43 106.31 160.78 108.34 160.18C111.03 159.39 113.37 158.71 121.3 158.05C126.57 158.59 131.11 160.3 122.6 166.59C118.02 168.27 114.16 169.36 110.33 170.19C110.46 171.79 110.59 173.38 110.71 174.95C110.97 178.1 111.22 181.18 111.43 184.17C119.11 183.7 125.69 183.22 129.77 182.87C130.7 182.96 131.86 182.59 132.88 182.28C133.54 182.07 134.14 181.88 134.59 181.84C137.9 182.23 140.88 183.13 146.35 191.22C147.02 193.79 143.2 193.89 140.09 193.98C139.75 193.98 139.42 193.99 139.1 194.01C131.08 193.42 121.33 193.28 111.94 193.39C112.15 199.67 111.98 205.31 111.03 209.96C110.08 213.6 95.99 223.32 79.74 226.04C75.92 226.76 72.91 222.13 76.2 219.75C94.48 206.15 96.04 202.07 98.2 196.41C98.53 195.55 98.88 194.65 99.3 193.67C90.98 193.94 83.9 194.34 79.92 194.69C77.76 201.05 74.24 209.1 69.23 219.38C67.71 221.9 61.96 225.6 59.01 225.14C50.35 223.56 42.4 212.84 36.14 202.89C32.03 203.16 29.94 203.02 27.34 201.43C26.94 201.11 26.58 200.85 26.26 200.61C24.32 199.16 23.7 198.7 22.71 194.85C22.3 192.72 23.29 191.34 25.32 192.96C28.34 195 31.66 196.47 36.05 195.88C42.39 194.92 48.72 191.85 55.65 188.5C60.33 186.23 65.29 183.82 70.71 181.85C71.04 178.56 71.01 175.62 70.52 173.46C66.39 175.95 62.62 178.43 59.62 180.39C56.43 182.49 54.12 184 53.2 184.34C49.16 185.82 45.03 186.21 42.99 182.66C41.74 179.79 42.65 179.83 44.23 179.89C45.24 179.93 46.53 179.98 47.7 179.29C48.02 179.07 48.55 178.68 49.27 178.15L49.28 178.15C52.54 175.75 59.72 170.47 69.2 164.93C70.22 162.16 69.56 159.79 67.53 156.83C63.89 157.57 60.32 157.8 56.07 158.07C54.27 158.18 52.35 158.31 50.25 158.48L60.64 148.53C57.01 144.4 52.43 139.11 47.17 131.87C39.54 121.46 45.34 118.92 52.6 125.89C59.11 134.85 65.52 140.55 69.96 144.5C70.64 145.1 71.27 145.66 71.85 146.18C74 145.48 76.65 144.4 81.29 142.45C86.58 140.64 92.49 145.34 83 150.57C80.63 151.93 78.49 153.03 76.49 153.91C77.08 156.27 77.58 157.95 77.95 159.19L77.95 159.2L77.95 159.2C78.04 159.49 78.12 159.75 78.19 160C83.62 157.23 89.52 154.59 95.67 152.43C96.95 147.37 98.12 140.97 98.77 132.1C98.94 130.18 98.77 128.61 98.61 127.21C98.47 125.93 98.34 124.78 98.52 123.64ZM76.39 170.06C77.07 171.35 78.08 172.49 79.07 173.61C80.24 174.93 81.38 176.22 81.9 177.67C82.64 179.75 82.79 182.33 82.29 185.61C88.68 185.39 95.38 185.07 101.75 184.73C101.83 182.99 101.83 180.81 101.82 177.85L101.82 177.85C101.82 176.09 101.82 174.05 101.84 171.67C99.82 171.96 97.69 172.24 95.36 172.54L94.92 172.6C91.82 177.84 89.98 174.58 90.67 170.05C91.09 167.68 91.73 165.46 92.47 163.1C87.43 164.45 81.8 167.09 76.39 170.06ZM69.44 189.66C65.74 191.14 61.91 193.02 58.09 194.9C51.88 197.95 45.69 200.98 40.09 202.28C45.45 206.09 51.94 210.29 58.54 210.98C62.43 211.28 67.11 200.34 69.44 189.66Z" fill="#498649" fill-opacity="1.000000" fill-rule="evenodd"/>
            <path id="Flattened" d="" fill="#603B1A" fill-opacity="1.000000" fill-rule="evenodd"/>
            <path id="Flattened" d="M112.09 106.62C116.97 97.61 119.43 90.28 122.17 81.11C122.53 80.13 122.86 78.85 123.2 77.51C124.35 72.93 125.7 67.59 129.42 71.16C131.24 73.04 132.75 75.91 134.21 78.65L134.21 78.65L134.22 78.66C134.54 79.27 134.86 79.87 135.18 80.46C136.02 82 137.03 84.95 135.4 85.84C131.59 86.96 128.7 92.94 123.01 104.76C121.57 107.75 119.94 111.12 118.08 114.88C122.57 121.26 126.39 127.1 129.82 132.35C137.82 144.58 143.76 153.67 151.36 159.15C158.24 164.34 163.57 168.72 165.61 172.53C166.27 173.95 167.88 176.6 169.67 179.56C172.22 183.79 175.15 188.64 176.23 191.38C178.67 197.42 173.99 201.59 165.03 195.25C160.22 191.32 148.69 182.98 138.76 177.37C137.66 176.8 137.25 175.84 136.84 174.87C136.75 174.68 136.67 174.48 136.58 174.29C126.49 148.01 113.28 115.18 100.85 106.46C100.37 106.74 99.89 107.02 99.4 107.3C71.62 146.17 53.07 168.95 25.27 186.2C17.23 191.67 15.55 187.09 21.75 182.14C43.19 164.69 54.56 148.91 66.68 132.1L66.68 132.1C69.92 127.62 73.2 123.06 76.75 118.38C72.35 120.04 67.92 121.33 63.65 122.02C55.51 123.03 55.72 118.54 62.08 114.56C71.35 109.8 77.51 102.96 83.89 95.88C87.25 92.14 90.67 88.34 94.64 84.74C107.43 73.96 110.73 89.98 106.83 99.78C108.68 102.11 110.42 104.39 112.09 106.62Z" fill="#498649" fill-opacity="1.000000" fill-rule="nonzero"/>
            <path id="Flattened" d="" fill="#603B1A" fill-opacity="1.000000" fill-rule="evenodd"/>
            <path id="path8175" d="M142.35 110.27C140.23 107.98 137.84 108.79 136.1 112.86C134.54 116.67 126.41 127.02 116.43 136.65C113.02 140.12 116.05 143.46 121.42 139.68C130.41 131.18 137.62 124.58 143.14 123.3C145.65 122.81 150.03 124.41 149.54 121C148.65 116.9 145.75 113.64 142.35 110.27Z" fill="#498649" fill-opacity="1.000000" fill-rule="evenodd"/>
            <path id="path8175" d="" fill="#603B1A" fill-opacity="1.000000" fill-rule="evenodd"/>
        </g>
    </g>
</svg>
