<svg width="85.243652" height="54.075439" viewBox="0 0 85.2437 54.0754" fill="none" xmlns="http://www.w3.org/2000/svg" xmlns:xlink="http://www.w3.org/1999/xlink">
    <desc>
        Created with Pixso.
    </desc>
    <defs/>
    <path id="m" d="M9.7 12.6Q9.86 8.11 8.88 3.97Q8.57 3.82 8.49 3.82Q8.41 3.82 8.1 3.62Q7.79 3.46 7.43 3.23Q7.12 3 6.81 3Q6.5 3 6.18 3.97Q5.17 6.43 4.5 8.98Q3.77 11.74 3.45 14.6Q2.82 20.1 3.06 25.73Q3.08 26.33 3.12 26.93Q3.39 31.91 4.23 36.86Q5.21 42.37 6.18 47.49Q6.34 48.27 7.12 49.48Q7.73 50.38 8.57 50.78Q8.87 50.92 9.19 51Q9.59 51.1 9.97 51.06Q10.83 50.97 11.61 50.18Q13.53 49.25 14.97 48.39Q16.42 47.49 17.2 46.2Q17.61 45.62 17.83 44.98Q18.68 42.59 17.04 39.32Q18.02 35.3 20.01 31.32Q22 27.33 24.54 24.05Q27.12 20.77 30.09 18.31Q33.06 15.81 36.11 14.83Q37.71 20.92 39.04 28.46Q40.4 35.96 42 42.53Q42.82 45.73 43.29 47.33Q43.71 48.75 44.52 49.03Q44.63 49.07 44.74 49.09Q45.83 49.25 47.59 47.64Q49.39 46.04 51.14 43.31Q52.1 41.7 52.9 40.02Q53.69 38.34 54.31 36.59Q55.6 33.07 57.2 29.64Q58.8 26.2 61.42 23.07Q64.07 19.95 68.72 17.57Q69.7 21.71 70.32 25.73Q70.95 29.71 71.73 33.58Q72.55 37.41 73.68 40.92Q74.29 42.8 75.16 44.54Q75.92 46.07 76.89 47.49Q77.36 46.82 78.02 46.2Q78.49 45.73 78.88 45.26Q79.27 44.75 79.62 44.75Q80.87 43.46 81.26 43Q81.69 42.53 82 41.08Q82.47 39.48 82 35.65Q81.54 31.78 80.64 27.41Q79.78 23 78.64 18.78Q77.51 14.52 76.89 12.14Q76.81 11.89 76.7 11.65Q76.39 10.96 75.83 10.38Q75.35 9.82 74.74 9.57Q74.46 9.45 74.15 9.4Q73.65 9.28 73.22 9.4Q73.12 9.43 73.02 9.48Q72.55 9.71 71.93 9.71Q70.95 9.71 69.89 9.48Q69.2 9.32 68.55 9.41Q68.24 9.46 67.94 9.56Q64.89 10.53 62.16 12.6Q59.47 14.67 56.89 17.41Q54.35 20.1 51.85 23.07Q49.39 26.04 46.97 28.42Q46.97 19.32 46.5 14.36Q46.11 10.28 43.87 8.36Q43.39 7.95 42.82 7.64Q41.54 6.98 40.79 7.25Q40.09 7.49 39.27 7.8Q38.33 8.11 37.28 8.35Q36.26 8.58 35.29 9.4Q28.1 15.3 21.69 22.76Q18.77 26.15 16.41 29.89Q13.61 34.35 11.61 39.32Q10.62 37.39 10.04 35.34Q9.41 33.12 9.27 30.77Q9.15 28.48 9.15 26.2Q9.15 23.91 9.27 21.63Q9.54 17.06 9.7 12.6Z" fill="#603B1A" fill-opacity="1.000000" fill-rule="evenodd"/>
    <path id="m" d="M8.88 3.97Q9.86 8.11 9.7 12.6Q9.54 17.06 9.27 21.63Q9.04 26.2 9.27 30.77Q9.54 35.3 11.61 39.32Q15.29 30.18 21.69 22.76Q28.1 15.3 35.29 9.4Q36.26 8.58 37.28 8.35Q38.33 8.11 39.27 7.8Q40.09 7.49 40.79 7.25Q41.54 6.98 42.82 7.64Q46.03 9.4 46.5 14.36Q46.97 19.32 46.97 28.42Q49.39 26.04 51.85 23.07Q54.35 20.1 56.89 17.41Q59.47 14.67 62.16 12.6Q64.89 10.53 67.94 9.56Q68.88 9.25 69.89 9.48Q70.95 9.71 71.93 9.71Q72.55 9.71 73.02 9.48Q73.53 9.25 74.15 9.4Q75.13 9.56 75.83 10.38Q76.57 11.16 76.89 12.14Q77.51 14.52 78.64 18.78Q79.78 23 80.64 27.41Q81.54 31.78 82 35.65Q82.47 39.48 82 41.08Q81.69 42.53 81.26 43Q80.87 43.46 79.62 44.75Q79.27 44.75 78.88 45.26Q78.49 45.73 78.02 46.2Q77.36 46.82 76.89 47.49Q74.82 44.44 73.68 40.92Q72.55 37.41 71.73 33.58Q70.95 29.71 70.32 25.73Q69.7 21.71 68.72 17.57Q64.07 19.95 61.42 23.07Q58.8 26.2 57.2 29.64Q55.6 33.07 54.31 36.59Q53.06 40.1 51.14 43.31Q49.39 46.04 47.59 47.64Q45.83 49.25 44.74 49.09Q43.76 48.93 43.29 47.33Q42.82 45.73 42 42.53Q40.4 35.96 39.04 28.46Q37.71 20.92 36.11 14.83Q33.06 15.81 30.09 18.31Q27.12 20.77 24.54 24.05Q22 27.33 20.01 31.32Q18.02 35.3 17.04 39.32Q19.11 43.46 17.2 46.2Q16.42 47.49 14.97 48.39Q13.53 49.25 11.61 50.18Q10.48 51.32 9.19 51Q7.94 50.69 7.12 49.48Q6.34 48.27 6.18 47.49Q5.21 42.37 4.23 36.86Q3.29 31.32 3.06 25.73Q2.82 20.1 3.45 14.6Q4.07 9.09 6.18 3.97Q6.5 3 6.81 3Q7.12 3 7.43 3.23Q7.79 3.46 8.1 3.62Q8.41 3.82 8.49 3.82Q8.57 3.82 8.88 3.97Z" stroke="#603B1A" stroke-opacity="1.000000" stroke-width="3.000000"/>
</svg>
