<svg width="201.000000" height="305.000000" viewBox="0 0 201 305" fill="none" xmlns="http://www.w3.org/2000/svg" xmlns:xlink="http://www.w3.org/1999/xlink">
    <desc>
        Created with Pixso.
    </desc>
    <defs>
        <filter id="filter_3_69_dd" x="0.000000" y="8.000000" width="195.000000" height="297.000000" filterUnits="userSpaceOnUse" color-interpolation-filters="sRGB">
            <feFlood flood-opacity="0" result="BackgroundImageFix"/>
            <feColorMatrix in="SourceAlpha" type="matrix" values="0 0 0 0 0 0 0 0 0 0 0 0 0 0 0 0 0 0 127 0" result="hardAlpha"/>
            <feOffset dx="0" dy="4"/>
            <feGaussianBlur stdDeviation="1.33333"/>
            <feComposite in2="hardAlpha" operator="out" k2="-1" k3="1"/>
            <feColorMatrix type="matrix" values="0 0 0 0 0 0 0 0 0 0 0 0 0 0 0 0 0 0 0.25 0"/>
            <feBlend mode="normal" in2="BackgroundImageFix" result="effect_dropShadow_1"/>
            <feBlend mode="normal" in="SourceGraphic" in2="effect_dropShadow_1" result="shape"/>
        </filter>
        <filter id="filter_3_76_dd" x="32.000000" y="117.999939" width="129.307434" height="135.370239" filterUnits="userSpaceOnUse" color-interpolation-filters="sRGB">
            <feFlood flood-opacity="0" result="BackgroundImageFix"/>
            <feBlend mode="normal" in="SourceGraphic" in2="BackgroundImageFix" result="shape"/>
            <feColorMatrix in="SourceAlpha" type="matrix" values="0 0 0 0 0 0 0 0 0 0 0 0 0 0 0 0 0 0 127 0" result="hardAlpha"/>
            <feOffset dx="0" dy="4"/>
            <feGaussianBlur stdDeviation="1.33333"/>
            <feComposite in2="hardAlpha" operator="arithmetic" k2="-1" k3="1"/>
            <feColorMatrix type="matrix" values="0 0 0 0 0 0 0 0 0 0 0 0 0 0 0 0 0 0 0.25 0"/>
            <feBlend mode="normal" in2="shape" result="effect_innerShadow_1"/>
        </filter>
        <filter id="filter_3_133_dd" x="28.742493" y="41.846619" width="132.825867" height="81.868103" filterUnits="userSpaceOnUse" color-interpolation-filters="sRGB">
            <feFlood flood-opacity="0" result="BackgroundImageFix"/>
            <feBlend mode="normal" in="SourceGraphic" in2="BackgroundImageFix" result="shape"/>
            <feColorMatrix in="SourceAlpha" type="matrix" values="0 0 0 0 0 0 0 0 0 0 0 0 0 0 0 0 0 0 127 0" result="hardAlpha"/>
            <feOffset dx="0" dy="4"/>
            <feGaussianBlur stdDeviation="1.33333"/>
            <feComposite in2="hardAlpha" operator="arithmetic" k2="-1" k3="1"/>
            <feColorMatrix type="matrix" values="0 0 0 0 0 0 0 0 0 0 0 0 0 0 0 0 0 0 0.25 0"/>
            <feBlend mode="normal" in2="shape" result="effect_innerShadow_1"/>
        </filter>
        <clipPath id="clip3_132">
            <rect id="Man5 1" rx="0.000000" width="168.000000" height="224.000000" transform="translate(13.500000 40.500000)" fill="white" fill-opacity="0"/>
        </clipPath>
        <clipPath id="clip3_70">
            <rect id="Man2 1" rx="0.000000" width="176.000000" height="235.000000" transform="translate(4.500000 22.500000)" fill="white" fill-opacity="0"/>
        </clipPath>
    </defs>
    <rect id="Rectangle 1" x="4.000000" rx="20.000000" width="197.000000" height="297.000000" fill="#985B26" fill-opacity="1.000000"/>
    <rect id="Rectangle 1" x="4.500000" y="0.500000" rx="20.000000" width="196.000000" height="296.000000" stroke="#000000" stroke-opacity="1.000000" stroke-width="1.000000"/>
    <g filter="url(#filter_3_69_dd)">
        <rect id="Rectangle 2" x="4.000000" y="8.000000" rx="20.000000" width="187.000000" height="289.000000" fill="#FFF0DB" fill-opacity="1.000000"/>
        <rect id="Rectangle 2" x="4.500000" y="8.500000" rx="20.000000" width="186.000000" height="288.000000" stroke="#000000" stroke-opacity="1.000000" stroke-width="1.000000"/>
    </g>
    <rect id="Man2 1" rx="0.000000" width="176.000000" height="235.000000" transform="translate(4.500000 22.500000)" fill="#FFFFFF" fill-opacity="0"/>
    <g clip-path="url(#clip3_70)">
        <g filter="url(#filter_3_76_dd)">
            <path id="path6021" d="M125.64 164.26C124.26 164.26 122.68 164.47 121.02 164.65C106 167.11 95.22 172.56 70.28 171.68C66.91 171.7 64.04 173.48 64.16 176.08C64.4 181.8 68.61 212.07 68.96 214.8C69.45 218.51 74.62 218.84 75.3 215.57C75.42 214.97 75.43 213.28 75.36 210.94C75.67 210.28 76.16 209.78 76.69 209.68L109.63 206.73C109.96 206.74 110.21 207.05 110.39 207.5C110.13 219.14 109.99 230.51 110.24 234.49C110.31 235.37 110.27 236.3 111.15 237.09C113.25 238.85 125.08 237.88 128.15 235.96C129 235.34 129.3 235.05 129.42 233.75C127.71 214.07 129.03 189.04 130.35 169.56C130.69 165.25 128.66 164.26 125.64 164.26ZM110.04 173.97C113.31 173.16 111.21 183.13 110.09 183.16L76.09 185.83C73.13 185.23 73.27 178.26 75.27 178.17C90.67 177.65 95.93 176.33 110.04 173.97ZM109.97 190.84C110.95 190.77 111.13 198.01 109.75 198.13L76.62 200.91C74.25 200.24 74.1 193.98 76.17 193.67L109.97 190.84Z" fill="#E9411B" fill-opacity="1.000000" fill-rule="evenodd"/>
            <path id="path6021" d="M110.39 207.5C110.13 219.14 109.99 230.51 110.24 234.49C110.31 235.37 110.27 236.3 111.15 237.09C113.25 238.85 125.08 237.88 128.15 235.96C129 235.34 129.3 235.05 129.42 233.75C127.71 214.07 129.03 189.04 130.35 169.56C130.69 165.25 128.66 164.26 125.64 164.26C124.26 164.26 122.68 164.47 121.02 164.65C116.64 165.37 112.61 166.34 108.49 167.34C98.5 169.75 87.94 172.3 70.28 171.68C66.91 171.7 64.04 173.48 64.16 176.08C64.4 181.8 68.61 212.07 68.96 214.8C69.45 218.51 74.62 218.84 75.3 215.57C75.42 214.97 75.43 213.28 75.36 210.94C75.67 210.28 76.16 209.78 76.69 209.68L109.63 206.73C109.96 206.74 110.21 207.05 110.39 207.5ZM70.27 172.68Q67.99 172.7 66.48 173.74Q65.48 174.42 65.24 175.31Q65.14 175.65 65.16 176.03Q65.36 180.78 69.51 211.34Q69.9 214.22 69.95 214.67Q70.08 215.66 70.65 216.19Q71.19 216.72 72.16 216.81Q73.18 216.91 73.74 216.44Q74.17 216.08 74.32 215.37Q74.47 214.66 74.36 210.98L74.35 210.73L74.45 210.51Q75.07 209.23 76.05 208.83Q76.27 208.74 76.51 208.7L76.56 208.69L109.59 205.73L109.64 205.73Q109.97 205.74 110.26 205.86Q110.94 206.16 111.32 207.14L111.39 207.33L111.39 207.52Q110.91 229.19 111.24 234.43Q111.25 234.52 111.26 234.72Q111.34 235.9 111.81 236.34Q113.06 237.35 119.21 236.91Q125.43 236.45 127.59 235.14Q128.02 234.81 128.23 234.38Q128.37 234.08 128.41 233.74Q126.51 211.64 129.35 169.49Q129.55 166.94 128.57 166.02Q127.76 165.26 125.64 165.26Q124.49 165.26 121.75 165.58Q121.36 165.62 121.16 165.64Q116.81 166.36 108.73 168.31Q88.06 173.31 70.27 172.68ZM110.09 183.16C111.21 183.13 113.31 173.16 110.04 173.97C95.93 176.33 90.67 177.65 75.27 178.17C73.27 178.26 73.13 185.23 76.09 185.83L110.09 183.16ZM110.15 184.16Q110.27 184.15 110.39 184.12Q112.14 183.71 112.71 178.36Q112.95 176.12 112.54 174.77Q112.16 173.49 111.35 173.09Q110.72 172.78 109.84 172.99Q107.57 173.37 103.65 174.04Q88.08 176.74 75.22 177.17Q74.58 177.2 74.1 177.5Q72.66 178.42 72.82 181.86Q72.97 185.12 74.61 186.27Q75.17 186.66 75.9 186.81L76.03 186.83L110.15 184.16ZM76.52 201.92L109.83 199.13L109.83 199.13Q110.07 199.1 110.28 199.01Q111.74 198.39 111.75 194.42Q111.75 192.87 111.53 191.74Q111.23 190.24 110.45 189.93Q110.19 189.82 109.89 189.85L76.05 192.68L76.02 192.68Q75.42 192.77 74.98 193.09Q73.59 194.06 73.73 197.2Q73.87 200.37 75.44 201.45Q75.85 201.73 76.35 201.87L76.52 201.92ZM109.97 190.84C110.95 190.77 111.13 198.01 109.75 198.13L76.62 200.91C74.25 200.24 74.1 193.98 76.17 193.67L109.97 190.84Z" fill="#603B1A" fill-opacity="1.000000" fill-rule="evenodd"/>
            <path id="path6023" d="M99.19 175.1L88.11 176.05L87.8 228.56C87.68 234.54 91.02 240.34 94.92 240.23L105.54 235.87L99.19 175.1Z" fill="#E9411B" fill-opacity="1.000000" fill-rule="evenodd"/>
            <path id="path6023" d="M99.19 175.1L88.11 176.05L87.8 228.56C87.68 234.54 91.02 240.34 94.92 240.23L105.54 235.87L99.19 175.1ZM98.3 176.18L89.1 176.97L88.8 228.57Q88.78 229.42 88.86 230.26Q88.97 231.47 89.28 232.67Q89.78 234.62 90.71 236.16Q91.61 237.68 92.73 238.48Q93.72 239.2 94.72 239.23L104.46 235.23L98.3 176.18Z" fill="#603B1A" fill-opacity="1.000000" fill-rule="evenodd"/>
            <path id="path6025" d="M63.39 238.23L63.88 242.87C95.23 253.46 87.94 237.91 119.88 234.1L119.52 231.25C95.1 229.52 82.32 238.88 63.39 238.23Z" fill="#E9411B" fill-opacity="1.000000" fill-rule="evenodd"/>
            <path id="path6025" d="M63.49 239.23L63.88 242.87C82.29 249.09 87.38 246.29 94.9 242.15C100.06 239.32 106.37 235.85 118.89 234.23C119.22 234.18 119.55 234.14 119.88 234.1L119.75 233.11L119.52 231.25C106.16 230.3 96.28 232.68 86.97 234.91C79.58 236.69 72.54 238.38 64.4 238.25C64.06 238.25 63.73 238.24 63.39 238.23L63.49 239.23ZM64.5 239.25L64.8 242.13Q71.02 244.19 75.6 244.98Q77.88 245.37 79.85 245.47Q81.71 245.56 83.37 245.4Q84.92 245.25 86.38 244.87Q87.71 244.53 89.09 243.96Q90.27 243.48 91.71 242.74Q92.59 242.29 94.42 241.28Q95.77 240.54 96.49 240.16Q97.69 239.51 98.74 238.99Q101.43 237.67 104.09 236.69Q107.33 235.49 110.93 234.64Q114.59 233.78 118.76 233.23L118.63 232.19Q114.34 231.93 110.15 232.11Q106.07 232.28 101.87 232.88Q98.37 233.38 94.31 234.24Q92.7 234.59 90.72 235.05Q89.54 235.33 87.21 235.89Q83.37 236.81 81.46 237.23Q78.27 237.93 75.67 238.36Q72.55 238.87 69.68 239.09Q67.06 239.29 64.5 239.25Z" fill="#603B1A" fill-opacity="1.000000" fill-rule="evenodd"/>
            <path id="path6027" d="M60.4 203.82C57.63 195.51 49.96 197.15 51.4 204.33C59.43 229.48 61.77 243.41 62.84 245.35C69.08 255.91 73.48 253.14 73.87 243.94C73.93 241.14 65.64 218.76 60.4 203.82Z" fill="#E9411B" fill-opacity="1.000000" fill-rule="evenodd"/>
            <path id="path6027" d="M60.4 203.82C57.63 195.51 49.96 197.15 51.4 204.33C59.43 229.48 61.77 243.41 62.84 245.35C69.08 255.91 73.48 253.14 73.87 243.94C73.92 241.77 68.94 227.81 64.25 214.68C62.9 210.89 61.57 207.17 60.4 203.82ZM63.71 244.86Q67.72 251.63 70.19 251.11Q70.24 251.1 70.28 251.09Q70.34 251.07 70.4 251.06Q72.6 250.31 72.87 243.9Q72.91 241.93 63.31 215.02Q60.63 207.5 59.45 204.15Q58.04 199.92 55.7 199.33Q55.11 199.17 54.45 199.26Q54 199.32 53.64 199.52Q53.06 199.84 52.69 200.53Q51.94 201.9 52.37 204.08Q57.51 220.19 61.95 238.39Q63.38 244.24 63.71 244.86Z" fill="#603B1A" fill-opacity="1.000000" fill-rule="evenodd"/>
            <path id="path6029" d="M35.72 220.61C30.89 219.86 31.33 225.87 33.81 227.15C68.4 242.47 105.38 222.01 136.67 223.85C137.86 224.07 139.74 224.76 141.46 225.71C146.99 228.63 143.62 237 140.9 238.72C128.45 244.42 131.35 238.77 117.39 245.23C116.07 246.08 112.62 246.73 111.33 246.21C106.16 244.48 101.91 241.52 98.53 238.87L92.06 242.14C96.05 247.12 101.95 249.48 106.82 251.62C110.72 253.48 114.99 253.27 117.82 253.36C132.33 253.56 145.91 247.98 152.73 247.13C154.73 246.83 157.06 243.36 157.97 241.74C163.57 232.56 161.25 230.99 157.34 221.37C155.11 217.77 148.68 216.74 145.3 216.28C110.21 214.79 65.39 227.17 35.72 220.61Z" fill="#E9411B" fill-opacity="1.000000" fill-rule="evenodd"/>
            <path id="path6029" d="M157.97 241.74C162.75 233.89 161.76 231.61 158.92 225.11C158.44 224 157.91 222.77 157.34 221.37C155.11 217.77 148.68 216.74 145.3 216.28C130.36 215.64 113.65 217.52 97.11 219.38C74.79 221.9 52.76 224.38 35.72 220.61C30.89 219.86 31.33 225.87 33.81 227.15C55.43 236.72 77.98 232.32 99.5 228.13C112.41 225.61 124.94 223.16 136.67 223.85C137.86 224.07 139.74 224.76 141.46 225.71C146.99 228.63 143.62 237 140.9 238.72C128.45 244.42 131.35 238.77 117.39 245.23C116.07 246.08 112.62 246.73 111.33 246.21C106.16 244.48 101.91 241.52 98.53 238.87L92.97 241.68L92.06 242.14C92.28 242.41 92.5 242.67 92.72 242.93C96.69 247.38 102.21 249.59 106.82 251.62C110.2 253.23 113.86 253.29 116.62 253.34C117.04 253.34 117.44 253.35 117.82 253.36C127.57 253.49 136.89 251.02 144.03 249.13C147.52 248.2 150.49 247.41 152.73 247.13C154.73 246.83 157.06 243.36 157.97 241.74ZM152.6 246.14Q154.52 245.83 157.09 241.25L157.1 241.24L157.11 241.22Q160.31 235.98 160.3 232.92Q160.3 230.76 158.01 225.5Q157.01 223.23 156.44 221.83Q154.32 218.52 145.21 217.27Q130.34 216.65 97.22 220.38Q74.94 222.89 64.48 223.35Q47.02 224.13 35.54 221.59Q34.3 221.41 33.66 221.92Q33.61 221.95 33.57 222Q33.11 222.42 33.02 223.23Q32.83 224.83 33.53 225.68Q33.82 226.02 34.24 226.24Q48.4 232.51 66.65 231.8Q77.61 231.38 99.31 227.14Q124.87 222.16 136.73 222.85L136.79 222.86L136.84 222.87Q139.12 223.28 141.94 224.83Q143.63 225.72 144.5 227.11Q145.9 229.34 145.25 232.84Q144.39 237.58 141.59 239.46Q141.51 239.51 141.43 239.56L141.37 239.6L141.31 239.63Q135.11 242.47 130 242.68Q124.85 242.89 117.87 246.11Q116.68 246.85 114.52 247.22Q112.19 247.62 110.99 247.15Q105.09 245.17 98.42 240.05L93.66 242.45Q97.47 246.45 106.31 250.3Q106.92 250.57 107.23 250.7L107.24 250.71L107.25 250.72Q110.44 252.24 116.63 252.34Q117.47 252.35 117.85 252.36Q127.45 252.49 143.78 248.16Q150.28 246.43 152.6 246.14Z" fill="#603B1A" fill-opacity="1.000000" fill-rule="evenodd"/>
            <path id="Flattened" d="M109.39 119.11C111.06 117.41 111.78 117.85 112.98 119.11L121.15 133.49C123.39 137.41 121.97 138.77 119.7 140.94C119.07 141.54 118.38 142.2 117.69 142.99C114.92 146.81 114.09 148.66 114.67 151.45C122.23 148.87 131.8 146.5 149.13 146.07C159.58 145.23 160.31 153.75 149.39 155.34C128.67 156.03 117.36 159.16 106.79 162.08C92.31 166.08 79.24 169.7 45.32 166.09C32.4 163.81 29.67 152.38 46.43 155.38C66.51 158.57 79.17 159.21 88.33 158.49C88.17 158.25 88.01 158.04 87.85 157.84C87.26 157.15 86.54 156.56 85.28 155.54C84.91 155.24 84.49 154.91 84.03 154.52C82.86 153.63 83.02 150.54 84.15 149.16C85.75 147.32 86.69 145.6 87.8 143.58C88.52 142.25 89.32 140.79 90.43 139.07C93.45 135.19 98.83 138.81 98.07 141.08L97.98 141.36C96.21 146.65 96.02 147.22 96.68 152.53C97.33 154.74 97.82 155.88 98.48 156.9C100.44 156.42 102.25 155.88 104.01 155.29C104.5 152.09 105.75 147.64 107.31 143.24C108.8 140.33 108.15 138.56 105.64 136.1L100.34 130.98C99.7 130.25 99.71 128.97 100.49 128.1L109.39 119.11Z" fill="#E9411B" fill-opacity="1.000000" fill-rule="nonzero"/>
            <path id="Flattened" d="M117.69 142.99C118.38 142.2 119.07 141.54 119.7 140.94C121.97 138.77 123.39 137.41 121.15 133.49L112.98 119.11C111.78 117.85 111.06 117.41 109.39 119.11L100.49 128.1C99.71 128.97 99.7 130.25 100.34 130.98L105.64 136.1C108.15 138.56 108.8 140.33 107.31 143.24C105.75 147.64 104.5 152.09 104.01 155.29C102.25 155.88 100.44 156.42 98.48 156.9C97.82 155.88 97.33 154.74 96.68 152.53C96.02 147.22 96.21 146.65 97.98 141.36L98.07 141.08C98.83 138.81 93.45 135.19 90.43 139.07C89.32 140.79 88.52 142.25 87.8 143.58C86.69 145.6 85.75 147.32 84.15 149.16C83.02 150.54 82.86 153.63 84.03 154.52C84.49 154.91 84.91 155.24 85.28 155.54C86.35 156.41 87.04 156.96 87.58 157.54C87.67 157.64 87.76 157.74 87.85 157.84C88.01 158.04 88.17 158.25 88.33 158.49C87.94 158.52 87.55 158.55 87.15 158.57C78.09 159.15 65.67 158.44 46.43 155.38C29.67 152.38 32.4 163.81 45.32 166.09C79.24 169.7 92.31 166.08 106.79 162.08C117.36 159.16 128.67 156.03 149.39 155.34C160.31 153.75 159.58 145.23 149.13 146.07C132.52 146.48 123.04 148.67 115.63 151.13C115.3 151.23 114.98 151.34 114.67 151.45C114.6 151.1 114.55 150.77 114.52 150.44C114.33 148.17 115.27 146.33 117.69 142.99ZM149.3 154.34Q155.32 153.45 156.15 150.89Q156.31 150.4 156.28 149.85Q156.26 149.64 156.21 149.44Q155.94 148.49 154.66 147.83Q152.65 146.79 149.21 147.06L149.18 147.06L149.16 147.07Q129.16 147.56 114.99 152.39L113.92 152.76L113.69 151.65Q112.91 147.88 116.88 142.4L116.9 142.37L116.94 142.33Q117.66 141.5 119.01 140.22Q120.88 138.42 121.16 137.56Q121.59 136.27 120.28 133.98L112.17 119.71Q111.5 119.02 111.26 119Q110.94 118.96 110.1 119.81L101.22 128.79Q100.77 129.3 100.82 129.75Q100.85 130.03 101.07 130.3L106.33 135.38Q108.83 137.82 108.97 140.39Q109.06 141.99 108.23 143.63Q105.71 150.75 105 155.44L104.9 156.04L104.32 156.24Q101.38 157.22 98.72 157.87L98.03 158.04L97.65 157.45Q96.63 155.89 95.72 152.81L95.7 152.73L95.69 152.65Q95.19 148.66 95.43 146.81Q95.62 145.25 97.03 141.04L97.12 140.77Q97.18 140.58 97.17 140.4Q97.12 139.49 95.27 138.69Q94 138.14 92.97 138.42Q92.01 138.69 91.24 139.65Q90.16 141.33 88.68 144.06L88.68 144.06Q86.59 147.88 84.92 149.8Q84.27 150.6 84.22 152.06Q84.18 153.38 84.63 153.73L84.64 153.74L85.9 154.76L85.91 154.76Q87.97 156.43 88.61 157.2Q88.9 157.54 89.16 157.93L90.11 159.35L88.41 159.48Q73.37 160.67 46.27 156.37Q40.62 155.36 37.71 156.41Q36.18 156.96 35.84 157.93Q35.71 158.28 35.74 158.69Q35.87 160.44 38.28 162.23Q41.1 164.33 45.46 165.1Q68.05 167.5 83.24 165.95Q92.48 165 106.53 161.11Q128.49 155.04 149.3 154.34Z" fill="#603B1A" fill-opacity="1.000000" fill-rule="evenodd"/>
        </g>
        <rect id="Man5 1" rx="0.000000" width="168.000000" height="224.000000" transform="translate(13.500000 40.500000)" fill="#FFFFFF" fill-opacity="0"/>
        <g clip-path="url(#clip3_132)">
            <g filter="url(#filter_3_133_dd)">
                <path id="path5718" d="M80.25 51.82C76.36 54.42 74.25 55.09 72.65 60.59C72.4 61.47 72.21 64.96 73.38 67.36C83.54 77.29 46.82 98.88 33.7 107.97C25.15 113.56 28.06 119.83 39.26 114.33C53.72 107.62 79.2 99.8 84.21 79.59C84.26 77.37 85.74 76.44 87.86 75.91C91.1 75.12 88.25 60.45 86.39 56.63C84.53 52.8 81.51 51.09 80.25 51.82Z" fill="#603B1A" fill-opacity="1.000000" fill-rule="evenodd"/>
                <path id="path5718" d="" fill="#603B1A" fill-opacity="1.000000" fill-rule="evenodd"/>
                <path id="path5720" d="M69.83 88.48C70.5 91.06 72.85 97.68 72.42 100.46C70.45 105.53 67.68 107.46 66.57 112.86C66.1 115.83 75.83 125.01 78.62 123.56C82.19 121.14 84.08 116.14 84.02 113.89C83.64 103.09 77.47 95.44 77.25 83L69.83 88.48Z" fill="#603B1A" fill-opacity="1.000000" fill-rule="evenodd"/>
                <path id="path5720" d="" fill="#603B1A" fill-opacity="1.000000" fill-rule="evenodd"/>
                <path id="path5722" d="M84.36 55.81C107.61 64.44 117.6 46.77 138.62 42.2C144.65 40.89 150.65 43.49 155.28 44.52C165.28 47.03 157.38 62.16 149.74 58.64C131.56 49.67 115.97 63.17 98.71 67.39C97.43 67.63 96.65 65.89 95.83 64.71C93.19 60.89 89.21 64.04 85.96 62.85L84.36 55.81Z" fill="#603B1A" fill-opacity="1.000000" fill-rule="evenodd"/>
                <path id="path5722" d="" fill="#603B1A" fill-opacity="1.000000" fill-rule="evenodd"/>
                <path id="path5724" d="M111.73 59.69L95.93 63.53C100.83 69.54 89.23 93.26 83.4 108.81L97.58 106.67C99 90.49 108.07 75.5 111.73 59.69Z" fill="#603B1A" fill-opacity="1.000000" fill-rule="evenodd"/>
                <path id="path5724" d="" fill="#603B1A" fill-opacity="1.000000" fill-rule="evenodd"/>
                <path id="path5726" d="M77.35 76.3C85.21 95.7 111.75 68.52 128.7 70.09L128.7 80.89C111.31 77.74 82.12 100.64 75.16 84.62L77.35 76.3Z" fill="#603B1A" fill-opacity="1.000000" fill-rule="evenodd"/>
                <path id="path5726" d="" fill="#603B1A" fill-opacity="1.000000" fill-rule="evenodd"/>
                <path id="path5728" d="M125.17 64.89C123.78 64.63 119.82 68.92 119.83 70.47C120.18 84.08 119.87 97.39 118.77 111C118.36 117.38 130.66 112.33 131.16 109.31C132.87 95.06 132.14 67.94 131.03 67.27C129.33 66.15 127.69 65.4 125.17 64.89Z" fill="#603B1A" fill-opacity="1.000000" fill-rule="evenodd"/>
                <path id="path5728" d="" fill="#603B1A" fill-opacity="1.000000" fill-rule="evenodd"/>
                <path id="path5730" d="M76.61 108C130.99 90.71 159.29 103.42 160.87 106.74C161.94 108.56 161.71 112.36 160.59 114.26C151.21 128.2 101.08 92.38 78.48 120.22L76.61 108Z" fill="#603B1A" fill-opacity="1.000000" fill-rule="evenodd"/>
                <path id="path5730" d="" fill="#603B1A" fill-opacity="1.000000" fill-rule="evenodd"/>
            </g>
        </g>
    </g>
</svg>
