<svg width="209.000000" height="313.000000" viewBox="0 0 209 313" fill="none" xmlns="http://www.w3.org/2000/svg" xmlns:xlink="http://www.w3.org/1999/xlink">
    <desc>
        Created with Pixso.
    </desc>
    <defs>
        <filter id="filter_3_209_dd" x="0.000000" y="0.000000" width="209.000000" height="313.000000" filterUnits="userSpaceOnUse" color-interpolation-filters="sRGB">
            <feFlood flood-opacity="0" result="BackgroundImageFix"/>
            <feColorMatrix in="SourceAlpha" type="matrix" values="0 0 0 0 0 0 0 0 0 0 0 0 0 0 0 0 0 0 127 0" result="hardAlpha"/>
            <feOffset dx="0" dy="4"/>
            <feGaussianBlur stdDeviation="1.33333"/>
            <feComposite in2="hardAlpha" operator="out" k2="-1" k3="1"/>
            <feColorMatrix type="matrix" values="0 0 0 0 0 0 0 0 0 0 0 0 0 0 0 0 0 0 0.25 0"/>
            <feBlend mode="normal" in2="BackgroundImageFix" result="effect_dropShadow_1"/>
            <feBlend mode="normal" in="SourceGraphic" in2="effect_dropShadow_1" result="shape"/>
        </filter>
        <filter id="filter_3_211_dd" x="4.000000" y="8.000000" width="195.000000" height="297.000000" filterUnits="userSpaceOnUse" color-interpolation-filters="sRGB">
            <feFlood flood-opacity="0" result="BackgroundImageFix"/>
            <feColorMatrix in="SourceAlpha" type="matrix" values="0 0 0 0 0 0 0 0 0 0 0 0 0 0 0 0 0 0 127 0" result="hardAlpha"/>
            <feOffset dx="0" dy="4"/>
            <feGaussianBlur stdDeviation="1.33333"/>
            <feComposite in2="hardAlpha" operator="out" k2="-1" k3="1"/>
            <feColorMatrix type="matrix" values="0 0 0 0 0 0 0 0 0 0 0 0 0 0 0 0 0 0 0.25 0"/>
            <feBlend mode="normal" in2="BackgroundImageFix" result="effect_dropShadow_1"/>
            <feBlend mode="normal" in="SourceGraphic" in2="effect_dropShadow_1" result="shape"/>
        </filter>
        <filter id="filter_3_213_dd" x="36.000000" y="117.063965" width="129.307404" height="135.370239" filterUnits="userSpaceOnUse" color-interpolation-filters="sRGB">
            <feFlood flood-opacity="0" result="BackgroundImageFix"/>
            <feBlend mode="normal" in="SourceGraphic" in2="BackgroundImageFix" result="shape"/>
            <feColorMatrix in="SourceAlpha" type="matrix" values="0 0 0 0 0 0 0 0 0 0 0 0 0 0 0 0 0 0 127 0" result="hardAlpha"/>
            <feOffset dx="0" dy="4"/>
            <feGaussianBlur stdDeviation="1.33333"/>
            <feComposite in2="hardAlpha" operator="arithmetic" k2="-1" k3="1"/>
            <feColorMatrix type="matrix" values="0 0 0 0 0 0 0 0 0 0 0 0 0 0 0 0 0 0 0.25 0"/>
            <feBlend mode="normal" in2="shape" result="effect_innerShadow_1"/>
        </filter>
        <clipPath id="clip3_212">
            <rect id="Man1 1" rx="0.000000" width="157.000000" height="210.000000" transform="translate(23.500000 47.500000)" fill="white" fill-opacity="0"/>
        </clipPath>
        <filter id="filter_3_241_dd" x="39.904709" y="28.996216" width="120.800369" height="80.021606" filterUnits="userSpaceOnUse" color-interpolation-filters="sRGB">
            <feFlood flood-opacity="0" result="BackgroundImageFix"/>
            <feBlend mode="normal" in="SourceGraphic" in2="BackgroundImageFix" result="shape"/>
            <feColorMatrix in="SourceAlpha" type="matrix" values="0 0 0 0 0 0 0 0 0 0 0 0 0 0 0 0 0 0 127 0" result="hardAlpha"/>
            <feOffset dx="0" dy="4"/>
            <feGaussianBlur stdDeviation="1.33333"/>
            <feComposite in2="hardAlpha" operator="arithmetic" k2="-1" k3="1"/>
            <feColorMatrix type="matrix" values="0 0 0 0 0 0 0 0 0 0 0 0 0 0 0 0 0 0 0.25 0"/>
            <feBlend mode="normal" in2="shape" result="effect_innerShadow_1"/>
        </filter>
        <clipPath id="clip3_230">
            <rect id="Man7 1" rx="0.000000" width="181.000000" height="242.000000" transform="translate(10.500000 27.500000)" fill="white" fill-opacity="0"/>
        </clipPath>
    </defs>
    <g filter="url(#filter_3_209_dd)">
        <rect id="Rectangle 1" x="8.000000" rx="20.000000" width="197.000000" height="297.000000" fill="#985B26" fill-opacity="1.000000"/>
        <rect id="Rectangle 1" x="8.500000" y="0.500000" rx="20.000000" width="196.000000" height="296.000000" stroke="#000000" stroke-opacity="1.000000" stroke-width="1.000000"/>
        <g filter="url(#filter_3_211_dd)">
            <rect id="Rectangle 2" x="8.000000" y="8.000000" rx="20.000000" width="187.000000" height="289.000000" fill="#FFF0DB" fill-opacity="1.000000"/>
            <rect id="Rectangle 2" x="8.500000" y="8.500000" rx="20.000000" width="186.000000" height="288.000000" stroke="#000000" stroke-opacity="1.000000" stroke-width="1.000000"/>
        </g>
        <rect id="Man1 1" rx="0.000000" width="157.000000" height="210.000000" transform="translate(23.500000 47.500000)" fill="#FFFFFF" fill-opacity="0"/>
        <g clip-path="url(#clip3_212)">
            <g filter="url(#filter_3_213_dd)">
                <path id="path6021" d="M129.64 163.33C128.26 163.33 126.68 163.53 125.02 163.72C110 166.17 99.22 171.63 74.28 170.75C70.91 170.76 68.04 172.54 68.16 175.14C68.4 180.87 72.61 211.13 72.96 213.86C73.45 217.58 78.62 217.91 79.3 214.64C79.42 214.04 79.43 212.35 79.36 210.01C79.67 209.35 80.16 208.84 80.69 208.74L113.63 205.8C113.96 205.8 114.21 206.11 114.39 206.57C114.13 218.2 113.99 229.57 114.24 233.56C114.31 234.44 114.27 235.36 115.15 236.15C117.25 237.91 129.08 236.94 132.15 235.03C133 234.4 133.3 234.11 133.42 232.81C131.71 213.13 133.03 188.11 134.35 168.63C134.69 164.31 132.66 163.33 129.64 163.33ZM114.04 173.03C117.31 172.23 115.21 182.19 114.09 182.22L80.09 184.89C77.13 184.3 77.27 177.33 79.27 177.23C94.67 176.71 99.93 175.39 114.04 173.03ZM113.97 189.91C114.95 189.83 115.13 197.08 113.75 197.19L80.62 199.97C78.25 199.3 78.1 193.04 80.17 192.74L113.97 189.91Z" fill="#E9411B" fill-opacity="1.000000" fill-rule="evenodd"/>
                <path id="path6021" d="M114.39 206.57C114.13 218.2 113.99 229.57 114.24 233.56C114.31 234.44 114.27 235.36 115.15 236.15C117.25 237.91 129.08 236.94 132.15 235.03C133 234.4 133.3 234.11 133.42 232.81C131.71 213.13 133.03 188.11 134.35 168.63C134.69 164.31 132.66 163.33 129.64 163.33C128.26 163.33 126.68 163.53 125.02 163.72C120.64 164.43 116.61 165.41 112.49 166.4C102.5 168.82 91.94 171.37 74.28 170.75C70.91 170.76 68.04 172.54 68.16 175.14C68.4 180.87 72.61 211.13 72.96 213.86C73.45 217.58 78.62 217.91 79.3 214.64C79.42 214.04 79.43 212.35 79.36 210.01C79.67 209.35 80.16 208.84 80.69 208.74L113.63 205.8C113.96 205.8 114.21 206.11 114.39 206.57ZM74.27 171.75Q71.99 171.76 70.48 172.8Q69.48 173.48 69.24 174.37Q69.14 174.72 69.16 175.09Q69.36 179.84 73.51 210.4Q73.9 213.28 73.95 213.73Q74.08 214.72 74.65 215.26Q75.19 215.78 76.16 215.87Q77.18 215.97 77.74 215.51Q78.17 215.14 78.32 214.43Q78.47 213.72 78.36 210.04L78.35 209.8L78.45 209.58Q79.07 208.29 80.05 207.89Q80.27 207.8 80.51 207.76L80.56 207.75L113.59 204.8L113.64 204.8Q113.97 204.8 114.26 204.92Q114.94 205.22 115.32 206.2L115.39 206.39L115.39 206.59Q114.91 228.26 115.24 233.49Q115.25 233.58 115.26 233.79Q115.34 234.96 115.81 235.4Q117.06 236.42 123.21 235.97Q129.43 235.52 131.59 234.2Q132.02 233.87 132.23 233.44Q132.37 233.15 132.41 232.8Q130.5 210.7 133.35 168.56Q133.55 166 132.57 165.09Q131.75 164.33 129.64 164.33Q128.49 164.33 125.75 164.64Q125.36 164.68 125.16 164.71Q120.81 165.42 112.73 167.37Q92.06 172.37 74.27 171.75ZM114.09 182.22C115.21 182.19 117.31 172.23 114.04 173.03C99.93 175.39 94.67 176.71 79.27 177.23C77.27 177.33 77.13 184.3 80.09 184.89L114.09 182.22ZM114.15 183.22Q114.27 183.21 114.39 183.19Q116.14 182.77 116.71 177.42Q116.95 175.18 116.54 173.84Q116.16 172.55 115.35 172.15Q114.72 171.84 113.84 172.05Q111.57 172.43 107.65 173.11Q92.08 175.8 79.22 176.23Q78.58 176.26 78.1 176.57Q76.66 177.48 76.82 180.92Q76.97 184.19 78.61 185.33Q79.17 185.73 79.9 185.87L80.03 185.9L114.15 183.22ZM80.52 200.98L113.83 198.19L113.83 198.19Q114.07 198.17 114.28 198.08Q115.74 197.45 115.75 193.48Q115.75 191.94 115.53 190.8Q115.23 189.31 114.45 188.99Q114.19 188.89 113.89 188.91L80.05 191.74L80.02 191.75Q79.42 191.84 78.98 192.15Q77.59 193.12 77.73 196.26Q77.87 199.43 79.44 200.51Q79.85 200.79 80.35 200.93L80.52 200.98ZM113.97 189.91C114.95 189.83 115.13 197.08 113.75 197.19L80.62 199.97C78.25 199.3 78.1 193.04 80.17 192.74L113.97 189.91Z" fill="#603B1A" fill-opacity="1.000000" fill-rule="evenodd"/>
                <path id="path6023" d="M103.19 174.17L92.11 175.11L91.8 227.63C91.68 233.6 95.02 239.41 98.92 239.29L109.54 234.94L103.19 174.17Z" fill="#E9411B" fill-opacity="1.000000" fill-rule="evenodd"/>
                <path id="path6023" d="M103.19 174.17L92.11 175.11L91.8 227.63C91.68 233.6 95.02 239.41 98.92 239.29L109.54 234.94L103.19 174.17ZM102.3 175.25L93.1 176.03L92.8 227.63Q92.78 228.48 92.86 229.32Q92.97 230.54 93.28 231.74Q93.78 233.68 94.71 235.23Q95.61 236.74 96.73 237.55Q97.72 238.26 98.72 238.29L108.46 234.3L102.3 175.25Z" fill="#603B1A" fill-opacity="1.000000" fill-rule="evenodd"/>
                <path id="path6025" d="M67.39 237.29L67.88 241.94C99.23 252.52 91.94 236.97 123.88 233.17L123.52 230.31C99.1 228.58 86.32 237.94 67.39 237.29Z" fill="#E9411B" fill-opacity="1.000000" fill-rule="evenodd"/>
                <path id="path6025" d="M67.49 238.29L67.88 241.94C86.29 248.15 91.38 245.36 98.9 241.22C104.06 238.38 110.37 234.92 122.89 233.29C123.22 233.25 123.55 233.21 123.88 233.17L123.75 232.17L123.52 230.31C110.16 229.37 100.28 231.74 90.97 233.98C83.58 235.76 76.54 237.45 68.4 237.32C68.06 237.31 67.73 237.3 67.39 237.29L67.49 238.29ZM68.5 238.32L68.8 241.19Q75.02 243.26 79.6 244.04Q81.88 244.43 83.85 244.53Q85.71 244.63 87.38 244.47Q88.92 244.32 90.38 243.94Q91.71 243.59 93.09 243.03Q94.27 242.54 95.71 241.8Q96.59 241.35 98.42 240.34Q99.77 239.6 100.49 239.22Q101.69 238.58 102.74 238.06Q105.43 236.74 108.09 235.75Q111.33 234.56 114.93 233.71Q118.59 232.84 122.76 232.3L122.63 231.26Q118.34 230.99 114.15 231.17Q110.07 231.34 105.87 231.94Q102.37 232.44 98.31 233.31Q96.7 233.65 94.72 234.11Q93.54 234.39 91.21 234.95Q87.37 235.87 85.46 236.29Q82.27 237 79.67 237.43Q76.55 237.94 73.68 238.15Q71.06 238.35 68.5 238.32Z" fill="#603B1A" fill-opacity="1.000000" fill-rule="evenodd"/>
                <path id="path6027" d="M64.4 202.88C61.63 194.58 53.96 196.21 55.4 203.4C63.43 228.55 65.77 242.47 66.84 244.42C73.08 254.97 77.48 252.21 77.87 243.01C77.93 240.2 69.64 217.83 64.4 202.88Z" fill="#E9411B" fill-opacity="1.000000" fill-rule="evenodd"/>
                <path id="path6027" d="M64.4 202.88C61.63 194.58 53.96 196.21 55.4 203.4C63.43 228.55 65.77 242.47 66.84 244.42C73.08 254.97 77.48 252.21 77.87 243.01C77.92 240.83 72.94 226.87 68.25 213.74C66.9 209.95 65.57 206.23 64.4 202.88ZM67.71 243.92Q71.72 250.7 74.19 250.18Q74.24 250.17 74.28 250.15Q74.34 250.14 74.4 250.12Q76.6 249.37 76.87 242.97Q76.91 240.99 67.31 214.08Q64.63 206.57 63.45 203.22Q62.04 198.99 59.7 198.39Q59.11 198.24 58.45 198.32Q58 198.38 57.64 198.58Q57.06 198.9 56.69 199.59Q55.94 200.97 56.37 203.15Q61.51 219.25 65.95 237.45Q67.38 243.3 67.71 243.92Z" fill="#603B1A" fill-opacity="1.000000" fill-rule="evenodd"/>
                <path id="path6029" d="M39.72 219.68C34.89 218.92 35.33 224.93 37.81 226.21C72.4 241.53 109.38 221.08 140.67 222.92C141.86 223.13 143.74 223.82 145.46 224.77C150.99 227.69 147.62 236.06 144.9 237.78C132.45 243.48 135.35 237.83 121.39 244.29C120.07 245.14 116.62 245.8 115.33 245.27C110.16 243.55 105.91 240.58 102.53 237.94L96.06 241.21C100.05 246.19 105.95 248.54 110.82 250.68C114.72 252.54 118.99 252.34 121.82 252.42C136.33 252.62 149.91 247.04 156.73 246.2C158.73 245.89 161.06 242.42 161.97 240.81C167.57 231.62 165.25 230.06 161.34 220.44C159.11 216.83 152.68 215.8 149.3 215.34C114.21 213.85 69.39 226.23 39.72 219.68Z" fill="#E9411B" fill-opacity="1.000000" fill-rule="evenodd"/>
                <path id="path6029" d="M161.97 240.81C166.75 232.96 165.76 230.67 162.92 224.17C162.44 223.06 161.91 221.84 161.34 220.44C159.11 216.83 152.68 215.8 149.3 215.34C134.36 214.71 117.65 216.59 101.11 218.45C78.79 220.96 56.76 223.44 39.72 219.68C34.89 218.92 35.33 224.93 37.81 226.21C59.43 235.79 81.98 231.39 103.5 227.19C116.41 224.67 128.94 222.23 140.67 222.92C141.86 223.13 143.74 223.82 145.46 224.77C150.99 227.69 147.62 236.06 144.9 237.78C132.45 243.48 135.35 237.83 121.39 244.29C120.07 245.14 116.62 245.8 115.33 245.27C110.16 243.55 105.91 240.58 102.53 237.94L96.97 240.75L96.06 241.21C96.28 241.48 96.5 241.74 96.72 241.99C100.69 246.44 106.21 248.66 110.82 250.68C114.2 252.3 117.86 252.36 120.62 252.4C121.04 252.41 121.44 252.41 121.82 252.42C131.57 252.56 140.89 250.08 148.03 248.19C151.52 247.26 154.49 246.48 156.73 246.2C158.73 245.89 161.06 242.42 161.97 240.81ZM156.6 245.21Q158.52 244.9 161.09 240.32L161.1 240.3L161.11 240.29Q164.31 235.04 164.3 231.99Q164.3 229.83 162.01 224.57Q161.01 222.29 160.44 220.9Q158.32 217.58 149.21 216.34Q134.34 215.71 101.22 219.44Q78.94 221.95 68.48 222.41Q51.02 223.19 39.54 220.66Q38.3 220.47 37.66 220.98Q37.61 221.02 37.57 221.06Q37.11 221.49 37.02 222.3Q36.83 223.89 37.53 224.74Q37.82 225.08 38.24 225.31Q52.4 231.57 70.65 230.87Q81.61 230.44 103.31 226.21Q128.87 221.22 140.73 221.92L140.79 221.92L140.84 221.93Q143.12 222.34 145.94 223.89Q147.63 224.78 148.5 226.18Q149.9 228.4 149.25 231.91Q148.39 236.64 145.59 238.52Q145.51 238.58 145.43 238.63L145.37 238.66L145.31 238.69Q139.11 241.53 134 241.74Q128.85 241.95 121.87 245.18Q120.68 245.91 118.52 246.28Q116.19 246.68 114.99 246.21Q109.09 244.24 102.42 239.12L97.66 241.52Q101.47 245.51 110.31 249.37Q110.92 249.64 111.23 249.77L111.24 249.78L111.25 249.78Q114.44 251.3 120.63 251.4Q121.47 251.41 121.85 251.42Q131.45 251.56 147.78 247.22Q154.28 245.5 156.6 245.21Z" fill="#603B1A" fill-opacity="1.000000" fill-rule="evenodd"/>
                <path id="Flattened" d="M113.39 118.17C115.06 116.47 115.78 116.92 116.98 118.17L125.15 132.55C127.39 136.47 125.97 137.83 123.7 140C123.07 140.6 122.38 141.26 121.69 142.05C118.92 145.87 118.09 147.72 118.67 150.51C126.23 147.93 135.8 145.56 153.13 145.13C163.58 144.29 164.31 152.81 153.39 154.4C132.67 155.09 121.36 158.22 110.79 161.14C96.31 165.15 83.24 168.76 49.32 165.16C36.4 162.88 33.67 151.45 50.43 154.45C70.51 157.63 83.17 158.27 92.33 157.55C92.17 157.32 92.01 157.11 91.85 156.91C91.26 156.21 90.54 155.63 89.28 154.6C88.91 154.31 88.49 153.97 88.03 153.59C86.86 152.69 87.02 149.61 88.15 148.22C89.75 146.38 90.69 144.67 91.8 142.64C92.52 141.31 93.32 139.85 94.43 138.14C97.45 134.25 102.83 137.88 102.07 140.15L101.98 140.42C100.21 145.72 100.02 146.28 100.68 151.59C101.33 153.8 101.82 154.94 102.48 155.96C104.44 155.49 106.25 154.94 108.01 154.35C108.5 151.15 109.75 146.7 111.31 142.3C112.8 139.39 112.15 137.62 109.64 135.16L104.34 130.05C103.7 129.31 103.71 128.04 104.49 127.17L113.39 118.17Z" fill="#E9411B" fill-opacity="1.000000" fill-rule="nonzero"/>
                <path id="Flattened" d="M121.69 142.05C122.38 141.26 123.07 140.6 123.7 140C125.97 137.83 127.39 136.47 125.15 132.55L116.98 118.17C115.78 116.92 115.06 116.47 113.39 118.17L104.49 127.17C103.71 128.04 103.7 129.31 104.34 130.05L109.64 135.16C112.15 137.62 112.8 139.39 111.31 142.3C109.75 146.7 108.5 151.15 108.01 154.35C106.25 154.94 104.44 155.49 102.48 155.96C101.82 154.94 101.33 153.8 100.68 151.59C100.02 146.28 100.21 145.72 101.98 140.42L102.07 140.15C102.83 137.88 97.45 134.25 94.43 138.14C93.32 139.85 92.52 141.31 91.8 142.64C90.69 144.67 89.75 146.38 88.15 148.22C87.02 149.61 86.86 152.69 88.03 153.59C88.49 153.97 88.91 154.31 89.28 154.6C90.35 155.48 91.04 156.03 91.58 156.6C91.67 156.7 91.76 156.8 91.85 156.91C92.01 157.11 92.17 157.32 92.33 157.55C91.94 157.58 91.55 157.61 91.15 157.63C82.09 158.22 69.67 157.5 50.43 154.45C33.67 151.45 36.4 162.88 49.32 165.16C83.24 168.76 96.31 165.15 110.79 161.14C121.36 158.22 132.67 155.09 153.39 154.4C164.31 152.81 163.58 144.29 153.13 145.13C136.52 145.54 127.04 147.74 119.63 150.19C119.3 150.3 118.98 150.4 118.67 150.51C118.6 150.16 118.55 149.83 118.52 149.5C118.33 147.23 119.27 145.4 121.69 142.05ZM153.3 153.4Q159.32 152.52 160.15 149.95Q160.31 149.46 160.28 148.91Q160.26 148.7 160.21 148.5Q159.94 147.55 158.66 146.89Q156.65 145.85 153.21 146.13L153.18 146.13L153.16 146.13Q133.16 146.63 118.99 151.46L117.92 151.82L117.69 150.71Q116.91 146.94 120.88 141.47L120.9 141.43L120.94 141.39Q121.66 140.57 123.01 139.28Q124.88 137.49 125.16 136.62Q125.59 135.33 124.28 133.05L116.17 118.78Q115.5 118.08 115.26 118.06Q114.94 118.03 114.1 118.88L105.22 127.85Q104.77 128.36 104.82 128.82Q104.85 129.1 105.07 129.36L110.33 134.44Q112.83 136.89 112.97 139.46Q113.06 141.05 112.23 142.69Q109.71 149.81 109 154.5L108.9 155.11L108.32 155.3Q105.38 156.28 102.72 156.93L102.03 157.1L101.65 156.51Q100.63 154.95 99.72 151.87L99.7 151.8L99.69 151.72Q99.19 147.73 99.43 145.88Q99.62 144.31 101.03 140.11L101.12 139.83Q101.18 139.64 101.17 139.46Q101.12 138.55 99.27 137.75Q98 137.21 96.97 137.49Q96.01 137.75 95.24 138.72Q94.16 140.4 92.68 143.12L92.68 143.12Q90.59 146.94 88.92 148.87Q88.27 149.66 88.22 151.12Q88.18 152.45 88.63 152.79L88.64 152.8L89.9 153.83L89.91 153.83Q91.97 155.49 92.61 156.26Q92.9 156.6 93.16 157L94.11 158.41L92.41 158.55Q77.37 159.74 50.27 155.43Q44.62 154.42 41.71 155.47Q40.18 156.03 39.84 157Q39.71 157.35 39.74 157.75Q39.87 159.51 42.28 161.3Q45.1 163.39 49.46 164.17Q72.05 166.56 87.24 165.01Q96.48 164.06 110.53 160.18Q132.49 154.1 153.3 153.4Z" fill="#603B1A" fill-opacity="1.000000" fill-rule="evenodd"/>
            </g>
        </g>
        <rect id="Man4 1" rx="0.000000" width="175.000000" height="234.000000" transform="translate(14.500000 31.500000)" fill="#FFFFFF" fill-opacity="0"/>
        <rect id="Man7 1" rx="0.000000" width="181.000000" height="242.000000" transform="translate(10.500000 27.500000)" fill="#FFFFFF" fill-opacity="0"/>
        <g clip-path="url(#clip3_230)">
            <g filter="url(#filter_3_241_dd)">
                <path id="path13514" d="M80.08 29.03C73.99 28.19 67.65 40.45 67.28 43.6C68.28 50.57 74.35 52.98 75.33 55.86C79.72 71.51 81 96.74 82.4 101.62C83.89 106.49 120.08 110.03 122.64 108.75C130.62 103.88 134.25 89.72 127.26 91C112.5 92.9 100.62 93.08 97.5 91.38C94.83 89.75 88.82 61.93 90.18 59.39C91.86 56.04 98.24 51.69 97.47 48.77C96.77 45.67 87.36 30.06 80.08 29.03Z" fill="#603B1A" fill-opacity="1.000000" fill-rule="evenodd"/>
                <path id="path13514" d="M97.47 48.77C96.77 45.67 87.36 30.06 80.08 29.03C73.99 28.19 67.65 40.45 67.28 43.6C68.28 50.57 74.35 52.98 75.33 55.86C79.72 71.51 81 96.74 82.4 101.62C83.89 106.49 120.08 110.03 122.64 108.75C130.62 103.88 134.25 89.72 127.26 91C112.5 92.9 100.62 93.08 97.5 91.38C94.83 89.75 88.82 61.93 90.18 59.39C90.84 58.07 92.23 56.6 93.62 55.12C95.77 52.84 97.94 50.54 97.47 48.77ZM89.29 58.94Q90.02 57.49 92.89 54.44Q96.83 50.26 96.5 49.02L96.5 49.01L96.49 48.99Q95.76 45.74 90.45 38.73Q84.31 30.64 79.94 30.02Q79.91 30.02 79.88 30.01Q76.48 29.61 72.35 35.4Q68.72 40.49 68.29 43.59Q68.93 47.63 73.44 51.96Q75.85 54.27 76.28 55.54L76.29 55.57L76.3 55.59Q79.11 65.62 81.76 89.53Q82.88 99.65 83.37 101.34Q84.17 103.98 102.25 106.5Q119.83 108.96 122.15 107.87Q123.85 106.83 125.2 105.45Q128.31 102.28 129.59 97.32Q130.33 94.46 129.69 92.94Q129.5 92.49 129.16 92.24Q128.54 91.78 127.44 91.98L127.41 91.99L127.38 91.99Q102.45 95.21 97.03 92.26L97 92.25L96.98 92.24Q94.67 90.82 91.35 75.94Q88.08 61.26 89.29 58.94Z" fill="#603B1A" fill-opacity="1.000000" fill-rule="evenodd"/>
                <path id="path13516" d="M45.69 102.61C37.57 103.14 38.47 92.89 45.39 91.2C138.94 78.76 71.21 58.37 158.07 45.05C161.86 44.37 161.42 61.46 157.59 61.87C70.03 73.24 142.31 86.66 45.69 102.61Z" fill="#603B1A" fill-opacity="1.000000" fill-rule="evenodd"/>
                <path id="path13516" d="M158.07 45.05C71.21 58.37 138.94 78.76 45.39 91.2C38.47 92.89 37.57 103.14 45.69 102.61C142.31 86.66 70.03 73.24 157.59 61.87C161.42 61.46 161.86 44.37 158.07 45.05ZM45.58 101.61Q78.06 96.25 91.63 90.01Q96.54 87.76 100.31 84.27Q102.61 82.15 104.49 79.58Q107.63 75.28 111.76 72.44Q114.09 70.85 116.73 69.71Q128.54 64.64 157.47 60.88L157.48 60.88L157.49 60.88Q157.56 60.87 157.62 60.86Q159.49 60.41 159.69 53.03Q159.78 49.73 159.17 47.61Q158.72 46.02 158.29 46.03Q158.27 46.03 158.25 46.03L158.24 46.03L158.22 46.03Q130.09 50.35 117.94 56.75Q110.79 60.51 105.44 68.45Q99.98 76.57 92.36 80.67Q91.8 80.97 91.23 81.25Q77.59 87.92 45.58 92.18Q43.13 92.79 41.96 94.36Q40.96 95.71 40.9 97.77Q40.87 99.05 41.43 99.95Q41.64 100.28 41.94 100.57Q42 100.63 42.06 100.68Q43.29 101.75 45.58 101.61Z" fill="#603B1A" fill-opacity="1.000000" fill-rule="evenodd"/>
            </g>
        </g>
    </g>
</svg>
