<svg width="202.000000" height="305.000000" viewBox="0 0 202 305" fill="none" xmlns="http://www.w3.org/2000/svg" xmlns:xlink="http://www.w3.org/1999/xlink">
    <desc>
        Created with Pixso.
    </desc>
    <defs>
        <filter id="filter_3_191_dd" x="0.000000" y="8.000000" width="195.949219" height="297.000000" filterUnits="userSpaceOnUse" color-interpolation-filters="sRGB">
            <feFlood flood-opacity="0" result="BackgroundImageFix"/>
            <feColorMatrix in="SourceAlpha" type="matrix" values="0 0 0 0 0 0 0 0 0 0 0 0 0 0 0 0 0 0 127 0" result="hardAlpha"/>
            <feOffset dx="0" dy="4"/>
            <feGaussianBlur stdDeviation="1.33333"/>
            <feComposite in2="hardAlpha" operator="out" k2="-1" k3="1"/>
            <feColorMatrix type="matrix" values="0 0 0 0 0 0 0 0 0 0 0 0 0 0 0 0 0 0 0.25 0"/>
            <feBlend mode="normal" in2="BackgroundImageFix" result="effect_dropShadow_1"/>
            <feBlend mode="normal" in="SourceGraphic" in2="effect_dropShadow_1" result="shape"/>
        </filter>
        <filter id="filter_3_193_dd" x="32.295898" y="117.944214" width="129.635193" height="135.713257" filterUnits="userSpaceOnUse" color-interpolation-filters="sRGB">
            <feFlood flood-opacity="0" result="BackgroundImageFix"/>
            <feBlend mode="normal" in="SourceGraphic" in2="BackgroundImageFix" result="shape"/>
            <feColorMatrix in="SourceAlpha" type="matrix" values="0 0 0 0 0 0 0 0 0 0 0 0 0 0 0 0 0 0 127 0" result="hardAlpha"/>
            <feOffset dx="0" dy="4"/>
            <feGaussianBlur stdDeviation="1.33333"/>
            <feComposite in2="hardAlpha" operator="arithmetic" k2="-1" k3="1"/>
            <feColorMatrix type="matrix" values="0 0 0 0 0 0 0 0 0 0 0 0 0 0 0 0 0 0 0.25 0"/>
            <feBlend mode="normal" in2="shape" result="effect_innerShadow_1"/>
        </filter>
        <clipPath id="clip3_192">
            <rect id="Man2 1" rx="0.000000" width="176.448654" height="235.598206" transform="translate(4.724915 22.200928)" fill="white" fill-opacity="0"/>
        </clipPath>
        <filter id="filter_3_200_dd" x="8.000000" y="30.000000" width="178.000000" height="237.000000" filterUnits="userSpaceOnUse" color-interpolation-filters="sRGB">
            <feFlood flood-opacity="0" result="BackgroundImageFix"/>
            <feBlend mode="normal" in="SourceGraphic" in2="BackgroundImageFix" result="shape"/>
            <feColorMatrix in="SourceAlpha" type="matrix" values="0 0 0 0 0 0 0 0 0 0 0 0 0 0 0 0 0 0 127 0" result="hardAlpha"/>
            <feOffset dx="0" dy="4"/>
            <feGaussianBlur stdDeviation="1.33333"/>
            <feComposite in2="hardAlpha" operator="arithmetic" k2="-1" k3="1"/>
            <feColorMatrix type="matrix" values="0 0 0 0 0 0 0 0 0 0 0 0 0 0 0 0 0 0 0.25 0"/>
            <feBlend mode="normal" in2="shape" result="effect_innerShadow_1"/>
        </filter>
        <filter id="filter_3_271_dd" x="37.738037" y="45.541016" width="116.723328" height="75.908691" filterUnits="userSpaceOnUse" color-interpolation-filters="sRGB">
            <feFlood flood-opacity="0" result="BackgroundImageFix"/>
            <feBlend mode="normal" in="SourceGraphic" in2="BackgroundImageFix" result="shape"/>
            <feColorMatrix in="SourceAlpha" type="matrix" values="0 0 0 0 0 0 0 0 0 0 0 0 0 0 0 0 0 0 127 0" result="hardAlpha"/>
            <feOffset dx="0" dy="4"/>
            <feGaussianBlur stdDeviation="1.33333"/>
            <feComposite in2="hardAlpha" operator="arithmetic" k2="-1" k3="1"/>
            <feColorMatrix type="matrix" values="0 0 0 0 0 0 0 0 0 0 0 0 0 0 0 0 0 0 0.25 0"/>
            <feBlend mode="normal" in2="shape" result="effect_innerShadow_1"/>
        </filter>
        <clipPath id="clip3_259">
            <rect id="Man9 1" rx="0.000000" width="165.000000" height="221.000000" transform="translate(14.500000 42.500000)" fill="white" fill-opacity="0"/>
        </clipPath>
        <clipPath id="clip3_201">
            <rect id="Man6 1" rx="0.000000" width="181.000000" height="242.000000" transform="translate(6.500000 28.500000)" fill="white" fill-opacity="0"/>
        </clipPath>
    </defs>
    <rect id="Rectangle 1" x="4.000000" rx="20.000000" width="198.000000" height="297.000000" fill="#985B26" fill-opacity="1.000000"/>
    <rect id="Rectangle 1" x="4.500000" y="0.500000" rx="20.000000" width="197.000000" height="296.000000" stroke="#000000" stroke-opacity="1.000000" stroke-width="1.000000"/>
    <g filter="url(#filter_3_191_dd)">
        <rect id="Rectangle 2" x="4.000000" y="8.000000" rx="20.000000" width="187.949234" height="289.000000" fill="#FFF0DB" fill-opacity="1.000000"/>
        <rect id="Rectangle 2" x="4.500000" y="8.500000" rx="20.000000" width="186.949234" height="288.000000" stroke="#000000" stroke-opacity="1.000000" stroke-width="1.000000"/>
    </g>
    <rect id="Man2 1" rx="0.000000" width="176.448654" height="235.598206" transform="translate(4.724915 22.200928)" fill="#FFFFFF" fill-opacity="0"/>
    <g clip-path="url(#clip3_192)">
        <g filter="url(#filter_3_193_dd)">
            <path id="path6021" d="M126.17 164.32C124.79 164.32 123.21 164.53 121.54 164.72C106.49 167.18 95.68 172.64 70.68 171.76C67.29 171.78 64.42 173.57 64.54 176.17C64.78 181.91 69 212.25 69.35 214.99C69.85 218.71 75.02 219.04 75.71 215.77C75.83 215.17 75.83 213.47 75.76 211.12C76.08 210.46 76.57 209.95 77.1 209.86L110.12 206.9C110.46 206.91 110.71 207.22 110.88 207.67C110.63 219.34 110.49 230.74 110.74 234.73C110.81 235.61 110.77 236.54 111.65 237.34C113.75 239.1 125.62 238.13 128.69 236.21C129.54 235.58 129.85 235.29 129.96 233.98C128.25 214.26 129.57 189.17 130.89 169.64C131.24 165.31 129.2 164.32 126.17 164.32ZM110.54 174.05C113.81 173.25 111.71 183.24 110.59 183.27L76.5 185.94C73.53 185.35 73.67 178.36 75.68 178.27C91.11 177.75 96.39 176.42 110.54 174.05ZM110.46 190.97C111.45 190.9 111.63 198.16 110.24 198.28L77.03 201.06C74.65 200.39 74.5 194.12 76.58 193.81L110.46 190.97Z" fill="#E9411B" fill-opacity="1.000000" fill-rule="evenodd"/>
            <path id="path6021" d="M110.88 207.67C110.63 219.34 110.49 230.74 110.74 234.73C110.81 235.61 110.77 236.54 111.65 237.34C113.75 239.1 125.62 238.13 128.69 236.21C129.54 235.58 129.85 235.29 129.96 233.98C128.25 214.26 129.57 189.17 130.89 169.64C131.24 165.31 129.2 164.32 126.17 164.32C124.79 164.32 123.21 164.53 121.54 164.72C117.15 165.43 113.11 166.41 108.98 167.41C98.97 169.83 88.38 172.39 70.68 171.76C67.29 171.78 64.42 173.57 64.54 176.17C64.78 181.91 69 212.25 69.35 214.99C69.85 218.71 75.02 219.04 75.71 215.77C75.83 215.17 75.83 213.47 75.76 211.12C76.08 210.46 76.57 209.95 77.1 209.86L110.12 206.9C110.46 206.91 110.71 207.22 110.88 207.67ZM70.66 172.76Q68.38 172.78 66.86 173.82Q65.86 174.5 65.62 175.4Q65.52 175.74 65.54 176.12Q65.74 180.88 69.89 211.52Q70.29 214.41 70.34 214.86Q70.47 215.85 71.04 216.39Q71.59 216.91 72.55 217.01Q73.58 217.1 74.14 216.64Q74.58 216.27 74.73 215.56Q74.88 214.85 74.76 211.16L74.76 210.91L74.86 210.69Q75.48 209.4 76.46 209.01Q76.68 208.92 76.92 208.87L76.97 208.87L110.08 205.9L110.13 205.9Q110.47 205.91 110.75 206.03Q111.43 206.33 111.82 207.31L111.89 207.5L111.88 207.7Q111.41 229.42 111.74 234.67Q111.74 234.76 111.76 234.96Q111.83 236.14 112.3 236.58Q113.56 237.6 119.73 237.15Q125.97 236.7 128.12 235.38Q128.56 235.05 128.77 234.62Q128.91 234.32 128.96 233.97Q127.04 211.82 129.89 169.57Q130.1 167.01 129.12 166.09Q128.3 165.32 126.17 165.32Q125.02 165.32 122.27 165.64Q121.89 165.68 121.68 165.71Q117.32 166.42 109.22 168.38Q88.49 173.39 70.66 172.76ZM110.59 183.27C111.71 183.24 113.81 173.25 110.54 174.05C96.39 176.42 91.11 177.75 75.68 178.27C73.67 178.36 73.53 185.35 76.5 185.94L110.59 183.27ZM110.65 184.27Q110.77 184.26 110.88 184.23Q112.63 183.82 113.21 178.45Q113.44 176.21 113.04 174.86Q112.66 173.58 111.84 173.17Q111.22 172.87 110.34 173.07Q108.05 173.45 104.13 174.13Q88.52 176.83 75.63 177.27Q74.98 177.3 74.51 177.6Q73.06 178.52 73.22 181.96Q73.37 185.24 75.01 186.39Q75.57 186.78 76.3 186.92L76.44 186.95L110.65 184.27ZM76.93 202.07L110.33 199.27L110.33 199.27Q110.57 199.25 110.78 199.16Q112.23 198.53 112.24 194.55Q112.25 193.01 112.02 191.87Q111.72 190.37 110.94 190.06Q110.69 189.95 110.38 189.97L76.46 192.82L76.43 192.82Q75.83 192.91 75.38 193.22Q74 194.2 74.13 197.34Q74.27 200.52 75.85 201.6Q76.26 201.88 76.76 202.02L76.93 202.07ZM110.46 190.97C111.45 190.9 111.63 198.16 110.24 198.28L77.03 201.06C74.65 200.39 74.5 194.12 76.58 193.81L110.46 190.97Z" fill="#603B1A" fill-opacity="1.000000" fill-rule="evenodd"/>
            <path id="path6023" d="M99.66 175.19L88.55 176.14L88.24 228.79C88.11 234.78 91.46 240.6 95.37 240.48L106.02 236.12L99.66 175.19Z" fill="#E9411B" fill-opacity="1.000000" fill-rule="evenodd"/>
            <path id="path6023" d="M99.66 175.19L88.55 176.14L88.24 228.79C88.11 234.78 91.46 240.6 95.37 240.48L106.02 236.12L99.66 175.19ZM98.76 176.27L89.54 177.06L89.24 228.79Q89.22 229.64 89.3 230.49Q89.41 231.71 89.72 232.91Q90.22 234.86 91.15 236.41Q92.06 237.93 93.18 238.73Q94.17 239.45 95.17 239.48L104.95 235.48L98.76 176.27Z" fill="#603B1A" fill-opacity="1.000000" fill-rule="evenodd"/>
            <path id="path6025" d="M63.76 238.48L64.25 243.13C95.69 253.75 88.38 238.16 120.4 234.34L120.03 231.48C95.56 229.75 82.74 239.13 63.76 238.48Z" fill="#E9411B" fill-opacity="1.000000" fill-rule="evenodd"/>
            <path id="path6025" d="M63.87 239.48L64.25 243.13C82.71 249.37 87.81 246.56 95.36 242.41C100.53 239.57 106.85 236.1 119.41 234.46C119.73 234.42 120.07 234.38 120.4 234.34L120.27 233.35L120.03 231.48C106.64 230.53 96.74 232.91 87.41 235.15C79.99 236.94 72.94 238.63 64.77 238.5C64.44 238.5 64.1 238.49 63.76 238.48L63.87 239.48ZM64.88 239.5L65.18 242.39Q71.41 244.46 76.01 245.25Q78.29 245.64 80.27 245.74Q82.13 245.83 83.8 245.67Q85.35 245.52 86.82 245.14Q88.15 244.79 89.53 244.23Q90.72 243.74 92.16 243Q93.04 242.55 94.88 241.54Q96.23 240.8 96.95 240.41Q98.16 239.77 99.21 239.25Q101.9 237.92 104.57 236.94Q107.82 235.74 111.43 234.88Q115.1 234.02 119.28 233.47L119.15 232.42Q114.85 232.16 110.64 232.34Q106.56 232.51 102.34 233.11Q98.83 233.61 94.77 234.48Q93.14 234.83 91.17 235.29Q89.98 235.56 87.64 236.13Q83.8 237.05 81.88 237.47Q78.69 238.18 76.08 238.61Q72.94 239.12 70.07 239.34Q67.45 239.54 64.88 239.5Z" fill="#603B1A" fill-opacity="1.000000" fill-rule="evenodd"/>
            <path id="path6027" d="M60.76 203.98C57.99 195.65 50.31 197.29 51.74 204.5C59.79 229.71 62.14 243.67 63.21 245.62C69.47 256.2 73.88 253.43 74.27 244.21C74.33 241.39 66.02 218.96 60.76 203.98Z" fill="#E9411B" fill-opacity="1.000000" fill-rule="evenodd"/>
            <path id="path6027" d="M60.76 203.98C57.99 195.65 50.31 197.29 51.74 204.5C59.79 229.71 62.14 243.67 63.21 245.62C69.47 256.2 73.88 253.43 74.27 244.21C74.32 242.02 69.32 228.03 64.63 214.87C63.27 211.07 61.94 207.34 60.76 203.98ZM64.08 245.13Q68.1 251.92 70.58 251.4Q70.63 251.39 70.68 251.37Q70.74 251.36 70.79 251.34Q73 250.59 73.27 244.16Q73.31 242.19 63.69 215.2Q61 207.67 59.82 204.31Q58.41 200.07 56.06 199.47Q55.46 199.32 54.8 199.41Q54.35 199.46 53.99 199.67Q53.41 199.99 53.03 200.68Q52.29 202.06 52.71 204.25Q57.86 220.39 62.32 238.64Q63.75 244.5 64.08 245.13Z" fill="#603B1A" fill-opacity="1.000000" fill-rule="evenodd"/>
            <path id="path6029" d="M36.03 220.82C31.18 220.06 31.62 226.09 34.11 227.37C68.78 242.73 105.86 222.22 137.23 224.06C138.42 224.28 140.31 224.97 142.03 225.92C147.57 228.85 144.2 237.25 141.47 238.97C128.99 244.68 131.9 239.02 117.9 245.5C116.58 246.34 113.12 247 111.83 246.48C106.65 244.75 102.38 241.77 98.99 239.13L92.51 242.4C96.51 247.39 102.42 249.76 107.31 251.9C111.22 253.77 115.49 253.56 118.34 253.65C132.88 253.85 146.49 248.25 153.34 247.41C155.34 247.1 157.67 243.62 158.58 242C164.2 232.79 161.88 231.23 157.95 221.58C155.72 217.96 149.27 216.93 145.88 216.47C110.7 214.98 65.77 227.39 36.03 220.82Z" fill="#E9411B" fill-opacity="1.000000" fill-rule="evenodd"/>
            <path id="path6029" d="M158.58 242C163.38 234.13 162.38 231.84 159.54 225.32C159.06 224.21 158.52 222.98 157.95 221.58C155.72 217.96 149.27 216.93 145.88 216.47C130.9 215.83 114.16 217.72 97.57 219.59C75.19 222.1 53.11 224.59 36.03 220.82C31.18 220.06 31.62 226.09 34.11 227.37C55.78 236.97 78.4 232.56 99.97 228.35C112.91 225.82 125.47 223.37 137.23 224.06C138.42 224.28 140.31 224.97 142.03 225.92C147.57 228.85 144.2 237.25 141.47 238.97C128.99 244.68 131.9 239.02 117.9 245.5C116.58 246.34 113.12 247 111.83 246.48C106.65 244.75 102.38 241.77 98.99 239.13L93.42 241.94L92.51 242.4C92.73 242.67 92.95 242.93 93.17 243.19C97.15 247.65 102.68 249.87 107.31 251.9C110.7 253.52 114.36 253.58 117.13 253.62C117.55 253.63 117.96 253.64 118.34 253.65C128.11 253.78 137.45 251.3 144.61 249.4C148.11 248.47 151.09 247.68 153.34 247.41C155.34 247.1 157.67 243.62 158.58 242ZM153.2 246.42Q155.13 246.1 157.71 241.51L157.72 241.5L157.73 241.48Q160.93 236.22 160.93 233.16Q160.92 230.99 158.62 225.72Q157.63 223.44 157.06 222.04Q154.93 218.72 145.79 217.47Q130.89 216.84 97.68 220.58Q75.34 223.09 64.86 223.56Q47.36 224.34 35.84 221.8Q34.6 221.61 33.96 222.12Q33.91 222.16 33.86 222.2Q33.41 222.63 33.31 223.44Q33.12 225.04 33.83 225.9Q34.11 226.24 34.54 226.47Q48.74 232.75 67.04 232.04Q78.02 231.61 99.78 227.37Q125.4 222.37 137.29 223.07L137.35 223.07L137.41 223.08Q139.69 223.49 142.52 225.05Q144.2 225.94 145.08 227.34Q146.48 229.56 145.84 233.08Q144.96 237.83 142.17 239.71Q142.09 239.76 142 239.81L141.95 239.85L141.89 239.88Q135.66 242.73 130.54 242.94Q125.38 243.15 118.38 246.38Q117.19 247.12 115.02 247.49Q112.69 247.89 111.48 247.41Q105.57 245.44 98.88 240.3L94.11 242.71Q97.92 246.72 106.79 250.59Q107.41 250.86 107.71 250.99L107.73 250.99L107.74 251Q110.93 252.52 117.14 252.62Q117.98 252.64 118.37 252.65Q127.98 252.78 144.36 248.44Q150.88 246.71 153.2 246.42Z" fill="#603B1A" fill-opacity="1.000000" fill-rule="evenodd"/>
            <path id="Flattened" d="M109.88 119.06C111.56 117.35 112.28 117.8 113.48 119.06L121.67 133.47C123.92 137.4 122.49 138.77 120.22 140.94C119.59 141.54 118.9 142.2 118.2 143C115.43 146.83 114.6 148.68 115.17 151.48C122.76 148.89 132.35 146.51 149.73 146.08C160.2 145.24 160.93 153.78 149.99 155.38C129.22 156.07 117.87 159.2 107.28 162.13C92.76 166.15 79.66 169.77 45.65 166.16C32.7 163.87 29.96 152.42 46.76 155.42C66.9 158.62 79.58 159.26 88.77 158.53C88.61 158.3 88.45 158.09 88.28 157.89C87.7 157.19 86.98 156.61 85.71 155.58C85.34 155.28 84.92 154.95 84.45 154.56C83.28 153.67 83.44 150.57 84.58 149.18C86.19 147.34 87.13 145.62 88.23 143.59C88.96 142.26 89.76 140.79 90.87 139.07C93.9 135.18 99.29 138.81 98.53 141.09L98.44 141.36C96.67 146.67 96.48 147.24 97.14 152.56C97.79 154.77 98.28 155.92 98.95 156.94C100.91 156.46 102.73 155.92 104.49 155.33C104.97 152.12 106.23 147.66 107.8 143.24C109.29 140.33 108.64 138.55 106.12 136.09L100.81 130.96C100.16 130.22 100.18 128.95 100.96 128.07L109.88 119.06Z" fill="#E9411B" fill-opacity="1.000000" fill-rule="nonzero"/>
            <path id="Flattened" d="M118.2 143C118.9 142.2 119.59 141.54 120.22 140.94C122.49 138.77 123.92 137.4 121.67 133.47L113.48 119.06C112.28 117.8 111.56 117.35 109.88 119.06L100.96 128.07C100.18 128.95 100.16 130.22 100.81 130.96L106.12 136.09C108.64 138.55 109.29 140.33 107.8 143.24C106.23 147.66 104.97 152.12 104.49 155.33C102.73 155.92 100.91 156.46 98.95 156.94C98.28 155.92 97.79 154.77 97.14 152.56C96.48 147.24 96.67 146.67 98.44 141.36L98.53 141.09C99.29 138.81 93.9 135.18 90.87 139.07C89.76 140.79 88.96 142.26 88.23 143.59C87.13 145.62 86.19 147.34 84.58 149.18C83.44 150.57 83.28 153.67 84.45 154.56C84.92 154.95 85.34 155.28 85.71 155.58C86.79 156.46 87.47 157.01 88.02 157.59C88.11 157.69 88.2 157.78 88.28 157.89C88.45 158.09 88.61 158.3 88.77 158.53C88.38 158.56 87.99 158.59 87.59 158.62C78.5 159.2 66.05 158.48 46.76 155.42C29.96 152.42 32.7 163.87 45.65 166.16C79.66 169.77 92.76 166.15 107.28 162.13C117.87 159.2 129.22 156.07 149.99 155.38C160.93 153.78 160.2 145.24 149.73 146.08C133.07 146.5 123.57 148.7 116.13 151.15C115.81 151.26 115.49 151.37 115.17 151.48C115.1 151.13 115.05 150.79 115.03 150.47C114.84 148.19 115.77 146.35 118.2 143ZM149.89 154.38Q155.93 153.49 156.76 150.92Q156.92 150.42 156.89 149.87Q156.88 149.66 156.82 149.46Q156.55 148.51 155.27 147.84Q153.25 146.8 149.8 147.08L149.78 147.08L149.75 147.08Q129.7 147.58 115.5 152.42L114.42 152.79L114.19 151.68Q113.42 147.9 117.39 142.41L117.42 142.37L117.45 142.34Q118.17 141.51 119.52 140.22Q121.41 138.42 121.69 137.55Q122.11 136.25 120.81 133.97L112.67 119.66Q112 118.97 111.76 118.94Q111.43 118.91 110.59 119.76L101.69 128.76Q101.24 129.27 101.29 129.73Q101.32 130.01 101.53 130.27L106.81 135.37Q109.32 137.82 109.46 140.4Q109.54 141.99 108.72 143.64Q106.19 150.77 105.47 155.48L105.38 156.08L104.8 156.28Q101.86 157.26 99.19 157.91L98.5 158.08L98.11 157.49Q97.09 155.93 96.18 152.84L96.16 152.76L96.15 152.68Q95.65 148.68 95.89 146.83Q96.08 145.26 97.49 141.05L97.49 141.05L97.58 140.77Q97.65 140.58 97.63 140.4Q97.58 139.49 95.72 138.68Q94.46 138.14 93.42 138.42Q92.46 138.68 91.69 139.65Q90.61 141.33 89.11 144.07Q87.02 147.9 85.34 149.83Q84.7 150.62 84.65 152.09Q84.6 153.42 85.06 153.77L85.07 153.77L86.34 154.8Q88.4 156.47 89.05 157.25Q89.34 157.59 89.6 157.98L90.55 159.4L88.84 159.53Q73.77 160.72 46.6 156.41Q40.94 155.39 38.02 156.45Q36.48 157 36.14 157.98Q36.02 158.33 36.05 158.73Q36.17 160.5 38.59 162.29Q41.42 164.39 45.79 165.17Q68.43 167.57 83.67 166.01Q92.93 165.07 107.01 161.17Q129.03 155.08 149.89 154.38Z" fill="#603B1A" fill-opacity="1.000000" fill-rule="evenodd"/>
        </g>
    </g>
    <g filter="url(#filter_3_200_dd)">
        <rect id="Man3 1" rx="0.000000" width="177.000000" height="236.000000" transform="translate(8.500000 30.500000)" fill="#FFFFFF" fill-opacity="0"/>
    </g>
    <rect id="Man6 1" rx="0.000000" width="181.000000" height="242.000000" transform="translate(6.500000 28.500000)" fill="#FFFFFF" fill-opacity="0"/>
    <g clip-path="url(#clip3_201)">
        <rect id="Man9 1" rx="0.000000" width="165.000000" height="221.000000" transform="translate(14.500000 42.500000)" fill="#FFFFFF" fill-opacity="0"/>
        <g clip-path="url(#clip3_259)">
            <g filter="url(#filter_3_271_dd)">
                <path id="path5484" d="M94.91 55.91C95.21 50.77 74.54 45.94 76.51 53.54C86.44 87.96 73.44 97.6 39.57 109.51C37.26 110.14 36.65 114.68 40.59 113.46C76.3 102.36 98.05 99.8 94.91 55.91Z" fill="#603B1A" fill-opacity="1.000000" fill-rule="evenodd"/>
                <path id="path5484" d="" fill="#603B1A" fill-opacity="1.000000" fill-rule="evenodd"/>
                <path id="path5486" d="M81.09 78.79C77.86 77.56 75.01 75.76 73.14 72.92C72.81 72.42 71.91 68.1 74.23 67.84C83.18 66.85 78.21 64.18 80.14 63.77C92.11 61.28 109.09 53.99 119.78 51.16C125.76 49.59 129.68 45.02 131.55 45.58C138.34 45.09 139.17 59.83 134.8 60.92C117.59 63.45 107.82 62.38 90.61 67.27L81.09 78.79Z" fill="#603B1A" fill-opacity="1.000000" fill-rule="evenodd"/>
                <path id="path5486" d="" fill="#603B1A" fill-opacity="1.000000" fill-rule="evenodd"/>
                <path id="path5488" d="M105.36 57.18C105.67 51.51 100.72 53.34 99.26 58.95C101.01 74.93 88.96 99.81 102.52 115.57C108.77 122.82 142.65 122.95 149.22 118.19C158.64 110.1 153.57 102.48 147.91 102.71C137.19 103.52 137.17 74.92 132.65 75.57C127.84 76.48 133 102.68 129.12 105.62C122.88 110.26 112.07 103.54 109.1 99.45C100.92 88.21 107.2 68.23 105.36 57.18Z" fill="#603B1A" fill-opacity="1.000000" fill-rule="evenodd"/>
                <path id="path5488" d="" fill="#603B1A" fill-opacity="1.000000" fill-rule="evenodd"/>
            </g>
        </g>
    </g>
</svg>
