<svg width="1517.000000" height="206.000000" viewBox="0 0 1517 206" fill="none" xmlns="http://www.w3.org/2000/svg" xmlns:xlink="http://www.w3.org/1999/xlink">
    <desc>
        Created with Pixso.
    </desc>
    <defs>
        <filter id="filter_6_199_dd" x="370.051270" y="33.346802" width="782.187012" height="144.926636" filterUnits="userSpaceOnUse" color-interpolation-filters="sRGB">
            <feFlood flood-opacity="0" result="BackgroundImageFix"/>
            <feColorMatrix in="SourceAlpha" type="matrix" values="0 0 0 0 0 0 0 0 0 0 0 0 0 0 0 0 0 0 127 0" result="hardAlpha"/>
            <feOffset dx="0" dy="4"/>
            <feGaussianBlur stdDeviation="1.33333"/>
            <feComposite in2="hardAlpha" operator="out" k2="-1" k3="1"/>
            <feColorMatrix type="matrix" values="0 0 0 0 0 0 0 0 0 0 0 0 0 0 0 0 0 0 0.25 0"/>
            <feBlend mode="normal" in2="BackgroundImageFix" result="effect_dropShadow_1"/>
            <feBlend mode="normal" in="SourceGraphic" in2="effect_dropShadow_1" result="shape"/>
        </filter>
    </defs>
    <rect id="Rectangle 5" y="15.000000" rx="84.500000" width="1517.000000" height="169.000000" fill="#FFDAA7" fill-opacity="1.000000"/>
    <g filter="url(#filter_6_199_dd)">
        <path id="Mahjong Helper" d="M544.44 84.53Q539.47 87.79 535.84 93.1Q535.06 88.33 534.24 82.9Q533.46 77.43 533.22 71.03Q532.99 64.62 533.46 57.12Q533.92 49.58 535.37 40.79Q535.46 40.34 535.28 40.15Q535.14 40.01 534.86 40.01Q534.66 40.01 534.5 39.92Q534.19 39.74 534.08 39.19Q533.92 38.25 533.46 37.71Q532.99 37.12 532.32 36.3Q531.54 35.52 531.03 35.05Q530.97 34.98 530.89 34.91Q530.45 34.52 529.78 34.39Q529.14 34.26 528.68 34.49Q527.99 34.84 527.71 35.99Q524.98 42.55 523.69 52.39Q522.4 62.24 522.95 74.07Q523.53 85.91 526 99.19Q528.5 112.47 533.14 125.75Q534.43 124.78 536.11 124Q537.79 123.21 539.04 121.26Q539.86 119.66 540.33 118.72Q540.8 117.75 540.88 116.96Q540.96 116.14 540.8 115.28Q540.64 114.39 540.17 112.94Q538.42 107.98 539.35 103.68Q540.33 99.35 542.56 96.07Q544.82 92.78 547.83 90.56Q550.88 88.33 553.61 87.51Q554.75 87.2 556.35 87.43Q557.95 87.67 558.73 88.33Q559.55 88.8 560.1 89.19Q560.64 89.58 561.46 90.4Q563.53 92.63 564.98 95.6Q566.42 98.57 567.36 101.61Q568.34 104.62 568.73 107.28Q569.12 109.93 569.47 111.53Q569.51 111.7 569.59 111.85Q569.79 112.26 570.25 112.55Q570.88 112.94 571.23 113.29Q571.36 113.47 571.5 113.64Q572.22 114.5 573.3 115.05Q573.53 115.17 573.59 115.11Q573.61 115.09 573.61 115.05Q573.61 115.02 573.62 114.99Q573.67 114.89 573.92 114.89Q573.92 112.63 573.77 109.93Q573.61 107.2 573.3 105.44Q572.83 102.55 571.7 99.19Q571.16 97.6 570.5 96.06Q569.77 94.35 568.89 92.71Q567.21 89.58 565.14 87.12Q563.07 84.62 560.64 83.37Q559.71 82.86 558.57 82.32Q557.44 81.77 556.5 81.61Q551.47 81.23 547.33 82.98Q545.95 83.56 544.67 84.39Q544.55 84.46 544.44 84.53ZM968 65.13Q966.9 56.46 964.99 47.82Q964.17 47.04 963.5 46.96Q962.88 46.89 961.79 46.38Q960.97 46.07 959.91 45.28Q958.97 44.53 958.37 44.74Q958.32 44.75 958.27 44.78Q958 44.9 957.78 45.09Q956.82 45.89 956.82 47.82Q955.85 58.06 956.24 67.75Q956.67 77.43 958.15 86.89Q959.68 96.3 962.14 105.6Q964.64 114.89 967.68 124Q968.19 124.78 968.5 124.93Q968.61 125 968.72 125.02Q968.94 125.06 969.21 124.93Q969.6 124.78 969.91 124.39Q970.26 124 970.57 123.84Q971.36 123.53 972.06 122.98Q972.46 122.66 972.88 122.38Q973.24 122.14 973.62 121.93Q974.25 121.61 974.4 120.32Q974.56 119.03 974.91 116.96Q973.15 108.33 972.1 99.7Q971.04 91.03 970.07 82.39Q969.13 73.76 968 65.13ZM878.3 56.01Q878.29 56.08 878.27 56.14Q877.77 60.48 877.45 65.13Q877.14 69.74 876.99 74.39Q876.85 74.4 876.71 74.41Q872.2 74.74 867.77 76.07Q863.2 77.43 858.63 79.19Q854.1 80.95 849.45 82.71Q844.8 84.46 840.19 85.6Q839.84 78.41 839.6 72.16Q839.37 65.91 838.59 60.95Q839.68 58.72 839.29 57.12Q838.9 55.52 838.08 53.76Q837.3 52.32 836.56 50.79Q835.85 49.27 835.07 47.82Q834.56 47.04 833.94 46.73Q833.86 46.68 833.77 46.67Q833.19 46.54 832.34 47.67Q832.02 47.98 832.02 48.17Q832.02 48.33 831.71 48.64Q831.36 48.96 830.89 49.19Q830.75 49.26 830.66 49.37Q830.42 49.62 830.42 50.09Q829.45 59.19 829.13 68.8Q828.88 76.55 829.65 84.21Q829.83 86.04 830.07 87.86Q830.31 89.57 830.6 91.26Q831.96 98.92 834.64 106.34Q837.92 115.36 844.02 123.53Q844.02 122.55 843.51 120.56Q843.04 118.57 842.73 116.81Q842.42 114.54 842.49 112.94Q842.51 112.62 842.51 112.3Q842.51 111.02 842.26 109.74Q841.63 106.38 841.36 103.02Q841.13 99.66 840.81 96.46Q850.11 94.23 859.76 90.71Q869.45 87.2 877.14 84.97Q877.45 94.07 878.74 102.16Q880.03 110.25 882.73 115.68Q883.7 117.12 884.88 117.94Q886.09 118.72 887.69 120.01Q888.51 120.95 889.21 121.38Q889.95 121.77 890.11 122.24Q890.17 122.35 890.22 122.35Q890.32 122.35 890.42 122Q890.46 121.87 890.47 121.73Q890.51 121.28 890.27 120.79Q888.16 113.6 887.34 105.68Q886.56 97.75 886.24 89.58Q885.93 81.42 885.7 73.45Q885.46 65.44 884.8 58.25L884.33 53.45Q884.02 52.16 883.59 51.38Q883.39 50.97 883.1 50.88Q882.81 50.79 882.42 51.03Q881.95 51.34 881.67 51.61L880.5 52.78Q880.19 53.6 879.29 54.42Q878.49 55.15 878.3 56.01ZM449.11 127.43Q449.46 128.49 450.4 129.42Q451.06 125.44 451.37 121.3Q451.69 117.12 452 112.78Q452.51 103.37 452.23 93.45Q452 83.53 451.37 73.1Q450.59 68.64 449.15 64.42Q447.7 60.17 444.97 55.99Q444.89 55.86 444.78 55.77Q444.48 55.5 443.99 55.44Q443.78 55.41 443.58 55.41Q443.16 55.41 442.74 55.52Q442.66 55.56 442.64 55.62Q442.57 55.8 442.98 56.18Q443.37 56.52 443.32 56.77Q443.3 56.87 443.21 56.96Q441.61 58.06 441.61 58.72L439.54 60.01Q436.65 62.71 433.05 66.14Q429.46 69.58 425.75 73.68Q422.08 77.75 418.64 82.24Q415.2 86.73 412.35 91.34Q410.4 88.49 407.43 84.5Q404.5 80.48 400.91 76.81Q397.31 73.1 393.05 70.56Q388.93 68.06 384.62 67.69Q384.48 67.68 384.34 67.67Q384.03 66.22 383.84 65.75Q383.68 65.28 382.9 63.53Q381.61 61.26 381.22 60.01Q380.98 59.21 380.45 58.91Q380.13 58.72 379.7 58.72Q379.07 58.88 378.72 59.19Q378.41 59.5 377.78 59.5Q377.23 59.5 376.88 59.76Q376.7 59.89 376.57 60.09Q376.18 60.64 376.02 61.42Q375.71 65.6 375.36 71.85Q375.05 78.06 375.05 85.05Q375.05 92 375.67 99.11Q376.34 106.22 377.94 112.16Q378.25 113.6 379.34 115.44Q380.48 117.28 381.14 118.57Q382.08 120.95 382.7 122.78Q383.37 124.62 385.12 126.73L385.12 118.88Q384.81 113.92 384.66 108.1Q384.5 102.24 384.34 96.34Q384.19 90.4 384.11 84.82Q384.03 79.19 384.19 74.54Q385.21 74.62 386.19 74.86Q389.64 75.69 392.62 78.49Q396.49 82.08 400.16 86.57Q403.87 91.03 407.86 95.36Q411.15 98.92 415.22 100.63Q416.07 100.98 416.96 101.26Q417.46 101.48 417.8 101.33Q418.02 101.23 418.17 100.99Q418.56 100.32 419.38 99.66Q420.67 98.72 422 97.51Q423.37 96.3 424.34 94.39Q425.79 91.53 427.86 88.25Q429.93 84.97 432.31 81.61Q434.73 78.25 437.35 75.13Q440.01 72 442.43 69.58Q443.21 81.1 443.52 90.64Q443.87 100.17 444.19 110.4Q444.19 111.69 445.12 113.29Q446.1 114.89 446.41 116.3Q447.04 118.88 446.88 120.87Q446.82 121.65 446.96 122.39Q447.17 123.55 447.86 124.62Q448.8 126.38 449.11 127.43ZM595.67 73.29L601.77 71.34Q601.61 70.99 601.42 70.66Q600.49 69.02 598.8 67.82Q596.81 66.38 594.23 65.6Q591.69 64.78 588.72 64.89Q585.79 64.97 582.74 65.91Q581.47 65.91 580.84 66.55Q580.46 66.94 580.32 67.59Q580.01 69.27 580.01 71.34Q582.05 73.42 584.47 74.06Q584.51 74.06 584.54 74.07Q587.04 74.7 589.85 74.46Q592.67 74.23 595.67 73.29ZM508.59 87.86Q506.75 81.92 504.65 76.81Q504.02 75.67 503.2 74.39Q502.42 73.1 501.29 71.85Q500.29 70.73 499.11 69.87Q498.76 69.62 498.4 69.39Q496.83 68.33 495.23 67.51Q493.94 66.73 492.97 66.1Q492.46 65.75 491.9 65.58Q491.42 65.44 490.9 65.44Q490.11 65.44 489.53 65.52Q488.98 65.6 488.32 65.91Q484.18 66.89 479.84 68.96Q475.54 71.03 471.68 74.07Q470.95 74.65 470.27 75.26Q467.3 77.89 464.96 81.22Q464.3 82.15 463.75 83.14Q461.88 86.46 461.13 90.4Q460.9 90.97 461.09 91.21Q461.16 91.3 461.29 91.34Q461.75 91.48 462.12 91.34Q462.28 91.29 462.42 91.18Q462.73 91.03 463.12 90.87Q463.41 90.76 463.65 90.59Q463.76 90.5 463.86 90.4Q469.92 84.31 476.4 80.56Q477.62 79.85 478.9 79.28Q484.42 76.81 491.05 76.81Q493.12 77.59 495.35 79.85Q497.61 82.08 499.37 84.89Q500.51 86.69 501.28 88.64Q501.69 89.7 501.99 90.79Q502.81 93.66 502.22 96.2Q502.17 96.43 502.11 96.65L499.53 94.54Q498.43 93.6 497.07 92.67Q495.7 91.69 494.25 91.07Q492.95 90.47 491.58 90.22Q491.43 90.19 491.29 90.17Q490.42 90.03 489.58 90.13Q488.94 90.2 488.32 90.4Q481.97 92.54 477.84 96.81Q473.96 100.82 472.03 106.73Q470.58 110.87 470.15 114.97Q469.76 119.03 470.27 122.55Q470.58 124.31 470.9 124.54Q471.21 124.78 472.34 125.75Q473.94 127.04 475.27 128.06Q476.64 129.11 479.53 128.33Q482.26 127.67 484.8 126.14Q487.38 124.62 489.76 123.02Q492.18 121.42 494.49 119.93Q496.83 118.41 499.22 117.59Q499.84 118.57 500.54 118.88Q500.77 118.97 500.98 119.08Q501.49 119.33 501.95 119.66Q502.73 120.17 503.2 120.79Q503.71 121.42 504.33 121.61Q504.98 121.73 505.56 121.58Q506.56 121.34 507.38 120.32Q507.98 119.52 508.5 118.67Q510.57 115.22 511.13 110.87Q511.87 105.44 511.13 99.62Q510.43 93.76 508.59 87.86ZM763.52 82.75Q761.45 75.21 760.01 71.34Q758.56 68.49 756.34 67.43Q754.11 66.38 751.38 66.07Q750.91 66.01 750.48 66.1Q749.71 66.26 749.03 66.89Q748.39 67.48 747.64 67.7Q747.2 67.82 746.73 67.82Q745.5 67.82 744.52 68.33Q743.98 68.6 743.52 69.03Q742.27 70.25 741.14 71.53Q738.41 75.36 736.65 80.56Q734.89 85.75 733.99 91.46Q733.13 97.12 732.98 102.75Q732.82 108.33 733.13 112.94Q733.21 113.59 733.37 114.21Q733.52 114.84 733.76 115.44Q734.27 116.65 734.42 117.75Q734.48 118.12 734.59 118.48Q735.09 120.14 736.73 121.46Q738.72 123.02 740.83 123.21Q741.77 123.21 743.06 122.67Q744.35 122.08 745.63 121.77Q746.88 121.42 748.17 121.18Q749.46 120.95 750.75 120.32Q751.7 119.87 752.59 119.31Q754.21 118.28 755.6 116.89Q757.78 114.7 759.7 111.18L760.01 112.16Q760.99 115.21 761.61 118.8Q762.27 122.39 762.67 125.99Q763.06 129.58 763.06 133.02Q763.06 136.46 762.74 139.35Q762.43 141.26 760.48 143.64Q758.56 146.07 755.99 148.53Q753.45 151.03 750.71 153.25Q748.02 155.52 746.42 156.96Q745.13 158.06 744.89 160.64Q744.66 163.21 744.19 164.62Q743.68 166.22 743.29 166.77Q742.9 167.35 743.68 169.27Q745.63 168.64 747.63 167.51Q749.62 166.38 751.53 165.13Q755.71 162.24 759.31 158.8Q762.9 155.36 765.44 152.94Q770.24 148.14 771.3 142.94Q771.96 139.66 772.21 136.35Q772.35 134.41 772.35 132.47Q772.35 125.75 770.91 116.81Q769.46 107.82 767.55 99.03Q765.63 90.25 763.52 82.75ZM1147.04 75.91Q1146.57 73.76 1146.57 72.32Q1146.69 71.31 1146.27 70.66Q1146.15 70.48 1145.99 70.32Q1145.57 69.89 1145.09 69.76Q1144.74 69.67 1144.35 69.74Q1139.54 70.25 1134.43 72.32Q1129.31 74.39 1124.51 77.67Q1120.17 80.63 1116.41 84.19Q1116 84.58 1115.6 84.97Q1111.54 88.96 1109 93.29Q1107.04 87.35 1105.76 83.06Q1104.51 78.72 1102.28 76.14Q1101.15 74.89 1100.64 74.11Q1100.17 73.29 1098.1 73.29Q1097.63 73.29 1096.89 72.98Q1096.55 72.81 1096.27 72.88Q1095.96 72.95 1095.72 73.29Q1095.05 74.07 1094.74 75.28Q1094.68 75.48 1094.66 75.69Q1094.51 76.68 1094.9 77.75Q1095.87 82.39 1097.55 89.19Q1099.23 95.99 1101.38 103.37Q1103.53 110.71 1105.99 117.67Q1108.49 124.62 1111.22 129.42Q1112.17 131.72 1113.21 131.76Q1113.41 131.77 1113.61 131.69Q1114.06 131.49 1114.34 131.15Q1114.56 130.88 1114.66 130.52Q1114.9 129.74 1116.18 128.64Q1116.5 128.33 1116.97 127.67Q1117.47 127.04 1117.79 126.73Q1119.39 125.13 1119.39 124Q1114.74 113.6 1114.66 107.04Q1114.57 100.48 1117.12 95.83Q1118.26 93.76 1119.86 91.53Q1121.46 89.27 1123.37 87.2Q1125.29 85.13 1127.43 83.45Q1129.62 81.77 1131.85 80.79Q1135.05 79.5 1138.18 79.35Q1140.81 79.21 1143.04 80.12Q1143.44 80.28 1143.84 80.48L1145.94 81.77Q1145.99 81.74 1146.03 81.7Q1146.42 81.34 1146.42 80.56Q1146.42 79.66 1146.73 79.35Q1147.55 78.06 1147.04 75.91ZM938.09 77.2Q937.15 75.83 936.02 74.7Q935.2 74.07 933.99 73.53Q932.81 72.94 932.03 72.63Q930.74 72 929.69 71.46Q928.67 70.87 927.38 70.71Q926.32 70.66 925.27 70.73Q923.15 70.88 921.06 71.53Q919.7 71.94 918.41 72.48Q916.71 73.2 915.12 74.15Q913 75.44 911.12 77.02Q910.55 77.51 910 78.02Q907.7 80.17 906.1 82.24Q905.23 83.34 904.47 84.5Q902.68 87.23 901.45 90.32Q899.95 94.06 899.3 97.94Q899.19 98.6 899.1 99.27Q898.91 100.91 898.91 102.55Q898.91 105.48 899.53 108.41Q899.72 109.29 899.98 110.15Q901.03 113.72 903.2 116.96Q903.87 117.75 905.12 118.57Q906.41 119.35 907.38 120.17Q909.3 121.77 910.67 122.59Q912.03 123.37 914.1 123.68Q914.69 123.74 915.27 123.77Q917.74 123.86 920.24 123.29Q923.36 122.55 926.41 121.22Q929.45 119.85 932.58 118.18Q935.7 116.46 938.75 114.89Q940.98 113.6 941.76 112.08Q941.93 111.76 942.14 111.46Q942.92 110.35 944.18 109.58Q945.4 108.84 946.3 107.83Q946.36 107.77 946.41 107.71Q947.38 106.57 948.17 105.75Q948.83 104.97 949.22 104.66Q949.61 104.31 949.61 103.37Q945.78 105.13 940.39 107.63Q935.04 110.09 929.53 112.08Q924.02 114.07 919.14 115.05Q914.26 115.99 911.52 114.89Q909.92 113.92 908.56 111.3Q907.23 108.64 906.88 106.38Q906.72 105.13 907.27 103.6Q907.85 102.08 908.83 101.26Q912.03 103.68 915.55 104.43Q917.36 104.79 919.16 104.79Q920.87 104.79 922.58 104.46Q924.25 104.2 925.83 103.68Q928.96 102.66 931.76 100.64Q933.77 99.2 935.44 97.44Q937.31 95.47 938.75 93.1Q941.13 88.96 941.06 85.99Q940.98 83.02 939.69 80.01Q939.06 78.57 938.09 77.2ZM1082.25 77.2Q1081.31 75.83 1080.18 74.7Q1079.36 74.07 1078.15 73.53Q1076.98 72.94 1076.19 72.63Q1074.91 72 1073.85 71.46Q1072.84 70.87 1071.55 70.71Q1070.49 70.66 1069.43 70.73Q1067.31 70.88 1065.22 71.53Q1063.87 71.94 1062.56 72.48Q1060.88 73.2 1059.28 74.15Q1057.16 75.44 1055.29 77.02Q1054.72 77.51 1054.17 78.02Q1051.86 80.17 1050.26 82.24Q1049.39 83.34 1048.63 84.5Q1046.84 87.23 1045.61 90.32Q1044.11 94.06 1043.46 97.94Q1043.35 98.6 1043.27 99.27Q1043.06 100.91 1043.06 102.55Q1043.06 105.48 1043.69 108.41Q1043.89 109.29 1044.14 110.15Q1045.19 113.72 1047.37 116.96Q1048.03 117.75 1049.28 118.57Q1050.56 119.35 1051.55 120.17Q1053.46 121.77 1054.82 122.59Q1056.19 123.37 1058.27 123.68Q1058.85 123.74 1059.43 123.77Q1061.91 123.86 1064.4 123.29Q1067.53 122.55 1070.56 121.22Q1073.62 119.85 1076.74 118.18Q1079.87 116.46 1082.92 114.89Q1085.14 113.6 1085.92 112.08Q1086.1 111.76 1086.31 111.46Q1087.07 110.35 1088.35 109.58Q1089.56 108.84 1090.47 107.83Q1090.52 107.77 1090.56 107.71Q1091.55 106.57 1092.32 105.75Q1092.99 104.97 1093.38 104.66Q1093.78 104.31 1093.78 103.37Q1089.94 105.13 1084.56 107.63Q1079.19 110.09 1073.69 112.08Q1068.18 114.07 1063.31 115.05Q1058.42 115.99 1055.68 114.89Q1054.09 113.92 1052.72 111.3Q1051.39 108.64 1051.04 106.38Q1050.88 105.13 1051.43 103.6Q1052.02 102.08 1052.99 101.26Q1056.19 103.68 1059.71 104.43Q1061.52 104.79 1063.32 104.79Q1065.04 104.79 1066.74 104.46Q1068.41 104.2 1070 103.68Q1073.12 102.66 1075.92 100.64Q1077.93 99.2 1079.61 97.44Q1081.47 95.47 1082.92 93.1Q1085.3 88.96 1085.22 85.99Q1085.14 83.02 1083.85 80.01Q1083.23 78.57 1082.25 77.2ZM1034.34 88.49Q1034.26 84.62 1032.5 80.48Q1032.31 79.97 1032.05 79.5Q1030.38 76.41 1025.93 74.82Q1020.82 72.94 1014.81 72.39Q1008.83 71.85 1003.2 72.24Q997.61 72.63 994.88 73.29Q993.45 73.68 992.09 74.24Q989.07 75.49 986.4 77.59Q985.93 77.97 985.49 78.38Q982.36 81.29 980.82 85.91Q981.79 86.89 982.73 87.35Q983 87.53 983.27 87.53Q983.47 87.53 983.67 87.43Q983.77 87.39 983.87 87.34Q984.27 87.14 984.65 86.89Q984.85 86.68 985.06 86.68Q985.17 86.68 985.27 86.73Q985.41 86.79 985.54 86.78Q985.75 86.76 985.93 86.57Q987.69 85.6 989.92 84.58Q992.18 83.53 994.41 83.21Q994.72 92.32 995.51 102.82Q996.33 113.29 997.69 123.76Q999.06 134.23 1000.98 144.07Q1002.89 153.92 1005.31 162.08Q1005.78 162.08 1006.25 161.73Q1006.72 161.42 1007.23 161.1Q1007.85 160.79 1008.24 159.97Q1008.67 159.19 1009.14 158.72Q1009.77 157.9 1010.24 157.75Q1010.32 157.72 1010.38 157.68Q1010.74 157.44 1010.74 156.65Q1010.59 151.85 1010.24 146.14Q1009.92 140.48 1009.53 134.62Q1009.14 128.8 1008.48 123.14Q1007.85 117.43 1007.23 112.63Q1009.3 111.85 1012.81 110.56Q1016.33 109.27 1020.08 107.35Q1021.66 106.56 1023.16 105.64Q1025.27 104.35 1027.23 102.82Q1030.59 100.17 1032.5 96.81Q1034.42 92.32 1034.34 88.49ZM753.76 79.39Q754.27 81.77 754.58 84Q755.2 87.67 755.75 91.85Q756.34 95.99 756.73 99.5Q757.12 103.02 757.2 105.52Q757.31 107.98 756.81 108.49Q755.87 109.43 754.27 110.64Q752.67 111.85 751.06 112.9Q749.46 113.92 748.02 114.5Q746.57 115.05 745.95 114.89Q745.12 114.7 744.47 114.24Q743.46 113.54 742.86 112.24Q741.92 110.09 741.61 107.67Q741.3 105.75 741.92 101.03Q742.59 96.3 743.76 91.26Q744.97 86.22 746.65 82.16Q748.33 78.06 750.4 77.28Q750.75 77.12 751.3 76.89Q751.39 76.85 751.48 76.82Q751.95 76.68 752.51 76.81Q753.29 76.96 753.76 79.39ZM639.53 80.48L642.26 77.75Q641.6 77.12 641.13 77.12L640.35 77.12Q639.21 76.93 638.18 77.19Q637.48 77.37 636.83 77.75Q632.18 81.42 629.21 86.14Q628.83 86.76 628.46 87.38Q626.01 91.57 624.41 96.26Q624.32 96.53 624.23 96.8Q622.53 101.9 621.68 107.28Q620.82 112.94 620.66 118.57L620.66 119.19Q620.66 120.01 620.82 120.48Q620.91 120.67 621.03 120.69Q621.11 120.7 621.21 120.64Q621.25 120.61 621.3 120.59Q621.51 120.54 621.79 120.79Q622.11 121.1 622.42 121.38Q622.49 121.43 622.58 121.46Q622.84 121.53 623.2 121.26Q623.85 122.5 624.78 123.47Q626.37 125.13 628.78 125.99Q632.65 127.35 635.86 126.89L635.87 126.88Q640.67 126.22 645.03 122.47Q649.45 118.72 653.12 113.1Q656.46 110.54 657.33 107.32Q657.38 107.14 657.42 106.96Q658.24 103.53 657.54 99.7Q656.83 95.83 655.46 91.92Q654.1 87.98 653.47 84.15Q653.12 81.42 651.83 80.48Q650.58 79.5 648.67 79.19Q646.09 79.19 643.43 79.78Q640.82 80.32 639.53 80.48ZM684.72 96.42Q681.94 99.5 679.21 102.24Q679.05 98.57 678.47 94.5Q677.92 90.4 676.94 86.96Q676.01 83.53 674.64 81.3Q673.5 79.36 672.04 79.08Q671.8 79.03 671.55 79.03Q670.89 79.03 669.76 78.57Q668.93 78.18 668.18 78.29Q667.93 78.32 667.69 78.41Q666.75 78.72 665.85 79.19Q664.99 79.66 664.64 80.32L665.61 83.21Q666.9 87.51 668.15 92.39Q669.44 97.28 670.65 102.08Q671.86 106.89 672.88 111.22Q673.94 115.52 674.91 118.88Q675.38 120.48 675.46 120.79Q675.54 121.1 676.51 121.42Q677.76 121.93 678.08 122.59Q678.19 122.8 678.36 122.84Q678.69 122.94 679.21 122.39Q680.7 121.02 681.94 119.44Q682.85 118.29 683.62 117.04Q685.46 114.07 686.83 110.95Q688.19 107.82 689.29 104.74Q690.42 101.61 691.71 98.72Q693.62 94.7 696.01 92.16Q698.43 89.58 700.58 88.41Q702.72 87.2 704.4 87.35Q705.68 87.47 706.17 88.16Q706.32 88.37 706.4 88.64Q707.37 92.78 708 96.81Q708.66 100.79 709.44 104.66Q710.26 108.49 711.36 112Q711.96 113.88 712.83 115.62Q713.59 117.14 714.56 118.57Q715.85 118.06 716.08 117.67Q716.32 117.28 717.14 116.65Q717.92 116.14 718.7 115.21Q719.52 114.23 719.87 113.6L720.65 112.24Q720.97 111.69 721.12 110.87Q721.47 107.98 720.26 104.89Q719.05 101.77 718.11 98.72Q717.29 96.65 717.22 95.05Q717.14 93.45 716.51 91.69Q715.54 88.49 714.17 85.87Q712.9 83.41 710.9 81.99Q710.74 81.88 710.58 81.77Q710.11 81.37 709.56 81.21Q709.21 81.1 708.82 81.1L706.59 81.1Q705.83 81.4 705.13 81.28Q705.08 81.27 705.03 81.26Q704.97 81.25 704.91 81.24Q704.26 81.13 703.54 81.42Q700.03 82.86 696.83 85.21Q693.62 87.51 690.58 90.4Q689.56 91.36 688.57 92.35Q686.59 94.33 684.72 96.42ZM931.29 83.84Q931.33 83.99 931.37 84.15Q931.52 84.62 931.13 85.6Q930.74 86.57 930.24 87.55Q929.77 88.49 929.22 89.31Q928.67 90.09 928.48 90.4Q926.72 92.32 922.46 94.07Q918.24 95.83 914.57 95.83Q911.57 95.83 909.74 94.36Q909.24 93.96 908.83 93.45Q908.48 92.94 908.71 91.92Q908.99 90.87 909.3 90.4Q909.92 88.8 911.29 86.96Q912.66 85.13 914.18 83.53Q915.7 81.92 917.38 80.71Q919.06 79.5 920.35 79.03Q921.13 78.72 922.89 78.88Q924.65 79.03 926.41 79.78Q927.95 80.39 929.25 81.34Q929.43 81.47 929.61 81.61Q930.9 82.59 931.29 83.84ZM1075.44 83.84Q1075.5 83.99 1075.53 84.15Q1075.68 84.62 1075.3 85.6Q1074.91 86.57 1074.4 87.55Q1073.93 88.49 1073.38 89.31Q1072.84 90.09 1072.64 90.4Q1070.88 92.32 1066.63 94.07Q1062.41 95.83 1058.74 95.83Q1055.73 95.83 1053.91 94.36Q1053.41 93.96 1052.99 93.45Q1052.64 92.94 1052.88 91.92Q1053.15 90.87 1053.46 90.4Q1054.09 88.8 1055.44 86.96Q1056.81 85.13 1058.35 83.53Q1059.87 81.92 1061.55 80.71Q1063.23 79.5 1064.52 79.03Q1065.3 78.72 1067.06 78.88Q1068.81 79.03 1070.56 79.78Q1072.11 80.39 1073.41 81.34Q1073.6 81.47 1073.78 81.61Q1075.06 82.59 1075.44 83.84ZM1025.69 83.82Q1026.36 84.88 1026.56 86.22Q1026.56 87.7 1026.19 89.07Q1025.69 90.98 1024.49 92.71Q1022.42 95.67 1019.3 97.94Q1016.17 100.17 1012.5 101.69Q1008.83 103.21 1005.78 104Q1005.63 101.77 1005.2 98.57Q1004.81 95.36 1004.34 92.16Q1003.87 88.96 1003.36 85.91Q1002.89 82.86 1002.42 80.79Q1005.47 79.85 1009.38 79.46Q1013.28 79.03 1016.95 79.54Q1020.67 80.01 1023.36 81.61Q1024.88 82.5 1025.69 83.82ZM635.71 88.04Q635.88 88.49 636.83 88.64Q641.13 89.42 644.41 91.1Q645.96 91.9 646.96 93.13Q648.08 94.52 648.51 96.46Q649.14 99.19 648.71 102.32Q648.32 105.44 647.69 107.67Q646.95 109.59 646.01 111.41Q644.9 113.54 643.51 115.52Q642.61 116.82 641.52 117.92Q639.51 119.92 636.83 121.26Q633.94 122.71 632.18 122.24Q631.65 122.13 631.21 121.88Q630.31 121.37 629.76 120.25Q628.98 118.57 628.67 115.83Q628.32 112.63 628.24 108.33Q628.16 104 628.94 99.46Q629.12 98.46 629.35 97.47Q630.16 93.94 631.6 90.56Q633 87.31 635.25 84.8Q635.99 83.97 636.83 83.21Q636.83 84.15 636.4 85.13Q636.01 86.07 635.78 86.81Q635.54 87.51 635.7 88.02Q635.7 88.03 635.71 88.04ZM608.79 144.39Q610.02 140.74 609.93 136.65Q610.91 131.53 611.3 125.21Q611.31 124.99 611.32 124.78Q611.65 118.66 610.63 112.47Q609.88 107.74 608.19 103.37Q607.6 101.82 606.88 100.32Q605.95 98.33 604.73 96.52Q602.42 93.11 599.07 90.4Q598.25 89.58 597.78 89.42Q597.31 89.27 596.18 88.8Q595.36 88.49 594.54 87.86Q594.08 87.47 593.62 87.47Q593.3 87.47 592.98 87.67Q592.67 87.82 592.08 87.98Q591.53 88.14 591.06 88.41Q590.63 88.63 590.43 88.97Q590.41 89 590.4 89.03Q590.24 89.42 590.91 90.4Q594.52 96.51 596.83 103.08Q598.38 107.51 599.34 112.16Q601.77 123.68 601.77 133.92Q601.77 140.79 599.7 145.01Q597.97 148.56 595.16 150.64Q594.6 151.06 593.99 151.42Q590.4 153.6 585.44 153.92Q580.48 154.23 574.58 152.94L573.45 152.63Q573.41 152.7 573.4 152.78Q573.34 153.03 573.52 153.33Q573.76 153.76 574.11 154.39Q574.27 154.7 574.27 155.01Q574.27 155.06 574.27 155.11Q574.31 155.41 574.58 155.67Q577.22 159.04 580.66 160.42Q582.61 161.2 584.81 161.34Q586.78 161.48 588.71 161.25Q592.74 160.76 596.57 158.64Q597.48 158.15 598.34 157.58Q602.9 154.59 606.18 149.66Q607.86 147.15 608.79 144.39ZM496.25 101.46Q498.24 103.21 499.22 105.28Q499.22 106.22 499.61 106.89Q500 107.51 500.23 108.02Q500.29 108.12 500.33 108.22Q500.47 108.62 500.35 109.11Q500.19 109.74 499.22 110.71Q495.07 112.78 489.29 115.52Q483.55 118.25 477.46 120.32Q477.39 120.18 477.32 120.03Q476.48 118.08 476.4 115.79Q476.37 114.62 476.45 113.47Q476.54 112.14 476.79 110.83Q477.3 108.33 478.24 105.87Q479.22 103.37 480.19 101.26Q483.2 98.88 486.17 98.41Q488.9 97.94 491.27 98.67Q491.47 98.73 491.68 98.8Q493.16 99.3 494.46 100.1Q495.4 100.7 496.25 101.46Z" fill="#000000" fill-opacity="1.000000" fill-rule="evenodd"/>
        <path id="Mahjong Helper" d="M450.4 129.42Q449.46 128.49 449.11 127.43Q448.8 126.38 447.86 124.62Q446.73 122.86 446.88 120.87Q447.04 118.88 446.41 116.3Q446.1 114.89 445.12 113.29Q444.19 111.69 444.19 110.4Q443.87 100.17 443.52 90.64Q443.21 81.1 442.43 69.58Q440.01 72 437.35 75.13Q434.73 78.25 432.31 81.61Q429.93 84.97 427.86 88.25Q425.79 91.53 424.34 94.39Q423.37 96.3 422 97.51Q420.67 98.72 419.38 99.66Q418.56 100.32 418.17 100.99Q417.78 101.61 416.96 101.26Q411.84 99.66 407.86 95.36Q403.87 91.03 400.16 86.57Q396.49 82.08 392.62 78.49Q388.8 74.89 384.19 74.54Q384.03 79.19 384.11 84.82Q384.19 90.4 384.34 96.34Q384.5 102.24 384.66 108.1Q384.81 113.92 385.12 118.88L385.12 126.73Q383.37 124.62 382.7 122.78Q382.08 120.95 381.14 118.57Q380.48 117.28 379.34 115.44Q378.25 113.6 377.94 112.16Q376.34 106.22 375.67 99.11Q375.05 92 375.05 85.05Q375.05 78.06 375.36 71.85Q375.71 65.6 376.02 61.42Q376.18 60.64 376.57 60.09Q376.96 59.5 377.78 59.5Q378.41 59.5 378.72 59.19Q379.07 58.88 379.7 58.72Q380.83 58.72 381.22 60.01Q381.61 61.26 382.9 63.53Q383.68 65.28 383.84 65.75Q384.03 66.22 384.34 67.67Q388.8 67.98 393.05 70.56Q397.31 73.1 400.91 76.81Q404.5 80.48 407.43 84.5Q410.4 88.49 412.35 91.34Q415.2 86.73 418.64 82.24Q422.08 77.75 425.75 73.68Q429.46 69.58 433.05 66.14Q436.65 62.71 439.54 60.01L441.61 58.72Q441.61 58.06 443.21 56.96Q443.52 56.65 442.98 56.18Q442.43 55.67 442.74 55.52Q443.37 55.36 443.99 55.44Q444.66 55.52 444.97 55.99Q447.7 60.17 449.15 64.42Q450.59 68.64 451.37 73.1Q452 83.53 452.23 93.45Q452.51 103.37 452 112.78Q451.69 117.12 451.37 121.3Q451.06 125.44 450.4 129.42ZM504.65 76.81Q506.75 81.92 508.59 87.86Q510.43 93.76 511.13 99.62Q511.87 105.44 511.13 110.87Q510.43 116.3 507.38 120.32Q506.09 121.93 504.33 121.61Q503.71 121.42 503.2 120.79Q502.73 120.17 501.95 119.66Q501.29 119.19 500.54 118.88Q499.84 118.57 499.22 117.59Q496.83 118.41 494.49 119.93Q492.18 121.42 489.76 123.02Q487.38 124.62 484.8 126.14Q482.26 127.67 479.53 128.33Q476.64 129.11 475.27 128.06Q473.94 127.04 472.34 125.75Q471.21 124.78 470.9 124.54Q470.58 124.31 470.27 122.55Q469.76 119.03 470.15 114.97Q470.58 110.87 472.03 106.73Q476.01 94.54 488.32 90.4Q489.76 89.93 491.29 90.17Q492.81 90.4 494.25 91.07Q495.7 91.69 497.07 92.67Q498.43 93.6 499.53 94.54L502.11 96.65Q502.89 93.92 501.99 90.79Q501.13 87.67 499.37 84.89Q497.61 82.08 495.35 79.85Q493.12 77.59 491.05 76.81Q482.89 76.81 476.4 80.56Q469.92 84.31 463.86 90.4Q463.55 90.71 463.12 90.87Q462.73 91.03 462.42 91.18Q461.95 91.53 461.29 91.34Q460.82 91.18 461.13 90.4Q462.11 85.28 464.96 81.22Q467.85 77.12 471.68 74.07Q475.54 71.03 479.84 68.96Q484.18 66.89 488.32 65.91Q488.98 65.6 489.53 65.52Q490.11 65.44 490.9 65.44Q492.03 65.44 492.97 66.1Q493.94 66.73 495.23 67.51Q496.83 68.33 498.4 69.39Q500 70.4 501.29 71.85Q502.42 73.1 503.2 74.39Q504.02 75.67 504.65 76.81ZM499.22 105.28Q498.24 103.21 496.25 101.46Q494.25 99.66 491.68 98.8Q489.14 97.9 486.17 98.41Q483.2 98.88 480.19 101.26Q479.22 103.37 478.24 105.87Q477.3 108.33 476.79 110.83Q476.32 113.29 476.4 115.79Q476.48 118.25 477.46 120.32Q483.55 118.25 489.29 115.52Q495.07 112.78 499.22 110.71Q500.19 109.74 500.35 109.11Q500.5 108.49 500.23 108.02Q500 107.51 499.61 106.89Q499.22 106.22 499.22 105.28ZM535.84 93.1Q539.55 87.67 544.67 84.39Q549.78 81.1 556.5 81.61Q557.44 81.77 558.57 82.32Q559.71 82.86 560.64 83.37Q563.07 84.62 565.14 87.12Q567.21 89.58 568.89 92.71Q570.57 95.83 571.7 99.19Q572.83 102.55 573.3 105.44Q573.61 107.2 573.77 109.93Q573.92 112.63 573.92 114.89Q573.61 114.89 573.61 115.05Q573.61 115.21 573.3 115.05Q572.01 114.39 571.23 113.29Q570.88 112.94 570.25 112.55Q569.63 112.16 569.47 111.53Q569.12 109.93 568.73 107.28Q568.34 104.62 567.36 101.61Q566.42 98.57 564.98 95.6Q563.53 92.63 561.46 90.4Q560.64 89.58 560.1 89.19Q559.55 88.8 558.73 88.33Q557.95 87.67 556.35 87.43Q554.75 87.2 553.61 87.51Q550.88 88.33 547.83 90.56Q544.82 92.78 542.56 96.07Q540.33 99.35 539.35 103.68Q538.42 107.98 540.17 112.94Q540.64 114.39 540.8 115.28Q540.96 116.14 540.88 116.96Q540.8 117.75 540.33 118.72Q539.86 119.66 539.04 121.26Q537.79 123.21 536.11 124Q534.43 124.78 533.14 125.75Q528.5 112.47 526 99.19Q523.53 85.91 522.95 74.07Q522.4 62.24 523.69 52.39Q524.98 42.55 527.71 35.99Q528.18 34.07 529.78 34.39Q530.57 34.54 531.03 35.05Q531.54 35.52 532.32 36.3Q532.99 37.12 533.46 37.71Q533.92 38.25 534.08 39.19Q534.24 40.01 534.86 40.01Q535.53 40.01 535.37 40.79Q533.92 49.58 533.46 57.12Q532.99 64.62 533.22 71.03Q533.46 77.43 534.24 82.9Q535.06 88.33 535.84 93.1ZM601.77 71.34Q598.72 72.32 595.67 73.29Q592.67 74.23 589.85 74.46Q587.04 74.7 584.54 74.07Q582.08 73.45 580.01 71.34Q580.01 69.27 580.32 67.59Q580.67 65.91 582.74 65.91Q585.79 64.97 588.72 64.89Q591.69 64.78 594.23 65.6Q596.81 66.38 598.8 67.82Q600.83 69.27 601.77 71.34ZM609.93 136.65Q610.09 143.84 606.18 149.66Q602.27 155.52 596.57 158.64Q590.91 161.77 584.81 161.34Q578.72 160.95 574.58 155.67Q574.27 155.36 574.27 155.01Q574.27 154.7 574.11 154.39Q573.76 153.76 573.52 153.33Q573.29 152.94 573.45 152.63L574.58 152.94Q580.48 154.23 585.44 153.92Q590.4 153.6 593.99 151.42Q597.63 149.27 599.7 145.01Q601.77 140.79 601.77 133.92Q601.77 123.68 599.34 112.16Q596.96 100.64 590.91 90.4Q590.24 89.42 590.4 89.03Q590.59 88.64 591.06 88.41Q591.53 88.14 592.08 87.98Q592.67 87.82 592.98 87.67Q593.76 87.2 594.54 87.86Q595.36 88.49 596.18 88.8Q597.31 89.27 597.78 89.42Q598.25 89.58 599.07 90.4Q604.19 94.54 606.88 100.32Q609.62 106.07 610.63 112.47Q611.69 118.88 611.3 125.21Q610.91 131.53 609.93 136.65ZM642.26 77.75L639.53 80.48Q640.82 80.32 643.43 79.78Q646.09 79.19 648.67 79.19Q650.58 79.5 651.83 80.48Q653.12 81.42 653.47 84.15Q654.1 87.98 655.46 91.92Q656.83 95.83 657.54 99.7Q658.24 103.53 657.42 106.96Q656.64 110.4 653.12 113.1Q649.45 118.72 645.03 122.47Q640.66 126.22 635.86 126.89Q632.65 127.35 628.78 125.99Q624.96 124.62 623.2 121.26Q622.73 121.61 622.42 121.38Q622.11 121.1 621.79 120.79Q621.44 120.48 621.21 120.64Q620.97 120.79 620.82 120.48Q620.66 120.01 620.66 119.19L620.66 118.88L620.66 118.57Q620.82 112.94 621.68 107.28Q622.57 101.61 624.41 96.26Q626.25 90.87 629.21 86.14Q632.18 81.42 636.83 77.75Q638.43 76.81 640.35 77.12Q640.66 77.12 641.13 77.12Q641.6 77.12 642.26 77.75ZM636.83 88.64Q635.86 88.49 635.7 88.02Q635.54 87.51 635.78 86.81Q636.01 86.07 636.4 85.13Q636.83 84.15 636.83 83.21Q633.47 86.22 631.6 90.56Q629.76 94.89 628.94 99.46Q628.16 104 628.24 108.33Q628.32 112.63 628.67 115.83Q628.98 118.57 629.76 120.25Q630.58 121.93 632.18 122.24Q633.94 122.71 636.83 121.26Q640.97 119.19 643.51 115.52Q646.09 111.85 647.69 107.67Q648.32 105.44 648.71 102.32Q649.14 99.19 648.51 96.46Q647.69 92.78 644.41 91.1Q641.13 89.42 636.83 88.64ZM679.21 102.24Q681.94 99.5 684.72 96.42Q687.53 93.29 690.58 90.4Q693.62 87.51 696.83 85.21Q700.03 82.86 703.54 81.42Q704.33 81.1 705.03 81.26Q705.77 81.42 706.59 81.1Q707.84 81.1 708.82 81.1Q709.79 81.1 710.58 81.77Q712.8 83.21 714.17 85.87Q715.54 88.49 716.51 91.69Q717.14 93.45 717.22 95.05Q717.29 96.65 718.11 98.72Q719.05 101.77 720.26 104.89Q721.47 107.98 721.12 110.87Q720.97 111.69 720.65 112.24Q720.34 112.78 719.87 113.6Q719.52 114.23 718.7 115.21Q717.92 116.14 717.14 116.65Q716.32 117.28 716.08 117.67Q715.85 118.06 714.56 118.57Q712.49 115.52 711.36 112Q710.26 108.49 709.44 104.66Q708.66 100.79 708 96.81Q707.37 92.78 706.4 88.64Q706.08 87.51 704.4 87.35Q702.72 87.2 700.58 88.41Q698.43 89.58 696.01 92.16Q693.62 94.7 691.71 98.72Q690.42 101.61 689.29 104.74Q688.19 107.82 686.83 110.95Q685.46 114.07 683.62 117.04Q681.79 120.01 679.21 122.39Q678.43 123.21 678.08 122.59Q677.76 121.93 676.51 121.42Q675.54 121.1 675.46 120.79Q675.38 120.48 674.91 118.88Q673.94 115.52 672.88 111.22Q671.86 106.89 670.65 102.08Q669.44 97.28 668.15 92.39Q666.9 87.51 665.61 83.21L664.64 80.32Q664.99 79.66 665.85 79.19Q666.75 78.72 667.69 78.41Q668.66 78.06 669.76 78.57Q670.89 79.03 671.55 79.03Q673.31 79.03 674.64 81.3Q676.01 83.53 676.94 86.96Q677.92 90.4 678.47 94.5Q679.05 98.57 679.21 102.24ZM760.01 71.34Q761.45 75.21 763.52 82.75Q765.63 90.25 767.55 99.03Q769.46 107.82 770.91 116.81Q772.35 125.75 772.35 132.47Q772.35 137.75 771.3 142.94Q770.24 148.14 765.44 152.94Q762.9 155.36 759.31 158.8Q755.71 162.24 751.53 165.13Q749.62 166.38 747.63 167.51Q745.63 168.64 743.68 169.27Q742.9 167.35 743.29 166.77Q743.68 166.22 744.19 164.62Q744.66 163.21 744.89 160.64Q745.13 158.06 746.42 156.96Q748.02 155.52 750.71 153.25Q753.45 151.03 755.99 148.53Q758.56 146.07 760.48 143.64Q762.43 141.26 762.74 139.35Q763.06 136.46 763.06 133.02Q763.06 129.58 762.67 125.99Q762.27 122.39 761.61 118.8Q760.99 115.21 760.01 112.16L759.7 111.18Q757.78 114.7 755.6 116.89Q753.45 119.03 750.75 120.32Q749.46 120.95 748.17 121.18Q746.88 121.42 745.63 121.77Q744.35 122.08 743.06 122.67Q741.77 123.21 740.83 123.21Q738.72 123.02 736.73 121.46Q734.74 119.85 734.42 117.75Q734.27 116.65 733.76 115.44Q733.29 114.23 733.13 112.94Q732.82 108.33 732.98 102.75Q733.13 97.12 733.99 91.46Q734.89 85.75 736.65 80.56Q738.41 75.36 741.14 71.53Q742.27 70.25 743.52 69.03Q744.81 67.82 746.73 67.82Q748.02 67.82 749.03 66.89Q750.09 65.91 751.38 66.07Q754.11 66.38 756.34 67.43Q758.56 68.49 760.01 71.34ZM754.58 84Q754.27 81.77 753.76 79.39Q753.29 76.96 752.51 76.81Q751.85 76.65 751.3 76.89Q750.75 77.12 750.4 77.28Q748.33 78.06 746.65 82.16Q744.97 86.22 743.76 91.26Q742.59 96.3 741.92 101.03Q741.3 105.75 741.61 107.67Q741.92 110.09 742.86 112.24Q743.84 114.39 745.95 114.89Q746.57 115.05 748.02 114.5Q749.46 113.92 751.06 112.9Q752.67 111.85 754.27 110.64Q755.87 109.43 756.81 108.49Q757.31 107.98 757.2 105.52Q757.12 103.02 756.73 99.5Q756.34 95.99 755.75 91.85Q755.2 87.67 754.58 84ZM878.27 56.14Q878.43 55.21 879.29 54.42Q880.19 53.6 880.5 52.78Q881.44 51.85 881.67 51.61Q881.95 51.34 882.42 51.03Q883.2 50.56 883.59 51.38Q884.02 52.16 884.33 53.45L884.8 58.25Q885.46 65.44 885.7 73.45Q885.93 81.42 886.24 89.58Q886.56 97.75 887.34 105.68Q888.16 113.6 890.27 120.79Q890.58 121.42 890.42 122Q890.27 122.55 890.11 122.24Q889.95 121.77 889.21 121.38Q888.51 120.95 887.69 120.01Q886.09 118.72 884.88 117.94Q883.7 117.12 882.73 115.68Q880.03 110.25 878.74 102.16Q877.45 94.07 877.14 84.97Q869.45 87.2 859.76 90.71Q850.11 94.23 840.81 96.46Q841.13 99.66 841.36 103.02Q841.63 106.38 842.26 109.74Q842.57 111.34 842.49 112.94Q842.42 114.54 842.73 116.81Q843.04 118.57 843.51 120.56Q844.02 122.55 844.02 123.53Q837.92 115.36 834.64 106.34Q831.36 97.28 830.07 87.86Q828.82 78.41 829.13 68.8Q829.45 59.19 830.42 50.09Q830.42 49.42 830.89 49.19Q831.36 48.96 831.71 48.64Q832.02 48.33 832.02 48.17Q832.02 47.98 832.34 47.67Q833.31 46.38 833.94 46.73Q834.56 47.04 835.07 47.82Q835.85 49.27 836.56 50.79Q837.3 52.32 838.08 53.76Q838.9 55.52 839.29 57.12Q839.68 58.72 838.59 60.95Q839.37 65.91 839.6 72.16Q839.84 78.41 840.19 85.6Q844.8 84.46 849.45 82.71Q854.1 80.95 858.63 79.19Q863.2 77.43 867.77 76.07Q872.34 74.7 876.99 74.39Q877.14 69.74 877.45 65.13Q877.77 60.48 878.27 56.14ZM936.02 74.7Q937.15 75.83 938.09 77.2Q939.06 78.57 939.69 80.01Q940.98 83.02 941.06 85.99Q941.13 88.96 938.75 93.1Q936.02 97.59 931.76 100.64Q927.54 103.68 922.58 104.46Q919.06 105.13 915.55 104.43Q912.03 103.68 908.83 101.26Q907.85 102.08 907.27 103.6Q906.72 105.13 906.88 106.38Q907.23 108.64 908.56 111.3Q909.92 113.92 911.52 114.89Q914.26 115.99 919.14 115.05Q924.02 114.07 929.53 112.08Q935.04 110.09 940.39 107.63Q945.78 105.13 949.61 103.37Q949.61 104.31 949.22 104.66Q948.83 104.97 948.17 105.75Q947.38 106.57 946.41 107.71Q945.47 108.8 944.18 109.58Q942.58 110.56 941.76 112.08Q940.98 113.6 938.75 114.89Q935.7 116.46 932.58 118.18Q929.45 119.85 926.41 121.22Q923.36 122.55 920.24 123.29Q917.15 124 914.1 123.68Q912.03 123.37 910.67 122.59Q909.3 121.77 907.38 120.17Q906.41 119.35 905.12 118.57Q903.87 117.75 903.2 116.96Q900.51 112.94 899.53 108.41Q898.56 103.84 899.1 99.27Q899.69 94.7 901.45 90.32Q903.2 85.91 906.1 82.24Q907.7 80.17 910 78.02Q912.35 75.83 915.12 74.15Q917.93 72.47 921.06 71.53Q924.18 70.56 927.38 70.71Q928.67 70.87 929.69 71.46Q930.74 72 932.03 72.63Q932.81 72.94 933.99 73.53Q935.2 74.07 936.02 74.7ZM931.37 84.15Q931.06 82.71 929.61 81.61Q928.17 80.48 926.41 79.78Q924.65 79.03 922.89 78.88Q921.13 78.72 920.35 79.03Q919.06 79.5 917.38 80.71Q915.7 81.92 914.18 83.53Q912.66 85.13 911.29 86.96Q909.92 88.8 909.3 90.4Q908.99 90.87 908.71 91.92Q908.48 92.94 908.83 93.45Q910.74 95.83 914.57 95.83Q918.24 95.83 922.46 94.07Q926.72 92.32 928.48 90.4Q928.67 90.09 929.22 89.31Q929.77 88.49 930.24 87.55Q930.74 86.57 931.13 85.6Q931.52 84.62 931.37 84.15ZM964.99 47.82Q966.9 56.46 968 65.13Q969.13 73.76 970.07 82.39Q971.04 91.03 972.1 99.7Q973.15 108.33 974.91 116.96Q974.56 119.03 974.4 120.32Q974.25 121.61 973.62 121.93Q972.8 122.39 972.06 122.98Q971.36 123.53 970.57 123.84Q970.26 124 969.91 124.39Q969.6 124.78 969.21 124.93Q968.82 125.13 968.5 124.93Q968.19 124.78 967.68 124Q964.64 114.89 962.14 105.6Q959.68 96.3 958.15 86.89Q956.67 77.43 956.24 67.75Q955.85 58.06 956.82 47.82Q956.82 45.44 958.27 44.78Q958.9 44.46 959.91 45.28Q960.97 46.07 961.79 46.38Q962.88 46.89 963.5 46.96Q964.17 47.04 964.99 47.82ZM1032.5 80.48Q1034.26 84.62 1034.34 88.49Q1034.42 92.32 1032.5 96.81Q1030.59 100.17 1027.23 102.82Q1023.87 105.44 1020.08 107.35Q1016.33 109.27 1012.81 110.56Q1009.3 111.85 1007.23 112.63Q1007.85 117.43 1008.48 123.14Q1009.14 128.8 1009.53 134.62Q1009.92 140.48 1010.24 146.14Q1010.59 151.85 1010.74 156.65Q1010.74 157.59 1010.24 157.75Q1009.77 157.9 1009.14 158.72Q1008.67 159.19 1008.24 159.97Q1007.85 160.79 1007.23 161.1Q1006.72 161.42 1006.25 161.73Q1005.78 162.08 1005.31 162.08Q1002.89 153.92 1000.98 144.07Q999.06 134.23 997.69 123.76Q996.33 113.29 995.51 102.82Q994.72 92.32 994.41 83.21Q992.18 83.53 989.92 84.58Q987.69 85.6 985.93 86.57Q985.62 86.89 985.27 86.73Q984.96 86.57 984.65 86.89Q984.18 87.2 983.67 87.43Q983.2 87.67 982.73 87.35Q981.79 86.89 980.82 85.91Q982.58 80.64 986.4 77.59Q990.27 74.54 994.88 73.29Q997.61 72.63 1003.2 72.24Q1008.83 71.85 1014.81 72.39Q1020.82 72.94 1025.93 74.82Q1031.06 76.65 1032.5 80.48ZM1026.56 86.22Q1026.1 83.21 1023.36 81.61Q1020.67 80.01 1016.95 79.54Q1013.28 79.03 1009.38 79.46Q1005.47 79.85 1002.42 80.79Q1002.89 82.86 1003.36 85.91Q1003.87 88.96 1004.34 92.16Q1004.81 95.36 1005.2 98.57Q1005.63 101.77 1005.78 104Q1008.83 103.21 1012.5 101.69Q1016.17 100.17 1019.3 97.94Q1022.42 95.67 1024.49 92.71Q1026.56 89.74 1026.56 86.22ZM1080.18 74.7Q1081.31 75.83 1082.25 77.2Q1083.23 78.57 1083.85 80.01Q1085.14 83.02 1085.22 85.99Q1085.3 88.96 1082.92 93.1Q1080.18 97.59 1075.92 100.64Q1071.69 103.68 1066.74 104.46Q1063.23 105.13 1059.71 104.43Q1056.19 103.68 1052.99 101.26Q1052.02 102.08 1051.43 103.6Q1050.88 105.13 1051.04 106.38Q1051.39 108.64 1052.72 111.3Q1054.09 113.92 1055.68 114.89Q1058.42 115.99 1063.31 115.05Q1068.18 114.07 1073.69 112.08Q1079.19 110.09 1084.56 107.63Q1089.94 105.13 1093.78 103.37Q1093.78 104.31 1093.38 104.66Q1092.99 104.97 1092.32 105.75Q1091.55 106.57 1090.56 107.71Q1089.63 108.8 1088.35 109.58Q1086.74 110.56 1085.92 112.08Q1085.14 113.6 1082.92 114.89Q1079.87 116.46 1076.74 118.18Q1073.62 119.85 1070.56 121.22Q1067.53 122.55 1064.4 123.29Q1061.31 124 1058.27 123.68Q1056.19 123.37 1054.82 122.59Q1053.46 121.77 1051.55 120.17Q1050.56 119.35 1049.28 118.57Q1048.03 117.75 1047.37 116.96Q1044.67 112.94 1043.69 108.41Q1042.72 103.84 1043.27 99.27Q1043.85 94.7 1045.61 90.32Q1047.37 85.91 1050.26 82.24Q1051.86 80.17 1054.17 78.02Q1056.51 75.83 1059.28 74.15Q1062.1 72.47 1065.22 71.53Q1068.35 70.56 1071.55 70.71Q1072.84 70.87 1073.85 71.46Q1074.91 72 1076.19 72.63Q1076.98 72.94 1078.15 73.53Q1079.36 74.07 1080.18 74.7ZM1075.53 84.15Q1075.22 82.71 1073.78 81.61Q1072.32 80.48 1070.56 79.78Q1068.81 79.03 1067.06 78.88Q1065.3 78.72 1064.52 79.03Q1063.23 79.5 1061.55 80.71Q1059.87 81.92 1058.35 83.53Q1056.81 85.13 1055.44 86.96Q1054.09 88.8 1053.46 90.4Q1053.15 90.87 1052.88 91.92Q1052.64 92.94 1052.99 93.45Q1054.91 95.83 1058.74 95.83Q1062.41 95.83 1066.63 94.07Q1070.88 92.32 1072.64 90.4Q1072.84 90.09 1073.38 89.31Q1073.93 88.49 1074.4 87.55Q1074.91 86.57 1075.3 85.6Q1075.68 84.62 1075.53 84.15ZM1146.57 72.32Q1146.57 73.76 1147.04 75.91Q1147.55 78.06 1146.73 79.35Q1146.42 79.66 1146.42 80.56Q1146.42 81.42 1145.94 81.77L1143.84 80.48Q1141.3 79.19 1138.18 79.35Q1135.05 79.5 1131.85 80.79Q1129.62 81.77 1127.43 83.45Q1125.29 85.13 1123.37 87.2Q1121.46 89.27 1119.86 91.53Q1118.26 93.76 1117.12 95.83Q1114.57 100.48 1114.66 107.04Q1114.74 113.6 1119.39 124Q1119.39 125.13 1117.79 126.73Q1117.47 127.04 1116.97 127.67Q1116.5 128.33 1116.18 128.64Q1114.9 129.74 1114.66 130.52Q1114.43 131.34 1113.61 131.69Q1112.36 132.16 1111.22 129.42Q1108.49 124.62 1105.99 117.67Q1103.53 110.71 1101.38 103.37Q1099.23 95.99 1097.55 89.19Q1095.87 82.39 1094.9 77.75Q1094.43 76.46 1094.74 75.28Q1095.05 74.07 1095.72 73.29Q1096.18 72.63 1096.89 72.98Q1097.63 73.29 1098.1 73.29Q1100.17 73.29 1100.64 74.11Q1101.15 74.89 1102.28 76.14Q1104.51 78.72 1105.76 83.06Q1107.04 87.35 1109 93.29Q1111.54 88.96 1115.6 84.97Q1119.69 80.95 1124.51 77.67Q1129.31 74.39 1134.43 72.32Q1139.54 70.25 1144.35 69.74Q1145.29 69.58 1145.99 70.32Q1146.73 71.03 1146.57 72.32Z" stroke="#000000" stroke-opacity="1.000000" stroke-width="1.000000"/>
    </g>
</svg>
