<svg width="33.618677" height="54.006470" viewBox="0 0 59.5187 96.0065" fill="none" xmlns="http://www.w3.org/2000/svg" xmlns:xlink="http://www.w3.org/1999/xlink">
    <desc>
        Created with Pixso.
    </desc>
    <defs/>
    <path id="p" d="M56.51 19.41Q56.43 15.54 54.67 11.4Q54.48 10.89 54.23 10.42Q52.55 7.33 48.11 5.74Q43 3.86 36.98 3.31Q31 2.77 25.38 3.16Q19.79 3.55 17.06 4.21Q15.62 4.6 14.26 5.16Q11.25 6.41 8.58 8.51Q8.11 8.89 7.67 9.3Q4.54 12.21 3 16.83Q3.97 17.81 4.91 18.27Q5.18 18.45 5.44 18.45Q5.65 18.45 5.85 18.35Q5.95 18.31 6.05 18.26Q6.45 18.06 6.82 17.81Q7.03 17.6 7.24 17.6Q7.34 17.6 7.45 17.65Q7.59 17.71 7.72 17.7Q7.92 17.68 8.11 17.49Q9.87 16.52 12.1 15.5Q14.36 14.45 16.59 14.13Q16.9 23.24 17.68 33.74Q18.5 44.21 19.87 54.68Q21.24 65.15 23.15 74.99Q25.07 84.84 27.49 93Q27.96 93 28.42 92.65Q28.89 92.34 29.4 92.02Q30.03 91.71 30.42 90.89Q30.85 90.11 31.32 89.64Q31.94 88.82 32.41 88.67Q32.49 88.64 32.56 88.6Q32.92 88.36 32.92 87.57Q32.76 82.77 32.41 77.06Q32.1 71.4 31.71 65.54Q31.32 59.72 30.65 54.06Q30.03 48.35 29.4 43.55Q31.47 42.77 34.99 41.48Q38.5 40.19 42.25 38.27Q43.83 37.48 45.33 36.56Q47.44 35.27 49.4 33.74Q52.76 31.09 54.67 27.73Q56.59 23.24 56.51 19.41ZM47.87 14.74Q48.53 15.8 48.74 17.14Q48.74 18.62 48.37 19.99Q47.87 21.9 46.67 23.63Q44.6 26.6 41.47 28.86Q38.35 31.09 34.67 32.61Q31 34.13 27.96 34.92Q27.8 32.69 27.37 29.49Q26.98 26.28 26.51 23.08Q26.04 19.88 25.53 16.83Q25.07 13.78 24.6 11.71Q27.64 10.77 31.55 10.38Q35.46 9.95 39.13 10.46Q42.84 10.93 45.53 12.53Q47.05 13.42 47.87 14.74Z" fill="#603B1A" fill-opacity="1.000000" fill-rule="evenodd"/>
    <path id="p" d="M54.67 11.4Q56.43 15.54 56.51 19.41Q56.59 23.24 54.67 27.73Q52.76 31.09 49.4 33.74Q46.04 36.36 42.25 38.27Q38.5 40.19 34.99 41.48Q31.47 42.77 29.4 43.55Q30.03 48.35 30.65 54.06Q31.32 59.72 31.71 65.54Q32.1 71.4 32.41 77.06Q32.76 82.77 32.92 87.57Q32.92 88.51 32.41 88.67Q31.94 88.82 31.32 89.64Q30.85 90.11 30.42 90.89Q30.03 91.71 29.4 92.02Q28.89 92.34 28.42 92.65Q27.96 93 27.49 93Q25.07 84.84 23.15 74.99Q21.24 65.15 19.87 54.68Q18.5 44.21 17.68 33.74Q16.9 23.24 16.59 14.13Q14.36 14.45 12.1 15.5Q9.87 16.52 8.11 17.49Q7.8 17.81 7.45 17.65Q7.14 17.49 6.82 17.81Q6.35 18.12 5.85 18.35Q5.38 18.59 4.91 18.27Q3.97 17.81 3 16.83Q4.75 11.56 8.58 8.51Q12.45 5.46 17.06 4.21Q19.79 3.55 25.38 3.16Q31 2.77 36.98 3.31Q43 3.86 48.11 5.74Q53.23 7.57 54.67 11.4ZM48.74 17.14Q48.27 14.13 45.53 12.53Q42.84 10.93 39.13 10.46Q35.46 9.95 31.55 10.38Q27.64 10.77 24.6 11.71Q25.07 13.78 25.53 16.83Q26.04 19.88 26.51 23.08Q26.98 26.28 27.37 29.49Q27.8 32.69 27.96 34.92Q31 34.13 34.67 32.61Q38.35 31.09 41.47 28.86Q44.6 26.6 46.67 23.63Q48.74 20.66 48.74 17.14Z" stroke="#603B1A" stroke-opacity="1.000000" stroke-width="3.000000"/>
</svg>
