<svg width="201.000000" height="305.000000" viewBox="0 0 201 305" fill="none" xmlns="http://www.w3.org/2000/svg" xmlns:xlink="http://www.w3.org/1999/xlink">
    <desc>
        Created with Pixso.
    </desc>
    <defs>
        <filter id="filter_4_662_dd" x="0.000000" y="0.000000" width="201.000000" height="305.000000" filterUnits="userSpaceOnUse" color-interpolation-filters="sRGB">
            <feFlood flood-opacity="0" result="BackgroundImageFix"/>
            <feBlend mode="normal" in="SourceGraphic" in2="BackgroundImageFix" result="shape"/>
            <feColorMatrix in="SourceAlpha" type="matrix" values="0 0 0 0 0 0 0 0 0 0 0 0 0 0 0 0 0 0 127 0" result="hardAlpha"/>
            <feOffset dx="0" dy="4"/>
            <feGaussianBlur stdDeviation="1.33333"/>
            <feComposite in2="hardAlpha" operator="arithmetic" k2="-1" k3="1"/>
            <feColorMatrix type="matrix" values="0 0 0 0 0 0 0 0 0 0 0 0 0 0 0 0 0 0 0.25 0"/>
            <feBlend mode="normal" in2="shape" result="effect_innerShadow_1"/>
        </filter>
        <filter id="filter_4_665_dd" x="0.000000" y="8.000000" width="195.000000" height="297.000000" filterUnits="userSpaceOnUse" color-interpolation-filters="sRGB">
            <feFlood flood-opacity="0" result="BackgroundImageFix"/>
            <feColorMatrix in="SourceAlpha" type="matrix" values="0 0 0 0 0 0 0 0 0 0 0 0 0 0 0 0 0 0 127 0" result="hardAlpha"/>
            <feOffset dx="0" dy="4"/>
            <feGaussianBlur stdDeviation="1.33333"/>
            <feComposite in2="hardAlpha" operator="out" k2="-1" k3="1"/>
            <feColorMatrix type="matrix" values="0 0 0 0 0 0 0 0 0 0 0 0 0 0 0 0 0 0 0.25 0"/>
            <feBlend mode="normal" in2="BackgroundImageFix" result="effect_dropShadow_1"/>
            <feBlend mode="normal" in="SourceGraphic" in2="effect_dropShadow_1" result="shape"/>
        </filter>
        <filter id="filter_4_705_dd" x="22.952637" y="58.500000" width="153.068481" height="206.542297" filterUnits="userSpaceOnUse" color-interpolation-filters="sRGB">
            <feFlood flood-opacity="0" result="BackgroundImageFix"/>
            <feColorMatrix in="SourceAlpha" type="matrix" values="0 0 0 0 0 0 0 0 0 0 0 0 0 0 0 0 0 0 127 0" result="hardAlpha"/>
            <feOffset dx="0" dy="4"/>
            <feGaussianBlur stdDeviation="1.33333"/>
            <feComposite in2="hardAlpha" operator="out" k2="-1" k3="1"/>
            <feColorMatrix type="matrix" values="0 0 0 0 0 0 0 0 0 0 0 0 0 0 0 0 0 0 0.25 0"/>
            <feBlend mode="normal" in2="BackgroundImageFix" result="effect_dropShadow_1"/>
            <feBlend mode="normal" in="SourceGraphic" in2="effect_dropShadow_1" result="shape"/>
        </filter>
    </defs>
    <g filter="url(#filter_4_662_dd)">
        <rect id="Rectangle 1" x="4.000000" rx="20.000000" width="197.000000" height="297.000000" fill="#985B26" fill-opacity="1.000000"/>
        <rect id="Rectangle 1" x="4.500000" y="0.500000" rx="20.000000" width="196.000000" height="296.000000" stroke="#000000" stroke-opacity="1.000000" stroke-width="1.000000"/>
        <g filter="url(#filter_4_665_dd)">
            <rect id="Rectangle 2" x="4.000000" y="8.000000" rx="20.000000" width="187.000000" height="289.000000" fill="#FFF0DB" fill-opacity="1.000000"/>
            <rect id="Rectangle 2" x="4.500000" y="8.500000" rx="20.000000" width="186.000000" height="288.000000" stroke="#000000" stroke-opacity="1.000000" stroke-width="1.000000"/>
        </g>
        <g filter="url(#filter_4_705_dd)">
            <path id="circle7651" d="M59.64 123.88C77.7 123.88 92.33 109.24 92.33 91.19C92.33 73.13 77.7 58.5 59.64 58.5C41.58 58.5 26.95 73.13 26.95 91.19C26.95 109.24 41.58 123.88 59.64 123.88Z" fill="#603B1A" fill-opacity="1.000000" fill-rule="nonzero"/>
            <path id="circle7653" d="M59.64 115.84C73.26 115.84 84.3 104.8 84.3 91.19C84.3 77.57 73.26 66.53 59.64 66.53C46.02 66.53 34.98 77.57 34.98 91.19C34.98 104.8 46.02 115.84 59.64 115.84Z" fill="#FFFFFF" fill-opacity="1.000000" fill-rule="nonzero"/>
            <path id="circle7655" d="M59.64 112.42C71.37 112.42 80.87 102.91 80.87 91.19C80.87 79.46 71.37 69.96 59.64 69.96C47.91 69.96 38.41 79.46 38.41 91.19C38.41 102.91 47.91 112.42 59.64 112.42Z" fill="#454D9A" fill-opacity="1.000000" fill-rule="nonzero"/>
            <path id="path7657 (Stroke)" d="M58.98 104.5C59.85 104.55 60.71 104.5 61.56 104.38C62.55 104.24 63.23 103.32 63.09 102.33C62.94 101.35 62.03 100.66 61.04 100.81C60.42 100.9 59.79 100.93 59.16 100.9C58.53 100.86 57.9 100.77 57.3 100.62C56.33 100.38 55.35 100.97 55.11 101.94C54.87 102.91 55.46 103.89 56.43 104.13C57.26 104.33 58.11 104.46 58.98 104.5ZM63.94 102.03C64.44 102.89 65.55 103.18 66.41 102.67C67.15 102.24 67.85 101.73 68.5 101.15C69.15 100.58 69.73 99.94 70.25 99.26C70.85 98.46 70.7 97.33 69.91 96.73C69.11 96.12 67.98 96.28 67.38 97.07C67 97.57 66.57 98.03 66.1 98.45C65.62 98.87 65.11 99.24 64.58 99.56C63.72 100.07 63.43 101.18 63.94 102.03ZM54.29 101.56C54.88 100.75 54.71 99.62 53.9 99.03C53.4 98.66 52.93 98.25 52.5 97.78C52.07 97.31 51.69 96.81 51.36 96.28C50.84 95.43 49.73 95.16 48.88 95.69C48.03 96.21 47.76 97.32 48.28 98.17C48.73 98.9 49.25 99.59 49.84 100.23C50.43 100.87 51.08 101.44 51.77 101.95C52.58 102.54 53.7 102.36 54.29 101.56ZM70.3 95.92C71.27 96.18 72.26 95.61 72.52 94.64C72.74 93.82 72.88 92.96 72.94 92.1C72.95 91.92 72.94 91.76 72.91 91.59C72.95 91.44 72.97 91.27 72.97 91.1C72.97 90.23 72.87 89.37 72.7 88.53C72.51 87.55 71.55 86.92 70.57 87.12C69.6 87.32 68.97 88.27 69.17 89.25C69.29 89.86 69.36 90.49 69.36 91.12C69.36 91.25 69.38 91.37 69.4 91.49C69.37 91.6 69.35 91.73 69.34 91.85C69.3 92.48 69.19 93.1 69.03 93.71C68.77 94.67 69.34 95.66 70.3 95.92ZM48.56 94.84C49.55 94.68 50.21 93.75 50.05 92.77C49.95 92.15 49.91 91.52 49.92 90.89C49.94 90.26 50.03 89.63 50.16 89.02C50.39 88.05 49.78 87.08 48.81 86.86C47.83 86.64 46.87 87.24 46.64 88.22C46.45 89.05 46.34 89.91 46.32 90.78C46.29 91.65 46.35 92.51 46.49 93.35C46.65 94.34 47.58 95 48.56 94.84ZM70.23 86.29C71.06 85.73 71.28 84.61 70.73 83.78C70.25 83.07 69.7 82.4 69.09 81.78C68.48 81.17 67.81 80.62 67.1 80.14C66.27 79.58 65.15 79.8 64.59 80.62C64.04 81.45 64.25 82.57 65.08 83.13C65.6 83.48 66.08 83.88 66.53 84.33C66.98 84.78 67.38 85.27 67.72 85.79C68.28 86.62 69.4 86.84 70.23 86.29ZM49.17 86.04C49.99 86.61 51.11 86.41 51.69 85.6C52.05 85.09 52.46 84.61 52.92 84.17C53.37 83.73 53.87 83.34 54.39 83C55.23 82.47 55.48 81.35 54.94 80.51C54.4 79.67 53.29 79.43 52.45 79.96C51.72 80.43 51.04 80.96 50.42 81.56C49.79 82.16 49.23 82.82 48.73 83.52C48.16 84.34 48.36 85.46 49.17 86.04ZM63.76 80.27C63.97 79.3 63.34 78.34 62.37 78.14C61.53 77.96 60.67 77.87 59.8 77.86C58.93 77.85 58.07 77.92 57.23 78.08C56.25 78.26 55.6 79.2 55.78 80.18C55.96 81.16 56.9 81.81 57.88 81.63C58.49 81.51 59.12 81.46 59.76 81.47C60.39 81.47 61.02 81.54 61.63 81.67C62.6 81.88 63.56 81.25 63.76 80.27Z" fill="#FFFFFF" fill-opacity="1.000000" fill-rule="evenodd"/>
            <path id="circle7659" d="M59.64 95.48C62.01 95.48 63.94 93.56 63.94 91.19C63.94 88.81 62.01 86.89 59.64 86.89C57.27 86.89 55.34 88.81 55.34 91.19C55.34 93.56 57.27 95.48 59.64 95.48Z" fill="#FFFFFF" fill-opacity="1.000000" fill-rule="nonzero"/>
            <path id="circle7661" d="M59.64 93.15C60.72 93.15 61.6 92.27 61.6 91.19C61.6 90.1 60.72 89.23 59.64 89.23C58.56 89.23 57.68 90.1 57.68 91.19C57.68 92.27 58.56 93.15 59.64 93.15Z" fill="#454D9A" fill-opacity="1.000000" fill-rule="nonzero"/>
            <path id="circle7679" d="M99.48 190.43C117.54 190.43 132.17 175.79 132.17 157.73C132.17 139.68 117.54 125.04 99.48 125.04C81.43 125.04 66.79 139.68 66.79 157.73C66.79 175.79 81.43 190.43 99.48 190.43Z" fill="#603B1A" fill-opacity="1.000000" fill-rule="nonzero"/>
            <path id="circle7681" d="M99.48 182.39C113.1 182.39 124.14 171.35 124.14 157.73C124.14 144.12 113.1 133.08 99.48 133.08C85.86 133.08 74.82 144.12 74.82 157.73C74.82 171.35 85.86 182.39 99.48 182.39Z" fill="#FFFFFF" fill-opacity="1.000000" fill-rule="nonzero"/>
            <path id="circle7683" d="M99.48 178.97C111.21 178.97 120.71 169.46 120.71 157.73C120.71 146.01 111.21 136.5 99.48 136.5C87.75 136.5 78.25 146.01 78.25 157.73C78.25 169.46 87.75 178.97 99.48 178.97Z" fill="#E9411B" fill-opacity="1.000000" fill-rule="nonzero"/>
            <path id="path7685 (Stroke)" d="M98.82 171.05C99.69 171.09 100.55 171.05 101.4 170.93C102.39 170.78 103.07 169.87 102.93 168.88C102.78 167.89 101.87 167.21 100.88 167.35C100.26 167.44 99.63 167.47 99 167.44C98.37 167.41 97.74 167.32 97.14 167.17C96.17 166.93 95.19 167.52 94.95 168.48C94.71 169.45 95.3 170.43 96.27 170.67C97.1 170.88 97.95 171.01 98.82 171.05ZM103.78 168.58C104.28 169.44 105.39 169.72 106.25 169.22C106.99 168.78 107.69 168.28 108.34 167.7C108.99 167.12 109.57 166.49 110.09 165.8C110.7 165.01 110.54 163.88 109.75 163.27C108.96 162.67 107.82 162.82 107.22 163.62C106.84 164.12 106.41 164.58 105.94 165C105.47 165.42 104.96 165.79 104.42 166.11C103.56 166.61 103.27 167.72 103.78 168.58ZM94.13 168.1C94.72 167.3 94.55 166.17 93.74 165.58C93.24 165.21 92.77 164.79 92.34 164.33C91.91 163.86 91.53 163.36 91.2 162.82C90.68 161.98 89.57 161.71 88.72 162.23C87.87 162.75 87.6 163.87 88.13 164.72C88.57 165.45 89.1 166.14 89.68 166.77C90.27 167.41 90.92 167.99 91.61 168.49C92.42 169.08 93.55 168.91 94.13 168.1ZM110.15 162.47C111.11 162.72 112.1 162.15 112.36 161.19C112.58 160.36 112.72 159.51 112.78 158.64C112.79 158.47 112.78 158.3 112.75 158.14C112.79 157.98 112.81 157.81 112.81 157.64C112.81 156.77 112.72 155.91 112.55 155.07C112.35 154.1 111.39 153.47 110.42 153.66C109.44 153.86 108.81 154.82 109.01 155.79C109.13 156.41 109.2 157.03 109.2 157.67C109.2 157.79 109.22 157.91 109.24 158.03C109.21 158.15 109.19 158.27 109.18 158.4C109.14 159.03 109.03 159.65 108.87 160.25C108.61 161.22 109.18 162.21 110.15 162.47ZM88.4 161.39C89.39 161.23 90.05 160.3 89.89 159.31C89.79 158.7 89.75 158.07 89.77 157.43C89.79 156.8 89.87 156.17 90.01 155.57C90.23 154.6 89.62 153.63 88.65 153.4C87.68 153.18 86.71 153.79 86.49 154.76C86.29 155.6 86.18 156.46 86.16 157.32C86.13 158.19 86.19 159.05 86.33 159.9C86.49 160.88 87.42 161.55 88.4 161.39ZM110.07 152.83C110.9 152.28 111.12 151.16 110.57 150.33C110.09 149.62 109.55 148.95 108.93 148.33C108.32 147.71 107.65 147.16 106.94 146.68C106.12 146.13 104.99 146.34 104.44 147.17C103.88 148 104.1 149.12 104.92 149.68C105.44 150.03 105.93 150.43 106.37 150.88C106.82 151.33 107.22 151.81 107.57 152.33C108.12 153.16 109.24 153.39 110.07 152.83ZM89.01 152.58C89.83 153.15 90.96 152.96 91.53 152.14C91.89 151.63 92.3 151.15 92.76 150.71C93.21 150.28 93.71 149.89 94.24 149.55C95.07 149.01 95.32 147.89 94.78 147.06C94.24 146.22 93.13 145.97 92.29 146.51C91.57 146.97 90.89 147.51 90.26 148.11C89.63 148.71 89.07 149.37 88.58 150.07C88 150.88 88.2 152.01 89.01 152.58ZM103.61 146.82C103.81 145.84 103.18 144.89 102.21 144.68C101.37 144.51 100.51 144.41 99.64 144.4C98.77 144.39 97.91 144.47 97.07 144.62C96.09 144.8 95.44 145.74 95.62 146.72C95.8 147.71 96.74 148.35 97.72 148.17C98.34 148.06 98.96 148 99.6 148.01C100.23 148.02 100.86 148.09 101.47 148.22C102.45 148.42 103.4 147.8 103.61 146.82Z" fill="#FFFFFF" fill-opacity="1.000000" fill-rule="evenodd"/>
            <path id="circle7687" d="M99.48 162.03C101.85 162.03 103.78 160.11 103.78 157.73C103.78 155.36 101.85 153.44 99.48 153.44C97.11 153.44 95.18 155.36 95.18 157.73C95.18 160.11 97.11 162.03 99.48 162.03Z" fill="#FFFFFF" fill-opacity="1.000000" fill-rule="nonzero"/>
            <path id="circle7689" d="M99.48 159.69C100.56 159.69 101.44 158.82 101.44 157.73C101.44 156.65 100.56 155.77 99.48 155.77C98.4 155.77 97.52 156.65 97.52 157.73C97.52 158.82 98.4 159.69 99.48 159.69Z" fill="#E9411B" fill-opacity="1.000000" fill-rule="nonzero"/>
            <path id="circle7693" d="M139.32 257.04C157.38 257.04 172.02 242.4 172.02 224.35C172.02 206.29 157.38 191.65 139.32 191.65C121.27 191.65 106.63 206.29 106.63 224.35C106.63 242.4 121.27 257.04 139.32 257.04Z" fill="#603B1A" fill-opacity="1.000000" fill-rule="nonzero"/>
            <path id="circle7695" d="M139.32 249C152.94 249 163.98 237.96 163.98 224.35C163.98 210.73 152.94 199.69 139.32 199.69C125.71 199.69 114.67 210.73 114.67 224.35C114.67 237.96 125.71 249 139.32 249Z" fill="#FFFFFF" fill-opacity="1.000000" fill-rule="nonzero"/>
            <path id="circle7697" d="M139.32 245.58C151.05 245.58 160.56 236.07 160.56 224.35C160.56 212.62 151.05 203.11 139.32 203.11C127.6 203.11 118.09 212.62 118.09 224.35C118.09 236.07 127.6 245.58 139.32 245.58Z" fill="#454D9A" fill-opacity="1.000000" fill-rule="nonzero"/>
            <path id="path7699 (Stroke)" d="M138.67 237.66C139.53 237.7 140.4 237.66 141.24 237.54C142.23 237.39 142.92 236.48 142.77 235.49C142.63 234.5 141.71 233.82 140.72 233.96C140.11 234.05 139.48 234.09 138.84 234.05C138.21 234.02 137.59 233.93 136.98 233.78C136.01 233.54 135.03 234.13 134.79 235.1C134.55 236.06 135.14 237.04 136.11 237.28C136.94 237.49 137.8 237.62 138.67 237.66ZM143.62 235.19C144.13 236.05 145.23 236.34 146.09 235.83C146.83 235.4 147.53 234.89 148.18 234.31C148.83 233.73 149.42 233.1 149.94 232.42C150.54 231.62 150.39 230.49 149.59 229.89C148.8 229.28 147.67 229.44 147.06 230.23C146.68 230.73 146.25 231.19 145.78 231.61C145.31 232.03 144.8 232.4 144.26 232.72C143.4 233.23 143.12 234.33 143.62 235.19ZM133.98 234.71C134.57 233.91 134.39 232.78 133.59 232.19C133.08 231.82 132.61 231.4 132.18 230.94C131.75 230.47 131.37 229.97 131.04 229.44C130.52 228.59 129.41 228.32 128.56 228.84C127.71 229.37 127.45 230.48 127.97 231.33C128.42 232.06 128.94 232.75 129.53 233.39C130.12 234.03 130.76 234.6 131.45 235.11C132.26 235.69 133.39 235.52 133.98 234.71ZM149.99 229.08C150.95 229.34 151.94 228.77 152.2 227.8C152.42 226.98 152.57 226.12 152.63 225.26C152.64 225.08 152.62 224.91 152.59 224.75C152.63 224.59 152.66 224.43 152.66 224.25C152.65 223.38 152.56 222.53 152.39 221.69C152.19 220.71 151.24 220.08 150.26 220.28C149.28 220.48 148.65 221.43 148.85 222.41C148.98 223.02 149.04 223.64 149.05 224.28C149.05 224.4 149.06 224.53 149.09 224.65C149.05 224.76 149.03 224.88 149.02 225.01C148.98 225.64 148.88 226.26 148.71 226.87C148.45 227.83 149.03 228.82 149.99 229.08ZM128.25 228C129.23 227.84 129.9 226.91 129.73 225.93C129.63 225.31 129.59 224.68 129.61 224.05C129.63 223.41 129.71 222.79 129.85 222.18C130.07 221.21 129.46 220.24 128.49 220.02C127.52 219.8 126.55 220.4 126.33 221.38C126.14 222.21 126.03 223.07 126 223.94C125.97 224.8 126.03 225.67 126.17 226.51C126.33 227.5 127.26 228.16 128.25 228ZM149.91 219.45C150.74 218.89 150.96 217.77 150.41 216.94C149.94 216.23 149.39 215.56 148.78 214.94C148.16 214.33 147.5 213.78 146.78 213.3C145.96 212.74 144.84 212.96 144.28 213.78C143.72 214.61 143.94 215.73 144.77 216.29C145.28 216.64 145.77 217.04 146.22 217.49C146.66 217.94 147.06 218.43 147.41 218.95C147.96 219.78 149.08 220 149.91 219.45ZM128.86 219.19C129.67 219.77 130.8 219.57 131.37 218.76C131.73 218.24 132.14 217.77 132.6 217.33C133.06 216.89 133.55 216.5 134.08 216.16C134.92 215.62 135.16 214.51 134.62 213.67C134.09 212.83 132.97 212.58 132.13 213.12C131.41 213.58 130.73 214.12 130.1 214.72C129.47 215.32 128.91 215.98 128.42 216.68C127.85 217.49 128.04 218.62 128.86 219.19ZM143.45 213.43C143.65 212.46 143.03 211.5 142.05 211.3C141.21 211.12 140.35 211.03 139.48 211.02C138.62 211 137.75 211.08 136.91 211.23C135.93 211.42 135.28 212.36 135.46 213.34C135.64 214.32 136.58 214.97 137.57 214.79C138.18 214.67 138.81 214.62 139.44 214.63C140.07 214.63 140.7 214.7 141.31 214.83C142.29 215.03 143.25 214.41 143.45 213.43Z" fill="#FFFFFF" fill-opacity="1.000000" fill-rule="evenodd"/>
            <path id="circle7701" d="M139.32 228.64C141.7 228.64 143.62 226.72 143.62 224.35C143.62 221.97 141.7 220.05 139.32 220.05C136.95 220.05 135.03 221.97 135.03 224.35C135.03 226.72 136.95 228.64 139.32 228.64Z" fill="#FFFFFF" fill-opacity="1.000000" fill-rule="nonzero"/>
            <path id="circle7703" d="M139.32 226.31C140.41 226.31 141.29 225.43 141.29 224.35C141.29 223.26 140.41 222.38 139.32 222.38C138.24 222.38 137.36 223.26 137.36 224.35C137.36 225.43 138.24 226.31 139.32 226.31Z" fill="#454D9A" fill-opacity="1.000000" fill-rule="nonzero"/>
        </g>
    </g>
</svg>
