<svg width="209.000000" height="313.000000" viewBox="0 0 209 313" fill="none" xmlns="http://www.w3.org/2000/svg" xmlns:xlink="http://www.w3.org/1999/xlink">
    <desc>
        Created with Pixso.
    </desc>
    <defs>
        <filter id="filter_4_751_dd" x="0.000000" y="0.000000" width="209.000000" height="313.000000" filterUnits="userSpaceOnUse" color-interpolation-filters="sRGB">
            <feFlood flood-opacity="0" result="BackgroundImageFix"/>
            <feColorMatrix in="SourceAlpha" type="matrix" values="0 0 0 0 0 0 0 0 0 0 0 0 0 0 0 0 0 0 127 0" result="hardAlpha"/>
            <feOffset dx="0" dy="4"/>
            <feGaussianBlur stdDeviation="1.33333"/>
            <feComposite in2="hardAlpha" operator="out" k2="-1" k3="1"/>
            <feColorMatrix type="matrix" values="0 0 0 0 0 0 0 0 0 0 0 0 0 0 0 0 0 0 0.25 0"/>
            <feBlend mode="normal" in2="BackgroundImageFix" result="effect_dropShadow_1"/>
            <feBlend mode="normal" in="SourceGraphic" in2="effect_dropShadow_1" result="shape"/>
        </filter>
        <filter id="filter_4_754_dd" x="4.000000" y="8.000000" width="195.000000" height="297.000000" filterUnits="userSpaceOnUse" color-interpolation-filters="sRGB">
            <feFlood flood-opacity="0" result="BackgroundImageFix"/>
            <feColorMatrix in="SourceAlpha" type="matrix" values="0 0 0 0 0 0 0 0 0 0 0 0 0 0 0 0 0 0 127 0" result="hardAlpha"/>
            <feOffset dx="0" dy="4"/>
            <feGaussianBlur stdDeviation="1.33333"/>
            <feComposite in2="hardAlpha" operator="out" k2="-1" k3="1"/>
            <feColorMatrix type="matrix" values="0 0 0 0 0 0 0 0 0 0 0 0 0 0 0 0 0 0 0.25 0"/>
            <feBlend mode="normal" in2="BackgroundImageFix" result="effect_dropShadow_1"/>
            <feBlend mode="normal" in="SourceGraphic" in2="effect_dropShadow_1" result="shape"/>
        </filter>
        <filter id="filter_4_881_dd" x="25.000000" y="64.000000" width="153.074829" height="194.367798" filterUnits="userSpaceOnUse" color-interpolation-filters="sRGB">
            <feFlood flood-opacity="0" result="BackgroundImageFix"/>
            <feColorMatrix in="SourceAlpha" type="matrix" values="0 0 0 0 0 0 0 0 0 0 0 0 0 0 0 0 0 0 127 0" result="hardAlpha"/>
            <feOffset dx="0" dy="4"/>
            <feGaussianBlur stdDeviation="1.33333"/>
            <feComposite in2="hardAlpha" operator="out" k2="-1" k3="1"/>
            <feColorMatrix type="matrix" values="0 0 0 0 0 0 0 0 0 0 0 0 0 0 0 0 0 0 0.25 0"/>
            <feBlend mode="normal" in2="BackgroundImageFix" result="effect_dropShadow_1"/>
            <feBlend mode="normal" in="SourceGraphic" in2="effect_dropShadow_1" result="shape"/>
        </filter>
    </defs>
    <g filter="url(#filter_4_751_dd)">
        <rect id="Rectangle 1" x="8.000000" rx="20.000000" width="197.000000" height="297.000000" fill="#985B26" fill-opacity="1.000000"/>
        <rect id="Rectangle 1" x="8.500000" y="0.500000" rx="20.000000" width="196.000000" height="296.000000" stroke="#000000" stroke-opacity="1.000000" stroke-width="1.000000"/>
        <g filter="url(#filter_4_754_dd)">
            <rect id="Rectangle 2" x="8.000000" y="8.000000" rx="20.000000" width="187.000000" height="289.000000" fill="#FFF0DB" fill-opacity="1.000000"/>
            <rect id="Rectangle 2" x="8.500000" y="8.500000" rx="20.000000" width="186.000000" height="288.000000" stroke="#000000" stroke-opacity="1.000000" stroke-width="1.000000"/>
        </g>
        <g filter="url(#filter_4_881_dd)">
            <path id="circle7730" d="M62.28 130.57C80.67 130.57 95.57 115.67 95.57 97.28C95.57 78.9 80.67 64 62.28 64C43.9 64 29 78.9 29 97.28C29 115.67 43.9 130.57 62.28 130.57Z" fill="#603B1A" fill-opacity="1.000000" fill-rule="nonzero"/>
            <path id="circle7732" d="M62.28 122.39C76.15 122.39 87.39 111.15 87.39 97.28C87.39 83.42 76.15 72.18 62.28 72.18C48.42 72.18 37.18 83.42 37.18 97.28C37.18 111.15 48.42 122.39 62.28 122.39Z" fill="#FFFFFF" fill-opacity="1.000000" fill-rule="nonzero"/>
            <path id="circle7734" d="M62.28 118.9C74.22 118.9 83.9 109.22 83.9 97.28C83.9 85.34 74.22 75.66 62.28 75.66C50.34 75.66 40.66 85.34 40.66 97.28C40.66 109.22 50.34 118.9 62.28 118.9Z" fill="#454D9A" fill-opacity="1.000000" fill-rule="nonzero"/>
            <path id="path7736 (Stroke)" d="M61.61 110.84C62.5 110.89 63.38 110.84 64.24 110.72C65.24 110.57 65.94 109.64 65.79 108.63C65.65 107.63 64.71 106.93 63.71 107.08C63.08 107.17 62.44 107.2 61.8 107.17C61.15 107.14 60.52 107.04 59.9 106.89C58.91 106.65 57.92 107.25 57.67 108.23C57.43 109.22 58.03 110.21 59.01 110.46C59.86 110.67 60.73 110.8 61.61 110.84ZM66.66 108.33C67.17 109.2 68.3 109.5 69.18 108.98C69.93 108.54 70.64 108.02 71.3 107.43C71.96 106.84 72.56 106.2 73.09 105.5C73.7 104.7 73.55 103.54 72.74 102.93C71.93 102.31 70.78 102.47 70.16 103.28C69.78 103.78 69.34 104.25 68.86 104.68C68.38 105.11 67.86 105.49 67.31 105.81C66.44 106.33 66.14 107.45 66.66 108.33ZM56.84 107.84C57.44 107.02 57.26 105.87 56.44 105.27C55.93 104.9 55.45 104.47 55.01 104C54.57 103.52 54.19 103.01 53.85 102.47C53.32 101.6 52.19 101.33 51.32 101.87C50.46 102.4 50.19 103.53 50.72 104.39C51.18 105.14 51.71 105.84 52.31 106.49C52.91 107.14 53.57 107.73 54.27 108.24C55.09 108.84 56.24 108.66 56.84 107.84ZM73.14 102.1C74.12 102.37 75.13 101.79 75.4 100.8C75.62 99.96 75.77 99.09 75.83 98.21C75.84 98.03 75.83 97.86 75.79 97.7C75.84 97.54 75.86 97.37 75.86 97.19C75.85 96.31 75.76 95.43 75.59 94.58C75.38 93.58 74.41 92.94 73.42 93.14C72.42 93.34 71.78 94.31 71.98 95.31C72.11 95.93 72.18 96.57 72.18 97.22C72.18 97.34 72.2 97.47 72.22 97.59C72.19 97.71 72.17 97.83 72.16 97.96C72.12 98.6 72.01 99.24 71.84 99.85C71.58 100.83 72.16 101.84 73.14 102.1ZM51 101.01C52.01 100.84 52.68 99.89 52.52 98.89C52.42 98.27 52.37 97.63 52.39 96.98C52.41 96.34 52.49 95.7 52.64 95.08C52.86 94.09 52.24 93.1 51.25 92.88C50.26 92.65 49.28 93.27 49.05 94.26C48.86 95.11 48.74 95.98 48.72 96.87C48.69 97.75 48.75 98.63 48.89 99.49C49.06 100.49 50 101.17 51 101.01ZM73.07 92.29C73.91 91.73 74.14 90.59 73.57 89.74C73.09 89.02 72.53 88.34 71.91 87.71C71.28 87.08 70.6 86.52 69.88 86.03C69.04 85.47 67.9 85.69 67.33 86.53C66.76 87.37 66.98 88.51 67.82 89.08C68.35 89.44 68.85 89.85 69.3 90.3C69.76 90.76 70.16 91.26 70.52 91.79C71.08 92.63 72.22 92.86 73.07 92.29ZM51.63 92.04C52.46 92.62 53.6 92.42 54.19 91.59C54.55 91.07 54.97 90.58 55.44 90.14C55.9 89.69 56.41 89.29 56.94 88.95C57.8 88.4 58.05 87.27 57.5 86.41C56.95 85.56 55.81 85.31 54.96 85.86C54.22 86.33 53.53 86.87 52.89 87.48C52.25 88.1 51.68 88.76 51.18 89.48C50.6 90.31 50.8 91.45 51.63 92.04ZM66.48 86.17C66.69 85.18 66.05 84.2 65.06 84C64.21 83.82 63.33 83.72 62.45 83.71C61.56 83.7 60.68 83.78 59.83 83.93C58.83 84.12 58.17 85.08 58.35 86.07C58.54 87.07 59.49 87.73 60.49 87.55C61.12 87.43 61.76 87.38 62.4 87.39C63.05 87.39 63.69 87.47 64.31 87.6C65.3 87.8 66.28 87.17 66.48 86.17Z" fill="#FFFFFF" fill-opacity="1.000000" fill-rule="evenodd"/>
            <path id="circle7738" d="M62.28 101.66C64.7 101.66 66.66 99.7 66.66 97.28C66.66 94.87 64.7 92.91 62.28 92.91C59.87 92.91 57.91 94.87 57.91 97.28C57.91 99.7 59.87 101.66 62.28 101.66Z" fill="#FFFFFF" fill-opacity="1.000000" fill-rule="nonzero"/>
            <path id="circle7740" d="M62.28 99.28C63.39 99.28 64.28 98.39 64.28 97.28C64.28 96.18 63.39 95.29 62.28 95.29C61.18 95.29 60.29 96.18 60.29 97.28C60.29 98.39 61.18 99.28 62.28 99.28Z" fill="#454D9A" fill-opacity="1.000000" fill-rule="nonzero"/>
            <path id="circle7786" d="M140.78 130.57C159.17 130.57 174.07 115.67 174.07 97.28C174.07 78.9 159.17 64 140.78 64C122.4 64 107.49 78.9 107.49 97.28C107.49 115.67 122.4 130.57 140.78 130.57Z" fill="#603B1A" fill-opacity="1.000000" fill-rule="nonzero"/>
            <path id="circle7788" d="M140.78 122.39C154.65 122.39 165.89 111.15 165.89 97.28C165.89 83.42 154.65 72.18 140.78 72.18C126.92 72.18 115.67 83.42 115.67 97.28C115.67 111.15 126.92 122.39 140.78 122.39Z" fill="#FFFFFF" fill-opacity="1.000000" fill-rule="nonzero"/>
            <path id="circle7790" d="M140.78 118.9C152.72 118.9 162.4 109.22 162.4 97.28C162.4 85.34 152.72 75.66 140.78 75.66C128.84 75.66 119.16 85.34 119.16 97.28C119.16 109.22 128.84 118.9 140.78 118.9Z" fill="#454D9A" fill-opacity="1.000000" fill-rule="nonzero"/>
            <path id="path7792 (Stroke)" d="M140.11 110.84C140.99 110.89 141.87 110.84 142.74 110.72C143.74 110.57 144.44 109.64 144.29 108.63C144.14 107.63 143.21 106.93 142.21 107.08C141.58 107.17 140.94 107.2 140.29 107.17C139.65 107.14 139.01 107.04 138.39 106.89C137.41 106.65 136.41 107.25 136.17 108.23C135.92 109.22 136.52 110.21 137.51 110.46C138.36 110.67 139.23 110.8 140.11 110.84ZM145.16 108.33C145.67 109.2 146.8 109.5 147.67 108.98C148.42 108.54 149.14 108.02 149.8 107.43C150.46 106.84 151.06 106.2 151.59 105.5C152.2 104.7 152.04 103.54 151.24 102.93C150.43 102.31 149.27 102.47 148.66 103.28C148.27 103.78 147.84 104.25 147.36 104.68C146.87 105.11 146.35 105.49 145.81 105.81C144.93 106.33 144.64 107.45 145.16 108.33ZM135.34 107.84C135.94 107.02 135.76 105.87 134.94 105.27C134.42 104.9 133.95 104.47 133.51 104C133.07 103.52 132.68 103.01 132.35 102.47C131.82 101.6 130.69 101.33 129.82 101.87C128.96 102.4 128.69 103.53 129.22 104.39C129.67 105.14 130.21 105.84 130.81 106.49C131.41 107.14 132.06 107.73 132.77 108.24C133.59 108.84 134.74 108.66 135.34 107.84ZM151.64 102.1C152.62 102.37 153.63 101.79 153.89 100.8C154.12 99.96 154.26 99.09 154.33 98.21C154.34 98.03 154.32 97.86 154.29 97.7C154.33 97.54 154.36 97.37 154.36 97.19C154.35 96.31 154.26 95.43 154.08 94.58C153.88 93.58 152.91 92.94 151.92 93.14C150.92 93.34 150.28 94.31 150.48 95.31C150.61 95.93 150.67 96.57 150.68 97.22C150.68 97.34 150.69 97.47 150.72 97.59C150.69 97.71 150.67 97.83 150.66 97.96C150.61 98.6 150.51 99.24 150.34 99.85C150.08 100.83 150.66 101.84 151.64 102.1ZM129.5 101.01C130.5 100.84 131.18 99.89 131.02 98.89C130.91 98.27 130.87 97.63 130.89 96.98C130.91 96.34 130.99 95.7 131.13 95.08C131.36 94.09 130.74 93.1 129.75 92.88C128.76 92.65 127.77 93.27 127.55 94.26C127.35 95.11 127.24 95.98 127.21 96.87C127.19 97.75 127.25 98.63 127.39 99.49C127.55 100.49 128.5 101.17 129.5 101.01ZM151.56 92.29C152.41 91.73 152.63 90.59 152.07 89.74C151.59 89.02 151.03 88.34 150.4 87.71C149.78 87.08 149.1 86.52 148.38 86.03C147.54 85.47 146.39 85.69 145.83 86.53C145.26 87.37 145.48 88.51 146.32 89.08C146.85 89.44 147.34 89.85 147.8 90.3C148.25 90.76 148.66 91.26 149.01 91.79C149.58 92.63 150.72 92.86 151.56 92.29ZM130.12 92.04C130.95 92.62 132.1 92.42 132.68 91.59C133.05 91.07 133.47 90.58 133.93 90.14C134.4 89.69 134.9 89.29 135.44 88.95C136.29 88.4 136.54 87.27 136 86.41C135.45 85.56 134.31 85.31 133.46 85.86C132.72 86.33 132.03 86.87 131.39 87.48C130.75 88.1 130.18 88.76 129.68 89.48C129.09 90.31 129.29 91.45 130.12 92.04ZM144.98 86.17C145.19 85.18 144.55 84.2 143.56 84C142.7 83.82 141.83 83.72 140.94 83.71C140.06 83.7 139.18 83.78 138.32 83.93C137.33 84.12 136.66 85.08 136.85 86.07C137.03 87.07 137.99 87.73 138.99 87.55C139.62 87.43 140.25 87.38 140.9 87.39C141.55 87.39 142.18 87.47 142.81 87.6C143.8 87.8 144.77 87.17 144.98 86.17Z" fill="#FFFFFF" fill-opacity="1.000000" fill-rule="evenodd"/>
            <path id="circle7794" d="M140.78 101.66C143.2 101.66 145.16 99.7 145.16 97.28C145.16 94.87 143.2 92.91 140.78 92.91C138.37 92.91 136.41 94.87 136.41 97.28C136.41 99.7 138.37 101.66 140.78 101.66Z" fill="#FFFFFF" fill-opacity="1.000000" fill-rule="nonzero"/>
            <path id="circle7796" d="M140.78 99.28C141.88 99.28 142.78 98.39 142.78 97.28C142.78 96.18 141.88 95.29 140.78 95.29C139.68 95.29 138.78 96.18 138.78 97.28C138.78 98.39 139.68 99.28 140.78 99.28Z" fill="#454D9A" fill-opacity="1.000000" fill-rule="nonzero"/>
            <path id="circle7800" d="M62.28 250.36C80.67 250.36 95.57 235.46 95.57 217.07C95.57 198.69 80.67 183.79 62.28 183.79C43.9 183.79 29 198.69 29 217.07C29 235.46 43.9 250.36 62.28 250.36Z" fill="#603B1A" fill-opacity="1.000000" fill-rule="nonzero"/>
            <path id="circle7802" d="M62.28 242.18C76.15 242.18 87.39 230.94 87.39 217.07C87.39 203.21 76.15 191.97 62.28 191.97C48.42 191.97 37.18 203.21 37.18 217.07C37.18 230.94 48.42 242.18 62.28 242.18Z" fill="#FFFFFF" fill-opacity="1.000000" fill-rule="nonzero"/>
            <path id="circle7804" d="M62.28 238.69C74.22 238.69 83.9 229.01 83.9 217.07C83.9 205.13 74.22 195.45 62.28 195.45C50.34 195.45 40.66 205.13 40.66 217.07C40.66 229.01 50.34 238.69 62.28 238.69Z" fill="#454D9A" fill-opacity="1.000000" fill-rule="nonzero"/>
            <path id="path7806 (Stroke)" d="M61.61 230.63C62.5 230.68 63.38 230.63 64.24 230.51C65.24 230.36 65.94 229.43 65.79 228.42C65.65 227.42 64.71 226.72 63.71 226.87C63.08 226.96 62.44 226.99 61.8 226.96C61.15 226.93 60.52 226.83 59.9 226.68C58.91 226.44 57.92 227.04 57.67 228.02C57.43 229.01 58.03 230 59.01 230.25C59.86 230.46 60.73 230.59 61.61 230.63ZM66.66 228.12C67.17 228.99 68.3 229.29 69.18 228.77C69.93 228.33 70.64 227.81 71.3 227.22C71.96 226.63 72.56 225.99 73.09 225.29C73.7 224.48 73.55 223.33 72.74 222.72C71.93 222.1 70.78 222.26 70.16 223.07C69.78 223.57 69.34 224.04 68.86 224.47C68.38 224.9 67.86 225.28 67.31 225.6C66.44 226.12 66.14 227.24 66.66 228.12ZM56.84 227.63C57.44 226.81 57.26 225.66 56.44 225.06C55.93 224.69 55.45 224.26 55.01 223.79C54.57 223.31 54.19 222.8 53.85 222.26C53.32 221.39 52.19 221.12 51.32 221.66C50.46 222.19 50.19 223.32 50.72 224.18C51.18 224.93 51.71 225.63 52.31 226.28C52.91 226.93 53.57 227.52 54.27 228.03C55.09 228.63 56.24 228.45 56.84 227.63ZM73.14 221.89C74.12 222.16 75.13 221.58 75.4 220.59C75.62 219.75 75.77 218.88 75.83 218C75.84 217.83 75.83 217.65 75.79 217.49C75.84 217.33 75.86 217.16 75.86 216.98C75.85 216.1 75.76 215.22 75.59 214.37C75.38 213.37 74.41 212.73 73.42 212.93C72.42 213.13 71.78 214.1 71.98 215.1C72.11 215.72 72.18 216.36 72.18 217.01C72.18 217.13 72.2 217.26 72.22 217.38C72.19 217.5 72.17 217.62 72.16 217.75C72.12 218.39 72.01 219.03 71.84 219.64C71.58 220.62 72.16 221.63 73.14 221.89ZM51 220.8C52.01 220.63 52.68 219.69 52.52 218.68C52.42 218.06 52.37 217.42 52.39 216.77C52.41 216.13 52.49 215.49 52.64 214.87C52.86 213.88 52.24 212.89 51.25 212.67C50.26 212.44 49.28 213.06 49.05 214.05C48.86 214.9 48.74 215.77 48.72 216.66C48.69 217.54 48.75 218.42 48.89 219.28C49.06 220.28 50 220.96 51 220.8ZM73.07 212.08C73.91 211.52 74.14 210.38 73.57 209.53C73.09 208.81 72.53 208.13 71.91 207.5C71.28 206.87 70.6 206.31 69.88 205.82C69.04 205.26 67.9 205.48 67.33 206.32C66.76 207.16 66.98 208.3 67.82 208.87C68.35 209.23 68.85 209.64 69.3 210.09C69.76 210.55 70.16 211.05 70.52 211.58C71.08 212.42 72.22 212.65 73.07 212.08ZM51.63 211.83C52.46 212.41 53.6 212.21 54.19 211.38C54.55 210.86 54.97 210.37 55.44 209.93C55.9 209.48 56.41 209.08 56.94 208.74C57.8 208.19 58.05 207.06 57.5 206.2C56.95 205.35 55.81 205.1 54.96 205.65C54.22 206.12 53.53 206.66 52.89 207.27C52.25 207.89 51.68 208.55 51.18 209.27C50.6 210.1 50.8 211.24 51.63 211.83ZM66.48 205.96C66.69 204.97 66.05 203.99 65.06 203.79C64.21 203.61 63.33 203.51 62.45 203.5C61.56 203.49 60.68 203.57 59.83 203.72C58.83 203.91 58.17 204.87 58.35 205.86C58.54 206.86 59.49 207.52 60.49 207.34C61.12 207.22 61.76 207.17 62.4 207.18C63.05 207.18 63.69 207.26 64.31 207.39C65.3 207.59 66.28 206.96 66.48 205.96Z" fill="#FFFFFF" fill-opacity="1.000000" fill-rule="evenodd"/>
            <path id="circle7808" d="M62.28 221.45C64.7 221.45 66.66 219.49 66.66 217.07C66.66 214.66 64.7 212.7 62.28 212.7C59.87 212.7 57.91 214.66 57.91 217.07C57.91 219.49 59.87 221.45 62.28 221.45Z" fill="#FFFFFF" fill-opacity="1.000000" fill-rule="nonzero"/>
            <path id="circle7810" d="M62.28 219.07C63.39 219.07 64.28 218.18 64.28 217.07C64.28 215.97 63.39 215.08 62.28 215.08C61.18 215.08 60.29 215.97 60.29 217.07C60.29 218.18 61.18 219.07 62.28 219.07Z" fill="#454D9A" fill-opacity="1.000000" fill-rule="nonzero"/>
            <path id="circle7814" d="M140.78 250.36C159.17 250.36 174.07 235.46 174.07 217.07C174.07 198.69 159.17 183.79 140.78 183.79C122.4 183.79 107.49 198.69 107.49 217.07C107.49 235.46 122.4 250.36 140.78 250.36Z" fill="#603B1A" fill-opacity="1.000000" fill-rule="nonzero"/>
            <path id="circle7816" d="M140.78 242.18C154.65 242.18 165.89 230.94 165.89 217.07C165.89 203.21 154.65 191.97 140.78 191.97C126.92 191.97 115.67 203.21 115.67 217.07C115.67 230.94 126.92 242.18 140.78 242.18Z" fill="#FFFFFF" fill-opacity="1.000000" fill-rule="nonzero"/>
            <path id="circle7818" d="M140.78 238.69C152.72 238.69 162.4 229.01 162.4 217.07C162.4 205.13 152.72 195.45 140.78 195.45C128.84 195.45 119.16 205.13 119.16 217.07C119.16 229.01 128.84 238.69 140.78 238.69Z" fill="#454D9A" fill-opacity="1.000000" fill-rule="nonzero"/>
            <path id="path7820 (Stroke)" d="M140.11 230.63C140.99 230.68 141.87 230.63 142.74 230.51C143.74 230.36 144.44 229.43 144.29 228.42C144.14 227.42 143.21 226.72 142.21 226.87C141.58 226.96 140.94 226.99 140.29 226.96C139.65 226.93 139.01 226.83 138.39 226.68C137.41 226.44 136.41 227.04 136.17 228.02C135.92 229.01 136.52 230 137.51 230.25C138.36 230.46 139.23 230.59 140.11 230.63ZM145.16 228.12C145.67 228.99 146.8 229.29 147.67 228.77C148.42 228.33 149.14 227.81 149.8 227.22C150.46 226.63 151.06 225.99 151.59 225.29C152.2 224.48 152.04 223.33 151.24 222.72C150.43 222.1 149.27 222.26 148.66 223.07C148.27 223.57 147.84 224.04 147.36 224.47C146.87 224.9 146.35 225.28 145.81 225.6C144.93 226.12 144.64 227.24 145.16 228.12ZM135.34 227.63C135.94 226.81 135.76 225.66 134.94 225.06C134.42 224.69 133.95 224.26 133.51 223.79C133.07 223.31 132.68 222.8 132.35 222.26C131.82 221.39 130.69 221.12 129.82 221.66C128.96 222.19 128.69 223.32 129.22 224.18C129.67 224.93 130.21 225.63 130.81 226.28C131.41 226.93 132.06 227.52 132.77 228.03C133.59 228.63 134.74 228.45 135.34 227.63ZM151.64 221.89C152.62 222.16 153.63 221.58 153.89 220.59C154.12 219.75 154.26 218.88 154.33 218C154.34 217.83 154.32 217.65 154.29 217.49C154.33 217.33 154.36 217.16 154.36 216.98C154.35 216.1 154.26 215.22 154.08 214.37C153.88 213.37 152.91 212.73 151.92 212.93C150.92 213.13 150.28 214.1 150.48 215.1C150.61 215.72 150.67 216.36 150.68 217.01C150.68 217.13 150.69 217.26 150.72 217.38C150.69 217.5 150.67 217.62 150.66 217.75C150.61 218.39 150.51 219.03 150.34 219.64C150.08 220.62 150.66 221.63 151.64 221.89ZM129.5 220.8C130.5 220.63 131.18 219.69 131.02 218.68C130.91 218.06 130.87 217.42 130.89 216.77C130.91 216.13 130.99 215.49 131.13 214.87C131.36 213.88 130.74 212.89 129.75 212.67C128.76 212.44 127.77 213.06 127.55 214.05C127.35 214.9 127.24 215.77 127.21 216.66C127.19 217.54 127.25 218.42 127.39 219.28C127.55 220.28 128.5 220.96 129.5 220.8ZM151.56 212.08C152.41 211.52 152.63 210.38 152.07 209.53C151.59 208.81 151.03 208.13 150.4 207.5C149.78 206.87 149.1 206.31 148.38 205.82C147.54 205.26 146.39 205.48 145.83 206.32C145.26 207.16 145.48 208.3 146.32 208.87C146.85 209.23 147.34 209.64 147.8 210.09C148.25 210.55 148.66 211.05 149.01 211.58C149.58 212.42 150.72 212.65 151.56 212.08ZM130.12 211.83C130.95 212.41 132.1 212.21 132.68 211.38C133.05 210.86 133.47 210.37 133.93 209.93C134.4 209.48 134.9 209.08 135.44 208.74C136.29 208.19 136.54 207.06 136 206.2C135.45 205.35 134.31 205.1 133.46 205.65C132.72 206.12 132.03 206.66 131.39 207.27C130.75 207.89 130.18 208.55 129.68 209.27C129.09 210.1 129.29 211.24 130.12 211.83ZM144.98 205.96C145.19 204.97 144.55 203.99 143.56 203.79C142.7 203.61 141.83 203.51 140.94 203.5C140.06 203.49 139.18 203.57 138.32 203.72C137.33 203.91 136.66 204.87 136.85 205.86C137.03 206.86 137.99 207.52 138.99 207.34C139.62 207.22 140.25 207.17 140.9 207.18C141.55 207.18 142.18 207.26 142.81 207.39C143.8 207.59 144.77 206.96 144.98 205.96Z" fill="#FFFFFF" fill-opacity="1.000000" fill-rule="evenodd"/>
            <path id="circle7822" d="M140.78 221.45C143.2 221.45 145.16 219.49 145.16 217.07C145.16 214.66 143.2 212.7 140.78 212.7C138.37 212.7 136.41 214.66 136.41 217.07C136.41 219.49 138.37 221.45 140.78 221.45Z" fill="#FFFFFF" fill-opacity="1.000000" fill-rule="nonzero"/>
            <path id="circle7824" d="M140.78 219.07C141.88 219.07 142.78 218.18 142.78 217.07C142.78 215.97 141.88 215.08 140.78 215.08C139.68 215.08 138.78 215.97 138.78 217.07C138.78 218.18 139.68 219.07 140.78 219.07Z" fill="#454D9A" fill-opacity="1.000000" fill-rule="nonzero"/>
            <path id="circle7828" d="M101.67 190.93C120.06 190.93 134.96 176.03 134.96 157.64C134.96 139.26 120.06 124.35 101.67 124.35C83.29 124.35 68.38 139.26 68.38 157.64C68.38 176.03 83.29 190.93 101.67 190.93Z" fill="#603B1A" fill-opacity="1.000000" fill-rule="nonzero"/>
            <path id="circle7830" d="M101.67 182.75C115.54 182.75 126.78 171.51 126.78 157.64C126.78 143.78 115.54 132.54 101.67 132.54C87.81 132.54 76.57 143.78 76.57 157.64C76.57 171.51 87.81 182.75 101.67 182.75Z" fill="#FFFFFF" fill-opacity="1.000000" fill-rule="nonzero"/>
            <path id="circle7832" d="M101.67 179.26C113.61 179.26 123.29 169.58 123.29 157.64C123.29 145.7 113.61 136.02 101.67 136.02C89.73 136.02 80.05 145.7 80.05 157.64C80.05 169.58 89.73 179.26 101.67 179.26Z" fill="#E9411B" fill-opacity="1.000000" fill-rule="nonzero"/>
            <path id="path7834 (Stroke)" d="M101 171.2C101.88 171.24 102.76 171.2 103.63 171.08C104.63 170.93 105.33 170 105.18 168.99C105.04 167.99 104.1 167.29 103.1 167.44C102.47 167.53 101.83 167.56 101.18 167.53C100.54 167.5 99.9 167.4 99.29 167.25C98.3 167 97.3 167.6 97.06 168.59C96.81 169.58 97.41 170.57 98.4 170.82C99.25 171.03 100.12 171.16 101 171.2ZM106.05 168.69C106.56 169.56 107.69 169.85 108.56 169.34C109.32 168.9 110.03 168.38 110.69 167.79C111.35 167.2 111.95 166.56 112.48 165.86C113.09 165.05 112.93 163.9 112.13 163.28C111.32 162.67 110.17 162.83 109.55 163.64C109.17 164.14 108.73 164.61 108.25 165.04C107.77 165.47 107.25 165.85 106.7 166.17C105.82 166.69 105.53 167.81 106.05 168.69ZM96.23 168.2C96.83 167.38 96.65 166.23 95.83 165.63C95.32 165.26 94.84 164.83 94.4 164.36C93.96 163.88 93.57 163.37 93.24 162.83C92.71 161.96 91.58 161.69 90.71 162.22C89.85 162.75 89.58 163.89 90.11 164.75C90.57 165.5 91.1 166.2 91.7 166.85C92.3 167.5 92.95 168.08 93.66 168.6C94.48 169.2 95.63 169.02 96.23 168.2ZM112.53 162.46C113.51 162.73 114.52 162.14 114.78 161.16C115.01 160.32 115.16 159.45 115.22 158.57C115.23 158.39 115.21 158.22 115.18 158.06C115.22 157.9 115.25 157.73 115.25 157.55C115.24 156.66 115.15 155.79 114.97 154.93C114.77 153.94 113.8 153.3 112.81 153.5C111.81 153.7 111.17 154.67 111.37 155.67C111.5 156.29 111.57 156.93 111.57 157.57C111.57 157.7 111.59 157.83 111.61 157.95C111.58 158.07 111.56 158.19 111.55 158.32C111.5 158.96 111.4 159.6 111.23 160.21C110.97 161.19 111.55 162.2 112.53 162.46ZM90.39 161.36C91.39 161.2 92.07 160.25 91.91 159.25C91.8 158.62 91.76 157.98 91.78 157.34C91.8 156.69 91.88 156.06 92.02 155.44C92.25 154.45 91.63 153.46 90.64 153.24C89.65 153.01 88.67 153.63 88.44 154.62C88.24 155.47 88.13 156.34 88.1 157.23C88.08 158.11 88.14 158.99 88.28 159.85C88.44 160.85 89.39 161.53 90.39 161.36ZM112.45 152.65C113.3 152.09 113.53 150.95 112.96 150.1C112.48 149.38 111.92 148.7 111.3 148.07C110.67 147.44 109.99 146.88 109.27 146.39C108.43 145.82 107.29 146.05 106.72 146.89C106.15 147.73 106.37 148.87 107.21 149.44C107.74 149.8 108.23 150.2 108.69 150.66C109.14 151.12 109.55 151.62 109.9 152.14C110.47 152.99 111.61 153.22 112.45 152.65ZM91.01 152.4C91.84 152.98 92.99 152.78 93.58 151.95C93.94 151.43 94.36 150.94 94.82 150.5C95.29 150.05 95.79 149.65 96.33 149.31C97.19 148.76 97.43 147.63 96.89 146.77C96.34 145.92 95.2 145.67 94.35 146.21C93.61 146.69 92.92 147.23 92.28 147.84C91.64 148.45 91.07 149.12 90.57 149.84C89.98 150.67 90.18 151.81 91.01 152.4ZM105.87 146.53C106.08 145.54 105.44 144.56 104.45 144.35C103.59 144.18 102.72 144.08 101.83 144.07C100.95 144.06 100.07 144.13 99.21 144.29C98.22 144.48 97.56 145.43 97.74 146.43C97.92 147.43 98.88 148.09 99.88 147.91C100.51 147.79 101.15 147.74 101.79 147.75C102.44 147.75 103.07 147.82 103.7 147.95C104.69 148.16 105.66 147.52 105.87 146.53Z" fill="#FFFFFF" fill-opacity="1.000000" fill-rule="evenodd"/>
            <path id="circle7836" d="M101.67 162.02C104.09 162.02 106.05 160.06 106.05 157.64C106.05 155.23 104.09 153.27 101.67 153.27C99.26 153.27 97.3 155.23 97.3 157.64C97.3 160.06 99.26 162.02 101.67 162.02Z" fill="#FFFFFF" fill-opacity="1.000000" fill-rule="nonzero"/>
            <path id="circle7838" d="M101.67 159.64C102.78 159.64 103.67 158.75 103.67 157.64C103.67 156.54 102.78 155.64 101.67 155.64C100.57 155.64 99.67 156.54 99.67 157.64C99.67 158.75 100.57 159.64 101.67 159.64Z" fill="#E9411B" fill-opacity="1.000000" fill-rule="nonzero"/>
        </g>
    </g>
</svg>
