<svg width="201.000000" height="305.000000" viewBox="0 0 201 305" fill="none" xmlns="http://www.w3.org/2000/svg" xmlns:xlink="http://www.w3.org/1999/xlink">
    <desc>
        Created with Pixso.
    </desc>
    <defs>
        <filter id="filter_4_1061_dd" x="0.000000" y="8.000000" width="195.000000" height="297.000000" filterUnits="userSpaceOnUse" color-interpolation-filters="sRGB">
            <feFlood flood-opacity="0" result="BackgroundImageFix"/>
            <feColorMatrix in="SourceAlpha" type="matrix" values="0 0 0 0 0 0 0 0 0 0 0 0 0 0 0 0 0 0 127 0" result="hardAlpha"/>
            <feOffset dx="0" dy="4"/>
            <feGaussianBlur stdDeviation="1.33333"/>
            <feComposite in2="hardAlpha" operator="out" k2="-1" k3="1"/>
            <feColorMatrix type="matrix" values="0 0 0 0 0 0 0 0 0 0 0 0 0 0 0 0 0 0 0.25 0"/>
            <feBlend mode="normal" in2="BackgroundImageFix" result="effect_dropShadow_1"/>
            <feBlend mode="normal" in="SourceGraphic" in2="effect_dropShadow_1" result="shape"/>
        </filter>
        <filter id="filter_4_1245_dd" x="30.167480" y="48.553223" width="132.664917" height="222.904541" filterUnits="userSpaceOnUse" color-interpolation-filters="sRGB">
            <feFlood flood-opacity="0" result="BackgroundImageFix"/>
            <feColorMatrix in="SourceAlpha" type="matrix" values="0 0 0 0 0 0 0 0 0 0 0 0 0 0 0 0 0 0 127 0" result="hardAlpha"/>
            <feOffset dx="0" dy="4"/>
            <feGaussianBlur stdDeviation="1.33333"/>
            <feComposite in2="hardAlpha" operator="out" k2="-1" k3="1"/>
            <feColorMatrix type="matrix" values="0 0 0 0 0 0 0 0 0 0 0 0 0 0 0 0 0 0 0.25 0"/>
            <feBlend mode="normal" in2="BackgroundImageFix" result="effect_dropShadow_1"/>
            <feBlend mode="normal" in="SourceGraphic" in2="effect_dropShadow_1" result="shape"/>
        </filter>
    </defs>
    <rect id="Rectangle 1" x="4.000000" rx="20.000000" width="197.000000" height="297.000000" fill="#985B26" fill-opacity="1.000000"/>
    <rect id="Rectangle 1" x="4.500000" y="0.500000" rx="20.000000" width="196.000000" height="296.000000" stroke="#000000" stroke-opacity="1.000000" stroke-width="1.000000"/>
    <g filter="url(#filter_4_1061_dd)">
        <rect id="Rectangle 2" x="4.000000" y="8.000000" rx="20.000000" width="187.000000" height="289.000000" fill="#FFF0DB" fill-opacity="1.000000"/>
        <rect id="Rectangle 2" x="4.500000" y="8.500000" rx="20.000000" width="186.000000" height="288.000000" stroke="#000000" stroke-opacity="1.000000" stroke-width="1.000000"/>
    </g>
    <g filter="url(#filter_4_1245_dd)">
        <path id="circle8575" d="M67.78 115.78C86.34 115.78 101.39 100.73 101.39 82.16C101.39 63.6 86.34 48.55 67.78 48.55C49.21 48.55 34.16 63.6 34.16 82.16C34.16 100.73 49.21 115.78 67.78 115.78Z" fill="#603B1A" fill-opacity="1.000000" fill-rule="nonzero"/>
        <path id="circle8589" d="M67.78 165.28C86.34 165.28 101.39 150.23 101.39 131.66C101.39 113.1 86.34 98.05 67.78 98.05C49.21 98.05 34.16 113.1 34.16 131.66C34.16 150.23 49.21 165.28 67.78 165.28Z" fill="#603B1A" fill-opacity="1.000000" fill-rule="nonzero"/>
        <path id="circle8619" d="M67.78 213.95C86.34 213.95 101.39 198.9 101.39 180.34C101.39 161.77 86.34 146.72 67.78 146.72C49.21 146.72 34.16 161.77 34.16 180.34C34.16 198.9 49.21 213.95 67.78 213.95Z" fill="#603B1A" fill-opacity="1.000000" fill-rule="nonzero"/>
        <path id="circle8633" d="M67.78 263.45C86.34 263.45 101.39 248.4 101.39 229.84C101.39 211.27 86.34 196.22 67.78 196.22C49.21 196.22 34.16 211.27 34.16 229.84C34.16 248.4 49.21 263.45 67.78 263.45Z" fill="#603B1A" fill-opacity="1.000000" fill-rule="nonzero"/>
        <path id="circle8647" d="M125.21 115.78C143.78 115.78 158.83 100.73 158.83 82.16C158.83 63.6 143.78 48.55 125.21 48.55C106.65 48.55 91.6 63.6 91.6 82.16C91.6 100.73 106.65 115.78 125.21 115.78Z" fill="#603B1A" fill-opacity="1.000000" fill-rule="nonzero"/>
        <path id="circle8661" d="M125.21 165.28C143.78 165.28 158.83 150.23 158.83 131.66C158.83 113.1 143.78 98.05 125.21 98.05C106.65 98.05 91.6 113.1 91.6 131.66C91.6 150.23 106.65 165.28 125.21 165.28Z" fill="#603B1A" fill-opacity="1.000000" fill-rule="nonzero"/>
        <path id="circle8675" d="M125.21 213.95C143.78 213.95 158.83 198.9 158.83 180.34C158.83 161.77 143.78 146.72 125.21 146.72C106.65 146.72 91.6 161.77 91.6 180.34C91.6 198.9 106.65 213.95 125.21 213.95Z" fill="#603B1A" fill-opacity="1.000000" fill-rule="nonzero"/>
        <path id="circle8689" d="M125.21 263.45C143.78 263.45 158.83 248.4 158.83 229.84C158.83 211.27 143.78 196.22 125.21 196.22C106.65 196.22 91.6 211.27 91.6 229.84C91.6 248.4 106.65 263.45 125.21 263.45Z" fill="#603B1A" fill-opacity="1.000000" fill-rule="nonzero"/>
        <path id="circle8577" d="M67.78 107.52C81.78 107.52 93.13 96.16 93.13 82.16C93.13 68.16 81.78 56.81 67.78 56.81C53.78 56.81 42.43 68.16 42.43 82.16C42.43 96.16 53.78 107.52 67.78 107.52Z" fill="#FFFFFF" fill-opacity="1.000000" fill-rule="nonzero"/>
        <path id="circle8579" d="M67.78 103.99C79.83 103.99 89.61 94.22 89.61 82.16C89.61 70.11 79.83 60.33 67.78 60.33C55.72 60.33 45.95 70.11 45.95 82.16C45.95 94.22 55.72 103.99 67.78 103.99Z" fill="#454D9A" fill-opacity="1.000000" fill-rule="nonzero"/>
        <path id="path8581 (Stroke)" d="M67.1 95.85C67.99 95.9 68.88 95.85 69.75 95.73C70.77 95.58 71.47 94.64 71.32 93.62C71.17 92.61 70.23 91.91 69.22 92.05C68.58 92.15 67.93 92.18 67.28 92.15C66.63 92.11 65.99 92.02 65.37 91.86C64.37 91.62 63.37 92.22 63.12 93.22C62.87 94.21 63.48 95.22 64.47 95.47C65.33 95.68 66.21 95.81 67.1 95.85ZM72.2 93.32C72.72 94.2 73.85 94.49 74.74 93.97C75.5 93.53 76.22 93 76.88 92.41C77.55 91.82 78.15 91.16 78.69 90.46C79.31 89.65 79.15 88.48 78.33 87.86C77.52 87.24 76.35 87.4 75.73 88.21C75.34 88.73 74.9 89.2 74.42 89.63C73.93 90.07 73.41 90.45 72.85 90.77C71.97 91.29 71.67 92.43 72.2 93.32ZM62.28 92.82C62.89 92 62.71 90.84 61.88 90.23C61.36 89.85 60.87 89.42 60.43 88.94C59.99 88.46 59.6 87.95 59.26 87.4C58.73 86.52 57.58 86.25 56.71 86.79C55.84 87.33 55.56 88.47 56.1 89.34C56.56 90.09 57.1 90.8 57.7 91.46C58.31 92.12 58.97 92.71 59.69 93.23C60.51 93.83 61.67 93.65 62.28 92.82ZM78.74 87.03C79.73 87.29 80.75 86.71 81.02 85.72C81.25 84.87 81.39 83.99 81.45 83.1C81.47 82.92 81.45 82.75 81.42 82.58C81.46 82.42 81.49 82.25 81.49 82.07C81.48 81.17 81.39 80.29 81.21 79.43C81.01 78.42 80.03 77.77 79.02 77.98C78.02 78.18 77.37 79.16 77.57 80.17C77.7 80.8 77.77 81.44 77.77 82.09C77.77 82.22 77.79 82.35 77.81 82.47C77.78 82.59 77.76 82.72 77.75 82.85C77.71 83.5 77.6 84.13 77.43 84.75C77.17 85.74 77.75 86.76 78.74 87.03ZM56.39 85.92C57.4 85.75 58.08 84.8 57.92 83.79C57.81 83.15 57.77 82.51 57.79 81.86C57.81 81.2 57.89 80.56 58.03 79.94C58.26 78.94 57.64 77.94 56.64 77.71C55.64 77.48 54.64 78.11 54.42 79.11C54.22 79.97 54.1 80.85 54.08 81.74C54.05 82.64 54.11 83.52 54.25 84.39C54.42 85.4 55.37 86.09 56.39 85.92ZM78.66 77.12C79.52 76.55 79.75 75.4 79.18 74.55C78.69 73.82 78.13 73.13 77.5 72.49C76.87 71.86 76.18 71.3 75.45 70.8C74.6 70.23 73.45 70.45 72.87 71.3C72.3 72.15 72.52 73.31 73.37 73.88C73.9 74.24 74.4 74.65 74.86 75.11C75.32 75.58 75.73 76.08 76.09 76.61C76.66 77.46 77.81 77.69 78.66 77.12ZM57.02 76.87C57.85 77.46 59.01 77.25 59.6 76.41C59.97 75.89 60.39 75.4 60.86 74.95C61.33 74.5 61.84 74.1 62.38 73.75C63.25 73.2 63.5 72.05 62.94 71.18C62.39 70.32 61.24 70.07 60.38 70.62C59.64 71.1 58.94 71.65 58.29 72.27C57.65 72.88 57.07 73.56 56.56 74.28C55.97 75.12 56.18 76.28 57.02 76.87ZM72.02 70.94C72.23 69.94 71.58 68.95 70.58 68.74C69.72 68.56 68.83 68.47 67.94 68.46C67.05 68.45 66.16 68.52 65.3 68.68C64.29 68.87 63.62 69.84 63.81 70.84C63.99 71.85 64.96 72.52 65.97 72.33C66.6 72.22 67.25 72.16 67.9 72.17C68.55 72.18 69.19 72.25 69.82 72.38C70.83 72.59 71.81 71.95 72.02 70.94Z" fill="#FFFFFF" fill-opacity="1.000000" fill-rule="evenodd"/>
        <path id="circle8583" d="M67.78 86.58C70.22 86.58 72.19 84.6 72.19 82.16C72.19 79.72 70.22 77.75 67.78 77.75C65.34 77.75 63.36 79.72 63.36 82.16C63.36 84.6 65.34 86.58 67.78 86.58Z" fill="#FFFFFF" fill-opacity="1.000000" fill-rule="nonzero"/>
        <path id="circle8585" d="M67.78 84.18C68.89 84.18 69.79 83.28 69.79 82.16C69.79 81.05 68.89 80.15 67.78 80.15C66.66 80.15 65.76 81.05 65.76 82.16C65.76 83.28 66.66 84.18 67.78 84.18Z" fill="#454D9A" fill-opacity="1.000000" fill-rule="nonzero"/>
        <path id="circle8591" d="M67.78 157.02C81.78 157.02 93.13 145.66 93.13 131.66C93.13 117.66 81.78 106.31 67.78 106.31C53.78 106.31 42.43 117.66 42.43 131.66C42.43 145.66 53.78 157.02 67.78 157.02Z" fill="#FFFFFF" fill-opacity="1.000000" fill-rule="nonzero"/>
        <path id="circle8593" d="M67.78 153.49C79.83 153.49 89.61 143.72 89.61 131.66C89.61 119.61 79.83 109.83 67.78 109.83C55.72 109.83 45.95 119.61 45.95 131.66C45.95 143.72 55.72 153.49 67.78 153.49Z" fill="#454D9A" fill-opacity="1.000000" fill-rule="nonzero"/>
        <path id="path8595 (Stroke)" d="M67.1 145.35C67.99 145.4 68.88 145.36 69.75 145.23C70.77 145.08 71.47 144.14 71.32 143.12C71.17 142.11 70.23 141.41 69.22 141.55C68.58 141.65 67.93 141.68 67.28 141.65C66.63 141.61 65.99 141.52 65.37 141.36C64.37 141.12 63.37 141.72 63.12 142.72C62.87 143.71 63.48 144.72 64.47 144.97C65.33 145.18 66.21 145.31 67.1 145.35ZM72.2 142.82C72.72 143.7 73.85 143.99 74.74 143.47C75.5 143.03 76.22 142.5 76.88 141.91C77.55 141.32 78.15 140.66 78.69 139.96C79.31 139.15 79.15 137.98 78.33 137.36C77.52 136.74 76.35 136.9 75.73 137.71C75.34 138.23 74.9 138.7 74.42 139.13C73.93 139.57 73.41 139.95 72.85 140.27C71.97 140.8 71.67 141.93 72.2 142.82ZM62.28 142.32C62.89 141.5 62.71 140.34 61.88 139.73C61.36 139.35 60.87 138.92 60.43 138.44C59.99 137.96 59.6 137.45 59.26 136.9C58.73 136.03 57.58 135.75 56.71 136.29C55.84 136.83 55.56 137.97 56.1 138.84C56.56 139.59 57.1 140.3 57.7 140.96C58.31 141.62 58.97 142.21 59.69 142.73C60.51 143.33 61.67 143.15 62.28 142.32ZM78.74 136.53C79.73 136.8 80.75 136.21 81.02 135.22C81.25 134.37 81.39 133.49 81.45 132.6C81.47 132.42 81.45 132.25 81.42 132.08C81.46 131.92 81.49 131.75 81.49 131.57C81.48 130.67 81.39 129.79 81.21 128.93C81.01 127.92 80.03 127.28 79.02 127.48C78.02 127.68 77.37 128.66 77.57 129.67C77.7 130.3 77.77 130.94 77.77 131.59C77.77 131.72 77.79 131.85 77.81 131.97C77.78 132.09 77.76 132.22 77.75 132.35C77.71 133 77.6 133.64 77.43 134.25C77.17 135.25 77.75 136.26 78.74 136.53ZM56.39 135.42C57.4 135.25 58.08 134.3 57.92 133.29C57.81 132.65 57.77 132.01 57.79 131.36C57.81 130.71 57.89 130.06 58.03 129.44C58.26 128.44 57.64 127.44 56.64 127.21C55.64 126.98 54.64 127.61 54.42 128.61C54.22 129.47 54.1 130.35 54.08 131.24C54.05 132.14 54.11 133.02 54.25 133.89C54.42 134.9 55.37 135.59 56.39 135.42ZM78.66 126.62C79.52 126.06 79.75 124.9 79.18 124.05C78.69 123.32 78.13 122.63 77.5 122C76.87 121.36 76.18 120.8 75.45 120.3C74.6 119.73 73.45 119.95 72.87 120.8C72.3 121.65 72.52 122.81 73.37 123.38C73.9 123.74 74.4 124.15 74.86 124.61C75.32 125.08 75.73 125.58 76.09 126.11C76.66 126.96 77.81 127.19 78.66 126.62ZM57.02 126.37C57.85 126.96 59.01 126.75 59.6 125.92C59.97 125.39 60.39 124.9 60.86 124.45C61.33 124 61.84 123.6 62.38 123.25C63.25 122.7 63.5 121.55 62.94 120.68C62.39 119.82 61.24 119.57 60.38 120.12C59.64 120.6 58.94 121.15 58.29 121.77C57.65 122.38 57.07 123.06 56.56 123.78C55.97 124.62 56.18 125.78 57.02 126.37ZM72.02 120.44C72.23 119.44 71.58 118.45 70.58 118.25C69.72 118.07 68.83 117.97 67.94 117.96C67.05 117.95 66.16 118.02 65.3 118.18C64.29 118.37 63.62 119.34 63.81 120.34C63.99 121.35 64.96 122.02 65.97 121.83C66.6 121.72 67.25 121.66 67.9 121.67C68.55 121.68 69.19 121.75 69.82 121.88C70.83 122.09 71.81 121.45 72.02 120.44Z" fill="#FFFFFF" fill-opacity="1.000000" fill-rule="evenodd"/>
        <path id="circle8597" d="M67.78 136.08C70.22 136.08 72.19 134.1 72.19 131.66C72.19 129.22 70.22 127.25 67.78 127.25C65.34 127.25 63.36 129.22 63.36 131.66C63.36 134.1 65.34 136.08 67.78 136.08Z" fill="#FFFFFF" fill-opacity="1.000000" fill-rule="nonzero"/>
        <path id="circle8599" d="M67.78 133.68C68.89 133.68 69.79 132.78 69.79 131.66C69.79 130.55 68.89 129.65 67.78 129.65C66.66 129.65 65.76 130.55 65.76 131.66C65.76 132.78 66.66 133.68 67.78 133.68Z" fill="#454D9A" fill-opacity="1.000000" fill-rule="nonzero"/>
        <path id="circle8621" d="M67.78 205.69C81.78 205.69 93.13 194.34 93.13 180.34C93.13 166.34 81.78 154.99 67.78 154.99C53.78 154.99 42.43 166.34 42.43 180.34C42.43 194.34 53.78 205.69 67.78 205.69Z" fill="#FFFFFF" fill-opacity="1.000000" fill-rule="nonzero"/>
        <path id="circle8623" d="M67.78 202.17C79.83 202.17 89.61 192.4 89.61 180.34C89.61 168.28 79.83 158.51 67.78 158.51C55.72 158.51 45.95 168.28 45.95 180.34C45.95 192.4 55.72 202.17 67.78 202.17Z" fill="#454D9A" fill-opacity="1.000000" fill-rule="nonzero"/>
        <path id="path8625 (Stroke)" d="M67.1 194.03C67.99 194.07 68.88 194.03 69.75 193.9C70.77 193.76 71.47 192.81 71.32 191.8C71.17 190.78 70.23 190.08 69.22 190.23C68.58 190.32 67.93 190.35 67.28 190.32C66.63 190.29 65.99 190.19 65.37 190.04C64.37 189.79 63.37 190.4 63.12 191.39C62.87 192.39 63.48 193.39 64.47 193.64C65.33 193.85 66.21 193.99 67.1 194.03ZM72.2 191.49C72.72 192.37 73.85 192.67 74.74 192.15C75.5 191.7 76.22 191.18 76.88 190.59C77.55 189.99 78.15 189.34 78.69 188.64C79.31 187.82 79.15 186.66 78.33 186.04C77.52 185.42 76.35 185.57 75.73 186.39C75.34 186.9 74.9 187.38 74.42 187.81C73.93 188.24 73.41 188.62 72.85 188.95C71.97 189.47 71.67 190.61 72.2 191.49ZM62.28 191C62.89 190.17 62.71 189.01 61.88 188.41C61.36 188.03 60.87 187.6 60.43 187.12C59.99 186.64 59.6 186.12 59.26 185.57C58.73 184.7 57.58 184.43 56.71 184.96C55.84 185.5 55.56 186.64 56.1 187.52C56.56 188.27 57.1 188.98 57.7 189.63C58.31 190.29 58.97 190.88 59.69 191.4C60.51 192.01 61.67 191.83 62.28 191ZM78.74 185.2C79.73 185.47 80.75 184.88 81.02 183.89C81.25 183.04 81.39 182.17 81.45 181.27C81.47 181.1 81.45 180.92 81.42 180.76C81.46 180.59 81.49 180.42 81.49 180.24C81.48 179.35 81.39 178.47 81.21 177.6C81.01 176.6 80.03 175.95 79.02 176.15C78.02 176.36 77.37 177.34 77.57 178.34C77.7 178.97 77.77 179.62 77.77 180.27C77.77 180.4 77.79 180.53 77.81 180.65C77.78 180.77 77.76 180.89 77.75 181.02C77.71 181.67 77.6 182.31 77.43 182.93C77.17 183.92 77.75 184.94 78.74 185.2ZM56.39 184.1C57.4 183.93 58.08 182.97 57.92 181.96C57.81 181.33 57.77 180.68 57.79 180.03C57.81 179.38 57.89 178.74 58.03 178.11C58.26 177.11 57.64 176.12 56.64 175.89C55.64 175.66 54.64 176.28 54.42 177.28C54.22 178.14 54.1 179.02 54.08 179.92C54.05 180.81 54.11 181.7 54.25 182.57C54.42 183.58 55.37 184.26 56.39 184.1ZM78.66 175.3C79.52 174.73 79.75 173.58 79.18 172.72C78.69 171.99 78.13 171.3 77.5 170.67C76.87 170.04 76.18 169.47 75.45 168.98C74.6 168.4 73.45 168.63 72.87 169.48C72.3 170.33 72.52 171.48 73.37 172.06C73.9 172.41 74.4 172.83 74.86 173.29C75.32 173.75 75.73 174.25 76.09 174.79C76.66 175.64 77.81 175.87 78.66 175.3ZM57.02 175.04C57.85 175.63 59.01 175.43 59.6 174.59C59.97 174.07 60.39 173.57 60.86 173.12C61.33 172.67 61.84 172.27 62.38 171.92C63.25 171.37 63.5 170.22 62.94 169.36C62.39 168.5 61.24 168.25 60.38 168.8C59.64 169.27 58.94 169.82 58.29 170.44C57.65 171.06 57.07 171.73 56.56 172.46C55.97 173.29 56.18 174.45 57.02 175.04ZM72.02 169.12C72.23 168.11 71.58 167.13 70.58 166.92C69.72 166.74 68.83 166.64 67.94 166.63C67.05 166.62 66.16 166.7 65.3 166.86C64.29 167.04 63.62 168.01 63.81 169.02C63.99 170.03 64.96 170.69 65.97 170.51C66.6 170.39 67.25 170.34 67.9 170.34C68.55 170.35 69.19 170.42 69.82 170.55C70.83 170.76 71.81 170.12 72.02 169.12Z" fill="#FFFFFF" fill-opacity="1.000000" fill-rule="evenodd"/>
        <path id="circle8627" d="M67.78 184.76C70.22 184.76 72.19 182.78 72.19 180.34C72.19 177.9 70.22 175.92 67.78 175.92C65.34 175.92 63.36 177.9 63.36 180.34C63.36 182.78 65.34 184.76 67.78 184.76Z" fill="#FFFFFF" fill-opacity="1.000000" fill-rule="nonzero"/>
        <path id="circle8629" d="M67.78 182.36C68.89 182.36 69.79 181.45 69.79 180.34C69.79 179.22 68.89 178.32 67.78 178.32C66.66 178.32 65.76 179.22 65.76 180.34C65.76 181.45 66.66 182.36 67.78 182.36Z" fill="#454D9A" fill-opacity="1.000000" fill-rule="nonzero"/>
        <path id="circle8635" d="M67.78 255.19C81.78 255.19 93.13 243.84 93.13 229.84C93.13 215.84 81.78 204.49 67.78 204.49C53.78 204.49 42.43 215.84 42.43 229.84C42.43 243.84 53.78 255.19 67.78 255.19Z" fill="#FFFFFF" fill-opacity="1.000000" fill-rule="nonzero"/>
        <path id="circle8637" d="M67.78 251.67C79.83 251.67 89.61 241.9 89.61 229.84C89.61 217.78 79.83 208.01 67.78 208.01C55.72 208.01 45.95 217.78 45.95 229.84C45.95 241.9 55.72 251.67 67.78 251.67Z" fill="#454D9A" fill-opacity="1.000000" fill-rule="nonzero"/>
        <path id="path8639 (Stroke)" d="M67.1 243.53C67.99 243.57 68.88 243.53 69.75 243.4C70.77 243.26 71.47 242.31 71.32 241.3C71.17 240.28 70.23 239.58 69.22 239.73C68.58 239.82 67.93 239.85 67.28 239.82C66.63 239.79 65.99 239.69 65.37 239.54C64.37 239.29 63.37 239.9 63.12 240.89C62.87 241.89 63.48 242.89 64.47 243.14C65.33 243.35 66.21 243.49 67.1 243.53ZM72.2 240.99C72.72 241.87 73.85 242.17 74.74 241.65C75.5 241.2 76.22 240.68 76.88 240.08C77.55 239.49 78.15 238.84 78.69 238.14C79.31 237.32 79.15 236.16 78.33 235.54C77.52 234.92 76.35 235.07 75.73 235.89C75.34 236.4 74.9 236.88 74.42 237.31C73.93 237.74 73.41 238.12 72.85 238.45C71.97 238.97 71.67 240.11 72.2 240.99ZM62.28 240.5C62.89 239.67 62.71 238.51 61.88 237.91C61.36 237.53 60.87 237.1 60.43 236.62C59.99 236.14 59.6 235.62 59.26 235.07C58.73 234.2 57.58 233.93 56.71 234.46C55.84 235 55.56 236.14 56.1 237.02C56.56 237.77 57.1 238.48 57.7 239.13C58.31 239.79 58.97 240.38 59.69 240.9C60.51 241.51 61.67 241.33 62.28 240.5ZM78.74 234.7C79.73 234.97 80.75 234.38 81.02 233.39C81.25 232.54 81.39 231.67 81.45 230.77C81.47 230.6 81.45 230.42 81.42 230.26C81.46 230.09 81.49 229.92 81.49 229.74C81.48 228.85 81.39 227.97 81.21 227.1C81.01 226.1 80.03 225.45 79.02 225.65C78.02 225.86 77.37 226.84 77.57 227.84C77.7 228.47 77.77 229.12 77.77 229.77C77.77 229.9 77.79 230.03 77.81 230.15C77.78 230.27 77.76 230.39 77.75 230.52C77.71 231.17 77.6 231.81 77.43 232.43C77.17 233.42 77.75 234.44 78.74 234.7ZM56.39 233.6C57.4 233.43 58.08 232.47 57.92 231.46C57.81 230.83 57.77 230.18 57.79 229.53C57.81 228.88 57.89 228.24 58.03 227.61C58.26 226.61 57.64 225.62 56.64 225.39C55.64 225.16 54.64 225.78 54.42 226.78C54.22 227.64 54.1 228.52 54.08 229.42C54.05 230.31 54.11 231.2 54.25 232.07C54.42 233.08 55.37 233.76 56.39 233.6ZM78.66 224.8C79.52 224.23 79.75 223.08 79.18 222.22C78.69 221.49 78.13 220.8 77.5 220.17C76.87 219.54 76.18 218.97 75.45 218.48C74.6 217.9 73.45 218.13 72.87 218.98C72.3 219.83 72.52 220.98 73.37 221.56C73.9 221.91 74.4 222.33 74.86 222.79C75.32 223.25 75.73 223.75 76.09 224.29C76.66 225.14 77.81 225.37 78.66 224.8ZM57.02 224.54C57.85 225.13 59.01 224.93 59.6 224.09C59.97 223.57 60.39 223.07 60.86 222.62C61.33 222.17 61.84 221.77 62.38 221.42C63.25 220.87 63.5 219.72 62.94 218.86C62.39 218 61.24 217.75 60.38 218.3C59.64 218.77 58.94 219.32 58.29 219.94C57.65 220.56 57.07 221.23 56.56 221.96C55.97 222.79 56.18 223.95 57.02 224.54ZM72.02 218.62C72.23 217.61 71.58 216.63 70.58 216.42C69.72 216.24 68.83 216.14 67.94 216.13C67.05 216.12 66.16 216.2 65.3 216.36C64.29 216.54 63.62 217.51 63.81 218.52C63.99 219.53 64.96 220.19 65.97 220.01C66.6 219.89 67.25 219.84 67.9 219.84C68.55 219.85 69.19 219.92 69.82 220.05C70.83 220.26 71.81 219.62 72.02 218.62Z" fill="#FFFFFF" fill-opacity="1.000000" fill-rule="evenodd"/>
        <path id="circle8641" d="M67.78 234.26C70.22 234.26 72.19 232.28 72.19 229.84C72.19 227.4 70.22 225.42 67.78 225.42C65.34 225.42 63.36 227.4 63.36 229.84C63.36 232.28 65.34 234.26 67.78 234.26Z" fill="#FFFFFF" fill-opacity="1.000000" fill-rule="nonzero"/>
        <path id="circle8643" d="M67.78 231.86C68.89 231.86 69.79 230.95 69.79 229.84C69.79 228.72 68.89 227.82 67.78 227.82C66.66 227.82 65.76 228.72 65.76 229.84C65.76 230.95 66.66 231.86 67.78 231.86Z" fill="#454D9A" fill-opacity="1.000000" fill-rule="nonzero"/>
        <path id="circle8649" d="M125.21 107.52C139.21 107.52 150.57 96.16 150.57 82.16C150.57 68.16 139.21 56.81 125.21 56.81C111.21 56.81 99.86 68.16 99.86 82.16C99.86 96.16 111.21 107.52 125.21 107.52Z" fill="#FFFFFF" fill-opacity="1.000000" fill-rule="nonzero"/>
        <path id="circle8651" d="M125.21 103.99C137.27 103.99 147.04 94.22 147.04 82.16C147.04 70.11 137.27 60.33 125.21 60.33C113.16 60.33 103.38 70.11 103.38 82.16C103.38 94.22 113.16 103.99 125.21 103.99Z" fill="#454D9A" fill-opacity="1.000000" fill-rule="nonzero"/>
        <path id="path8653 (Stroke)" d="M124.54 95.85C125.43 95.9 126.32 95.85 127.19 95.73C128.2 95.58 128.91 94.64 128.76 93.62C128.61 92.61 127.67 91.91 126.65 92.05C126.02 92.15 125.37 92.18 124.72 92.15C124.07 92.11 123.43 92.02 122.8 91.86C121.81 91.62 120.8 92.22 120.55 93.22C120.31 94.21 120.91 95.22 121.91 95.47C122.76 95.68 123.64 95.81 124.54 95.85ZM129.63 93.32C130.15 94.2 131.29 94.49 132.17 93.97C132.93 93.53 133.65 93 134.32 92.41C134.99 91.82 135.59 91.16 136.12 90.46C136.74 89.65 136.59 88.48 135.77 87.86C134.95 87.24 133.79 87.4 133.17 88.21C132.78 88.73 132.34 89.2 131.85 89.63C131.37 90.07 130.84 90.45 130.29 90.77C129.4 91.29 129.11 92.43 129.63 93.32ZM119.72 92.82C120.32 92 120.14 90.84 119.31 90.23C118.8 89.85 118.31 89.42 117.87 88.94C117.43 88.46 117.04 87.95 116.7 87.4C116.16 86.52 115.02 86.25 114.15 86.79C113.27 87.33 113 88.47 113.54 89.34C114 90.09 114.53 90.8 115.14 91.46C115.75 92.12 116.41 92.71 117.12 93.23C117.95 93.83 119.11 93.65 119.72 92.82ZM136.18 87.03C137.17 87.29 138.19 86.71 138.45 85.72C138.68 84.87 138.83 83.99 138.89 83.1C138.9 82.92 138.89 82.75 138.85 82.58C138.9 82.42 138.92 82.25 138.92 82.07C138.92 81.17 138.82 80.29 138.65 79.43C138.44 78.42 137.46 77.77 136.46 77.98C135.45 78.18 134.8 79.16 135.01 80.17C135.14 80.8 135.2 81.44 135.21 82.09C135.21 82.22 135.22 82.35 135.25 82.47C135.22 82.59 135.19 82.72 135.19 82.85C135.14 83.5 135.03 84.13 134.87 84.75C134.6 85.74 135.19 86.76 136.18 87.03ZM113.82 85.92C114.83 85.75 115.52 84.8 115.35 83.79C115.25 83.15 115.2 82.51 115.22 81.86C115.24 81.2 115.33 80.56 115.47 79.94C115.7 78.94 115.07 77.94 114.07 77.71C113.07 77.48 112.08 78.11 111.85 79.11C111.65 79.97 111.54 80.85 111.51 81.74C111.49 82.64 111.55 83.52 111.69 84.39C111.86 85.4 112.81 86.09 113.82 85.92ZM136.1 77.12C136.95 76.55 137.18 75.4 136.61 74.55C136.12 73.82 135.56 73.13 134.93 72.49C134.3 71.86 133.62 71.3 132.88 70.8C132.03 70.23 130.88 70.45 130.31 71.3C129.73 72.15 129.96 73.31 130.81 73.88C131.34 74.24 131.84 74.65 132.3 75.11C132.76 75.58 133.17 76.08 133.53 76.61C134.09 77.46 135.25 77.69 136.1 77.12ZM114.45 76.87C115.29 77.46 116.45 77.25 117.04 76.41C117.41 75.89 117.83 75.4 118.3 74.95C118.77 74.5 119.28 74.1 119.82 73.75C120.68 73.2 120.93 72.05 120.38 71.18C119.83 70.32 118.68 70.07 117.82 70.62C117.07 71.1 116.38 71.65 115.73 72.27C115.08 72.88 114.51 73.56 114 74.28C113.41 75.12 113.61 76.28 114.45 76.87ZM129.45 70.94C129.66 69.94 129.02 68.95 128.02 68.74C127.15 68.56 126.27 68.47 125.38 68.46C124.48 68.45 123.6 68.52 122.73 68.68C121.72 68.87 121.06 69.84 121.24 70.84C121.43 71.85 122.4 72.52 123.4 72.33C124.04 72.22 124.68 72.16 125.33 72.17C125.98 72.18 126.63 72.25 127.26 72.38C128.26 72.59 129.24 71.95 129.45 70.94Z" fill="#FFFFFF" fill-opacity="1.000000" fill-rule="evenodd"/>
        <path id="circle8655" d="M125.21 86.58C127.65 86.58 129.63 84.6 129.63 82.16C129.63 79.72 127.65 77.75 125.21 77.75C122.77 77.75 120.8 79.72 120.8 82.16C120.8 84.6 122.77 86.58 125.21 86.58Z" fill="#FFFFFF" fill-opacity="1.000000" fill-rule="nonzero"/>
        <path id="circle8657" d="M125.21 84.18C126.33 84.18 127.23 83.28 127.23 82.16C127.23 81.05 126.33 80.15 125.21 80.15C124.1 80.15 123.2 81.05 123.2 82.16C123.2 83.28 124.1 84.18 125.21 84.18Z" fill="#454D9A" fill-opacity="1.000000" fill-rule="nonzero"/>
        <path id="circle8663" d="M125.21 157.02C139.21 157.02 150.57 145.66 150.57 131.66C150.57 117.66 139.21 106.31 125.21 106.31C111.21 106.31 99.86 117.66 99.86 131.66C99.86 145.66 111.21 157.02 125.21 157.02Z" fill="#FFFFFF" fill-opacity="1.000000" fill-rule="nonzero"/>
        <path id="circle8665" d="M125.21 153.49C137.27 153.49 147.04 143.72 147.04 131.66C147.04 119.61 137.27 109.83 125.21 109.83C113.16 109.83 103.38 119.61 103.38 131.66C103.38 143.72 113.16 153.49 125.21 153.49Z" fill="#454D9A" fill-opacity="1.000000" fill-rule="nonzero"/>
        <path id="path8667 (Stroke)" d="M124.54 145.35C125.43 145.4 126.32 145.35 127.19 145.23C128.2 145.08 128.91 144.14 128.76 143.12C128.61 142.11 127.67 141.41 126.65 141.55C126.02 141.65 125.37 141.68 124.72 141.65C124.07 141.61 123.43 141.52 122.8 141.36C121.81 141.12 120.8 141.72 120.55 142.72C120.31 143.71 120.91 144.72 121.91 144.97C122.76 145.18 123.64 145.31 124.54 145.35ZM129.63 142.82C130.15 143.7 131.29 143.99 132.17 143.47C132.93 143.03 133.65 142.5 134.32 141.91C134.99 141.32 135.59 140.66 136.12 139.96C136.74 139.15 136.59 137.98 135.77 137.36C134.95 136.74 133.79 136.9 133.17 137.71C132.78 138.23 132.34 138.7 131.85 139.13C131.37 139.57 130.84 139.95 130.29 140.27C129.4 140.79 129.11 141.93 129.63 142.82ZM119.72 142.32C120.32 141.5 120.14 140.34 119.31 139.73C118.8 139.35 118.31 138.92 117.87 138.44C117.43 137.96 117.04 137.45 116.7 136.9C116.16 136.03 115.02 135.75 114.15 136.29C113.27 136.83 113 137.97 113.54 138.84C114 139.59 114.53 140.3 115.14 140.96C115.75 141.62 116.41 142.21 117.12 142.73C117.95 143.33 119.11 143.15 119.72 142.32ZM136.18 136.53C137.17 136.8 138.19 136.21 138.45 135.22C138.68 134.37 138.83 133.49 138.89 132.6C138.9 132.42 138.89 132.25 138.85 132.08C138.9 131.92 138.92 131.75 138.92 131.57C138.92 130.67 138.82 129.79 138.65 128.93C138.44 127.92 137.46 127.27 136.46 127.48C135.45 127.68 134.8 128.66 135.01 129.67C135.14 130.3 135.2 130.94 135.21 131.59C135.21 131.72 135.22 131.85 135.25 131.97C135.22 132.09 135.19 132.22 135.19 132.35C135.14 133 135.03 133.63 134.87 134.25C134.6 135.25 135.19 136.26 136.18 136.53ZM113.82 135.42C114.83 135.25 115.52 134.3 115.35 133.29C115.25 132.65 115.2 132.01 115.22 131.36C115.24 130.71 115.33 130.06 115.47 129.44C115.7 128.44 115.07 127.44 114.07 127.21C113.07 126.98 112.08 127.61 111.85 128.61C111.65 129.47 111.54 130.35 111.51 131.24C111.49 132.14 111.55 133.02 111.69 133.89C111.86 134.9 112.81 135.59 113.82 135.42ZM136.1 126.62C136.95 126.05 137.18 124.9 136.61 124.05C136.12 123.32 135.56 122.63 134.93 121.99C134.3 121.36 133.62 120.8 132.88 120.3C132.03 119.73 130.88 119.95 130.31 120.8C129.73 121.65 129.96 122.81 130.81 123.38C131.34 123.74 131.84 124.15 132.3 124.61C132.76 125.08 133.17 125.58 133.53 126.11C134.09 126.96 135.25 127.19 136.1 126.62ZM114.45 126.37C115.29 126.96 116.45 126.75 117.04 125.92C117.41 125.39 117.83 124.9 118.3 124.45C118.77 124 119.28 123.6 119.82 123.25C120.68 122.7 120.93 121.55 120.38 120.68C119.83 119.82 118.68 119.57 117.82 120.12C117.07 120.6 116.38 121.15 115.73 121.77C115.08 122.38 114.51 123.06 114 123.78C113.41 124.62 113.61 125.78 114.45 126.37ZM129.45 120.44C129.66 119.44 129.02 118.45 128.02 118.25C127.15 118.07 126.27 117.97 125.38 117.96C124.48 117.95 123.6 118.02 122.73 118.18C121.72 118.37 121.06 119.34 121.24 120.34C121.43 121.35 122.4 122.02 123.4 121.83C124.04 121.72 124.68 121.66 125.33 121.67C125.98 121.68 126.63 121.75 127.26 121.88C128.26 122.09 129.24 121.45 129.45 120.44Z" fill="#FFFFFF" fill-opacity="1.000000" fill-rule="evenodd"/>
        <path id="circle8669" d="M125.21 136.08C127.65 136.08 129.63 134.1 129.63 131.66C129.63 129.22 127.65 127.25 125.21 127.25C122.77 127.25 120.8 129.22 120.8 131.66C120.8 134.1 122.77 136.08 125.21 136.08Z" fill="#FFFFFF" fill-opacity="1.000000" fill-rule="nonzero"/>
        <path id="circle8671" d="M125.21 133.68C126.33 133.68 127.23 132.78 127.23 131.66C127.23 130.55 126.33 129.65 125.21 129.65C124.1 129.65 123.2 130.55 123.2 131.66C123.2 132.78 124.1 133.68 125.21 133.68Z" fill="#454D9A" fill-opacity="1.000000" fill-rule="nonzero"/>
        <path id="circle8677" d="M125.21 205.69C139.21 205.69 150.57 194.34 150.57 180.34C150.57 166.34 139.21 154.99 125.21 154.99C111.21 154.99 99.86 166.34 99.86 180.34C99.86 194.34 111.21 205.69 125.21 205.69Z" fill="#FFFFFF" fill-opacity="1.000000" fill-rule="nonzero"/>
        <path id="circle8679" d="M125.21 202.17C137.27 202.17 147.04 192.4 147.04 180.34C147.04 168.28 137.27 158.51 125.21 158.51C113.16 158.51 103.38 168.28 103.38 180.34C103.38 192.4 113.16 202.17 125.21 202.17Z" fill="#454D9A" fill-opacity="1.000000" fill-rule="nonzero"/>
        <path id="path8681 (Stroke)" d="M124.54 194.03C125.43 194.07 126.32 194.03 127.19 193.9C128.2 193.76 128.91 192.81 128.76 191.8C128.61 190.78 127.67 190.08 126.65 190.23C126.02 190.32 125.37 190.35 124.72 190.32C124.07 190.29 123.43 190.19 122.8 190.04C121.81 189.79 120.8 190.4 120.55 191.39C120.31 192.39 120.91 193.39 121.91 193.64C122.76 193.85 123.64 193.99 124.54 194.03ZM129.63 191.49C130.15 192.37 131.29 192.67 132.17 192.15C132.93 191.7 133.65 191.18 134.32 190.59C134.99 189.99 135.59 189.34 136.12 188.64C136.74 187.82 136.59 186.66 135.77 186.04C134.95 185.42 133.79 185.57 133.17 186.39C132.78 186.9 132.34 187.38 131.85 187.81C131.37 188.24 130.84 188.62 130.29 188.95C129.4 189.47 129.11 190.61 129.63 191.49ZM119.72 191C120.32 190.17 120.14 189.01 119.31 188.41C118.8 188.03 118.31 187.6 117.87 187.12C117.43 186.64 117.04 186.12 116.7 185.57C116.16 184.7 115.02 184.43 114.15 184.96C113.27 185.5 113 186.64 113.54 187.52C114 188.27 114.53 188.98 115.14 189.63C115.75 190.29 116.41 190.88 117.12 191.4C117.95 192.01 119.11 191.83 119.72 191ZM136.18 185.2C137.17 185.47 138.19 184.88 138.45 183.89C138.68 183.04 138.83 182.17 138.89 181.27C138.9 181.1 138.89 180.92 138.85 180.76C138.9 180.59 138.92 180.42 138.92 180.24C138.92 179.35 138.82 178.47 138.65 177.6C138.44 176.6 137.46 175.95 136.46 176.15C135.45 176.36 134.8 177.34 135.01 178.34C135.14 178.97 135.2 179.62 135.21 180.27C135.21 180.4 135.22 180.53 135.25 180.65C135.22 180.77 135.19 180.89 135.19 181.02C135.14 181.67 135.03 182.31 134.87 182.93C134.6 183.92 135.19 184.94 136.18 185.2ZM113.82 184.1C114.83 183.93 115.52 182.97 115.35 181.96C115.25 181.33 115.2 180.68 115.22 180.03C115.24 179.38 115.33 178.74 115.47 178.11C115.7 177.11 115.07 176.12 114.07 175.89C113.07 175.66 112.08 176.28 111.85 177.28C111.65 178.14 111.54 179.02 111.51 179.92C111.49 180.81 111.55 181.7 111.69 182.57C111.86 183.58 112.81 184.26 113.82 184.1ZM136.1 175.3C136.95 174.73 137.18 173.58 136.61 172.72C136.12 171.99 135.56 171.3 134.93 170.67C134.3 170.04 133.62 169.47 132.88 168.98C132.03 168.4 130.88 168.63 130.31 169.48C129.73 170.33 129.96 171.48 130.81 172.06C131.34 172.41 131.84 172.83 132.3 173.29C132.76 173.75 133.17 174.25 133.53 174.79C134.09 175.64 135.25 175.87 136.1 175.3ZM114.45 175.04C115.29 175.63 116.45 175.43 117.04 174.59C117.41 174.07 117.83 173.57 118.3 173.12C118.77 172.67 119.28 172.27 119.82 171.92C120.68 171.37 120.93 170.22 120.38 169.36C119.83 168.5 118.68 168.25 117.82 168.8C117.07 169.27 116.38 169.82 115.73 170.44C115.08 171.06 114.51 171.73 114 172.46C113.41 173.29 113.61 174.45 114.45 175.04ZM129.45 169.12C129.66 168.11 129.02 167.13 128.02 166.92C127.15 166.74 126.27 166.64 125.38 166.63C124.48 166.62 123.6 166.7 122.73 166.86C121.72 167.04 121.06 168.01 121.24 169.02C121.43 170.03 122.4 170.69 123.4 170.51C124.04 170.39 124.68 170.34 125.33 170.34C125.98 170.35 126.63 170.42 127.26 170.55C128.26 170.76 129.24 170.12 129.45 169.12Z" fill="#FFFFFF" fill-opacity="1.000000" fill-rule="evenodd"/>
        <path id="circle8683" d="M125.21 184.76C127.65 184.76 129.63 182.78 129.63 180.34C129.63 177.9 127.65 175.92 125.21 175.92C122.77 175.92 120.8 177.9 120.8 180.34C120.8 182.78 122.77 184.76 125.21 184.76Z" fill="#FFFFFF" fill-opacity="1.000000" fill-rule="nonzero"/>
        <path id="circle8685" d="M125.21 182.36C126.33 182.36 127.23 181.45 127.23 180.34C127.23 179.22 126.33 178.32 125.21 178.32C124.1 178.32 123.2 179.22 123.2 180.34C123.2 181.45 124.1 182.36 125.21 182.36Z" fill="#454D9A" fill-opacity="1.000000" fill-rule="nonzero"/>
        <path id="circle8691" d="M125.21 255.19C139.21 255.19 150.57 243.84 150.57 229.84C150.57 215.84 139.21 204.49 125.21 204.49C111.21 204.49 99.86 215.84 99.86 229.84C99.86 243.84 111.21 255.19 125.21 255.19Z" fill="#FFFFFF" fill-opacity="1.000000" fill-rule="nonzero"/>
        <path id="circle8693" d="M125.21 251.67C137.27 251.67 147.04 241.9 147.04 229.84C147.04 217.78 137.27 208.01 125.21 208.01C113.16 208.01 103.38 217.78 103.38 229.84C103.38 241.9 113.16 251.67 125.21 251.67Z" fill="#454D9A" fill-opacity="1.000000" fill-rule="nonzero"/>
        <path id="path8695 (Stroke)" d="M124.54 243.53C125.43 243.57 126.32 243.53 127.19 243.4C128.2 243.26 128.91 242.31 128.76 241.3C128.61 240.28 127.67 239.58 126.65 239.73C126.02 239.82 125.37 239.85 124.72 239.82C124.07 239.79 123.43 239.69 122.8 239.54C121.81 239.29 120.8 239.9 120.55 240.89C120.31 241.89 120.91 242.89 121.91 243.14C122.76 243.35 123.64 243.49 124.54 243.53ZM129.63 240.99C130.15 241.87 131.29 242.17 132.17 241.65C132.93 241.2 133.65 240.68 134.32 240.08C134.99 239.49 135.59 238.84 136.12 238.14C136.74 237.32 136.59 236.16 135.77 235.54C134.95 234.92 133.79 235.07 133.17 235.89C132.78 236.4 132.34 236.88 131.85 237.31C131.37 237.74 130.84 238.12 130.29 238.45C129.4 238.97 129.11 240.11 129.63 240.99ZM119.72 240.5C120.32 239.67 120.14 238.51 119.31 237.91C118.8 237.53 118.31 237.1 117.87 236.62C117.43 236.14 117.04 235.62 116.7 235.07C116.16 234.2 115.02 233.93 114.15 234.46C113.27 235 113 236.14 113.54 237.02C114 237.77 114.53 238.48 115.14 239.13C115.75 239.79 116.41 240.38 117.12 240.9C117.95 241.51 119.11 241.33 119.72 240.5ZM136.18 234.7C137.17 234.97 138.19 234.38 138.45 233.39C138.68 232.54 138.83 231.67 138.89 230.77C138.9 230.6 138.89 230.42 138.85 230.26C138.9 230.09 138.92 229.92 138.92 229.74C138.92 228.85 138.82 227.97 138.65 227.1C138.44 226.1 137.46 225.45 136.46 225.65C135.45 225.86 134.8 226.84 135.01 227.84C135.14 228.47 135.2 229.12 135.21 229.77C135.21 229.9 135.22 230.02 135.25 230.15C135.22 230.27 135.19 230.39 135.19 230.52C135.14 231.17 135.03 231.81 134.87 232.43C134.6 233.42 135.19 234.44 136.18 234.7ZM113.82 233.6C114.83 233.43 115.52 232.47 115.35 231.46C115.25 230.83 115.2 230.18 115.22 229.53C115.24 228.88 115.33 228.24 115.47 227.61C115.7 226.61 115.07 225.62 114.07 225.39C113.07 225.16 112.08 225.78 111.85 226.78C111.65 227.64 111.54 228.52 111.51 229.42C111.49 230.31 111.55 231.2 111.69 232.07C111.86 233.08 112.81 233.76 113.82 233.6ZM136.1 224.8C136.95 224.23 137.18 223.08 136.61 222.22C136.12 221.49 135.56 220.8 134.93 220.17C134.3 219.54 133.62 218.97 132.88 218.48C132.03 217.9 130.88 218.13 130.31 218.98C129.73 219.83 129.96 220.98 130.81 221.55C131.34 221.91 131.84 222.33 132.3 222.79C132.76 223.25 133.17 223.75 133.53 224.29C134.09 225.14 135.25 225.37 136.1 224.8ZM114.45 224.54C115.29 225.13 116.45 224.93 117.04 224.09C117.41 223.56 117.83 223.07 118.3 222.62C118.77 222.17 119.28 221.77 119.82 221.42C120.68 220.87 120.93 219.72 120.38 218.86C119.83 218 118.68 217.75 117.82 218.3C117.07 218.77 116.38 219.32 115.73 219.94C115.08 220.56 114.51 221.23 114 221.96C113.41 222.79 113.61 223.95 114.45 224.54ZM129.45 218.62C129.66 217.61 129.02 216.63 128.02 216.42C127.15 216.24 126.27 216.14 125.38 216.13C124.48 216.12 123.6 216.2 122.73 216.36C121.72 216.54 121.06 217.51 121.24 218.52C121.43 219.53 122.4 220.19 123.4 220.01C124.04 219.89 124.68 219.84 125.33 219.84C125.98 219.85 126.63 219.92 127.26 220.05C128.26 220.26 129.24 219.62 129.45 218.62Z" fill="#FFFFFF" fill-opacity="1.000000" fill-rule="evenodd"/>
        <path id="circle8697" d="M125.21 234.26C127.65 234.26 129.63 232.28 129.63 229.84C129.63 227.4 127.65 225.42 125.21 225.42C122.77 225.42 120.8 227.4 120.8 229.84C120.8 232.28 122.77 234.26 125.21 234.26Z" fill="#FFFFFF" fill-opacity="1.000000" fill-rule="nonzero"/>
        <path id="circle8699" d="M125.21 231.86C126.33 231.86 127.23 230.95 127.23 229.84C127.23 228.72 126.33 227.82 125.21 227.82C124.1 227.82 123.2 228.72 123.2 229.84C123.2 230.95 124.1 231.86 125.21 231.86Z" fill="#454D9A" fill-opacity="1.000000" fill-rule="nonzero"/>
    </g>
</svg>
