<svg width="40.451569" height="40.815063" viewBox="0 0 53.9516 65.3151" fill="none" xmlns="http://www.w3.org/2000/svg" xmlns:xlink="http://www.w3.org/1999/xlink">
    <desc>
        Created with Pixso.
    </desc>
    <defs/>
    <path id="s" d="M43.46 18.04Q43.93 16.76 44.75 14.37Q45.31 13.68 45.25 13.04Q45.24 12.96 45.22 12.89Q45.07 12.15 44.91 11.33Q44.6 10.04 44.01 9.1Q43.46 8.12 42.17 7.03Q40.61 5.86 38.88 5.05Q35.86 3.63 32.33 3.28Q26.82 2.69 22.02 3.32Q19.62 3.72 17.63 4.84Q17.1 5.15 16.59 5.51Q15.56 6.23 14.71 7.12Q13.58 8.29 12.76 9.76Q11.32 12.3 10.81 15.58Q10.34 18.86 11.16 22.38Q11.32 23.01 11.94 24.37Q12.6 25.74 13.07 27.03Q13.85 28.79 16.16 30.54Q18.5 32.3 21.63 33.9Q24.75 35.51 28.19 36.95Q31.63 38.36 34.48 39.72Q37.37 41.09 39.21 42.22Q41.08 43.32 41.08 44.14Q40.78 44.57 40.45 44.99Q38.48 47.47 35.53 49.18Q34.16 49.98 32.7 50.6Q30.53 51.53 28.19 52.07Q24.31 52.92 20.47 52.77Q20.45 52.77 20.42 52.77Q16.59 52.61 13.85 51.33Q13.07 51.33 11.86 50Q10.65 48.63 9.28 46.95Q7.96 45.27 6.75 43.98Q5.53 42.69 4.6 42.69Q4.09 42.69 3.54 42.61Q3.47 42.6 3.4 42.62Q3 42.76 3 44.14Q3 49.1 4.28 53.24Q4.37 53.46 4.48 53.66Q5.47 55.64 7.8 56.95Q8.74 57.58 10.18 59.41Q11.63 61.25 12.76 61.56Q19.68 62.97 26.09 61.74Q28.41 61.29 30.65 60.51Q33.04 59.68 35.37 58.7Q41.32 56.18 46.82 52.61Q50.34 50.19 50.85 48.12Q51.07 46.97 50.79 45.95Q50.68 45.56 50.5 45.19Q49.87 43.83 49.4 42.85Q48.74 41.56 48 40.93Q47.29 40.31 46.51 39.33Q45.89 38.51 45.3 37.5Q44.9 36.73 44.28 36.28Q44.04 36.1 43.78 35.97Q40.73 33.9 36.47 33.12Q32.25 32.3 28.15 31.25Q24.09 30.19 20.81 28.36Q19.84 27.81 19.08 27.06Q17.27 25.29 16.59 22.38Q15.59 18.83 16.72 16.19Q16.87 15.84 17.06 15.51Q18.09 13.53 19.71 12.35Q20.84 11.52 22.25 11.09Q25.69 10.04 28.74 10.39Q33.07 10.97 36.14 13.25Q36.37 13.41 36.59 13.59Q39.79 16.13 42.02 18.36Q42.51 18.85 42.87 18.77Q43.23 18.69 43.46 18.04Z" fill="#603B1A" fill-opacity="1.000000" fill-rule="evenodd"/>
    <path id="s" d="M44.75 14.37Q43.93 16.76 43.46 18.04Q43 19.33 42.02 18.36Q39.79 16.13 36.59 13.59Q33.39 11.01 28.74 10.39Q25.69 10.04 22.25 11.09Q18.82 12.15 17.06 15.51Q15.46 18.36 16.59 22.38Q17.57 26.52 20.81 28.36Q24.09 30.19 28.15 31.25Q32.25 32.3 36.47 33.12Q40.73 33.9 43.78 35.97Q44.75 36.44 45.3 37.5Q45.89 38.51 46.51 39.33Q47.29 40.31 48 40.93Q48.74 41.56 49.4 42.85Q49.87 43.83 50.5 45.19Q51.16 46.52 50.85 48.12Q50.34 50.19 46.82 52.61Q39.17 57.58 30.65 60.51Q22.17 63.47 12.76 61.56Q11.63 61.25 10.18 59.41Q8.74 57.58 7.8 56.95Q5.22 55.51 4.28 53.24Q3 49.1 3 44.14Q3 42.54 3.54 42.61Q4.09 42.69 4.6 42.69Q5.53 42.69 6.75 43.98Q7.96 45.27 9.28 46.95Q10.65 48.63 11.86 50Q13.07 51.33 13.85 51.33Q16.59 52.61 20.42 52.77Q24.28 52.93 28.19 52.07Q32.1 51.17 35.53 49.18Q38.97 47.18 41.08 44.14Q41.08 43.32 39.21 42.22Q37.37 41.09 34.48 39.72Q31.63 38.36 28.19 36.95Q24.75 35.51 21.63 33.9Q18.5 32.3 16.16 30.54Q13.85 28.79 13.07 27.03Q12.6 25.74 11.94 24.37Q11.32 23.01 11.16 22.38Q10.34 18.86 10.81 15.58Q11.32 12.3 12.76 9.76Q14.21 7.18 16.59 5.51Q18.97 3.83 22.02 3.32Q26.82 2.69 32.33 3.28Q37.88 3.83 42.17 7.03Q43.46 8.12 44.01 9.1Q44.6 10.04 44.91 11.33Q45.07 12.15 45.22 12.89Q45.38 13.59 44.75 14.37Z" stroke="#603B1A" stroke-opacity="1.000000" stroke-width="3.000000"/>
</svg>
