<svg width="201.000000" height="305.000000" viewBox="0 0 201 305" fill="none" xmlns="http://www.w3.org/2000/svg" xmlns:xlink="http://www.w3.org/1999/xlink">
    <desc>
        Created with Pixso.
    </desc>
    <defs>
        <filter id="filter_4_1515_dd" x="0.000000" y="8.000000" width="195.000000" height="297.000000" filterUnits="userSpaceOnUse" color-interpolation-filters="sRGB">
            <feFlood flood-opacity="0" result="BackgroundImageFix"/>
            <feColorMatrix in="SourceAlpha" type="matrix" values="0 0 0 0 0 0 0 0 0 0 0 0 0 0 0 0 0 0 127 0" result="hardAlpha"/>
            <feOffset dx="0" dy="4"/>
            <feGaussianBlur stdDeviation="1.33333"/>
            <feComposite in2="hardAlpha" operator="out" k2="-1" k3="1"/>
            <feColorMatrix type="matrix" values="0 0 0 0 0 0 0 0 0 0 0 0 0 0 0 0 0 0 0.25 0"/>
            <feBlend mode="normal" in2="BackgroundImageFix" result="effect_dropShadow_1"/>
            <feBlend mode="normal" in="SourceGraphic" in2="effect_dropShadow_1" result="shape"/>
        </filter>
        <filter id="filter_4_1876_dd" x="74.000000" y="47.000000" width="48.694336" height="226.000000" filterUnits="userSpaceOnUse" color-interpolation-filters="sRGB">
            <feFlood flood-opacity="0" result="BackgroundImageFix"/>
            <feBlend mode="normal" in="SourceGraphic" in2="BackgroundImageFix" result="shape"/>
            <feColorMatrix in="SourceAlpha" type="matrix" values="0 0 0 0 0 0 0 0 0 0 0 0 0 0 0 0 0 0 127 0" result="hardAlpha"/>
            <feOffset dx="0" dy="4"/>
            <feGaussianBlur stdDeviation="1.33333"/>
            <feComposite in2="hardAlpha" operator="arithmetic" k2="-1" k3="1"/>
            <feColorMatrix type="matrix" values="0 0 0 0 0 0 0 0 0 0 0 0 0 0 0 0 0 0 0.25 0"/>
            <feBlend mode="normal" in2="shape" result="effect_innerShadow_1"/>
        </filter>
    </defs>
    <rect id="Rectangle 1" x="4.000000" rx="20.000000" width="197.000000" height="297.000000" fill="#985B26" fill-opacity="1.000000"/>
    <rect id="Rectangle 1" x="4.500000" y="0.500000" rx="20.000000" width="196.000000" height="296.000000" stroke="#000000" stroke-opacity="1.000000" stroke-width="1.000000"/>
    <g filter="url(#filter_4_1515_dd)">
        <rect id="Rectangle 2" x="4.000000" y="8.000000" rx="20.000000" width="187.000000" height="289.000000" fill="#FFF0DB" fill-opacity="1.000000"/>
        <rect id="Rectangle 2" x="4.500000" y="8.500000" rx="20.000000" width="186.000000" height="288.000000" stroke="#000000" stroke-opacity="1.000000" stroke-width="1.000000"/>
    </g>
    <g filter="url(#filter_4_1876_dd)">
        <path id="ellipse4339" d="M90.28 70.66C97.8 70.66 103.9 65.94 103.9 60.12C103.9 54.3 97.8 49.58 90.28 49.58C82.76 49.58 76.66 54.3 76.66 60.12C76.66 65.94 82.76 70.66 90.28 70.66Z" fill="#367136" fill-opacity="1.000000" fill-rule="nonzero"/>
        <path id="ellipse4341" d="M106.27 70.66C113.79 70.66 119.89 65.94 119.89 60.12C119.89 54.3 113.79 49.58 106.27 49.58C98.75 49.58 92.65 54.3 92.65 60.12C92.65 65.94 98.75 70.66 106.27 70.66Z" fill="#367136" fill-opacity="1.000000" fill-rule="nonzero"/>
        <path id="ellipse4343" d="M89.61 153.08C97.13 153.08 103.23 148.36 103.23 142.54C103.23 136.72 97.13 132.01 89.61 132.01C82.09 132.01 75.99 136.72 75.99 142.54C75.99 148.36 82.09 153.08 89.61 153.08Z" fill="#367136" fill-opacity="1.000000" fill-rule="nonzero"/>
        <path id="path4345 (Stroke)" d="M98.3 47C106.68 47 113.48 53.79 113.48 62.17L113.48 136.48C113.48 144.87 106.68 151.66 98.3 151.66C89.92 151.66 83.13 144.87 83.13 136.48L83.13 62.17C83.13 53.79 89.92 47 98.3 47Z" fill="#367136" fill-opacity="1.000000" fill-rule="evenodd"/>
        <path id="ellipse4347" d="M107.16 153.08C114.68 153.08 120.78 148.36 120.78 142.54C120.78 136.72 114.68 132.01 107.16 132.01C99.64 132.01 93.54 136.72 93.54 142.54C93.54 148.36 99.64 153.08 107.16 153.08Z" fill="#367136" fill-opacity="1.000000" fill-rule="nonzero"/>
        <path id="ellipse4349" d="M104.6 111.87C114.59 111.87 122.69 105.6 122.69 97.87C122.69 90.13 114.59 83.87 104.6 83.87C94.61 83.87 86.51 90.13 86.51 97.87C86.51 105.6 94.61 111.87 104.6 111.87Z" fill="#367136" fill-opacity="1.000000" fill-rule="nonzero"/>
        <path id="ellipse4351" d="M92.09 111.87C102.08 111.87 110.18 105.6 110.18 97.87C110.18 90.13 102.08 83.87 92.09 83.87C82.1 83.87 74 90.13 74 97.87C74 105.6 82.1 111.87 92.09 111.87Z" fill="#367136" fill-opacity="1.000000" fill-rule="nonzero"/>
        <path id="path4353 (Stroke)" d="M98.3 59.59C100.21 59.59 101.75 61.14 101.75 63.04L101.75 83.92C101.75 85.83 100.21 87.38 98.3 87.38C96.39 87.38 94.85 85.83 94.85 83.92L94.85 63.04C94.85 61.14 96.39 59.59 98.3 59.59Z" fill="#FFFFFF" fill-opacity="1.000000" fill-rule="evenodd"/>
        <path id="path4355 (Stroke)" d="M98.3 110.27C100.21 110.27 101.75 111.81 101.75 113.72L101.75 139.51C101.75 141.41 100.21 142.96 98.3 142.96C96.39 142.96 94.85 141.41 94.85 139.51L94.85 113.72C94.85 111.81 96.39 110.27 98.3 110.27Z" fill="#FFFFFF" fill-opacity="1.000000" fill-rule="evenodd"/>
        <path id="ellipse4357" d="M98.3 66.63C101.04 66.63 103.26 64.48 103.26 61.83C103.26 59.18 101.04 57.03 98.3 57.03C95.56 57.03 93.34 59.18 93.34 61.83C93.34 64.48 95.56 66.63 98.3 66.63Z" fill="#FFFFFF" fill-opacity="1.000000" fill-rule="nonzero"/>
        <path id="path4359 (Stroke)" d="M98.53 105.3C97.12 105.29 96.03 105.86 95.54 106.61C94.67 107.94 92.89 108.31 91.56 107.44C90.23 106.56 89.86 104.78 90.73 103.45C92.58 100.65 95.78 99.52 98.58 99.55C101.34 99.57 104.53 100.74 106.18 103.59C106.97 104.97 106.5 106.73 105.13 107.52C103.75 108.32 101.99 107.85 101.2 106.47C100.88 105.92 99.96 105.31 98.53 105.3Z" fill="#FFFFFF" fill-opacity="1.000000" fill-rule="evenodd"/>
        <path id="path4361 (Stroke)" d="M98.53 95.21C97.12 95.2 96.03 95.77 95.54 96.52C94.67 97.85 92.89 98.22 91.56 97.35C90.23 96.47 89.86 94.69 90.73 93.36C92.58 90.56 95.78 89.43 98.58 89.46C101.34 89.48 104.53 90.65 106.18 93.5C106.97 94.88 106.5 96.64 105.13 97.43C103.75 98.23 101.99 97.76 101.2 96.38C100.88 95.83 99.96 95.22 98.53 95.21Z" fill="#FFFFFF" fill-opacity="1.000000" fill-rule="evenodd"/>
        <path id="ellipse4322" d="M90.28 190.57C97.8 190.57 103.9 185.85 103.9 180.03C103.9 174.21 97.8 169.49 90.28 169.49C82.76 169.49 76.66 174.21 76.66 180.03C76.66 185.85 82.76 190.57 90.28 190.57Z" fill="#367136" fill-opacity="1.000000" fill-rule="nonzero"/>
        <path id="ellipse4324" d="M106.27 190.57C113.79 190.57 119.89 185.85 119.89 180.03C119.89 174.21 113.79 169.49 106.27 169.49C98.75 169.49 92.65 174.21 92.65 180.03C92.65 185.85 98.75 190.57 106.27 190.57Z" fill="#367136" fill-opacity="1.000000" fill-rule="nonzero"/>
        <path id="ellipse4326" d="M89.61 273C97.13 273 103.23 268.28 103.23 262.46C103.23 256.64 97.13 251.92 89.61 251.92C82.09 251.92 75.99 256.64 75.99 262.46C75.99 268.28 82.09 273 89.61 273Z" fill="#367136" fill-opacity="1.000000" fill-rule="nonzero"/>
        <path id="path4328 (Stroke)" d="M98.3 166.91C106.68 166.91 113.48 173.7 113.48 182.08L113.48 256.4C113.48 264.78 106.68 271.57 98.3 271.57C89.92 271.57 83.13 264.78 83.13 256.4L83.13 182.08C83.13 173.7 89.92 166.91 98.3 166.91Z" fill="#367136" fill-opacity="1.000000" fill-rule="evenodd"/>
        <path id="ellipse4330" d="M107.16 273C114.68 273 120.78 268.28 120.78 262.46C120.78 256.64 114.68 251.92 107.16 251.92C99.64 251.92 93.54 256.64 93.54 262.46C93.54 268.28 99.64 273 107.16 273Z" fill="#367136" fill-opacity="1.000000" fill-rule="nonzero"/>
        <path id="ellipse4332" d="M104.6 231.78C114.59 231.78 122.69 225.51 122.69 217.78C122.69 210.05 114.59 203.78 104.6 203.78C94.61 203.78 86.51 210.05 86.51 217.78C86.51 225.51 94.61 231.78 104.6 231.78Z" fill="#367136" fill-opacity="1.000000" fill-rule="nonzero"/>
        <path id="ellipse4334" d="M92.09 231.78C102.08 231.78 110.18 225.51 110.18 217.78C110.18 210.05 102.08 203.78 92.09 203.78C82.1 203.78 74 210.05 74 217.78C74 225.51 82.1 231.78 92.09 231.78Z" fill="#367136" fill-opacity="1.000000" fill-rule="nonzero"/>
        <path id="path4336 (Stroke)" d="M98.3 179.5C100.21 179.5 101.75 181.05 101.75 182.96L101.75 203.84C101.75 205.74 100.21 207.29 98.3 207.29C96.39 207.29 94.85 205.74 94.85 203.84L94.85 182.96C94.85 181.05 96.39 179.5 98.3 179.5Z" fill="#FFFFFF" fill-opacity="1.000000" fill-rule="evenodd"/>
        <path id="path4338 (Stroke)" d="M98.3 230.18C100.21 230.18 101.75 231.73 101.75 233.63L101.75 259.42C101.75 261.33 100.21 262.87 98.3 262.87C96.39 262.87 94.85 261.33 94.85 259.42L94.85 233.63C94.85 231.73 96.39 230.18 98.3 230.18Z" fill="#FFFFFF" fill-opacity="1.000000" fill-rule="evenodd"/>
        <path id="ellipse4342" d="M98.3 186.55C101.04 186.55 103.26 184.4 103.26 181.75C103.26 179.1 101.04 176.95 98.3 176.95C95.56 176.95 93.34 179.1 93.34 181.75C93.34 184.4 95.56 186.55 98.3 186.55Z" fill="#FFFFFF" fill-opacity="1.000000" fill-rule="nonzero"/>
        <path id="path4344 (Stroke)" d="M98.53 225.21C97.12 225.2 96.03 225.78 95.54 226.52C94.67 227.85 92.89 228.22 91.56 227.35C90.23 226.48 89.86 224.69 90.73 223.37C92.58 220.56 95.78 219.43 98.58 219.46C101.34 219.49 104.53 220.65 106.18 223.51C106.97 224.88 106.5 226.64 105.13 227.44C103.75 228.23 101.99 227.76 101.2 226.38C100.88 225.83 99.96 225.23 98.53 225.21Z" fill="#FFFFFF" fill-opacity="1.000000" fill-rule="evenodd"/>
        <path id="path4335 (Stroke)" d="M98.53 215.12C97.12 215.11 96.03 215.68 95.54 216.43C94.67 217.76 92.89 218.13 91.56 217.26C90.23 216.39 89.86 214.6 90.73 213.28C92.58 210.47 95.78 209.34 98.58 209.37C101.34 209.39 104.53 210.56 106.18 213.42C106.97 214.79 106.5 216.55 105.13 217.34C103.75 218.14 101.99 217.67 101.2 216.29C100.88 215.74 99.96 215.14 98.53 215.12Z" fill="#FFFFFF" fill-opacity="1.000000" fill-rule="evenodd"/>
    </g>
</svg>
