<svg width="201.000000" height="305.000000" viewBox="0 0 201 305" fill="none" xmlns="http://www.w3.org/2000/svg" xmlns:xlink="http://www.w3.org/1999/xlink">
    <desc>
        Created with Pixso.
    </desc>
    <defs>
        <filter id="filter_4_2264_dd" x="0.000000" y="8.000000" width="195.000000" height="297.000000" filterUnits="userSpaceOnUse" color-interpolation-filters="sRGB">
            <feFlood flood-opacity="0" result="BackgroundImageFix"/>
            <feColorMatrix in="SourceAlpha" type="matrix" values="0 0 0 0 0 0 0 0 0 0 0 0 0 0 0 0 0 0 127 0" result="hardAlpha"/>
            <feOffset dx="0" dy="4"/>
            <feGaussianBlur stdDeviation="1.33333"/>
            <feComposite in2="hardAlpha" operator="out" k2="-1" k3="1"/>
            <feColorMatrix type="matrix" values="0 0 0 0 0 0 0 0 0 0 0 0 0 0 0 0 0 0 0.25 0"/>
            <feBlend mode="normal" in2="BackgroundImageFix" result="effect_dropShadow_1"/>
            <feBlend mode="normal" in="SourceGraphic" in2="effect_dropShadow_1" result="shape"/>
        </filter>
        <filter id="filter_4_2528_dd" x="26.000000" y="57.000000" width="142.782227" height="195.109924" filterUnits="userSpaceOnUse" color-interpolation-filters="sRGB">
            <feFlood flood-opacity="0" result="BackgroundImageFix"/>
            <feBlend mode="normal" in="SourceGraphic" in2="BackgroundImageFix" result="shape"/>
            <feColorMatrix in="SourceAlpha" type="matrix" values="0 0 0 0 0 0 0 0 0 0 0 0 0 0 0 0 0 0 127 0" result="hardAlpha"/>
            <feOffset dx="0" dy="4"/>
            <feGaussianBlur stdDeviation="1.33333"/>
            <feComposite in2="hardAlpha" operator="arithmetic" k2="-1" k3="1"/>
            <feColorMatrix type="matrix" values="0 0 0 0 0 0 0 0 0 0 0 0 0 0 0 0 0 0 0.25 0"/>
            <feBlend mode="normal" in2="shape" result="effect_innerShadow_1"/>
        </filter>
    </defs>
    <rect id="Rectangle 1" x="4.000000" rx="20.000000" width="197.000000" height="297.000000" fill="#985B26" fill-opacity="1.000000"/>
    <rect id="Rectangle 1" x="4.500000" y="0.500000" rx="20.000000" width="196.000000" height="296.000000" stroke="#000000" stroke-opacity="1.000000" stroke-width="1.000000"/>
    <g filter="url(#filter_4_2264_dd)">
        <rect id="Rectangle 2" x="4.000000" y="8.000000" rx="20.000000" width="187.000000" height="289.000000" fill="#FFF0DB" fill-opacity="1.000000"/>
        <rect id="Rectangle 2" x="4.500000" y="8.500000" rx="20.000000" width="186.000000" height="288.000000" stroke="#000000" stroke-opacity="1.000000" stroke-width="1.000000"/>
    </g>
    <g filter="url(#filter_4_2528_dd)">
        <path id="ellipse4273" d="M40.06 180.95C46.55 180.95 51.81 176.87 51.81 171.85C51.81 166.82 46.55 162.75 40.06 162.75C33.56 162.75 28.3 166.82 28.3 171.85C28.3 176.87 33.56 180.95 40.06 180.95Z" fill="#367136" fill-opacity="1.000000" fill-rule="nonzero"/>
        <path id="ellipse4275" d="M53.86 180.95C60.35 180.95 65.61 176.87 65.61 171.85C65.61 166.82 60.35 162.75 53.86 162.75C47.36 162.75 42.1 166.82 42.1 171.85C42.1 176.87 47.36 180.95 53.86 180.95Z" fill="#367136" fill-opacity="1.000000" fill-rule="nonzero"/>
        <path id="ellipse4277" d="M39.48 252.11C45.97 252.11 51.23 248.03 51.23 243.01C51.23 237.98 45.97 233.91 39.48 233.91C32.98 233.91 27.72 237.98 27.72 243.01C27.72 248.03 32.98 252.11 39.48 252.11Z" fill="#367136" fill-opacity="1.000000" fill-rule="nonzero"/>
        <path id="path4279 (Stroke)" d="M46.98 160.52C54.21 160.52 60.08 166.38 60.08 173.62L60.08 237.78C60.08 245.01 54.21 250.88 46.98 250.88C39.74 250.88 33.88 245.01 33.88 237.78L33.88 173.62C33.88 166.38 39.74 160.52 46.98 160.52Z" fill="#367136" fill-opacity="1.000000" fill-rule="evenodd"/>
        <path id="ellipse4281" d="M54.63 252.11C61.12 252.11 66.39 248.03 66.39 243.01C66.39 237.98 61.12 233.91 54.63 233.91C48.13 233.91 42.87 237.98 42.87 243.01C42.87 248.03 48.13 252.11 54.63 252.11Z" fill="#367136" fill-opacity="1.000000" fill-rule="nonzero"/>
        <path id="ellipse4283" d="M52.41 216.52C61.04 216.52 68.03 211.11 68.03 204.44C68.03 197.76 61.04 192.35 52.41 192.35C43.79 192.35 36.8 197.76 36.8 204.44C36.8 211.11 43.79 216.52 52.41 216.52Z" fill="#367136" fill-opacity="1.000000" fill-rule="nonzero"/>
        <path id="ellipse4285" d="M41.61 216.52C50.24 216.52 57.23 211.11 57.23 204.44C57.23 197.76 50.24 192.35 41.61 192.35C32.99 192.35 26 197.76 26 204.44C26 211.11 32.99 216.52 41.61 216.52Z" fill="#367136" fill-opacity="1.000000" fill-rule="nonzero"/>
        <path id="path4287 (Stroke)" d="M46.98 171.39C48.62 171.39 49.96 172.73 49.96 174.37L49.96 192.4C49.96 194.05 48.62 195.38 46.98 195.38C45.33 195.38 44 194.05 44 192.4L44 174.37C44 172.73 45.33 171.39 46.98 171.39Z" fill="#FFFFFF" fill-opacity="1.000000" fill-rule="evenodd"/>
        <path id="path4289 (Stroke)" d="M46.98 215.14C48.62 215.14 49.96 216.48 49.96 218.12L49.96 240.39C49.96 242.03 48.62 243.37 46.98 243.37C45.33 243.37 44 242.03 44 240.39L44 218.12C44 216.48 45.33 215.14 46.98 215.14Z" fill="#FFFFFF" fill-opacity="1.000000" fill-rule="evenodd"/>
        <path id="ellipse4291" d="M46.98 177.47C49.34 177.47 51.26 175.62 51.26 173.33C51.26 171.04 49.34 169.18 46.98 169.18C44.61 169.18 42.7 171.04 42.7 173.33C42.7 175.62 44.61 177.47 46.98 177.47Z" fill="#FFFFFF" fill-opacity="1.000000" fill-rule="nonzero"/>
        <path id="path4293 (Stroke)" d="M47.17 210.85C45.96 210.84 45.02 211.34 44.6 211.98C43.84 213.13 42.31 213.45 41.16 212.7C40.01 211.95 39.69 210.41 40.45 209.26C42.04 206.84 44.8 205.87 47.22 205.89C49.6 205.91 52.36 206.92 53.78 209.38C54.47 210.57 54.06 212.09 52.87 212.77C51.68 213.46 50.16 213.05 49.48 211.86C49.21 211.39 48.41 210.87 47.17 210.85Z" fill="#FFFFFF" fill-opacity="1.000000" fill-rule="evenodd"/>
        <path id="path4295 (Stroke)" d="M47.17 202.14C45.96 202.13 45.02 202.63 44.6 203.27C43.84 204.42 42.31 204.74 41.16 203.99C40.01 203.23 39.69 201.69 40.45 200.55C42.04 198.13 44.8 197.15 47.22 197.18C49.6 197.2 52.36 198.21 53.78 200.67C54.47 201.86 54.06 203.38 52.87 204.06C51.68 204.75 50.16 204.34 49.48 203.15C49.21 202.68 48.41 202.15 47.17 202.14Z" fill="#FFFFFF" fill-opacity="1.000000" fill-rule="evenodd"/>
        <path id="ellipse4299" d="M140.8 180.95C147.29 180.95 152.56 176.87 152.56 171.85C152.56 166.82 147.29 162.75 140.8 162.75C134.31 162.75 129.04 166.82 129.04 171.85C129.04 176.87 134.31 180.95 140.8 180.95Z" fill="#367136" fill-opacity="1.000000" fill-rule="nonzero"/>
        <path id="ellipse4301" d="M154.6 180.95C161.09 180.95 166.36 176.87 166.36 171.85C166.36 166.82 161.09 162.75 154.6 162.75C148.11 162.75 142.84 166.82 142.84 171.85C142.84 176.87 148.11 180.95 154.6 180.95Z" fill="#367136" fill-opacity="1.000000" fill-rule="nonzero"/>
        <path id="ellipse4303" d="M140.22 252.11C146.71 252.11 151.98 248.03 151.98 243.01C151.98 237.98 146.71 233.91 140.22 233.91C133.73 233.91 128.46 237.98 128.46 243.01C128.46 248.03 133.73 252.11 140.22 252.11Z" fill="#367136" fill-opacity="1.000000" fill-rule="nonzero"/>
        <path id="path4305 (Stroke)" d="M147.72 160.52C154.96 160.52 160.82 166.38 160.82 173.62L160.82 237.78C160.82 245.01 154.96 250.88 147.72 250.88C140.49 250.88 134.62 245.01 134.62 237.78L134.62 173.62C134.62 166.38 140.49 160.52 147.72 160.52Z" fill="#367136" fill-opacity="1.000000" fill-rule="evenodd"/>
        <path id="ellipse4307" d="M155.37 252.11C161.87 252.11 167.13 248.03 167.13 243.01C167.13 237.98 161.87 233.91 155.37 233.91C148.88 233.91 143.62 237.98 143.62 243.01C143.62 248.03 148.88 252.11 155.37 252.11Z" fill="#367136" fill-opacity="1.000000" fill-rule="nonzero"/>
        <path id="ellipse4309" d="M153.16 216.52C161.78 216.52 168.78 211.11 168.78 204.44C168.78 197.76 161.78 192.35 153.16 192.35C144.53 192.35 137.54 197.76 137.54 204.44C137.54 211.11 144.53 216.52 153.16 216.52Z" fill="#367136" fill-opacity="1.000000" fill-rule="nonzero"/>
        <path id="ellipse4311" d="M142.36 216.52C150.98 216.52 157.98 211.11 157.98 204.44C157.98 197.76 150.98 192.35 142.36 192.35C133.73 192.35 126.74 197.76 126.74 204.44C126.74 211.11 133.73 216.52 142.36 216.52Z" fill="#367136" fill-opacity="1.000000" fill-rule="nonzero"/>
        <path id="path4313 (Stroke)" d="M147.72 171.39C149.37 171.39 150.7 172.73 150.7 174.37L150.7 192.4C150.7 194.05 149.37 195.38 147.72 195.38C146.08 195.38 144.74 194.05 144.74 192.4L144.74 174.37C144.74 172.73 146.08 171.39 147.72 171.39Z" fill="#FFFFFF" fill-opacity="1.000000" fill-rule="evenodd"/>
        <path id="path4315 (Stroke)" d="M147.72 215.14C149.37 215.14 150.7 216.48 150.7 218.12L150.7 240.39C150.7 242.03 149.37 243.37 147.72 243.37C146.08 243.37 144.74 242.03 144.74 240.39L144.74 218.12C144.74 216.48 146.08 215.14 147.72 215.14Z" fill="#FFFFFF" fill-opacity="1.000000" fill-rule="evenodd"/>
        <path id="ellipse4317" d="M147.72 177.47C150.09 177.47 152.01 175.62 152.01 173.33C152.01 171.04 150.09 169.18 147.72 169.18C145.36 169.18 143.44 171.04 143.44 173.33C143.44 175.62 145.36 177.47 147.72 177.47Z" fill="#FFFFFF" fill-opacity="1.000000" fill-rule="nonzero"/>
        <path id="path4319 (Stroke)" d="M147.92 210.85C146.7 210.84 145.77 211.34 145.34 211.98C144.59 213.13 143.05 213.45 141.9 212.7C140.76 211.95 140.44 210.41 141.19 209.26C142.78 206.84 145.55 205.87 147.96 205.89C150.35 205.91 153.1 206.92 154.52 209.38C155.21 210.57 154.8 212.09 153.62 212.77C152.43 213.46 150.91 213.05 150.22 211.86C149.95 211.39 149.16 210.87 147.92 210.85Z" fill="#FFFFFF" fill-opacity="1.000000" fill-rule="evenodd"/>
        <path id="path4321 (Stroke)" d="M147.92 202.14C146.7 202.13 145.77 202.63 145.34 203.27C144.59 204.42 143.05 204.74 141.9 203.99C140.76 203.23 140.44 201.69 141.19 200.55C142.78 198.13 145.55 197.15 147.96 197.18C150.35 197.2 153.1 198.21 154.52 200.67C155.21 201.86 154.8 203.38 153.62 204.06C152.43 204.75 150.91 204.34 150.22 203.15C149.95 202.68 149.16 202.15 147.92 202.14Z" fill="#FFFFFF" fill-opacity="1.000000" fill-rule="evenodd"/>
        <path id="ellipse4339" d="M89.39 129C95.88 129 101.14 124.93 101.14 119.9C101.14 114.88 95.88 110.8 89.39 110.8C82.89 110.8 77.63 114.88 77.63 119.9C77.63 124.93 82.89 129 89.39 129Z" fill="#E9411B" fill-opacity="1.000000" fill-rule="nonzero"/>
        <path id="ellipse4341" d="M103.19 129C109.68 129 114.94 124.93 114.94 119.9C114.94 114.88 109.68 110.8 103.19 110.8C96.69 110.8 91.43 114.88 91.43 119.9C91.43 124.93 96.69 129 103.19 129Z" fill="#E9411B" fill-opacity="1.000000" fill-rule="nonzero"/>
        <path id="ellipse4343" d="M88.81 200.16C95.3 200.16 100.56 196.08 100.56 191.06C100.56 186.04 95.3 181.96 88.81 181.96C82.31 181.96 77.05 186.04 77.05 191.06C77.05 196.08 82.31 200.16 88.81 200.16Z" fill="#E9411B" fill-opacity="1.000000" fill-rule="nonzero"/>
        <path id="path4345 (Stroke)" d="M96.31 108.57C103.54 108.57 109.41 114.44 109.41 121.67L109.41 185.83C109.41 193.06 103.54 198.93 96.31 198.93C89.07 198.93 83.21 193.06 83.21 185.83L83.21 121.67C83.21 114.44 89.07 108.57 96.31 108.57Z" fill="#E9411B" fill-opacity="1.000000" fill-rule="evenodd"/>
        <path id="ellipse4347" d="M103.96 200.16C110.45 200.16 115.72 196.08 115.72 191.06C115.72 186.04 110.45 181.96 103.96 181.96C97.46 181.96 92.2 186.04 92.2 191.06C92.2 196.08 97.46 200.16 103.96 200.16Z" fill="#E9411B" fill-opacity="1.000000" fill-rule="nonzero"/>
        <path id="ellipse4349" d="M101.74 164.57C110.37 164.57 117.36 159.16 117.36 152.49C117.36 145.81 110.37 140.4 101.74 140.4C93.12 140.4 86.13 145.81 86.13 152.49C86.13 159.16 93.12 164.57 101.74 164.57Z" fill="#E9411B" fill-opacity="1.000000" fill-rule="nonzero"/>
        <path id="ellipse4351" d="M90.94 164.57C99.57 164.57 106.56 159.16 106.56 152.49C106.56 145.81 99.57 140.4 90.94 140.4C82.32 140.4 75.32 145.81 75.32 152.49C75.32 159.16 82.32 164.57 90.94 164.57Z" fill="#E9411B" fill-opacity="1.000000" fill-rule="nonzero"/>
        <path id="path4353 (Stroke)" d="M96.31 119.44C97.95 119.44 99.29 120.78 99.29 122.42L99.29 140.45C99.29 142.1 97.95 143.43 96.31 143.43C94.66 143.43 93.33 142.1 93.33 140.45L93.33 122.42C93.33 120.78 94.66 119.44 96.31 119.44Z" fill="#FFFFFF" fill-opacity="1.000000" fill-rule="evenodd"/>
        <path id="path4355 (Stroke)" d="M96.31 163.2C97.95 163.2 99.29 164.53 99.29 166.18L99.29 188.44C99.29 190.08 97.95 191.42 96.31 191.42C94.66 191.42 93.33 190.08 93.33 188.44L93.33 166.18C93.33 164.53 94.66 163.2 96.31 163.2Z" fill="#FFFFFF" fill-opacity="1.000000" fill-rule="evenodd"/>
        <path id="ellipse4357" d="M96.31 125.52C98.67 125.52 100.59 123.67 100.59 121.38C100.59 119.09 98.67 117.24 96.31 117.24C93.94 117.24 92.03 119.09 92.03 121.38C92.03 123.67 93.94 125.52 96.31 125.52Z" fill="#FFFFFF" fill-opacity="1.000000" fill-rule="nonzero"/>
        <path id="path4359 (Stroke)" d="M96.5 158.91C95.29 158.89 94.35 159.39 93.93 160.04C93.17 161.18 91.64 161.5 90.49 160.75C89.34 160 89.02 158.46 89.78 157.31C91.37 154.89 94.13 153.92 96.55 153.94C98.93 153.96 101.69 154.97 103.11 157.43C103.8 158.62 103.39 160.14 102.2 160.83C101.01 161.51 99.49 161.1 98.81 159.92C98.53 159.44 97.74 158.92 96.5 158.91Z" fill="#FFFFFF" fill-opacity="1.000000" fill-rule="evenodd"/>
        <path id="path4361 (Stroke)" d="M96.5 150.19C95.29 150.18 94.35 150.68 93.93 151.33C93.17 152.47 91.64 152.79 90.49 152.04C89.34 151.29 89.02 149.75 89.78 148.6C91.37 146.18 94.13 145.21 96.55 145.23C98.93 145.25 101.69 146.26 103.11 148.72C103.8 149.91 103.39 151.43 102.2 152.11C101.01 152.8 99.49 152.39 98.81 151.21C98.53 150.73 97.74 150.21 96.5 150.19Z" fill="#FFFFFF" fill-opacity="1.000000" fill-rule="evenodd"/>
        <path id="ellipse4310" d="M140.8 77.42C147.29 77.42 152.56 73.35 152.56 68.33C152.56 63.3 147.29 59.23 140.8 59.23C134.31 59.23 129.04 63.3 129.04 68.33C129.04 73.35 134.31 77.42 140.8 77.42Z" fill="#367136" fill-opacity="1.000000" fill-rule="nonzero"/>
        <path id="ellipse4312" d="M154.6 77.42C161.09 77.42 166.36 73.35 166.36 68.33C166.36 63.3 161.09 59.23 154.6 59.23C148.11 59.23 142.84 63.3 142.84 68.33C142.84 73.35 148.11 77.42 154.6 77.42Z" fill="#367136" fill-opacity="1.000000" fill-rule="nonzero"/>
        <path id="ellipse4315" d="M140.22 148.58C146.71 148.58 151.98 144.51 151.98 139.49C151.98 134.46 146.71 130.39 140.22 130.39C133.73 130.39 128.46 134.46 128.46 139.49C128.46 144.51 133.73 148.58 140.22 148.58Z" fill="#367136" fill-opacity="1.000000" fill-rule="nonzero"/>
        <path id="path4317 (Stroke)" d="M147.72 57C154.96 57 160.82 62.86 160.82 70.1L160.82 134.25C160.82 141.49 154.96 147.35 147.72 147.35C140.49 147.35 134.62 141.49 134.62 134.25L134.62 70.1C134.62 62.86 140.49 57 147.72 57Z" fill="#367136" fill-opacity="1.000000" fill-rule="evenodd"/>
        <path id="ellipse4319" d="M155.37 148.58C161.87 148.58 167.13 144.51 167.13 139.49C167.13 134.46 161.87 130.39 155.37 130.39C148.88 130.39 143.62 134.46 143.62 139.49C143.62 144.51 148.88 148.58 155.37 148.58Z" fill="#367136" fill-opacity="1.000000" fill-rule="nonzero"/>
        <path id="ellipse4321" d="M153.16 113C161.78 113 168.78 107.59 168.78 100.91C168.78 94.24 161.78 88.83 153.16 88.83C144.53 88.83 137.54 94.24 137.54 100.91C137.54 107.59 144.53 113 153.16 113Z" fill="#367136" fill-opacity="1.000000" fill-rule="nonzero"/>
        <path id="ellipse4323" d="M142.36 113C150.98 113 157.98 107.59 157.98 100.91C157.98 94.24 150.98 88.83 142.36 88.83C133.73 88.83 126.74 94.24 126.74 100.91C126.74 107.59 133.73 113 142.36 113Z" fill="#367136" fill-opacity="1.000000" fill-rule="nonzero"/>
        <path id="path4325 (Stroke)" d="M147.72 67.87C149.37 67.87 150.7 69.2 150.7 70.85L150.7 88.88C150.7 90.52 149.37 91.86 147.72 91.86C146.08 91.86 144.74 90.52 144.74 88.88L144.74 70.85C144.74 69.2 146.08 67.87 147.72 67.87Z" fill="#FFFFFF" fill-opacity="1.000000" fill-rule="evenodd"/>
        <path id="path4327 (Stroke)" d="M147.72 111.62C149.37 111.62 150.7 112.95 150.7 114.6L150.7 136.86C150.7 138.51 149.37 139.84 147.72 139.84C146.08 139.84 144.74 138.51 144.74 136.86L144.74 114.6C144.74 112.95 146.08 111.62 147.72 111.62Z" fill="#FFFFFF" fill-opacity="1.000000" fill-rule="evenodd"/>
        <path id="ellipse4329" d="M147.72 73.95C150.09 73.95 152.01 72.09 152.01 69.81C152.01 67.52 150.09 65.66 147.72 65.66C145.36 65.66 143.44 67.52 143.44 69.81C143.44 72.09 145.36 73.95 147.72 73.95Z" fill="#FFFFFF" fill-opacity="1.000000" fill-rule="nonzero"/>
        <path id="path4331 (Stroke)" d="M147.92 107.33C146.7 107.32 145.77 107.82 145.34 108.46C144.59 109.61 143.05 109.93 141.9 109.18C140.76 108.42 140.44 106.88 141.19 105.74C142.78 103.31 145.55 102.34 147.96 102.36C150.35 102.39 153.1 103.4 154.52 105.86C155.21 107.05 154.8 108.56 153.62 109.25C152.43 109.94 150.91 109.53 150.22 108.34C149.95 107.87 149.16 107.34 147.92 107.33Z" fill="#FFFFFF" fill-opacity="1.000000" fill-rule="evenodd"/>
        <path id="path4333 (Stroke)" d="M147.92 98.62C146.7 98.61 145.77 99.1 145.34 99.75C144.59 100.9 143.05 101.22 141.9 100.46C140.76 99.71 140.44 98.17 141.19 97.02C142.78 94.6 145.55 93.63 147.96 93.65C150.35 93.67 153.1 94.68 154.52 97.15C155.21 98.33 154.8 99.85 153.62 100.54C152.43 101.22 150.91 100.82 150.22 99.63C149.95 99.16 149.16 98.63 147.92 98.62Z" fill="#FFFFFF" fill-opacity="1.000000" fill-rule="evenodd"/>
        <path id="ellipse4337" d="M40.06 77.42C46.55 77.42 51.81 73.35 51.81 68.33C51.81 63.3 46.55 59.23 40.06 59.23C33.56 59.23 28.3 63.3 28.3 68.33C28.3 73.35 33.56 77.42 40.06 77.42Z" fill="#367136" fill-opacity="1.000000" fill-rule="nonzero"/>
        <path id="ellipse4340" d="M53.86 77.42C60.35 77.42 65.61 73.35 65.61 68.33C65.61 63.3 60.35 59.23 53.86 59.23C47.36 59.23 42.1 63.3 42.1 68.33C42.1 73.35 47.36 77.42 53.86 77.42Z" fill="#367136" fill-opacity="1.000000" fill-rule="nonzero"/>
        <path id="ellipse4342" d="M39.48 148.58C45.97 148.58 51.23 144.51 51.23 139.49C51.23 134.46 45.97 130.39 39.48 130.39C32.98 130.39 27.72 134.46 27.72 139.49C27.72 144.51 32.98 148.58 39.48 148.58Z" fill="#367136" fill-opacity="1.000000" fill-rule="nonzero"/>
        <path id="path4344 (Stroke)" d="M46.98 57C54.21 57 60.08 62.86 60.08 70.1L60.08 134.25C60.08 141.49 54.21 147.35 46.98 147.35C39.74 147.35 33.88 141.49 33.88 134.25L33.88 70.1C33.88 62.86 39.74 57 46.98 57Z" fill="#367136" fill-opacity="1.000000" fill-rule="evenodd"/>
        <path id="ellipse4346" d="M54.63 148.58C61.12 148.58 66.39 144.51 66.39 139.49C66.39 134.46 61.12 130.39 54.63 130.39C48.13 130.39 42.87 134.46 42.87 139.49C42.87 144.51 48.13 148.58 54.63 148.58Z" fill="#367136" fill-opacity="1.000000" fill-rule="nonzero"/>
        <path id="ellipse4348" d="M52.41 113C61.04 113 68.03 107.59 68.03 100.91C68.03 94.24 61.04 88.83 52.41 88.83C43.79 88.83 36.8 94.24 36.8 100.91C36.8 107.59 43.79 113 52.41 113Z" fill="#367136" fill-opacity="1.000000" fill-rule="nonzero"/>
        <path id="ellipse4350" d="M41.61 113C50.24 113 57.23 107.59 57.23 100.91C57.23 94.24 50.24 88.83 41.61 88.83C32.99 88.83 26 94.24 26 100.91C26 107.59 32.99 113 41.61 113Z" fill="#367136" fill-opacity="1.000000" fill-rule="nonzero"/>
        <path id="path4352 (Stroke)" d="M46.98 67.87C48.62 67.87 49.96 69.2 49.96 70.85L49.96 88.88C49.96 90.52 48.62 91.86 46.98 91.86C45.33 91.86 44 90.52 44 88.88L44 70.85C44 69.2 45.33 67.87 46.98 67.87Z" fill="#FFFFFF" fill-opacity="1.000000" fill-rule="evenodd"/>
        <path id="path4354 (Stroke)" d="M46.98 111.62C48.62 111.62 49.96 112.95 49.96 114.6L49.96 136.86C49.96 138.51 48.62 139.84 46.98 139.84C45.33 139.84 44 138.51 44 136.86L44 114.6C44 112.95 45.33 111.62 46.98 111.62Z" fill="#FFFFFF" fill-opacity="1.000000" fill-rule="evenodd"/>
        <path id="ellipse4356" d="M46.98 73.95C49.34 73.95 51.26 72.09 51.26 69.81C51.26 67.52 49.34 65.66 46.98 65.66C44.61 65.66 42.7 67.52 42.7 69.81C42.7 72.09 44.61 73.95 46.98 73.95Z" fill="#FFFFFF" fill-opacity="1.000000" fill-rule="nonzero"/>
        <path id="path4358 (Stroke)" d="M47.17 107.33C45.96 107.32 45.02 107.82 44.6 108.46C43.84 109.61 42.31 109.93 41.16 109.18C40.01 108.42 39.69 106.88 40.45 105.74C42.04 103.31 44.8 102.34 47.22 102.36C49.6 102.39 52.36 103.4 53.78 105.86C54.47 107.05 54.06 108.56 52.87 109.25C51.68 109.94 50.16 109.53 49.48 108.34C49.21 107.87 48.41 107.34 47.17 107.33Z" fill="#FFFFFF" fill-opacity="1.000000" fill-rule="evenodd"/>
        <path id="path4360 (Stroke)" d="M47.17 98.62C45.96 98.61 45.02 99.1 44.6 99.75C43.84 100.9 42.31 101.22 41.16 100.46C40.01 99.71 39.69 98.17 40.45 97.02C42.04 94.6 44.8 93.63 47.22 93.65C49.6 93.67 52.36 94.68 53.78 97.15C54.47 98.33 54.06 99.85 52.87 100.54C51.68 101.22 50.16 100.82 49.48 99.63C49.21 99.16 48.41 98.63 47.17 98.62Z" fill="#FFFFFF" fill-opacity="1.000000" fill-rule="evenodd"/>
    </g>
</svg>
