<svg width="201.000000" height="305.000000" viewBox="0 0 201 305" fill="none" xmlns="http://www.w3.org/2000/svg" xmlns:xlink="http://www.w3.org/1999/xlink">
    <desc>
        Created with Pixso.
    </desc>
    <defs>
        <filter id="filter_4_2810_dd" x="0.000000" y="8.000000" width="195.000000" height="297.000000" filterUnits="userSpaceOnUse" color-interpolation-filters="sRGB">
            <feFlood flood-opacity="0" result="BackgroundImageFix"/>
            <feColorMatrix in="SourceAlpha" type="matrix" values="0 0 0 0 0 0 0 0 0 0 0 0 0 0 0 0 0 0 127 0" result="hardAlpha"/>
            <feOffset dx="0" dy="4"/>
            <feGaussianBlur stdDeviation="1.33333"/>
            <feComposite in2="hardAlpha" operator="out" k2="-1" k3="1"/>
            <feColorMatrix type="matrix" values="0 0 0 0 0 0 0 0 0 0 0 0 0 0 0 0 0 0 0.25 0"/>
            <feBlend mode="normal" in2="BackgroundImageFix" result="effect_dropShadow_1"/>
            <feBlend mode="normal" in="SourceGraphic" in2="effect_dropShadow_1" result="shape"/>
        </filter>
        <filter id="filter_4_2811_dd" x="0.000000" y="8.000000" width="195.000000" height="297.000000" filterUnits="userSpaceOnUse" color-interpolation-filters="sRGB">
            <feFlood flood-opacity="0" result="BackgroundImageFix"/>
            <feColorMatrix in="SourceAlpha" type="matrix" values="0 0 0 0 0 0 0 0 0 0 0 0 0 0 0 0 0 0 127 0" result="hardAlpha"/>
            <feOffset dx="0" dy="4"/>
            <feGaussianBlur stdDeviation="1.33333"/>
            <feComposite in2="hardAlpha" operator="out" k2="-1" k3="1"/>
            <feColorMatrix type="matrix" values="0 0 0 0 0 0 0 0 0 0 0 0 0 0 0 0 0 0 0.25 0"/>
            <feBlend mode="normal" in2="BackgroundImageFix" result="effect_dropShadow_1"/>
            <feBlend mode="normal" in="SourceGraphic" in2="effect_dropShadow_1" result="shape"/>
        </filter>
        <filter id="filter_4_3021_dd" x="29.000000" y="54.000000" width="138.958496" height="193.731079" filterUnits="userSpaceOnUse" color-interpolation-filters="sRGB">
            <feFlood flood-opacity="0" result="BackgroundImageFix"/>
            <feBlend mode="normal" in="SourceGraphic" in2="BackgroundImageFix" result="shape"/>
            <feColorMatrix in="SourceAlpha" type="matrix" values="0 0 0 0 0 0 0 0 0 0 0 0 0 0 0 0 0 0 127 0" result="hardAlpha"/>
            <feOffset dx="0" dy="4"/>
            <feGaussianBlur stdDeviation="1.33333"/>
            <feComposite in2="hardAlpha" operator="arithmetic" k2="-1" k3="1"/>
            <feColorMatrix type="matrix" values="0 0 0 0 0 0 0 0 0 0 0 0 0 0 0 0 0 0 0.25 0"/>
            <feBlend mode="normal" in2="shape" result="effect_innerShadow_1"/>
        </filter>
    </defs>
    <path id="Rectangle 1" d="M4 20C4 8.95 12.95 0 24 0L181 0C192.04 0 201 8.95 201 20L201 277C201 288.04 192.04 297 181 297L24 297C12.95 297 4 288.04 4 277L4 20Z" fill="#985B26" fill-opacity="1.000000" fill-rule="nonzero"/>
    <path id="Rectangle 1 (Stroke)" d="M181 1L24 1C13.5 1 5 9.5 5 20L5 277C5 287.49 13.5 296 24 296L181 296C191.49 296 200 287.49 200 277L200 20C200 9.5 191.49 1 181 1ZM24 0C12.95 0 4 8.95 4 20L4 277C4 288.04 12.95 297 24 297L181 297C192.04 297 201 288.04 201 277L201 20C201 8.95 192.04 0 181 0L24 0Z" fill="#454D9A" fill-opacity="1.000000" fill-rule="evenodd"/>
    <g filter="url(#filter_4_2810_dd)">
        <path id="Rectangle 2" d="M4 28C4 16.95 12.95 8 24 8L171 8C182.04 8 191 16.95 191 28L191 277C191 288.04 182.04 297 171 297L24 297C12.95 297 4 288.04 4 277L4 28Z" fill="#FFF0DB" fill-opacity="1.000000" fill-rule="nonzero"/>
    </g>
    <g filter="url(#filter_4_2811_dd)">
        <path id="Rectangle 2 (Stroke)" d="M171 9L24 9C13.5 9 5 17.5 5 28L5 277C5 287.49 13.5 296 24 296L171 296C181.49 296 190 287.49 190 277L190 28C190 17.5 181.49 9 171 9ZM24 8C12.95 8 4 16.95 4 28L4 277C4 288.04 12.95 297 24 297L171 297C182.04 297 191 288.04 191 277L191 28C191 16.95 182.04 8 171 8L24 8Z" fill="#454D9A" fill-opacity="1.000000" fill-rule="evenodd"/>
    </g>
    <g filter="url(#filter_4_3021_dd)">
        <path id="circle4349" d="M92.15 72.31C97.71 72.31 102.22 68.85 102.22 64.6C102.22 60.34 97.71 56.89 92.15 56.89C86.59 56.89 82.08 60.34 82.08 64.6C82.08 68.85 86.59 72.31 92.15 72.31Z" fill="#E9411B" fill-opacity="1.000000" fill-rule="nonzero"/>
        <path id="circle4351" d="M105.15 72.31C110.71 72.31 115.21 68.85 115.21 64.6C115.21 60.34 110.71 56.89 105.15 56.89C99.58 56.89 95.08 60.34 95.08 64.6C95.08 68.85 99.58 72.31 105.15 72.31Z" fill="#E9411B" fill-opacity="1.000000" fill-rule="nonzero"/>
        <path id="circle4353" d="M91.6 113.62C97.16 113.62 101.67 110.17 101.67 105.92C101.67 101.66 97.16 98.21 91.6 98.21C86.04 98.21 81.53 101.66 81.53 105.92C81.53 110.17 86.04 113.62 91.6 113.62Z" fill="#E9411B" fill-opacity="1.000000" fill-rule="nonzero"/>
        <path id="path4355 (Stroke)" d="M98.67 54C103.94 54 108.22 58.27 108.22 63.55L108.22 104.62C108.22 109.9 103.94 114.18 98.67 114.18C93.39 114.18 89.11 109.9 89.11 104.62L89.11 63.55C89.11 58.27 93.39 54 98.67 54Z" fill="#E9411B" fill-opacity="1.000000" fill-rule="evenodd"/>
        <path id="circle4357" d="M105.87 113.62C111.43 113.62 115.94 110.17 115.94 105.92C115.94 101.66 111.43 98.21 105.87 98.21C100.31 98.21 95.8 101.66 95.8 105.92C95.8 110.17 100.31 113.62 105.87 113.62Z" fill="#E9411B" fill-opacity="1.000000" fill-rule="nonzero"/>
        <path id="circle4359" d="M103.79 93.58C110.56 93.58 116.05 89.38 116.05 84.2C116.05 79.01 110.56 74.81 103.79 74.81C97.02 74.81 91.53 79.01 91.53 84.2C91.53 89.38 97.02 93.58 103.79 93.58Z" fill="#E9411B" fill-opacity="1.000000" fill-rule="nonzero"/>
        <path id="circle4361" d="M93.61 93.58C100.39 93.58 105.87 89.38 105.87 84.2C105.87 79.01 100.39 74.81 93.61 74.81C86.84 74.81 81.35 79.01 81.35 84.2C81.35 89.38 86.84 93.58 93.61 93.58Z" fill="#E9411B" fill-opacity="1.000000" fill-rule="nonzero"/>
        <path id="path4363 (Stroke)" d="M98.58 60.06C100.1 60.06 101.34 61.3 101.34 62.82L101.34 75.85C101.34 77.36 100.1 78.6 98.58 78.6C97.06 78.6 95.83 77.36 95.83 75.85L95.83 62.82C95.83 61.3 97.06 60.06 98.58 60.06Z" fill="#FFFFFF" fill-opacity="1.000000" fill-rule="evenodd"/>
        <path id="path4365 (Stroke)" d="M98.58 89.58C100.1 89.58 101.34 90.81 101.34 92.33L101.34 104.68C101.34 106.2 100.1 107.43 98.58 107.43C97.06 107.43 95.83 106.2 95.83 104.68L95.83 92.33C95.83 90.81 97.06 89.58 98.58 89.58Z" fill="#FFFFFF" fill-opacity="1.000000" fill-rule="evenodd"/>
        <path id="path4367 (Stroke)" d="M95.46 83.98C95.46 82.46 96.69 81.23 98.21 81.23L98.97 81.23C100.48 81.23 101.72 82.46 101.72 83.98C101.72 85.5 100.48 86.74 98.97 86.74L98.21 86.74C96.69 86.74 95.46 85.5 95.46 83.98Z" fill="#FFFFFF" fill-opacity="1.000000" fill-rule="evenodd"/>
        <path id="circle4283" d="M92.15 205.86C97.71 205.86 102.22 202.41 102.22 198.15C102.22 193.89 97.71 190.44 92.15 190.44C86.59 190.44 82.08 193.89 82.08 198.15C82.08 202.41 86.59 205.86 92.15 205.86Z" fill="#367136" fill-opacity="1.000000" fill-rule="nonzero"/>
        <path id="circle4285" d="M105.15 205.86C110.71 205.86 115.21 202.41 115.21 198.15C115.21 193.89 110.71 190.44 105.15 190.44C99.58 190.44 95.08 193.89 95.08 198.15C95.08 202.41 99.58 205.86 105.15 205.86Z" fill="#367136" fill-opacity="1.000000" fill-rule="nonzero"/>
        <path id="circle4287" d="M91.6 247.17C97.16 247.17 101.67 243.72 101.67 239.47C101.67 235.21 97.16 231.76 91.6 231.76C86.04 231.76 81.53 235.21 81.53 239.47C81.53 243.72 86.04 247.17 91.6 247.17Z" fill="#367136" fill-opacity="1.000000" fill-rule="nonzero"/>
        <path id="path4289 (Stroke)" d="M98.67 187.55C103.94 187.55 108.22 191.82 108.22 197.1L108.22 238.17C108.22 243.45 103.94 247.73 98.67 247.73C93.39 247.73 89.11 243.45 89.11 238.17L89.11 197.1C89.11 191.82 93.39 187.55 98.67 187.55Z" fill="#367136" fill-opacity="1.000000" fill-rule="evenodd"/>
        <path id="circle4291" d="M105.87 247.17C111.43 247.17 115.94 243.72 115.94 239.47C115.94 235.21 111.43 231.76 105.87 231.76C100.31 231.76 95.8 235.21 95.8 239.47C95.8 243.72 100.31 247.17 105.87 247.17Z" fill="#367136" fill-opacity="1.000000" fill-rule="nonzero"/>
        <path id="circle4293" d="M103.79 227.13C110.56 227.13 116.05 222.93 116.05 217.75C116.05 212.56 110.56 208.36 103.79 208.36C97.02 208.36 91.53 212.56 91.53 217.75C91.53 222.93 97.02 227.13 103.79 227.13Z" fill="#367136" fill-opacity="1.000000" fill-rule="nonzero"/>
        <path id="circle4295" d="M93.61 227.13C100.39 227.13 105.87 222.93 105.87 217.75C105.87 212.56 100.39 208.36 93.61 208.36C86.84 208.36 81.35 212.56 81.35 217.75C81.35 222.93 86.84 227.13 93.61 227.13Z" fill="#367136" fill-opacity="1.000000" fill-rule="nonzero"/>
        <path id="path4297 (Stroke)" d="M98.58 193.61C100.1 193.61 101.34 194.85 101.34 196.37L101.34 209.4C101.34 210.91 100.1 212.15 98.58 212.15C97.06 212.15 95.83 210.91 95.83 209.4L95.83 196.37C95.83 194.85 97.06 193.61 98.58 193.61Z" fill="#FFFFFF" fill-opacity="1.000000" fill-rule="evenodd"/>
        <path id="path4299 (Stroke)" d="M98.58 223.13C100.1 223.13 101.34 224.37 101.34 225.88L101.34 238.23C101.34 239.75 100.1 240.98 98.58 240.98C97.06 240.98 95.83 239.75 95.83 238.23L95.83 225.88C95.83 224.37 97.06 223.13 98.58 223.13Z" fill="#FFFFFF" fill-opacity="1.000000" fill-rule="evenodd"/>
        <path id="path4301 (Stroke)" d="M95.46 217.53C95.46 216.01 96.69 214.78 98.21 214.78L98.97 214.78C100.48 214.78 101.72 216.01 101.72 217.53C101.72 219.05 100.48 220.29 98.97 220.29L98.21 220.29C96.69 220.29 95.46 219.05 95.46 217.53Z" fill="#FFFFFF" fill-opacity="1.000000" fill-rule="evenodd"/>
        <path id="circle4305" d="M39.79 205.86C45.35 205.86 49.86 202.41 49.86 198.15C49.86 193.89 45.35 190.44 39.79 190.44C34.23 190.44 29.72 193.89 29.72 198.15C29.72 202.41 34.23 205.86 39.79 205.86Z" fill="#367136" fill-opacity="1.000000" fill-rule="nonzero"/>
        <path id="circle4307" d="M52.79 205.86C58.35 205.86 62.85 202.41 62.85 198.15C62.85 193.89 58.35 190.44 52.79 190.44C47.23 190.44 42.72 193.89 42.72 198.15C42.72 202.41 47.23 205.86 52.79 205.86Z" fill="#367136" fill-opacity="1.000000" fill-rule="nonzero"/>
        <path id="circle4309" d="M39.24 247.17C44.8 247.17 49.31 243.72 49.31 239.47C49.31 235.21 44.8 231.76 39.24 231.76C33.68 231.76 29.17 235.21 29.17 239.47C29.17 243.72 33.68 247.17 39.24 247.17Z" fill="#367136" fill-opacity="1.000000" fill-rule="nonzero"/>
        <path id="path4311 (Stroke)" d="M46.31 187.55C51.59 187.55 55.86 191.82 55.86 197.1L55.86 238.17C55.86 243.45 51.59 247.73 46.31 247.73C41.03 247.73 36.75 243.45 36.75 238.17L36.75 197.1C36.75 191.82 41.03 187.55 46.31 187.55Z" fill="#367136" fill-opacity="1.000000" fill-rule="evenodd"/>
        <path id="circle4313" d="M53.51 247.17C59.07 247.17 63.58 243.72 63.58 239.47C63.58 235.21 59.07 231.76 53.51 231.76C47.95 231.76 43.45 235.21 43.45 239.47C43.45 243.72 47.95 247.17 53.51 247.17Z" fill="#367136" fill-opacity="1.000000" fill-rule="nonzero"/>
        <path id="circle4315" d="M51.43 227.13C58.2 227.13 63.69 222.93 63.69 217.75C63.69 212.56 58.2 208.36 51.43 208.36C44.66 208.36 39.17 212.56 39.17 217.75C39.17 222.93 44.66 227.13 51.43 227.13Z" fill="#367136" fill-opacity="1.000000" fill-rule="nonzero"/>
        <path id="circle4317" d="M41.26 227.13C48.03 227.13 53.52 222.93 53.52 217.75C53.52 212.56 48.03 208.36 41.26 208.36C34.48 208.36 29 212.56 29 217.75C29 222.93 34.48 227.13 41.26 227.13Z" fill="#367136" fill-opacity="1.000000" fill-rule="nonzero"/>
        <path id="path4319 (Stroke)" d="M46.23 193.61C47.75 193.61 48.98 194.85 48.98 196.37L48.98 209.4C48.98 210.91 47.75 212.15 46.23 212.15C44.71 212.15 43.47 210.91 43.47 209.4L43.47 196.37C43.47 194.85 44.71 193.61 46.23 193.61Z" fill="#FFFFFF" fill-opacity="1.000000" fill-rule="evenodd"/>
        <path id="path4321 (Stroke)" d="M46.23 223.13C47.75 223.13 48.98 224.37 48.98 225.88L48.98 238.23C48.98 239.75 47.75 240.98 46.23 240.98C44.71 240.98 43.47 239.75 43.47 238.23L43.47 225.88C43.47 224.37 44.71 223.13 46.23 223.13Z" fill="#FFFFFF" fill-opacity="1.000000" fill-rule="evenodd"/>
        <path id="path4323 (Stroke)" d="M43.1 217.53C43.1 216.01 44.33 214.78 45.85 214.78L46.61 214.78C48.13 214.78 49.36 216.01 49.36 217.53C49.36 219.05 48.13 220.29 46.61 220.29L45.85 220.29C44.33 220.29 43.1 219.05 43.1 217.53Z" fill="#FFFFFF" fill-opacity="1.000000" fill-rule="evenodd"/>
        <path id="circle4327" d="M144.05 205.86C149.61 205.86 154.12 202.41 154.12 198.15C154.12 193.89 149.61 190.44 144.05 190.44C138.49 190.44 133.99 193.89 133.99 198.15C133.99 202.41 138.49 205.86 144.05 205.86Z" fill="#367136" fill-opacity="1.000000" fill-rule="nonzero"/>
        <path id="circle4329" d="M157.05 205.86C162.61 205.86 167.12 202.41 167.12 198.15C167.12 193.89 162.61 190.44 157.05 190.44C151.49 190.44 146.98 193.89 146.98 198.15C146.98 202.41 151.49 205.86 157.05 205.86Z" fill="#367136" fill-opacity="1.000000" fill-rule="nonzero"/>
        <path id="circle4331" d="M143.51 247.17C149.07 247.17 153.58 243.72 153.58 239.47C153.58 235.21 149.07 231.76 143.51 231.76C137.95 231.76 133.44 235.21 133.44 239.47C133.44 243.72 137.95 247.17 143.51 247.17Z" fill="#367136" fill-opacity="1.000000" fill-rule="nonzero"/>
        <path id="path4333 (Stroke)" d="M150.57 187.55C155.85 187.55 160.13 191.82 160.13 197.1L160.13 238.17C160.13 243.45 155.85 247.73 150.57 247.73C145.3 247.73 141.02 243.45 141.02 238.17L141.02 197.1C141.02 191.82 145.3 187.55 150.57 187.55Z" fill="#367136" fill-opacity="1.000000" fill-rule="evenodd"/>
        <path id="circle4335" d="M157.78 247.17C163.34 247.17 167.85 243.72 167.85 239.47C167.85 235.21 163.34 231.76 157.78 231.76C152.22 231.76 147.71 235.21 147.71 239.47C147.71 243.72 152.22 247.17 157.78 247.17Z" fill="#367136" fill-opacity="1.000000" fill-rule="nonzero"/>
        <path id="circle4337" d="M155.69 227.13C162.46 227.13 167.95 222.93 167.95 217.75C167.95 212.56 162.46 208.36 155.69 208.36C148.92 208.36 143.43 212.56 143.43 217.75C143.43 222.93 148.92 227.13 155.69 227.13Z" fill="#367136" fill-opacity="1.000000" fill-rule="nonzero"/>
        <path id="circle4339" d="M145.52 227.13C152.29 227.13 157.78 222.93 157.78 217.75C157.78 212.56 152.29 208.36 145.52 208.36C138.75 208.36 133.26 212.56 133.26 217.75C133.26 222.93 138.75 227.13 145.52 227.13Z" fill="#367136" fill-opacity="1.000000" fill-rule="nonzero"/>
        <path id="path4341 (Stroke)" d="M150.49 193.61C152.01 193.61 153.24 194.85 153.24 196.37L153.24 209.4C153.24 210.91 152.01 212.15 150.49 212.15C148.97 212.15 147.74 210.91 147.74 209.4L147.74 196.37C147.74 194.85 148.97 193.61 150.49 193.61Z" fill="#FFFFFF" fill-opacity="1.000000" fill-rule="evenodd"/>
        <path id="path4343 (Stroke)" d="M150.49 223.13C152.01 223.13 153.24 224.37 153.24 225.88L153.24 238.23C153.24 239.75 152.01 240.98 150.49 240.98C148.97 240.98 147.74 239.75 147.74 238.23L147.74 225.88C147.74 224.37 148.97 223.13 150.49 223.13Z" fill="#FFFFFF" fill-opacity="1.000000" fill-rule="evenodd"/>
        <path id="path4345 (Stroke)" d="M147.36 217.53C147.36 216.01 148.59 214.78 150.11 214.78L150.87 214.78C152.39 214.78 153.62 216.01 153.62 217.53C153.62 219.05 152.39 220.29 150.87 220.29L150.11 220.29C148.59 220.29 147.36 219.05 147.36 217.53Z" fill="#FFFFFF" fill-opacity="1.000000" fill-rule="evenodd"/>
        <path id="circle4376" d="M92.15 139.85C97.71 139.85 102.22 136.4 102.22 132.14C102.22 127.88 97.71 124.43 92.15 124.43C86.59 124.43 82.08 127.88 82.08 132.14C82.08 136.4 86.59 139.85 92.15 139.85Z" fill="#367136" fill-opacity="1.000000" fill-rule="nonzero"/>
        <path id="circle4378" d="M105.15 139.85C110.71 139.85 115.21 136.4 115.21 132.14C115.21 127.88 110.71 124.43 105.15 124.43C99.58 124.43 95.08 127.88 95.08 132.14C95.08 136.4 99.58 139.85 105.15 139.85Z" fill="#367136" fill-opacity="1.000000" fill-rule="nonzero"/>
        <path id="circle4380" d="M91.6 181.16C97.16 181.16 101.67 177.71 101.67 173.46C101.67 169.2 97.16 165.75 91.6 165.75C86.04 165.75 81.53 169.2 81.53 173.46C81.53 177.71 86.04 181.16 91.6 181.16Z" fill="#367136" fill-opacity="1.000000" fill-rule="nonzero"/>
        <path id="path4382 (Stroke)" d="M98.67 121.54C103.94 121.54 108.22 125.81 108.22 131.09L108.22 172.16C108.22 177.44 103.94 181.72 98.67 181.72C93.39 181.72 89.11 177.44 89.11 172.16L89.11 131.09C89.11 125.81 93.39 121.54 98.67 121.54Z" fill="#367136" fill-opacity="1.000000" fill-rule="evenodd"/>
        <path id="circle4384" d="M105.87 181.16C111.43 181.16 115.94 177.71 115.94 173.46C115.94 169.2 111.43 165.75 105.87 165.75C100.31 165.75 95.8 169.2 95.8 173.46C95.8 177.71 100.31 181.16 105.87 181.16Z" fill="#367136" fill-opacity="1.000000" fill-rule="nonzero"/>
        <path id="circle4386" d="M103.79 161.12C110.56 161.12 116.05 156.92 116.05 151.74C116.05 146.56 110.56 142.35 103.79 142.35C97.02 142.35 91.53 146.56 91.53 151.74C91.53 156.92 97.02 161.12 103.79 161.12Z" fill="#367136" fill-opacity="1.000000" fill-rule="nonzero"/>
        <path id="circle4388" d="M93.61 161.12C100.39 161.12 105.87 156.92 105.87 151.74C105.87 146.56 100.39 142.35 93.61 142.35C86.84 142.35 81.35 146.56 81.35 151.74C81.35 156.92 86.84 161.12 93.61 161.12Z" fill="#367136" fill-opacity="1.000000" fill-rule="nonzero"/>
        <path id="path4390 (Stroke)" d="M98.58 127.61C100.1 127.61 101.34 128.84 101.34 130.36L101.34 143.39C101.34 144.91 100.1 146.14 98.58 146.14C97.06 146.14 95.83 144.91 95.83 143.39L95.83 130.36C95.83 128.84 97.06 127.61 98.58 127.61Z" fill="#FFFFFF" fill-opacity="1.000000" fill-rule="evenodd"/>
        <path id="path4392 (Stroke)" d="M98.58 157.12C100.1 157.12 101.34 158.36 101.34 159.88L101.34 172.22C101.34 173.74 100.1 174.97 98.58 174.97C97.06 174.97 95.83 173.74 95.83 172.22L95.83 159.88C95.83 158.36 97.06 157.12 98.58 157.12Z" fill="#FFFFFF" fill-opacity="1.000000" fill-rule="evenodd"/>
        <path id="path4394 (Stroke)" d="M95.46 151.53C95.46 150.01 96.69 148.77 98.21 148.77L98.97 148.77C100.48 148.77 101.72 150.01 101.72 151.53C101.72 153.05 100.48 154.28 98.97 154.28L98.21 154.28C96.69 154.28 95.46 153.05 95.46 151.53Z" fill="#FFFFFF" fill-opacity="1.000000" fill-rule="evenodd"/>
        <path id="circle4239" d="M39.79 139.85C45.35 139.85 49.86 136.4 49.86 132.14C49.86 127.88 45.35 124.43 39.79 124.43C34.23 124.43 29.72 127.88 29.72 132.14C29.72 136.4 34.23 139.85 39.79 139.85Z" fill="#367136" fill-opacity="1.000000" fill-rule="nonzero"/>
        <path id="circle4241" d="M52.79 139.85C58.35 139.85 62.85 136.4 62.85 132.14C62.85 127.88 58.35 124.43 52.79 124.43C47.23 124.43 42.72 127.88 42.72 132.14C42.72 136.4 47.23 139.85 52.79 139.85Z" fill="#367136" fill-opacity="1.000000" fill-rule="nonzero"/>
        <path id="circle4243" d="M39.24 181.16C44.8 181.16 49.31 177.71 49.31 173.46C49.31 169.2 44.8 165.75 39.24 165.75C33.68 165.75 29.17 169.2 29.17 173.46C29.17 177.71 33.68 181.16 39.24 181.16Z" fill="#367136" fill-opacity="1.000000" fill-rule="nonzero"/>
        <path id="path4245 (Stroke)" d="M46.31 121.54C51.59 121.54 55.86 125.81 55.86 131.09L55.86 172.16C55.86 177.44 51.59 181.72 46.31 181.72C41.03 181.72 36.75 177.44 36.75 172.16L36.75 131.09C36.75 125.81 41.03 121.54 46.31 121.54Z" fill="#367136" fill-opacity="1.000000" fill-rule="evenodd"/>
        <path id="circle4247" d="M53.51 181.16C59.07 181.16 63.58 177.71 63.58 173.46C63.58 169.2 59.07 165.75 53.51 165.75C47.95 165.75 43.45 169.2 43.45 173.46C43.45 177.71 47.95 181.16 53.51 181.16Z" fill="#367136" fill-opacity="1.000000" fill-rule="nonzero"/>
        <path id="circle4249" d="M51.43 161.12C58.2 161.12 63.69 156.92 63.69 151.74C63.69 146.56 58.2 142.35 51.43 142.35C44.66 142.35 39.17 146.56 39.17 151.74C39.17 156.92 44.66 161.12 51.43 161.12Z" fill="#367136" fill-opacity="1.000000" fill-rule="nonzero"/>
        <path id="circle4251" d="M41.26 161.12C48.03 161.12 53.52 156.92 53.52 151.74C53.52 146.56 48.03 142.35 41.26 142.35C34.48 142.35 29 146.56 29 151.74C29 156.92 34.48 161.12 41.26 161.12Z" fill="#367136" fill-opacity="1.000000" fill-rule="nonzero"/>
        <path id="path4253 (Stroke)" d="M46.23 127.61C47.75 127.61 48.98 128.84 48.98 130.36L48.98 143.39C48.98 144.91 47.75 146.14 46.23 146.14C44.71 146.14 43.47 144.91 43.47 143.39L43.47 130.36C43.47 128.84 44.71 127.61 46.23 127.61Z" fill="#FFFFFF" fill-opacity="1.000000" fill-rule="evenodd"/>
        <path id="path4255 (Stroke)" d="M46.23 157.12C47.75 157.12 48.98 158.36 48.98 159.88L48.98 172.22C48.98 173.74 47.75 174.97 46.23 174.97C44.71 174.97 43.47 173.74 43.47 172.22L43.47 159.88C43.47 158.36 44.71 157.12 46.23 157.12Z" fill="#FFFFFF" fill-opacity="1.000000" fill-rule="evenodd"/>
        <path id="path4257 (Stroke)" d="M43.1 151.53C43.1 150.01 44.33 148.77 45.85 148.77L46.61 148.77C48.13 148.77 49.36 150.01 49.36 151.53C49.36 153.05 48.13 154.28 46.61 154.28L45.85 154.28C44.33 154.28 43.1 153.05 43.1 151.53Z" fill="#FFFFFF" fill-opacity="1.000000" fill-rule="evenodd"/>
        <path id="circle4261" d="M144.05 139.85C149.61 139.85 154.12 136.4 154.12 132.14C154.12 127.88 149.61 124.43 144.05 124.43C138.49 124.43 133.99 127.88 133.99 132.14C133.99 136.4 138.49 139.85 144.05 139.85Z" fill="#367136" fill-opacity="1.000000" fill-rule="nonzero"/>
        <path id="circle4263" d="M157.05 139.85C162.61 139.85 167.12 136.4 167.12 132.14C167.12 127.88 162.61 124.43 157.05 124.43C151.49 124.43 146.98 127.88 146.98 132.14C146.98 136.4 151.49 139.85 157.05 139.85Z" fill="#367136" fill-opacity="1.000000" fill-rule="nonzero"/>
        <path id="circle4265" d="M143.51 181.16C149.07 181.16 153.58 177.71 153.58 173.46C153.58 169.2 149.07 165.75 143.51 165.75C137.95 165.75 133.44 169.2 133.44 173.46C133.44 177.71 137.95 181.16 143.51 181.16Z" fill="#367136" fill-opacity="1.000000" fill-rule="nonzero"/>
        <path id="path4267 (Stroke)" d="M150.57 121.54C155.85 121.54 160.13 125.81 160.13 131.09L160.13 172.16C160.13 177.44 155.85 181.72 150.57 181.72C145.3 181.72 141.02 177.44 141.02 172.16L141.02 131.09C141.02 125.81 145.3 121.54 150.57 121.54Z" fill="#367136" fill-opacity="1.000000" fill-rule="evenodd"/>
        <path id="circle4269" d="M157.78 181.16C163.34 181.16 167.85 177.71 167.85 173.46C167.85 169.2 163.34 165.75 157.78 165.75C152.22 165.75 147.71 169.2 147.71 173.46C147.71 177.71 152.22 181.16 157.78 181.16Z" fill="#367136" fill-opacity="1.000000" fill-rule="nonzero"/>
        <path id="circle4271" d="M155.69 161.12C162.46 161.12 167.95 156.92 167.95 151.74C167.95 146.56 162.46 142.35 155.69 142.35C148.92 142.35 143.43 146.56 143.43 151.74C143.43 156.92 148.92 161.12 155.69 161.12Z" fill="#367136" fill-opacity="1.000000" fill-rule="nonzero"/>
        <path id="circle4273" d="M145.52 161.12C152.29 161.12 157.78 156.92 157.78 151.74C157.78 146.56 152.29 142.35 145.52 142.35C138.75 142.35 133.26 146.56 133.26 151.74C133.26 156.92 138.75 161.12 145.52 161.12Z" fill="#367136" fill-opacity="1.000000" fill-rule="nonzero"/>
        <path id="path4275 (Stroke)" d="M150.49 127.61C152.01 127.61 153.24 128.84 153.24 130.36L153.24 143.39C153.24 144.91 152.01 146.14 150.49 146.14C148.97 146.14 147.74 144.91 147.74 143.39L147.74 130.36C147.74 128.84 148.97 127.61 150.49 127.61Z" fill="#FFFFFF" fill-opacity="1.000000" fill-rule="evenodd"/>
        <path id="path4277 (Stroke)" d="M150.49 157.12C152.01 157.12 153.24 158.36 153.24 159.88L153.24 172.22C153.24 173.74 152.01 174.97 150.49 174.97C148.97 174.97 147.74 173.74 147.74 172.22L147.74 159.88C147.74 158.36 148.97 157.12 150.49 157.12Z" fill="#FFFFFF" fill-opacity="1.000000" fill-rule="evenodd"/>
        <path id="path4279 (Stroke)" d="M147.36 151.53C147.36 150.01 148.59 148.77 150.11 148.77L150.87 148.77C152.39 148.77 153.62 150.01 153.62 151.53C153.62 153.05 152.39 154.28 150.87 154.28L150.11 154.28C148.59 154.28 147.36 153.05 147.36 151.53Z" fill="#FFFFFF" fill-opacity="1.000000" fill-rule="evenodd"/>
    </g>
</svg>
