<svg width="270.000000" height="270.000000" viewBox="0 0 270 270" fill="none" xmlns="http://www.w3.org/2000/svg" xmlns:xlink="http://www.w3.org/1999/xlink">
    <desc>
        Created with Pixso.
    </desc>
    <defs>
        <filter id="filter_6_4_dd" x="83.940109" y="60.721558" width="134.788834" height="150.791016" filterUnits="userSpaceOnUse" color-interpolation-filters="sRGB">
            <feFlood flood-opacity="0" result="BackgroundImageFix"/>
            <feColorMatrix in="SourceAlpha" type="matrix" values="0 0 0 0 0 0 0 0 0 0 0 0 0 0 0 0 0 0 127 0" result="hardAlpha"/>
            <feMorphology radius="4" in="" result="BackgroundImageFix"/>
            <feOffset dx="4" dy="6"/>
            <feGaussianBlur stdDeviation="1.33333"/>
            <feComposite in2="hardAlpha" operator="out" k2="-1" k3="1"/>
            <feColorMatrix type="matrix" values="0 0 0 0 0 0 0 0 0 0 0 0 0 0 0 0 0 0 0.5 0"/>
            <feBlend mode="normal" in2="BackgroundImageFix" result="effect_dropShadow_1"/>
            <feBlend mode="normal" in="SourceGraphic" in2="effect_dropShadow_1" result="shape"/>
        </filter>
    </defs>
    <circle id="Ellipse 2" cx="135.000000" cy="135.000000" r="135.000000" fill="#367136" fill-opacity="1.000000"/>
    <path id="Ellipse 1" d="M255 135C255 201.27 201.27 255 135 255C68.72 255 15 201.27 15 135C15 68.72 68.72 15 135 15C201.27 15 255 68.72 255 135Z" fill="#CFE684" fill-opacity="1.000000" fill-rule="nonzero"/>
    <g filter="url(#filter_6_4_dd)">
        <path id="Polygon 1" d="M203.2 123.69L98.42 63.65C93.74 60.97 87.92 64.36 87.94 69.75L88.33 190.52C88.35 195.91 94.19 199.26 98.85 196.55L203.24 135.82C207.9 133.11 207.88 126.37 203.2 123.69Z" fill="#367136" fill-opacity="1.000000" fill-rule="evenodd"/>
    </g>
</svg>
