<svg width="74.007812" height="58.972656" viewBox="0 0 74.0078 58.9727" fill="none" xmlns="http://www.w3.org/2000/svg" xmlns:xlink="http://www.w3.org/1999/xlink">
    <desc>
        Created with Pixso.
    </desc>
    <defs/>
    <path id="z" d="M61.56 24.02Q62.25 23.85 62.84 23.26L60.14 22.91Q57.57 22.84 55 22.84Q51.79 22.84 48.58 22.94Q42.84 23.1 36.78 23.57Q40.61 18.3 43.39 14.7Q46.2 11.07 46.51 10.76Q47.61 10.16 47.97 9.27Q48.08 8.99 48.11 8.69Q48.31 7.4 47.96 6.46Q47.8 5.64 47.25 4.78Q47.24 4.75 47.22 4.73Q46.66 3.87 45.26 3.57Q42.06 2.75 38.19 3.1Q33.07 3.41 27.41 5.09Q21.75 6.77 16.63 8.06Q14.36 8.06 12.68 8.14Q11.62 8.19 10.58 8.4Q9.99 8.52 9.4 8.69Q8.62 9 7.57 9.08Q7.12 9.11 6.81 9.33Q6.38 9.63 6.2 10.29Q5.73 11.58 5.73 13.49Q9.25 15.41 12.6 15.41Q15.5 15.41 18.62 14.7Q21.75 13.96 25.03 13.1Q28.31 12.2 31.47 11.34Q34.67 10.44 37.88 10.13Q36.78 11.89 33.82 15.72Q30.85 19.55 27.33 24.51Q23.15 24.86 19.25 25.33Q15.34 25.8 11.16 26.26Q9.56 26.62 7.96 27.01Q6.35 27.4 5.1 28.22Q4.28 28.69 3.97 28.84Q3.66 29 3 29.82Q3 30.91 6.51 32.2Q7.33 32.51 8.11 33.02Q8.93 33.49 10.53 33.33Q12.76 33.33 15.73 33.1Q18.7 32.83 21.9 32.51Q18.54 37.63 16.04 42.51Q13.58 47.4 13.23 51.07Q12.93 53.39 13.06 53.42Q13.07 53.42 13.07 53.41Q13.23 53.33 14.05 53.65Q14.36 53.8 14.91 54.58Q15.5 55.41 16.28 55.72Q16.91 56.02 17.52 55.96Q17.54 55.96 17.57 55.95Q18.19 55.87 19.01 55.56Q31.98 52.2 44.99 49.66Q58.03 47.08 71 43.41Q71 42.33 70.79 42.28Q70.78 42.28 70.77 42.28Q70.53 42.28 70.22 41.97Q69.87 41.66 69.56 41.19Q69.53 41.14 69.49 41.09Q69.15 40.68 68.31 40.68Q65.68 40.68 63.06 40.83Q53.38 41.39 43.82 44.04Q31.67 47.4 19.32 51.58Q18.72 51.78 18.5 51.57Q18.39 51.46 18.39 51.23Q18.39 50.91 18.7 50.29Q19.01 49.62 19.32 49Q21.55 45.33 24.75 40.6Q27.96 35.87 31.32 31.07Q39.32 29.82 46.28 28.45Q53.23 27.08 56.28 26.26Q57.57 25.95 58.35 25.72Q59.17 25.48 60.14 24.66Q60.73 24.22 61.39 24.06Q61.43 24.05 61.47 24.04Q61.52 24.03 61.56 24.02Z" fill="#603B1A" fill-opacity="1.000000" fill-rule="evenodd"/>
    <path id="z" d="M62.84 23.26Q62.21 23.88 61.47 24.04Q60.77 24.19 60.14 24.66Q59.17 25.48 58.35 25.72Q57.57 25.95 56.28 26.26Q53.23 27.08 46.28 28.45Q39.32 29.82 31.32 31.07Q27.96 35.87 24.75 40.6Q21.55 45.33 19.32 49Q19.01 49.62 18.7 50.29Q18.39 50.91 18.39 51.23Q18.39 51.89 19.32 51.58Q31.67 47.4 43.82 44.04Q55.96 40.68 68.31 40.68Q69.25 40.68 69.56 41.19Q69.87 41.66 70.22 41.97Q70.53 42.28 70.77 42.28Q71 42.28 71 43.41Q58.03 47.08 44.99 49.66Q31.98 52.2 19.01 55.56Q18.19 55.87 17.57 55.95Q16.94 56.03 16.28 55.72Q15.5 55.41 14.91 54.58Q14.36 53.8 14.05 53.65Q13.23 53.33 13.07 53.41Q12.92 53.49 13.23 51.07Q13.58 47.4 16.04 42.51Q18.54 37.63 21.9 32.51Q18.7 32.83 15.73 33.1Q12.76 33.33 10.53 33.33Q8.93 33.49 8.11 33.02Q7.33 32.51 6.51 32.2Q3 30.91 3 29.82Q3.66 29 3.97 28.84Q4.28 28.69 5.1 28.22Q6.35 27.4 7.96 27.01Q9.56 26.62 11.16 26.26Q15.34 25.8 19.25 25.33Q23.15 24.86 27.33 24.51Q30.85 19.55 33.82 15.72Q36.78 11.89 37.88 10.13Q34.67 10.44 31.47 11.34Q28.31 12.2 25.03 13.1Q21.75 13.96 18.62 14.7Q15.5 15.41 12.6 15.41Q9.25 15.41 5.73 13.49Q5.73 11.58 6.2 10.29Q6.51 9.16 7.57 9.08Q8.62 9 9.4 8.69Q11 8.22 12.68 8.14Q14.36 8.06 16.63 8.06Q21.75 6.77 27.41 5.09Q33.07 3.41 38.19 3.1Q42.06 2.75 45.26 3.57Q46.71 3.88 47.25 4.78Q47.8 5.64 47.96 6.46Q48.31 7.4 48.11 8.69Q47.96 9.98 46.51 10.76Q46.2 11.07 43.39 14.7Q40.61 18.3 36.78 23.57Q42.84 23.1 48.58 22.94Q54.36 22.75 60.14 22.91L62.84 23.26Z" stroke="#603B1A" stroke-opacity="1.000000" stroke-width="3.000000"/>
</svg>
